<svg width="97" height="96" viewBox="0 0 97 96" fill="none" xmlns="http://www.w3.org/2000/svg">
<path fill-rule="evenodd" clip-rule="evenodd" d="M75.5444 52.3807C87.3931 52.3807 97 61.9875 97 73.8363C97 85.685 87.3931 95.2918 75.5444 95.2918C63.6957 95.2918 54.0889 85.685 54.0889 73.8363C54.0889 61.9875 63.6957 52.3807 75.5444 52.3807ZM83.7067 74.6572C83.7146 74.8546 83.7225 75.0598 83.7225 75.2651C83.7225 75.8255 83.6909 76.3702 83.6357 76.907L87.1405 78.6831C88.2852 79.2594 88.3878 81.7696 85.4276 80.7197L83.1068 79.5435C81.9385 83.4273 79.2309 86.1428 76.0733 86.1428C72.9 86.1428 70.1766 83.3879 69.0162 79.4725L66.4823 80.625C63.5615 82.0064 63.5694 79.0936 64.8009 78.541L68.5031 76.8596C68.4478 76.3307 68.4242 75.7939 68.4242 75.2651C68.4242 75.0598 68.4242 74.8546 68.4399 74.6493L64.5246 73.2995C63.0563 72.7943 63.3958 70.1498 66.0007 71.0734L69.1346 72.1549H83.0436L85.9091 71.1681C88.7035 70.3314 88.7509 72.9285 87.3853 73.3942L83.7067 74.6572ZM75.9944 64.9083C76.4838 64.9083 76.9574 65.003 77.4074 65.1688C77.9836 63.8979 78.1573 63.4953 78.8046 62.2559L80.3597 63.2664C80.6834 63.4795 79.3493 65.1846 78.9309 66.0924C80.2492 67.2291 81.2833 69.1078 81.8122 71.3813H70.1687C70.6976 69.1078 71.7317 67.2291 73.05 66.0924C72.8368 65.6266 72.6553 65.2161 72.4974 64.853L71.5186 63.1243L73.0815 62.1139C73.3736 61.9244 73.6341 62.3901 73.863 63.0216C74.1314 63.7558 74.3682 64.7267 74.5656 65.1688C75.0313 65.003 75.505 64.9162 75.9944 64.9083ZM13.9643 21.7288C20.3583 23.868 29.2626 25.1863 39.1536 25.1863C49.0447 25.1863 57.949 23.868 64.343 21.7288C69.9556 19.8579 73.4289 17.5845 73.4289 15.3663C73.4289 13.1481 69.9556 10.8747 64.343 9.00382C57.949 6.87248 49.0447 5.54631 39.1536 5.54631C29.2626 5.54631 20.3583 6.86458 13.9643 9.00382C2.05241 12.9823 1.72087 17.6476 13.9643 21.7288ZM4.92578 38.4559C5.36784 40.5241 8.73853 42.6081 13.9643 44.3526C20.3583 46.4919 29.2626 47.8101 39.1536 47.8101C49.0447 47.8101 57.949 46.4919 64.343 44.3526C69.9556 42.4818 73.4289 40.2083 73.4289 37.9902H73.4526V22.755C71.4554 24.1206 68.8899 25.3284 65.8823 26.3309C58.991 28.628 49.5341 30.0568 39.1536 30.0568C28.7653 30.0568 19.3163 28.6359 12.425 26.3309C9.44897 25.3363 6.91504 24.1522 4.93368 22.8023V38.4559H4.92578ZM49.9683 73.7257C46.5344 74.0731 42.9032 74.2546 39.1536 74.2546C28.7653 74.2546 19.3163 72.8337 12.425 70.5287C9.44897 69.5341 6.91504 68.35 4.93368 67.0002V81.5959C5.37573 83.6641 8.74642 85.7481 13.9722 87.4927C20.3662 89.624 29.2705 90.9502 39.1615 90.9502C45.0977 90.9502 50.6708 90.4766 55.565 89.6319C56.7965 91.1633 58.1937 92.5527 59.7409 93.7683C53.7968 95.0708 46.7239 95.8207 39.1615 95.8207C28.7732 95.8207 19.3242 94.3998 12.4329 92.0948C8.80168 90.8791 0.063151 86.9006 0.063151 82.1327C0.063151 81.5723 0.063151 81.1065 0.063151 80.5697C0.0473633 58.8458 0 37.106 0 15.3663C0 10.8194 4.74422 6.95931 12.4171 4.3938C19.3084 2.09668 28.7653 0.675781 39.1536 0.675781C49.542 0.675781 58.991 2.09668 65.8823 4.40169C72.8684 6.73039 77.4232 10.1405 78.1889 14.1664C78.2836 14.419 78.331 14.6953 78.331 14.9874V48.4338C77.3837 48.3232 76.4207 48.268 75.4418 48.268C74.7708 48.268 74.1156 48.2917 73.4605 48.3469V45.3946C71.4633 46.7603 68.8978 47.968 65.8902 48.9705C58.9989 51.2677 49.542 52.6965 39.1615 52.6965C28.7732 52.6965 19.3242 51.2756 12.4329 48.9705C9.45687 47.9759 6.92293 46.7918 4.94157 45.442V60.0378C5.38363 62.106 8.75431 64.1899 13.9801 65.9345C20.3741 68.0658 29.2784 69.392 39.1694 69.392C43.1243 69.392 46.9212 69.1789 50.4656 68.7921C50.134 70.3787 49.9683 72.0365 49.9683 73.7257Z" fill="#399B8E"/>
</svg>
