<svg width="88" height="98" viewBox="0 0 88 98" fill="none" xmlns="http://www.w3.org/2000/svg">
<path fill-rule="evenodd" clip-rule="evenodd" d="M62.1318 62.6965C61.9832 63.0637 61.7484 63.4074 61.4433 63.7122L58.3216 66.8296L58.3059 66.8452C58.0008 67.1499 57.6566 67.3843 57.2888 67.5328C56.9055 67.6969 56.5064 67.7828 56.0761 67.7828C55.6458 67.7828 55.239 67.6969 54.8634 67.5328C54.4957 67.3687 54.1593 67.1343 53.8698 66.8296L51.8356 64.8216C51.7104 64.8763 51.5852 64.9466 51.4679 65.0013C51.1236 65.1654 50.7637 65.306 50.4195 65.4389C50.4038 65.4545 50.3882 65.4545 50.3647 65.4545C50.0205 65.5951 49.6527 65.7123 49.2537 65.8373C49.1285 65.8764 49.0033 65.9233 48.8703 65.9467V68.4235C48.8703 68.8532 48.7843 69.2595 48.6356 69.6345C48.487 70.0017 48.2523 70.3377 47.9471 70.6346L47.9158 70.6658C47.6107 70.9549 47.2665 71.1893 46.8987 71.3378C46.5232 71.4862 46.1242 71.5722 45.7173 71.5722H41.2577C40.8274 71.5722 40.4284 71.4862 40.045 71.3378C39.6773 71.1893 39.333 70.9549 39.0279 70.6502C38.7228 70.3455 38.4881 70.0017 38.3394 69.6345C38.1908 69.2595 38.1047 68.861 38.1047 68.4235V65.5951C37.9639 65.5404 37.8309 65.5014 37.69 65.4467C37.3223 65.306 36.9624 65.142 36.5869 64.9779C36.2191 64.7982 35.8592 64.6341 35.515 64.4544C35.4055 64.3997 35.2959 64.3294 35.1864 64.2747L33.4417 66.0483L33.4025 66.0874C33.0974 66.3764 32.7532 66.5952 32.3854 66.7437C32.0177 66.8921 31.6187 66.9624 31.204 66.9624C30.7894 66.9624 30.3904 66.8921 30.0226 66.7437C29.6549 66.5952 29.3107 66.3843 29.0055 66.0952C28.9899 66.0795 28.9742 66.0795 28.9742 66.0639L25.8603 62.9152C25.5552 62.6261 25.3127 62.2824 25.1562 61.9151C24.9919 61.5479 24.9058 61.1338 24.9058 60.6885C24.9058 60.2587 24.9919 59.8525 25.1562 59.4618C25.3205 59.079 25.5552 58.7508 25.8603 58.4617L27.8554 56.4694C27.785 56.3287 27.7302 56.2115 27.6755 56.0865C27.5268 55.7428 27.3703 55.3834 27.2217 55.0005C27.0809 54.6411 26.9479 54.2583 26.8383 53.8754C26.7992 53.7504 26.7523 53.6176 26.7288 53.4926H24.2486C23.8183 53.4926 23.4115 53.4066 23.0359 53.2582C22.6682 53.1097 22.3318 52.8753 22.0345 52.5706L22.0032 52.5394C21.7137 52.2347 21.479 51.8909 21.3303 51.5393C21.1817 51.1643 21.0956 50.7658 21.0956 50.3595V45.906C21.0956 45.0231 21.4007 44.2809 22.0188 43.6793C22.3239 43.3746 22.6682 43.1402 23.0359 42.9917C23.4115 42.8433 23.8105 42.7573 24.2486 42.7573H27.0809C27.1356 42.6167 27.1747 42.4839 27.2295 42.3432C27.3703 41.976 27.5346 41.6166 27.6989 41.2416C27.8789 40.8666 28.0432 40.515 28.2231 40.1712C28.2779 40.0618 28.3483 39.9524 28.4031 39.843L26.6271 38.1007L26.588 38.0616C26.2985 37.7569 26.0794 37.4131 25.9307 37.0459C25.7821 36.6787 25.7117 36.2802 25.7117 35.8661C25.7117 35.452 25.7821 35.0536 25.9307 34.6864C26.0794 34.3191 26.2906 33.9754 26.5801 33.6707C26.5958 33.655 26.5958 33.6394 26.6114 33.6394L29.7644 30.522C30.0696 30.2172 30.4138 29.9829 30.7816 29.8344C31.1649 29.6703 31.5639 29.5844 31.9943 29.5844C32.4246 29.5844 32.8314 29.6703 33.207 29.8344C33.5747 29.9985 33.9111 30.2329 34.2006 30.5376L36.1957 32.5299C36.3365 32.4596 36.4539 32.4049 36.579 32.3502C36.9233 32.2018 37.2832 32.0455 37.6666 31.8971C38.0265 31.7564 38.4098 31.6236 38.7932 31.5142C38.934 31.4752 39.0514 31.4283 39.1766 31.4048V28.9281C39.1766 28.4984 39.2626 28.0921 39.4113 27.717C39.5599 27.3498 39.7947 27.0139 40.0998 26.717L40.1311 26.6857C40.4362 26.3966 40.7805 26.1622 41.1325 26.0138C41.5081 25.8653 41.9071 25.7794 42.3139 25.7794H46.7735C47.2039 25.7794 47.6029 25.8653 47.9862 26.0138C48.354 26.1622 48.6982 26.3966 49.0033 26.7013C49.3085 27.006 49.5432 27.3498 49.6919 27.717C49.8405 28.0921 49.9266 28.4905 49.9266 28.9281V31.7564C50.0674 31.8111 50.2004 31.8502 50.3412 31.9049C50.709 32.0455 51.0689 32.2096 51.4444 32.3737C51.8121 32.5534 52.172 32.7175 52.5163 32.8972C52.6258 32.9518 52.7353 33.0222 52.8449 33.0769L54.5896 31.3345C54.8947 31.0298 55.239 30.7954 55.6067 30.6313C55.9901 30.4673 56.3891 30.3813 56.8194 30.3813C57.2497 30.3813 57.6487 30.4673 58.0321 30.6313C58.4155 30.7954 58.7441 31.0142 59.0492 31.3345L62.1709 34.452L62.1866 34.4676C62.4917 34.7723 62.7264 35.1161 62.8751 35.4833C63.0394 35.8661 63.1254 36.2646 63.1254 36.6943C63.1254 37.1241 63.0394 37.5303 62.8751 37.9054C62.7108 38.2804 62.4761 38.6086 62.1709 38.8976L60.1758 40.9291C60.2306 41.0541 60.301 41.1791 60.3558 41.2963C60.4966 41.6088 60.6453 41.9526 60.7939 42.3276C60.8096 42.3432 60.8096 42.3589 60.8096 42.3823C60.9504 42.7417 61.0834 43.1245 61.1929 43.5074C61.2321 43.6324 61.279 43.7652 61.3025 43.8902H63.7826C64.213 43.8902 64.6198 43.9762 64.9953 44.1246C65.3631 44.2731 65.6995 44.5075 65.9968 44.8122L66.0281 44.8434C66.3176 45.1481 66.5523 45.4919 66.7009 45.8435C66.8496 46.2185 66.9357 46.617 66.9357 47.0233V51.4768C66.9357 51.9065 66.8496 52.305 66.7009 52.6878C66.5523 53.055 66.3176 53.3988 66.0124 53.7192C65.7073 54.0239 65.3631 54.2583 64.9953 54.4067C64.6198 54.5552 64.2208 54.6411 63.7826 54.6411H60.9504C60.8956 54.7817 60.8565 54.9146 60.8017 55.0552C60.6609 55.4224 60.5123 55.7818 60.3323 56.1569C60.1524 56.5241 59.9881 56.8835 59.8081 57.2273C59.7534 57.3366 59.6829 57.446 59.6282 57.5554L61.3729 59.2977C61.678 59.6024 61.9127 59.9462 62.077 60.3134C62.2413 60.6963 62.3274 61.0948 62.3274 61.5245C62.3274 61.9542 62.2413 62.3527 62.077 62.7355L62.1318 62.6965ZM36.0157 90.8941C26.0794 89.0267 17.348 83.7372 11.0967 76.3069C4.79847 68.8298 1.01172 59.1962 1.01172 48.6953C1.01172 38.8273 4.35251 29.725 9.97788 22.4666C15.7128 15.052 23.8261 9.55932 33.1835 7.13724L34.5761 12.4971C26.4315 14.6066 19.3665 19.3882 14.3671 25.8497C9.48497 32.1627 6.58232 40.0852 6.58232 48.6953C6.58232 57.8601 9.87617 66.2514 15.3372 72.7441C20.5636 78.9556 27.785 83.4481 36.0235 85.2295V79.5025L46.4997 88.0891L36.0235 96.6758L36.0157 90.8941ZM52.0155 6.50438C61.858 8.35609 70.519 13.5596 76.7624 20.8884C83.1546 28.389 87.0117 38.1007 87.0117 48.6953C87.0117 58.0164 84.0387 66.6421 78.9844 73.6817C73.7972 80.9089 66.4193 86.4562 57.813 89.3705L56.9211 86.7453L56.0292 84.1201C56.2483 84.0498 56.4673 83.9716 56.6786 83.8935C63.8844 81.3073 70.0652 76.5648 74.4544 70.4549C78.8514 64.3294 81.4411 56.821 81.4411 48.7031C81.4411 39.4524 78.0925 30.9907 72.5376 24.4746C67.319 18.3491 60.1602 13.9347 52.0077 12.1611V17.8569L41.5394 9.26242L52.0155 0.675781V6.50438ZM51.7965 48.6797C51.7965 49.2188 51.7417 49.7345 51.6478 50.2345H51.6322C51.5383 50.7424 51.3818 51.2268 51.194 51.6877C50.9906 52.1722 50.7559 52.6253 50.4821 53.0238C50.2239 53.4379 49.9031 53.8207 49.5588 54.1645C49.1989 54.5239 48.8312 54.8208 48.4166 55.1021C48.0175 55.3599 47.5638 55.6099 47.0787 55.8131C47.063 55.8287 47.0396 55.8287 47.0239 55.8443C46.5858 56.024 46.1163 56.1569 45.6313 56.2584C45.1227 56.3522 44.6142 56.4069 44.0743 56.4069C43.5345 56.4069 43.0181 56.3522 42.5174 56.2584C42.0088 56.1647 41.5237 56.0084 41.0621 55.8209C40.577 55.6178 40.1233 55.3834 39.7242 55.1099C39.3096 54.8364 38.9262 54.5161 38.582 54.1723C38.2377 53.8129 37.9326 53.4457 37.6587 53.0316C37.4005 52.6331 37.1502 52.18 36.9468 51.6956C36.9311 51.6799 36.9311 51.6565 36.9155 51.6409C36.7355 51.2033 36.6025 50.7345 36.5008 50.2501C36.4069 49.7423 36.3521 49.2344 36.3521 48.6953C36.3521 48.1562 36.4069 47.6405 36.5008 47.1405C36.5947 46.6326 36.7512 46.1482 36.9389 45.6873C37.1424 45.2028 37.3771 44.7497 37.6509 44.3512C37.9091 43.9371 38.2299 43.5543 38.5741 43.2105C38.934 42.8511 39.3017 42.5542 39.7164 42.2729C40.1154 42.0151 40.5692 41.7651 41.0543 41.5541C41.0699 41.5385 41.0934 41.5385 41.1091 41.5229C41.5628 41.3432 42.0323 41.2103 42.5095 41.1088C43.0181 41.015 43.5266 40.9603 44.0665 40.9603C44.6063 40.9603 45.1227 41.015 45.6234 41.1088C46.132 41.2025 46.6171 41.3588 47.0787 41.5463C47.5638 41.7494 48.0175 41.9838 48.4166 42.2651C48.8312 42.5386 49.2146 42.8589 49.5588 43.2027C49.9031 43.5621 50.2082 43.9293 50.4821 44.3434C50.7402 44.7419 50.9906 45.195 51.194 45.6794C51.2097 45.6951 51.2097 45.7185 51.2253 45.7341C51.4053 46.1717 51.5383 46.6405 51.64 47.1249C51.7417 47.6327 51.7965 48.1406 51.7965 48.6797Z" fill="#399B8E" stroke="#399B8E" stroke-width="0.5" stroke-miterlimit="2.6131"/>
</svg>
