<svg width="88" height="88" viewBox="0 0 88 88" fill="none" xmlns="http://www.w3.org/2000/svg">
<path d="M37.0252 70.7261C55.8167 70.7261 71.0503 55.4925 71.0503 36.7009C71.0503 17.9094 55.8167 2.67578 37.0252 2.67578C18.2336 2.67578 3 17.9094 3 36.7009C3 55.4925 18.2336 70.7261 37.0252 70.7261Z" stroke="#399B8E" stroke-width="5" stroke-miterlimit="10" stroke-linecap="round" stroke-linejoin="round"/>
<path d="M57.4395 67.3228L72.7508 82.6341C75.4728 85.3561 80.2363 85.3561 82.9583 82.6341C85.6803 79.9121 85.6803 75.1486 82.9583 72.4266L67.647 57.1152" stroke="#399B8E" stroke-width="5" stroke-miterlimit="10" stroke-linecap="round" stroke-linejoin="round"/>
<path d="M37.0246 50.3109C44.5412 50.3109 50.6347 44.2175 50.6347 36.7009C50.6347 29.1843 44.5412 23.0908 37.0246 23.0908C29.508 23.0908 23.4146 29.1843 23.4146 36.7009C23.4146 44.2175 29.508 50.3109 37.0246 50.3109Z" stroke="#399B8E" stroke-width="5" stroke-miterlimit="10" stroke-linecap="round" stroke-linejoin="round"/>
<path d="M13.208 36.7002H23.4156" stroke="#399B8E" stroke-width="5" stroke-miterlimit="10" stroke-linecap="round" stroke-linejoin="round"/>
<path d="M60.8413 36.7002H50.6338" stroke="#399B8E" stroke-width="5" stroke-miterlimit="10" stroke-linecap="round" stroke-linejoin="round"/>
<path d="M37.0249 23.0908V50.3109" stroke="#399B8E" stroke-width="5" stroke-miterlimit="10" stroke-linecap="round" stroke-linejoin="round"/>
<path d="M20.0112 53.7134L26.1358 47.5889" stroke="#399B8E" stroke-width="5" stroke-miterlimit="10" stroke-linecap="round" stroke-linejoin="round"/>
<path d="M54.0381 53.7134L47.9136 47.5889" stroke="#399B8E" stroke-width="5" stroke-miterlimit="10" stroke-linecap="round" stroke-linejoin="round"/>
<path d="M20.0112 19.6875L26.8163 26.4925" stroke="#399B8E" stroke-width="5" stroke-miterlimit="10" stroke-linecap="round" stroke-linejoin="round"/>
<path d="M54.0389 19.6875L47.2339 26.4925" stroke="#399B8E" stroke-width="5" stroke-miterlimit="10" stroke-linecap="round" stroke-linejoin="round"/>
<path d="M37.0251 23.0921C38.9042 23.0921 40.4276 21.5688 40.4276 19.6896C40.4276 17.8105 38.9042 16.2871 37.0251 16.2871C35.1459 16.2871 33.6226 17.8105 33.6226 19.6896C33.6226 21.5688 35.1459 23.0921 37.0251 23.0921Z" stroke="#399B8E" stroke-width="5" stroke-miterlimit="10" stroke-linecap="round" stroke-linejoin="round"/>
</svg>
