<svg width="505" height="428" viewBox="0 0 505 428" fill="none" xmlns="http://www.w3.org/2000/svg">
<g opacity="0.5">
<path d="M340.852 17.9513C318.331 31.074 300.393 50.5298 279.033 65.4031C251.831 84.346 219.724 95.408 187.351 103.334C147.02 113.208 102.168 120.437 75.0411 151.311C51.7135 177.861 47.6016 216.288 53.5525 250.839C81.1014 410.783 343.819 401.772 426.69 296.345C470.81 240.217 556.523 63.2801 463.096 11.7588C458.927 9.45949 454.482 7.6143 449.954 6.11371C415.363 -5.35392 372.155 -0.288573 340.852 17.9513Z" fill="#399B8E"/>
<path opacity="0.7" d="M340.852 17.9513C318.331 31.074 300.393 50.5298 279.033 65.4031C251.831 84.346 219.724 95.408 187.351 103.334C147.02 113.208 102.168 120.437 75.0411 151.311C51.7135 177.861 47.6016 216.288 53.5525 250.839C81.1014 410.783 343.819 401.772 426.69 296.345C470.81 240.217 556.523 63.2801 463.096 11.7588C458.927 9.45949 454.482 7.6143 449.954 6.11371C415.363 -5.35392 372.155 -0.288573 340.852 17.9513Z" fill="white"/>
</g>
<path d="M456.094 316.557C456.094 316.557 458.922 313.186 459.074 312.952C460.816 310.214 462.542 303.955 460.172 301.156C458.577 299.393 455.827 299.232 454.029 300.795C453.907 300.901 453.791 301.014 453.682 301.133C451.882 302.957 451.675 306.097 452.059 308.475C452.494 311.281 456.081 316.551 456.094 316.557Z" fill="#00A994"/>
<path d="M484.084 303.583C483.955 303.497 483.827 303.411 483.697 303.323C480.512 301.504 474.487 304.253 472.032 306.407C471.821 306.6 468.902 309.902 468.902 309.902L468.965 309.929C468.019 310.356 467.019 310.833 465.889 311.36C463.891 312.376 461.58 313.51 459.186 314.923C456.571 316.419 454.067 318.071 451.659 319.854C448.958 321.838 446.443 324.056 444.143 326.471L445.864 322.704C446.813 319.62 446.787 313.101 443.755 311.048C441.738 309.758 439.05 310.305 437.734 312.282C437.645 312.408 437.564 312.552 437.482 312.698C436.232 314.929 436.893 318.014 437.896 320.213C439.03 322.695 443.534 326.596 443.898 326.906C441.615 329.42 439.502 332.099 437.582 334.893C436.457 336.518 435.37 338.19 434.309 339.873L435.082 338.183C436.031 335.099 436.018 328.586 432.985 326.534C430.969 325.243 428.256 325.81 426.939 327.787L426.712 328.183C425.462 330.414 426.11 333.494 427.113 335.693C428.116 337.892 431.912 341.331 432.921 342.209L431.704 344.17C429.798 347.3 427.892 350.431 425.932 353.447C425.232 354.508 424.519 355.532 423.806 356.557L424.469 355.105C425.424 352.008 425.398 345.489 422.365 343.437C420.349 342.146 417.636 342.713 416.319 344.689C416.244 344.822 416.167 344.953 416.092 345.086C414.836 347.33 415.49 350.397 416.5 352.613C417.51 354.831 420.92 357.904 422.124 358.959C421.361 359.992 420.598 361.024 419.807 361.984C419.246 362.64 418.761 363.298 418.175 363.912C417.588 364.527 417.026 365.151 416.47 365.763C415.335 366.903 414.178 368.094 413.054 369.178C412.279 369.936 411.508 370.649 410.75 371.368C411.45 370.308 412.781 368.232 412.867 368.044C414.012 365.436 414.471 362.587 414.167 359.763C414.299 359.475 414.418 359.182 414.498 358.871C415.208 356.613 413.907 354.224 411.604 353.528C411.452 353.491 411.306 353.443 411.149 353.419C407.504 352.84 402.891 357.532 401.394 360.406C401.314 360.582 400.552 362.517 400.098 363.745C400.259 362.989 400.415 362.246 400.563 361.454C400.859 359.9 401.117 358.331 401.394 356.649C401.509 355.827 401.61 355.001 401.726 354.179C401.84 353.358 401.883 352.46 401.957 351.592C402.102 349.597 402.145 347.557 402.15 345.5C403.565 345.76 408.504 346.591 410.904 346.037C413.304 345.482 416.194 344.121 417.234 341.783C418.282 339.659 417.368 337.093 415.201 336.066C415.06 336.005 414.92 335.943 414.774 335.893C411.263 334.788 405.966 338.729 404.044 341.356C403.964 341.532 402.756 343.54 402.134 344.665C402.13 343.432 402.127 342.198 402.067 340.954C401.922 337.344 401.67 333.702 401.418 330.06L401.211 326.724C401.703 326.82 407.583 327.943 410.274 327.322C412.674 326.768 415.557 325.389 416.608 323.055C417.617 320.914 416.662 318.375 414.465 317.38C414.177 317.239 413.853 317.142 413.531 317.076C410.02 315.97 404.736 319.917 402.807 322.526C402.704 322.751 400.995 325.653 400.603 326.413C400.459 323.975 400.335 321.532 400.317 319.119C400.263 315.85 400.446 312.595 400.839 309.355C401.044 309.445 407.183 310.638 409.947 309.957C412.347 309.403 415.237 308.041 416.276 305.703C417.31 303.572 416.392 301.02 414.224 299.993C414.083 299.932 413.943 299.87 413.797 299.82C410.286 298.714 405.002 302.661 403.086 305.277C403 305.464 401.674 307.662 401.088 308.742L400.91 308.664C401.376 305.427 402.141 302.247 403.19 299.145C403.76 297.427 404.391 295.811 405.038 294.261C406.155 294.601 411.286 296.087 413.835 295.779C416.383 295.47 419.301 294.452 420.602 292.243C421.873 290.231 421.245 287.581 419.193 286.335C419.064 286.248 418.941 286.179 418.801 286.118C415.43 284.638 409.739 288 407.531 290.382C407.457 290.545 406.341 291.979 405.579 293.042L406.523 290.977C407.667 288.474 408.874 286.269 409.961 284.327C410.589 283.221 411.167 282.226 411.734 281.319C413.008 281.082 418.132 280.101 420.201 278.695C422.269 277.289 424.426 275.049 424.561 272.509C424.759 270.161 422.985 268.105 420.596 267.899C420.419 267.882 420.263 267.889 420.095 267.889C416.414 268.091 412.877 273.617 412.094 276.775C411.98 277.025 411.398 281.352 411.512 281.403C410.943 282.28 410.358 283.225 409.745 284.264C408.62 286.19 407.356 288.384 406.148 290.86C405.699 291.775 405.264 292.696 404.84 293.621C404.047 295.391 403.311 297.202 402.658 299.034C401.509 302.152 400.659 305.355 400.1 308.626L400.048 308.739C399.902 307.683 399.362 304.771 399.29 304.56C398.342 301.469 394.661 296.036 390.956 295.957C388.54 295.978 386.613 297.913 386.635 300.281C386.629 300.429 386.635 300.582 386.661 300.729C386.986 303.171 389.232 305.434 391.311 306.723C393.699 308.207 399.608 308.998 400.082 309.071C399.601 312.406 399.339 315.762 399.316 319.133C399.289 321.105 399.325 323.074 399.38 325.067C399.228 324.158 399.061 323.348 399.032 323.246C398.083 320.154 394.397 314.734 390.692 314.656C388.275 314.677 386.336 316.606 386.363 318.962C386.364 319.128 386.372 319.281 386.39 319.439C386.608 321.984 388.831 324.162 390.956 325.485C393.081 326.808 398.131 327.599 399.496 327.731C399.529 328.498 399.55 329.257 399.589 330.011C399.748 333.657 399.937 337.302 399.992 340.872C400.023 342.148 399.995 343.382 399.981 344.624C399.827 343.82 399.703 343.15 399.697 342.996C398.748 339.905 395.062 334.485 391.357 334.407C388.951 334.403 387.005 336.313 387.015 338.677C387.017 338.873 387.019 339.07 387.052 339.264C387.27 341.809 389.488 344 391.618 345.311C393.749 346.621 398.346 347.362 399.89 347.574C399.833 348.841 399.769 350.121 399.691 351.364C399.596 352.209 399.563 353.021 399.412 353.855C399.26 354.691 399.164 355.505 399.037 356.321C398.735 357.886 398.442 359.501 398.106 361.007C397.883 362.066 397.651 363.077 397.426 364.074C397.415 362.822 397.353 360.375 397.324 360.168C396.859 356.958 394.049 351.065 390.42 350.45C388.033 350.139 385.838 351.789 385.519 354.129C385.5 354.27 385.487 354.401 385.48 354.548C385.303 357.085 387.216 359.608 389.064 361.201C391.107 362.939 396.633 364.598 397.314 364.822C396.922 366.484 396.53 368.115 396.139 369.64C394.784 374.921 393.444 379.262 392.474 382.293C392.359 382.678 392.238 383.045 392.12 383.369L394.338 384.388C394.501 383.964 394.599 383.481 394.764 382.952C395.682 379.869 396.924 375.44 398.176 370.084C398.584 368.385 398.968 366.57 399.363 364.7C401.22 364.763 403.073 364.735 404.927 364.603C405.816 367.187 409.244 371.261 409.693 371.789C408.435 372.964 407.195 374.103 406.007 375.159C401.902 378.841 398.39 381.763 395.826 383.749C395.433 384.041 395.075 384.32 394.754 384.585L397.336 385.779C397.384 385.74 397.433 385.702 397.482 385.663C399.965 383.583 403.518 380.573 407.581 376.782C408.863 375.586 410.248 374.3 411.598 372.924C412.173 373.342 416.876 376.639 419.53 377.172C421.95 377.648 425.147 377.595 427.104 375.899C428.955 374.397 429.226 371.691 427.681 369.871C427.594 369.758 427.478 369.646 427.372 369.54C424.661 367.088 418.17 368.506 415.302 370.087C415.131 370.191 413.411 371.405 412.336 372.181C412.895 371.63 413.419 371.154 414.012 370.527C415.147 369.387 416.236 368.211 417.421 366.959C417.964 366.341 418.525 365.715 419.08 365.072C419.635 364.429 420.168 363.731 420.721 363.057C421.974 361.458 423.166 359.788 424.32 358.069C425.338 359.027 428.999 362.422 431.32 363.246C433.643 364.07 436.863 364.537 439.033 363.146C441.111 361.954 441.811 359.347 440.596 357.311C440.514 357.185 440.434 357.06 440.34 356.928C438.044 354.102 431.417 354.514 428.336 355.686C428.139 355.749 426.03 356.807 424.879 357.413C425.567 356.378 426.249 355.355 426.91 354.277C428.824 351.195 430.664 348.006 432.494 344.842C433.065 343.86 433.638 342.909 434.215 341.945C434.562 342.293 438.831 346.406 441.44 347.34C443.743 348.171 446.989 348.618 449.152 347.24C451.236 346.036 451.929 343.41 450.701 341.368C450.633 341.248 450.553 341.122 450.466 341.009C448.151 338.19 441.542 338.595 438.448 339.761C438.209 339.851 435.197 341.339 434.441 341.82C435.702 339.698 436.969 337.594 438.323 335.574C440.119 332.816 442.109 330.173 444.255 327.66C444.425 327.825 448.859 332.145 451.518 333.103C453.827 333.921 457.002 334.354 459.235 332.99C461.306 331.78 461.974 329.143 460.734 327.126C460.659 326.988 460.579 326.862 460.48 326.743C458.184 323.917 451.557 324.329 448.463 325.495C448.26 325.571 445.949 326.735 444.853 327.322L444.727 327.162C446.951 324.712 449.39 322.462 452.033 320.436C453.469 319.307 454.909 318.302 456.327 317.347C457.068 318.242 460.505 322.261 462.777 323.364C465.048 324.466 468.074 325.193 470.416 324.058C472.61 323.083 473.565 320.557 472.582 318.412C472.507 318.274 472.433 318.135 472.357 317.998C470.383 314.937 463.75 314.656 460.56 315.464C460.387 315.507 458.712 316.155 457.429 316.614C458.08 316.193 458.739 315.761 459.374 315.378C461.728 313.917 463.981 312.713 465.971 311.678C467.13 311.089 468.173 310.585 469.171 310.077C470.358 310.598 475.183 312.521 477.705 312.471C480.227 312.421 483.283 311.704 484.846 309.594C486.312 307.733 485.977 305.045 484.084 303.583Z" fill="#00A994"/>
<path d="M396.923 289.061C398.868 291.148 404.837 293.617 404.837 293.617C404.837 293.617 405.275 289.302 405.293 288.995C405.234 285.768 403.125 279.582 399.591 278.557C397.252 277.953 394.857 279.324 394.241 281.616C394.203 281.757 394.173 281.9 394.149 282.045C393.678 284.555 395.273 287.269 396.923 289.061Z" fill="#00A994"/>
<path opacity="0.5" d="M484.084 303.583C483.955 303.497 483.827 303.411 483.697 303.323C480.512 301.504 474.487 304.253 472.032 306.407C471.821 306.6 468.902 309.902 468.902 309.902L468.965 309.929C468.019 310.356 467.019 310.833 465.889 311.36C463.891 312.376 461.58 313.51 459.186 314.923C456.571 316.419 454.067 318.071 451.659 319.854C448.958 321.838 446.443 324.056 444.143 326.471L445.864 322.704C446.813 319.62 446.787 313.101 443.755 311.048C441.738 309.758 439.05 310.305 437.734 312.282C437.645 312.408 437.564 312.552 437.482 312.698C436.232 314.929 436.893 318.014 437.896 320.213C439.03 322.695 443.534 326.596 443.898 326.906C441.615 329.42 439.502 332.099 437.582 334.893C436.457 336.518 435.37 338.19 434.309 339.873L435.082 338.183C436.031 335.099 436.018 328.586 432.985 326.534C430.969 325.243 428.256 325.81 426.939 327.787L426.712 328.183C425.462 330.414 426.11 333.494 427.113 335.693C428.116 337.892 431.912 341.331 432.921 342.209L431.704 344.17C429.798 347.3 427.892 350.431 425.932 353.447C425.232 354.508 424.519 355.532 423.806 356.557L424.469 355.105C425.424 352.008 425.398 345.489 422.365 343.437C420.349 342.146 417.636 342.713 416.319 344.689C416.244 344.822 416.167 344.953 416.092 345.086C414.836 347.33 415.49 350.397 416.5 352.613C417.51 354.831 420.92 357.904 422.124 358.959C421.361 359.992 420.598 361.024 419.807 361.984C419.246 362.64 418.761 363.298 418.175 363.912C417.588 364.527 417.026 365.151 416.47 365.763C415.335 366.903 414.178 368.094 413.054 369.178C412.279 369.936 411.508 370.649 410.75 371.368C411.45 370.308 412.781 368.232 412.867 368.044C414.012 365.436 414.471 362.587 414.167 359.763C414.299 359.475 414.418 359.182 414.498 358.871C415.208 356.613 413.907 354.224 411.604 353.528C411.452 353.491 411.306 353.443 411.149 353.419C407.504 352.84 402.891 357.532 401.394 360.406C401.314 360.582 400.552 362.517 400.098 363.745C400.259 362.989 400.415 362.246 400.563 361.454C400.859 359.9 401.117 358.331 401.394 356.649C401.509 355.827 401.61 355.001 401.726 354.179C401.84 353.358 401.883 352.46 401.957 351.592C402.102 349.597 402.145 347.557 402.15 345.5C403.565 345.76 408.504 346.591 410.904 346.037C413.304 345.482 416.194 344.121 417.234 341.783C418.282 339.659 417.368 337.093 415.201 336.066C415.06 336.005 414.92 335.943 414.774 335.893C411.263 334.788 405.966 338.729 404.044 341.356C403.964 341.532 402.756 343.54 402.134 344.665C402.13 343.432 402.127 342.198 402.067 340.954C401.922 337.344 401.67 333.702 401.418 330.06L401.211 326.724C401.703 326.82 407.583 327.943 410.274 327.322C412.674 326.768 415.557 325.389 416.608 323.055C417.617 320.914 416.662 318.375 414.465 317.38C414.177 317.239 413.853 317.142 413.531 317.076C410.02 315.97 404.736 319.917 402.807 322.526C402.704 322.751 400.995 325.653 400.603 326.413C400.459 323.975 400.335 321.532 400.317 319.119C400.263 315.85 400.446 312.595 400.839 309.355C401.044 309.445 407.183 310.638 409.947 309.957C412.347 309.403 415.237 308.041 416.276 305.703C417.31 303.572 416.392 301.02 414.224 299.993C414.083 299.932 413.943 299.87 413.797 299.82C410.286 298.714 405.002 302.661 403.086 305.277C403 305.464 401.674 307.662 401.088 308.742L400.91 308.664C401.376 305.427 402.141 302.247 403.19 299.145C403.76 297.427 404.391 295.811 405.038 294.261C406.155 294.601 411.286 296.087 413.835 295.779C416.383 295.47 419.301 294.452 420.602 292.243C421.873 290.231 421.245 287.581 419.193 286.335C419.064 286.248 418.941 286.179 418.801 286.118C415.43 284.638 409.739 288 407.531 290.382C407.457 290.545 406.341 291.979 405.579 293.042L406.523 290.977C407.667 288.474 408.874 286.269 409.961 284.327C410.589 283.221 411.167 282.226 411.734 281.319C413.008 281.082 418.132 280.101 420.201 278.695C422.269 277.289 424.426 275.049 424.561 272.509C424.759 270.161 422.985 268.105 420.596 267.899C420.419 267.882 420.263 267.889 420.095 267.889C416.414 268.091 412.877 273.617 412.094 276.775C411.98 277.025 411.398 281.352 411.512 281.403C410.943 282.28 410.358 283.225 409.745 284.264C408.62 286.19 407.356 288.384 406.148 290.86C405.699 291.775 405.264 292.696 404.84 293.621C404.047 295.391 403.311 297.202 402.658 299.034C401.509 302.152 400.659 305.355 400.1 308.626L400.048 308.739C399.902 307.683 399.362 304.771 399.29 304.56C398.342 301.469 394.661 296.036 390.956 295.957C388.54 295.978 386.613 297.913 386.635 300.281C386.629 300.429 386.635 300.582 386.661 300.729C386.986 303.171 389.232 305.434 391.311 306.723C393.699 308.207 399.608 308.998 400.082 309.071C399.601 312.406 399.339 315.762 399.316 319.133C399.289 321.105 399.325 323.074 399.38 325.067C399.228 324.158 399.061 323.348 399.032 323.246C398.083 320.154 394.397 314.734 390.692 314.656C388.275 314.677 386.336 316.606 386.363 318.962C386.364 319.128 386.372 319.281 386.39 319.439C386.608 321.984 388.831 324.162 390.956 325.485C393.081 326.808 398.131 327.599 399.496 327.731C399.529 328.498 399.55 329.257 399.589 330.011C399.748 333.657 399.937 337.302 399.992 340.872C400.023 342.148 399.995 343.382 399.981 344.624C399.827 343.82 399.703 343.15 399.697 342.996C398.748 339.905 395.062 334.485 391.357 334.407C388.951 334.403 387.005 336.313 387.015 338.677C387.017 338.873 387.019 339.07 387.052 339.264C387.27 341.809 389.488 344 391.618 345.311C393.749 346.621 398.346 347.362 399.89 347.574C399.833 348.841 399.769 350.121 399.691 351.364C399.596 352.209 399.563 353.021 399.412 353.855C399.26 354.691 399.164 355.505 399.037 356.321C398.735 357.886 398.442 359.501 398.106 361.007C397.883 362.066 397.651 363.077 397.426 364.074C397.415 362.822 397.353 360.375 397.324 360.168C396.859 356.958 394.049 351.065 390.42 350.45C388.033 350.139 385.838 351.789 385.519 354.129C385.5 354.27 385.487 354.401 385.48 354.548C385.303 357.085 387.216 359.608 389.064 361.201C391.107 362.939 396.633 364.598 397.314 364.822C396.922 366.484 396.53 368.115 396.139 369.64C394.784 374.921 393.444 379.262 392.474 382.293C392.359 382.678 392.238 383.045 392.12 383.369L394.338 384.388C394.501 383.964 394.599 383.481 394.764 382.952C395.682 379.869 396.924 375.44 398.176 370.084C398.584 368.385 398.968 366.57 399.363 364.7C401.22 364.763 403.073 364.735 404.927 364.603C405.816 367.187 409.244 371.261 409.693 371.789C408.435 372.964 407.195 374.103 406.007 375.159C401.902 378.841 398.39 381.763 395.826 383.749C395.433 384.041 395.075 384.32 394.754 384.585L397.336 385.779C397.384 385.74 397.433 385.702 397.482 385.663C399.965 383.583 403.518 380.573 407.581 376.782C408.863 375.586 410.248 374.3 411.598 372.924C412.173 373.342 416.876 376.639 419.53 377.172C421.95 377.648 425.147 377.595 427.104 375.899C428.955 374.397 429.226 371.691 427.681 369.871C427.594 369.758 427.478 369.646 427.372 369.54C424.661 367.088 418.17 368.506 415.302 370.087C415.131 370.191 413.411 371.405 412.336 372.181C412.895 371.63 413.419 371.154 414.012 370.527C415.147 369.387 416.236 368.211 417.421 366.959C417.964 366.341 418.525 365.715 419.08 365.072C419.635 364.429 420.168 363.731 420.721 363.057C421.974 361.458 423.166 359.788 424.32 358.069C425.338 359.027 428.999 362.422 431.32 363.246C433.643 364.07 436.863 364.537 439.033 363.146C441.111 361.954 441.811 359.347 440.596 357.311C440.514 357.185 440.434 357.06 440.34 356.928C438.044 354.102 431.417 354.514 428.336 355.686C428.139 355.749 426.03 356.807 424.879 357.413C425.567 356.378 426.249 355.355 426.91 354.277C428.824 351.195 430.664 348.006 432.494 344.842C433.065 343.86 433.638 342.909 434.215 341.945C434.562 342.293 438.831 346.406 441.44 347.34C443.743 348.171 446.989 348.618 449.152 347.24C451.236 346.036 451.929 343.41 450.701 341.368C450.633 341.248 450.553 341.122 450.466 341.009C448.151 338.19 441.542 338.595 438.448 339.761C438.209 339.851 435.197 341.339 434.441 341.82C435.702 339.698 436.969 337.594 438.323 335.574C440.119 332.816 442.109 330.173 444.255 327.66C444.425 327.825 448.859 332.145 451.518 333.103C453.827 333.921 457.002 334.354 459.235 332.99C461.306 331.78 461.974 329.143 460.734 327.126C460.659 326.988 460.579 326.862 460.48 326.743C458.184 323.917 451.557 324.329 448.463 325.495C448.26 325.571 445.949 326.735 444.853 327.322L444.727 327.162C446.951 324.712 449.39 322.462 452.033 320.436C453.469 319.307 454.909 318.302 456.327 317.347C457.068 318.242 460.505 322.261 462.777 323.364C465.048 324.466 468.074 325.193 470.416 324.058C472.61 323.083 473.565 320.557 472.582 318.412C472.507 318.274 472.433 318.135 472.357 317.998C470.383 314.937 463.75 314.656 460.56 315.464C460.387 315.507 458.712 316.155 457.429 316.614C458.08 316.193 458.739 315.761 459.374 315.378C461.728 313.917 463.981 312.713 465.971 311.678C467.13 311.089 468.173 310.585 469.171 310.077C470.358 310.598 475.183 312.521 477.705 312.471C480.227 312.421 483.283 311.704 484.846 309.594C486.312 307.733 485.977 305.045 484.084 303.583Z" fill="#00A994"/>
<path opacity="0.3" d="M456.094 316.557C456.094 316.557 458.922 313.186 459.074 312.952C460.816 310.214 462.542 303.955 460.172 301.156C458.577 299.393 455.827 299.232 454.029 300.795C453.907 300.901 453.791 301.014 453.682 301.133C451.882 302.957 451.675 306.097 452.059 308.475C452.494 311.281 456.081 316.551 456.094 316.557Z" fill="#00A994"/>
<path opacity="0.3" d="M396.923 289.061C398.868 291.148 404.837 293.617 404.837 293.617C404.837 293.617 405.275 289.302 405.293 288.995C405.234 285.768 403.125 279.582 399.591 278.557C397.252 277.953 394.857 279.324 394.241 281.616C394.203 281.757 394.173 281.9 394.149 282.045C393.678 284.555 395.273 287.269 396.923 289.061Z" fill="#00A994"/>
<path d="M116.718 315.642C116.718 315.642 116.301 311.595 116.243 311.342C115.54 308.416 112.449 303.187 109.003 302.886C106.767 302.763 104.852 304.44 104.727 306.632C104.719 306.78 104.719 306.929 104.727 307.078C104.776 309.443 106.759 311.638 108.617 312.951C110.794 314.51 116.706 315.647 116.718 315.642Z" fill="#00A994"/>
<path d="M126.342 288.978C126.199 289.004 126.056 289.031 125.913 289.058C122.593 289.928 120.493 295.64 120.333 298.646C120.325 298.909 120.637 302.97 120.637 302.97L120.698 302.947C120.364 303.841 120.03 304.803 119.643 305.88C119.018 307.843 118.265 310.086 117.647 312.566C116.939 315.245 116.411 317.951 116.031 320.684C115.597 323.738 115.442 326.824 115.562 329.903L114.15 326.312C112.692 323.672 108.275 319.409 104.899 320.027C102.704 320.486 101.309 322.589 101.777 324.74C101.805 324.881 101.849 325.029 101.893 325.176C102.578 327.451 105.093 329.049 107.236 329.842C109.656 330.736 115.244 330.376 115.694 330.344C115.891 333.475 116.311 336.603 116.935 339.683C117.293 341.48 117.708 343.281 118.148 345.074L117.515 343.464C116.057 340.824 111.653 336.556 108.276 337.174C106.081 337.634 104.683 339.765 105.152 341.917L105.271 342.323C105.956 344.598 108.46 346.2 110.602 346.993C112.745 347.786 117.557 347.585 118.813 347.507L119.336 349.584C120.197 352.876 121.059 356.166 121.807 359.419C122.063 360.568 122.287 361.703 122.509 362.838L121.964 361.455C120.502 358.802 116.086 354.54 112.709 355.158C110.514 355.618 109.116 357.749 109.585 359.901C109.625 360.037 109.664 360.173 109.704 360.309C110.394 362.595 112.893 364.186 115.052 364.987C117.212 365.787 121.525 365.595 123.027 365.508C123.224 366.68 123.419 367.853 123.547 368.996C123.622 369.79 123.748 370.537 123.776 371.321C123.805 372.105 123.859 372.879 123.907 373.642C123.932 375.127 123.975 376.657 123.968 378.099C123.97 379.098 123.946 380.066 123.933 381.03C123.676 379.881 123.15 377.654 123.08 377.475C122.073 375.021 120.451 372.853 118.346 371.195C118.238 370.921 118.118 370.651 117.962 370.395C116.904 368.452 114.438 367.726 112.456 368.763C112.332 368.838 112.202 368.901 112.084 368.987C109.299 370.971 109.438 377.042 110.394 379.9C110.46 380.067 111.265 381.832 111.796 382.933C111.391 382.332 110.993 381.743 110.554 381.128C109.7 379.916 108.81 378.718 107.858 377.434C107.379 376.821 106.888 376.211 106.409 375.598C105.931 374.985 105.352 374.367 104.815 373.748C103.564 372.344 102.215 370.976 100.831 369.623C101.935 368.878 105.74 366.22 106.941 364.301C108.142 362.381 109.122 359.614 108.226 357.404C107.48 355.33 105.15 354.238 103.033 354.969C102.899 355.02 102.765 355.07 102.636 355.133C99.5845 356.683 98.7661 362.705 99.2776 365.676C99.3435 365.843 99.9044 367.946 100.256 369.087C99.4211 368.279 98.5862 367.471 97.7079 366.695C95.1775 364.418 92.5541 362.191 89.9308 359.962L87.5427 357.906C87.9307 357.649 92.5494 354.575 93.897 352.422C95.0987 350.502 96.0617 347.728 95.1775 345.514C94.3944 343.453 92.0544 342.406 89.9403 343.177C89.6557 343.271 89.3782 343.417 89.1219 343.583C86.0694 345.133 85.2639 351.151 85.759 354.115C85.8436 354.329 86.6785 357.342 86.9336 358.096C85.1946 356.588 83.4637 355.065 81.8246 353.491C79.5823 351.38 77.5069 349.123 75.5785 346.742C75.7737 346.668 80.6088 343.471 81.9645 341.233C83.1662 339.313 84.1457 336.546 83.2497 334.336C82.4913 332.266 80.1655 331.187 78.049 331.917C77.9149 331.968 77.7809 332.019 77.6527 332.081C74.6002 333.631 73.7948 339.648 74.3015 342.608C74.3721 342.787 74.9847 345.089 75.3292 346.179L75.1587 346.243C73.2809 343.816 71.6359 341.232 70.232 338.515C69.4465 337.017 68.7704 335.547 68.1495 334.11C69.1126 333.609 73.4843 331.259 74.9494 329.404C76.4145 327.549 77.6433 324.988 77.0072 322.695C76.4851 320.55 74.2839 319.218 72.0945 319.729C71.951 319.756 71.8252 319.79 71.6912 319.841C68.4788 321.055 67.0113 326.952 67.1689 329.948C67.23 330.102 67.4652 331.767 67.6827 332.959L66.909 330.992C65.9707 328.606 65.2758 326.376 64.6784 324.396C64.3445 323.262 64.0517 322.235 63.813 321.271C64.4891 320.289 67.1912 316.324 67.6004 314.059C68.0096 311.794 67.9155 308.925 66.2882 307.17C64.8348 305.5 62.2821 305.301 60.5736 306.713C60.4466 306.815 60.3478 306.921 60.2373 307.031C57.9573 309.55 59.3636 315.471 60.9804 318.051C61.0745 318.29 63.612 321.509 63.7213 321.467C63.9388 322.412 64.1928 323.413 64.4915 324.491C65.0524 326.485 65.7038 328.745 66.581 331.154C66.9031 332.046 67.2383 332.933 67.5863 333.815C68.2601 335.492 68.9985 337.159 69.8063 338.785C71.1562 341.577 72.7588 344.231 74.599 346.741L74.6414 346.848C73.8324 346.25 71.5136 344.687 71.3231 344.595C68.614 343.18 62.5314 342 60.0456 344.35C58.4735 345.93 58.5135 348.449 60.1256 349.99C60.2208 350.091 60.329 350.187 60.4442 350.267C62.3056 351.659 65.3087 351.689 67.5428 351.187C70.112 350.613 74.5261 347.302 74.8848 347.043C76.819 349.545 78.9132 351.918 81.1732 354.147C82.4854 355.459 83.8376 356.729 85.2192 358.002C84.5067 357.504 83.8506 357.081 83.7612 357.033C81.0521 355.618 74.9741 354.449 72.4884 356.799C70.9163 358.379 70.9445 360.903 72.5519 362.433C72.6648 362.541 72.7718 362.637 72.8917 362.729C74.7519 364.259 77.6821 364.248 79.9703 363.74C82.2585 363.231 86.107 360.476 87.0935 359.678C87.6321 360.16 88.1589 360.645 88.6927 361.115C91.2572 363.407 93.8417 365.677 96.2863 367.986C97.167 368.804 97.9818 369.632 98.8096 370.457C98.1665 370.029 97.6326 369.668 97.5256 369.573C94.8165 368.157 88.7385 366.989 86.2528 369.339C84.6713 370.896 84.6819 373.412 86.2822 374.957C86.4163 375.085 86.5503 375.212 86.7043 375.318C88.5633 376.848 91.4994 376.848 93.7817 376.329C96.0652 375.809 99.5845 373.314 100.74 372.453C101.558 373.322 102.379 374.203 103.167 375.07C103.675 375.687 104.201 376.241 104.665 376.888C105.13 377.534 105.615 378.131 106.082 378.749C106.941 379.973 107.838 381.222 108.634 382.429C109.202 383.269 109.732 384.083 110.256 384.884C109.405 384.069 107.713 382.503 107.554 382.384C105.083 380.578 99.2612 378.531 96.4627 380.479C94.6848 381.822 94.3579 384.329 95.7277 386.072C95.8112 386.177 95.89 386.271 95.9853 386.372C97.5797 388.152 100.539 388.568 102.827 388.416C105.341 388.233 110.091 385.74 110.688 385.446C111.552 386.791 112.395 388.117 113.169 389.372C115.843 393.718 117.892 397.436 119.3 400.056C119.484 400.383 119.653 400.703 119.794 400.993L121.937 400.224C121.759 399.84 121.496 399.459 121.248 399.005C119.77 396.385 117.597 392.671 114.805 388.344C113.926 386.963 112.954 385.522 111.951 384.038C113.213 382.876 114.411 381.657 115.538 380.367C117.865 381.487 122.866 381.94 123.516 381.997C123.484 383.585 123.438 385.136 123.371 386.6C123.16 391.679 122.826 395.874 122.483 398.84C122.422 399.288 122.375 399.703 122.343 400.084L124.844 399.195C124.85 399.138 124.856 399.081 124.86 399.024C125.087 396.047 125.39 391.769 125.498 386.646C125.533 385.03 125.574 383.288 125.532 381.509C126.191 381.41 131.504 380.526 133.608 379.156C135.517 377.9 137.581 375.792 137.721 373.409C137.923 371.223 136.274 369.271 134.032 369.077C133.899 369.059 133.746 369.062 133.606 369.06C130.171 369.207 126.866 374.346 126.05 377.244C126.009 377.424 125.699 379.336 125.517 380.541C125.511 379.817 125.534 379.165 125.5 378.369C125.475 376.885 125.398 375.408 125.331 373.816C125.27 373.058 125.217 372.283 125.147 371.502C125.078 370.72 124.957 369.916 124.865 369.115C124.608 367.254 124.264 365.383 123.861 363.508C125.177 363.477 129.872 363.333 131.952 362.368C134.032 361.403 136.462 359.623 136.947 357.302C137.507 355.172 136.207 353.005 134.036 352.456C133.898 352.426 133.76 352.396 133.61 352.371C130.195 352.003 126.121 356.571 124.89 359.337C124.803 359.506 124.133 361.568 123.786 362.713C123.539 361.587 123.297 360.473 123.003 359.337C122.18 356.073 121.236 352.785 120.302 349.522C120.015 348.508 119.749 347.512 119.479 346.505C119.941 346.508 125.519 346.441 127.862 345.364C129.935 344.416 132.368 342.606 132.859 340.298C133.414 338.157 132.098 335.983 129.913 335.439C129.787 335.405 129.65 335.375 129.517 335.356C126.095 335.006 122.028 339.556 120.785 342.328C120.687 342.542 119.715 345.472 119.543 346.277C118.939 344.066 118.352 341.864 117.877 339.66C117.196 336.684 116.719 333.659 116.431 330.617C116.653 330.615 122.481 330.578 124.873 329.482C126.942 328.522 129.318 326.747 129.864 324.404C130.407 322.267 129.066 320.103 126.891 319.582C126.749 319.54 126.611 319.509 126.465 319.495C123.051 319.129 118.977 323.695 117.732 326.467C117.65 326.649 116.919 328.911 116.595 330.006L116.405 329.982C116.211 326.931 116.294 323.873 116.662 320.83C116.844 319.159 117.112 317.565 117.397 316.018C118.489 316.126 123.458 316.537 125.693 315.788C127.928 315.038 130.405 313.555 131.178 311.29C131.96 309.227 130.883 306.95 128.79 306.179C128.648 306.138 128.506 306.095 128.363 306.052C125.002 305.323 120.457 309.437 118.907 312.036C118.822 312.178 118.159 313.689 117.627 314.822C117.771 314.123 117.911 313.412 118.07 312.75C118.63 310.265 119.295 308.013 119.904 306.043C120.268 304.905 120.612 303.899 120.925 302.917C122.056 302.49 126.522 300.624 128.143 298.956C129.765 297.288 131.289 294.836 130.891 292.439C130.604 290.257 128.57 288.71 126.342 288.978Z" fill="#00A994"/>
<path d="M59.3118 335.951C61.9963 336.059 67.5827 333.811 67.5827 333.811C67.5827 333.811 64.9582 330.694 64.763 330.48C62.5466 328.399 56.9872 325.706 53.9759 327.323C52.0322 328.443 51.3843 330.896 52.5272 332.8C52.5978 332.917 52.6742 333.03 52.7565 333.14C54.1405 335.097 57.0201 335.845 59.3118 335.951Z" fill="#00A994"/>
<path opacity="0.5" d="M126.342 288.978C126.199 289.004 126.056 289.031 125.913 289.058C122.593 289.928 120.493 295.64 120.333 298.646C120.325 298.909 120.637 302.97 120.637 302.97L120.698 302.947C120.364 303.841 120.03 304.803 119.643 305.88C119.018 307.843 118.265 310.086 117.647 312.566C116.939 315.245 116.411 317.951 116.031 320.684C115.597 323.738 115.442 326.824 115.562 329.903L114.15 326.312C112.692 323.672 108.275 319.409 104.899 320.027C102.704 320.486 101.309 322.589 101.777 324.74C101.805 324.881 101.849 325.029 101.893 325.176C102.578 327.451 105.093 329.049 107.236 329.842C109.656 330.736 115.244 330.376 115.694 330.344C115.891 333.475 116.311 336.603 116.935 339.683C117.293 341.48 117.708 343.281 118.148 345.074L117.515 343.464C116.057 340.824 111.653 336.556 108.276 337.174C106.081 337.634 104.683 339.765 105.152 341.917L105.271 342.323C105.956 344.598 108.46 346.2 110.602 346.993C112.745 347.786 117.557 347.585 118.813 347.507L119.336 349.584C120.197 352.876 121.059 356.166 121.807 359.419C122.063 360.568 122.287 361.703 122.509 362.838L121.964 361.455C120.502 358.802 116.086 354.54 112.709 355.158C110.514 355.618 109.116 357.749 109.585 359.901C109.625 360.037 109.664 360.173 109.704 360.309C110.394 362.595 112.893 364.186 115.052 364.987C117.212 365.787 121.525 365.595 123.027 365.508C123.224 366.68 123.419 367.853 123.547 368.996C123.622 369.79 123.748 370.537 123.776 371.321C123.805 372.105 123.859 372.879 123.907 373.642C123.932 375.127 123.975 376.657 123.968 378.099C123.97 379.098 123.946 380.066 123.933 381.03C123.676 379.881 123.15 377.654 123.08 377.475C122.073 375.021 120.451 372.853 118.346 371.195C118.238 370.921 118.118 370.651 117.962 370.395C116.904 368.452 114.438 367.726 112.456 368.763C112.332 368.838 112.202 368.901 112.084 368.987C109.299 370.971 109.438 377.042 110.394 379.9C110.46 380.067 111.265 381.832 111.796 382.933C111.391 382.332 110.993 381.743 110.554 381.128C109.7 379.916 108.81 378.718 107.858 377.434C107.379 376.821 106.888 376.211 106.409 375.598C105.931 374.985 105.352 374.367 104.815 373.748C103.564 372.344 102.215 370.976 100.831 369.623C101.935 368.878 105.74 366.22 106.941 364.301C108.142 362.381 109.122 359.614 108.226 357.404C107.48 355.33 105.15 354.238 103.033 354.969C102.899 355.02 102.765 355.07 102.636 355.133C99.5845 356.683 98.7661 362.705 99.2776 365.676C99.3435 365.843 99.9044 367.946 100.256 369.087C99.4211 368.279 98.5862 367.471 97.7079 366.695C95.1775 364.418 92.5541 362.191 89.9308 359.962L87.5427 357.906C87.9307 357.649 92.5494 354.575 93.897 352.422C95.0987 350.502 96.0617 347.728 95.1775 345.514C94.3944 343.453 92.0544 342.406 89.9403 343.177C89.6557 343.271 89.3782 343.417 89.1219 343.583C86.0694 345.133 85.2639 351.151 85.759 354.115C85.8436 354.329 86.6785 357.342 86.9336 358.096C85.1946 356.588 83.4637 355.065 81.8246 353.491C79.5823 351.38 77.5069 349.123 75.5785 346.742C75.7737 346.668 80.6088 343.471 81.9645 341.233C83.1662 339.313 84.1457 336.546 83.2497 334.336C82.4913 332.266 80.1655 331.187 78.049 331.917C77.9149 331.968 77.7809 332.019 77.6527 332.081C74.6002 333.631 73.7948 339.648 74.3015 342.608C74.3721 342.787 74.9847 345.089 75.3292 346.179L75.1587 346.243C73.2809 343.816 71.6359 341.232 70.232 338.515C69.4465 337.017 68.7704 335.547 68.1495 334.11C69.1126 333.609 73.4843 331.259 74.9494 329.404C76.4145 327.549 77.6433 324.988 77.0072 322.695C76.4851 320.55 74.2839 319.218 72.0945 319.729C71.951 319.756 71.8252 319.79 71.6912 319.841C68.4788 321.055 67.0113 326.952 67.1689 329.948C67.23 330.102 67.4652 331.767 67.6827 332.959L66.909 330.992C65.9707 328.606 65.2758 326.376 64.6784 324.396C64.3445 323.262 64.0517 322.235 63.813 321.271C64.4891 320.289 67.1912 316.324 67.6004 314.059C68.0096 311.794 67.9155 308.925 66.2882 307.17C64.8348 305.5 62.2821 305.301 60.5736 306.713C60.4466 306.815 60.3478 306.921 60.2373 307.031C57.9573 309.55 59.3636 315.471 60.9804 318.051C61.0745 318.29 63.612 321.509 63.7213 321.467C63.9388 322.412 64.1928 323.413 64.4915 324.491C65.0524 326.485 65.7038 328.745 66.581 331.154C66.9031 332.046 67.2383 332.933 67.5863 333.815C68.2601 335.492 68.9985 337.159 69.8063 338.785C71.1562 341.577 72.7588 344.231 74.599 346.741L74.6414 346.848C73.8324 346.25 71.5136 344.687 71.3231 344.595C68.614 343.18 62.5314 342 60.0456 344.35C58.4735 345.93 58.5135 348.449 60.1256 349.99C60.2208 350.091 60.329 350.187 60.4442 350.267C62.3056 351.659 65.3087 351.689 67.5428 351.187C70.112 350.613 74.5261 347.302 74.8848 347.043C76.819 349.545 78.9132 351.918 81.1732 354.147C82.4854 355.459 83.8376 356.729 85.2192 358.002C84.5067 357.504 83.8506 357.081 83.7612 357.033C81.0521 355.618 74.9741 354.449 72.4884 356.799C70.9163 358.379 70.9445 360.903 72.5519 362.433C72.6648 362.541 72.7718 362.637 72.8917 362.729C74.7519 364.259 77.6821 364.248 79.9703 363.74C82.2585 363.231 86.107 360.476 87.0935 359.678C87.6321 360.16 88.1589 360.645 88.6927 361.115C91.2572 363.407 93.8417 365.677 96.2863 367.986C97.167 368.804 97.9818 369.632 98.8096 370.457C98.1665 370.029 97.6326 369.668 97.5256 369.573C94.8165 368.157 88.7385 366.989 86.2528 369.339C84.6713 370.896 84.6819 373.412 86.2822 374.957C86.4163 375.085 86.5503 375.212 86.7043 375.318C88.5633 376.848 91.4994 376.848 93.7817 376.329C96.0652 375.809 99.5845 373.314 100.74 372.453C101.558 373.322 102.379 374.203 103.167 375.07C103.675 375.687 104.201 376.241 104.665 376.888C105.13 377.534 105.615 378.131 106.082 378.749C106.941 379.973 107.838 381.222 108.634 382.429C109.202 383.269 109.732 384.083 110.256 384.884C109.405 384.069 107.713 382.503 107.554 382.384C105.083 380.578 99.2612 378.531 96.4627 380.479C94.6848 381.822 94.3579 384.329 95.7277 386.072C95.8112 386.177 95.89 386.271 95.9853 386.372C97.5797 388.152 100.539 388.568 102.827 388.416C105.341 388.233 110.091 385.74 110.688 385.446C111.552 386.791 112.395 388.117 113.169 389.372C115.843 393.718 117.892 397.436 119.3 400.056C119.484 400.383 119.653 400.703 119.794 400.993L121.937 400.224C121.759 399.84 121.496 399.459 121.248 399.005C119.77 396.385 117.597 392.671 114.805 388.344C113.926 386.963 112.954 385.522 111.951 384.038C113.213 382.876 114.411 381.657 115.538 380.367C117.865 381.487 122.866 381.94 123.516 381.997C123.484 383.585 123.438 385.136 123.371 386.6C123.16 391.679 122.826 395.874 122.483 398.84C122.422 399.288 122.375 399.703 122.343 400.084L124.844 399.195C124.85 399.138 124.856 399.081 124.86 399.024C125.087 396.047 125.39 391.769 125.498 386.646C125.533 385.03 125.574 383.288 125.532 381.509C126.191 381.41 131.504 380.526 133.608 379.156C135.517 377.9 137.581 375.792 137.721 373.409C137.923 371.223 136.274 369.271 134.032 369.077C133.899 369.059 133.746 369.062 133.606 369.06C130.171 369.207 126.866 374.346 126.05 377.244C126.009 377.424 125.699 379.336 125.517 380.541C125.511 379.817 125.534 379.165 125.5 378.369C125.475 376.885 125.398 375.408 125.331 373.816C125.27 373.058 125.217 372.283 125.147 371.502C125.078 370.72 124.957 369.916 124.865 369.115C124.608 367.254 124.264 365.383 123.861 363.508C125.177 363.477 129.872 363.333 131.952 362.368C134.032 361.403 136.462 359.623 136.947 357.302C137.507 355.172 136.207 353.005 134.036 352.456C133.898 352.426 133.76 352.396 133.61 352.371C130.195 352.003 126.121 356.571 124.89 359.337C124.803 359.506 124.133 361.568 123.786 362.713C123.539 361.587 123.297 360.473 123.003 359.337C122.18 356.073 121.236 352.785 120.302 349.522C120.015 348.508 119.749 347.512 119.479 346.505C119.941 346.508 125.519 346.441 127.862 345.364C129.935 344.416 132.368 342.606 132.859 340.298C133.414 338.157 132.098 335.983 129.913 335.439C129.787 335.405 129.65 335.375 129.517 335.356C126.095 335.006 122.028 339.556 120.785 342.328C120.687 342.542 119.715 345.472 119.543 346.277C118.939 344.066 118.352 341.864 117.877 339.66C117.196 336.684 116.719 333.659 116.431 330.617C116.653 330.615 122.481 330.578 124.873 329.482C126.942 328.522 129.318 326.747 129.864 324.404C130.407 322.267 129.066 320.103 126.891 319.582C126.749 319.54 126.611 319.509 126.465 319.495C123.051 319.129 118.977 323.695 117.732 326.467C117.65 326.649 116.919 328.911 116.595 330.006L116.405 329.982C116.211 326.931 116.294 323.873 116.662 320.83C116.844 319.159 117.112 317.565 117.397 316.018C118.489 316.126 123.458 316.537 125.693 315.788C127.928 315.038 130.405 313.555 131.178 311.29C131.96 309.227 130.883 306.95 128.79 306.179C128.648 306.138 128.506 306.095 128.363 306.052C125.002 305.323 120.457 309.437 118.907 312.036C118.822 312.178 118.159 313.689 117.627 314.822C117.771 314.123 117.911 313.412 118.07 312.75C118.63 310.265 119.295 308.013 119.904 306.043C120.268 304.905 120.612 303.899 120.925 302.917C122.056 302.49 126.522 300.624 128.143 298.956C129.765 297.288 131.289 294.836 130.891 292.439C130.604 290.257 128.57 288.71 126.342 288.978Z" fill="#00A994"/>
<path opacity="0.3" d="M116.718 315.642C116.718 315.642 116.301 311.595 116.243 311.342C115.54 308.416 112.449 303.187 109.003 302.886C106.767 302.763 104.852 304.44 104.727 306.632C104.719 306.78 104.719 306.929 104.727 307.078C104.776 309.443 106.759 311.638 108.617 312.951C110.794 314.51 116.706 315.647 116.718 315.642Z" fill="#00A994"/>
<path opacity="0.3" d="M59.3118 335.951C61.9963 336.059 67.5827 333.811 67.5827 333.811C67.5827 333.811 64.9582 330.694 64.763 330.48C62.5466 328.399 56.9872 325.706 53.9759 327.323C52.0322 328.443 51.3843 330.896 52.5272 332.8C52.5978 332.917 52.6742 333.03 52.7565 333.14C54.1405 335.097 57.0201 335.845 59.3118 335.951Z" fill="#00A994"/>
<path d="M257.792 427.461C369.564 427.461 460.173 415.609 460.173 400.99C460.173 386.37 369.564 374.518 257.792 374.518C146.02 374.518 55.4106 386.37 55.4106 400.99C55.4106 415.609 146.02 427.461 257.792 427.461Z" fill="#E8E8E8"/>
<path opacity="0.5" d="M257.792 427.461C369.564 427.461 460.173 415.609 460.173 400.99C460.173 386.37 369.564 374.518 257.792 374.518C146.02 374.518 55.4106 386.37 55.4106 400.99C55.4106 415.609 146.02 427.461 257.792 427.461Z" fill="white"/>
<path d="M491.191 150.731C491.191 150.731 483.996 183.187 474.558 198.555L463.773 194.831L458.416 199.23L435.612 218.007C435.612 218.007 401.111 206.735 394.702 195.724C388.292 184.712 397.184 170.21 397.184 170.21L419.707 117.08L419.903 116.97L429.581 111.912C429.581 111.912 431.334 111.692 433.984 111.513C434.895 111.444 435.92 111.39 437.013 111.348C442.413 111.128 449.537 111.265 454.179 112.984C462.51 116.063 469.368 114.922 469.368 114.922C469.368 114.922 479.017 127.597 485.005 136.422C491.009 145.26 491.191 150.731 491.191 150.731Z" fill="#399B8E"/>
<path d="M365.057 252.695C365.057 252.695 357.299 272.806 356.076 284.782C354.854 296.758 369.923 317.116 369.923 317.116C369.923 317.116 362.632 329.891 365.056 333.882C367.479 337.874 374.526 327.893 377.927 314.72C381.327 301.547 375.217 283.583 375.217 283.583C375.217 283.583 385.186 269.745 385.7 263.691C386.215 257.638 365.057 252.695 365.057 252.695Z" fill="white"/>
<path d="M365.21 252.695C365.21 252.695 357.322 272.806 356.079 284.782C354.838 296.758 370.158 317.116 370.158 317.116C370.158 317.116 362.746 329.891 365.21 333.882C367.673 337.874 374.839 327.893 378.295 314.72C381.752 301.547 375.541 283.583 375.541 283.583C375.541 283.583 385.675 269.745 386.199 263.691C386.72 257.638 365.21 252.695 365.21 252.695Z" stroke="#263238" stroke-miterlimit="10" stroke-linecap="round" stroke-linejoin="round"/>
<path d="M367.796 319.989C367.796 319.989 365.797 316.398 366.963 315.418C368.13 314.439 372.459 316.888 373.126 318.683C373.793 320.479 377.113 317.592 377.113 317.592L379.031 310.837C379.031 310.837 380.953 315.255 381.12 317.214C381.287 319.173 377.594 322.883 377.123 327.499C376.568 332.932 369.795 338.274 365.797 337.784C361.8 337.294 364.132 325.54 367.796 319.989Z" fill="#263238"/>
<path d="M379.948 316.362C377.671 319.553 376.004 322.79 374.38 326.344C373.376 328.544 373 330.989 371.104 332.527C369.331 333.966 367.309 334.812 365.056 335.277" stroke="white" stroke-miterlimit="10" stroke-linecap="round" stroke-linejoin="round"/>
<path opacity="0.1" d="M458.416 199.229L435.612 218.006C435.612 218.006 401.111 206.734 394.702 195.723C388.292 184.711 397.184 170.209 397.184 170.209L419.707 117.079L419.903 116.969C424.602 115.663 429.314 113.08 433.984 111.512C435.049 111.155 436.102 110.838 437.153 110.619C437.111 110.867 437.055 111.099 437.013 111.347C432.918 133.342 437.588 156.793 449.832 175.652C452.286 179.433 453.226 183.983 455.119 188.051C456.297 190.594 457.489 193.179 458.05 195.914C458.276 197.002 458.388 198.115 458.416 199.229Z" fill="black"/>
<path d="M456.982 121.43C456.982 121.43 457.636 125.949 464.419 126.801C471.202 127.653 474.972 122.632 474.972 122.632C474.972 122.632 473.83 117.076 475.049 110.812C476.267 104.549 478.179 102.668 478.179 102.668C478.179 102.668 486.062 102.759 486.537 96.7202C487.012 90.681 479.285 87.3859 476.737 89.9491C474.19 92.5112 470.829 83.1815 470.829 83.1815L461.811 78.0827L455.191 72.2671L450.047 77.1377C450.047 77.1377 448.353 82.9038 447.945 85.6652C447.537 88.4267 445.635 93.3111 445.658 95.7141C445.682 98.1171 446.363 111.379 447.89 115.55C449.418 119.721 453.4 120.896 455.192 120.566C456.983 120.236 456.982 121.43 456.982 121.43Z" fill="white"/>
<path d="M386.548 382.803C385.722 378.661 386.417 373.858 388.346 368.814C391.696 360.059 394.702 302.788 403.194 296.219C408.672 291.982 422.214 297.679 422.214 297.679C422.214 297.679 422.958 305.339 422.214 317.743C421.47 330.146 398.415 371.003 398.219 374.651C398.183 375.316 398.69 376.405 399.521 377.785L386.548 382.803Z" fill="white"/>
<path d="M386.548 382.803C385.722 378.661 386.417 373.858 388.346 368.814C391.696 360.059 394.702 302.788 403.194 296.219C408.672 291.982 422.214 297.679 422.214 297.679C422.214 297.679 422.958 305.339 422.214 317.743C421.47 330.146 398.415 371.003 398.219 374.651C398.183 375.316 398.69 376.405 399.521 377.785L386.548 382.803Z" stroke="#263238" stroke-miterlimit="10" stroke-linecap="round" stroke-linejoin="round"/>
<path d="M386.985 373.16C386.985 373.16 384.077 381.805 384.541 386.736C385.004 391.666 388.65 388.976 395.828 397.145C403.004 405.314 409.523 406.12 411.838 404.532C414.153 402.943 412.788 398.82 405.504 386.736C398.219 374.651 400.911 379.948 400.911 379.948C400.911 379.948 402.397 374.907 399.589 374.195C395.521 373.161 393.107 378.959 390.561 378.959C388.014 378.958 386.985 373.16 386.985 373.16Z" fill="#263238"/>
<path d="M385.363 384.357C385.954 385.25 386.771 386.032 387.651 386.653C389.413 387.894 391.467 388.68 393.279 389.849C395.614 391.354 397.479 393.444 399.445 395.389C400.813 396.742 402.241 398.037 403.725 399.266C404.898 400.238 406.135 401.185 407.583 401.684C409.032 402.183 410.743 402.171 412 401.306" stroke="white" stroke-miterlimit="10" stroke-linecap="round" stroke-linejoin="round"/>
<path d="M457.013 70.8228C453.79 73.318 450.31 76.1716 449.016 80.1467C447.73 84.1022 448.084 88.5532 446.407 92.4084C445.243 95.0846 445.737 98.8614 445.903 101.69C446.16 106.115 446.812 110.539 447.723 114.878C448.401 118.113 449.796 120.149 453.288 120.552C456.711 120.947 460.486 119.205 463.45 117.699C468.226 115.275 473.9 107.542 476.736 102.937C480.498 102.063 487.683 102.508 486.379 95.4511C485.075 88.3942 479.645 91.8299 478.127 93.8571" stroke="#263238" stroke-miterlimit="10" stroke-linecap="round" stroke-linejoin="round"/>
<path d="M459.215 91.2878C461.064 89.3677 462.982 89.9601 465.193 91.2659" stroke="#263238" stroke-miterlimit="10" stroke-linecap="round" stroke-linejoin="round"/>
<path d="M454.462 92.5247C454.944 95.2458 454.276 98.1709 452.562 100.371C452.087 100.981 451.515 101.592 451.442 102.356C451.361 103.209 451.935 103.987 452.566 104.578" stroke="#263238" stroke-miterlimit="10" stroke-linecap="round" stroke-linejoin="round"/>
<path d="M454.303 109.479C457.149 109.724 458.758 109.061 460.269 106.916" stroke="#263238" stroke-miterlimit="10" stroke-linecap="round" stroke-linejoin="round"/>
<path d="M462.118 96.3995C462.03 97.3814 461.556 98.1432 461.057 98.1006C460.56 98.0579 460.227 97.227 460.315 96.2438C460.404 95.2619 460.877 94.5001 461.376 94.5427C461.873 94.5865 462.206 95.4175 462.118 96.3995Z" fill="#263238"/>
<path d="M451.34 95.0037C451.252 95.9868 450.778 96.7475 450.28 96.7048C449.782 96.6622 449.449 95.8312 449.538 94.8481C449.626 93.8661 450.101 93.1043 450.598 93.147C451.096 93.1908 451.428 94.0217 451.34 95.0037Z" fill="#263238"/>
<path d="M448.381 89.7853C448.381 89.7853 450.135 88.3135 451.783 90.078" stroke="#263238" stroke-miterlimit="10" stroke-linecap="round" stroke-linejoin="round"/>
<path d="M476.737 102.936C475.536 106.744 475.116 110.004 474.659 113.964C474.325 116.855 474.199 119.825 474.972 122.632C473.166 125.509 468.525 127.165 465.091 126.88C463.153 126.718 461.197 126.212 459.628 125.086C458.059 123.96 456.93 122.143 456.984 120.236" stroke="#263238" stroke-miterlimit="10" stroke-linecap="round" stroke-linejoin="round"/>
<path d="M394.227 192.433C394.227 192.433 414.87 213.107 437.309 216.625C437.309 216.625 443.591 227.622 440.451 238.179C437.309 248.736 425.192 294.482 425.192 294.482L402.304 291.843V235.978C402.304 235.978 394.701 254.946 387.684 264.219L365.056 252.694C365.056 252.694 372.686 209.588 394.227 192.433Z" fill="#263238"/>
<path d="M394.701 220.03L401.576 227.731L402.305 235.981" stroke="white" stroke-miterlimit="10" stroke-linecap="round" stroke-linejoin="round"/>
<path d="M398.503 279.737C398.503 279.737 397.253 286.814 399.992 297.796C399.992 297.796 415.926 301.946 425.636 299.017C425.636 299.017 430.366 289.255 431.113 285.351C431.113 285.351 415.438 276.321 398.503 279.737Z" fill="#263238"/>
<path d="M361.154 257.287C361.154 257.287 371.86 265.584 385.304 268.024C385.304 268.024 392.151 263.387 394.703 260.214C394.703 260.214 380.077 245.816 362.898 245.816L361.154 257.287Z" fill="#263238"/>
<path d="M459.656 162.812C459.656 162.812 463.105 149.946 474.564 146.896" stroke="#263238" stroke-miterlimit="10" stroke-linecap="round" stroke-linejoin="round"/>
<path d="M478.463 93.2393C477.389 94.0691 477.703 95.8509 476.884 96.9262C476.147 97.8955 475.076 98.534 473.839 98.625C473.728 98.6331 473.608 98.6342 473.519 98.5708C473.424 98.5028 473.391 98.3795 473.366 98.2666C473.007 96.562 473.301 94.7998 473.305 93.0595C473.312 90.1828 472.108 88.832 470.116 86.9857C468.566 85.5485 468.618 83.0048 467.145 81.4927C466.096 80.4163 464.478 80.0832 462.96 80.0313C461.442 79.9783 459.902 80.1489 458.414 79.8411C455.611 79.2637 453.498 77.052 452.877 74.082C450.532 75.9214 448.506 82.1047 448.506 82.1047L447.03 80.845C443.454 77.5753 442.775 71.7642 445.245 67.6117C447.76 63.3808 453.109 61.0919 458.057 61.7695C461.349 62.2202 464.41 63.8222 467.72 64.1115C471.755 64.463 475.949 62.8471 479.794 64.0976C483.628 65.3447 486.017 69.1445 487.151 72.9456C488.283 76.7455 488.491 80.7712 489.706 84.5469C490.109 85.7997 490.624 87.0306 490.793 88.333C491.186 91.3445 489.492 94.5139 486.741 95.9108C486.744 95.9108 485.629 87.7083 478.463 93.2393Z" fill="#263238"/>
<path opacity="0.2" d="M448.553 77.3356C447.033 75.1389 446.557 72.2034 447.591 69.7509C448.626 67.2983 451.262 65.4992 453.965 65.6744C456.69 65.8519 458.934 67.8192 460.654 69.8984C462.374 71.9775 463.87 74.3252 466.14 75.8131C468.628 77.4428 471.749 77.8393 474.405 79.1901C478.571 81.3095 481.289 85.9081 481.09 90.5044" stroke="white" stroke-miterlimit="10" stroke-linecap="round" stroke-linejoin="round"/>
<path opacity="0.2" d="M465.3 68.2605C466.455 70.3466 468.844 71.468 471.175 72.1134C473.505 72.7588 475.964 73.0815 478.104 74.1902C481.408 75.9017 483.587 79.5195 483.516 83.1822" stroke="white" stroke-miterlimit="10" stroke-linecap="round" stroke-linejoin="round"/>
<path d="M443.128 90.1945L355.108 298.058C353.266 302.406 348.177 304.473 343.735 302.666L228.587 255.822C224.152 254.017 222.045 249.022 223.886 244.674L311.906 36.8106C313.747 32.4633 318.843 30.398 323.279 32.2028L438.427 79.0472C442.868 80.8532 444.969 85.846 443.128 90.1945Z" fill="white" stroke="#263238" stroke-miterlimit="10"/>
<path d="M410.841 95.7809L406.641 105.701C405.376 108.689 401.868 110.11 398.819 108.87L329.704 80.7531C327.176 79.7239 325.752 77.1987 326.052 74.6678C326.109 74.1353 326.246 73.6005 326.465 73.0842L330.665 63.1644C331.934 60.169 335.44 58.7491 338.495 59.9915L407.61 88.1097C410.66 89.3486 412.11 92.7866 410.841 95.7809Z" fill="#399B8E"/>
<path d="M361.56 76.3711L358.058 84.6405L356.491 84.0031L357.991 80.4591L353.627 78.6842L352.127 82.2282L350.56 81.5909L354.061 73.3215L355.629 73.9589L354.182 77.3727L358.546 79.1476L359.992 75.7338L361.56 76.3711Z" fill="#FCFCFC"/>
<path d="M367.342 85.2751L362.292 83.2202C362.082 84.2148 362.615 85.1241 363.737 85.5805C364.46 85.8744 365.121 85.8802 365.775 85.6059L366.197 86.8437C365.334 87.2817 364.279 87.2678 363.17 86.8172C361.012 85.939 360.189 84.0119 360.985 82.1333C361.78 80.2547 363.762 79.4814 365.678 80.2616C367.558 81.0269 368.387 82.8733 367.551 84.8464C367.501 84.9662 367.414 85.138 367.342 85.2751ZM362.695 82.2347L366.347 83.7204C366.612 82.7615 366.166 81.8463 365.177 81.4441C364.201 81.0476 363.23 81.3727 362.695 82.2347Z" fill="#FCFCFC"/>
<path d="M371.388 79.7874L372.895 80.4005L369.183 89.1666L367.676 88.5535L371.388 79.7874Z" fill="#FCFCFC"/>
<path d="M374.871 81.2039L376.378 81.817L372.665 90.5831L371.159 89.97L374.871 81.2039Z" fill="#FCFCFC"/>
<path d="M375.449 88.0184C376.25 86.1282 378.262 85.3814 380.239 86.1859C382.24 86.9995 383.109 88.9185 382.308 90.8086C381.507 92.6988 379.504 93.4618 377.502 92.6481C375.525 91.8436 374.649 89.9085 375.449 88.0184ZM380.789 90.1897C381.299 88.9842 380.805 87.8835 379.708 87.4375C378.623 86.9961 377.479 87.4306 376.969 88.635C376.458 89.8405 376.953 90.9412 378.038 91.3826C379.133 91.8298 380.279 91.3953 380.789 90.1897Z" fill="#FCFCFC"/>
<path d="M382.496 93.6C382.711 93.0918 383.291 92.8567 383.857 93.0872C384.412 93.3131 384.639 93.8767 384.424 94.3838C384.209 94.892 383.636 95.1433 383.081 94.9174C382.516 94.688 382.281 94.1071 382.496 93.6ZM385.727 86.2031L387.511 86.9292L384.869 92.3357L383.675 91.8505L385.727 86.2031Z" fill="#FCFCFC"/>
<path d="M393.314 149.033L305.455 113.294L303.243 118.516L391.103 154.256L393.314 149.033Z" fill="#263238"/>
<path d="M387.627 162.468L299.768 126.729L297.556 131.951L385.416 167.69L387.627 162.468Z" fill="#263238"/>
<path d="M381.936 175.903L294.077 140.164L291.866 145.386L379.725 181.125L381.936 175.903Z" fill="#263238"/>
<path d="M376.248 189.336L288.389 153.597L286.178 158.819L374.037 194.558L376.248 189.336Z" fill="#263238"/>
<path d="M370.56 202.771L282.701 167.032L280.49 172.254L368.349 207.993L370.56 202.771Z" fill="#263238"/>
<path d="M364.873 216.206L277.014 180.467L274.803 185.689L362.662 221.428L364.873 216.206Z" fill="#263238"/>
<path d="M379.107 241.382L355.108 298.057C353.267 302.404 348.178 304.472 343.736 302.665L261.257 269.11C266.379 263.127 273.373 258.683 281.169 256.982C293.241 254.353 307.014 257.555 317.351 250.897C325.691 245.531 329.768 234.775 338.93 230.905C343.542 228.961 348.804 229.09 353.724 230.046C362.577 231.766 371.624 236.023 379.107 241.382Z" fill="#399B8E" stroke="#263238" stroke-miterlimit="10"/>
<path d="M324.345 55.005C321.154 57.2962 319.082 60.7653 317.346 64.2402C313.258 72.4323 310.549 81.2284 306.402 89.3883C302.251 97.5401 296.315 105.29 287.884 109.133C285.551 110.196 283.005 110.876 280.422 111.158L311.905 36.8089C313.746 32.4616 318.843 30.3962 323.278 32.2011L343.386 40.3817C341.759 47.5124 330.628 50.5032 324.345 55.005Z" fill="#399B8E" stroke="#263238" stroke-miterlimit="10"/>
<path opacity="0.1" d="M410.841 95.7796L406.641 105.699C405.376 108.688 401.868 110.109 398.819 108.869L329.704 80.7518C327.176 79.7226 325.752 77.1975 326.052 74.6665C329.651 74.7103 334.11 77.6781 337.079 78.864C341.893 80.8002 346.749 82.6178 351.654 84.3247C367.053 89.6804 383.951 93.9091 399.544 89.1295C401.361 88.5717 403.172 87.8733 404.856 86.987L407.61 88.1073C410.66 89.3474 412.11 92.7854 410.841 95.7796Z" fill="black"/>
<path d="M410.841 95.7809L406.641 105.701C405.376 108.689 401.868 110.11 398.819 108.87L329.704 80.7531C327.176 79.7239 325.752 77.1987 326.052 74.6678C326.109 74.1353 326.246 73.6005 326.465 73.0842L330.665 63.1644C331.934 60.169 335.44 58.7491 338.495 59.9915L407.61 88.1097C410.66 89.3486 412.11 92.7866 410.841 95.7809Z" stroke="#263238" stroke-miterlimit="10"/>
<path d="M465.336 196.637C465.336 196.637 448.119 209.178 442.451 213.195C442.451 213.195 414.741 195.827 404.918 186.807C395.097 177.787 390.819 174.633 390.199 164.405C390.199 164.405 375.622 165.935 374.089 162.845C374.089 162.845 376.476 161.311 380.328 161.1C380.328 161.1 373.547 159.183 373.525 156.751L387.124 156.02C387.124 156.02 371.808 153.768 371.979 152.387C372.15 151.006 390.816 148.861 395.823 152.387C395.823 152.387 401.847 162.798 404.315 169.83C404.315 169.83 423.011 186.277 442.451 190.048L449.502 182.673L465.336 196.637Z" fill="white"/>
<path d="M449.5 182.671L442.45 190.046C442.45 190.046 417.697 183.703 404.313 169.829C404.313 169.829 398.692 155.953 395.822 152.385C392.951 148.817 370.822 150.799 371.978 152.385C373.134 153.971 385.596 156.526 385.596 156.526" stroke="#263238" stroke-miterlimit="10" stroke-linecap="round" stroke-linejoin="round"/>
<path d="M465.334 195.963C465.334 195.963 453.673 207.052 442.45 213.194C442.45 213.194 413.791 197.438 399.623 181.416L398.342 180.556C392.94 176.932 389.853 170.811 390.198 164.404C385.164 165.935 379.572 165.623 374.749 163.542C374.432 163.406 374.068 163.183 374.088 162.845C374.102 162.605 374.312 162.426 374.518 162.294C376.107 161.28 378.432 161.182 380.327 161.099C383.875 160.945 387.136 159.965 390.632 160.586" stroke="#263238" stroke-miterlimit="10" stroke-linecap="round" stroke-linejoin="round"/>
<path d="M391.758 156.64C390.188 156.611 388.618 156.581 387.049 156.553C382.82 156.474 378.592 156.396 374.364 156.317C374.012 156.311 373.541 156.406 373.525 156.751C373.518 156.91 373.623 157.049 373.727 157.17C374.718 158.319 376.069 159.105 377.402 159.85C378.159 160.273 378.933 160.695 379.76 160.952" stroke="#263238" stroke-miterlimit="10" stroke-linecap="round" stroke-linejoin="round"/>
<path d="M431.115 216.613C431.115 216.613 428 234.988 440.451 238.181" stroke="white" stroke-miterlimit="10" stroke-linecap="round" stroke-linejoin="round"/>
<path d="M404.375 279.384C404.375 279.384 415.934 278.629 424.988 283.095" stroke="white" stroke-miterlimit="10" stroke-linecap="round" stroke-linejoin="round"/>
<path d="M389.967 256.251C389.967 256.251 387.29 254.237 383.419 252.01" stroke="white" stroke-miterlimit="10" stroke-linecap="round" stroke-linejoin="round"/>
<path d="M434.187 111.309C437.89 111.006 443.235 111.006 447.04 111.915" stroke="#263238" stroke-miterlimit="10" stroke-linecap="round" stroke-linejoin="round"/>
<path d="M474.563 120.608C474.563 120.608 487.868 137.688 491.194 150.73C491.194 150.73 485.652 181.887 474.563 198.551C474.563 198.551 460.796 198.189 447.536 179.35C447.536 179.35 454.674 167.757 466.097 155.44" stroke="#263238" stroke-miterlimit="10" stroke-linecap="round" stroke-linejoin="round"/>
<path d="M437.308 216.626L441.33 213.195" stroke="#263238" stroke-miterlimit="10" stroke-linecap="round" stroke-linejoin="round"/>
<path d="M457.285 120.831C457.285 120.831 460.441 124.732 465.334 123.261C470.228 121.789 474.563 106.236 474.563 106.236C474.563 106.236 466.323 117.937 457.285 120.831Z" fill="#263238"/>
<path d="M340.127 95.183V381.769C340.127 388.212 334.797 393.435 328.225 393.435H182.482C179.781 393.435 177.281 392.547 175.278 391.055C172.426 388.928 170.58 385.556 170.58 381.769V95.183C170.58 88.7403 175.91 83.5171 182.482 83.5171H328.225C334.797 83.5171 340.127 88.7403 340.127 95.183Z" fill="#263238"/>
<path d="M345.006 95.183V381.769C345.006 388.212 339.676 393.435 333.104 393.435H187.36C184.659 393.435 182.16 392.547 180.156 391.055C177.305 388.928 175.458 385.556 175.458 381.769V95.183C175.458 88.7403 180.789 83.5171 187.36 83.5171H333.104C339.676 83.5171 345.006 88.7403 345.006 95.183Z" fill="#263238"/>
<path d="M236.439 96.3162H275.831" stroke="white" stroke-width="2" stroke-miterlimit="10" stroke-linecap="round" stroke-linejoin="round"/>
<path opacity="0.1" d="M340.128 95.1824V381.768C340.128 388.211 334.797 393.434 328.226 393.434H182.482C179.781 393.434 177.281 392.547 175.278 391.054L302.503 83.5154H328.226C334.797 83.5165 340.128 88.7398 340.128 95.1824Z" fill="white"/>
<path d="M340.127 95.183V381.769C340.127 388.212 334.797 393.435 328.225 393.435H182.482C179.781 393.435 177.281 392.547 175.278 391.055C172.426 388.928 170.58 385.556 170.58 381.769V95.183C170.58 88.7403 175.91 83.5171 182.482 83.5171H328.225C334.797 83.5171 340.127 88.7403 340.127 95.183Z" stroke="#263238" stroke-miterlimit="10"/>
<path d="M315.516 367.237H195.417C187.095 367.237 180.35 360.625 180.35 352.468V118.476C180.35 110.319 187.095 103.707 195.417 103.707H315.516C323.838 103.707 330.583 110.319 330.583 118.476V352.467C330.583 360.624 323.838 367.237 315.516 367.237Z" fill="white" stroke="#263238" stroke-miterlimit="10"/>
<path d="M262.012 381.136C262.012 384.989 258.825 388.111 254.895 388.111C250.965 388.111 247.779 384.987 247.779 381.136C247.779 377.283 250.966 374.161 254.895 374.161C258.825 374.159 262.012 377.283 262.012 381.136Z" fill="#263238"/>
<path d="M304.035 387.44V374.83L316.9 381.136L304.035 387.44Z" fill="#263238"/>
<path d="M206.487 375.531H194.808V386.978H206.487V375.531Z" fill="#263238"/>
<path d="M298.254 173.29L296.413 169.321L291.52 170.159L291.173 174.531C289.678 175.087 288.26 175.821 286.95 176.718L283.063 174.468L279.609 177.885L281.938 181.716C280.413 183.923 279.373 186.417 278.884 189.039L274.423 190.101V194.93L278.916 196.044C279.204 197.542 279.676 199 280.323 200.385L277.281 203.834L280.096 207.793L284.427 206.169C285.538 207.226 286.77 208.156 288.097 208.939L287.621 213.481L292.244 215.136L294.853 211.368C295.925 211.551 297.012 211.643 298.101 211.644C298.566 211.644 299.032 211.644 299.487 211.591L301.739 215.55L306.503 214.297L306.439 209.818C307.866 209.157 309.208 208.33 310.434 207.356L314.538 209.288L317.7 205.595L315.08 202.009C315.883 200.651 316.509 199.2 316.942 197.689L321.36 196.968L321.782 192.16L317.614 190.707C317.449 189.127 317.086 187.572 316.531 186.08L319.681 183.045L317.213 178.864L312.968 180.009C311.918 178.806 310.718 177.737 309.395 176.826L310.195 172.581L305.734 170.544L302.93 173.876C301.403 173.495 299.832 173.299 298.254 173.29ZM298.168 180.432C304.961 180.432 310.467 185.83 310.467 192.488C310.467 199.146 304.961 204.543 298.168 204.543C291.375 204.543 285.868 199.146 285.868 192.488C285.868 185.83 291.374 180.432 298.168 180.432Z" fill="#263238"/>
<path d="M300.366 170.703L298.526 166.734L293.632 167.572L293.286 171.944C291.792 172.5 290.373 173.234 289.063 174.131L285.176 171.881L281.722 175.298L284.05 179.129C282.527 181.336 281.486 183.83 280.997 186.452L276.536 187.514V192.343L281.029 193.458C281.317 194.955 281.789 196.413 282.436 197.798L279.393 201.247L282.208 205.206L286.539 203.582C287.65 204.639 288.882 205.569 290.21 206.352L289.733 210.894L294.357 212.549L296.966 208.781C298.038 208.964 299.126 209.056 300.214 209.057C300.679 209.057 301.145 209.057 301.6 209.004L303.852 212.963L308.615 211.71L308.55 207.231C309.978 206.57 311.319 205.743 312.546 204.77L316.65 206.701L319.811 203.008L317.192 199.422C317.995 198.064 318.62 196.613 319.054 195.102L323.472 194.381L323.894 189.573L319.726 188.119C319.561 186.539 319.198 184.984 318.643 183.492L321.794 180.457L319.325 176.276L315.081 177.422C314.03 176.219 312.83 175.15 311.508 174.239L312.308 169.994L307.847 167.957L305.043 171.289C303.514 170.907 301.943 170.711 300.366 170.703ZM300.279 177.845C307.072 177.845 312.579 183.243 312.579 189.901C312.579 196.559 307.072 201.956 300.279 201.956C293.487 201.956 287.98 196.559 287.98 189.901C287.98 183.243 293.487 177.845 300.279 177.845Z" fill="#B9B9B9" stroke="#263238" stroke-miterlimit="10"/>
<path d="M227.077 132.252L224.132 125.9L216.3 127.242L215.745 134.239C213.355 135.128 211.086 136.303 208.988 137.738L202.768 134.137L197.24 139.606L200.965 145.737C198.525 149.269 196.861 153.26 196.079 157.455L188.941 159.154V166.882L196.131 168.665C196.592 171.061 197.348 173.393 198.384 175.611L193.515 181.13L198.02 187.465L204.95 184.866C206.729 186.558 208.7 188.046 210.823 189.298L210.061 196.567L217.46 199.217L221.635 193.188C223.352 193.48 225.091 193.627 226.834 193.629C227.579 193.629 228.323 193.629 229.051 193.544L232.655 199.878L240.279 197.874L240.176 190.708C242.461 189.65 244.606 188.327 246.569 186.767L253.136 189.858L258.196 183.948L254.003 178.208C255.288 176.035 256.288 173.713 256.983 171.296L264.053 170.141L264.729 162.448L258.058 160.121C257.795 157.592 257.213 155.105 256.325 152.716L261.367 147.859L257.416 141.168L250.624 143.001C248.943 141.075 247.022 139.364 244.906 137.906L246.188 131.113L239.049 127.853L234.562 133.185C232.114 132.579 229.6 132.266 227.077 132.252ZM226.938 150.089C234.198 150.089 240.084 155.858 240.084 162.975C240.084 170.09 234.199 175.859 226.938 175.859C219.679 175.859 213.792 170.09 213.792 162.975C213.792 155.858 219.679 150.089 226.938 150.089Z" fill="#263238"/>
<path d="M286.669 295.922L284.467 291.172L278.611 292.176L278.196 297.408C276.409 298.073 274.711 298.951 273.144 300.024L268.492 297.331L264.359 301.421L267.145 306.005C265.321 308.647 264.076 311.63 263.491 314.768L258.153 316.038V321.816L263.53 323.149C263.874 324.941 264.44 326.685 265.214 328.344L261.573 332.471L264.942 337.208L270.124 335.265C271.454 336.53 272.928 337.642 274.516 338.579L273.946 344.015L279.478 345.996L282.6 341.487C283.884 341.705 285.184 341.816 286.487 341.817C287.044 341.817 287.602 341.817 288.145 341.753L290.84 346.49L296.541 344.992L296.463 339.633C298.171 338.842 299.777 337.853 301.244 336.687L306.154 338.998L309.937 334.579L306.802 330.287C307.763 328.662 308.512 326.926 309.03 325.119L314.316 324.256L314.821 318.503L309.833 316.764C309.636 314.873 309.201 313.014 308.538 311.227L312.307 307.596L309.354 302.593L304.275 303.964C303.018 302.525 301.581 301.244 300 300.154L300.958 295.075L295.62 292.637L292.264 296.625C290.437 296.166 288.557 295.932 286.669 295.922ZM286.566 309.26C291.995 309.26 296.395 313.574 296.395 318.894C296.395 324.215 291.994 328.528 286.566 328.528C281.138 328.528 276.737 324.214 276.737 318.894C276.736 313.573 281.137 309.26 286.566 309.26Z" fill="#263238"/>
<path d="M288.747 292.474L286.545 287.725L280.689 288.728L280.274 293.96C278.487 294.625 276.789 295.503 275.221 296.576L270.57 293.884L266.437 297.973L269.222 302.558C267.398 305.199 266.154 308.182 265.569 311.321L260.23 312.591V318.368L265.608 319.702C265.952 321.494 266.518 323.238 267.291 324.896L263.651 329.023L267.02 333.76L272.202 331.817C273.532 333.083 275.006 334.195 276.593 335.132L276.023 340.567L281.556 342.548L284.677 338.041C285.961 338.259 287.262 338.369 288.565 338.37C289.122 338.37 289.679 338.37 290.223 338.307L292.918 343.044L298.618 341.546L298.541 336.186C300.249 335.396 301.854 334.407 303.322 333.24L308.232 335.551L312.015 331.132L308.88 326.84C309.84 325.215 310.589 323.48 311.108 321.673L316.395 320.809L316.9 315.057L311.912 313.318C311.715 311.427 311.28 309.568 310.616 307.781L314.386 304.15L311.433 299.146L306.354 300.518C305.097 299.078 303.66 297.798 302.079 296.708L303.037 291.628L297.699 289.19L294.343 293.177C292.513 292.719 290.634 292.485 288.747 292.474ZM288.642 305.813C294.071 305.813 298.471 310.127 298.471 315.447C298.471 320.768 294.07 325.081 288.642 325.081C283.213 325.081 278.813 320.767 278.813 315.447C278.813 310.127 283.213 305.813 288.642 305.813Z" fill="#B9B9B9" stroke="#263238" stroke-miterlimit="10"/>
<path d="M328.303 255.147V247.929C321.615 246.799 317.128 240.568 318.282 234.013C319.165 228.989 323.179 223.834 328.303 222.967V212.961L323.777 213.746L323.431 218.108C321.936 218.668 320.518 219.406 319.208 220.305L315.321 218.044L311.834 221.451L314.14 225.293C312.613 227.499 311.572 229.993 311.087 232.616L306.625 233.677V238.506L311.118 239.568C311.409 241.068 311.881 242.529 312.526 243.919L309.472 247.368L312.298 251.316L316.628 249.692C317.735 250.755 318.967 251.686 320.298 252.461L319.822 257.014L324.445 258.658L327.055 254.901C327.501 255.061 327.902 255.104 328.303 255.147Z" fill="#263238"/>
<path d="M223.772 222.283L219.369 217.051L212.364 220.25L213.622 226.915C211.547 228.345 209.662 230.025 208.012 231.915L201.348 230.116L197.471 236.682L202.418 241.447C201.547 243.792 200.976 246.231 200.717 248.713L194.171 250.996L194.835 258.545L201.771 259.678C202.452 262.05 203.435 264.328 204.695 266.461L200.581 272.093L205.545 277.892L211.989 274.859C213.915 276.39 216.021 277.687 218.262 278.726L218.16 285.758L225.64 287.725L229.176 281.509C229.89 281.592 230.621 281.592 231.353 281.592C233.062 281.59 234.769 281.446 236.454 281.159L240.551 287.075L247.811 284.475L247.063 277.343C249.147 276.113 251.081 274.654 252.827 272.993L259.627 275.542L264.047 269.327L259.27 263.911C260.285 261.735 261.027 259.446 261.48 257.095L268.535 255.346V247.763L261.531 246.097C260.763 241.98 259.13 238.063 256.737 234.598L260.392 228.582L254.97 223.215L248.866 226.748C246.808 225.341 244.581 224.188 242.235 223.315L241.691 216.449L234.007 215.133L231.116 221.366C228.639 221.381 226.173 221.688 223.772 222.283ZM231.252 232.582C241.919 232.582 250.565 241.058 250.565 251.512C250.565 261.968 241.918 270.443 231.252 270.443C220.586 270.443 211.938 261.967 211.938 251.512C211.938 241.058 220.586 232.582 231.252 232.582Z" fill="#263238"/>
<path d="M219.961 220.193L215.558 214.961L208.553 218.16L209.811 224.825C207.736 226.256 205.851 227.935 204.201 229.825L197.537 228.025L193.66 234.591L198.608 239.357C197.738 241.701 197.166 244.141 196.908 246.622L190.362 248.905L191.025 256.454L197.961 257.587C198.642 259.959 199.625 262.238 200.886 264.37L196.771 270.002L201.736 275.802L208.179 272.768C210.105 274.299 212.211 275.597 214.452 276.635L214.35 283.668L221.831 285.634L225.367 279.418C226.08 279.501 226.812 279.501 227.543 279.501C229.253 279.499 230.959 279.355 232.644 279.068L236.742 284.984L244.001 282.384L243.254 275.252C245.337 274.022 247.271 272.563 249.018 270.902L255.819 273.452L260.239 267.236L255.461 261.82C256.477 259.644 257.219 257.356 257.672 255.004L264.727 253.255V245.672L257.722 244.006C256.955 239.889 255.321 235.973 252.928 232.507L256.584 226.491L251.161 221.125L245.057 224.657C243 223.25 240.773 222.097 238.427 221.225L237.882 214.359L230.198 213.043L227.308 219.276C224.829 219.29 222.364 219.599 219.961 220.193ZM227.442 230.492C238.109 230.492 246.755 238.968 246.755 249.423C246.755 259.878 238.108 268.353 227.442 268.353C216.776 268.353 208.129 259.877 208.129 249.423C208.129 238.968 216.776 230.492 227.442 230.492Z" fill="#B9B9B9" stroke="#263238" stroke-miterlimit="10"/>
<path d="M182.302 348.581L186.4 354.479L193.66 351.897L192.912 344.747C195.004 343.529 196.938 342.069 198.676 340.398L205.477 342.947L209.915 336.748L205.121 331.332C206.133 329.149 206.875 326.856 207.331 324.5L214.388 322.833V315.251L207.383 313.584C206.621 309.465 204.988 305.549 202.589 302.086L206.211 296.053L200.736 290.704L194.632 294.254C192.575 292.842 190.348 291.683 188.002 290.805L187.457 283.955L180.351 282.722V300.353C188.398 301.713 194.701 307.891 196.088 315.779C197.899 326.073 190.853 335.857 180.351 337.631V348.962C180.976 348.897 181.605 348.831 182.302 348.581Z" fill="#263238"/>
<path d="M182.302 344.097L186.4 349.996L193.66 347.413L192.912 340.264C195.004 339.046 196.938 337.586 198.676 335.914L205.477 338.464L209.915 332.264L205.121 326.849C206.133 324.666 206.875 322.372 207.331 320.016L214.388 318.35V310.767L207.383 309.101C206.621 304.982 204.988 301.065 202.589 297.602L206.211 291.57L200.736 286.221L194.632 289.771C192.575 288.359 190.348 287.201 188.002 286.321L187.457 279.472L180.351 278.239V295.87C188.398 297.23 194.701 303.407 196.088 311.295C197.899 321.59 190.853 331.373 180.351 333.147V344.479C180.976 344.413 181.605 344.346 182.302 344.097Z" fill="#B9B9B9" stroke="#263238" stroke-miterlimit="10"/>
<path d="M224.964 129.444L222.018 123.092L214.187 124.434L213.632 131.431C211.242 132.32 208.972 133.495 206.875 134.93L200.654 131.329L195.127 136.798L198.852 142.929C196.412 146.462 194.748 150.452 193.966 154.647L186.828 156.346V164.074L194.018 165.857C194.479 168.253 195.235 170.585 196.271 172.803L191.402 178.322L195.906 184.657L202.837 182.058C204.616 183.749 206.587 185.236 208.71 186.49L207.948 193.759L215.347 196.409L219.522 190.38C221.239 190.672 222.978 190.82 224.72 190.821C225.466 190.821 226.21 190.821 226.938 190.736L230.542 197.07L238.166 195.066L238.063 187.9C240.347 186.842 242.493 185.519 244.456 183.959L251.023 187.05L256.082 181.14L251.889 175.399C253.175 173.227 254.175 170.905 254.87 168.488L261.939 167.333L262.615 159.64L255.945 157.313C255.681 154.784 255.099 152.297 254.212 149.908L259.254 145.051L255.303 138.36L248.511 140.193C246.83 138.267 244.908 136.556 242.793 135.098L244.075 128.305L236.936 125.044L232.449 130.377C230.002 129.771 227.488 129.457 224.964 129.444ZM224.825 147.281C232.085 147.281 237.97 153.05 237.97 160.165C237.97 167.281 232.085 173.051 224.825 173.051C217.565 173.051 211.679 167.282 211.679 160.165C211.679 153.049 217.565 147.281 224.825 147.281Z" fill="#B9B9B9" stroke="#263238" stroke-miterlimit="10"/>
<path d="M330.584 253.309V246.093C323.896 244.962 319.409 238.732 320.561 232.176C321.444 227.154 325.459 223.219 330.584 222.352V211.124L326.058 211.909L325.711 216.271C324.217 216.832 322.799 217.569 321.489 218.468L317.602 216.208L314.115 219.615L316.421 223.456C314.894 225.662 313.853 228.156 313.367 230.779L308.906 231.841V236.67L313.399 237.731C313.69 239.232 314.162 240.692 314.807 242.082L311.753 245.532L314.579 249.479L318.909 247.855C320.016 248.919 321.248 249.849 322.579 250.625L322.103 255.177L326.726 256.822L329.335 253.065C329.783 253.224 330.184 253.266 330.584 253.309Z" fill="#B9B9B9" stroke="#263238" stroke-miterlimit="10"/>
<path d="M224.722 178.859C235.254 178.859 243.791 170.49 243.791 160.167C243.791 149.844 235.254 141.476 224.722 141.476C214.19 141.476 205.652 149.844 205.652 160.167C205.652 170.49 214.19 178.859 224.722 178.859Z" stroke="white" stroke-miterlimit="10"/>
<path d="M226.939 273.87C240.714 273.87 251.881 262.925 251.881 249.423C251.881 235.921 240.714 224.976 226.939 224.976C213.164 224.976 201.997 235.921 201.997 249.423C201.997 262.925 213.164 273.87 226.939 273.87Z" stroke="white" stroke-miterlimit="10"/>
<path d="M288.564 330.142C296.88 330.142 303.622 323.534 303.622 315.383C303.622 307.231 296.88 300.623 288.564 300.623C280.248 300.623 273.506 307.231 273.506 315.383C273.506 323.534 280.248 330.142 288.564 330.142Z" stroke="#263238" stroke-miterlimit="10"/>
<path d="M72.7981 117.781C76.5608 120.269 80.7798 122.205 83.9298 125.408C87.6279 129.168 89.5092 134.416 89.7714 139.633C90.0336 144.851 88.7825 150.051 86.8836 154.931C85.7618 157.812 84.3508 160.692 81.9956 162.738C79.7756 164.666 76.8807 165.699 73.9705 166.269C68.2935 167.383 62.3531 166.873 56.8055 165.249C51.9152 163.818 47.2083 161.469 43.6796 157.856C40.8705 154.979 38.9045 151.412 37.2971 147.755C34.8067 142.088 33.0911 136.073 32.4891 129.931C31.9082 123.996 32.3656 118.015 32.823 112.07C33.2005 107.162 33.5791 102.255 33.9577 97.3472C34.1635 94.6756 33.8483 87.7478 37.2947 86.6402C40.1368 85.7274 44.5509 90.3582 46.464 92.0421C52.4572 97.3206 57.344 103.653 62.9058 109.342C65.9347 112.439 69.1613 115.377 72.7981 117.781Z" fill="#263238"/>
<path d="M56.5473 139.659C56.5473 139.659 70.5551 140.669 77.6443 136.352C84.7334 132.033 100.807 149.64 100.807 149.64L95.2654 241.773C95.2654 241.773 81.1824 244.692 72.487 240.636C63.7917 236.58 59.521 236.776 57.4339 231.912C55.3468 227.048 55.315 218.966 46.3304 211.931C37.3446 204.896 37.3375 201.236 34.5555 196.796C31.7735 192.355 22.7877 186.176 22.168 181.268C21.5483 176.358 22.4784 163.994 22.4784 163.994L39.641 150.895C39.6387 150.895 43.8482 136.356 56.5473 139.659Z" fill="#399B8E"/>
<path opacity="0.1" d="M67.5063 152.768C68.046 158.821 69.3488 164.808 71.3771 170.549C63.9423 170.732 56.5615 172.724 50.0791 176.295C55.0776 183.729 61.3413 190.342 68.5328 195.782C70.186 193.702 72.5789 192.199 75.1975 191.596C76.2134 191.362 77.2622 191.259 78.2523 190.935C79.1918 190.628 80.0537 190.13 80.8838 189.6C90.1001 183.723 96.0698 173.234 96.3297 162.459C96.4837 156.101 94.767 149.794 92.0884 144.002C89.9084 139.287 86.582 134.475 81.4588 133.219C78.7885 132.564 75.9723 132.978 73.2891 133.576C71.1937 134.043 68.1165 134.429 66.2928 135.579C63.4531 137.371 64.2468 136.778 65.1875 139.85C66.5186 144.202 67.1018 148.227 67.5063 152.768Z" fill="black"/>
<path d="M47.3395 95.266C47.3395 95.266 54.7461 107.819 56.912 113.938C59.0779 120.057 58.5911 126.91 58.1502 129.374C58.1502 129.374 58.5676 133.606 61.3637 138.873L65.9107 139.657C65.9107 139.657 72.198 152.594 72.5789 171.681C72.5789 171.681 61.8517 158.382 54.4192 154.901C46.9867 151.419 48.5141 151.805 48.5141 151.805C48.5141 151.805 42.4432 141.319 39.2708 138.105C36.0984 134.893 22.3751 145.359 22.3751 145.359L8.0957 123.008L15.1402 109.988L24.7021 102.717L34.0595 95.2637H39.272H47.3395V95.266Z" fill="white"/>
<path d="M104.199 410.927C108.863 416.864 115.932 420.936 123.494 422.043C125.271 422.302 127.521 422.163 128.267 420.561C128.595 419.855 128.522 419.039 128.39 418.275C126.677 408.295 116.936 401.802 111.717 393.072C110.241 390.603 108.281 384.236 105.066 384.688C103.607 384.893 99.5539 389.239 98.8179 390.635C95.6866 396.582 100.512 406.235 104.199 410.927Z" fill="white" stroke="#263238" stroke-miterlimit="10"/>
<path d="M98.8198 390.634C98.8198 390.634 99.6076 401.581 106.713 407.966C113.819 414.351 115.725 417.941 128.392 418.274" fill="white"/>
<path d="M98.8198 390.634C98.8198 390.634 99.6076 401.581 106.713 407.966C113.819 414.351 115.725 417.941 128.392 418.274" stroke="#263238" stroke-miterlimit="10"/>
<path d="M136.667 370.616C136.667 370.616 134.441 383.047 139.263 389.307C144.085 395.568 148.907 394.227 156.697 395.624C161.867 396.552 166.177 400.176 171.677 398.839C176.61 397.64 173.535 394.135 171.186 392.208C166.006 387.96 159.885 384.928 154.659 380.716C145.568 373.389 147.161 366.919 147.161 366.919L136.667 370.616Z" fill="white" stroke="#263238" stroke-miterlimit="10"/>
<path d="M137.558 386.18C139.646 387.506 140.798 389.216 142.973 390.402C146.095 392.103 149.882 391.855 153.437 392.192C155.524 392.39 157.589 392.805 159.586 393.429C161.756 394.105 163.869 395.033 166.128 395.304C168.316 395.567 170.579 395.186 172.554 394.224" stroke="#263238" stroke-miterlimit="10"/>
<path d="M73.8582 240.656C73.8582 240.656 64.6302 270.958 73.8582 302.616C83.0862 334.275 74.3191 353.723 94.6224 393.071C94.6224 393.071 104.124 400.76 110.679 389.454C110.679 389.454 108.816 345.583 105.641 335.181C102.466 324.778 116.097 302.075 111.589 280.411C107.08 258.747 97.3903 240.657 97.3903 240.657C97.3903 240.657 82.1632 243.82 73.8582 240.656Z" fill="#263238"/>
<path d="M119.292 314.768C119.292 314.768 126.047 358.802 134.492 375.356C134.492 375.356 144.288 382.309 150.368 373.369C150.368 373.369 151.044 300.2 144.964 294.571C138.883 288.943 119.292 314.768 119.292 314.768Z" fill="#263238"/>
<path d="M225.066 27.3356L265.01 286.336C265.847 291.761 262.037 296.824 256.502 297.644L113.031 318.902C110.326 319.303 107.702 318.617 105.639 317.175C103.479 315.669 101.921 313.337 101.493 310.563L61.5499 51.5629C60.7127 46.1379 64.5225 41.0749 70.0572 40.2543L213.529 18.9971C217.727 18.3747 221.722 20.3778 223.762 23.7513C224.415 24.822 224.864 26.0252 225.066 27.3356Z" fill="white"/>
<path d="M212.96 45.6006L194.167 48.3857L194.41 49.9675L213.204 47.1824L212.96 45.6006Z" fill="#263238"/>
<path d="M212.258 41.0535L193.465 43.8386L193.709 45.4216L212.502 42.6365L212.258 41.0535Z" fill="#263238"/>
<path d="M211.555 36.5027L192.762 39.2878L193.006 40.8696L211.799 38.0845L211.555 36.5027Z" fill="#263238"/>
<path d="M221.182 214.372L223.088 226.732C223.663 230.464 221.049 233.939 217.241 234.503L131.122 247.263C127.314 247.826 123.761 245.266 123.185 241.534L121.279 229.174C120.702 225.442 123.325 221.958 127.132 221.393L213.252 208.634C217.059 208.07 220.606 210.64 221.182 214.372Z" fill="#B9B9B9"/>
<path d="M157.873 226.42L156.536 234.051L155.075 234.267L152.413 229.161L151.378 234.814L149.906 235.032L146.328 228.129L147.757 227.916L150.452 233.167L151.517 227.359L152.788 227.171L155.519 232.448L156.559 226.612L157.873 226.42Z" fill="#FCFCFC"/>
<path d="M164.501 230.46L160.064 231.117C160.347 231.903 161.115 232.322 162.1 232.175C162.736 232.081 163.204 231.81 163.544 231.344L164.378 232.039C163.96 232.706 163.214 233.135 162.24 233.28C160.344 233.561 158.931 232.549 158.676 230.898C158.422 229.247 159.479 227.881 161.163 227.632C162.815 227.387 164.197 228.34 164.464 230.072C164.479 230.177 164.493 230.336 164.501 230.46ZM159.92 230.259L163.129 229.783C162.9 228.999 162.191 228.543 161.322 228.672C160.465 228.799 159.923 229.43 159.92 230.259Z" fill="#FCFCFC"/>
<path d="M164.971 224.923L166.295 224.726L167.484 232.429L166.16 232.626L164.971 224.923Z" fill="#FCFCFC"/>
<path d="M168.328 229.469C168.071 227.808 169.161 226.447 170.952 226.182C172.053 226.019 173.002 226.336 173.565 227.111L172.638 227.844C172.219 227.366 171.673 227.202 171.111 227.285C170.137 227.43 169.498 228.204 169.662 229.273C169.829 230.354 170.67 230.897 171.646 230.752C172.208 230.67 172.678 230.357 172.936 229.776L174.042 230.206C173.737 231.101 172.929 231.698 171.828 231.862C170.037 232.126 168.583 231.13 168.328 229.469Z" fill="#FCFCFC"/>
<path d="M174.396 228.569C174.14 226.908 175.23 225.546 176.968 225.289C178.726 225.028 180.167 226.015 180.422 227.676C180.679 229.336 179.6 230.706 177.843 230.966C176.106 231.224 174.652 230.23 174.396 228.569ZM179.089 227.873C178.925 226.814 178.101 226.247 177.137 226.389C176.185 226.53 175.567 227.311 175.731 228.371C175.894 229.43 176.717 229.997 177.671 229.856C178.636 229.713 179.252 228.932 179.089 227.873Z" fill="#FCFCFC"/>
<path d="M191.093 225.682L191.583 228.859L190.259 229.055L189.794 226.044C189.643 225.059 189.103 224.651 188.298 224.771C187.429 224.899 186.911 225.547 187.082 226.648L187.516 229.461L186.192 229.657L185.727 226.648C185.575 225.663 185.036 225.254 184.23 225.372C183.352 225.502 182.844 226.15 183.014 227.251L183.448 230.064L182.124 230.26L181.27 224.716L182.529 224.53L182.638 225.235C182.985 224.674 183.6 224.306 184.374 224.192C185.2 224.069 185.934 224.268 186.423 224.834C186.79 224.195 187.498 223.73 188.399 223.596C189.765 223.394 190.835 224.011 191.093 225.682Z" fill="#FCFCFC"/>
<path d="M198.265 225.457L193.827 226.115C194.11 226.901 194.879 227.318 195.864 227.172C196.499 227.078 196.967 226.806 197.306 226.341L198.139 227.036C197.721 227.702 196.975 228.131 196.001 228.275C194.105 228.556 192.692 227.545 192.437 225.895C192.182 224.243 193.24 222.877 194.924 222.627C196.576 222.382 197.958 223.336 198.225 225.067C198.242 225.174 198.256 225.332 198.265 225.457ZM193.684 225.255L196.892 224.779C196.663 223.995 195.954 223.539 195.085 223.668C194.228 223.795 193.686 224.426 193.684 225.255Z" fill="#FCFCFC"/>
<path d="M245.06 251.647L110.248 271.626L110.613 273.991L245.425 254.012L245.06 251.647Z" fill="#263238"/>
<path d="M246.053 258.074L111.241 278.052L111.606 280.417L246.418 260.438L246.053 258.074Z" fill="#263238"/>
<path d="M247.043 264.497L112.231 284.475L112.596 286.84L247.408 266.862L247.043 264.497Z" fill="#263238"/>
<path d="M248.035 270.924L113.223 290.902L113.587 293.267L248.399 273.288L248.035 270.924Z" fill="#263238"/>
<path opacity="0.1" d="M221.183 214.373L223.089 226.733C223.664 230.465 221.05 233.939 217.243 234.504L131.123 247.264C127.316 247.827 123.762 245.266 123.186 241.535L123.165 241.396C139.017 241.571 194.359 239.908 212.15 208.797L213.252 208.633C217.061 208.071 220.607 210.641 221.183 214.373Z" fill="black"/>
<path d="M221.182 214.372L223.088 226.732C223.663 230.464 221.049 233.939 217.241 234.503L131.122 247.263C127.314 247.826 123.761 245.266 123.185 241.534L121.279 229.174C120.702 225.442 123.325 221.958 127.132 221.393L213.252 208.634C217.059 208.07 220.606 210.64 221.182 214.372Z" stroke="#263238" stroke-miterlimit="10" stroke-linecap="round" stroke-linejoin="round"/>
<path d="M159.147 195.378C159.32 196.497 158.535 197.541 157.393 197.711C156.251 197.88 155.186 197.11 155.013 195.991C154.84 194.872 155.626 193.828 156.767 193.659C157.909 193.489 158.975 194.259 159.147 195.378Z" fill="#263238"/>
<path d="M169.018 193.917C169.191 195.036 168.405 196.08 167.264 196.25C166.122 196.419 165.057 195.649 164.884 194.53C164.711 193.411 165.496 192.367 166.638 192.197C167.781 192.027 168.846 192.798 169.018 193.917Z" fill="#263238"/>
<path d="M178.89 192.454C179.062 193.573 178.277 194.617 177.135 194.787C175.993 194.956 174.928 194.186 174.755 193.067C174.582 191.948 175.368 190.904 176.51 190.734C177.651 190.564 178.717 191.335 178.89 192.454Z" fill="#263238"/>
<path d="M148.087 56.0248L82.8266 65.6945C80.4256 66.0507 78.1844 64.4302 77.8211 62.0768L77.6106 60.711C77.2473 58.3576 78.9005 56.1608 81.3016 55.8047L146.562 46.135C148.963 45.7789 151.204 47.3993 151.568 49.7528L151.778 51.1185C152.141 53.472 150.489 55.6687 148.087 56.0248Z" fill="white" stroke="#263238" stroke-miterlimit="10"/>
<path d="M84.6468 63.0005L83.8872 58.0688" stroke="#263238" stroke-miterlimit="10" stroke-linecap="round" stroke-linejoin="round"/>
<path d="M215.778 63.8672L81.1831 83.8135L98.5341 196.298L233.129 176.352L215.778 63.8672Z" fill="#B9B9B9"/>
<path opacity="0.5" d="M215.778 63.8672L81.1831 83.8135L98.5341 196.298L233.129 176.352L215.778 63.8672Z" fill="white"/>
<path d="M215.778 63.8672L81.1831 83.8135L98.5341 196.298L233.129 176.352L215.778 63.8672Z" stroke="#263238" stroke-miterlimit="10"/>
<path d="M205.94 100.658C210.215 94.9059 208.923 86.8469 203.055 82.6571C197.187 78.4674 188.965 79.7336 184.69 85.4852C180.416 91.2368 181.708 99.2959 187.576 103.486C193.444 107.675 201.666 106.409 205.94 100.658Z" fill="#E8E8E8" stroke="#263238" stroke-miterlimit="10"/>
<path d="M223.486 113.939L233.112 176.352L98.5211 196.294L92.502 157.269C96.6151 148.108 102.741 137.435 109.899 134.329C123.166 128.578 136.817 166.912 162.001 160.656C187.186 154.4 191.88 114.217 223.486 113.939Z" fill="#E8E8E8"/>
<path opacity="0.1" d="M223.486 113.939L233.112 176.352L98.5211 196.294L92.502 157.269C96.6151 148.108 102.741 137.435 109.899 134.329C123.166 128.578 136.817 166.912 162.001 160.656C187.186 154.4 191.88 114.217 223.486 113.939Z" fill="black"/>
<path d="M223.486 113.939L233.112 176.352L98.5211 196.294L92.502 157.269C96.6151 148.108 102.741 137.435 109.899 134.329C123.166 128.578 136.817 166.912 162.001 160.656C187.186 154.4 191.88 114.217 223.486 113.939Z" stroke="#263238" stroke-miterlimit="10"/>
<path opacity="0.1" d="M225.066 27.3363L265.009 286.337C265.847 291.761 262.037 296.825 256.502 297.645L113.031 318.902C110.326 319.303 107.702 318.618 105.639 317.176C137.609 289.388 238.393 187.95 223.761 23.752C224.415 24.8226 224.864 26.0259 225.066 27.3363Z" fill="black"/>
<path d="M225.066 27.3356L265.01 286.336C265.847 291.761 262.037 296.824 256.502 297.644L113.031 318.902C110.326 319.303 107.702 318.617 105.639 317.175C103.479 315.669 101.921 313.337 101.493 310.563L61.5499 51.5629C60.7127 46.1379 64.5225 41.0749 70.0572 40.2543L213.529 18.9971C217.727 18.3747 221.722 20.3778 223.762 23.7513C224.415 24.822 224.864 26.0252 225.066 27.3356Z" stroke="#263238" stroke-miterlimit="10"/>
<path d="M48.8213 97.3943C48.8213 97.3943 56.5913 112.393 58.5361 117.879C60.4798 123.364 58.495 132.422 53.6141 136.501C48.7331 140.579 43.2631 140.32 37.1899 137.373C31.119 134.428 24.9587 129.937 24.9529 129.932C24.8306 129.844 23.8629 130.03 23.6853 130.028C22.4871 130.012 17.7626 128.227 16.1599 125.314C12.1903 118.095 20.9515 120.67 22.7211 121.86" stroke="#263238" stroke-miterlimit="10" stroke-linecap="round" stroke-linejoin="round"/>
<path d="M47.3384 112.771C48.1497 114.621 49.5501 116.218 51.2927 117.284C51.9994 117.716 52.8049 118.107 53.1776 118.838C53.5727 119.612 53.3505 120.581 52.8472 121.293C52.3439 122.005 51.6032 122.516 50.8788 123.011" stroke="#263238" stroke-miterlimit="10" stroke-linecap="round" stroke-linejoin="round"/>
<path d="M44.0327 128.77C44.0327 128.77 46.7971 130.093 49.5874 128.823" stroke="#263238" stroke-miterlimit="10" stroke-linecap="round" stroke-linejoin="round"/>
<path d="M42.2723 116.867C42.7579 117.875 42.7932 118.857 42.3487 119.063C41.9054 119.268 41.1517 118.619 40.6661 117.612C40.1805 116.606 40.1452 115.623 40.5897 115.416C41.033 115.211 41.7867 115.86 42.2723 116.867Z" fill="#263238"/>
<path d="M51.2313 110.958C51.7169 111.965 51.7522 112.947 51.3077 113.153C50.8644 113.359 50.1107 112.71 49.6251 111.704C49.1394 110.696 49.1042 109.714 49.5486 109.508C49.9908 109.302 50.7445 109.951 51.2313 110.958Z" fill="#263238"/>
<path d="M39.6389 111.068C39.6389 111.068 35.9314 111.078 35.0425 115.485" stroke="#263238" stroke-miterlimit="10" stroke-linecap="round" stroke-linejoin="round"/>
<path d="M46.2603 107.164C46.2603 107.164 47.5913 104.245 50.0618 105.971" stroke="#263238" stroke-miterlimit="10" stroke-linecap="round" stroke-linejoin="round"/>
<path d="M22.0567 121.502C22.2707 121.656 33.3754 115.877 34.6711 99.5018C34.6711 99.5018 41.0419 104.269 51.414 100.299C51.414 100.299 42.8832 83.0668 30.3864 85.4433C17.8895 87.8198 7.00121 95.9163 6.57555 110.262C6.27336 120.466 8.46395 130.618 8.55567 140.824C8.6027 145.99 8.25818 151.241 6.6802 156.2C4.03573 164.513 -1.94226 170.077 0.628138 179.47C2.52948 186.416 8.81083 194.454 16.3927 193.486C19.5874 193.078 26.92 191.249 28.1429 189.806C25.5772 186.063 24.4507 182.629 24.3519 181.267C23.7417 172.835 25.7336 169.616 25.7336 169.616L45.6359 147.094L40.1012 138.582L24.9516 129.932C24.9516 129.932 18.6726 130.637 15.2239 123.011C14.5807 118.485 22.0567 121.502 22.0567 121.502Z" fill="#263238"/>
<path d="M68.9396 196.796C68.9396 196.796 53.7866 185.439 47.0913 172.836" stroke="#263238" stroke-miterlimit="10" stroke-linecap="round" stroke-linejoin="round"/>
<path d="M77.6447 192.094C77.2402 191.034 75.6657 190.929 74.6686 191.501C73.6715 192.072 73.0048 193.063 72.0959 193.762C71.4198 194.282 70.6049 194.642 70.0487 195.285C69.4373 195.993 69.2233 196.943 69.0646 197.857C68.392 201.72 68.3391 205.687 68.8999 209.568" stroke="#263238" stroke-miterlimit="10" stroke-linecap="round" stroke-linejoin="round"/>
<path d="M64.311 209.566C64.6332 206.561 65.3905 203.601 66.5522 200.803" stroke="#263238" stroke-miterlimit="10" stroke-linecap="round" stroke-linejoin="round"/>
<path d="M83.8834 212.927C85.1956 213.995 85.2215 216.24 83.9363 217.338C83.4519 217.752 82.8451 218 82.3054 218.343C80.6428 219.404 79.7327 221.3 78.217 222.555C76.1264 224.287 72.6282 224.429 70.7904 222.439C69.2441 220.765 68.8596 217.206 68.9396 214.949" stroke="#263238" stroke-miterlimit="10" stroke-linecap="round" stroke-linejoin="round"/>
<path d="M69.8906 222.532C60.0276 223.676 28.1447 189.804 28.1447 189.804C23.3837 184.088 23.2896 175.289 26.8406 168.751C30.24 162.492 36.9482 158.573 40.8755 152.618" stroke="#263238" stroke-miterlimit="10" stroke-linecap="round" stroke-linejoin="round"/>
<path d="M40.9497 139.301C43.7847 142.876 45.9588 146.2 47.0911 150.59" stroke="#263238" stroke-miterlimit="10" stroke-linecap="round" stroke-linejoin="round"/>
<path d="M58.1498 129.374C58.1169 134.117 60.1887 138.106 63.6575 141.471" stroke="#263238" stroke-miterlimit="10" stroke-linecap="round" stroke-linejoin="round"/>
<path d="M42.839 149.185C40.4932 151.577 41.4797 156.55 44.4299 158.177C47.5565 159.903 51.5402 158.372 55.0266 159.203C55.5028 159.316 55.9861 159.485 56.333 159.823C56.9526 160.427 56.9808 161.381 57.002 162.238C57.0467 164.045 57.3677 166.086 58.881 167.117C59.8099 167.75 60.994 167.856 62.0958 168.109C68.1067 169.484 72.1469 173.091 75.2076 178.345" stroke="#263238" stroke-miterlimit="10" stroke-linecap="round" stroke-linejoin="round"/>
<path d="M46.3291 150.894C60.1017 156.262 71.3263 167.593 76.3966 181.244" stroke="#263238" stroke-miterlimit="10" stroke-linecap="round" stroke-linejoin="round"/>
<path d="M33.9141 195.881C37.4051 207.074 50.2888 212.542 54.2797 223.574C55.2944 226.379 55.7165 229.456 57.4333 231.911C59.6274 235.049 63.4865 236.56 67.1199 237.902C69.5915 238.815 72.4511 240.859 74.9228 241.772" stroke="#263238" stroke-miterlimit="10" stroke-linecap="round" stroke-linejoin="round"/>
<path d="M86.4715 242.324C83.372 241.938 80.9627 239.546 79.0331 237.137C77.1048 234.729 75.274 232.062 72.4849 230.68" stroke="#263238" stroke-miterlimit="10" stroke-linecap="round" stroke-linejoin="round"/>
<path d="M61.6035 139.19C65.9436 139.974 69.7968 139.635 73.9263 138.108" stroke="#263238" stroke-miterlimit="10" stroke-linecap="round" stroke-linejoin="round"/>
<path d="M66.3779 139.659C69.7608 149.764 73.2837 162.077 72.5147 172.836" stroke="#263238" stroke-miterlimit="10" stroke-linecap="round" stroke-linejoin="round"/>
<path d="M75.2085 194.053C75.2085 194.053 75.6765 207.864 81.8508 213.775C81.8508 213.775 97.0862 198.984 103.583 189.84C110.079 180.696 117.321 169.845 119.44 162.255C121.559 154.666 116.161 152.619 116.161 152.619C116.161 152.619 114.542 148.306 112.884 148.796C111.226 149.285 108.474 157.195 108.474 157.195C108.474 157.195 106.749 153.117 103.331 159.07C99.913 165.021 98.2738 167.738 100.633 173.149L87.2044 185.99L75.2085 194.053Z" fill="white"/>
<path d="M106.571 162.178C106.571 162.178 109.472 154.317 106.571 156.013C103.67 157.711 100.939 162.345 99.9159 165.021C98.8917 167.698 100.636 173.149 100.636 173.149C93.3794 182.632 82.0101 189.962 75.2114 194.053" stroke="#263238" stroke-miterlimit="10" stroke-linecap="round" stroke-linejoin="round"/>
<path d="M106.935 161.108C106.935 161.108 111.007 150.134 112.885 148.796C114.763 147.457 114.762 151.806 114.762 151.806C114.762 151.806 117.662 153.169 118.175 154.829C118.687 156.489 120.052 157.721 119.711 161.119C119.37 164.518 110.679 179.575 110.679 179.575C107.838 185.491 93.2824 203.058 81.8521 213.775" stroke="#263238" stroke-miterlimit="10" stroke-linecap="round" stroke-linejoin="round"/>
<path d="M114.763 151.806C114.763 151.806 114.083 156.769 113.516 158.295" stroke="#263238" stroke-miterlimit="10" stroke-linecap="round" stroke-linejoin="round"/>
<path d="M75.5678 193.682C74.9705 194.069 74.9058 194.889 74.9246 195.591C75.1292 202.848 77.9853 210.006 82.8592 215.471" stroke="#263238" stroke-miterlimit="10" stroke-linecap="round" stroke-linejoin="round"/>
<path opacity="0.2" d="M13.6447 124.9C15.9082 133.042 16.6196 141.596 15.7306 149.989C15.0451 156.467 13.4166 162.884 13.6365 169.394C13.8563 175.903 16.348 182.822 21.9838 186.272" stroke="white" stroke-miterlimit="10" stroke-linecap="round" stroke-linejoin="round"/>
<path opacity="0.2" d="M18.9565 115.555C22.5958 109.269 25.7047 102.688 28.2433 95.9031" stroke="white" stroke-miterlimit="10" stroke-linecap="round" stroke-linejoin="round"/>
<path opacity="0.2" d="M14.7725 114.449C17.645 107.709 17.0371 99.9977 19.3747 93.063" stroke="white" stroke-miterlimit="10" stroke-linecap="round" stroke-linejoin="round"/>
<path d="M43.2842 139.392C43.2842 139.392 51.1423 143.026 55.0991 141.473C59.0558 139.919 57.3919 131.291 57.3919 131.291C57.3919 131.291 53.4341 141.006 43.2842 139.392Z" fill="#263238"/>
</svg>
