<svg width="622" height="463" viewBox="0 0 622 463" fill="none" xmlns="http://www.w3.org/2000/svg">
<path d="M621.376 406.877H0V407.188H621.376V406.877Z" fill="#E6E6E6"/>
<path d="M141.5 416.844H98.749V417.155H141.5V416.844Z" fill="#E6E6E6"/>
<path d="M162.465 416.844H149.689V417.155H162.465V416.844Z" fill="#E6E6E6"/>
<path d="M225.498 410.742H201.438V411.053H225.498V410.742Z" fill="#E6E6E6"/>
<path d="M535.143 423.741H481.468V424.052H535.143V423.741Z" fill="#E6E6E6"/>
<path d="M554.081 423.741H546.214V424.052H554.081V423.741Z" fill="#E6E6E6"/>
<path d="M495.05 412.83H378.629V413.141H495.05V412.83Z" fill="#E6E6E6"/>
<path d="M294.533 351.451H54.57C52.6902 351.447 50.8884 350.698 49.5603 349.368C48.2322 348.037 47.4863 346.234 47.4863 344.354V7.03398C47.5027 5.16491 48.2558 3.37778 49.5822 2.06076C50.9085 0.743736 52.7009 0.00320181 54.57 0H294.533C296.415 0 298.22 0.747625 299.551 2.07841C300.882 3.40919 301.629 5.21411 301.629 7.09612V344.354C301.629 346.236 300.882 348.041 299.551 349.372C298.22 350.703 296.415 351.451 294.533 351.451ZM54.57 0.248552C52.7726 0.251844 51.0499 0.968186 49.78 2.24034C48.5102 3.5125 47.797 5.23652 47.797 7.03398V344.354C47.797 346.152 48.5102 347.876 49.78 349.148C51.0499 350.42 52.7726 351.137 54.57 351.14H294.533C296.332 351.137 298.056 350.421 299.328 349.149C300.599 347.877 301.315 346.153 301.319 344.354V7.03398C301.315 5.23538 300.599 3.51139 299.328 2.23959C298.056 0.967782 296.332 0.251837 294.533 0.248552H54.57Z" fill="#E6E6E6"/>
<path d="M563.353 351.451H323.378C321.497 351.447 319.694 350.699 318.364 349.369C317.034 348.038 316.285 346.235 316.282 344.354V7.03398C316.301 5.16378 317.057 3.37666 318.386 2.05998C319.714 0.743301 321.508 0.0031669 323.378 0H563.353C565.22 0.0064679 567.01 0.748447 568.333 2.06512C569.657 3.38179 570.408 5.16706 570.425 7.03398V344.354C570.425 346.232 569.681 348.033 568.355 349.363C567.03 350.693 565.231 351.444 563.353 351.451ZM323.378 0.248552C321.579 0.251837 319.855 0.967782 318.583 2.23959C317.312 3.51139 316.596 5.23538 316.592 7.03398V344.354C316.596 346.153 317.312 347.877 318.583 349.149C319.855 350.421 321.579 351.137 323.378 351.14H563.353C565.152 351.137 566.876 350.421 568.148 349.149C569.42 347.877 570.136 346.153 570.139 344.354V7.03398C570.136 5.23538 569.42 3.51139 568.148 2.23959C566.876 0.967782 565.152 0.251837 563.353 0.248552H323.378Z" fill="#E6E6E6"/>
<path d="M520.738 237.502H433.658V406.877H520.738V237.502Z" fill="#F5F5F5"/>
<path d="M520.739 237.502H513.556V406.877H520.739V237.502Z" fill="#F0F0F0"/>
<path d="M239.875 278.923H440.369V242.337L239.875 242.337V278.923Z" fill="#E0E0E0"/>
<path d="M323.477 407.002H237.516C237.186 407.002 236.87 406.871 236.637 406.638C236.404 406.405 236.273 406.088 236.273 405.759C236.273 405.429 236.404 405.113 236.637 404.88C236.87 404.647 237.186 404.516 237.516 404.516H323.477C335.904 404.516 337.557 400.887 337.557 386.496V205.054C337.557 204.725 337.688 204.409 337.921 204.176C338.154 203.942 338.47 203.812 338.8 203.812C339.13 203.812 339.446 203.942 339.679 204.176C339.912 204.409 340.043 204.725 340.043 205.054V386.496C340.043 401.881 337.657 407.002 323.477 407.002Z" fill="#E0E0E0"/>
<path d="M247.582 250.862L518.775 250.862V238.161L247.582 238.161V250.862Z" fill="#F0F0F0"/>
<path d="M249.545 237.502H162.465V406.877H249.545V237.502Z" fill="#F5F5F5"/>
<path d="M249.533 237.502H242.35V406.877H249.533V237.502Z" fill="#F0F0F0"/>
<path d="M187.879 406.877L187.879 105.261H113.152L113.152 406.877H187.879Z" fill="#FAFAFA"/>
<path d="M183.779 180.597V114.072H117.255V180.597H183.779Z" fill="#F5F5F5"/>
<path d="M135.784 113.178H165.287C165.287 115.007 164.56 116.761 163.267 118.055C161.973 119.348 160.219 120.075 158.39 120.075H142.731C141.821 120.082 140.919 119.908 140.076 119.564C139.234 119.221 138.468 118.714 137.822 118.072C137.176 117.431 136.664 116.669 136.314 115.829C135.964 114.989 135.784 114.088 135.784 113.178Z" fill="#E0E0E0"/>
<path d="M183.766 253.087V186.562H117.242V253.087H183.766Z" fill="#F5F5F5"/>
<path d="M183.779 325.576V259.052H117.255V325.576H183.779Z" fill="#F5F5F5"/>
<path d="M183.779 398.078V331.554H117.255V398.078H183.779Z" fill="#F5F5F5"/>
<path d="M135.784 185.68H165.287C165.284 187.508 164.556 189.26 163.263 190.553C161.971 191.846 160.218 192.574 158.39 192.577H142.731C141.822 192.582 140.92 192.407 140.078 192.063C139.237 191.719 138.471 191.212 137.826 190.571C137.18 189.93 136.668 189.168 136.317 188.329C135.967 187.489 135.786 186.589 135.784 185.68Z" fill="#E0E0E0"/>
<path d="M135.784 258.169H165.287C165.287 259.999 164.56 261.753 163.267 263.047C161.973 264.34 160.219 265.067 158.39 265.067H142.731C141.821 265.073 140.919 264.9 140.076 264.556C139.234 264.212 138.468 263.705 137.822 263.064C137.176 262.423 136.664 261.661 136.314 260.82C135.964 259.98 135.784 259.079 135.784 258.169Z" fill="#E0E0E0"/>
<path d="M135.784 330.659H165.287C165.287 332.488 164.56 334.243 163.267 335.536C161.973 336.83 160.219 337.556 158.39 337.556H142.731C141.821 337.563 140.919 337.389 140.076 337.046C139.234 336.702 138.468 336.195 137.822 335.554C137.176 334.913 136.664 334.15 136.314 333.31C135.964 332.47 135.784 331.569 135.784 330.659Z" fill="#E0E0E0"/>
<path d="M113.153 406.877L113.153 105.261H75.833L75.833 406.877H113.153Z" fill="#F0F0F0"/>
<path d="M328.57 237.502H309.792L314.353 200.94H333.144L328.57 237.502Z" fill="#F0F0F0"/>
<path d="M332.735 237.502H313.945L318.518 200.94H337.296L332.735 237.502Z" fill="#F5F5F5"/>
<path d="M373.025 237.503H359.442L356.844 233.364H370.415L373.025 237.503Z" fill="#F0F0F0"/>
<path d="M445.801 237.503H363.592L360.995 233.364H434.715L445.801 237.503Z" fill="#FAFAFA"/>
<path d="M269.007 227.014H274.948C277.73 227.014 280.397 228.119 282.364 230.086C284.331 232.053 285.437 234.721 285.437 237.503H258.494C258.494 236.123 258.766 234.757 259.294 233.483C259.823 232.209 260.598 231.051 261.575 230.077C262.551 229.103 263.71 228.331 264.986 227.805C266.261 227.279 267.628 227.01 269.007 227.014Z" fill="#F0F0F0"/>
<path d="M335.008 219.221H316.23L318.517 200.94H337.295L335.008 219.221Z" fill="#F0F0F0"/>
<path d="M265.95 214.847H398.925C399.187 214.848 399.445 214.792 399.684 214.684C399.922 214.577 400.135 214.42 400.308 214.223C400.481 214.027 400.61 213.796 400.687 213.545C400.763 213.295 400.785 213.031 400.752 212.772L390.511 130.849C390.457 130.404 390.241 129.993 389.904 129.695C389.568 129.398 389.134 129.234 388.685 129.234H255.747C255.487 129.234 255.229 129.289 254.992 129.396C254.754 129.503 254.542 129.659 254.369 129.854C254.196 130.049 254.067 130.278 253.99 130.527C253.912 130.776 253.889 131.038 253.92 131.297L264.161 213.232C264.214 213.671 264.425 214.077 264.754 214.373C265.083 214.67 265.507 214.838 265.95 214.847Z" fill="#F0F0F0"/>
<path d="M267.963 214.847H400.851C401.112 214.848 401.371 214.792 401.61 214.684C401.848 214.577 402.061 214.42 402.234 214.223C402.407 214.027 402.536 213.796 402.612 213.545C402.689 213.295 402.711 213.031 402.677 212.772L392.437 130.849C392.38 130.405 392.163 129.996 391.827 129.698C391.491 129.401 391.059 129.236 390.61 129.234H257.723C257.462 129.234 257.205 129.289 256.967 129.396C256.73 129.503 256.517 129.659 256.345 129.854C256.172 130.049 256.043 130.278 255.965 130.527C255.888 130.776 255.864 131.038 255.896 131.297L266.136 213.232C266.191 213.677 266.407 214.088 266.743 214.386C267.08 214.683 267.514 214.847 267.963 214.847Z" fill="#F5F5F5"/>
<path d="M398.389 210.311L388.808 133.633C388.79 133.508 388.727 133.394 388.631 133.312C388.535 133.229 388.412 133.185 388.286 133.186H260.692C260.619 133.183 260.547 133.197 260.479 133.225C260.412 133.254 260.352 133.297 260.303 133.352C260.255 133.406 260.219 133.471 260.198 133.541C260.177 133.611 260.172 133.685 260.183 133.758L269.765 210.448C269.78 210.572 269.84 210.686 269.934 210.769C270.028 210.851 270.149 210.896 270.274 210.895H397.88C397.953 210.894 398.025 210.877 398.091 210.847C398.157 210.816 398.217 210.772 398.265 210.716C398.313 210.661 398.349 210.597 398.37 210.527C398.392 210.457 398.398 210.384 398.389 210.311Z" fill="#E0E0E0"/>
<path d="M349.822 237.502H319.226V237.117C319.226 236.31 319.546 235.535 320.117 234.964C320.688 234.393 321.463 234.072 322.27 234.072H346.778C347.585 234.072 348.359 234.393 348.93 234.964C349.501 235.535 349.822 236.31 349.822 237.117V237.502Z" fill="#FAFAFA"/>
<path d="M322.793 237.502H302.039V237.117C302.039 236.31 302.36 235.535 302.931 234.964C303.502 234.393 304.277 234.072 305.084 234.072H319.749C320.556 234.072 321.331 234.393 321.902 234.964C322.473 235.535 322.793 236.31 322.793 237.117V237.502Z" fill="#F0F0F0"/>
<path d="M144.731 71.1973V71.1352C145.017 70.1783 145.291 69.2089 145.527 68.2396C145.948 68.9096 146.52 69.4713 147.198 69.8793C147.876 70.2874 148.64 70.5302 149.429 70.5884H149.765C151.84 70.3895 153.828 68.3763 155.084 65.2073C155.108 65.1503 155.12 65.089 155.12 65.0271C155.12 64.9651 155.108 64.9038 155.084 64.8469C155.023 64.7334 154.921 64.6484 154.798 64.6107C153.308 64.2332 151.756 64.1742 150.242 64.4376C148.728 64.701 147.286 65.2808 146.011 66.1393C146.198 65.2197 146.359 64.2876 146.496 63.368C146.824 63.4312 147.157 63.4645 147.49 63.4674C150.871 63.4674 153.356 60.4475 153.48 60.2984C153.524 60.2436 153.555 60.1793 153.569 60.1107C153.583 60.0421 153.581 59.971 153.563 59.9033C153.545 59.8356 153.511 59.7731 153.464 59.7208C153.418 59.6685 153.359 59.628 153.294 59.6024C152.509 59.2126 151.65 58.9933 150.774 58.9591C149.898 58.9248 149.024 59.0763 148.211 59.4036C147.343 59.8451 146.641 60.5558 146.21 61.4293C145.577 59.4846 144.419 57.7525 142.865 56.4236C141.31 55.0948 139.419 54.2209 137.399 53.8982C137.337 53.8834 137.271 53.8835 137.209 53.8987C137.146 53.9138 137.088 53.9434 137.039 53.9852C136.987 54.0218 136.944 54.0701 136.914 54.1262C136.883 54.1823 136.867 54.2446 136.865 54.3083C136.691 57.3779 136.79 61.1435 139.089 62.933C140.051 63.6422 141.226 64.0017 142.42 63.9521C143.489 63.9263 144.551 63.7592 145.577 63.455C145.248 65.676 144.771 67.8723 144.147 70.0291C141.898 66.9647 138.708 64.7211 135.063 63.6414C134.948 63.6146 134.827 63.6332 134.725 63.6934C134.623 63.7535 134.548 63.8507 134.516 63.9645C133.82 66.6116 134.18 68.7615 135.548 70.1783C136.243 70.8028 137.057 71.2809 137.94 71.5841C138.824 71.8873 139.76 72.0093 140.693 71.943C141.694 71.9366 142.693 71.8326 143.675 71.6323C143.103 73.4467 142.432 75.2238 141.799 76.914C140.419 75.6712 136.355 72.5892 131.931 73.8817C131.812 73.921 131.714 74.006 131.658 74.1178C131.633 74.1748 131.621 74.2361 131.621 74.298C131.621 74.3599 131.633 74.4212 131.658 74.4782C132.9 77.4111 134.23 79.0391 135.945 79.5983C136.402 79.749 136.881 79.8246 137.362 79.822C138.675 79.7662 139.955 79.3908 141.09 78.7284C140.146 80.9778 139.139 83.078 138.182 84.9422C137.046 83.7839 135.619 82.9533 134.051 82.5377C132.483 82.1222 130.832 82.1371 129.272 82.5809C129.165 82.602 129.07 82.6622 129.006 82.7496C128.942 82.837 128.912 82.9453 128.924 83.0532C129.034 83.9931 129.389 84.8875 129.954 85.6466C130.519 86.4057 131.274 87.0028 132.142 87.378C132.798 87.6598 133.504 87.8037 134.218 87.8005C135.208 87.7881 136.18 87.5365 137.051 87.0673C136.082 88.8693 135.187 90.373 134.491 91.5163H126.04C124.698 89.2172 123.145 86.3589 121.629 83.1526C122.335 83.3634 123.067 83.4763 123.804 83.4882C124.71 83.4994 125.606 83.3018 126.424 82.9107C127.242 82.5197 127.958 81.9455 128.518 81.2329C129.078 80.5203 129.467 79.6883 129.653 78.8014C129.84 77.9145 129.82 76.9965 129.595 76.1186C129.566 76.0167 129.5 75.9288 129.411 75.8716C129.322 75.8144 129.215 75.7918 129.11 75.8079C127.384 75.9762 125.724 76.5576 124.271 77.5029C122.817 78.4482 121.613 79.7296 120.759 81.2388C119.765 79.0018 118.795 76.6282 117.95 74.1799C119.026 74.792 120.231 75.1411 121.467 75.199C121.958 75.2046 122.446 75.1247 122.909 74.9629C125.394 74.1427 126.823 71.1476 128.041 68.0407C128.069 67.9846 128.083 67.923 128.083 67.8605C128.083 67.7981 128.069 67.7364 128.041 67.6803C128.013 67.6233 127.972 67.5728 127.923 67.5322C127.874 67.4915 127.817 67.4616 127.755 67.4442C122.784 66.0523 118.696 70.8369 117.428 72.5519C116.765 70.4826 116.214 68.3794 115.775 66.2512C116.82 66.4556 117.88 66.5637 118.944 66.5743C120.002 66.6516 121.064 66.5105 122.064 66.1599C123.065 65.8093 123.983 65.2566 124.76 64.5362C126.264 62.9454 126.625 60.5594 125.817 57.6513C125.802 57.5943 125.777 57.5408 125.741 57.494C125.706 57.4472 125.661 57.4081 125.61 57.3791C125.559 57.35 125.502 57.3317 125.444 57.3251C125.385 57.3184 125.326 57.3237 125.27 57.3406C121.304 58.5782 117.852 61.079 115.44 64.4616L115.253 63.3307C115.24 63.2329 115.197 63.1416 115.129 63.0697C114.924 62.3344 114.567 61.6503 114.081 61.0616C113.595 60.4729 112.991 59.9928 112.308 59.6522C111.412 59.3063 110.452 59.154 109.492 59.2054C108.533 59.2568 107.595 59.5107 106.741 59.9504C106.675 59.9788 106.616 60.0214 106.569 60.0751C106.522 60.1288 106.487 60.1923 106.467 60.2611C106.452 60.3286 106.453 60.3988 106.47 60.4658C106.487 60.5328 106.52 60.5947 106.567 60.6464C106.691 60.8079 109.425 64.0391 113.103 64.0391C113.5 64.034 113.895 63.9924 114.284 63.9148C114.446 64.9711 114.644 66.0275 114.868 67.0714C113.451 66.1384 111.852 65.5165 110.177 65.2466C108.502 64.9767 106.788 65.0649 105.15 65.5055C105.027 65.5432 104.924 65.6282 104.864 65.7416C104.839 65.8007 104.827 65.8641 104.827 65.9281C104.827 65.992 104.839 66.0554 104.864 66.1145C106.293 69.5693 108.505 71.7566 110.792 71.943H111.103C112.258 71.943 113.824 71.4086 115.415 69.2835C116.041 71.6999 116.796 74.081 117.677 76.4169C115.527 75.3978 110.692 73.6456 107.238 76.3175C107.19 76.3518 107.15 76.3954 107.12 76.4456C107.09 76.4958 107.07 76.5516 107.062 76.6096C107.054 76.6677 107.057 76.7267 107.073 76.7833C107.088 76.8399 107.114 76.8928 107.151 76.9389C109.388 79.9836 111.451 81.4625 113.476 81.4625C115.154 81.4625 116.757 80.4061 118.36 78.3183C119.28 80.605 120.274 82.7922 121.256 84.8055C119.106 83.4757 116.745 83.687 113.961 85.4393C113.896 85.4779 113.843 85.5325 113.806 85.5979C113.769 85.6632 113.75 85.737 113.75 85.8121C113.745 85.8852 113.759 85.9584 113.792 86.024C113.825 86.0895 113.874 86.1451 113.936 86.1849C115.594 87.38 117.552 88.09 119.591 88.2355C120.642 88.2564 121.674 87.9431 122.536 87.3407C123.331 88.8693 124.114 90.2736 124.835 91.5288H120.995V93.716H122.387L123.543 105.298H140.556L141.699 93.716H143.103V91.5288H135.461C136.306 90.1244 137.387 88.2479 138.543 86.0482C138.577 86.004 138.602 85.9533 138.617 85.8991C138.915 85.3399 139.201 84.7682 139.499 84.1717C140.005 84.9364 140.686 85.569 141.486 86.0165C142.286 86.4641 143.182 86.7136 144.098 86.7442C144.288 86.7565 144.479 86.7565 144.669 86.7442C145.682 86.6294 146.643 86.2366 147.445 85.6093C148.248 84.9819 148.862 84.1445 149.218 83.1899C149.255 83.0918 149.255 82.9838 149.218 82.8856C149.182 82.7874 149.111 82.7057 149.019 82.6555C147.716 81.9194 146.256 81.504 144.761 81.4435C143.266 81.383 141.777 81.6791 140.419 82.3075C141.065 80.9529 141.662 79.4989 142.308 77.9952C142.357 77.9394 142.387 77.87 142.395 77.7963C142.569 77.3738 142.731 76.9513 142.905 76.5536C144.383 78.4177 145.85 79.3374 147.379 79.3374C149.23 79.3374 151.107 77.9703 153.12 75.1493C153.19 75.055 153.22 74.937 153.204 74.8208C153.187 74.7046 153.126 74.5994 153.033 74.5279C149.864 72.1542 145.577 73.7822 143.563 74.7267C143.973 73.6083 144.346 72.4774 144.694 71.3216L144.731 71.1973Z" fill="#E0E0E0"/>
<path d="M500.171 65.9531H436.616V135.734H500.171V65.9531Z" fill="#E0E0E0"/>
<path d="M492.329 68.8112C492.276 68.8239 492.22 68.8239 492.167 68.8112C492.018 68.7118 477.006 59.7889 472.283 59.7889C467.561 59.7889 453.207 68.7118 453.058 68.7988C453.024 68.8212 452.986 68.8365 452.946 68.8436C452.906 68.8507 452.865 68.8496 452.825 68.8403C452.786 68.831 452.748 68.8137 452.716 68.7894C452.683 68.7652 452.656 68.7346 452.635 68.6994C452.594 68.6299 452.581 68.5468 452.599 68.4679C452.618 68.3889 452.666 68.3204 452.735 68.2769C453.331 67.904 467.337 59.1675 472.283 59.1675C477.229 59.1675 491.919 67.8668 492.54 68.2769C492.575 68.2972 492.606 68.3246 492.63 68.3572C492.654 68.3898 492.672 68.4271 492.681 68.4667C492.69 68.5062 492.692 68.5473 492.684 68.5873C492.677 68.6273 492.662 68.6655 492.64 68.6994C492.605 68.7466 492.556 68.7823 492.501 68.8022C492.446 68.8221 492.386 68.8253 492.329 68.8112Z" fill="#EBEBEB"/>
<path d="M507.044 65.9531H441.401V135.734H507.044V65.9531Z" fill="#F5F5F5"/>
<path d="M501.55 130.228V71.4458H446.906V130.228H501.55Z" fill="white"/>
<path d="M484.811 111.427C490.659 105.579 490.659 96.097 484.811 90.2488C478.963 84.4007 469.481 84.4007 463.633 90.2489C457.785 96.097 457.785 105.579 463.633 111.427C469.481 117.275 478.963 117.275 484.811 111.427Z" fill="#E0E0E0"/>
<path d="M472.955 322.184H528.655C533.766 322.188 538.674 320.187 542.325 316.61C545.976 313.034 548.078 308.167 548.179 303.058L550.267 201.077C550.305 199.185 549.965 197.304 549.267 195.544C548.569 193.785 547.527 192.182 546.201 190.83C544.876 189.479 543.295 188.405 541.549 187.672C539.804 186.939 537.93 186.562 536.037 186.562H501.116C497.622 186.561 494.251 187.847 491.644 190.173C489.038 192.5 487.38 195.705 486.986 199.176L472.955 322.184Z" fill="#E6E6E6"/>
<path d="M503.353 322.184H443.999C443.26 322.184 442.552 321.89 442.03 321.368C441.508 320.846 441.215 320.138 441.215 319.4V319.139C441.215 317.115 442.019 315.174 443.45 313.743C444.881 312.312 446.822 311.508 448.845 311.508H503.353V322.184Z" fill="#E6E6E6"/>
<path d="M498.667 408.269C498.378 408.275 498.096 408.181 497.869 408.002C497.642 407.822 497.485 407.57 497.424 407.287L480.026 323.426H449.702L432.304 407.287C432.236 407.617 432.041 407.906 431.76 408.091C431.479 408.277 431.136 408.343 430.806 408.275C430.477 408.208 430.187 408.012 430.002 407.731C429.817 407.45 429.751 407.107 429.818 406.778L447.441 321.935C447.499 321.65 447.655 321.394 447.882 321.213C448.109 321.031 448.393 320.935 448.683 320.941H480.995C481.286 320.935 481.569 321.031 481.796 321.213C482.023 321.394 482.18 321.65 482.238 321.935L499.847 406.778C499.914 407.099 499.85 407.433 499.671 407.708C499.492 407.983 499.211 408.175 498.891 408.244C498.817 408.261 498.742 408.27 498.667 408.269Z" fill="#E6E6E6"/>
<path d="M479.765 408.269C479.683 408.281 479.599 408.281 479.517 408.269C479.357 408.236 479.205 408.173 479.07 408.081C478.934 407.99 478.819 407.873 478.728 407.737C478.638 407.6 478.576 407.448 478.545 407.288C478.514 407.127 478.515 406.962 478.548 406.803L496.17 321.96C496.228 321.675 496.384 321.419 496.611 321.238C496.838 321.056 497.122 320.96 497.413 320.966H529.724C530.015 320.96 530.299 321.056 530.526 321.238C530.753 321.419 530.909 321.675 530.967 321.96L548.577 406.803C548.61 406.966 548.611 407.134 548.58 407.298C548.548 407.461 548.485 407.617 548.393 407.756C548.301 407.895 548.183 408.015 548.045 408.108C547.907 408.201 547.752 408.267 547.589 408.3C547.426 408.334 547.257 408.335 547.094 408.303C546.93 408.271 546.774 408.208 546.635 408.116C546.496 408.024 546.377 407.906 546.283 407.768C546.19 407.63 546.125 407.475 546.091 407.312L528.693 323.451H498.345L480.946 407.312C480.883 407.58 480.733 407.819 480.519 407.992C480.305 408.165 480.04 408.263 479.765 408.269Z" fill="#E6E6E6"/>
<path d="M310.688 463C443.765 463 551.646 456.702 551.646 448.932C551.646 441.163 443.765 434.864 310.688 434.864C177.611 434.864 69.731 441.163 69.731 448.932C69.731 456.702 177.611 463 310.688 463Z" fill="#F5F5F5"/>
<path d="M331.951 437.449C331.561 437.448 331.184 437.313 330.883 437.066C330.582 436.819 330.375 436.476 330.298 436.095L306.686 319.823H265.563L241.951 436.095C241.838 436.509 241.572 436.865 241.207 437.09C240.841 437.315 240.404 437.393 239.983 437.308C239.563 437.222 239.19 436.98 238.942 436.63C238.693 436.28 238.587 435.849 238.645 435.424L262.531 317.797C262.61 317.416 262.817 317.074 263.118 316.828C263.419 316.582 263.795 316.446 264.183 316.442H308.053C308.442 316.443 308.819 316.578 309.12 316.825C309.421 317.072 309.628 317.415 309.705 317.797L333.604 435.424C333.692 435.862 333.602 436.317 333.356 436.69C333.109 437.062 332.724 437.322 332.286 437.412L331.951 437.449Z" fill="#16B99B"/>
<path d="M265.948 437.449C265.559 437.446 265.183 437.31 264.883 437.064C264.582 436.817 264.375 436.475 264.295 436.095L240.683 319.823H199.56L175.948 436.095C175.917 436.324 175.839 436.544 175.719 436.742C175.599 436.94 175.44 437.111 175.252 437.245C175.063 437.378 174.849 437.472 174.623 437.52C174.397 437.568 174.163 437.569 173.937 437.523C173.71 437.477 173.496 437.385 173.306 437.253C173.116 437.12 172.956 436.951 172.835 436.754C172.713 436.557 172.634 436.337 172.6 436.109C172.567 435.88 172.582 435.647 172.642 435.424L196.54 317.797C196.618 317.415 196.824 317.072 197.125 316.825C197.427 316.578 197.804 316.443 198.193 316.442H242.062C242.45 316.444 242.826 316.579 243.125 316.826C243.424 317.073 243.628 317.416 243.703 317.797L267.601 435.424C267.689 435.862 267.6 436.317 267.353 436.69C267.106 437.062 266.721 437.322 266.284 437.412L265.948 437.449Z" fill="#16B99B"/>
<path d="M275.183 318.145H199.623C192.688 318.146 186.028 315.428 181.074 310.574C176.121 305.721 173.268 299.118 173.128 292.184L170.319 177.353C170.266 174.787 170.726 172.235 171.671 169.848C172.617 167.461 174.029 165.287 175.825 163.453C177.621 161.619 179.765 160.161 182.132 159.166C184.498 158.17 187.039 157.657 189.607 157.656H236.98C241.721 157.659 246.296 159.406 249.832 162.564C253.368 165.722 255.619 170.07 256.156 174.781L275.183 318.145Z" fill="#16B99B"/>
<path d="M233.973 303.604H307.917C310.663 303.604 313.296 304.695 315.237 306.637C317.178 308.578 318.269 311.211 318.269 313.957V314.317C318.269 315.306 317.876 316.254 317.177 316.953C316.478 317.653 315.53 318.045 314.541 318.045H233.973V303.604Z" fill="#16B99B"/>
<g opacity="0.3">
<path d="M331.951 437.449C331.561 437.448 331.184 437.313 330.883 437.066C330.582 436.819 330.375 436.476 330.298 436.095L306.686 319.823H265.563L241.951 436.095C241.838 436.509 241.572 436.865 241.207 437.09C240.841 437.315 240.404 437.393 239.983 437.308C239.563 437.222 239.19 436.98 238.942 436.63C238.693 436.28 238.587 435.849 238.645 435.424L262.531 317.797C262.61 317.416 262.817 317.074 263.118 316.828C263.419 316.582 263.795 316.446 264.183 316.442H308.053C308.442 316.443 308.819 316.578 309.12 316.825C309.421 317.072 309.628 317.415 309.705 317.797L333.604 435.424C333.692 435.862 333.602 436.317 333.356 436.69C333.109 437.062 332.724 437.322 332.286 437.412L331.951 437.449Z" fill="black"/>
<path d="M265.948 437.449C265.559 437.446 265.183 437.31 264.883 437.064C264.582 436.817 264.375 436.475 264.295 436.095L240.683 319.823H199.56L175.948 436.095C175.917 436.324 175.839 436.544 175.719 436.742C175.599 436.94 175.44 437.111 175.252 437.245C175.063 437.378 174.849 437.472 174.623 437.52C174.397 437.568 174.163 437.569 173.937 437.523C173.71 437.477 173.496 437.385 173.306 437.253C173.116 437.12 172.956 436.951 172.835 436.754C172.713 436.557 172.634 436.337 172.6 436.109C172.567 435.88 172.582 435.647 172.642 435.424L196.54 317.797C196.618 317.415 196.824 317.072 197.125 316.825C197.427 316.578 197.804 316.443 198.193 316.442H242.062C242.45 316.444 242.826 316.579 243.125 316.826C243.424 317.073 243.628 317.416 243.703 317.797L267.601 435.424C267.689 435.862 267.6 436.317 267.353 436.69C267.106 437.062 266.721 437.322 266.284 437.412L265.948 437.449Z" fill="black"/>
<path d="M275.182 318.145H199.623C192.687 318.146 186.028 315.428 181.074 310.574C176.12 305.721 173.267 299.118 173.127 292.184L170.319 177.353C170.266 174.787 170.725 172.235 171.671 169.848C172.616 167.461 174.028 165.287 175.824 163.453C177.621 161.619 179.765 160.161 182.131 159.166C184.498 158.17 187.039 157.657 189.606 157.656H236.98C241.721 157.659 246.295 159.406 249.831 162.564C253.368 165.722 255.619 170.07 256.155 174.781L275.182 318.145Z" fill="black"/>
<path d="M233.973 303.605H307.916C310.662 303.605 313.295 304.696 315.237 306.637C317.178 308.578 318.269 311.212 318.269 313.957V314.318C318.269 315.306 317.876 316.255 317.177 316.954C316.477 317.653 315.529 318.046 314.54 318.046H233.973V303.605Z" fill="black"/>
</g>
<path d="M254.154 151.318C254.154 151.318 264.718 165.112 257.883 192.577C251.048 220.042 215.778 205.129 213.641 180.373C211.155 151.193 243.914 171.313 249.681 145.365L254.154 151.318Z" fill="#263238"/>
<path d="M246.487 143.128C241.901 146.359 240.087 151.057 245.157 155.655C250.228 160.253 257.461 160.104 259.648 158.215C261.835 156.326 261.4 146.732 261.4 146.732L246.487 143.128Z" fill="#16B99B"/>
<path opacity="0.8" d="M246.487 143.128C241.901 146.359 240.087 151.057 245.157 155.655C250.228 160.253 257.461 160.104 259.648 158.215C261.835 156.326 261.4 146.732 261.4 146.732L246.487 143.128Z" fill="white"/>
<path d="M304.4 204.259C304.524 204.818 304.735 205.688 304.934 206.421L305.531 208.758C305.953 210.323 306.413 211.889 306.898 213.455C307.817 216.612 308.836 219.756 309.905 222.9C310.974 226.044 312.067 229.114 313.26 232.295C313.845 233.849 314.429 235.415 315.05 236.968L315.771 238.832C315.915 239.151 316.103 239.448 316.33 239.715C318.099 241.504 320.254 242.864 322.631 243.691C325.533 244.859 328.526 245.79 331.579 246.475C334.735 247.208 337.979 247.817 341.26 248.327C344.541 248.836 347.908 249.246 351.14 249.57L351.251 256.256C344.162 256.989 337.015 256.989 329.926 256.256C326.22 255.874 322.556 255.162 318.977 254.13C317.038 253.545 315.151 252.801 313.335 251.906C311.244 250.89 309.33 249.543 307.668 247.917C306.703 246.956 305.868 245.874 305.183 244.698C304.996 244.4 304.835 244.064 304.661 243.753L304.337 243.082L303.766 241.84C302.995 240.261 302.225 238.683 301.516 237.08C300.075 233.874 298.671 230.642 297.415 227.349C296.16 224.056 294.93 220.738 293.886 217.407C293.376 215.692 292.879 213.99 292.419 212.237L291.736 209.615C291.537 208.671 291.351 207.888 291.152 206.769L304.4 204.259Z" fill="#E58A7B"/>
<path d="M300.174 190.141C305.506 191.496 309.222 213.418 309.222 213.418L294.545 223.36C294.545 223.36 280.464 201.239 284.603 195.386C288.84 189.371 292.395 188.202 300.174 190.141Z" fill="#16B99B"/>
<path opacity="0.5" d="M300.174 190.141C305.506 191.496 309.222 213.418 309.222 213.418L294.545 223.36C294.545 223.36 280.464 201.239 284.603 195.386C288.84 189.371 292.395 188.202 300.174 190.141Z" fill="white"/>
<path opacity="0.2" d="M298.26 195.659L285.497 205.775C287.983 211.92 291.006 217.834 294.532 223.447L304.71 216.525L298.26 195.659Z" fill="#16B99B"/>
<path d="M300.174 190.141C300.174 190.141 306.388 192.304 293.961 268.149H241.492C242.374 246.786 242.399 233.613 232.196 189.756C239.543 188.243 246.99 187.262 254.478 186.823C262.418 186.257 270.387 186.257 278.327 186.823C288.567 187.805 300.174 190.141 300.174 190.141Z" fill="#16B99B"/>
<path opacity="0.5" d="M300.174 190.141C300.174 190.141 306.388 192.304 293.961 268.149H241.492C242.374 246.786 242.399 233.613 232.196 189.756C239.543 188.243 246.99 187.262 254.478 186.823C262.418 186.257 270.387 186.257 278.327 186.823C288.567 187.805 300.174 190.141 300.174 190.141Z" fill="white"/>
<path d="M349.213 249.508L358.372 240.212L359.615 253.311C359.615 253.311 352.742 257.958 347.995 255.46L349.213 249.508Z" fill="#E58A7B"/>
<path d="M369.184 238.832L369.594 249.843L359.602 253.31L358.396 240.211L369.184 238.832Z" fill="#E58A7B"/>
<path d="M353.512 425.394H366.437L368.425 395.457H355.501L353.512 425.394Z" fill="#E58A7B"/>
<path d="M303.492 425.394H316.416L320.567 395.457H307.642L303.492 425.394Z" fill="#E58A7B"/>
<path d="M317.225 423.89H302.697C302.447 423.885 302.203 423.972 302.013 424.135C301.823 424.298 301.699 424.525 301.666 424.773L300.013 436.268C299.983 436.559 300.015 436.852 300.106 437.129C300.196 437.407 300.344 437.662 300.54 437.878C300.736 438.095 300.974 438.268 301.241 438.387C301.508 438.506 301.796 438.567 302.088 438.567C307.146 438.48 309.545 438.182 315.97 438.182C319.897 438.182 329.975 438.592 335.406 438.592C340.837 438.592 341.123 433.223 338.861 432.739C328.733 430.552 322.792 427.557 319.375 424.686C318.775 424.174 318.013 423.892 317.225 423.89Z" fill="#263238"/>
<path d="M367.444 423.891H352.941C352.692 423.888 352.449 423.976 352.26 424.138C352.07 424.301 351.946 424.526 351.91 424.773L350.257 436.268C350.227 436.559 350.259 436.852 350.35 437.13C350.441 437.407 350.589 437.662 350.784 437.879C350.98 438.095 351.219 438.269 351.485 438.387C351.752 438.506 352.04 438.567 352.332 438.568C357.39 438.481 359.789 438.182 366.214 438.182C370.153 438.182 378.268 438.592 383.699 438.592C389.13 438.592 389.416 433.224 387.154 432.739C377.026 430.552 373.036 427.557 369.631 424.686C369.02 424.169 368.245 423.887 367.444 423.891Z" fill="#263238"/>
<path d="M289.871 133.869C294.519 134.167 296.88 157.481 283.247 156.127C269.614 154.772 289.871 133.869 289.871 133.869Z" fill="#263238"/>
<path d="M368.426 395.457L367.395 410.892H354.47L355.489 395.457H368.426Z" fill="#CF6F64"/>
<path d="M307.643 395.457H320.58L318.43 410.892H305.493L307.643 395.457Z" fill="#CF6F64"/>
<path opacity="0.2" d="M237.44 214.139C238.683 220.502 239.565 225.995 240.236 230.941L243.306 207.192L237.44 214.139Z" fill="#16B99B"/>
<path d="M256.839 160.029C258.342 167.697 259.846 181.753 254.478 186.873C254.478 186.873 256.578 194.652 270.832 194.652C286.503 194.652 278.289 186.873 278.289 186.873C269.726 184.835 269.95 178.484 271.441 172.531L256.839 160.029Z" fill="#E58A7B"/>
<path d="M267.999 196.318L272.771 194.603L272.137 193.298L267.999 196.318Z" fill="#263238"/>
<path d="M277.258 195.324L272.771 194.603L273.741 193.149L277.258 195.324Z" fill="#263238"/>
<path d="M256.218 183.256L252.974 186.413C252.877 186.513 252.823 186.646 252.823 186.786C252.823 186.925 252.877 187.059 252.974 187.159L266.645 202.73C267.295 199.032 269.275 195.699 272.212 193.36C260.903 189.085 257.958 184.661 256.951 183.418C256.928 183.346 256.886 183.281 256.83 183.23C256.774 183.179 256.705 183.143 256.631 183.127C256.557 183.111 256.48 183.114 256.407 183.137C256.335 183.159 256.269 183.201 256.218 183.256Z" fill="#16B99B"/>
<path d="M275.753 185.643L279.78 186.736C279.9 186.77 280.01 186.834 280.097 186.924C280.185 187.013 280.247 187.124 280.277 187.246C281.415 192.353 281.2 197.669 279.656 202.668C279.084 200.556 277.17 195.498 273.74 193.149C277.468 190.576 275.965 187.258 275.43 186.003C275.413 185.956 275.409 185.906 275.418 185.857C275.427 185.808 275.45 185.762 275.483 185.725C275.516 185.688 275.559 185.661 275.607 185.646C275.654 185.632 275.705 185.63 275.753 185.643Z" fill="#16B99B"/>
<path d="M262.817 165.125L271.516 172.519C271.155 173.905 270.909 175.318 270.783 176.744C267.514 176.272 263.028 172.693 262.68 169.288C262.467 167.904 262.514 166.492 262.817 165.125Z" fill="#CF6F64"/>
<path d="M256.006 139.822C254.527 152.56 253.62 157.929 258.84 165.535C266.669 176.98 282.651 176.011 287.908 163.969C292.643 153.132 294.258 134.143 282.825 126.885C280.31 125.28 277.426 124.344 274.448 124.167C271.469 123.99 268.495 124.578 265.808 125.874C263.12 127.17 260.809 129.132 259.094 131.574C257.378 134.015 256.315 136.854 256.006 139.822Z" fill="#E58A7B"/>
<path d="M285.137 118.782C264.073 110.468 248.252 119.851 244.984 133.186C239.851 153.89 256.243 155.344 256.243 155.344L258.294 150.05C261.239 151.827 269.479 151.044 266.993 135.671C265.527 126.972 276.537 139.089 290.506 137.734C294.222 137.374 299.305 124.375 285.137 118.782Z" fill="#263238"/>
<path d="M292.307 123.903C289.535 119.64 283.869 115.986 272.125 114.259C272.125 114.259 278.226 115.638 280.202 120.1C282.178 124.561 295.65 129.035 292.307 123.903Z" fill="#263238"/>
<path d="M251.956 150.845C251.87 152.07 252.026 153.3 252.416 154.465C252.807 155.629 253.423 156.705 254.23 157.631C256.405 160.116 259.263 158.588 260.158 155.605C260.953 152.908 260.791 148.385 257.883 147.018C254.975 145.651 252.192 147.813 251.956 150.845Z" fill="#E58A7B"/>
<path d="M293.998 268.198C293.998 268.198 380.667 276.264 379.822 315.671C378.94 356.682 370.166 407.909 370.166 407.909H352.258C352.258 407.909 350.729 364.561 350.207 324.184C349.946 303.157 266.197 298.944 266.197 298.944L255.385 268.198H293.998Z" fill="#263238"/>
<path d="M280.129 268.198C280.129 268.198 336.14 286.777 337.556 309.768C340.154 352.097 321.55 407.946 321.55 407.946H303.915C303.915 407.946 304.922 370.912 307.022 332.56C309.681 284.366 224.652 331.889 241.492 268.236L280.129 268.198Z" fill="#263238"/>
<path d="M274.437 146.769C274.25 147.788 274.648 148.72 275.319 148.844C275.99 148.969 276.674 148.223 276.86 147.204C277.046 146.185 276.649 145.24 275.978 145.129C275.307 145.017 274.648 145.738 274.437 146.769Z" fill="#263238"/>
<path d="M286.031 148.844C285.845 149.863 286.243 150.795 286.914 150.92C287.585 151.044 288.281 150.298 288.467 149.279C288.654 148.26 288.256 147.316 287.585 147.204C286.914 147.092 286.218 147.813 286.031 148.844Z" fill="#263238"/>
<path d="M287.274 147.204L289.872 146.931C289.872 146.931 288.318 148.633 287.274 147.204Z" fill="#263238"/>
<path d="M282.651 150.05C283.148 152.554 283.984 154.979 285.136 157.258C284.551 157.524 283.915 157.662 283.272 157.662C282.629 157.662 281.994 157.524 281.408 157.258L282.651 150.05Z" fill="#DF5753"/>
<path d="M277.134 160.576C275.77 160.36 274.477 159.825 273.358 159.015C272.24 158.205 271.328 157.144 270.697 155.916C270.675 155.868 270.674 155.814 270.693 155.765C270.711 155.716 270.748 155.676 270.796 155.655C270.846 155.637 270.9 155.639 270.948 155.66C270.996 155.681 271.035 155.719 271.057 155.766C271.654 156.927 272.515 157.932 273.57 158.7C274.626 159.468 275.846 159.979 277.134 160.191C277.186 160.203 277.231 160.233 277.261 160.277C277.291 160.321 277.303 160.374 277.296 160.427C277.286 160.465 277.266 160.499 277.237 160.526C277.209 160.552 277.173 160.57 277.134 160.576Z" fill="#263238"/>
<path d="M271.715 142.184C271.661 142.186 271.607 142.175 271.558 142.154C271.508 142.132 271.464 142.1 271.429 142.059C271.391 142.024 271.361 141.982 271.341 141.935C271.32 141.888 271.31 141.837 271.31 141.786C271.31 141.735 271.32 141.684 271.341 141.637C271.361 141.59 271.391 141.547 271.429 141.512C272.098 140.858 272.915 140.375 273.81 140.102C274.706 139.83 275.654 139.776 276.574 139.947C276.671 139.976 276.754 140.041 276.804 140.128C276.855 140.216 276.871 140.32 276.847 140.419C276.836 140.469 276.814 140.516 276.784 140.558C276.754 140.6 276.716 140.635 276.672 140.661C276.627 140.688 276.579 140.706 276.528 140.713C276.477 140.72 276.425 140.718 276.375 140.705C275.581 140.564 274.765 140.616 273.995 140.856C273.225 141.096 272.524 141.517 271.951 142.084C271.884 142.141 271.802 142.176 271.715 142.184Z" fill="#263238"/>
<path d="M292.369 144.222C292.292 144.224 292.216 144.203 292.152 144.161C292.087 144.119 292.037 144.057 292.009 143.985C291.705 143.24 291.229 142.576 290.62 142.049C290.011 141.522 289.286 141.146 288.504 140.953C288.403 140.935 288.313 140.878 288.253 140.795C288.192 140.711 288.167 140.608 288.181 140.506C288.199 140.402 288.258 140.31 288.344 140.249C288.43 140.188 288.537 140.165 288.641 140.183C289.551 140.394 290.397 140.821 291.107 141.429C291.817 142.037 292.369 142.808 292.717 143.675C292.759 143.77 292.762 143.879 292.725 143.977C292.688 144.074 292.614 144.153 292.518 144.197L292.369 144.222Z" fill="#263238"/>
<path d="M240.036 208.509C238.905 212.238 237.687 215.966 236.606 219.793C235.525 223.621 234.382 227.349 233.4 231.14C232.418 234.93 231.486 238.683 230.79 242.325C230.455 244.164 230.144 245.991 229.97 247.706C229.87 248.563 229.821 249.371 229.808 250.117C229.808 250.291 229.808 250.117 229.684 249.831C229.532 249.494 229.322 249.187 229.063 248.924C228.429 248.377 228.193 248.476 228.479 248.563C228.999 248.69 229.534 248.744 230.069 248.725C231.742 248.667 233.406 248.455 235.04 248.091C238.742 247.275 242.39 246.234 245.964 244.972C253.309 242.486 260.765 239.454 268.023 236.359L271.229 242.213C264.344 246.727 257.147 250.747 249.692 254.243C245.832 256.063 241.85 257.612 237.774 258.878C235.505 259.569 233.175 260.039 230.815 260.282C229.341 260.434 227.855 260.396 226.391 260.171C225.419 260.025 224.471 259.753 223.57 259.363C222.405 258.859 221.35 258.133 220.463 257.225C218.739 255.409 217.752 253.017 217.692 250.514C217.629 249.272 217.617 248.029 217.692 246.91C217.778 244.611 217.99 242.436 218.276 240.311C218.872 236.061 219.643 231.96 220.587 227.884C221.532 223.808 222.538 219.868 223.644 215.916C224.75 211.964 225.943 208.087 227.373 204.135L240.036 208.509Z" fill="#E58A7B"/>
<path d="M321.648 426.066C320.503 426.037 319.364 425.879 318.255 425.593C318.214 425.586 318.175 425.565 318.146 425.535C318.116 425.506 318.095 425.468 318.087 425.426C318.079 425.385 318.084 425.342 318.101 425.303C318.117 425.264 318.145 425.231 318.181 425.208C318.616 424.922 322.493 422.412 323.972 423.071C324.127 423.141 324.26 423.252 324.356 423.392C324.453 423.532 324.509 423.696 324.519 423.866C324.58 424.142 324.569 424.429 324.487 424.699C324.404 424.969 324.252 425.213 324.046 425.407C323.349 425.902 322.5 426.136 321.648 426.066ZM318.852 425.295C321.25 425.792 323.052 425.73 323.748 425.084C323.9 424.937 324.011 424.753 324.072 424.551C324.133 424.349 324.141 424.134 324.096 423.928C324.091 423.83 324.06 423.736 324.005 423.655C323.95 423.574 323.874 423.509 323.785 423.468C322.841 423.046 320.219 424.45 318.852 425.295Z" fill="#16B99B"/>
<path d="M318.306 425.606H318.194C318.16 425.585 318.131 425.556 318.111 425.521C318.092 425.486 318.082 425.447 318.083 425.407C318.083 425.258 318.083 421.579 319.474 420.361C319.637 420.205 319.835 420.089 320.05 420.022C320.266 419.955 320.494 419.939 320.717 419.976C320.941 419.974 321.159 420.05 321.333 420.19C321.508 420.331 321.628 420.527 321.674 420.746C321.935 422.089 319.773 424.835 318.418 425.606H318.306ZM320.494 420.361C320.22 420.363 319.958 420.47 319.76 420.659C318.779 421.529 318.58 423.99 318.518 424.972C319.76 424.077 321.426 421.815 321.214 420.809C321.214 420.647 321.09 420.436 320.643 420.374L320.494 420.361Z" fill="#16B99B"/>
<path d="M372.304 426.065C370.938 426.035 369.578 425.881 368.24 425.606C368.196 425.594 368.157 425.571 368.126 425.538C368.095 425.505 368.074 425.464 368.066 425.419C368.06 425.373 368.068 425.327 368.091 425.286C368.113 425.246 368.148 425.214 368.19 425.195C368.762 424.897 373.87 422.287 375.423 423.132C375.558 423.207 375.672 423.315 375.755 423.445C375.837 423.575 375.886 423.724 375.895 423.878C375.93 424.137 375.901 424.401 375.81 424.646C375.719 424.89 375.569 425.109 375.373 425.282C374.47 425.886 373.386 426.163 372.304 426.065ZM368.961 425.295C370.626 425.581 373.932 425.991 375.075 424.972C375.218 424.838 375.327 424.673 375.394 424.49C375.461 424.306 375.484 424.109 375.46 423.915C375.459 423.831 375.436 423.749 375.392 423.676C375.348 423.604 375.286 423.545 375.212 423.505C374.193 422.958 370.763 424.412 368.961 425.295Z" fill="#16B99B"/>
<path d="M368.29 425.605C368.249 425.618 368.206 425.618 368.165 425.605C368.135 425.582 368.111 425.552 368.093 425.517C368.076 425.483 368.067 425.445 368.066 425.407C368.066 425.257 368.377 421.815 369.967 420.436C370.19 420.246 370.45 420.103 370.73 420.018C371.01 419.932 371.304 419.905 371.595 419.938C372.391 420.013 372.614 420.411 372.677 420.721C372.9 422.151 369.893 424.885 368.377 425.568L368.29 425.605ZM371.359 420.361C370.951 420.359 370.556 420.51 370.253 420.784C369.085 421.753 368.675 424.077 368.551 425.009C370.179 424.102 372.403 421.765 372.279 420.808C372.279 420.709 372.279 420.436 371.595 420.373L371.359 420.361Z" fill="#16B99B"/>
<path d="M267.726 236.558L279.979 233.451L274.138 245.22C274.138 245.22 265.849 245.58 263.115 240.957L267.726 236.558Z" fill="#E58A7B"/>
<path d="M289.883 237.913L284.465 247.507L274.138 245.22L279.979 233.451L289.883 237.913Z" fill="#E58A7B"/>
<path d="M275.667 145.129L278.264 144.855C278.264 144.855 276.661 146.558 275.667 145.129Z" fill="#263238"/>
<path d="M240.709 265.117L240.286 269.814C240.112 270.187 240.535 270.56 241.144 270.56H294.259C294.731 270.56 295.116 270.324 295.154 270.026L295.626 265.328C295.626 265.005 295.241 264.731 294.731 264.731H241.566C241.402 264.718 241.237 264.746 241.087 264.813C240.937 264.881 240.807 264.985 240.709 265.117Z" fill="#16B99B"/>
<path d="M247.855 271.069H246.426C246.14 271.069 245.929 270.92 245.941 270.746L246.612 264.632C246.612 264.458 246.885 264.309 247.171 264.309H248.551C248.837 264.309 249.048 264.458 249.035 264.632L248.364 270.746C248.377 270.92 248.128 271.069 247.855 271.069Z" fill="#263238"/>
<path d="M290.256 271.069H288.827C288.541 271.069 288.33 270.92 288.342 270.746L289.013 264.632C289.013 264.458 289.287 264.309 289.573 264.309H290.989C291.275 264.309 291.486 264.458 291.474 264.632L290.803 270.746C290.803 270.92 290.53 271.069 290.256 271.069Z" fill="#263238"/>
<path d="M269.055 271.069H267.626C267.34 271.069 267.129 270.92 267.142 270.746L267.813 264.632C267.813 264.458 268.086 264.309 268.372 264.309H269.789C270.075 264.309 270.286 264.458 270.273 264.632L269.602 270.746C269.577 270.92 269.341 271.069 269.055 271.069Z" fill="#263238"/>
<path d="M232.196 189.806C226.926 191.409 220.613 209.516 220.613 209.516L237.577 226.082C237.577 226.082 248.463 208.994 246.276 202.196C243.952 195.112 238.198 187.991 232.196 189.806Z" fill="#16B99B"/>
<path opacity="0.5" d="M232.196 189.806C226.926 191.409 220.613 209.516 220.613 209.516L237.577 226.082C237.577 226.082 248.463 208.994 246.276 202.196C243.952 195.112 238.198 187.991 232.196 189.806Z" fill="white"/>
<path d="M514.078 255.286H415.205V447.602H514.078V255.286Z" fill="#16B99B"/>
<path opacity="0.6" d="M514.078 255.286H415.205V447.602H514.078V255.286Z" fill="white"/>
<path d="M322.532 255.286H223.658V447.602H322.532V255.286Z" fill="#16B99B"/>
<path opacity="0.6" d="M322.532 255.286H223.658V447.602H322.532V255.286Z" fill="white"/>
<path d="M517.781 255.286H509.628V447.602H517.781V255.286Z" fill="#16B99B"/>
<path opacity="0.3" d="M517.781 255.286H509.628V447.602H517.781V255.286Z" fill="black"/>
<path d="M323.713 269.714H520.304V255.286L323.713 255.286V269.714Z" fill="#16B99B"/>
<path opacity="0.3" d="M323.713 269.714H520.304V255.286L323.713 255.286V269.714Z" fill="black"/>
<path d="M326.248 255.286H318.095V447.602H326.248V255.286Z" fill="#16B99B"/>
<path opacity="0.3" d="M326.248 255.286H318.095V447.602H326.248V255.286Z" fill="black"/>
<path d="M323.24 301.293H513.704V259.748H323.24V301.293Z" fill="#16B99B"/>
<path opacity="0.3" d="M323.24 301.293H513.704V259.748H323.24V301.293Z" fill="black"/>
<path d="M514.126 453.195H459.234C455.507 453.191 451.934 451.709 449.298 449.074C446.663 446.439 445.181 442.866 445.178 439.139V265.949C445.178 262.653 443.869 259.492 441.538 257.161C439.207 254.831 436.046 253.522 432.75 253.522H416.321V252.279H432.738C436.364 252.279 439.841 253.719 442.404 256.283C444.968 258.846 446.408 262.324 446.408 265.949V439.139C446.412 442.536 447.763 445.793 450.165 448.195C452.567 450.598 455.824 451.949 459.221 451.952H514.126C515.06 451.954 515.971 451.66 516.729 451.114C517.487 450.567 518.053 449.796 518.347 448.908C518.64 448.021 518.646 447.064 518.363 446.174C518.081 445.283 517.524 444.504 516.773 443.949L517.506 442.954C518.465 443.666 519.175 444.662 519.536 445.8C519.897 446.938 519.889 448.162 519.515 449.296C519.141 450.429 518.419 451.417 517.451 452.117C516.484 452.817 515.32 453.194 514.126 453.195Z" fill="#16B99B"/>
<path opacity="0.3" d="M514.126 453.195H459.234C455.507 453.191 451.934 451.709 449.298 449.074C446.663 446.439 445.181 442.866 445.178 439.139V265.949C445.178 262.653 443.869 259.492 441.538 257.161C439.207 254.831 436.046 253.522 432.75 253.522H416.321V252.279H432.738C436.364 252.279 439.841 253.719 442.404 256.283C444.968 258.846 446.408 262.324 446.408 265.949V439.139C446.412 442.536 447.763 445.793 450.165 448.195C452.567 450.598 455.824 451.949 459.221 451.952H514.126C515.06 451.954 515.971 451.66 516.729 451.114C517.487 450.567 518.053 449.796 518.347 448.908C518.64 448.021 518.646 447.064 518.363 446.174C518.081 445.283 517.524 444.504 516.773 443.949L517.506 442.954C518.465 443.666 519.175 444.662 519.536 445.8C519.897 446.938 519.889 448.162 519.515 449.296C519.141 450.429 518.419 451.417 517.451 452.117C516.484 452.817 515.32 453.194 514.126 453.195Z" fill="black"/>
<path d="M522.13 312.03H520.888V336.053H522.13V312.03Z" fill="#16B99B"/>
<path opacity="0.3" d="M522.13 312.03H520.888V336.053H522.13V312.03Z" fill="black"/>
<path d="M522.13 297.851H520.888V304.164H522.13V297.851Z" fill="#16B99B"/>
<path opacity="0.3" d="M522.13 297.851H520.888V304.164H522.13V297.851Z" fill="black"/>
<path d="M431.111 197.871H338.973L325.626 252.279H417.751L431.111 197.871Z" fill="#16B99B"/>
<path opacity="0.4" d="M431.111 197.871H338.973L325.626 252.279H417.751L431.111 197.871Z" fill="white"/>
<path d="M328.447 252.279L328.075 255.286H291.923L292.296 252.279H328.447Z" fill="#16B99B"/>
<path opacity="0.4" d="M328.447 252.279L328.075 255.286H291.923L292.296 252.279H328.447Z" fill="white"/>
<path d="M420.586 252.279L420.213 255.286H328.075L328.448 252.279H420.586Z" fill="#16B99B"/>
<path opacity="0.5" d="M420.586 252.279L420.213 255.286H328.075L328.448 252.279H420.586Z" fill="black"/>
<path d="M433.945 197.871H341.807L328.46 252.279H420.585L433.945 197.871Z" fill="#16B99B"/>
<path opacity="0.5" d="M433.945 197.871H341.807L328.46 252.279H420.585L433.945 197.871Z" fill="black"/>
<path d="M469.525 241.579C469.525 241.579 455.966 218.203 474.732 199.599C474.732 199.599 479.641 202.805 479.566 207.055C479.492 211.305 474.309 212.449 475.416 216.028C476.522 219.607 481.43 223.149 478.212 226.119C474.993 229.089 478.734 231.724 478.51 235.353C478.286 238.981 469.525 241.579 469.525 241.579Z" fill="#16B99B"/>
<path d="M470.557 243.716C470.557 243.716 476.05 217.258 452.338 205.539C452.338 205.539 448.685 210.125 450.114 214.238C451.543 218.352 456.8 217.693 456.874 221.459C456.949 225.224 453.42 230.096 457.409 231.898C461.398 233.7 458.652 237.391 460.031 240.771C461.41 244.151 470.557 243.716 470.557 243.716Z" fill="#16B99B"/>
<path opacity="0.5" d="M470.557 243.716C470.557 243.716 476.05 217.258 452.338 205.539C452.338 205.539 448.685 210.125 450.114 214.238C451.543 218.352 456.8 217.693 456.874 221.459C456.949 225.224 453.42 230.096 457.409 231.898C461.398 233.7 458.652 237.391 460.031 240.771C461.41 244.151 470.557 243.716 470.557 243.716Z" fill="black"/>
<path d="M449.776 237.851C449.776 237.851 450.236 255.249 467.523 255.249C484.81 255.249 485.257 237.851 485.257 237.851H449.776Z" fill="#16B99B"/>
<path opacity="0.5" d="M449.776 237.851C449.776 237.851 450.236 255.249 467.523 255.249C484.81 255.249 485.257 237.851 485.257 237.851H449.776Z" fill="black"/>
<path d="M363.677 107.826H383.821C385.221 107.826 386.258 107.619 387.092 107.218C387.926 106.817 388.6 106.318 389.103 105.721C389.605 105.124 389.969 104.495 390.182 103.812C390.396 103.139 390.503 102.51 390.503 101.946C390.503 101.24 390.375 100.535 390.129 99.8192C389.883 99.1032 389.487 98.4631 388.964 97.899C388.44 97.3348 387.766 96.8683 386.953 96.5103C386.141 96.1523 385.189 95.9679 384.088 95.9679H379.105V92.1816H384.537C386.077 92.1816 387.424 92.4529 388.568 92.9845C389.723 93.516 390.685 94.2321 391.476 95.1325C392.257 96.033 392.856 97.0528 393.24 98.2244C393.636 99.3853 393.828 100.6 393.828 101.848C393.828 103.15 393.636 104.397 393.251 105.591C392.866 106.784 392.257 107.815 391.423 108.704C390.589 109.594 389.52 110.299 388.215 110.831C386.911 111.362 385.339 111.623 383.34 111.623H363.677V107.826Z" fill="#B24097"/>
<path d="M372.659 95.9782H352.355C351.114 95.9782 350.077 96.1844 349.243 96.5858C348.409 96.9872 347.736 97.4862 347.233 98.0829C346.731 98.6796 346.367 99.3088 346.153 99.9923C345.939 100.665 345.833 101.294 345.833 101.858C345.833 102.563 345.961 103.269 346.207 103.985C346.453 104.701 346.848 105.341 347.372 105.905C347.896 106.469 348.57 106.936 349.382 107.294C350.195 107.652 351.147 107.836 352.248 107.836H357.23V111.622H351.809C350.27 111.622 348.923 111.351 347.779 110.819C346.624 110.288 345.661 109.572 344.87 108.671C344.09 107.771 343.491 106.751 343.106 105.579C342.7 104.419 342.507 103.204 342.507 101.956C342.507 100.654 342.7 99.4065 343.085 98.2131C343.47 97.0197 344.079 95.9891 344.913 95.0995C345.747 94.2099 346.816 93.5047 348.121 92.9731C349.425 92.4415 350.997 92.1812 352.836 92.1812H372.659V95.9782Z" fill="#DB283D"/>
<path d="M362.33 97.3447V117.947C362.33 119.205 362.533 120.257 362.928 121.104C363.324 121.95 363.816 122.633 364.404 123.143C364.992 123.653 365.612 124.022 366.286 124.239C366.949 124.456 367.569 124.564 368.125 124.564C368.82 124.564 369.515 124.434 370.22 124.185C370.926 123.935 371.557 123.534 372.113 123.002C372.669 122.471 373.129 121.787 373.481 120.963C373.834 120.138 374.016 119.173 374.016 118.055V113H377.748V118.511C377.748 120.073 377.48 121.44 376.956 122.601C376.433 123.772 375.727 124.749 374.839 125.552C373.952 126.344 372.947 126.951 371.792 127.342C370.648 127.743 369.451 127.938 368.221 127.938C366.938 127.938 365.708 127.743 364.532 127.353C363.356 126.962 362.34 126.344 361.464 125.497C360.587 124.651 359.892 123.566 359.368 122.243C358.844 120.919 358.587 119.324 358.587 117.458V97.3447H362.33Z" fill="#21AACE"/>
<path d="M374.005 106.458V84.1207C374.005 84.598 373.802 83.5457 373.407 82.6995C373.011 81.8533 372.519 81.1698 371.931 80.6599C371.343 80.15 370.723 79.7812 370.049 79.5642C369.386 79.3472 368.766 79.2387 368.21 79.2387C367.515 79.2387 366.82 79.3689 366.115 79.6184C365.409 79.868 364.778 80.2694 364.222 80.801C363.666 81.3325 363.206 82.016 362.854 82.8405C362.501 83.665 362.319 84.6306 362.319 85.748V90.8036H358.587V85.3032C358.587 83.741 358.855 82.374 359.379 81.2132C359.903 80.0415 360.608 79.0651 361.496 78.2623C362.383 77.4704 363.388 76.8628 364.543 76.4723C365.687 76.06 366.884 75.8647 368.114 75.8647C369.397 75.8647 370.627 76.06 371.803 76.4506C372.979 76.8411 373.995 77.4595 374.871 78.3057C375.748 79.1519 376.443 80.2368 376.967 81.5604C377.491 82.8839 377.748 84.4787 377.748 84.6089V106.458H374.005Z" fill="#239B7E"/>
<path d="M366.172 81.9861V81.3462H369.971V81.9861L369.783 81.9902L369.596 81.9939L369.592 82.7943L369.587 83.5948L369.663 83.6312C370.198 83.8873 370.528 84.1313 370.843 84.5029C371.082 84.7845 371.283 85.1394 371.378 85.4438C371.514 85.8863 371.532 86.3492 371.43 86.7985C371.188 87.8216 370.327 88.6578 369.171 88.9939C368.419 89.2138 367.549 89.1951 366.806 88.9428C365.673 88.5593 364.864 87.69 364.682 86.6605C364.501 85.6306 364.974 84.5963 365.924 83.9445C366.068 83.8426 366.222 83.7529 366.386 83.6773L366.547 83.5992V81.9939L366.359 81.9902L366.172 81.9861ZM368.841 83.0173L368.837 82.0007H367.306L367.301 83.018L367.297 84.0352L367.161 84.0819C366.712 84.2367 366.385 84.4238 366.106 84.6874C365.774 84.9993 365.559 85.3627 365.45 85.7915C365.419 85.9146 365.415 85.9749 365.415 86.2211C365.415 86.4665 365.42 86.5286 365.451 86.6557C365.559 87.1002 365.789 87.4746 366.146 87.7926C366.55 88.1516 366.984 88.3524 367.6 88.4669C367.663 88.4785 367.821 88.4846 368.063 88.4846C368.387 88.4846 368.451 88.4809 368.604 88.4529C369.42 88.3036 370.093 87.8591 370.455 87.2301C370.595 86.9942 370.686 86.7392 370.722 86.4767C370.748 86.3042 370.733 85.976 370.69 85.7878C370.548 85.1755 370.104 84.6219 369.492 84.296C369.349 84.2203 369.244 84.1757 369.029 84.0993L368.845 84.0342L368.841 83.0173ZM367.68 84.9618L367.689 84.5916H368.454L368.462 84.9618L368.571 84.9945C368.738 85.0463 368.894 85.1213 369.032 85.2164C369.104 85.2652 369.169 85.2993 369.182 85.2952C369.242 85.2689 369.301 85.241 369.359 85.212C369.443 85.1701 369.519 85.1377 369.526 85.1401C369.533 85.1421 369.622 85.2665 369.723 85.4165C369.859 85.617 369.902 85.6923 369.887 85.7002C369.826 85.7315 369.764 85.7626 369.702 85.7932C369.545 85.871 369.537 85.8774 369.548 85.9119C369.601 86.0929 369.602 86.3025 369.548 86.5347C369.539 86.5746 369.543 86.5776 369.703 86.6543C369.765 86.684 369.826 86.714 369.888 86.7443C369.903 86.7525 369.861 86.8255 369.722 87.03C369.62 87.1814 369.529 87.3051 369.52 87.3051C369.51 87.3051 369.429 87.2683 369.339 87.2233C369.249 87.1783 369.171 87.1415 369.166 87.1415C369.118 87.1674 369.073 87.1957 369.03 87.2267C368.892 87.3215 368.737 87.3961 368.571 87.4476L368.462 87.4804L368.454 87.8506H367.689L367.68 87.4804L367.572 87.4476C367.405 87.3958 367.249 87.3208 367.111 87.2257C367.041 87.1783 366.975 87.1422 366.964 87.1459C366.954 87.1493 366.871 87.1892 366.78 87.2346L366.614 87.3174L366.424 87.0362C366.283 86.8275 366.24 86.7522 366.255 86.7443C366.266 86.7382 366.349 86.6976 366.44 86.6543C366.599 86.5776 366.604 86.5746 366.594 86.5347C366.55 86.3404 366.543 86.1611 366.573 86.0097C366.581 85.9719 366.588 85.934 366.593 85.8958C366.594 85.8778 366.547 85.8468 366.419 85.783C366.323 85.7346 366.246 85.6876 366.249 85.6787C366.259 85.646 366.608 85.137 366.62 85.137C366.677 85.1595 366.732 85.1847 366.785 85.2123C366.843 85.2413 366.901 85.2693 366.961 85.2952C366.974 85.2993 367.038 85.2652 367.111 85.2164C367.249 85.1213 367.405 85.0463 367.572 84.9945L367.68 84.9618ZM368.272 85.5945C368.137 85.5682 367.998 85.5686 367.864 85.5952C367.595 85.6572 367.369 85.8751 367.321 86.1202C367.27 86.3786 367.426 86.652 367.704 86.7907C367.855 86.866 368.085 86.8892 368.272 86.8476C368.548 86.7859 368.776 86.5667 368.823 86.3155C368.882 86.0022 368.631 85.6746 368.272 85.5945Z" fill="#239B7E"/>
<path d="M354.894 100.825C354.921 100.819 354.947 100.808 354.97 100.793C354.992 100.778 355.011 100.759 355.025 100.738C355.039 100.716 355.048 100.692 355.051 100.668C355.054 100.643 355.051 100.618 355.043 100.595C355.035 100.571 355.021 100.549 355.003 100.53C354.985 100.511 354.962 100.496 354.937 100.485C354.911 100.474 354.883 100.467 354.855 100.466C354.827 100.464 354.798 100.467 354.771 100.476L354.201 100.625C353.807 100.289 353.276 100.101 352.724 100.102V103.756C353.276 103.757 353.807 103.569 354.201 103.233L354.771 103.383C354.798 103.391 354.827 103.394 354.855 103.393C354.883 103.391 354.911 103.385 354.937 103.374C354.962 103.362 354.985 103.347 355.003 103.328C355.021 103.309 355.035 103.287 355.043 103.264C355.051 103.24 355.054 103.215 355.051 103.191C355.048 103.166 355.039 103.142 355.025 103.121C355.011 103.099 354.992 103.081 354.97 103.066C354.947 103.051 354.921 103.04 354.894 103.034L354.49 102.927C354.714 102.63 354.833 102.284 354.832 101.929C354.833 101.575 354.714 101.228 354.49 100.931L354.894 100.825Z" fill="#DB283D"/>
<path d="M352.724 103.756H352.303V102.112H348.518C348.57 102.562 348.813 102.98 349.201 103.284C349.589 103.588 350.093 103.756 350.616 103.756V103.939C350.616 103.987 350.593 104.034 350.554 104.068C350.514 104.102 350.461 104.122 350.405 104.122H350.194C350.138 104.122 350.084 104.141 350.045 104.175C350.005 104.209 349.983 104.256 349.983 104.304C349.983 104.353 350.005 104.399 350.045 104.434C350.084 104.468 350.138 104.487 350.194 104.487H350.405C350.573 104.487 350.733 104.429 350.852 104.327C350.971 104.224 351.037 104.084 351.037 103.939V103.756H351.459V104.304C351.459 104.353 351.481 104.399 351.521 104.434C351.56 104.468 351.614 104.487 351.67 104.487C351.726 104.487 351.78 104.468 351.819 104.434C351.859 104.399 351.881 104.353 351.881 104.304V103.756H352.303V103.939C352.303 104.084 352.369 104.224 352.488 104.327C352.607 104.429 352.767 104.487 352.935 104.487H353.146C353.202 104.487 353.256 104.468 353.295 104.434C353.335 104.399 353.357 104.353 353.357 104.304C353.357 104.256 353.335 104.209 353.295 104.175C353.256 104.141 353.202 104.122 353.146 104.122H352.935C352.879 104.122 352.826 104.102 352.786 104.068C352.747 104.034 352.724 103.987 352.724 103.939V103.756ZM348.518 101.746H352.303V100.102H352.724V99.9192C352.724 99.8708 352.747 99.8243 352.786 99.79C352.826 99.7558 352.879 99.7365 352.935 99.7365H353.146C353.202 99.7365 353.256 99.7173 353.295 99.683C353.335 99.6487 353.357 99.6023 353.357 99.5538C353.357 99.5053 353.335 99.4589 353.295 99.4246C353.256 99.3903 353.202 99.3711 353.146 99.3711H352.935C352.767 99.3711 352.607 99.4288 352.488 99.5316C352.369 99.6344 352.303 99.7739 352.303 99.9192V100.102H351.881V99.5538C351.881 99.5053 351.859 99.4589 351.819 99.4246C351.78 99.3903 351.726 99.3711 351.67 99.3711C351.614 99.3711 351.56 99.3903 351.521 99.4246C351.481 99.4589 351.459 99.5053 351.459 99.5538V100.102H351.037V99.9192C351.037 99.7739 350.971 99.6344 350.852 99.5316C350.733 99.4288 350.573 99.3711 350.405 99.3711H350.194C350.138 99.3711 350.084 99.3903 350.045 99.4246C350.005 99.4589 349.983 99.5053 349.983 99.5538C349.983 99.6023 350.005 99.6487 350.045 99.683C350.084 99.7173 350.138 99.7365 350.194 99.7365H350.405C350.461 99.7365 350.514 99.7558 350.554 99.79C350.593 99.8243 350.616 99.8708 350.616 99.9192V100.102C350.093 100.102 349.589 100.27 349.201 100.574C348.813 100.878 348.57 101.296 348.518 101.746Z" fill="#DB283D"/>
<path d="M382.037 99.2656H383.255V100.557H382.037V99.2656ZM383.864 99.5884V100.234H387.518V99.5884H383.864ZM382.037 101.203H383.255V102.494H382.037V101.203ZM383.864 101.525V102.171H387.518V101.525H383.864ZM382.037 103.139H383.255V104.431H382.037V103.139ZM383.864 103.462V104.108H387.518V103.462H383.864Z" fill="#B24097"/>
<path d="M366.336 119.044C366.48 119.195 366.57 119.386 366.57 119.599C366.57 120.071 366.14 120.453 365.607 120.453C365.074 120.453 364.644 120.071 364.644 119.599C364.644 119.127 365.074 118.745 365.607 118.745C365.665 118.745 365.723 118.745 365.777 118.759L366.763 117.234L366.204 116.952L367.517 116.633L367.877 117.797L367.318 117.516L366.336 119.044ZM370.743 118.745C370.326 118.745 369.973 118.984 369.838 119.314H367.854V118.745L366.891 119.599L367.854 120.453V119.884H369.838C369.973 120.214 370.326 120.453 370.743 120.453C371.276 120.453 371.706 120.071 371.706 119.599C371.706 119.127 371.276 118.745 370.743 118.745ZM368.175 116.468C368.233 116.468 368.291 116.468 368.345 116.454L369.331 117.98L368.772 118.261L370.085 118.58L370.445 117.416L369.886 117.698L368.904 116.17C369.048 116.019 369.138 115.828 369.138 115.615C369.138 115.142 368.708 114.761 368.175 114.761C367.642 114.761 367.212 115.142 367.212 115.615C367.212 116.087 367.642 116.468 368.175 116.468Z" fill="#21AACE"/>
<path d="M320.195 101.507H332.689C332.689 110.903 336.421 119.914 343.065 126.558C349.709 133.202 358.72 136.935 368.116 136.935C374.333 136.946 380.44 135.304 385.813 132.177L392.077 143.079C384.792 147.285 376.528 149.499 368.116 149.499C359.704 149.499 351.44 147.284 344.155 143.078C336.87 138.872 330.82 132.822 326.615 125.537C322.409 118.252 320.195 109.988 320.195 101.576V101.507Z" fill="#16B99B"/>
<path d="M368.117 66.0629V53.5521C378.699 53.5116 388.998 56.9754 397.405 63.403C405.812 69.8306 411.856 78.8604 414.592 89.0834C417.328 99.3064 416.603 110.148 412.53 119.915C408.457 129.683 401.265 137.828 392.077 143.079L385.83 132.245C392.635 128.371 397.963 122.351 400.983 115.127C404.002 107.902 404.542 99.881 402.517 92.3172C400.493 84.7535 396.018 78.0741 389.794 73.3237C383.57 68.5733 375.947 66.0199 368.117 66.0629Z" fill="#16B99B"/>
<path d="M320.195 101.507C320.195 88.7974 325.244 76.6086 334.231 67.6216C343.218 58.6347 355.407 53.5859 368.116 53.5859V66.0625C363.465 66.0602 358.858 66.9745 354.56 68.753C350.262 70.5315 346.356 73.1395 343.066 76.4278C339.776 79.7162 337.167 83.6205 335.386 87.9178C333.605 92.2151 332.689 96.8211 332.689 101.473L320.195 101.507Z" fill="#16B99B"/>
<path opacity="0.5" d="M320.195 101.507H332.689C332.689 110.903 336.421 119.914 343.065 126.558C349.709 133.202 358.72 136.935 368.116 136.935C374.333 136.946 380.44 135.304 385.813 132.177L392.077 143.079C384.792 147.285 376.528 149.499 368.116 149.499C359.704 149.499 351.44 147.284 344.155 143.078C336.87 138.872 330.82 132.822 326.615 125.537C322.409 118.252 320.195 109.988 320.195 101.576V101.507Z" fill="white"/>
<path opacity="0.7" d="M368.116 66.0629V53.5521C378.699 53.5116 388.997 56.9754 397.405 63.403C405.812 69.8306 411.855 78.8604 414.591 89.0834C417.327 99.3064 416.602 110.148 412.529 119.915C408.456 129.683 401.265 137.828 392.077 143.079L385.83 132.245C392.634 128.371 397.963 122.351 400.982 115.127C404.002 107.902 404.541 99.881 402.517 92.3172C400.492 84.7535 396.018 78.0741 389.794 73.3237C383.569 68.5733 375.946 66.0199 368.116 66.0629Z" fill="black"/>
</svg>
