<svg width="418" height="334" viewBox="0 0 418 334" fill="none" xmlns="http://www.w3.org/2000/svg">
<path d="M61.2134 301.192C142.831 343.83 275.169 343.83 356.787 301.192C438.404 258.553 438.404 189.422 356.787 146.774C275.169 104.127 142.869 104.136 61.2134 146.774C-20.4418 189.413 -20.3671 258.553 61.2134 301.192Z" fill="#F5F5F5"/>
<path d="M38.4616 231.266L11.9307 215.953V159.046L38.4616 174.369V231.266Z" fill="#CAC6C6"/>
<path d="M38.4619 174.369L76.3686 152.485V209.383L38.4619 231.266V174.369Z" fill="#EBEBEB"/>
<path d="M76.3683 152.485L38.4616 174.369L11.9307 159.046L49.8373 137.162L76.3683 152.485Z" fill="#F5F5F5"/>
<path d="M42.2603 176.553L72.5801 159.046L73.28 159.447V180.528L42.9509 198.035L42.251 197.634L42.2603 176.553Z" fill="#CAC6C6"/>
<path d="M42.9502 176.963L73.2793 159.447V180.528L42.9502 198.035V176.963Z" fill="#F5F5F5"/>
<path d="M54.8401 173.669L60.0007 170.692C60.6633 170.3 61.2046 170.477 61.2046 171.084C61.1565 171.455 61.0227 171.811 60.8138 172.122C60.6049 172.433 60.3265 172.691 60.0007 172.876L54.8401 175.853C54.1682 176.244 53.627 176.067 53.627 175.461C53.6753 175.088 53.8103 174.732 54.0209 174.421C54.2316 174.11 54.5121 173.852 54.8401 173.669Z" fill="#CAC6C6"/>
<path d="M41.5596 203.224L71.8793 185.717V206.798L72.5792 207.199L42.2501 224.706L41.5596 224.305V203.224Z" fill="#CAC6C6"/>
<path d="M42.251 203.625L72.5801 186.118V207.199L42.251 224.706V203.625Z" fill="#F5F5F5"/>
<path d="M54.1392 200.34L59.3464 197.373C60.0183 196.981 60.5596 197.158 60.5596 197.765C60.5112 198.137 60.3763 198.493 60.1656 198.804C59.955 199.115 59.6744 199.373 59.3464 199.556L54.1858 202.533C53.5139 202.925 52.9727 202.748 52.9727 202.141C53.0146 201.771 53.1418 201.416 53.3442 201.104C53.5466 200.791 53.8187 200.53 54.1392 200.34Z" fill="#CAC6C6"/>
<path d="M38.4616 171.084L11.9307 155.761V98.8633L38.4616 114.177V171.084Z" fill="#CAC6C6"/>
<path d="M38.4619 114.177L76.3686 92.2935V149.2L38.4619 171.084V114.177Z" fill="#EBEBEB"/>
<path d="M76.3683 92.2938L38.4616 114.177L11.9307 98.8636L49.8373 76.98L76.3683 92.2938Z" fill="#F5F5F5"/>
<path d="M42.251 116.37L72.5801 98.8633L73.28 99.2646V120.346L42.9509 137.852L42.251 137.442V116.37Z" fill="#CAC6C6"/>
<path d="M54.8401 113.478L59.9914 110.501C60.6633 110.118 61.2046 110.296 61.2046 110.902C61.1548 111.274 61.0193 111.63 60.8088 111.941C60.5983 112.252 60.3185 112.51 59.9914 112.694L54.8401 115.671C54.1682 116.054 53.627 115.886 53.627 115.279C53.6761 114.905 53.8112 114.548 54.0217 114.236C54.2322 113.923 54.5124 113.664 54.8401 113.478Z" fill="#CAC6C6"/>
<path d="M41.5596 143.041L71.8793 125.534V146.606L72.5792 147.007L42.2501 164.514L41.5596 164.113V143.041Z" fill="#CAC6C6"/>
<path d="M42.251 143.443L72.5801 125.936V147.008L42.251 164.515V143.443Z" fill="#F5F5F5"/>
<path d="M54.1399 140.148L59.3472 137.171C60.0098 136.789 60.5604 136.966 60.5604 137.573C60.5078 137.944 60.3712 138.298 60.161 138.609C59.9508 138.919 59.6724 139.178 59.3472 139.364L54.1399 142.313C53.468 142.696 52.9268 142.519 52.9268 141.921C52.9799 141.553 53.117 141.201 53.3273 140.894C53.5376 140.586 53.8156 140.331 54.1399 140.148Z" fill="#CAC6C6"/>
<path d="M42.251 116.37L72.5801 98.8633V119.935L42.251 137.442V116.37Z" fill="#CAC6C6"/>
<path d="M87.7442 109.278L71.1426 99.6943V118.265L87.7442 127.84V109.278Z" fill="#CAC6C6"/>
<path d="M53.627 140.447V114.178L60.1314 110.407L61.2046 111.994L80.1579 101.047V125.124L53.627 140.447Z" fill="#EBEBEB"/>
<path d="M53.627 140.447L55.5214 117.462L82.0523 102.148L80.1579 125.124L53.627 140.447Z" fill="#F5F5F5"/>
<path d="M57.4148 126.785L42.9502 118.433V137.004L57.4148 145.347V126.785Z" fill="#EBEBEB"/>
<path d="M57.415 125.124L87.7441 107.617V128.689L57.415 146.196V125.124Z" fill="#F5F5F5"/>
<path d="M69.304 121.829L74.4553 118.853C75.1272 118.47 75.6684 118.647 75.6684 119.254C75.6179 119.626 75.4822 119.981 75.2717 120.292C75.0613 120.603 74.7819 120.861 74.4553 121.046L69.304 124.022C68.6321 124.405 68.0908 124.228 68.0908 123.631C68.1399 123.257 68.2751 122.9 68.4856 122.587C68.6961 122.275 68.9762 122.015 69.304 121.829Z" fill="#CAC6C6"/>
<path d="M57.4151 125.124L56.4072 124.545V145.617L57.4151 146.196V125.124Z" fill="#CAC6C6"/>
<path d="M56.4072 124.545L86.727 107.029L87.7442 107.617L57.4151 125.124L56.4072 124.545Z" fill="#EBEBEB"/>
<path d="M351.906 196.794L325.366 181.471V124.573L351.906 139.887V196.794Z" fill="#CAC6C6"/>
<path d="M351.905 139.887L389.812 118.003V174.91L351.905 196.794V139.887Z" fill="#EBEBEB"/>
<path d="M389.813 118.004L351.906 139.887L325.366 124.574L363.282 102.681L389.813 118.004Z" fill="#F5F5F5"/>
<path d="M355.694 142.08L386.023 124.573L386.723 124.975L386.714 146.046L356.394 163.553L355.694 163.152V142.08Z" fill="#CAC6C6"/>
<path d="M356.395 142.481L386.724 124.975L386.714 146.046L356.395 163.553V142.481Z" fill="#F5F5F5"/>
<path d="M368.283 139.187L373.435 136.21C374.107 135.828 374.648 136.005 374.648 136.602C374.599 136.976 374.464 137.333 374.253 137.646C374.043 137.958 373.763 138.217 373.435 138.403L368.283 141.38C367.612 141.763 367.07 141.586 367.07 140.988C367.119 140.615 367.255 140.258 367.465 139.945C367.676 139.633 367.956 139.373 368.283 139.187Z" fill="#CAC6C6"/>
<path d="M354.994 168.751L385.323 151.235V172.316L386.023 172.717L355.694 190.224L354.994 189.823V168.751Z" fill="#CAC6C6"/>
<path d="M355.694 169.152L386.023 151.646V172.717L355.694 190.224V169.152Z" fill="#F5F5F5"/>
<path d="M367.584 165.858L372.745 162.881C373.407 162.499 373.949 162.676 373.949 163.273C373.899 163.646 373.765 164.002 373.556 164.314C373.348 164.626 373.07 164.886 372.745 165.074L367.584 168.051C366.912 168.434 366.371 168.257 366.371 167.65C366.422 167.278 366.557 166.923 366.768 166.612C366.978 166.301 367.258 166.043 367.584 165.858Z" fill="#CAC6C6"/>
<path d="M99.4742 256.267C99.4742 256.267 99.5769 241.466 90.2449 230.37C81.986 220.544 77.5906 214.31 80.1943 211.436C82.7979 208.562 88.3971 207.871 95.9467 215.822C103.496 223.773 104.084 245.796 103.039 250.78L99.4742 256.267Z" fill="#399B8E"/>
<path opacity="0.2" d="M99.4742 256.267C99.4742 256.267 99.5769 241.466 90.2449 230.37C81.986 220.544 77.5906 214.31 80.1943 211.436C82.7979 208.562 88.3971 207.871 95.9467 215.822C103.496 223.773 104.084 245.796 103.039 250.78L99.4742 256.267Z" fill="black"/>
<path d="M101.042 240.356C100.936 240.356 100.832 240.32 100.749 240.254C100.666 240.188 100.608 240.096 100.585 239.992C97.3185 224.715 88.9383 216.27 84.2257 212.593C84.1281 212.517 84.0645 212.406 84.0487 212.284C84.033 212.161 84.0664 212.038 84.1417 211.94C84.219 211.842 84.3318 211.778 84.4557 211.762C84.5797 211.746 84.7049 211.78 84.8042 211.856C89.6102 215.589 98.1677 224.23 101.499 239.796C101.513 239.855 101.515 239.917 101.504 239.977C101.494 240.037 101.471 240.095 101.438 240.146C101.405 240.197 101.362 240.241 101.312 240.276C101.261 240.31 101.204 240.334 101.145 240.346L101.042 240.356Z" fill="#FBFAFA"/>
<path d="M99.1198 261.764L95.3217 263.957C94.9166 262.85 94.2333 261.866 93.3377 261.099C92.442 260.333 91.3641 259.809 90.2078 259.58C86.055 258.647 81.7436 258.806 78.832 255.203C75.9204 251.601 79.4666 247.682 78.832 245.032C78.1975 242.381 77.7868 241.616 72.5796 238.966C67.3723 236.315 65.3193 231.92 69.2387 228.943C73.1582 225.966 79.5039 228.15 83.3487 230.81C86.7643 233.143 90.0118 233.758 93.8286 234.234C97.6454 234.71 103.861 236.829 102.909 245.694C102.285 251.182 101.014 256.576 99.1198 261.764Z" fill="#399B8E"/>
<path d="M84.5429 250.117C84.4435 250.116 84.3468 250.084 84.2664 250.026C84.1861 249.967 84.1261 249.885 84.0949 249.79C84.0596 249.672 84.072 249.544 84.1295 249.434C84.187 249.324 84.2851 249.241 84.4029 249.202C84.7388 249.1 92.8017 246.543 96.2266 249.286C96.3116 249.367 96.3634 249.476 96.3717 249.592C96.38 249.709 96.3443 249.825 96.2716 249.916C96.1988 250.008 96.0944 250.068 95.9789 250.087C95.8634 250.105 95.7453 250.079 95.648 250.014C92.6244 247.588 84.7668 250.07 84.6829 250.098L84.5429 250.117Z" fill="#FBFAFA"/>
<path d="M99.5406 261.054C99.427 261.055 99.3172 261.013 99.2327 260.937C99.1481 260.861 99.0949 260.757 99.0833 260.644C97.0023 240.99 73.3269 231.668 73.0936 231.574C73.0358 231.553 72.9828 231.52 72.9378 231.477C72.8928 231.435 72.8567 231.384 72.8315 231.328C72.8063 231.271 72.7926 231.21 72.7911 231.149C72.7897 231.087 72.8005 231.025 72.823 230.968C72.8689 230.855 72.9564 230.764 73.0676 230.713C73.1787 230.663 73.305 230.657 73.4202 230.697C73.6722 230.8 97.8701 240.319 100.007 260.56C100.02 260.682 99.9845 260.805 99.9076 260.901C99.8307 260.997 99.7189 261.059 99.5966 261.073L99.5406 261.054Z" fill="#FBFAFA"/>
<path d="M331.654 248.857C331.757 248.531 335.76 227.926 331.654 213.312C327.922 199.911 323.05 194.965 316.107 193.873C309.164 192.781 306.15 197.783 309.836 204.558C313.522 211.333 322.397 220.32 324.571 235.457C325.505 241.69 326.214 247.103 326.214 247.103L331.654 248.857Z" fill="#399B8E"/>
<path opacity="0.2" d="M331.654 248.857C331.757 248.531 335.76 227.926 331.654 213.312C327.922 199.911 323.05 194.965 316.107 193.873C309.164 192.781 306.15 197.783 309.836 204.558C313.522 211.333 322.397 220.32 324.571 235.457C325.505 241.69 326.214 247.103 326.214 247.103L331.654 248.857Z" fill="black"/>
<path d="M329.313 237.024C329.252 237.02 329.192 237.005 329.136 236.978C329.081 236.951 329.032 236.914 328.991 236.868C328.95 236.822 328.919 236.768 328.899 236.71C328.879 236.652 328.871 236.591 328.874 236.529C329.808 219.844 324.358 204.95 314.587 197.643C314.488 197.569 314.423 197.458 314.405 197.336C314.388 197.213 314.419 197.089 314.494 196.99C314.569 196.893 314.68 196.829 314.802 196.811C314.923 196.794 315.047 196.824 315.147 196.896C325.16 204.362 330.778 219.592 329.798 236.585C329.791 236.708 329.736 236.822 329.645 236.904C329.555 236.986 329.435 237.029 329.313 237.024Z" fill="#FBFAFA"/>
<path d="M342.397 259.589C341.865 255.754 344.068 250.005 349.303 248.642C354.538 247.28 356.871 244.275 354.986 240.99C353.101 237.705 353.54 234.691 358.29 233.329C363.04 231.966 367.202 229.596 364.468 224.575C362.48 220.945 362.041 218.593 366.913 211.445C370.953 205.51 367.65 202.029 362.592 202.682C357.534 203.336 354.408 209.364 351.244 210.372C348.081 211.38 347.353 206.004 343.181 208.412C339.01 210.82 339.262 216.988 339.131 221.29C339.001 225.592 338.721 226.563 334.95 226.04C331.18 225.518 327.485 226.134 327.569 235.251C327.634 243.071 331.806 252.758 331.806 252.758L342.397 259.589Z" fill="#399B8E"/>
<path d="M335.78 253.757H335.733C335.608 253.743 335.494 253.68 335.415 253.582C335.337 253.484 335.3 253.359 335.313 253.234C337.945 229.727 358.121 209.896 363.384 205.874C363.483 205.798 363.608 205.765 363.731 205.782C363.855 205.799 363.966 205.864 364.042 205.963C364.117 206.062 364.15 206.187 364.134 206.31C364.117 206.433 364.052 206.545 363.953 206.621C358.755 210.587 338.841 230.156 336.246 253.337C336.233 253.451 336.178 253.557 336.092 253.634C336.006 253.712 335.895 253.755 335.78 253.757Z" fill="#FBFAFA"/>
<path d="M344.982 228.626C344.887 228.625 344.795 228.596 344.717 228.543C344.639 228.49 344.578 228.415 344.543 228.327C344.503 228.209 344.51 228.081 344.562 227.968C344.614 227.855 344.708 227.766 344.823 227.72C352.345 224.921 360.874 226.246 361.238 226.302C361.359 226.322 361.467 226.39 361.539 226.489C361.61 226.589 361.64 226.713 361.621 226.834C361.598 226.954 361.531 227.062 361.432 227.134C361.333 227.207 361.211 227.24 361.089 227.226C361.005 227.226 352.438 225.882 345.15 228.598C345.096 228.616 345.039 228.625 344.982 228.626Z" fill="#FBFAFA"/>
<path d="M338.281 242.754C338.215 242.753 338.151 242.739 338.091 242.712C338.032 242.684 337.979 242.645 337.935 242.595C334.807 238.953 332.687 234.555 331.786 229.839C331.776 229.778 331.779 229.716 331.794 229.656C331.809 229.597 331.835 229.541 331.871 229.491C331.908 229.442 331.953 229.4 332.006 229.368C332.059 229.337 332.117 229.316 332.178 229.307C332.238 229.297 332.3 229.3 332.36 229.315C332.419 229.33 332.475 229.356 332.525 229.392C332.574 229.429 332.616 229.474 332.648 229.527C332.679 229.58 332.7 229.638 332.709 229.699C333.602 234.229 335.642 238.454 338.635 241.97C338.694 242.039 338.731 242.123 338.744 242.212C338.756 242.301 338.743 242.392 338.706 242.474C338.669 242.557 338.609 242.626 338.534 242.676C338.459 242.725 338.371 242.753 338.281 242.754Z" fill="#FBFAFA"/>
<path d="M99.1201 117.331V261.772L246.958 176.422L246.949 45.1108L137.027 108.578L133.229 97.6315L99.1201 117.331Z" fill="#399B8E"/>
<path opacity="0.7" d="M99.1201 117.331V261.772L246.958 176.422L246.949 45.1108L137.027 108.578L133.229 97.6315L99.1201 117.331Z" fill="black"/>
<path d="M99.1201 261.772L106.698 130.462L254.536 45.1108L246.958 176.422L99.1201 261.772Z" fill="#CAC6C6"/>
<path d="M99.1201 261.773L110.487 132.655L258.324 47.2949L246.958 176.422L99.1201 261.773Z" fill="#399B8E"/>
<path opacity="0.7" d="M99.1201 261.773L110.487 132.655L258.324 47.2949L246.958 176.422L99.1201 261.773Z" fill="black"/>
<path d="M121.862 130.462V274.913L269.7 189.553V58.2417L159.769 121.709L155.98 110.762L121.862 130.462Z" fill="#399B8E"/>
<path opacity="0.5" d="M121.862 130.462V274.913L269.7 189.553V58.2417L159.769 121.709L155.98 110.762L121.862 130.462Z" fill="black"/>
<path d="M121.862 274.913L129.44 143.592L277.278 58.2417L269.7 189.553L121.862 274.913Z" fill="#CAC6C6"/>
<path d="M121.862 274.912L133.229 145.785L281.067 60.4248L269.7 189.552L121.862 274.912Z" fill="#399B8E"/>
<path opacity="0.5" d="M121.862 274.912L133.229 145.785L281.067 60.4248L269.7 189.552L121.862 274.912Z" fill="black"/>
<path d="M246.92 320.873C220.38 305.549 195.762 288.892 184.526 269.35L218.682 249.632L246.92 320.873Z" fill="#CAC6C6"/>
<path d="M148.393 145.785V290.226L296.23 204.875V73.5645L186.299 137.032L182.51 126.085L148.393 145.785Z" fill="#399B8E"/>
<path opacity="0.2" d="M148.393 145.785V290.226L296.23 204.875V73.5645L186.299 137.032L182.51 126.085L148.393 145.785Z" fill="black"/>
<path d="M190.984 188.488C190.611 188.488 190.555 188.059 190.555 187.807V64.6243C190.585 64.1465 190.725 63.6821 190.965 63.2675C191.204 62.853 191.537 62.4997 191.936 62.2353L298.638 0.643945C298.784 0.552803 298.951 0.501334 299.123 0.494629C299.497 0.494629 299.553 0.923905 299.553 1.17587V124.359C299.523 124.838 299.383 125.304 299.144 125.72C298.904 126.136 298.571 126.491 298.172 126.757L191.469 188.348C191.322 188.435 191.155 188.483 190.984 188.488Z" fill="#FBFAFA"/>
<path d="M299.068 0.924018C299.075 0.992244 299.075 1.0611 299.068 1.12932V124.312C299.037 124.709 298.918 125.095 298.719 125.44C298.521 125.786 298.248 126.083 297.92 126.309L191.217 187.9L191.031 187.984C191.018 187.917 191.018 187.847 191.031 187.779V64.5964C191.063 64.2008 191.183 63.8171 191.381 63.4734C191.58 63.1296 191.852 62.8343 192.179 62.6087L298.881 1.01734C298.94 0.976171 299.007 0.947583 299.077 0.933352M299.133 0.000149083C298.879 0.00771473 298.631 0.0817188 298.414 0.214789L191.712 61.8062C191.243 62.1143 190.853 62.528 190.572 63.0142C190.292 63.5004 190.129 64.0454 190.098 64.6058V187.788C190.098 188.516 190.462 188.936 191.031 188.936C191.285 188.93 191.533 188.856 191.749 188.722L298.452 127.13C298.923 126.824 299.315 126.411 299.595 125.925C299.876 125.438 300.037 124.892 300.066 124.331V1.14799C300.066 0.420093 299.702 -0.00918294 299.133 0.000149083Z" fill="#399B8E"/>
<path opacity="0.7" d="M299.068 0.924018C299.075 0.992244 299.075 1.0611 299.068 1.12932V124.312C299.037 124.709 298.918 125.095 298.719 125.44C298.521 125.786 298.248 126.083 297.92 126.309L191.217 187.9L191.031 187.984C191.018 187.917 191.018 187.847 191.031 187.779V64.5964C191.063 64.2008 191.183 63.8171 191.381 63.4734C191.58 63.1296 191.852 62.8343 192.179 62.6087L298.881 1.01734C298.94 0.976171 299.007 0.947583 299.077 0.933352M299.133 0.000149083C298.879 0.00771473 298.631 0.0817188 298.414 0.214789L191.712 61.8062C191.243 62.1143 190.853 62.528 190.572 63.0142C190.292 63.5004 190.129 64.0454 190.098 64.6058V187.788C190.098 188.516 190.462 188.936 191.031 188.936C191.285 188.93 191.533 188.856 191.749 188.722L298.452 127.13C298.923 126.824 299.315 126.411 299.595 125.925C299.876 125.438 300.037 124.892 300.066 124.331V1.14799C300.066 0.420093 299.702 -0.00918294 299.133 0.000149083Z" fill="#FBFAFA"/>
<path d="M201.464 69.2996L239.371 47.416V91.1832L201.464 113.067V69.2996Z" fill="#399B8E"/>
<path opacity="0.8" d="M201.464 69.2996L239.371 47.416V91.1832L201.464 113.067V69.2996Z" fill="#FBFAFA"/>
<path d="M233.687 58.3252V71.4834L232.492 72.1459V68.1238C232.492 65.9028 230.691 65.1469 228.451 66.4347L212.391 75.7201C210.161 77.0079 208.35 79.8542 208.35 82.0752V86.0973L207.165 86.8065V73.6764L233.687 58.3252Z" fill="#FBFAFA"/>
<path d="M226.39 91.8274C224.449 92.9472 222.872 91.7714 222.872 89.1864V68.124L217.991 70.7743V92.0047C217.991 94.5803 216.414 97.6039 214.473 98.6957L210.945 100.73V102.13L229.899 91.1835V89.793L226.39 91.8274Z" fill="#FBFAFA"/>
<path d="M246.92 45.2601C246.92 46.4733 248.012 46.8186 249.346 46.0533L286.226 24.7297C286.881 24.3588 287.44 23.8414 287.861 23.218C288.282 22.5947 288.553 21.8824 288.653 21.1368C288.653 19.933 287.561 19.5784 286.226 20.3529L249.374 41.63C248.709 42.0001 248.14 42.5216 247.714 43.1522C247.288 43.7829 247.016 44.5049 246.92 45.2601Z" fill="#455A64"/>
<path d="M246.92 58.3253C246.92 59.5384 248.012 59.8931 249.346 59.1185L286.198 37.8415C286.853 37.4706 287.412 36.9532 287.833 36.3299C288.254 35.7065 288.525 34.9942 288.625 34.2487C288.625 33.0448 287.533 32.6902 286.198 33.4648L249.346 54.7418C248.693 55.1118 248.134 55.6277 247.713 56.2493C247.292 56.8709 247.021 57.5814 246.92 58.3253Z" fill="#455A64"/>
<path d="M246.92 71.4835C246.92 72.6967 248.012 73.0513 249.346 72.2768L286.198 50.9997C286.852 50.6298 287.41 50.1138 287.831 49.4922C288.252 48.8706 288.524 48.1601 288.625 47.4162C288.625 46.2031 287.533 45.8485 286.198 46.623L249.346 67.9C248.693 68.27 248.134 68.7859 247.713 69.4076C247.292 70.0292 247.021 70.7397 246.92 71.4835Z" fill="#455A64"/>
<path d="M246.92 84.6134C246.92 85.8266 248.012 86.1812 249.346 85.4066L286.198 64.1296C286.852 63.7597 287.41 63.2437 287.831 62.6221C288.252 62.0005 288.524 61.29 288.625 60.5461C288.625 59.333 287.533 58.9783 286.198 59.7529L249.346 81.0299C248.693 81.3999 248.134 81.9158 247.713 82.5374C247.292 83.1591 247.021 83.8695 246.92 84.6134Z" fill="#455A64"/>
<path d="M201.464 124.013C201.464 125.227 202.546 125.581 203.89 124.807L286.227 77.2134C286.881 76.8445 287.44 76.3289 287.861 75.7071C288.282 75.0853 288.553 74.3742 288.653 73.6299C288.653 72.4167 287.561 72.0714 286.227 72.8367L203.89 120.43C203.236 120.798 202.676 121.314 202.255 121.936C201.833 122.558 201.563 123.269 201.464 124.013Z" fill="#455A64"/>
<path d="M201.464 137.143C201.464 138.356 202.546 138.711 203.89 137.936L286.227 90.3991C286.881 90.0282 287.441 89.5108 287.862 88.8875C288.282 88.2642 288.553 87.5518 288.653 86.8063C288.653 85.6024 287.561 85.2478 286.227 86.0224L203.89 133.56C203.236 133.928 202.676 134.443 202.255 135.065C201.833 135.687 201.563 136.399 201.464 137.143Z" fill="#455A64"/>
<path d="M201.464 150.283C201.464 151.487 202.546 151.842 203.89 151.067L286.227 103.53C286.881 103.159 287.441 102.642 287.862 102.018C288.282 101.395 288.553 100.683 288.653 99.9371C288.653 98.7333 287.561 98.3787 286.227 99.1532L203.89 146.691C203.234 147.06 202.674 147.577 202.253 148.2C201.831 148.824 201.561 149.537 201.464 150.283Z" fill="#455A64"/>
<path d="M148.393 290.226L174.924 174.238L322.761 88.8784L296.23 204.875L148.393 290.226Z" fill="#399B8E"/>
<path d="M184.563 183.319V269.35L218.681 249.651V163.628L184.563 183.319Z" fill="#399B8E"/>
<path opacity="0.2" d="M184.563 183.319V269.35L218.681 249.651V163.628L184.563 183.319Z" fill="black"/>
<path d="M246.985 320.312C244.083 318.147 216.106 296.768 201.884 266.187C186.747 233.674 186.766 195.749 186.766 181.48V181.032L288.186 122.483C288.186 136.882 288.186 174.864 303.388 207.488C317.283 237.351 344.188 258.46 348.452 261.689L246.985 320.312Z" fill="#FBFAFA"/>
<path d="M287.72 123.323C287.72 138.328 288.009 175.582 302.968 207.721C316.397 236.557 341.93 257.293 347.613 261.67L247.014 319.752C243.085 316.794 216.162 295.769 202.313 266.028C187.195 233.608 187.195 195.758 187.195 181.508V181.33L287.682 123.313M288.616 121.699L186.262 180.798C186.262 194.227 185.982 233.244 201.427 266.42C216.628 298.979 246.92 320.872 246.92 320.872L349.302 261.763C349.302 261.763 318.973 239.87 303.818 207.311C288.364 174.135 288.653 135.118 288.653 121.689L288.616 121.699Z" fill="#399B8E"/>
<path opacity="0.7" d="M287.72 123.323C287.72 138.328 288.009 175.582 302.968 207.721C316.397 236.557 341.93 257.293 347.613 261.67L247.014 319.752C243.085 316.794 216.162 295.769 202.313 266.028C187.195 233.608 187.195 195.758 187.195 181.508V181.33L287.682 123.313M288.616 121.699L186.262 180.798C186.262 194.227 185.982 233.244 201.427 266.42C216.628 298.979 246.92 320.872 246.92 320.872L349.302 261.763C349.302 261.763 318.973 239.87 303.818 207.311C288.364 174.135 288.653 135.118 288.653 121.689L288.616 121.699Z" fill="#FBFAFA"/>
<path d="M277.072 141.52L244.708 160.184C244.06 160.541 243.508 161.049 243.099 161.664C242.689 162.28 242.435 162.986 242.356 163.721C242.403 164.906 243.532 165.242 244.867 164.468L277.24 145.804C277.88 145.45 278.426 144.949 278.834 144.342C279.241 143.735 279.498 143.04 279.582 142.313C279.526 141.082 278.415 140.746 277.072 141.52Z" fill="#455A64"/>
<path d="M277.762 154.258L245.399 172.922C244.759 173.267 244.216 173.767 243.821 174.377C243.427 174.988 243.192 175.688 243.141 176.413C243.243 177.561 244.419 177.868 245.754 177.094L278.126 158.43C278.763 158.087 279.302 157.588 279.693 156.978C280.083 156.369 280.311 155.671 280.357 154.949C280.263 153.792 279.106 153.512 277.762 154.258Z" fill="#455A64"/>
<path d="M279.06 166.642L246.687 185.306C245.352 186.081 244.382 187.621 244.54 188.731C244.699 189.842 245.922 190.131 247.265 189.357L279.638 170.692C280.973 169.918 281.924 168.387 281.757 167.277C281.589 166.166 280.394 165.868 279.06 166.642Z" fill="#455A64"/>
<path d="M281.001 178.653L248.628 197.317C247.294 198.091 246.37 199.603 246.594 200.685C246.818 201.768 248.087 202.011 249.394 201.236L281.757 182.572C283.101 181.797 283.997 180.295 283.773 179.213C283.549 178.13 282.382 177.878 281.001 178.653Z" fill="#455A64"/>
<path d="M283.632 190.262L251.259 208.926C249.925 209.7 249.057 211.175 249.393 212.211C249.729 213.247 251.007 213.48 252.342 212.705L284.714 194.041C286.058 193.267 286.898 191.802 286.581 190.756C286.264 189.711 284.966 189.487 283.632 190.262Z" fill="#455A64"/>
<path d="M287.048 201.45L208.155 247C206.82 247.775 206.008 249.212 206.372 250.21C206.736 251.209 208.127 251.395 209.461 250.621L288.354 205.071C289.698 204.297 290.472 202.869 290.108 201.861C289.745 200.853 288.335 200.676 287.048 201.45Z" fill="#455A64"/>
<path d="M291.201 212.136L212.317 257.685C210.973 258.46 210.236 259.86 210.684 260.811C211.132 261.763 212.55 261.913 213.913 261.138L292.806 215.588C294.15 214.814 294.868 213.414 294.42 212.462C293.972 211.51 292.544 211.37 291.201 212.136Z" fill="#455A64"/>
<path d="M296.379 222.317L217.486 267.866C216.143 268.641 215.48 270.004 216.012 270.909C216.544 271.814 218.065 271.907 219.409 271.133L298.246 225.583C299.58 224.818 300.224 223.465 299.692 222.559C299.16 221.654 297.686 221.542 296.379 222.317Z" fill="#455A64"/>
<path d="M302.418 231.948L223.534 277.488C222.191 278.262 221.593 279.597 222.2 280.446C222.807 281.295 224.402 281.379 225.746 280.595L304.63 235.046C305.974 234.271 306.552 232.955 305.946 232.097C305.339 231.238 303.762 231.173 302.418 231.948Z" fill="#455A64"/>
<path d="M309.305 241.102L230.412 286.643C229.077 287.417 228.546 288.714 229.217 289.526C229.889 290.338 231.541 290.376 232.885 289.601L311.778 244.033C313.112 243.258 313.644 241.98 312.954 241.168C312.263 240.356 310.649 240.3 309.305 241.102Z" fill="#455A64"/>
<path d="M316.91 249.818L238.045 295.359C236.701 296.133 236.179 297.402 236.963 298.158C237.747 298.914 239.408 298.933 240.742 298.158L319.635 252.609C320.979 251.834 321.446 250.584 320.699 249.809C319.952 249.035 318.273 249.053 316.91 249.818Z" fill="#455A64"/>
<path d="M325.309 258.152L246.416 303.692C245.082 304.467 244.643 305.708 245.483 306.445C246.323 307.183 248.04 307.155 249.384 306.38L328.212 260.83C329.546 260.056 329.966 258.843 329.145 258.096C328.324 257.35 326.616 257.378 325.309 258.152Z" fill="#455A64"/>
<path d="M232.978 166.987L195.762 188.451C196.172 201.936 197.712 221.384 203.349 240.972L240.574 219.508C234.928 199.92 233.388 180.463 232.978 166.987Z" fill="#399B8E"/>
<path opacity="0.8" d="M232.978 166.987L195.762 188.451C196.172 201.936 197.712 221.384 203.349 240.972L240.574 219.508C234.928 199.92 233.388 180.463 232.978 166.987Z" fill="#FBFAFA"/>
<path d="M210.936 185.483C210.986 184.613 210.85 183.742 210.538 182.928C210.226 182.113 209.744 181.375 209.125 180.761L195.762 188.469C195.874 192.034 196.06 196.019 196.387 200.312C198.125 200.512 199.884 200.187 201.436 199.379C206.69 196.971 210.936 190.728 210.936 185.483Z" fill="#399B8E"/>
<path opacity="0.6" d="M210.936 185.483C210.986 184.613 210.85 183.742 210.538 182.928C210.226 182.113 209.744 181.375 209.125 180.761L195.762 188.469C195.874 192.034 196.06 196.019 196.387 200.312C198.125 200.512 199.884 200.187 201.436 199.379C206.69 196.971 210.936 190.728 210.936 185.483Z" fill="#FBFAFA"/>
<path d="M237.411 206.63C234.929 203.504 229.88 193.845 227.724 189.636C227.64 189.47 227.507 189.333 227.343 189.243C227.18 189.152 226.993 189.113 226.807 189.13C226.621 189.147 226.445 189.22 226.301 189.338C226.156 189.457 226.051 189.616 225.998 189.795C223.666 197.767 222.312 205.993 221.966 214.291C218.858 211.824 216.186 208.853 214.062 205.501C213.972 205.371 213.846 205.27 213.7 205.209C213.553 205.148 213.393 205.13 213.237 205.158C213.081 205.185 212.936 205.257 212.819 205.364C212.703 205.471 212.619 205.609 212.578 205.762C208.51 221.43 210.553 236.847 210.553 236.847L240.574 219.508C239.324 215.178 238.288 210.867 237.411 206.63Z" fill="#399B8E"/>
<path opacity="0.6" d="M237.411 206.63C234.929 203.504 229.88 193.845 227.724 189.636C227.64 189.47 227.507 189.333 227.343 189.243C227.18 189.152 226.993 189.113 226.807 189.13C226.621 189.147 226.445 189.22 226.301 189.338C226.156 189.457 226.051 189.616 225.998 189.795C223.666 197.767 222.312 205.993 221.966 214.291C218.858 211.824 216.186 208.853 214.062 205.501C213.972 205.371 213.846 205.27 213.7 205.209C213.553 205.148 213.393 205.13 213.237 205.158C213.081 205.185 212.936 205.257 212.819 205.364C212.703 205.471 212.619 205.609 212.578 205.762C208.51 221.43 210.553 236.847 210.553 236.847L240.574 219.508C239.324 215.178 238.288 210.867 237.411 206.63Z" fill="#FBFAFA"/>
</svg>
