<svg width="652" height="666" viewBox="0 0 652 666" fill="none" xmlns="http://www.w3.org/2000/svg">
<path d="M376.655 214.94L377.033 214.773C376.897 214.804 376.769 214.86 376.655 214.94Z" fill="black"/>
<path d="M38.5557 247.431L38.8737 247.279C38.7598 247.311 38.6522 247.362 38.5557 247.431Z" fill="black"/>
<path d="M357.441 538.762C359.285 537.491 360.973 536.007 362.468 534.341C364.169 532.861 365.693 531.189 367.01 529.359C365.161 530.624 363.473 532.108 361.983 533.78C360.282 535.26 358.758 536.931 357.441 538.762Z" fill="#E0E0E0"/>
<path d="M354.262 536.946C355.6 535.247 356.555 533.279 357.063 531.177C357.826 529.149 358.136 526.979 357.971 524.818C357.744 524.818 357.351 527.619 356.306 530.95C355.261 534.281 354.08 536.84 354.262 536.946Z" fill="#E0E0E0"/>
<path d="M346.798 524.758C347.199 526.962 347.844 529.115 348.721 531.177C349.373 533.321 350.267 535.383 351.385 537.324C351.005 535.115 350.36 532.959 349.463 530.905C348.831 528.754 347.936 526.689 346.798 524.758Z" fill="#E0E0E0"/>
<path d="M628.423 504.137C630.322 502.991 631.986 501.496 633.329 499.731C634.85 498.116 636.066 496.238 636.917 494.189C635.41 495.788 633.99 497.466 632.662 499.216C630.391 501.956 628.272 503.97 628.423 504.137Z" fill="#E0E0E0"/>
<path d="M625.092 504.544C625.493 500.508 625.37 496.437 624.729 492.432C624.411 494.434 624.34 496.468 624.517 498.488C624.454 500.523 624.648 502.557 625.092 504.544Z" fill="#E0E0E0"/>
<path d="M611.557 494.34C612.519 496.271 613.709 498.08 615.1 499.73C616.293 501.525 617.69 503.177 619.263 504.65C618.314 502.715 617.129 500.905 615.736 499.26C614.551 497.454 613.147 495.802 611.557 494.34Z" fill="#E0E0E0"/>
<path d="M591.42 583.698C593.457 582.515 595.357 581.108 597.083 579.505C598.971 578.1 600.698 576.49 602.231 574.705C600.196 575.893 598.297 577.299 596.568 578.899C594.68 580.303 592.953 581.913 591.42 583.698Z" fill="#E0E0E0"/>
<path d="M587.439 582.427C587.963 579.147 587.963 575.805 587.439 572.525C586.914 575.805 586.914 579.147 587.439 582.427Z" fill="#E0E0E0"/>
<path d="M575.311 572.949C575.92 575.357 576.989 577.625 578.46 579.626C579.707 581.775 581.363 583.657 583.335 585.168C583.502 585.001 581.321 582.563 579.111 579.202C576.901 575.841 575.523 572.858 575.311 572.949Z" fill="#E0E0E0"/>
<path d="M260.755 494.28C262.146 493.372 263.383 492.247 264.419 490.949C265.621 489.825 266.642 488.523 267.447 487.088C266.052 487.991 264.815 489.116 263.783 490.419C262.576 491.537 261.554 492.84 260.755 494.28Z" fill="#E0E0E0"/>
<path d="M256.864 492.781C257.772 491.455 258.453 489.986 258.878 488.436C259.547 486.976 259.972 485.416 260.134 483.818C259.238 485.15 258.563 486.617 258.136 488.164C257.468 489.625 257.039 491.184 256.864 492.781Z" fill="#E0E0E0"/>
<path d="M251.595 492.87C251.389 489.617 250.664 486.417 249.445 483.393C249.413 485.029 249.643 486.659 250.127 488.222C250.36 489.841 250.856 491.411 251.595 492.87Z" fill="#E0E0E0"/>
<path d="M268.764 592.359C270.812 591.097 272.711 589.609 274.427 587.923C276.32 586.44 278.046 584.754 279.575 582.896C277.536 584.171 275.638 585.658 273.912 587.333C272.019 588.816 270.293 590.502 268.764 592.359Z" fill="#E0E0E0"/>
<path d="M265.025 592.359C265.9 590.787 266.533 589.093 266.902 587.332C267.533 585.651 267.916 583.886 268.038 582.094C267.164 583.668 266.527 585.361 266.145 587.12C265.523 588.804 265.145 590.568 265.025 592.359Z" fill="#E0E0E0"/>
<path d="M256.622 592.768C256.541 589.541 255.932 586.35 254.82 583.32C254.901 586.547 255.51 589.738 256.622 592.768Z" fill="#E0E0E0"/>
<path d="M39.7366 533.418C43.1111 530.644 46.1315 527.466 48.73 523.955C46.9588 525.243 45.352 526.743 43.9456 528.421C42.348 529.913 40.9349 531.59 39.7366 533.418Z" fill="#E0E0E0"/>
<path d="M33.8169 532.918C34.3618 529.335 34.3618 525.69 33.8169 522.107C33.292 525.692 33.292 529.333 33.8169 532.918Z" fill="#E0E0E0"/>
<path d="M24.6719 532.993C24.8839 532.887 23.9452 530.768 23.2639 528.042C22.5825 525.317 22.4009 523.001 22.1738 523.016C21.8279 524.751 21.9428 526.547 22.5068 528.224C22.8086 529.973 23.5541 531.615 24.6719 532.993Z" fill="#E0E0E0"/>
<path d="M0 629.5C0 629.788 106.391 630 237.5 630C368.609 630 475 629.788 475 629.5C475 629.212 368.684 629 237.5 629C106.316 629 0 629.231 0 629.5Z" fill="#263238"/>
<path d="M257.878 70.6514L271.505 73.0738C276.554 78.7974 283.105 82.9932 290.415 85.1861C299.345 87.8971 308.931 87.5037 317.609 84.0701C326.287 80.6364 333.546 74.365 338.204 66.2776C342.862 58.1903 344.643 48.7639 343.258 39.5345C341.873 30.3051 337.403 21.8169 330.577 15.453C323.75 9.0891 314.97 5.22476 305.666 4.48969C296.362 3.75462 287.084 6.19214 279.343 11.4051C271.602 16.618 265.854 24.299 263.037 33.1963C260.22 42.0937 260.499 51.6829 263.829 60.4014L257.878 70.6514Z" fill="#FAFAFA"/>
<path d="M257.879 70.6518L258.242 70.0159L259.362 68.0477L263.738 60.3564C263.757 60.3404 263.781 60.3316 263.806 60.3316C263.831 60.3316 263.855 60.3404 263.874 60.3564L263.692 60.4624C261.238 54.0893 260.395 47.2087 261.24 40.4317C261.5 38.2951 261.936 36.1835 262.542 34.1182C262.845 33.0432 263.284 31.9985 263.647 30.8933C264.035 29.787 264.501 28.7093 265.04 27.6684C267.232 23.0751 270.255 18.9274 273.958 15.435C278.231 11.4214 283.302 8.35337 288.84 6.43076C294.378 4.50814 300.26 3.77414 306.101 4.27658C312.548 4.91527 318.763 7.02328 324.269 10.4387C325.692 11.3094 327.057 12.2702 328.357 13.3154C329.038 13.7998 329.613 14.4357 330.249 14.9808C330.885 15.5258 331.521 16.1012 332.081 16.7219C333.263 17.9533 334.365 19.2579 335.382 20.6281C335.882 21.3246 336.411 22.0059 336.896 22.7175L338.228 24.928C341.479 30.5378 343.373 36.8299 343.76 43.3019C344.146 49.774 343.014 56.2468 340.454 62.2035C338.161 67.4756 334.8 72.2155 330.584 76.1242C326.368 80.033 321.387 83.0258 315.957 84.914C311.176 86.5433 306.136 87.2773 301.089 87.0791C298.803 87.0107 296.525 86.7677 294.276 86.3523C292.194 85.8934 290.142 85.312 288.129 84.6112C281.664 82.2599 275.894 78.3183 271.353 73.15L261.179 71.2877L258.605 70.8032L257.742 70.6215L258.651 70.7729L261.27 71.212L271.52 73.044C276.049 78.1315 281.772 82.0129 288.174 84.3387C290.159 85.0149 292.181 85.576 294.231 86.0193C296.46 86.4304 298.717 86.6683 300.983 86.7309C309.166 86.9332 317.224 84.694 324.13 80.2987C331.036 75.9035 336.476 69.5513 339.757 62.0521C342.304 56.1719 343.442 49.7785 343.082 43.3808C342.722 36.9831 340.873 30.7579 337.683 25.2005L336.381 23.0052C335.897 22.3087 335.382 21.6274 334.867 20.9461C333.927 19.5831 332.911 18.274 331.824 17.0247C331.264 16.404 330.598 15.8741 330.007 15.2987C329.41 14.7213 328.784 14.1755 328.13 13.6636C326.84 12.6301 325.49 11.6746 324.087 10.8021C318.631 7.43982 312.479 5.36842 306.101 4.74592C297.779 4.00567 289.429 5.81694 282.161 9.93875C274.894 14.0606 269.054 20.2975 265.418 27.8198C264.884 28.8558 264.424 29.9284 264.041 31.0295C263.662 32.1045 263.238 33.1492 262.92 34.2242C262.316 36.2701 261.875 38.3611 261.603 40.4771C260.739 47.2044 261.539 54.0411 263.935 60.3867C263.947 60.4074 263.953 60.4309 263.953 60.4548C263.953 60.4787 263.947 60.5022 263.935 60.5229C263.917 60.5353 263.896 60.5419 263.874 60.5419C263.852 60.5419 263.831 60.5353 263.814 60.5229H263.965L259.514 68.0931L258.348 70.0613C258.03 70.4247 257.879 70.6518 257.879 70.6518Z" fill="#263238"/>
<path d="M315.033 46.8355C315.03 46.003 315.274 45.1884 315.734 44.4945C316.194 43.8007 316.85 43.2589 317.618 42.9375C318.386 42.6162 319.232 42.5298 320.049 42.6893C320.866 42.8487 321.617 43.2469 322.208 43.8334C322.799 44.42 323.202 45.1685 323.368 45.9844C323.533 46.8002 323.453 47.6468 323.137 48.4171C322.821 49.1873 322.284 49.8466 321.593 50.3116C320.903 50.7765 320.09 51.0263 319.258 51.0293C318.704 51.0333 318.156 50.9278 317.643 50.7188C317.131 50.5099 316.665 50.2016 316.272 49.8117C315.88 49.4219 315.568 48.9582 315.356 48.4474C315.143 47.9366 315.033 47.3888 315.033 46.8355Z" fill="#263238"/>
<path d="M298.243 46.8365C298.243 46.007 298.489 45.1961 298.95 44.5065C299.41 43.8168 300.065 43.2792 300.832 42.9618C301.598 42.6444 302.441 42.5613 303.255 42.7232C304.068 42.885 304.816 43.2844 305.402 43.8709C305.989 44.4575 306.388 45.2047 306.55 46.0183C306.712 46.8318 306.629 47.675 306.311 48.4414C305.994 49.2077 305.456 49.8627 304.767 50.3235C304.077 50.7844 303.266 51.0303 302.437 51.0303C301.324 51.0303 300.258 50.5885 299.471 49.802C298.685 49.0155 298.243 47.9487 298.243 46.8365Z" fill="#263238"/>
<path d="M281.497 48.9263C281.079 48.2095 280.882 47.3845 280.933 46.5559C280.983 45.7273 281.279 44.9323 281.781 44.2717C282.284 43.611 282.971 43.1144 283.756 42.8447C284.541 42.575 285.389 42.5444 286.191 42.7567C286.994 42.969 287.715 43.4147 288.264 44.0373C288.814 44.66 289.165 45.4316 289.276 46.2543C289.386 47.0771 289.249 47.9141 288.884 48.6593C288.518 49.4045 287.939 50.0243 287.221 50.4403C286.746 50.7177 286.221 50.8985 285.676 50.9725C285.131 51.0465 284.576 51.0122 284.045 50.8715C283.513 50.7309 283.014 50.4866 282.577 50.1528C282.14 49.819 281.773 49.4022 281.497 48.9263Z" fill="#263238"/>
<path d="M457.761 82.8104L445.271 85.036C438.991 92.1496 430.278 96.6567 420.844 97.6714C411.41 98.686 401.938 96.1348 394.289 90.5191C386.641 84.9035 381.37 76.6299 379.513 67.3249C377.656 58.0199 379.347 48.3568 384.254 40.2355C389.16 32.1141 396.927 26.1221 406.028 23.4376C415.129 20.753 424.905 21.5701 433.434 25.7282C441.963 29.8863 448.628 37.0845 452.118 45.9077C455.608 54.7309 455.672 64.5407 452.296 73.4082L457.761 82.8104Z" fill="#FAFAFA"/>
<path d="M457.761 82.8096L457.428 82.204L456.414 80.4023L452.387 73.3469C452.38 73.3375 452.37 73.3299 452.36 73.3246C452.349 73.3194 452.338 73.3166 452.326 73.3166C452.314 73.3166 452.303 73.3194 452.292 73.3246C452.282 73.3299 452.273 73.3375 452.266 73.3469L452.432 73.4377C455.442 65.6997 455.815 57.1846 453.492 49.2132C453.204 48.2291 452.811 47.2601 452.477 46.2608C452.126 45.2225 451.701 44.2106 451.206 43.2328C449.194 39.0265 446.422 35.2281 443.03 32.0289C439.113 28.3494 434.465 25.5363 429.389 23.7728C424.312 22.0094 418.921 21.3351 413.567 21.7941C407.658 22.3846 401.962 24.3161 396.912 27.4414C395.613 28.2469 394.364 29.1318 393.173 30.091C392.537 30.53 392.022 31.1054 391.432 31.605C390.841 32.1046 390.266 32.6345 389.751 33.2099C388.673 34.341 387.662 35.534 386.723 36.783C386.269 37.4189 385.784 38.0548 385.33 38.7058L384.119 40.7346C381.156 45.8869 379.442 51.6615 379.114 57.5957C378.785 63.5298 379.851 69.4584 382.226 74.9064C384.309 79.739 387.372 84.0869 391.221 87.6754C395.07 91.2639 399.622 94.0149 404.589 95.7546C408.921 97.2612 413.494 97.9591 418.079 97.8137C420.172 97.7505 422.257 97.5278 424.316 97.1475C426.227 96.7548 428.113 96.2492 429.964 95.6335C435.886 93.4816 441.175 89.8794 445.346 85.1564L454.673 83.4455L457.035 82.9913L457.822 82.8399L456.989 82.9762L454.582 83.3698L445.316 84.8838C441.148 89.5549 435.882 93.1141 429.994 95.2398C428.153 95.8536 426.277 96.3591 424.377 96.7539C422.331 97.1164 420.261 97.3289 418.185 97.3898C411.502 97.5862 404.888 96 399.022 92.7943C393.156 89.5886 388.249 84.8789 384.805 79.1491C381.361 73.4192 379.505 66.8759 379.427 60.1913C379.349 53.5066 381.052 46.9217 384.361 41.1131L385.572 39.0995C386.011 38.4636 386.481 37.8428 386.935 37.2221C387.865 35.9757 388.877 34.7922 389.963 33.6792C390.463 33.1039 391.068 32.6345 391.613 32.1652C392.158 31.6958 392.703 31.0902 393.339 30.6512C394.512 29.702 395.746 28.832 397.034 28.047C402.029 24.9446 407.67 23.0282 413.521 22.4451C418.819 21.9883 424.154 22.6499 429.18 24.387C434.206 26.1241 438.811 28.8978 442.697 32.5286C446.061 35.6856 448.813 39.4379 450.812 43.5961C451.305 44.5441 451.729 45.5256 452.084 46.5334C452.432 47.5175 452.826 48.4865 453.113 49.4554C453.661 51.3349 454.066 53.2531 454.325 55.1936C455.097 61.3333 454.364 67.5686 452.19 73.362C452.175 73.3787 452.167 73.4003 452.167 73.4226C452.167 73.4449 452.175 73.4665 452.19 73.4832C452.205 73.4943 452.224 73.5002 452.243 73.5002C452.262 73.5002 452.28 73.4943 452.296 73.4832H452.16L456.232 80.4326L457.383 82.1283L457.761 82.8096Z" fill="#263238"/>
<path d="M405.376 60.9326C405.379 60.1683 405.155 59.4204 404.732 58.7835C404.31 58.1466 403.708 57.6494 403.003 57.3549C402.298 57.0603 401.521 56.9817 400.771 57.129C400.021 57.2762 399.332 57.6428 398.79 58.1821C398.249 58.7214 397.88 59.4093 397.73 60.1586C397.579 60.908 397.655 61.685 397.947 62.3914C398.238 63.0977 398.733 63.7016 399.368 64.1265C400.004 64.5514 400.751 64.7782 401.515 64.7782C402.021 64.7802 402.523 64.6822 402.991 64.4898C403.46 64.2975 403.885 64.0145 404.244 63.6572C404.603 63.2999 404.887 62.8753 405.082 62.4077C405.276 61.9402 405.376 61.4389 405.376 60.9326Z" fill="#263238"/>
<path d="M420.698 60.9316C420.698 60.171 420.472 59.4275 420.05 58.7951C419.627 58.1626 419.027 57.6697 418.324 57.3787C417.621 57.0876 416.848 57.0114 416.102 57.1598C415.356 57.3082 414.671 57.6745 414.133 58.2123C413.595 58.7501 413.229 59.4354 413.08 60.1813C412.932 60.9273 413.008 61.7006 413.299 62.4033C413.59 63.106 414.083 63.7066 414.716 64.1291C415.348 64.5517 416.092 64.7772 416.852 64.7772C417.872 64.7772 418.85 64.3721 419.571 63.6509C420.293 62.9297 420.698 61.9515 420.698 60.9316Z" fill="#263238"/>
<path d="M436.111 62.9008C436.491 62.242 436.667 61.4854 436.617 60.7264C436.567 59.9675 436.294 59.2404 435.831 58.6371C435.368 58.0337 434.736 57.5812 434.016 57.3368C433.296 57.0924 432.519 57.067 431.784 57.2639C431.05 57.4608 430.39 57.8711 429.889 58.4429C429.387 59.0148 429.066 59.7225 428.967 60.4765C428.868 61.2306 428.994 61.9972 429.331 62.6793C429.667 63.3614 430.198 63.9285 430.857 64.3088C431.294 64.5614 431.777 64.7253 432.278 64.7912C432.779 64.8571 433.288 64.8238 433.776 64.693C434.263 64.5623 434.721 64.3367 435.121 64.0292C435.522 63.7216 435.858 63.3382 436.111 62.9008Z" fill="#263238"/>
<path d="M194.077 572.493L192.397 607.316C192.397 607.316 226.765 620.761 227.068 627.241L160.284 626.423L160.693 571.918L194.077 572.493Z" fill="#263238"/>
<path d="M171.806 604.182C171.157 604.373 170.602 604.797 170.247 605.373C169.892 605.949 169.762 606.636 169.883 607.301C170.039 607.955 170.44 608.524 171.004 608.891C171.567 609.257 172.25 609.393 172.911 609.27C173.599 609.062 174.186 608.606 174.558 607.991C174.93 607.376 175.061 606.645 174.925 605.939C174.694 605.273 174.211 604.723 173.58 604.409C172.949 604.095 172.219 604.041 171.549 604.258" fill="#E0E0E0"/>
<path d="M160.284 626.424L160.526 620.943L224.419 623.835C224.419 623.835 227.447 625.183 227.008 627.302L160.284 626.424Z" fill="#455A64"/>
<path d="M193.487 607.044C193.487 607.377 191.837 607.513 190.232 608.558C188.627 609.603 187.734 610.98 187.446 610.844C187.158 610.708 187.643 608.8 189.626 607.574C191.61 606.348 193.593 606.741 193.487 607.044Z" fill="white"/>
<path d="M200.451 610.088C200.527 610.406 199.104 610.951 197.984 612.329C196.863 613.707 196.47 615.191 196.197 615.176C195.924 615.16 195.682 613.283 197.105 611.587C198.529 609.892 200.451 609.77 200.451 610.088Z" fill="white"/>
<path d="M204.312 618.642C204.025 618.642 203.586 617.052 204.449 615.25C205.312 613.449 206.841 612.737 206.977 613.025C207.113 613.312 206.159 614.251 205.463 615.75C204.766 617.249 204.645 618.612 204.312 618.642Z" fill="white"/>
<path d="M193.002 599.065C192.866 599.353 191.367 598.883 189.535 598.989C187.703 599.095 186.235 599.655 186.083 599.368C185.932 599.08 187.31 597.929 189.475 597.854C191.64 597.778 193.169 598.792 193.002 599.065Z" fill="white"/>
<path d="M115.454 584.168L111.835 626.258L118.436 660.384C118.551 660.963 118.547 661.558 118.423 662.135C118.3 662.712 118.06 663.257 117.718 663.737C117.377 664.218 116.941 664.624 116.437 664.93C115.933 665.236 115.372 665.436 114.788 665.517C114.112 665.601 113.427 665.52 112.789 665.283C112.151 665.046 111.58 664.659 111.124 664.154C105.173 657.568 83.4168 633.238 83.871 630.179C84.3706 626.621 84.7794 585.515 84.7794 585.515L115.454 584.168Z" fill="#263238"/>
<path d="M114.787 665.516L84.0223 627.332L83.9163 629.119C83.807 630.661 84.2528 632.191 85.173 633.434C87.6106 636.749 94.5297 645.758 111.002 664.138C111.469 664.665 112.059 665.067 112.72 665.307C113.381 665.548 114.092 665.62 114.787 665.516Z" fill="#455A64"/>
<g opacity="0.6">
<path d="M93.4093 614.28C93.8979 614.7 94.2166 615.284 94.3058 615.922C94.395 616.56 94.2485 617.209 93.8938 617.747C93.511 618.254 92.9456 618.591 92.3178 618.687C91.6901 618.783 91.0496 618.631 90.5327 618.262C90.0128 617.82 89.6744 617.201 89.5822 616.525C89.49 615.849 89.6506 615.163 90.0331 614.598C90.4862 614.108 91.1144 613.818 91.7809 613.789C92.4473 613.761 93.0979 613.997 93.5911 614.446" fill="white"/>
</g>
<path d="M106.46 646.47C107.541 645.229 108.846 644.202 110.306 643.442C111.866 642.927 113.511 642.717 115.151 642.821C115.151 642.73 114.681 642.367 113.728 642.155C112.456 641.933 111.148 642.08 109.958 642.579C108.761 643.078 107.735 643.914 107.005 644.986C106.46 645.804 106.354 646.425 106.46 646.47Z" fill="white"/>
<path d="M109.064 652.314C110.292 651.727 111.556 651.222 112.849 650.8C114.205 650.623 115.57 650.532 116.937 650.527C117.074 650.315 115.136 649.301 112.653 649.891C110.17 650.482 108.807 652.177 109.064 652.314Z" fill="white"/>
<path d="M101.418 638.869C101.6 639.081 103.765 637.097 107.111 636.038C110.457 634.978 113.334 635.266 113.349 634.993C113.364 634.72 110.397 633.979 106.824 635.159C104.639 635.716 102.723 637.031 101.418 638.869Z" fill="white"/>
<path d="M101.464 625.986C101.555 626.243 103.902 625.426 106.899 625.502C109.897 625.577 112.214 626.471 112.32 626.213C110.705 625.184 108.838 624.619 106.924 624.578C105.009 624.538 103.12 625.025 101.464 625.986Z" fill="white"/>
<path d="M102.206 613.554C102.327 613.811 104.719 612.555 107.868 612.903C109.745 613.232 111.566 613.829 113.273 614.674C113.349 614.584 112.94 614.023 112.017 613.403C110.794 612.618 109.404 612.131 107.959 611.979C106.514 611.826 105.053 612.029 103.705 612.57C102.675 613.039 102.16 613.554 102.206 613.554Z" fill="white"/>
<path d="M107.944 610.526C108.107 610.013 108.159 609.471 108.095 608.936C108.046 607.468 107.712 606.023 107.111 604.682C106.76 603.666 106.084 602.793 105.188 602.199C104.877 602.033 104.521 601.968 104.171 602.015C103.821 602.061 103.494 602.215 103.235 602.456C102.755 602.96 102.475 603.622 102.448 604.318C102.423 605.746 102.903 607.136 103.803 608.244C104.703 609.352 105.966 610.107 107.369 610.374C108.74 610.603 110.148 610.414 111.411 609.834C112.674 609.254 113.734 608.308 114.454 607.119C114.638 606.815 114.754 606.476 114.796 606.123C114.838 605.771 114.804 605.414 114.697 605.075C114.559 604.747 114.321 604.472 114.015 604.289C113.71 604.107 113.355 604.027 113.001 604.061C111.96 604.222 110.981 604.661 110.17 605.333C108.992 606.159 107.968 607.184 107.142 608.361C106.804 608.774 106.556 609.254 106.415 609.769C107.591 608.255 108.983 606.924 110.548 605.817C111.276 605.267 112.129 604.908 113.031 604.772C113.225 604.75 113.422 604.791 113.591 604.889C113.76 604.988 113.893 605.138 113.97 605.317C114.022 605.544 114.028 605.78 113.986 606.009C113.944 606.238 113.857 606.456 113.728 606.65C113.076 607.659 112.145 608.456 111.048 608.946C109.952 609.435 108.736 609.595 107.55 609.405C106.381 609.167 105.326 608.541 104.557 607.629C103.787 606.717 103.348 605.572 103.311 604.379C103.32 603.893 103.49 603.424 103.796 603.046C103.937 602.913 104.116 602.827 104.309 602.8C104.501 602.772 104.698 602.806 104.87 602.895C105.628 603.396 106.21 604.121 106.536 604.969C107.316 606.728 107.792 608.607 107.944 610.526Z" fill="white"/>
<path d="M225.388 287.235C228.603 301.706 229.69 316.569 228.613 331.354C227.901 340.741 196.818 600.141 196.818 600.141H154.743L166.567 356.381L163.115 357.138C163.115 357.138 140.148 461.122 138.27 477.958C136.59 493.098 115.968 612.026 115.968 612.026L76.2705 611.587L91.0323 458.064L105.34 318.53L110.715 277.924L225.388 287.235Z" fill="#263238"/>
<path d="M154.152 120.662L153.244 46.8071C152.426 28.4418 162.419 12.6656 180.799 12.3477L182.51 12.4234C190.761 12.7598 198.582 16.1922 204.416 22.0369C210.249 27.8815 213.666 35.7093 213.987 43.9607C214.623 59.8883 215.107 77.4814 214.638 85.9903C213.699 103.598 195.955 105.673 195.955 105.673C195.955 105.673 195.849 116.392 195.864 121.57L199.997 133.682L185.493 130.155L154.152 120.662Z" fill="#AE7461"/>
<path d="M195.955 105.612C187.802 105.266 179.919 102.586 173.244 97.8906C173.244 97.8906 178.226 111.366 195.864 110.503L195.955 105.612Z" fill="#6F4439"/>
<path d="M208.37 59.16C208.346 59.8173 208.067 60.4396 207.592 60.8947C207.118 61.3498 206.484 61.602 205.826 61.5976C205.506 61.6077 205.186 61.554 204.886 61.4396C204.587 61.3252 204.313 61.1524 204.08 60.9313C203.848 60.7101 203.662 60.4451 203.533 60.1514C203.403 59.8577 203.334 59.5413 203.328 59.2206C203.352 58.5659 203.628 57.9458 204.1 57.4911C204.572 57.0364 205.201 56.7825 205.857 56.783C206.178 56.7708 206.5 56.823 206.801 56.9365C207.103 57.0499 207.378 57.2224 207.612 57.4437C207.846 57.6651 208.034 57.9309 208.164 58.2256C208.294 58.5203 208.364 58.8379 208.37 59.16Z" fill="#263238"/>
<path d="M209.929 51.5911C209.596 51.909 207.749 50.4101 205.039 50.3041C202.329 50.1982 200.285 51.4699 200.012 51.1368C199.74 50.8038 200.209 50.395 201.103 49.8045C202.309 49.0448 203.721 48.6748 205.145 48.7447C206.556 48.7945 207.913 49.2931 209.021 50.1679C209.823 50.8492 210.081 51.4548 209.929 51.5911Z" fill="#263238"/>
<path d="M184.009 59.1613C183.993 59.8186 183.719 60.4431 183.246 60.8994C182.772 61.3558 182.138 61.6071 181.481 61.5989C181.16 61.6111 180.839 61.5588 180.539 61.4452C180.238 61.3315 179.963 61.1589 179.73 60.9373C179.497 60.7158 179.311 60.4499 179.183 60.1552C179.054 59.8606 178.986 59.5433 178.983 59.2219C178.998 58.5699 179.269 57.9499 179.735 57.4945C180.202 57.039 180.829 56.7841 181.481 56.7843C181.804 56.768 182.128 56.8172 182.432 56.9289C182.736 57.0407 183.015 57.2127 183.251 57.4346C183.487 57.6566 183.676 57.9239 183.806 58.2206C183.936 58.5174 184.005 58.8373 184.009 59.1613Z" fill="#263238"/>
<path d="M183.343 51.1223C183.025 51.4402 181.178 49.9414 178.468 49.8354C175.758 49.7294 173.714 51.0163 173.441 50.6681C173.169 50.3199 173.638 49.9262 174.531 49.3357C175.738 48.5761 177.149 48.2061 178.574 48.2759C179.984 48.3258 181.342 48.8243 182.45 49.6991C183.252 50.335 183.51 50.986 183.343 51.1223Z" fill="#263238"/>
<path d="M192.2 72.3339C193.648 71.9466 195.138 71.7381 196.636 71.7132C197.333 71.7132 197.999 71.5618 198.15 71.0924C198.251 70.3849 198.124 69.6636 197.787 69.0333C197.196 67.3225 196.591 65.551 195.955 63.6736C193.426 56.1035 191.625 49.8202 191.927 49.7142C192.23 49.6083 194.532 55.7704 197.06 63.3405C197.681 65.2179 198.256 67.0045 198.801 68.7154C199.21 69.5637 199.301 70.5307 199.058 71.4406C198.946 71.68 198.782 71.8913 198.578 72.059C198.374 72.2266 198.134 72.3464 197.878 72.4096C197.49 72.4965 197.094 72.5372 196.697 72.5307C195.195 72.653 193.685 72.5869 192.2 72.3339Z" fill="#263238"/>
<path d="M184.509 42.7631C184.115 43.4292 181.481 42.5965 178.331 42.3997C175.182 42.2029 172.442 42.5814 172.139 41.8547C172.018 41.5064 172.578 40.916 173.729 40.3406C175.25 39.7342 176.89 39.4805 178.523 39.5985C180.157 39.7165 181.743 40.2032 183.161 41.0219C184.282 41.6881 184.751 42.3543 184.509 42.7631Z" fill="#263238"/>
<path d="M210.384 43.6265C209.793 44.2321 207.613 43.5357 204.948 43.4297C202.284 43.3237 200.043 43.7174 199.543 43.0663C199.331 42.7484 199.695 42.1276 200.694 41.5523C202.066 40.8617 203.598 40.5532 205.13 40.659C206.655 40.7072 208.137 41.1734 209.415 42.0065C210.338 42.7635 210.626 43.3389 210.384 43.6265Z" fill="#263238"/>
<path d="M154.152 59.9185C153.85 59.7822 142.192 55.8457 142.04 67.8974C141.889 79.9491 154.062 77.5872 154.152 77.2541C154.243 76.921 154.152 59.9185 154.152 59.9185Z" fill="#AE7461"/>
<path d="M150.473 72.6358C150.473 72.6358 150.261 72.7872 149.913 72.9386C149.427 73.1324 148.885 73.1324 148.399 72.9386C147.127 72.4541 146.067 70.4253 146.037 68.2451C146.001 67.2009 146.214 66.1631 146.658 65.2171C146.773 64.86 146.97 64.5346 147.233 64.2666C147.496 63.9986 147.817 63.7953 148.172 63.6727C148.415 63.6136 148.671 63.6401 148.897 63.7476C149.124 63.8551 149.306 64.0372 149.413 64.2632C149.565 64.5963 149.489 64.8385 149.55 64.8688C149.61 64.8991 149.807 64.6569 149.716 64.1572C149.654 63.8576 149.487 63.5895 149.247 63.4002C149.087 63.272 148.902 63.1777 148.704 63.123C148.506 63.0684 148.3 63.0545 148.096 63.0823C147.601 63.1801 147.137 63.4003 146.749 63.7229C146.36 64.0455 146.058 64.4603 145.871 64.9294C145.353 65.9731 145.093 67.1257 145.114 68.2905C145.114 70.7281 146.4 73.0143 148.142 73.5291C148.464 73.6254 148.805 73.6482 149.137 73.5958C149.47 73.5434 149.787 73.4171 150.064 73.2263C150.458 72.9386 150.519 72.6661 150.473 72.6358Z" fill="#6F4439"/>
<path d="M238.348 28.0928C238.127 27.3832 237.653 26.7797 237.015 26.3971C235.599 25.7328 234.029 25.466 232.473 25.6249C228.632 25.5011 224.868 24.5071 221.466 22.718C222.669 22.1508 223.773 21.3943 224.737 20.4772C225.773 19.5454 226.532 18.3454 226.93 17.0097C227.328 15.674 227.35 14.2543 226.993 12.9071C226.94 12.6563 226.828 12.4215 226.668 12.2216C226.507 12.0218 226.302 11.8624 226.069 11.7564C225.282 11.499 224.555 12.256 224.04 12.8616C223.352 13.8147 222.418 14.5641 221.339 15.0305C220.26 15.4969 219.074 15.663 217.908 15.5112C216.307 15.392 214.754 14.9105 213.366 14.1031L213.23 13.9366L211.398 12.0592C206.856 7.5171 203.041 4.35276 199.044 2.68732C193.184 0.24973 183.343 -0.825233 177.181 0.719081C171.019 2.2634 165.447 7.18401 164.524 13.4672C161.117 10.4392 155.939 10.4392 151.73 12.1198H151.624C146.93 13.7398 144.22 18.6452 142.797 23.3993C142.706 23.6567 142.646 23.9141 142.57 24.1715C140.972 26.6751 138.79 28.7533 136.211 30.2276C135.757 30.485 135.242 30.8029 135.182 31.3177C135.194 31.5771 135.273 31.8289 135.411 32.049C135.549 32.2691 135.741 32.45 135.969 32.5743C137.084 33.3877 138.367 33.9412 139.724 34.1944C139.308 35.3185 138.801 36.4071 138.21 37.4495C137.665 38.3428 137.029 39.4026 137.483 40.3413C137.687 40.6866 137.993 40.9605 138.359 41.1258C138.725 41.291 139.133 41.3396 139.527 41.2649C140.314 41.1009 141.058 40.7705 141.707 40.2959C141.177 41.5374 140.647 42.7789 140.102 44.0204C141.796 44.3248 143.538 44.2315 145.189 43.7479C146.143 48.29 146.794 56.4658 147.899 59.509C151.109 59.5998 151.881 59.2516 153.486 59.8118C155.576 60.5234 154.743 64.2177 157.468 63.2033C158.861 62.6733 161.041 57.4499 161.526 56.057C164.707 46.6972 165.838 36.7624 164.841 26.927C166.804 24.8792 169.143 23.229 171.73 22.067L171.518 22.2486C176.469 20.5983 182.117 18.9783 186.659 21.3402C190.277 23.1873 192.367 26.9724 195.046 30.0156C197.304 32.784 200.123 35.0425 203.318 36.6422C206.512 38.242 210.009 39.1466 213.578 39.2967C214.214 44.6261 214.305 53.3317 214.517 58.3129L218.877 48.4111C219.226 47.8207 219.513 47.2453 219.801 46.6549L219.892 46.4732C220.318 45.5107 220.793 44.5708 221.315 43.6571C221.859 44.2594 222.62 44.6209 223.431 44.6621C224.241 44.7033 225.035 44.4207 225.638 43.8766C226.24 43.3325 226.601 42.5714 226.643 41.7608C226.684 40.9502 226.401 40.1564 225.857 39.554C225.432 38.9757 224.921 38.4653 224.343 38.04C224.946 38.6391 225.694 39.0713 226.514 39.2943C227.334 39.5172 228.198 39.5233 229.021 39.3118C229.832 39.0699 230.54 38.5684 231.038 37.8846C231.536 37.2008 231.796 36.3724 231.777 35.5267C231.738 34.9515 231.546 34.3971 231.222 33.9207C230.897 33.4443 230.451 33.0631 229.93 32.8166C232.119 33.0168 234.317 32.5581 236.243 31.4994C237.5 30.8029 238.741 29.6523 238.348 28.0928Z" fill="#263238"/>
<path d="M170.035 15.5117C169.393 15.9651 168.79 16.4715 168.233 17.0258C166.824 18.6986 165.87 20.7061 165.462 22.8548C165.142 24.348 164.975 25.8698 164.963 27.3969C164.963 29.032 165.038 30.7732 165.144 32.6052C165.292 34.5345 165.317 36.4713 165.22 38.4039C165.146 39.4225 164.999 40.4344 164.781 41.432C164.612 42.5075 164.175 43.523 163.509 44.3843C163.196 44.7247 162.799 44.9777 162.359 45.1184C161.918 45.2591 161.448 45.2827 160.996 45.1868C160.132 45.0168 159.349 44.564 158.77 43.8999C157.826 42.5595 157.256 40.9916 157.12 39.3577H157.498C156.951 40.6852 156.211 41.9249 155.303 43.0369C154.431 44.0687 153.194 44.7248 151.851 44.8688C151.227 44.9219 150.599 44.8069 150.034 44.5357C149.509 44.2557 149.081 43.8228 148.808 43.2942C148.557 42.8299 148.431 42.3079 148.444 41.7802C148.481 41.2676 148.689 40.7823 149.035 40.4024L149.217 40.5841C148.148 41.7734 146.843 42.7273 145.386 43.3851C145.002 43.5571 144.608 43.7037 144.205 43.8241L143.796 43.9301C143.796 43.9301 143.917 43.8544 144.19 43.7636C144.463 43.6728 144.841 43.5062 145.341 43.264C146.745 42.5634 148 41.5967 149.035 40.4176L149.217 40.5841C148.921 40.9504 148.748 41.3998 148.721 41.8695C148.694 42.3391 148.814 42.8055 149.065 43.2034C149.316 43.669 149.701 44.0486 150.17 44.2935C150.685 44.5352 151.255 44.6345 151.821 44.5812C153.073 44.431 154.221 43.8082 155.03 42.84C155.899 41.7502 156.608 40.5419 157.135 39.2518L157.392 38.6764L157.514 39.2972C157.63 40.8389 158.153 42.3224 159.028 43.597C159.547 44.1948 160.25 44.6045 161.026 44.7628C161.412 44.8417 161.811 44.819 162.186 44.6969C162.56 44.5748 162.896 44.3575 163.161 44.0664C163.779 43.2614 164.185 42.3138 164.342 41.3109C164.558 40.3135 164.7 39.3013 164.766 38.2828C164.887 36.372 164.887 34.4554 164.766 32.5446C164.675 30.6975 164.584 28.9563 164.614 27.306C164.641 25.7765 164.829 24.2541 165.175 22.7639C165.641 20.6263 166.659 18.6481 168.127 17.0258C168.67 16.4139 169.315 15.9015 170.035 15.5117Z" fill="#455A64"/>
<path d="M224.449 33.2699C224.449 33.2699 224.449 33.2699 224.313 33.391L223.874 33.6787C223.629 33.8479 223.377 34.0046 223.117 34.148C222.765 34.3562 222.401 34.5433 222.027 34.7082C219.647 35.7502 217.046 36.1871 214.456 35.98C210.607 35.6723 206.928 34.2638 203.858 31.9224C200.141 29.0445 197.049 25.4382 194.774 21.3242C193.502 19.1742 192.488 16.9637 191.352 14.9349C190.35 12.9345 189.065 11.0887 187.537 9.45413C186.137 8.00325 184.4 6.92136 182.48 6.30494C181.609 6.05568 180.705 5.94331 179.8 5.97186C178.961 6.00557 178.131 6.15328 177.332 6.41093C175.959 6.86429 174.699 7.60785 173.638 8.59113C172.826 9.32665 172.14 10.1912 171.609 11.1498C171.194 11.9882 170.879 12.8724 170.67 13.7843C170.67 13.7843 170.67 13.7843 170.67 13.6026C170.67 13.4209 170.671 13.2695 170.761 13.0575C170.913 12.3707 171.147 11.7048 171.458 11.0741C171.97 10.0805 172.646 9.17981 173.456 8.40945C174.537 7.39294 175.822 6.61869 177.226 6.1384C178.049 5.86419 178.904 5.70125 179.77 5.65391C180.709 5.61052 181.65 5.71786 182.556 5.97186C184.54 6.58411 186.337 7.68827 187.779 9.18161C189.364 10.8121 190.706 12.6632 191.761 14.6776C192.897 16.7215 193.926 18.932 195.168 21.0516C197.396 25.1445 200.423 28.7484 204.07 31.6499C207.085 33.969 210.698 35.3816 214.487 35.7226C217.035 35.9515 219.601 35.5619 221.966 34.5871C222.822 34.2045 223.652 33.7644 224.449 33.2699Z" fill="#455A64"/>
<path d="M226.145 25.5339C226.145 25.5339 225.933 25.7156 225.509 25.973C224.908 26.3285 224.28 26.6373 223.631 26.8965C222.653 27.3009 221.639 27.6151 220.603 27.8352C219.354 28.1088 218.082 28.2659 216.803 28.3046C215.52 28.3171 214.238 28.2157 212.973 28.0018C211.942 27.8134 210.93 27.5399 209.945 27.1842C209.282 26.9462 208.64 26.6577 208.022 26.3212C207.787 26.2209 207.568 26.0884 207.371 25.9276C207.371 25.8519 208.37 26.3666 210.035 26.9117C211.026 27.2219 212.038 27.4597 213.063 27.6233C214.301 27.8137 215.552 27.8998 216.803 27.8807C218.059 27.8451 219.309 27.7084 220.543 27.4719C221.547 27.263 222.533 26.9796 223.495 26.624C225.161 26.0184 226.114 25.4733 226.145 25.5339Z" fill="#455A64"/>
<path d="M191.958 78.661C191.746 78.661 182.434 75.0273 182.434 75.0273C182.434 75.0273 179.74 80.4022 183.01 82.87C186.28 85.3379 190.232 83.7936 190.853 82.3099C191.317 81.1249 191.687 79.9047 191.958 78.661Z" fill="#6F4439"/>
<path d="M189.853 83.3546C189.428 83.5167 188.993 83.6532 188.551 83.7634C187.338 83.9282 186.104 83.8562 184.918 83.5515C184.316 83.3812 183.755 83.0885 183.272 82.6916C182.788 82.2947 182.392 81.8023 182.108 81.2451C181.823 80.6879 181.657 80.078 181.62 79.4536C181.582 78.8291 181.674 78.2037 181.889 77.6165C182.096 76.7857 182.401 75.9826 182.798 75.2243L182.313 75.3908C185.145 76.4507 187.628 77.3439 189.414 77.9647C190.346 78.3574 191.322 78.637 192.321 78.7974C191.457 78.2655 190.539 77.829 189.581 77.4953C187.855 76.7535 185.402 75.7542 182.601 74.6641L182.283 74.543L182.117 74.8306C181.681 75.6506 181.346 76.5198 181.117 77.4196C180.892 78.1708 180.818 78.9596 180.901 79.7396C180.984 80.5196 181.223 81.2751 181.602 81.9617C182.357 83.0511 183.472 83.8392 184.751 84.1874C186.021 84.4848 187.342 84.4848 188.612 84.1874C189.55 83.8391 189.899 83.3698 189.853 83.3546Z" fill="#263238"/>
<path d="M274.2 227.37L242.405 247.356C230.944 253.412 222.632 249.021 219.877 239.331L220.164 203.782C220.164 203.782 240.377 193.017 243.45 192.548C244.48 192.396 246.009 213.199 246.009 213.199L276.668 204.615L284.405 220.285L274.2 227.37Z" fill="#AE7461"/>
<path d="M276.971 200.435C277.168 200.087 285.722 186.491 290.597 181.388C295.472 176.286 295.563 170.714 299.015 170.26C302.467 169.806 303.088 174.636 301.438 179.602C299.787 184.568 295.381 187.172 296.593 188.913C297.804 190.654 325.45 186.036 325.45 186.036C325.45 186.036 329.023 182.388 331.824 185.446C331.824 185.446 336.275 184.386 335.927 187.853C335.579 191.32 327.494 191.699 327.494 191.699L323.482 198.845L314.186 202.297C313.748 204.784 312.584 207.087 310.84 208.913C309.297 210.557 307.546 211.993 305.631 213.183C305.253 213.259 296.971 218.346 292.762 219.375C288.553 220.405 282.951 221.283 282.951 221.283L275.305 205.991C275.333 204.02 275.91 202.096 276.971 200.435Z" fill="#AE7461"/>
<path d="M314.049 202.812C314.837 200.783 315.192 198.612 315.094 196.438C314.761 193.516 312.066 180.571 310.749 180.314C309.432 180.056 307.327 179.314 306.737 182.827C306.146 186.339 308.16 194.621 308.16 194.818C307.359 196.603 306.848 198.504 306.646 200.45" fill="#AE7461"/>
<path d="M306.631 200.45C306.808 199.859 306.949 199.257 307.055 198.649C307.227 197.956 307.439 197.273 307.69 196.605C307.842 196.226 308.024 195.817 308.22 195.378L308.372 195.03C308.425 194.868 308.425 194.693 308.372 194.53L308.22 193.758C307.726 191.336 307.357 188.89 307.115 186.43C306.929 185.018 306.985 183.584 307.282 182.191C307.352 181.874 307.488 181.576 307.681 181.315C307.874 181.054 308.12 180.837 308.402 180.677C309.092 180.46 309.832 180.46 310.522 180.677C310.673 180.601 310.84 180.98 311.006 181.313C311.173 181.646 311.309 182.024 311.445 182.388C311.703 183.115 311.93 183.902 312.142 184.583C312.551 186.097 312.914 187.475 313.247 188.838C313.883 191.563 314.428 194.031 314.761 196.105C314.963 197.746 314.855 199.41 314.443 201.01C314.27 201.602 314.133 202.204 314.034 202.812C314.359 202.277 314.599 201.695 314.746 201.086C315.28 199.457 315.471 197.735 315.306 196.029C315.018 193.91 314.534 191.487 313.928 188.671C313.626 187.293 313.277 185.855 312.868 184.371C312.657 183.629 312.429 182.857 312.172 182.13C312.036 181.737 311.884 181.358 311.718 180.98C311.621 180.775 311.51 180.578 311.385 180.389C311.308 180.276 311.216 180.175 311.112 180.086C311.023 180.015 310.92 179.964 310.809 179.935H310.673C309.828 179.654 308.914 179.654 308.069 179.935C307.682 180.147 307.346 180.441 307.084 180.797C306.823 181.153 306.642 181.561 306.555 181.994C306.233 183.487 306.182 185.025 306.404 186.536C306.688 189.022 307.118 191.489 307.69 193.925L307.872 194.682C307.872 194.848 307.872 194.833 307.872 194.894L307.736 195.227C307.554 195.666 307.403 196.105 307.267 196.514C307.029 197.204 306.852 197.913 306.737 198.633C306.61 199.23 306.574 199.843 306.631 200.45Z" fill="#6F4439"/>
<path d="M284.359 206.037C285.746 205.582 287.163 205.223 288.599 204.962C290.217 204.771 291.856 204.921 293.413 205.401C295.388 206.021 297.175 207.13 298.606 208.626L299.257 209.307V208.368C299.257 205.9 299.257 203.221 299.136 200.42C299.136 200.147 299.136 199.844 299.136 199.557C298.981 197.959 299.124 196.347 299.56 194.802C299.756 194.151 300.203 193.604 300.801 193.28C301.4 192.957 302.102 192.883 302.755 193.076C303.038 193.174 303.293 193.341 303.497 193.561C303.669 193.808 303.778 194.094 303.815 194.394C303.966 195.045 304.072 195.726 304.178 196.362L304.738 199.95C305.041 202.04 305.298 203.781 305.495 205.174C305.549 205.82 305.686 206.456 305.904 207.066C305.924 206.419 305.894 205.771 305.813 205.128C305.707 203.887 305.541 202.1 305.283 199.89C305.162 198.769 305.011 197.558 304.829 196.256C304.738 195.605 304.632 194.939 304.496 194.242C304.496 194.061 304.405 193.879 304.36 193.697C304.294 193.481 304.186 193.281 304.042 193.107C303.761 192.783 303.401 192.538 302.997 192.395C302.594 192.248 302.164 192.188 301.736 192.219C301.308 192.25 300.891 192.372 300.514 192.577C299.732 192.998 299.134 193.694 298.833 194.53C298.346 196.174 298.182 197.896 298.349 199.602C298.349 199.905 298.349 200.223 298.425 200.51C298.425 203.311 298.546 205.991 298.606 208.459L299.242 208.217C297.682 206.57 295.704 205.377 293.519 204.765C291.881 204.297 290.159 204.199 288.477 204.477C287.848 204.563 287.228 204.716 286.63 204.931C286.18 205.051 285.743 205.218 285.328 205.431C284.984 205.597 284.659 205.8 284.359 206.037Z" fill="#6F4439"/>
<path d="M315.14 194.016C317.022 193.542 318.861 192.909 320.636 192.123H320.726V192.017C321.412 190.944 322.186 189.931 323.043 188.989C324.008 187.906 325.05 186.894 326.162 185.961C326.97 185.263 327.965 184.816 329.023 184.674C329.477 184.644 329.932 184.722 330.35 184.901C330.768 185.08 331.139 185.355 331.431 185.704V185.295C330.174 187.172 329.129 188.762 328.402 189.837C327.98 190.405 327.634 191.026 327.373 191.684C327.898 191.214 328.357 190.674 328.736 190.079C329.553 189.004 330.674 187.475 331.991 185.628L332.142 185.431L331.991 185.234C331.633 184.778 331.172 184.414 330.645 184.172C330.118 183.93 329.542 183.816 328.963 183.841C327.742 183.975 326.591 184.477 325.662 185.28C324.508 186.257 323.439 187.331 322.467 188.489C321.592 189.474 320.811 190.538 320.136 191.669L320.302 191.517C318.516 192.209 316.79 193.044 315.14 194.016Z" fill="#6F4439"/>
<path d="M229.657 133.605C234.911 137.497 239.181 142.932 240.513 152.864L248.658 201.313L225.479 207.884L217.469 152.788L229.657 133.605Z" fill="#399B8E"/>
<path d="M203.707 119.147L229.657 133.606C231.837 148.08 228.552 229.792 228.552 229.792L229.763 308.128C193.426 326.13 151.473 319.544 107.005 305.1C106.548 302.081 106.871 298.996 107.944 296.137L115.075 227.476C115.075 227.476 113.228 174.485 113.228 173.41C113.228 172.335 109.246 123.007 109.246 123.007L151.942 110.244C151.942 110.244 170.11 125.278 184.494 125.99C196.939 126.611 196.288 115.392 196.288 115.392L203.707 119.147Z" fill="#399B8E"/>
<path d="M230.399 152.926C230.276 153.712 230.225 154.508 230.248 155.303C230.248 156.968 230.248 159.133 230.111 161.753C230.111 167.355 229.96 174.819 229.854 183.07C229.748 191.322 229.566 198.922 229.37 204.373C229.279 206.992 229.203 209.157 229.142 210.822C229.064 211.613 229.064 212.409 229.142 213.199C229.3 212.426 229.402 211.641 229.445 210.853C229.597 209.339 229.763 207.128 229.93 204.403C230.263 198.952 230.535 191.413 230.641 183.085C230.747 174.758 230.732 167.218 230.641 161.753C230.641 159.133 230.551 156.968 230.52 155.303C230.553 154.508 230.512 153.713 230.399 152.926Z" fill="#263238"/>
<path d="M158.376 243.267C158.922 244.645 172.26 251.761 172.26 251.761H178.316C178.316 251.761 182.207 246.356 181.98 245.553C181.753 244.751 179.452 235.924 182.677 236.378C185.902 236.833 188.067 242.556 188.521 244.054C188.689 245.385 188.49 246.735 187.946 247.961C187.946 247.961 193.457 241.193 197.242 242.919C201.027 244.645 199.195 247.052 199.195 247.052L188.173 256.576C188.173 256.576 195.637 255.652 195.531 261.118L188.869 264.146L178.013 265.993C176.7 266.215 175.352 266.105 174.092 265.675L171.443 264.751C168.055 264.386 164.706 263.723 161.435 262.768C157.877 261.511 154.152 257.363 154.152 257.363L140.208 241.995C140.208 241.995 138.255 234.077 142.737 231.897C147.218 229.717 145.765 231.791 147.203 229.717C148.641 227.642 154.485 225.174 154.773 231.321C155 236.136 152.926 237.287 152.593 237.287C152.26 237.287 156.196 237.756 158.376 243.267Z" fill="#AE7461"/>
<path d="M177.605 251.701C179.573 251.68 181.531 251.416 183.434 250.914L183.6 250.808C186.401 249.006 188.536 247.159 188.218 246.871C188.218 246.871 187.688 247.234 186.704 247.825L183.297 250.187L183.146 250.293H183.282C181.336 250.512 179.428 250.985 177.605 251.701Z" fill="#6F4439"/>
<path d="M159.603 250.746C159.603 250.746 160.057 250.867 160.784 251.14C161.78 251.542 162.664 252.181 163.358 253.002C163.994 254.062 164.69 255.197 165.432 256.378V256.499H165.583C166.33 256.748 167.062 257.037 167.779 257.362C169.058 257.92 170.26 258.642 171.352 259.512C171.793 259.806 172.159 260.198 172.422 260.658C172.685 261.118 172.837 261.633 172.866 262.162C172.765 262.891 172.437 263.569 171.927 264.1C171.564 264.508 171.337 264.705 171.367 264.751C171.397 264.796 171.685 264.675 172.139 264.312C172.816 263.796 173.275 263.045 173.426 262.207C173.498 261.601 173.365 260.988 173.047 260.466C172.701 259.897 172.267 259.386 171.76 258.952C170.648 257.997 169.397 257.217 168.051 256.635C167.297 256.292 166.524 255.994 165.735 255.742L165.947 255.909L163.782 252.608C162.96 251.741 161.91 251.121 160.753 250.822C160.072 250.594 159.603 250.685 159.603 250.746Z" fill="#6F4439"/>
<path d="M152.638 237.288C152.563 237.197 152.23 237.288 151.7 237.378C150.999 237.492 150.29 237.548 149.58 237.545C148.541 237.431 147.49 237.467 146.461 237.651C146.461 237.863 147.793 238.347 149.595 238.332C150.371 238.343 151.142 238.204 151.866 237.924C152.426 237.666 152.714 237.378 152.638 237.288Z" fill="#6F4439"/>
<path d="M140.238 241.995C140.238 241.995 133.062 240.042 125.658 237.771L109.17 231.851L114.288 202.222L79.677 190.109C79.677 190.109 73.7117 233.38 75.1349 244.403C76.5581 255.183 82.5688 257.741 90.9869 260.482C99.4049 263.222 160.996 260.164 161.859 261.496C162.722 262.828 153.456 249.308 153.456 249.308L140.238 241.995Z" fill="#AE7461"/>
<path d="M151.533 254.139C152.266 255.909 153.426 257.47 154.909 258.682C156.217 260.071 157.851 261.112 159.663 261.71C159.784 261.513 157.68 260.196 155.454 258.091C153.229 255.987 151.715 254.003 151.533 254.139Z" fill="#6F4439"/>
<path d="M93.909 237.649C96.1688 236.066 98.5655 234.688 101.07 233.531C103.682 232.618 106.374 231.954 109.11 231.548C106.289 231.308 103.451 231.73 100.822 232.782C98.1934 233.833 95.8468 235.485 93.9695 237.604L93.909 237.649Z" fill="#6F4439"/>
<path d="M170.292 254.516C170.292 254.622 171.73 255.212 174.032 256.363L175.894 257.301L176.954 257.846L177.226 257.983H177.393C177.482 258.007 177.576 258.007 177.665 257.983H178.301L183.812 257.407L186.674 257.089C187.546 256.958 188.426 256.882 189.308 256.862C190.762 256.765 192.214 257.074 193.502 257.756C194.341 258.24 194.971 259.016 195.273 259.936C195.485 260.602 195.501 260.996 195.561 261.011C195.622 261.026 195.713 260.602 195.561 259.86C195.45 259.334 195.235 258.834 194.928 258.392C194.622 257.95 194.229 257.574 193.775 257.286C192.408 256.46 190.827 256.06 189.232 256.136C188.331 256.136 187.431 256.197 186.537 256.317L183.706 256.62L178.21 257.256L177.59 257.332C177.59 257.332 177.317 257.226 177.166 257.165L176.106 256.681L174.183 255.803C172.953 255.191 171.643 254.758 170.292 254.516Z" fill="#6F4439"/>
<path d="M109.246 123.008C108.262 123.341 96.6948 126.747 90.3964 143.326C84.098 159.905 75.7709 203.191 75.7709 203.191L115.257 211.17L121.177 157.513L109.246 123.008Z" fill="#399B8E"/>
<path d="M123.599 161.873C123.406 162.499 123.279 163.143 123.221 163.796C123.024 165.204 122.766 166.96 122.464 169.065C121.843 173.516 120.95 179.663 119.754 186.4C118.558 193.138 117.361 199.239 116.438 203.63C116.014 205.719 115.666 207.461 115.378 208.854C115.197 209.479 115.095 210.125 115.075 210.776C115.331 210.176 115.529 209.552 115.666 208.914C116.014 207.703 116.468 205.886 116.983 203.751C118.043 199.376 119.345 193.304 120.526 186.537C121.707 179.769 122.539 173.607 123.024 169.14C123.266 166.9 123.448 165.083 123.539 163.826C123.622 163.179 123.642 162.525 123.599 161.873Z" fill="#263238"/>
<path d="M110.321 127.549C113.801 129.629 116.836 132.376 119.252 135.631C121.668 138.886 123.418 142.587 124.402 146.52C124.396 145.307 124.186 144.104 123.781 142.962C122.954 140.154 121.636 137.514 119.89 135.164C118.145 132.791 115.998 130.741 113.546 129.108C112.574 128.398 111.481 127.87 110.321 127.549Z" fill="#263238"/>
</svg>
