<svg width="677" height="392" viewBox="0 0 677 392" fill="none" xmlns="http://www.w3.org/2000/svg">
<path d="M608.157 253.456H445.004C442.086 253.456 439.712 251.082 439.712 248.165V10.516C439.712 7.59862 442.086 5.22461 445.004 5.22461H608.157C611.075 5.22461 613.449 7.59772 613.449 10.516V248.165C613.449 251.083 611.075 253.456 608.157 253.456ZM445.004 5.45118C442.21 5.45118 439.938 7.72409 439.938 10.5169V248.165C439.938 250.958 442.211 253.23 445.004 253.23H608.157C610.951 253.23 613.223 250.958 613.223 248.165V10.516C613.223 7.72319 610.95 5.45028 608.157 5.45028L445.004 5.45118Z" fill="#E0E0E0"/>
<path d="M420.016 253.456H256.862C253.945 253.456 251.571 251.082 251.571 248.165V10.516C251.571 7.59862 253.944 5.22461 256.862 5.22461H420.016C422.934 5.22461 425.308 7.59772 425.308 10.516V248.165C425.308 251.083 422.934 253.456 420.016 253.456ZM256.862 5.45118C254.069 5.45118 251.796 7.72409 251.796 10.5169V248.165C251.796 250.958 254.069 253.23 256.862 253.23H420.016C422.81 253.23 425.082 250.958 425.082 248.165V10.516C425.082 7.72319 422.809 5.45028 420.016 5.45028L256.862 5.45118Z" fill="#E0E0E0"/>
<path d="M231.996 253.456H68.8428C65.9254 253.456 63.5514 251.082 63.5514 248.165V10.516C63.5514 7.59862 65.9245 5.22461 68.8428 5.22461H231.996C234.914 5.22461 237.288 7.59772 237.288 10.516V248.165C237.288 251.083 234.914 253.456 231.996 253.456ZM68.8428 5.45118C66.05 5.45118 63.7771 7.72409 63.7771 10.5169V248.165C63.7771 250.958 66.05 253.23 68.8428 253.23H231.996C234.79 253.23 237.062 250.958 237.062 248.165V10.516C237.062 7.72319 234.79 5.45028 231.996 5.45028L68.8428 5.45118Z" fill="#E0E0E0"/>
<path d="M677 308.582H0V308.69H677V308.582Z" fill="#E0E0E0"/>
<path d="M640.311 335.102H590.006V335.482H640.311V335.102Z" fill="#EBEBEB"/>
<path d="M460.063 339.223H446.86V339.603H460.063V339.223Z" fill="#EBEBEB"/>
<path d="M102.29 323.549H36.689V323.929H102.29V323.549Z" fill="#EBEBEB"/>
<path d="M125.429 323.549H115.811V323.929H125.429V323.549Z" fill="#EBEBEB"/>
<path d="M298.962 329.961H156.69V330.341H298.962V329.961Z" fill="#EBEBEB"/>
<path d="M520.368 35.9614C518.631 38.608 517.462 41.5146 516.839 44.5132L512.063 44.9627V54.2106L516.839 54.661C517.461 57.6587 518.63 60.5653 520.368 63.2129L517.317 66.8966L523.857 73.4365L527.541 70.3863C530.188 72.124 533.095 73.2929 536.093 73.9149L536.542 78.6909H545.79L546.24 73.9158C549.238 73.2929 552.145 72.124 554.792 70.3863L558.475 73.4365L565.015 66.8966L561.965 63.2119C563.703 60.5653 564.872 57.6587 565.494 54.6601L570.269 54.2097V44.9618L565.494 44.5114C564.871 41.5137 563.702 38.6071 561.964 35.9604L565.014 32.2767L558.474 25.7368L554.791 28.787C552.144 27.0493 549.237 25.8795 546.24 25.2575L545.789 20.4824H536.541L536.092 25.2584C533.094 25.8813 530.188 27.0493 527.541 28.787L523.857 25.7368L517.317 32.2767L520.368 35.9614ZM549.935 40.6372C554.562 45.2651 554.563 52.7681 549.935 57.3961C545.307 62.024 537.803 62.0231 533.176 57.3961C528.548 52.7681 528.548 45.2651 533.176 40.6372C537.804 36.0092 545.307 36.0092 549.935 40.6372Z" fill="#E0E0E0"/>
<path d="M580.313 36.083C579.286 37.6473 578.596 39.3651 578.227 41.1371L575.405 41.4024V46.8681L578.227 47.1344C578.595 48.9063 579.286 50.6241 580.313 52.1884L578.51 54.3656L582.375 58.2308L584.552 56.4282C586.117 57.4555 587.834 58.146 589.606 58.5143L589.872 61.3369H595.337L595.604 58.5143C597.376 58.146 599.093 57.4555 600.658 56.4282L602.835 58.2308L606.7 54.3656L604.898 52.1884C605.925 50.6241 606.615 48.9063 606.983 47.1344L609.805 46.8681V41.4024L606.983 41.1362C606.614 39.3642 605.924 37.6464 604.897 36.0821L606.699 33.9049L602.834 30.0397L600.657 31.8423C599.093 30.8151 597.375 30.1236 595.603 29.7562L595.337 26.9336H589.871L589.606 29.7562C587.834 30.1245 586.116 30.8151 584.552 31.8414L582.374 30.0388L578.509 33.904L580.312 36.0812L580.313 36.083ZM597.788 38.8461C600.523 41.5812 600.523 46.016 597.788 48.751C595.053 51.4861 590.618 51.4861 587.883 48.751C585.148 46.016 585.148 41.5812 587.883 38.8461C590.618 36.111 595.053 36.111 597.788 38.8461Z" fill="#F0F0F0"/>
<path d="M77.197 84.3135C76.1698 85.8778 75.4793 87.5956 75.111 89.3675L72.2883 89.6329V95.0985L75.111 95.3648C75.4784 97.1368 76.1698 98.8546 77.1961 100.419L75.3935 102.596L79.2587 106.461L81.436 104.659C83.0003 105.686 84.7181 106.376 86.49 106.745L86.7554 109.567H92.221L92.4873 106.745C94.2592 106.376 95.977 105.686 97.5413 104.659L99.7186 106.461L103.584 102.596L101.781 100.419C102.808 98.8546 103.499 97.1368 103.866 95.3648L106.688 95.0985V89.6329L103.866 89.3666C103.498 87.5947 102.807 85.8769 101.78 84.3126L103.583 82.1354L99.7177 78.2701L97.5404 80.0728C95.9761 79.0455 94.2583 78.3541 92.4864 77.9867L92.2201 75.1641H86.7545L86.4891 77.9867C84.7171 78.355 82.9994 79.0455 81.4351 80.0728L79.2578 78.2701L75.3926 82.1354L77.1952 84.3126L77.197 84.3135ZM94.6718 87.0775C97.4068 89.8125 97.4068 94.2473 94.6718 96.9824C91.9367 99.7175 87.5019 99.7175 84.7668 96.9824C82.0317 94.2473 82.0317 89.8125 84.7668 87.0775C87.5019 84.3424 91.9367 84.3424 94.6718 87.0775Z" fill="#F0F0F0"/>
<path d="M146.573 331.554C144.828 334.212 143.654 337.131 143.029 340.142L138.234 340.594V349.881L143.03 350.333C143.655 353.344 144.829 356.263 146.574 358.921L143.511 362.622L150.078 369.188L153.778 366.126C156.437 367.87 159.356 369.045 162.366 369.67L162.818 374.465H172.105L172.557 369.67C175.569 369.044 178.488 367.87 181.145 366.126L184.845 369.188L191.413 362.621L188.35 358.921C190.095 356.262 191.27 353.343 191.894 350.333L196.689 349.88V340.593L191.894 340.141C191.269 337.13 190.095 334.211 188.35 331.553L191.413 327.853L184.845 321.286L181.145 324.348C178.487 322.604 175.568 321.429 172.557 320.804L172.105 316.008H162.818L162.366 320.804C159.356 321.429 156.437 322.603 153.778 324.348L150.078 321.285L143.511 327.853L146.574 331.553L146.573 331.554ZM176.266 336.25C180.913 340.897 180.914 348.433 176.266 353.08C171.619 357.728 164.083 357.728 159.435 353.08C154.788 348.432 154.788 340.898 159.435 336.249C164.083 331.601 171.618 331.601 176.266 336.249L176.266 336.25Z" fill="#F0F0F0"/>
<path d="M336.415 391.109C478.683 391.109 594.014 388.722 594.014 385.777C594.014 382.833 478.683 380.445 336.415 380.445C194.147 380.445 78.8154 382.833 78.8154 385.777C78.8154 388.722 194.147 391.109 336.415 391.109Z" fill="#F5F5F5"/>
<path d="M428.403 329.898C427.488 332.558 427.122 335.317 427.246 338.035L423.234 339.472L425.267 347.431L429.477 346.769C430.671 349.212 432.317 351.457 434.395 353.353L432.579 357.195L439.646 361.386L442.146 357.951C444.806 358.865 447.566 359.232 450.283 359.108L451.72 363.12L459.679 361.086L459.017 356.877C461.46 355.682 463.705 354.036 465.602 351.959L469.443 353.775L473.635 346.708L470.2 344.208C471.113 341.548 471.481 338.789 471.357 336.071L475.368 334.634L473.335 326.675L469.126 327.337C467.931 324.894 466.285 322.649 464.208 320.753L466.023 316.911L458.957 312.72L456.457 316.156C453.797 315.241 451.037 314.874 448.32 314.998L446.883 310.986L438.923 313.02L439.586 317.229C437.142 318.424 434.897 320.069 433.002 322.147L429.16 320.332L424.969 327.399L428.405 329.899L428.403 329.898ZM454.754 327.857C459.833 330.869 461.508 337.428 458.496 342.507C455.484 347.586 448.924 349.26 443.847 346.249C438.767 343.237 437.093 336.678 440.105 331.6C443.117 326.521 449.675 324.845 454.754 327.857Z" fill="#239B7E"/>
<path opacity="0.4" d="M428.403 329.898C427.488 332.558 427.122 335.317 427.246 338.035L423.234 339.472L425.267 347.431L429.477 346.769C430.671 349.212 432.317 351.457 434.395 353.353L432.579 357.195L439.646 361.386L442.146 357.951C444.806 358.865 447.566 359.232 450.283 359.108L451.72 363.12L459.679 361.086L459.017 356.877C461.46 355.682 463.705 354.036 465.602 351.959L469.443 353.775L473.635 346.708L470.2 344.208C471.113 341.548 471.481 338.789 471.357 336.071L475.368 334.634L473.335 326.675L469.126 327.337C467.931 324.894 466.285 322.649 464.208 320.753L466.023 316.911L458.957 312.72L456.457 316.156C453.797 315.241 451.037 314.874 448.32 314.998L446.883 310.986L438.923 313.02L439.586 317.229C437.142 318.424 434.897 320.069 433.002 322.147L429.16 320.332L424.969 327.399L428.405 329.899L428.403 329.898ZM454.754 327.857C459.833 330.869 461.508 337.428 458.496 342.507C455.484 347.586 448.924 349.26 443.847 346.249C438.767 343.237 437.093 336.678 440.105 331.6C443.117 326.521 449.675 324.845 454.754 327.857Z" fill="white"/>
<path d="M482.109 349.386C481.562 350.978 481.343 352.629 481.417 354.255L479.016 355.116L480.233 359.88L482.752 359.483C483.467 360.945 484.452 362.289 485.696 363.424L484.609 365.723L488.839 368.231L490.336 366.175C491.928 366.722 493.579 366.942 495.205 366.868L496.066 369.269L500.83 368.051L500.434 365.532C501.896 364.816 503.24 363.832 504.375 362.588L506.674 363.674L509.182 359.444L507.126 357.947C507.673 356.355 507.892 354.704 507.818 353.077L510.219 352.217L509.002 347.453L506.482 347.849C505.768 346.387 504.783 345.043 503.539 343.908L504.626 341.609L500.396 339.101L498.899 341.157C497.307 340.61 495.655 340.39 494.029 340.464L493.169 338.062L488.405 339.279L488.801 341.799C487.339 342.514 485.995 343.498 484.86 344.741L482.561 343.655L480.052 347.884L482.109 349.381L482.109 349.386ZM497.882 348.164C500.921 349.967 501.924 353.893 500.121 356.932C498.319 359.972 494.393 360.974 491.353 359.171C488.313 357.369 487.311 353.443 489.113 350.404C490.916 347.364 494.843 346.362 497.882 348.164Z" fill="#239B7E"/>
<path opacity="0.7" d="M482.109 349.386C481.562 350.978 481.343 352.629 481.417 354.255L479.016 355.116L480.233 359.88L482.752 359.483C483.467 360.945 484.452 362.289 485.696 363.424L484.609 365.723L488.839 368.231L490.336 366.175C491.928 366.722 493.579 366.942 495.205 366.868L496.066 369.269L500.83 368.051L500.434 365.532C501.896 364.816 503.24 363.832 504.375 362.588L506.674 363.674L509.182 359.444L507.126 357.947C507.673 356.355 507.892 354.704 507.818 353.077L510.219 352.217L509.002 347.453L506.482 347.849C505.768 346.387 504.783 345.043 503.539 343.908L504.626 341.609L500.396 339.101L498.899 341.157C497.307 340.61 495.655 340.39 494.029 340.464L493.169 338.062L488.405 339.279L488.801 341.799C487.339 342.514 485.995 343.498 484.86 344.741L482.561 343.655L480.052 347.884L482.109 349.381L482.109 349.386ZM497.882 348.164C500.921 349.967 501.924 353.893 500.121 356.932C498.319 359.972 494.393 360.974 491.353 359.171C488.313 357.369 487.311 353.443 489.113 350.404C490.916 347.364 494.843 346.362 497.882 348.164Z" fill="white"/>
<path d="M283.755 34.0202C281.615 37.2806 280.175 40.8615 279.408 44.5552L273.525 45.1085V56.5011L279.409 57.0553C280.175 60.7481 281.615 64.329 283.756 67.5894L279.999 72.128L288.054 80.1834L292.593 76.4265C295.854 78.5667 299.434 80.0065 303.127 80.7738L303.681 86.6573H315.074L315.628 80.7747C319.322 80.0074 322.902 78.5676 326.163 76.4274L330.702 80.1843L338.758 72.1289L335.001 67.5903C337.141 64.3299 338.581 60.749 339.348 57.0562L345.23 56.502V45.1094L339.348 44.5552C338.581 40.8624 337.141 37.2815 335 34.0211L338.757 29.4824L330.702 21.4271L326.163 25.1839C322.903 23.0428 319.321 21.6031 315.629 20.8358L315.075 14.9531H303.682L303.128 20.8367C299.435 21.604 295.854 23.0428 292.594 25.1839L288.055 21.4271L279.999 29.4833L283.756 34.022L283.755 34.0202ZM319.861 40.3217C325.65 46.1114 325.651 55.4982 319.861 61.2879C314.07 67.0776 304.683 67.0776 298.895 61.2879C293.105 55.4982 293.105 46.1114 298.895 40.3208C304.684 34.5311 314.07 34.532 319.861 40.3217Z" fill="#239B7E"/>
<path opacity="0.4" d="M283.755 34.0202C281.615 37.2806 280.175 40.8615 279.408 44.5552L273.525 45.1085V56.5011L279.409 57.0553C280.175 60.7481 281.615 64.329 283.756 67.5894L279.999 72.128L288.054 80.1834L292.593 76.4265C295.854 78.5667 299.434 80.0065 303.127 80.7738L303.681 86.6573H315.074L315.628 80.7747C319.322 80.0074 322.902 78.5676 326.163 76.4274L330.702 80.1843L338.758 72.1289L335.001 67.5903C337.141 64.3299 338.581 60.749 339.348 57.0562L345.23 56.502V45.1094L339.348 44.5552C338.581 40.8624 337.141 37.2815 335 34.0211L338.757 29.4824L330.702 21.4271L326.163 25.1839C322.903 23.0428 319.321 21.6031 315.629 20.8358L315.075 14.9531H303.682L303.128 20.8367C299.435 21.604 295.854 23.0428 292.594 25.1839L288.055 21.4271L279.999 29.4833L283.756 34.022L283.755 34.0202ZM319.861 40.3217C325.65 46.1114 325.651 55.4982 319.861 61.2879C314.07 67.0776 304.683 67.0776 298.895 61.2879C293.105 55.4982 293.105 46.1114 298.895 40.3208C304.684 34.5311 314.07 34.532 319.861 40.3217Z" fill="white"/>
<path d="M232.819 10.8961C231.596 12.7583 230.774 14.8046 230.335 16.9151L226.975 17.2319V23.741L230.336 24.0579C230.774 26.1674 231.596 28.2128 232.819 30.0759L230.673 32.6684L235.276 37.2711L237.868 35.1246C239.731 36.3477 241.777 37.17 243.886 37.6078L244.203 40.9693H250.711L251.028 37.6078C253.138 37.1691 255.184 36.3468 257.047 35.1237L259.64 37.2702L264.243 32.6675L262.096 30.0741C263.32 28.211 264.142 26.1656 264.58 24.0552L267.94 23.7383V17.2292L264.58 16.9124C264.142 14.8028 263.319 12.7565 262.096 10.8943L264.242 8.30182L259.639 3.69913L257.047 5.84567C255.184 4.62255 253.138 3.79932 251.029 3.36153L250.712 0H244.203L243.886 3.36153C241.777 3.79932 239.73 4.62165 237.868 5.84476L235.275 3.69822L230.672 8.30092L232.818 10.8943L232.819 10.8961ZM253.447 14.4959C256.754 17.8033 256.754 23.1669 253.447 26.4743C250.139 29.7826 244.776 29.7817 241.469 26.4743C238.16 23.166 238.16 17.8033 241.469 14.4959C244.777 11.1885 250.14 11.1876 253.447 14.4959Z" fill="#239B7E"/>
<path opacity="0.7" d="M232.819 10.8961C231.596 12.7583 230.774 14.8046 230.335 16.9151L226.975 17.2319V23.741L230.336 24.0579C230.774 26.1674 231.596 28.2128 232.819 30.0759L230.673 32.6684L235.276 37.2711L237.868 35.1246C239.731 36.3477 241.777 37.17 243.886 37.6078L244.203 40.9693H250.711L251.028 37.6078C253.138 37.1691 255.184 36.3468 257.047 35.1237L259.64 37.2702L264.243 32.6675L262.096 30.0741C263.32 28.211 264.142 26.1656 264.58 24.0552L267.94 23.7383V17.2292L264.58 16.9124C264.142 14.8028 263.319 12.7565 262.096 10.8943L264.242 8.30182L259.639 3.69913L257.047 5.84567C255.184 4.62255 253.138 3.79932 251.029 3.36153L250.712 0H244.203L243.886 3.36153C241.777 3.79932 239.73 4.62165 237.868 5.84476L235.275 3.69822L230.672 8.30092L232.818 10.8943L232.819 10.8961ZM253.447 14.4959C256.754 17.8033 256.754 23.1669 253.447 26.4743C250.139 29.7826 244.776 29.7817 241.469 26.4743C238.16 23.166 238.16 17.8033 241.469 14.4959C244.777 11.1885 250.14 11.1876 253.447 14.4959Z" fill="white"/>
<path d="M494.072 60.8594H137.371C127.774 60.8594 119.993 68.6398 119.993 78.2375V316.126C119.993 325.724 127.774 333.504 137.371 333.504H494.072C503.67 333.504 511.45 325.724 511.45 316.126V78.2375C511.45 68.6398 503.67 60.8594 494.072 60.8594Z" fill="#263238"/>
<path opacity="0.1" d="M135.383 67.8145H494.785C500.395 67.8145 504.951 72.3693 504.951 77.9803V289.364H128.488V74.7081C128.488 70.9034 131.577 67.8145 135.382 67.8145H135.383Z" fill="white"/>
<path opacity="0.8" d="M119.993 289.057H511.45V316.727C511.45 325.986 503.933 333.503 494.674 333.503H136.623C127.445 333.503 119.993 326.052 119.993 316.873V289.057Z" fill="white"/>
<path d="M399.185 384.888H240.276L250.875 333.504H385.836L399.185 384.888Z" fill="#263238"/>
<path opacity="0.8" d="M399.185 384.888H240.276L250.875 333.504H385.836L399.185 384.888Z" fill="white"/>
<path opacity="0.2" d="M388.523 343.85H248.659L250.875 333.504H385.836L388.523 343.85Z" fill="black"/>
<path d="M414.626 333.841H237.738C237.551 333.841 237.4 333.689 237.4 333.503C237.4 333.316 237.551 333.164 237.738 333.164H414.626C414.813 333.164 414.965 333.316 414.965 333.503C414.965 333.689 414.813 333.841 414.626 333.841Z" fill="#263238"/>
<path d="M93.2392 143.549C89.4796 149.274 86.9521 155.562 85.6044 162.048L75.2743 163.02V183.026L85.6053 184C86.9503 190.484 89.4796 196.773 93.2392 202.499L86.6407 210.469L100.787 224.616L108.757 218.018C114.483 221.777 120.771 224.306 127.256 225.652L128.229 235.983H148.235L149.208 225.652C155.694 224.304 161.982 221.776 167.707 218.017L175.677 224.615L189.824 210.468L183.226 202.498C186.985 196.773 189.513 190.485 190.859 183.999L201.188 183.026L201.19 163.02L190.86 162.046C189.513 155.562 186.984 149.274 183.225 143.548L189.824 135.578L175.677 121.432L167.707 128.029C161.982 124.27 155.693 121.74 149.208 120.395L148.234 110.064H128.228L127.255 120.395C120.77 121.742 114.482 124.27 108.757 128.029L100.787 121.431L86.6407 135.577L93.2392 143.547V143.549ZM156.868 155.299C167.159 165.59 167.16 182.278 156.868 192.57C146.575 202.863 129.887 202.861 119.596 192.57C109.304 182.278 109.304 165.591 119.596 155.298C129.888 145.006 146.574 145.006 156.867 155.298L156.868 155.299Z" fill="#239B7E"/>
<path opacity="0.3" d="M159.545 265.181H477.997V276.406C477.997 278.032 476.677 279.352 475.052 279.352H163.265C161.213 279.352 159.546 277.685 159.546 275.633V265.18L159.545 265.181Z" fill="black"/>
<path d="M153.211 45.7422H478.295C481.645 45.7422 484.366 48.4619 484.366 51.8126V261.442C484.366 264.791 481.646 267.512 478.295 267.512H153.211C149.862 267.512 147.141 264.792 147.141 261.442V51.8126C147.141 48.4628 149.861 45.7431 153.211 45.7431L153.211 45.7422Z" fill="#239B7E"/>
<path opacity="0.6" d="M153.211 45.7422H478.295C481.645 45.7422 484.366 48.4619 484.366 51.8126V261.442C484.366 264.791 481.646 267.512 478.295 267.512H153.211C149.862 267.512 147.141 264.792 147.141 261.442V51.8126C147.141 48.4628 149.861 45.7431 153.211 45.7431L153.211 45.7422Z" fill="white"/>
<path d="M484.428 63.9679H147.142V50.1616C147.142 47.7208 149.121 45.7422 151.561 45.7422H478.451C481.752 45.7422 484.428 48.4177 484.428 51.7187V63.9679Z" fill="#239B7E"/>
<path d="M478.125 54.4059C478.593 56.8783 476.467 59.0059 473.995 58.5383C472.621 58.2784 471.497 57.1555 471.236 55.7816C470.766 53.3074 472.895 51.178 475.37 51.6474C476.742 51.9083 477.865 53.0321 478.125 54.4059Z" fill="white"/>
<path d="M468.148 54.407C468.617 56.8803 466.489 59.0079 464.017 58.5394C462.643 58.2794 461.519 57.1556 461.258 55.7826C460.789 53.3093 462.917 51.1799 465.391 51.6493C466.765 51.9102 467.887 53.0331 468.148 54.407Z" fill="white"/>
<path d="M458.172 54.4059C458.641 56.8783 456.514 59.0059 454.041 58.5383C452.668 58.2784 451.544 57.1555 451.283 55.7816C450.813 53.3074 452.941 51.178 455.415 51.6474C456.789 51.9083 457.912 53.0321 458.172 54.4059Z" fill="white"/>
<path d="M183.07 94.832H176.135V101.766H183.07V94.832Z" fill="#263238"/>
<path d="M183.07 111.256H176.135V118.19H183.07V111.256Z" fill="#239B7E"/>
<path d="M183.07 127.682H176.135V134.616H183.07V127.682Z" fill="#263238"/>
<path d="M183.07 144.107H176.135V151.042H183.07V144.107Z" fill="#239B7E"/>
<path d="M183.07 160.533H176.135V167.467H183.07V160.533Z" fill="#263238"/>
<path d="M183.07 176.959H176.135V183.893H183.07V176.959Z" fill="#239B7E"/>
<path d="M183.07 193.385H176.135V200.319H183.07V193.385Z" fill="#263238"/>
<path d="M183.07 209.811H176.135V216.745H183.07V209.811Z" fill="#239B7E"/>
<path d="M183.07 226.236H176.135V233.171H183.07V226.236Z" fill="#263238"/>
<path d="M183.07 242.662H176.135V249.596H183.07V242.662Z" fill="#239B7E"/>
<path d="M247.457 94.832H215.968V101.766H247.457V94.832Z" fill="#239B7E"/>
<path d="M247.457 127.971H215.968V134.905H247.457V127.971Z" fill="white"/>
<path d="M288.091 111.256H215.968V118.19H288.091V111.256Z" fill="#239B7E"/>
<path d="M337.053 111.256H296.083V118.19H337.053V111.256Z" fill="white"/>
<path d="M288.091 142.807H215.968V149.741H288.091V142.807Z" fill="#239B7E"/>
<path d="M337.053 142.807H296.083V149.741H337.053V142.807Z" fill="#239B7E"/>
<path d="M302.61 160.381H248.123V167.315H302.61V160.381Z" fill="#239B7E"/>
<path d="M366.094 142.807H346.509V149.741H366.094V142.807Z" fill="white"/>
<path d="M288.091 193.385H215.968V200.319H288.091V193.385Z" fill="#239B7E"/>
<path d="M337.053 193.385H296.083V200.319H337.053V193.385Z" fill="#239B7E"/>
<path d="M361.323 210.156H287.367V217.091H361.323V210.156Z" fill="#239B7E"/>
<path d="M416.83 210.156H367.06V217.091H416.83V210.156Z" fill="#239B7E"/>
<path d="M366.094 193.385H346.509V200.319H366.094V193.385Z" fill="white"/>
<path d="M279.883 210.156H215.68V217.091H279.883V210.156Z" fill="white"/>
<path d="M330.671 160.381H311.086V167.315H330.671V160.381Z" fill="white"/>
<path d="M427.216 176.17H388.145V183.104H427.216V176.17Z" fill="#239B7E"/>
<path d="M450.926 176.17H432.184V183.104H450.926V176.17Z" fill="#239B7E"/>
<path d="M303.19 127.953H255.426V134.887H303.19V127.953Z" fill="#239B7E"/>
<path d="M428.999 142.807H376.067V149.741H428.999V142.807Z" fill="#239B7E"/>
<path d="M302.61 176.17H248.123V183.104H302.61V176.17Z" fill="#239B7E"/>
<path d="M381.011 176.17H311.086V183.104H381.011V176.17Z" fill="#239B7E"/>
<path d="M409.757 111.256H345.97V118.19H409.757V111.256Z" fill="#239B7E"/>
<path d="M260.81 226.236H215.968V233.171H260.81V226.236Z" fill="#239B7E"/>
<path d="M229.287 243.23H215.968V250.165H229.287V243.23Z" fill="#239B7E"/>
<path d="M196.675 91.8521V253.252C196.675 254.559 198.706 254.56 198.706 253.252V91.8521C198.706 90.545 196.675 90.5432 196.675 91.8521Z" fill="#239B7E"/>
<path d="M396.752 39.2347H351.631C351.382 39.2347 351.18 39.0325 351.18 38.7834C351.18 38.5342 351.382 38.332 351.631 38.332H396.752C397.001 38.332 397.203 38.5342 397.203 38.7834C397.203 39.0325 397.001 39.2347 396.752 39.2347Z" fill="#239B7E"/>
<path d="M412.837 39.2347H401.975C401.725 39.2347 401.523 39.0325 401.523 38.7834C401.523 38.5342 401.725 38.332 401.975 38.332H412.837C413.086 38.332 413.289 38.5342 413.289 38.7834C413.289 39.0325 413.086 39.2347 412.837 39.2347Z" fill="#239B7E"/>
<path d="M618.533 81.9816C610.656 75.8859 599.329 77.3302 593.233 85.2077C588.528 91.289 588.334 99.4175 592.106 105.617L590.53 110.799L596.232 110.313C596.311 110.376 596.379 110.445 596.46 110.508C604.337 116.603 615.664 115.159 621.759 107.282C627.855 99.404 626.411 88.0773 618.533 81.9816Z" fill="#239B7E"/>
<path opacity="0.7" d="M618.533 81.9816C610.656 75.8859 599.329 77.3302 593.233 85.2077C588.528 91.289 588.334 99.4175 592.106 105.617L590.53 110.799L596.232 110.313C596.311 110.376 596.379 110.445 596.46 110.508C604.337 116.603 615.664 115.159 621.759 107.282C627.855 99.404 626.411 88.0773 618.533 81.9816Z" fill="white"/>
<path d="M627.815 96.2786H627.804C627.678 96.2723 627.583 96.1658 627.59 96.0412C627.892 90.2831 625.056 84.3968 620.366 81.0443C620.265 80.9712 620.241 80.8304 620.313 80.7293C620.386 80.6273 620.527 80.6047 620.628 80.6769C625.441 84.117 628.351 90.1567 628.041 96.0656C628.034 96.1856 627.935 96.2795 627.815 96.2795V96.2786Z" fill="#239B7E"/>
<path d="M627.09 101.579C627.062 101.579 627.033 101.573 627.005 101.562C626.889 101.515 626.834 101.383 626.881 101.267C627.208 100.473 627.371 99.5984 627.352 98.74C627.35 98.6154 627.448 98.5125 627.572 98.5098H627.578C627.701 98.5098 627.801 98.6072 627.804 98.7309C627.823 99.6516 627.648 100.589 627.298 101.44C627.262 101.527 627.178 101.58 627.09 101.58L627.09 101.579Z" fill="#239B7E"/>
<path d="M603.668 102.483L614.358 92.1855L612.257 90.0044L601.567 100.301L603.668 102.483Z" fill="#239B7E"/>
<path d="M614.2 100.543L603.903 89.8535L601.722 91.9545L612.019 102.644L614.2 100.543Z" fill="#239B7E"/>
<path d="M611.948 139.453C616.775 137.14 619.656 131.353 618.594 126.108C615.799 127.186 612.976 128.273 610.012 128.711C607.049 129.149 603.89 128.889 601.288 127.405C599.328 126.286 597.806 124.558 596.252 122.923C594.698 121.288 593.006 119.674 590.888 118.897C588.77 118.121 586.115 118.387 584.642 120.096L581.403 124.704C583.393 124.347 585.404 125.629 586.458 127.355C587.513 129.081 587.793 131.162 587.917 133.181C588.04 135.199 588.035 137.254 588.605 139.195C589.333 141.678 590.97 143.819 592.917 145.525C597.236 149.312 603.305 151.098 608.945 150.007C614.585 148.915 619.627 144.881 621.702 139.525C618.477 140.039 615.166 140.013 611.948 139.453Z" fill="#263238"/>
<path d="M568.359 115C568.359 115 560.52 127.652 559.984 131.68C557.109 133.898 555.376 129.036 555.787 122.652C556.124 117.427 559.122 111.915 563.739 110.1C570.225 107.551 568.359 115 568.359 115Z" fill="#263238"/>
<path d="M579.035 137.219L569.792 142.214L567.894 144.087C568.348 145.479 568.716 146.903 568.81 148.261C568.954 150.028 567.314 151.361 566.048 152.509C564.227 153.417 567.729 161.793 567.729 161.793L579.709 149.395C577.474 143.915 578.04 139.486 579.036 137.219H579.035Z" fill="#FDBBB5"/>
<path opacity="0.2" d="M568.84 148.787C571.449 147.523 574.389 145.197 574.31 142.248C574.268 141.006 574.101 139.817 573.87 139.045L568.261 145.297C568.584 146.408 568.675 147.133 568.84 148.787Z" fill="black"/>
<path d="M582.975 124.303C581.341 133.509 580.844 137.43 575.645 141.891C567.824 148.599 556.953 145.201 555.823 135.843C554.807 127.42 557.65 113.78 567.089 110.651C576.388 107.568 584.61 115.097 582.975 124.303Z" fill="#FDBBB5"/>
<path d="M570.213 126.963C570.163 127.835 569.627 128.55 569.014 128.563C568.402 128.576 567.945 127.879 567.995 127.007C568.045 126.135 568.581 125.419 569.194 125.406C569.806 125.394 570.262 126.091 570.213 126.963Z" fill="#263238"/>
<path d="M561.402 125.86C561.402 126.706 560.909 127.432 560.3 127.48C559.692 127.529 559.197 126.882 559.197 126.036C559.197 125.19 559.69 124.465 560.299 124.417C560.907 124.368 561.401 125.014 561.402 125.861V125.86Z" fill="#263238"/>
<path d="M572.83 124.089C572.711 124.091 572.595 124.045 572.511 123.952C571.207 122.495 569.556 122.807 569.537 122.811C569.292 122.858 569.064 122.7 569.032 122.452C569.001 122.204 569.176 121.963 569.425 121.913C569.511 121.896 571.585 121.502 573.201 123.311C573.362 123.492 573.339 123.781 573.148 123.958C573.056 124.043 572.942 124.087 572.83 124.089Z" fill="#263238"/>
<path d="M558.519 121.493C558.413 121.453 558.325 121.375 558.279 121.267C558.183 121.045 558.299 120.782 558.539 120.681C560.939 119.662 562.72 120.731 562.795 120.778C563.006 120.908 563.057 121.181 562.908 121.388C562.76 121.593 562.47 121.655 562.258 121.527C562.189 121.484 560.795 120.675 558.887 121.484C558.763 121.537 558.632 121.537 558.52 121.493H558.519Z" fill="#263238"/>
<path d="M559.691 113.06C561.854 109.068 570.047 105.655 579.068 110.045C592.583 115.359 584.923 137.327 581.017 132.721C579.954 131.469 579.068 130.234 578.328 129.052C573.879 121.947 567.46 116.291 559.721 113.072L559.691 113.06Z" fill="#263238"/>
<path d="M585.143 132.103C583.886 133.913 582.004 134.958 580.337 135.229C577.829 135.637 576.895 131.582 577.941 129.192C578.884 127.041 581.42 125.779 583.77 126.464C586.084 127.14 586.58 130.034 585.143 132.104V132.103Z" fill="#FDBBB5"/>
<path d="M564.083 125.266C564.083 125.266 562.338 128.616 560.517 130.643C560.199 130.997 560.329 131.564 560.761 131.766C561.87 132.284 563.244 132.016 563.244 132.016L564.084 125.266H564.083Z" fill="#EF7878"/>
<path d="M569.381 125.386L567.244 124.879C567.244 124.879 568.411 126.474 569.381 125.386Z" fill="#263238"/>
<path d="M560.611 124.442L558.448 124.062C559.451 125.275 560.319 124.811 560.611 124.442Z" fill="#263238"/>
<path opacity="0.2" d="M581.017 132.949C580.91 132.949 580.815 132.873 580.795 132.765C580.772 132.642 580.853 132.525 580.975 132.501C582.327 132.248 582.963 131.591 583.257 131.086C583.582 130.528 583.586 130.005 583.491 129.726C583.298 129.163 582.618 128.689 581.952 128.909C581.828 128.95 581.706 128.882 581.668 128.765C581.629 128.647 581.693 128.52 581.811 128.481C582.741 128.177 583.652 128.802 583.918 129.581C584.05 129.967 584.05 130.626 583.647 131.314C583.305 131.901 582.578 132.661 581.058 132.946C581.044 132.949 581.03 132.949 581.017 132.949Z" fill="black"/>
<path d="M562.243 135.013C562.891 136.072 563.65 138.11 563.65 138.11C563.847 138.075 564.045 138.039 564.239 137.994C566.899 137.446 567.953 136.312 568.313 135.223C568.508 134.626 568.488 134.036 568.411 133.568C568.327 133.026 568.144 132.658 568.144 132.658C566.907 133.791 564.466 134.493 563.148 134.814C562.597 134.954 562.244 135.015 562.244 135.015L562.243 135.013Z" fill="#263238"/>
<path d="M563.147 134.812L563.585 135.714C566.089 135.191 567.782 134.488 568.41 133.566C568.326 133.024 568.143 132.656 568.143 132.656C566.906 133.789 564.466 134.491 563.147 134.812Z" fill="white"/>
<path d="M564.238 137.994C566.898 137.446 567.952 136.312 568.312 135.223C567.413 135.444 566.353 135.811 565.478 136.417C564.808 136.876 564.446 137.449 564.238 137.994Z" fill="#FF4B4B"/>
<path d="M557.58 152.891C553.174 155.05 549.832 158.892 548.278 163.546C545.489 171.893 543.887 184.701 543.887 184.701L530.124 171.957L521.434 178.95C521.434 178.95 541.729 205.756 544.2 206.415C551.505 208.363 555.51 191.586 555.51 191.586L558.074 152.65L557.58 152.892V152.891Z" fill="#239B7E"/>
<path d="M597.802 371.27L596.851 372.595L594.965 371.781L593.789 377.598L585.83 388.715C585.83 388.715 582.801 389.2 585.187 382.883C585.296 382.596 585.382 382.279 585.439 381.926C586.148 378.148 584.589 370.903 584.589 370.903L588.956 364.803C588.956 364.803 589.411 364.81 590.186 364.937C591.995 365.24 595.613 366.122 597.803 371.269L597.802 371.27Z" fill="#239B7E"/>
<path opacity="0.2" d="M597.802 371.27L596.851 372.595L594.965 371.781L593.789 377.598L585.83 388.715C585.83 388.715 582.801 389.2 585.187 382.883C585.296 382.596 585.382 382.279 585.439 381.926C586.148 378.148 584.589 370.903 584.589 370.903L588.956 364.803C588.956 364.803 589.411 364.81 590.186 364.937C591.995 365.24 595.613 366.122 597.803 371.269L597.802 371.27Z" fill="black"/>
<path d="M590.185 364.94L590.203 364.953C588.737 365.11 590.024 371.622 589.433 375.275C588.902 378.535 587.496 381.609 585.438 381.928C586.147 378.149 583.591 369.538 583.591 369.538L587.104 364.633C587.104 364.633 589.411 364.812 590.185 364.94Z" fill="#EF7878"/>
<path d="M585.619 388.302L583.997 388.299L583.546 386.281L578.179 388.724H564.579C564.579 388.724 562.416 386.532 568.893 384.785C569.187 384.706 569.493 384.591 569.81 384.432C573.264 382.8 578.179 377.285 578.179 377.285H585.641C585.641 377.285 585.901 377.662 586.252 378.369C587.067 380.025 588.476 383.498 585.618 388.301L585.619 388.302Z" fill="#239B7E"/>
<path d="M586.252 378.371V378.393C585.267 377.286 580.783 382.149 577.499 383.805C574.566 385.278 571.271 385.928 569.81 384.433C573.264 382.801 578.748 375.303 578.748 375.303L584.743 375.486C584.743 375.486 585.9 377.663 586.251 378.372L586.252 378.371Z" fill="#FDBBB5"/>
<path d="M572.017 318.136C568.315 308.698 563.783 299.414 558.338 291.901C580.595 232.837 579.898 206.412 579.898 206.412L553.096 206.393L550.24 216.27C550.24 216.27 543.543 240.861 541.592 254.977L535.998 286.36V286.448C535.618 292.966 537.172 299.439 540.507 305.17C544.149 311.432 550.591 318.867 554.126 325.616C558.777 334.523 563.167 343.453 566.916 351.441C570.867 359.861 574.082 367.22 576.087 372.332C577.986 372.53 583.716 369.344 585.365 366.456C585.365 366.456 581.307 341.826 572.017 318.136Z" fill="#263238"/>
<path opacity="0.2" d="M564.533 279.833C567.798 268.982 571.454 262.797 573.115 254.738C573.129 252.856 566.877 244.803 563.694 241.559C563.694 241.559 559.864 256.95 564.533 279.834V279.833Z" fill="black"/>
<path opacity="0.2" d="M566.916 351.442C570.866 359.862 574.081 367.22 576.087 372.332C577.985 372.53 583.715 369.344 585.364 366.456C585.364 366.456 581.307 341.826 572.017 318.137C570.131 327.918 568.019 340.277 566.916 351.442Z" fill="black"/>
<path d="M559.864 206.952C559.864 206.952 570.065 272.195 571.252 286.883C571.252 286.883 577.553 358.138 576.424 376.047L590.479 376.678C590.479 376.678 599.933 322.711 595.153 288.077C594.737 283.562 599.092 254.116 599.78 242.386C601.435 214.165 589.057 206.412 589.057 206.412L559.863 206.951L559.864 206.952Z" fill="#263238"/>
<path opacity="0.2" d="M577.664 208.055L579.898 243.085L599.933 240.697V237.096L577.664 208.055Z" fill="black"/>
<path d="M587.355 208.931C588.139 200.044 591.295 183.758 596.728 166.654C598.495 161.092 595.497 154.813 595.497 154.813C595.497 154.813 588.103 154.622 587.355 154.538C586.537 154.442 585.694 154.358 584.852 154.287C578.506 153.76 573.309 153.378 567.649 153.701C566.226 153.785 564.766 153.904 563.331 154.024C562.868 154.072 559.865 154.117 559.413 154.165C559.413 154.165 551.276 163.686 550.837 170.408C550.6 174.164 548.785 175.78 548.987 184.763C549.022 190.863 553.449 199.749 553.853 208.326L587.355 208.931Z" fill="white"/>
<path d="M581.028 240.239L604.604 237.775L589.666 195.92C589.666 195.92 590.904 195.501 593.04 187.488C594.071 183.589 595.151 179.451 596.064 175.766C597.393 170.456 598.39 166.055 598.461 164.619C598.698 160.134 593.259 153.02 593.259 153.02L579.461 151.32C579.461 151.32 576.821 160.851 576.264 179.067C575.707 197.271 581.029 240.238 581.029 240.238L581.028 240.239Z" fill="#239B7E"/>
<path d="M567.553 150.266C567.553 150.266 555.693 164.577 552.78 174.903C550.865 181.694 554.643 201.258 554.202 206.434C553.476 214.964 549.708 225.404 544.823 240.697L541.593 240.238L550.491 206.391C550.491 206.391 546.374 180.886 547.469 174.504C548.564 168.122 558.075 152.648 558.075 152.648L562.416 152.349L567.553 150.266Z" fill="#239B7E"/>
<path d="M579.817 149.316C579.817 149.316 574.483 159.845 576.5 186.341L585.363 167.294L582.155 162.089L586.413 153.582C586.413 153.582 581.859 150.652 579.946 149.104L579.817 149.316Z" fill="#239B7E"/>
<path opacity="0.2" d="M591.319 185.324C591.711 186.329 592.316 187.023 593.039 187.488C594.071 183.589 595.151 179.451 596.064 175.766C593.668 172.848 591.639 170.408 591.639 170.408C591.639 170.408 588.875 179.056 591.318 185.323L591.319 185.324Z" fill="black"/>
<path d="M592.883 152.992C598.083 152.768 610.087 177.778 614.776 189.968C616.165 193.579 613.109 198.209 610.424 198.949C604.406 200.609 574.268 202.273 574.268 202.273L573.124 193.3L598.757 187.93L590.556 175.562C590.556 175.562 587.487 169.324 588.06 163.538C588.634 157.751 592.883 152.992 592.883 152.992Z" fill="#239B7E"/>
<g opacity="0.2">
<path d="M579.817 149.316C579.817 149.316 574.483 159.845 576.5 186.341L585.363 167.294L582.155 162.089L586.413 153.582C586.413 153.582 581.859 150.652 579.946 149.104L579.817 149.316Z" fill="black"/>
</g>
<path opacity="0.2" d="M598.757 187.932C598.757 187.932 602.554 187.344 604.965 189.352C604.965 189.352 602.366 185.194 597.703 186.341L598.757 187.931V187.932Z" fill="black"/>
<path d="M552.504 186.497C552.504 186.497 550.519 180.654 550.882 175.261C551.245 169.869 551.329 165.846 551.329 165.846L557.447 161.324L556.642 155.812C556.642 155.812 559.592 154 562.333 152.144C564.206 150.876 567.88 148.958 568.363 149.106C568.363 149.106 552.738 168.88 552.66 176.97C552.584 184.773 552.504 186.498 552.504 186.498V186.497Z" fill="#239B7E"/>
<path opacity="0.3" d="M552.504 186.497C552.504 186.497 550.519 180.654 550.882 175.261C551.245 169.869 551.329 165.846 551.329 165.846L557.447 161.324L556.642 155.812C556.642 155.812 559.592 154 562.333 152.144C564.206 150.876 567.88 148.958 568.363 149.106C568.363 149.106 552.738 168.88 552.66 176.97C552.584 184.773 552.504 186.498 552.504 186.498V186.497Z" fill="black"/>
<path opacity="0.3" d="M550.088 203.805L547.986 183.881V205.975C547.986 205.975 549.297 204.878 550.088 203.805Z" fill="black"/>
<path opacity="0.2" d="M577.18 202.105L591.523 201.127L592.37 203.497L577.44 205.398L577.18 202.105Z" fill="black"/>
<path d="M564.42 154.377L568.711 147.582L571.466 150.968L578.668 146.461L579.945 149.105L576.999 157.749C576.999 157.749 569.636 160.763 569.245 160.763C568.854 160.763 564.419 154.378 564.419 154.378L564.42 154.377Z" fill="white"/>
<path opacity="0.3" d="M564.226 154.646L565.945 158.9L570.22 154.646L573.129 159.641L577.473 157.512L572.842 161.179L570.163 155.708L565.261 160.324L564.226 154.646Z" fill="black"/>
<path d="M516.305 165.971C520.238 170.242 524.539 174.134 528.88 177.96C531.098 179.831 561.879 204.94 564.151 206.739L567.541 209.476C568.756 210.587 570.5 211.05 572.261 210.729C574.211 210.432 575.717 208.765 575.704 206.922C575.752 205.248 574.973 203.719 573.598 202.786L570.143 200.128C567.86 198.337 536.853 173.47 534.511 171.74C529.749 168.367 525.752 164.028 520.576 161.118C519.429 160.441 517.002 161.873 516.182 163.026C515.503 163.98 515.553 165.192 516.303 165.971H516.305Z" fill="#263238"/>
<g opacity="0.3">
<path d="M516.305 165.973C520.238 170.244 524.539 174.136 528.88 177.962C531.098 179.833 561.879 204.942 564.151 206.741L567.541 209.478C568.756 210.589 570.5 211.052 572.261 210.731C574.211 210.433 575.717 208.767 575.704 206.924C575.752 205.25 574.973 203.721 573.598 202.788L570.143 200.13C567.86 198.339 536.853 173.472 534.511 171.742C529.749 168.369 525.752 164.03 520.576 161.12C519.429 160.443 517.002 161.874 516.182 163.028C515.503 163.982 515.553 165.194 516.303 165.973H516.305Z" fill="white"/>
</g>
<path d="M494.499 112.498H485.703L485.971 147.554C485.971 147.554 498.506 148.282 500.182 136.404C501.858 124.525 497.909 115.779 494.499 112.498Z" fill="#239B7E"/>
<path d="M506.201 104.098C506.568 105.684 506.277 107.53 505.779 109.061C505.265 110.646 504.439 112.104 503.333 113.35C501.125 115.837 497.807 117.236 494.499 117.224C492.983 117.219 492.979 114.863 494.499 114.867C497.159 114.876 499.735 113.781 501.541 111.821C502.408 110.88 503.073 109.736 503.477 108.522C503.856 107.387 504.204 105.917 503.928 104.724C503.586 103.248 505.859 102.618 506.201 104.098Z" fill="#239B7E"/>
<path d="M514.047 126.059C509.149 123.911 503.318 124.391 498.77 127.155C497.471 127.945 496.285 125.908 497.58 125.121C502.903 121.885 509.555 121.533 515.236 124.025C515.823 124.282 515.947 125.13 515.658 125.637C515.314 126.242 514.625 126.314 514.046 126.059H514.047Z" fill="#239B7E"/>
<path d="M507.849 142.935C505.75 138.492 501.722 135.181 496.94 134.028C495.466 133.674 496.09 131.401 497.566 131.756C502.886 133.039 507.543 136.793 509.884 141.745C510.156 142.32 510.044 143.016 509.461 143.357C508.949 143.657 508.123 143.513 507.849 142.935Z" fill="#239B7E"/>
<path d="M474.596 112.498H483.391L483.123 147.554C483.123 147.554 470.589 148.282 468.913 136.404C467.236 124.525 471.186 115.779 474.596 112.498Z" fill="#239B7E"/>
<path d="M465.167 104.723C464.897 105.887 465.227 107.322 465.588 108.434C465.993 109.68 466.665 110.855 467.553 111.82C469.36 113.781 471.937 114.876 474.596 114.867C476.112 114.861 476.114 117.218 474.596 117.224C471.288 117.235 467.969 115.836 465.761 113.35C464.657 112.105 463.826 110.645 463.315 109.061C462.821 107.529 462.526 105.686 462.894 104.097C463.236 102.62 465.508 103.245 465.166 104.724L465.167 104.723Z" fill="#239B7E"/>
<path d="M453.859 124.024C459.539 121.533 466.192 121.885 471.514 125.12C472.809 125.907 471.625 127.946 470.324 127.155C465.777 124.391 459.946 123.912 455.048 126.059C454.461 126.316 453.789 126.227 453.436 125.637C453.138 125.139 453.277 124.28 453.858 124.024H453.859Z" fill="#239B7E"/>
<path d="M459.212 141.745C461.552 136.792 466.209 133.038 471.53 131.756C473.004 131.401 473.632 133.673 472.156 134.028C467.374 135.181 463.346 138.492 461.246 142.935C460.975 143.51 460.15 143.659 459.634 143.357C459.045 143.013 458.938 142.323 459.212 141.745Z" fill="#239B7E"/>
<path d="M493.957 110.674C493.89 110.874 492.823 101.969 484.964 101.969C477.105 101.969 475.044 110.678 475.044 110.678L493.957 110.674Z" fill="#239B7E"/>
<path d="M536.975 105.287C526.087 76.1742 493.66 61.4003 464.547 72.2882C435.496 83.1536 420.711 115.475 431.49 144.559C442.291 173.705 474.674 188.575 503.819 177.774C532.964 166.973 547.835 134.589 537.032 105.445C537.013 105.393 536.994 105.34 536.974 105.288L536.975 105.287ZM438.221 142.204L438.19 142.12C428.781 116.741 441.728 88.5389 467.107 79.1295C492.451 69.7698 520.59 82.6851 530.017 108.005C539.461 133.372 526.552 161.591 501.187 171.035C475.82 180.478 447.601 167.57 438.157 142.203H438.222L438.221 142.204Z" fill="#263238"/>
<path opacity="0.3" d="M536.975 105.287C526.087 76.1742 493.66 61.4003 464.547 72.2882C435.496 83.1536 420.711 115.475 431.49 144.559C442.291 173.705 474.674 188.575 503.819 177.774C532.964 166.973 547.835 134.589 537.032 105.445C537.013 105.393 536.994 105.34 536.974 105.288L536.975 105.287ZM438.221 142.204L438.19 142.12C428.781 116.741 441.728 88.5389 467.107 79.1295C492.451 69.7698 520.59 82.6851 530.017 108.005C539.461 133.372 526.552 161.591 501.187 171.035C475.82 180.478 447.601 167.57 438.157 142.203H438.222L438.221 142.204Z" fill="white"/>
<path d="M565.253 191.865L573.853 194.347L574.896 201.66C574.071 206.324 565.93 202.763 565.93 202.763L564.106 203.921C562.626 204.86 559.105 203.826 558.802 202.088L558.592 197.642C558.435 196.738 559.617 195.001 560.335 194.437L563.06 192.294C563.68 191.806 564.494 191.647 565.252 191.866L565.253 191.865Z" fill="#FDBBB5"/>
<path d="M521.431 171.44C521.431 171.44 526.553 169.68 528.1 170.357C529.648 171.034 527.764 172.538 527.764 172.538C527.764 172.538 529.938 171.01 530.712 171.846C531.64 172.849 529.659 174.416 529.659 174.416C529.659 174.416 531.486 173.242 532.124 174.031C532.785 174.849 530.676 176.777 530.676 176.777C530.676 176.777 532.118 176.193 532.251 176.992C532.384 177.792 527.985 181.969 525.896 182.298C523.807 182.628 518.65 176.788 517.788 175.283C516.925 173.777 517.369 171.623 519.056 169.121L521.43 171.439L521.431 171.44Z" fill="#FDBBB5"/>
<path opacity="0.2" d="M527.845 172.639L527.836 172.645L523.918 175.126C523.865 175.16 523.79 175.139 523.752 175.08C523.713 175.022 523.724 174.945 523.776 174.913L527.693 172.432C527.746 172.399 527.821 172.419 527.86 172.478C527.897 172.533 527.888 172.603 527.844 172.638L527.845 172.639Z" fill="black"/>
<path opacity="0.2" d="M529.637 174.597L529.634 174.599L526.061 177.282C526.011 177.319 525.936 177.304 525.894 177.248C525.85 177.191 525.857 177.13 525.906 177.078L529.48 174.395C529.53 174.358 529.605 174.374 529.647 174.429C529.689 174.485 529.684 174.559 529.637 174.597Z" fill="black"/>
<path opacity="0.2" d="M530.637 176.972L528.038 179.041C527.99 179.08 527.915 179.067 527.87 179.012C527.827 178.957 527.83 178.881 527.879 178.842L530.477 176.772C530.526 176.733 530.601 176.747 530.645 176.802C530.689 176.857 530.686 176.934 530.637 176.972Z" fill="black"/>
</svg>
