<svg width="602" height="449" viewBox="0 0 602 449" fill="none" xmlns="http://www.w3.org/2000/svg">
<path d="M601.628 393.945H0V394.246H601.628V393.945Z" fill="#EBEBEB"/>
<path d="M541.345 413.307H501.493V413.607H541.345V413.307Z" fill="#EBEBEB"/>
<path d="M398.542 416.58H388.086V416.881H398.542V416.58Z" fill="#EBEBEB"/>
<path d="M500.29 402.141H477.199V402.441H500.29V402.141Z" fill="#EBEBEB"/>
<path d="M115.091 404.162H63.1227V404.463H115.091V404.162Z" fill="#EBEBEB"/>
<path d="M133.429 404.162H125.812V404.463H133.429V404.162Z" fill="#EBEBEB"/>
<path d="M270.913 409.24H158.192V409.541H270.913V409.24Z" fill="#EBEBEB"/>
<path d="M285.172 340.281H52.8349C51.0148 340.277 49.2704 339.552 47.9845 338.264C46.6986 336.976 45.9764 335.23 45.9764 333.41V6.81043C45.9922 5.00076 46.7214 3.27042 48.0056 1.99526C49.2898 0.720098 51.0252 0.00310005 52.8349 0H285.172C286.994 0 288.741 0.723864 290.03 2.01235C291.318 3.30083 292.042 5.04839 292.042 6.87059V333.41C292.042 335.232 291.318 336.98 290.03 338.268C288.741 339.557 286.994 340.281 285.172 340.281ZM52.8349 0.240652C51.0946 0.243839 49.4267 0.937414 48.1972 2.16914C46.9677 3.40087 46.2772 5.0701 46.2772 6.81043V333.41C46.2772 335.15 46.9677 336.82 48.1972 338.051C49.4267 339.283 51.0946 339.977 52.8349 339.98H285.172C286.913 339.977 288.582 339.283 289.814 338.052C291.045 336.821 291.738 335.152 291.741 333.41V6.81043C291.738 5.06899 291.045 3.39979 289.814 2.16841C288.582 0.937024 286.913 0.243833 285.172 0.240652H52.8349Z" fill="#EBEBEB"/>
<path d="M545.448 340.281H313.099C311.278 340.277 309.532 339.553 308.244 338.265C306.957 336.977 306.232 335.231 306.229 333.41V6.81043C306.248 4.99966 306.979 3.26934 308.265 1.99451C309.552 0.719678 311.288 0.00306624 313.099 0H545.448C547.255 0.00626234 548.988 0.72466 550.269 1.99948C551.551 3.27431 552.278 5.00284 552.294 6.81043V333.41C552.294 335.228 551.574 336.972 550.29 338.26C549.007 339.548 547.266 340.274 545.448 340.281ZM313.099 0.240652C311.358 0.243833 309.688 0.937024 308.457 2.16841C307.226 3.39979 306.533 5.06899 306.529 6.81043V333.41C306.533 335.152 307.226 336.821 308.457 338.052C309.688 339.283 311.358 339.977 313.099 339.98H545.448C547.189 339.977 548.858 339.283 550.09 338.052C551.321 336.821 552.014 335.152 552.017 333.41V6.81043C552.014 5.06899 551.321 3.39979 550.09 2.16841C548.858 0.937024 547.189 0.243833 545.448 0.240652H313.099Z" fill="#EBEBEB"/>
<path d="M134.031 393.946V223.697H79.4389V393.946H134.031Z" fill="#F0F0F0"/>
<path d="M131.035 278.084V227.969H82.435V278.084H131.035Z" fill="#E6E6E6"/>
<path d="M131.035 332.702V282.586H82.4351V332.702H131.035Z" fill="#E6E6E6"/>
<path d="M131.022 387.315V337.199H82.423V387.315H131.022Z" fill="#E6E6E6"/>
<path d="M131.035 278.084V227.969H111.915V278.084H131.035Z" fill="#E0E0E0"/>
<path d="M131.035 332.702V282.586H111.915V332.702H131.035Z" fill="#E0E0E0"/>
<path d="M123.743 258.062H110.507V278.085H123.743V258.062Z" fill="#F0F0F0"/>
<path d="M104.9 278.084H110.495V258.062H104.9V278.084Z" fill="#E0E0E0"/>
<path d="M107.703 263.271H90.7014V278.084H107.703V263.271Z" fill="#F0F0F0"/>
<path d="M83.518 278.084H90.7014V263.272H83.518V278.084Z" fill="#E0E0E0"/>
<path d="M131.022 387.305V337.189H111.903V387.305H131.022Z" fill="#E0E0E0"/>
<path d="M79.4389 393.946L79.4389 223.697H64.6148L64.6148 393.946H79.4389Z" fill="#F5F5F5"/>
<path d="M125.596 357.934H89.4982V387.317H125.596V357.934Z" fill="#F0F0F0"/>
<path d="M82.4351 387.305H89.4982V357.921H82.4351V387.305Z" fill="#E0E0E0"/>
<path d="M119.255 309.381H87.1758V332.7H119.255V309.381Z" fill="#FAFAFA"/>
<path d="M82.447 332.701H87.1879V309.382H82.447V332.701Z" fill="#F0F0F0"/>
<path d="M537.145 393.946V223.697H482.554V393.946H537.145Z" fill="#F0F0F0"/>
<path d="M534.137 278.084V227.969H485.538V278.084H534.137Z" fill="#E6E6E6"/>
<path d="M534.137 332.702V282.586H485.538V332.702H534.137Z" fill="#E6E6E6"/>
<path d="M534.137 387.315V337.199H485.538V387.315H534.137Z" fill="#E6E6E6"/>
<path d="M534.137 278.084V227.969H515.017V278.084H534.137Z" fill="#E0E0E0"/>
<path d="M534.137 332.702V282.586H515.017V332.702H534.137Z" fill="#E0E0E0"/>
<path d="M506.462 318.139H493.226V332.686H506.462V318.139Z" fill="#F0F0F0"/>
<path d="M487.631 332.701H493.226V318.154H487.631V332.701Z" fill="#E0E0E0"/>
<path d="M518.447 303.594H505.211V318.141H518.447V303.594Z" fill="#F0F0F0"/>
<path d="M499.616 318.152H505.211V303.605H499.616V318.152Z" fill="#E0E0E0"/>
<path d="M527.856 318.139H514.62V332.686H527.856V318.139Z" fill="#F0F0F0"/>
<path d="M509.025 332.701H514.62V318.154H509.025V332.701Z" fill="#E0E0E0"/>
<path d="M534.137 387.315V337.199H515.017V387.315H534.137Z" fill="#E0E0E0"/>
<path d="M482.554 393.946V223.697H467.729V393.946H482.554Z" fill="#F5F5F5"/>
<path d="M521.238 347.523H491.385V387.315H521.238V347.523Z" fill="#F0F0F0"/>
<path d="M485.55 387.305H491.385V347.513H485.55V387.305Z" fill="#E0E0E0"/>
<path d="M530.84 246.5H491.385V278.085H530.84V246.5Z" fill="#FAFAFA"/>
<path d="M485.55 278.084H491.385V246.499H485.55V278.084Z" fill="#F0F0F0"/>
<path d="M435.915 31.9824H157.302V214.986H435.915V31.9824Z" fill="#E6E6E6"/>
<path d="M439.682 31.9824H161.068V214.986H439.682V31.9824Z" fill="#F5F5F5"/>
<path d="M432.931 207.407V39.5645L167.806 39.5645V207.407L432.931 207.407Z" fill="white"/>
<path d="M432.931 207.407V39.5645H430.092V207.407H432.931Z" fill="#E6E6E6"/>
<path d="M436.89 154.822H163.859V165.002H436.89V154.822Z" fill="#F5F5F5"/>
<path d="M447.045 19.4317H149.95C149.813 19.4301 149.677 19.4557 149.55 19.507C149.423 19.5583 149.308 19.6343 149.21 19.7305C149.113 19.8268 149.035 19.9414 148.983 20.0677C148.93 20.194 148.903 20.3296 148.903 20.4665C148.906 20.7421 149.018 21.0052 149.214 21.199C149.41 21.3927 149.674 21.5013 149.95 21.5013H447.045C447.319 21.4982 447.58 21.3882 447.774 21.1948C447.967 21.0014 448.077 20.74 448.08 20.4665C448.08 20.1921 447.971 19.9289 447.777 19.7348C447.583 19.5407 447.32 19.4317 447.045 19.4317Z" fill="#E6E6E6"/>
<path d="M450.679 20.4545C450.679 20.9685 450.527 21.471 450.241 21.8985C449.956 22.3259 449.55 22.659 449.075 22.8557C448.6 23.0524 448.077 23.1039 447.573 23.0036C447.069 22.9033 446.606 22.6558 446.242 22.2923C445.879 21.9288 445.631 21.4657 445.531 20.9615C445.431 20.4574 445.482 19.9348 445.679 19.4599C445.876 18.985 446.209 18.5791 446.636 18.2935C447.064 18.0079 447.566 17.8555 448.08 17.8555C448.422 17.8555 448.759 17.9227 449.075 18.0533C449.39 18.1839 449.677 18.3754 449.918 18.6167C450.159 18.8581 450.351 19.1446 450.481 19.4599C450.612 19.7752 450.679 20.1132 450.679 20.4545Z" fill="#E6E6E6"/>
<path d="M158.709 26.2909C158.337 26.2877 157.981 26.1384 157.717 25.8751C157.454 25.6117 157.305 25.2555 157.302 24.8831V21.8629C157.302 21.4895 157.45 21.1314 157.714 20.8674C157.978 20.6034 158.336 20.4551 158.709 20.4551C159.08 20.4551 159.435 20.6021 159.696 20.8639C159.958 21.1257 160.105 21.4807 160.105 21.8509V24.871C160.107 25.0559 160.072 25.2393 160.003 25.4107C159.933 25.5821 159.831 25.7382 159.701 25.87C159.572 26.0019 159.417 26.1069 159.247 26.1791C159.077 26.2513 158.894 26.2893 158.709 26.2909Z" fill="#E6E6E6"/>
<path d="M431.367 26.2909C430.996 26.2877 430.641 26.138 430.379 25.8743C430.118 25.6106 429.971 25.2544 429.971 24.8831V21.8629C429.97 21.6786 430.005 21.4958 430.074 21.325C430.144 21.1543 430.246 20.999 430.376 20.8681C430.506 20.7373 430.66 20.6334 430.83 20.5625C431 20.4916 431.183 20.4551 431.367 20.4551C431.738 20.4551 432.095 20.6017 432.358 20.8632C432.622 21.1246 432.772 21.4796 432.775 21.8509V24.871C432.775 25.2455 432.627 25.6048 432.363 25.8708C432.1 26.1367 431.742 26.2877 431.367 26.2909Z" fill="#E6E6E6"/>
<path opacity="0.4" d="M446.708 20.4668H163.859V200.281H446.708V20.4668Z" fill="#E0E0E0"/>
<path d="M178.01 20.4545C178.01 20.9691 177.857 21.4721 177.571 21.8997C177.285 22.3274 176.878 22.6605 176.402 22.8569C175.927 23.0532 175.404 23.104 174.899 23.0027C174.395 22.9014 173.932 22.6527 173.569 22.288C173.206 21.9233 172.959 21.4591 172.86 20.9542C172.761 20.4492 172.814 19.9263 173.013 19.4516C173.211 18.9769 173.546 18.5718 173.975 18.2877C174.404 18.0035 174.908 17.8531 175.423 17.8555C176.11 17.8587 176.768 18.1339 177.253 18.621C177.737 19.108 178.01 19.7673 178.01 20.4545Z" fill="#E6E6E6"/>
<path d="M196.095 296.604L451.558 296.604V286.111L196.095 286.111V296.604Z" fill="#F0F0F0"/>
<path d="M196.095 286.109H165.845V296.602H196.095V286.109Z" fill="#E6E6E6"/>
<path d="M447.358 296.604H170.513V302.692H447.358V296.604Z" fill="#E0E0E0"/>
<path d="M444.386 301.355V393.945H447.358V301.355H444.386Z" fill="#E0E0E0"/>
<path d="M196.094 301.355V393.945H199.067V301.355H196.094Z" fill="#E0E0E0"/>
<path d="M170.513 301.355V393.945H173.473V301.355H170.513Z" fill="#E0E0E0"/>
<path d="M418.817 301.355V393.945H421.789V301.355H418.817Z" fill="#E0E0E0"/>
<path d="M360.796 189.85L371.06 208.163C370.747 247.702 374.261 249.988 374.297 256.787H363.467C362.445 223.673 356.043 226.489 360.796 189.85Z" fill="#E0E0E0"/>
<path d="M368.713 237.799C365.104 199.668 305.037 205.768 299.334 223.685C293.63 241.601 370.807 259.734 368.713 237.799Z" fill="#E0E0E0"/>
<path d="M364.177 222.325C372.107 194.193 335.973 188.887 319.837 197.057C310.332 206.575 359.617 238.509 364.177 222.325Z" fill="#E0E0E0"/>
<path d="M354.226 204.553C372.829 198.537 360.784 178.996 349.678 173.99C340.521 172.763 343.529 208.078 354.226 204.553Z" fill="#E0E0E0"/>
<path d="M374.67 223.108C353.625 207.177 379.146 191.883 396.076 191.955C408.565 195.144 386.774 232.228 374.67 223.108Z" fill="#E0E0E0"/>
<path d="M370.891 207.081C342.844 200.006 359.617 180.019 375.849 175.206C389.349 174.232 387.015 211.16 370.891 207.081Z" fill="#E0E0E0"/>
<path d="M365.79 240.109C360.555 205.708 417.012 207.356 421.585 221.001C426.157 234.646 368.738 259.903 365.79 240.109Z" fill="#E0E0E0"/>
<path d="M362.781 286.111C342.326 286.111 325.108 285.208 320.92 265.824C319.905 260.681 318.444 255.636 316.552 250.747L316.228 249.965H409.323L408.999 250.747C407.106 255.635 405.648 260.68 404.643 265.824C400.443 285.172 383.213 286.111 362.781 286.111Z" fill="#FAFAFA"/>
<path d="M415.352 251.733H310.199L307.191 242.961H418.36L415.352 251.733Z" fill="#F0F0F0"/>
<path d="M300.814 448.283C429.661 448.283 534.113 442.184 534.113 434.662C534.113 427.139 429.661 421.041 300.814 421.041C171.966 421.041 67.5146 427.139 67.5146 434.662C67.5146 442.184 171.966 448.283 300.814 448.283Z" fill="#F5F5F5"/>
<path d="M457.839 424.76L448.189 424.616L448.152 402.211L457.791 402.355L457.839 424.76Z" fill="#FFB573"/>
<path d="M506.835 424.798H497.173L494.309 402.43H503.971L506.835 424.798Z" fill="#FFB573"/>
<path d="M496.162 423.676H507.942C508.131 423.676 508.314 423.742 508.459 423.863C508.604 423.984 508.702 424.152 508.736 424.338L510.276 432.93C510.31 433.142 510.296 433.359 510.237 433.566C510.178 433.773 510.074 433.965 509.933 434.127C509.792 434.29 509.617 434.42 509.421 434.508C509.225 434.596 509.012 434.641 508.797 434.638C505.006 434.578 502.251 434.349 497.474 434.349C494.538 434.349 485.682 434.662 481.627 434.662C477.572 434.662 477.211 430.655 478.884 430.282C486.392 428.658 492.119 426.42 494.526 424.266C494.979 423.872 495.562 423.662 496.162 423.676Z" fill="#263238"/>
<path d="M447.719 423.543L458.26 423.711C458.449 423.71 458.631 423.778 458.773 423.902C458.915 424.026 459.006 424.198 459.03 424.385L460.354 432.989C460.383 433.202 460.366 433.419 460.304 433.625C460.241 433.832 460.135 434.022 459.992 434.183C459.849 434.344 459.673 434.473 459.476 434.559C459.279 434.646 459.065 434.689 458.849 434.685C455.047 434.565 449.572 434.252 444.795 434.18C439.212 434.096 438.587 434.324 432.041 434.18C428.082 434.12 427.228 430.101 428.937 429.764C436.601 428.224 438.563 428.139 445.349 424.217C446.065 423.785 446.883 423.552 447.719 423.543Z" fill="#263238"/>
<path d="M452.003 137.328C449.41 144.294 446.459 151.122 443.159 157.783C441.51 161.104 439.778 164.413 437.877 167.662C435.991 170.98 433.926 174.194 431.692 177.288L429.875 179.694C428.757 181.119 427.361 182.302 425.772 183.172C424.114 184.068 422.266 184.554 420.381 184.592C418.839 184.639 417.298 184.436 415.821 183.99C413.519 183.292 411.339 182.241 409.36 180.873C407.671 179.708 406.063 178.43 404.546 177.047C398.978 171.833 394.122 165.906 390.107 159.419L395.835 154.955C398.302 157.362 400.901 159.768 403.524 162.03C406.056 164.273 408.72 166.363 411.501 168.287C412.771 169.182 414.101 169.987 415.484 170.694C416.558 171.261 417.709 171.666 418.901 171.897C419.157 171.971 419.428 171.971 419.683 171.897C419.768 171.837 419.599 171.825 419.455 171.897C419.31 171.969 419.274 171.897 419.359 171.801L420.622 169.791C424.131 163.888 427.285 157.781 430.068 151.502C432.967 145.161 435.759 138.555 438.346 132.178L452.003 137.328Z" fill="#FFB573"/>
<path d="M455.613 131.023C458.801 139.686 442.076 164.991 442.076 164.991L422.824 154.33C425.791 146.439 429.599 138.891 434.183 131.817C441.15 121.698 452.135 121.529 455.613 131.023Z" fill="#B24097"/>
<path opacity="0.5" d="M455.613 131.023C458.801 139.686 442.076 164.991 442.076 164.991L422.824 154.33C425.791 146.439 429.599 138.891 434.183 131.817C441.15 121.698 452.135 121.529 455.613 131.023Z" fill="white"/>
<path opacity="0.2" d="M444.94 140.515C441.258 142.38 432.907 151.549 430.392 158.504L442.076 164.99C446.067 158.841 449.598 152.406 452.641 145.737C450.017 143.187 446.889 139.577 444.94 140.515Z" fill="#B24097"/>
<path d="M396.461 155.111L390.589 149.793L385.042 159.287C385.042 159.287 390.685 165.905 396.93 162.692L397.772 160.285C398.088 159.39 398.133 158.421 397.899 157.5C397.666 156.579 397.165 155.748 396.461 155.111Z" fill="#FFB573"/>
<path d="M381.107 145.799L379.483 155.028L385.042 159.287L390.589 149.794L381.107 145.799Z" fill="#FFB573"/>
<path opacity="0.2" d="M448.152 402.211L448.177 413.762L457.815 413.919L457.803 402.367L448.152 402.211Z" fill="black"/>
<path opacity="0.2" d="M503.971 402.439H494.309L495.801 413.967H505.451L503.971 402.439Z" fill="black"/>
<path d="M498.328 124.295C490.339 161.596 494.971 200.305 494.55 208.235L442.894 207.777C432.558 153.366 444.218 124.295 444.218 124.295C444.218 124.295 447.479 123.441 451.943 122.683C453.339 122.442 454.855 122.214 456.431 122.033C457.297 121.925 458.188 121.841 459.09 121.757C466.408 121.407 473.74 121.475 481.05 121.961C482.433 122.033 483.841 122.154 485.201 122.286C486.56 122.418 487.716 122.563 488.883 122.719C494.201 123.417 498.328 124.295 498.328 124.295Z" fill="#B24097"/>
<path opacity="0.5" d="M498.328 124.295C490.339 161.596 494.971 200.305 494.55 208.235L442.894 207.777C432.558 153.366 444.218 124.295 444.218 124.295C444.218 124.295 447.479 123.441 451.943 122.683C453.339 122.442 454.855 122.214 456.431 122.033C457.297 121.925 458.188 121.841 459.09 121.757C466.408 121.407 473.74 121.475 481.05 121.961C482.433 122.033 483.841 122.154 485.201 122.286C486.56 122.418 487.716 122.563 488.883 122.719C494.201 123.417 498.328 124.295 498.328 124.295Z" fill="white"/>
<path opacity="0.2" d="M488.389 140.781C487.691 144.391 489.809 160.479 493.768 164.221C493.924 159.011 494.249 153.572 494.779 147.989L488.389 140.781Z" fill="black"/>
<path d="M479.088 97.2109C477.644 104.262 476.14 117.197 481.049 121.962C477.175 125.74 472.109 130.108 463.723 130.325C455.336 130.541 456.84 124.79 459.09 121.757C466.983 119.952 466.839 114.105 465.515 108.606L479.088 97.2109Z" fill="#FFB573"/>
<path d="M479.618 119.254C479.618 119.254 477.067 125.944 463.386 130.324C465.593 131.36 467.387 133.111 468.475 135.293C468.475 135.293 484.467 131.226 483.251 121.107C482.129 120.329 480.906 119.706 479.618 119.254Z" fill="white"/>
<path d="M458.164 134.764C459.366 132.756 461.204 131.206 463.386 130.36C461.846 128.952 459.355 124.56 460.45 121.143C459.366 121.114 458.284 121.243 457.237 121.528C457.237 121.528 451.522 126.99 458.164 134.764Z" fill="white"/>
<path d="M463.001 138.109C462.892 139.071 462.399 139.793 461.882 139.733C461.364 139.673 461.039 138.867 461.136 137.904C461.232 136.941 461.749 136.232 462.255 136.28C462.76 136.328 463.109 137.17 463.001 138.109Z" fill="white"/>
<path d="M462.05 148.001C462.05 148.964 461.593 149.734 461.075 149.722C460.558 149.71 460.149 148.928 460.173 147.965C460.197 147.002 460.63 146.232 461.148 146.244C461.665 146.256 462.05 147.05 462.05 148.001Z" fill="white"/>
<path opacity="0.2" d="M473.553 101.854L465.515 108.592C465.844 109.874 466.057 111.182 466.153 112.502C469.173 112.093 473.373 108.82 473.685 105.668C473.872 104.399 473.827 103.107 473.553 101.854Z" fill="black"/>
<path d="M464.818 81.1235C463.226 82.7678 462.045 84.7649 461.372 86.9522C460.698 89.1394 460.552 91.4548 460.943 93.7096C458.717 95.6348 454.686 95.2858 454.686 95.2858L453.411 94.0104C452.803 93.3958 452.334 92.6575 452.037 91.8456C451.74 91.0338 451.622 90.1674 451.69 89.3057C451.919 86.49 452.556 82.2185 454.337 79.5112C457.237 75.1915 464.818 81.1235 464.818 81.1235Z" fill="#263238"/>
<path d="M480.027 86.6332C479.353 96.2592 479.449 101.83 474.576 106.691C467.236 114.019 455.468 109.531 453.266 99.9532C451.293 91.3379 452.725 77.0913 462.122 73.4816C464.186 72.6511 466.428 72.3614 468.636 72.6399C470.843 72.9184 472.943 73.7558 474.736 75.073C476.529 76.3901 477.956 78.1432 478.882 80.1662C479.808 82.1893 480.202 84.4152 480.027 86.6332Z" fill="#FFB573"/>
<path d="M472.037 80.7862C473.635 84.3631 473.794 88.4176 472.482 92.1089C472.34 92.4818 472.276 92.8797 472.292 93.2784C472.309 93.6771 472.406 94.0683 472.578 94.4283C472.75 94.7884 472.994 95.1097 473.294 95.3728C473.594 95.636 473.944 95.8355 474.323 95.9593C475.154 96.2069 476.019 96.3246 476.886 96.3082L481.495 95.4298C481.495 95.4298 483.432 88.5713 482.168 83.5537C480.905 78.5361 472.037 80.7862 472.037 80.7862Z" fill="#263238"/>
<path d="M472.001 82.051C464.934 82.6905 457.811 82.3218 450.848 80.956C450.848 80.956 453.11 73.7365 458.188 71.33C463.265 68.9235 473.998 69.0799 477.307 70.4757C480.616 71.8715 484.936 76.131 483.324 86.5271C479.894 90.2452 472.001 82.051 472.001 82.051Z" fill="#263238"/>
<path d="M484.755 84.9858C484.755 84.9858 457.815 81.0753 446.648 79.114C446.479 79.083 446.327 78.9938 446.217 78.8619C446.107 78.73 446.047 78.5637 446.047 78.392C446.047 78.2203 446.107 78.054 446.217 77.9221C446.327 77.7902 446.479 77.701 446.648 77.6701C451.319 77.2252 456.03 77.4358 460.642 78.2957L484.755 84.9858Z" fill="#B24097"/>
<path d="M451.04 77.6814C451.522 75.2749 455.685 62.8452 473.156 66.6235C489.34 70.1129 484.755 84.9851 484.755 84.9851L451.04 77.6814Z" fill="#B24097"/>
<path d="M461.99 66.9964L467.838 65.2637L474.889 65.8412V67.0565L470.413 68.0913L461.99 66.9964Z" fill="#B24097"/>
<path opacity="0.2" d="M462.868 78.9341C462.809 78.9357 462.75 78.9254 462.694 78.9037C462.639 78.8821 462.588 78.8496 462.546 78.8081C462.503 78.7666 462.469 78.7169 462.446 78.6621C462.423 78.6073 462.411 78.5484 462.411 78.4889C462.411 78.3927 462.543 68.7185 473.998 66.1435C474.059 66.1248 474.123 66.1188 474.186 66.126C474.249 66.1333 474.31 66.1535 474.364 66.1855C474.419 66.2175 474.467 66.2605 474.504 66.3118C474.541 66.3632 474.567 66.4217 474.581 66.4837C474.594 66.5456 474.594 66.6097 474.582 66.6718C474.569 66.734 474.543 66.7928 474.507 66.8445C474.47 66.8963 474.423 66.9398 474.369 66.9724C474.314 67.005 474.254 67.026 474.191 67.0339C463.47 69.4404 463.362 78.1159 463.362 78.4889C463.362 78.5517 463.349 78.6138 463.324 78.6712C463.298 78.7286 463.261 78.78 463.215 78.822C463.168 78.8641 463.113 78.8958 463.053 78.9151C462.994 78.9344 462.931 78.9409 462.868 78.9341Z" fill="black"/>
<path d="M484.118 96.3306C482.89 98.4073 480.892 99.9161 478.559 100.53C475.466 101.312 473.998 98.5205 474.949 95.6448C475.779 93.0457 478.402 89.5081 481.483 90.0135C484.563 90.5189 485.586 93.7677 484.118 96.3306Z" fill="#FFB573"/>
<path d="M445.204 411.512L461.557 411.765C461.557 411.765 465.985 347.066 465.491 316.972C465.347 307.815 466.346 294.929 467.898 281.091C469.811 263.656 470.822 256.689 473.337 234.645C475.129 218.931 476.946 208.174 476.946 208.174L442.99 207.873C442.99 207.873 438.647 286.686 439.537 316.166C440.391 346.693 445.204 411.512 445.204 411.512Z" fill="#263238"/>
<path opacity="0.2" d="M466.31 229.447C461.232 244.969 463.422 280.417 466.875 290.212C467.164 287.228 467.489 284.195 467.826 281.067C469.739 263.62 470.762 256.653 473.276 234.621C473.276 234.176 473.373 233.755 473.421 233.334C471.297 231.631 468.89 230.315 466.31 229.447Z" fill="black"/>
<path d="M461.22 207.945C461.22 207.945 472.747 289.057 476.862 317.057C481.362 347.715 491.301 411.729 491.301 411.729H508.977C508.977 411.729 505.656 351.397 501.842 321.424C497.51 287.276 494.514 208.246 494.514 208.246L461.22 207.945Z" fill="#263238"/>
<path d="M489.207 412.114H510.036V405.893L486.753 405.496L489.207 412.114Z" fill="#B24097"/>
<path d="M442.714 411.826L462.158 412.127L463.049 405.834L441.354 405.16L442.714 411.826Z" fill="#B24097"/>
<path d="M465.491 89.1248C465.491 89.9069 465.07 90.5326 464.553 90.5326C464.035 90.5326 463.638 89.8949 463.65 89.1127C463.662 88.3306 464.072 87.7049 464.589 87.717C465.106 87.729 465.503 88.3547 465.491 89.1248Z" fill="#263238"/>
<path d="M456.684 89.0409C456.684 89.8231 456.262 90.4487 455.757 90.4367C455.252 90.4247 454.843 89.799 454.843 89.0289C454.843 88.2588 455.264 87.6211 455.781 87.6211C456.298 87.6211 456.696 88.2709 456.684 89.0409Z" fill="#263238"/>
<path d="M459.222 89.8691C458.27 92.2395 456.995 94.4666 455.432 96.487C455.961 96.8724 456.568 97.1377 457.21 97.2645C457.852 97.3913 458.514 97.3764 459.15 97.221L459.222 89.8691Z" fill="#ED893E"/>
<path d="M462.688 99.5465C463.557 99.4509 464.397 99.1785 465.156 98.746C465.916 98.3135 466.578 97.7301 467.104 97.0317C467.126 96.9826 467.13 96.9272 467.115 96.8754C467.101 96.8235 467.068 96.7785 467.024 96.7483C466.979 96.7181 466.925 96.7046 466.872 96.7102C466.818 96.7158 466.768 96.7402 466.731 96.779C466.134 97.5463 465.367 98.1636 464.489 98.5814C463.612 98.9993 462.649 99.2061 461.677 99.1855C461.616 99.1855 461.558 99.2096 461.515 99.2525C461.473 99.2953 461.448 99.3535 461.448 99.4141C461.448 99.4747 461.473 99.5329 461.515 99.5758C461.558 99.6186 461.616 99.6427 461.677 99.6427C462.016 99.6293 462.353 99.5972 462.688 99.5465Z" fill="#263238"/>
<path d="M468.235 86.3073C468.312 86.2953 468.386 86.2665 468.451 86.2231C468.549 86.1511 468.613 86.0436 468.631 85.9241C468.649 85.8046 468.619 85.6828 468.548 85.5854C468.126 84.9916 467.569 84.5071 466.922 84.1722C466.275 83.8373 465.558 83.6618 464.83 83.6602C464.77 83.6632 464.712 83.6781 464.658 83.7042C464.604 83.7302 464.556 83.7667 464.517 83.8116C464.478 83.8565 464.448 83.9089 464.429 83.9655C464.411 84.0222 464.404 84.082 464.408 84.1415C464.412 84.2015 464.426 84.2604 464.452 84.3147C464.478 84.369 464.515 84.4177 464.559 84.4579C464.604 84.4982 464.656 84.5292 464.713 84.5492C464.77 84.5692 464.83 84.5779 464.89 84.5746C465.466 84.5814 466.032 84.7258 466.54 84.9958C467.049 85.2658 467.486 85.6536 467.814 86.1268C467.859 86.1944 467.923 86.2473 467.998 86.2794C468.072 86.3114 468.155 86.3211 468.235 86.3073Z" fill="#263238"/>
<path d="M452.917 85.9851C452.992 85.977 453.065 85.9509 453.127 85.909C453.19 85.8671 453.242 85.8107 453.278 85.7445C453.517 85.2211 453.878 84.7623 454.33 84.4065C454.782 84.0507 455.313 83.8081 455.877 83.6989C455.999 83.6846 456.109 83.6226 456.185 83.5267C456.26 83.4308 456.295 83.3088 456.28 83.1875C456.266 83.0663 456.204 82.9557 456.108 82.8801C456.012 82.8045 455.89 82.7701 455.769 82.7844C455.053 82.9114 454.378 83.2097 453.802 83.6538C453.225 84.098 452.765 84.6749 452.46 85.3353C452.432 85.3887 452.414 85.4474 452.409 85.5077C452.404 85.568 452.411 85.6288 452.43 85.6862C452.449 85.7437 452.48 85.7966 452.52 85.8418C452.561 85.8869 452.61 85.9234 452.665 85.949C452.744 85.9842 452.831 85.9966 452.917 85.9851Z" fill="#263238"/>
<path d="M492.902 425.374C493.758 425.35 494.609 425.233 495.44 425.025C495.485 425.012 495.525 424.987 495.556 424.953C495.588 424.92 495.61 424.878 495.621 424.833C495.627 424.79 495.621 424.746 495.605 424.705C495.588 424.665 495.56 424.63 495.525 424.604C495.188 424.388 492.144 422.475 491.061 423.016C490.94 423.078 490.838 423.171 490.764 423.285C490.69 423.399 490.647 423.53 490.639 423.666C490.603 423.886 490.622 424.111 490.696 424.321C490.769 424.532 490.895 424.72 491.061 424.869C491.599 425.242 492.248 425.42 492.902 425.374ZM494.791 424.701C493.13 425.025 491.879 424.965 491.361 424.52C491.25 424.419 491.167 424.29 491.12 424.146C491.074 424.003 491.066 423.85 491.097 423.702C491.093 423.646 491.106 423.589 491.133 423.54C491.161 423.491 491.203 423.451 491.253 423.425C491.819 423.136 493.551 423.967 494.791 424.749V424.701Z" fill="#B24097"/>
<path d="M495.38 425.025C495.423 425.037 495.469 425.037 495.512 425.025C495.546 425.002 495.574 424.972 495.593 424.936C495.612 424.901 495.621 424.861 495.621 424.82C495.621 424.7 495.5 421.908 494.417 420.994C494.287 420.879 494.134 420.794 493.968 420.744C493.802 420.694 493.627 420.681 493.455 420.705C493.283 420.708 493.117 420.767 492.982 420.873C492.847 420.98 492.751 421.128 492.709 421.295C492.456 422.378 494.297 424.495 495.272 425.037L495.38 425.025ZM493.599 421.138C493.695 421.136 493.79 421.153 493.878 421.189C493.967 421.224 494.048 421.276 494.117 421.343C494.763 422.218 495.116 423.275 495.127 424.363C494.165 423.605 493.01 421.956 493.154 421.379C493.154 421.319 493.154 421.174 493.503 421.138H493.599Z" fill="#B24097"/>
<path d="M446.684 424.82C446.725 424.804 446.76 424.778 446.788 424.744C446.815 424.71 446.833 424.67 446.841 424.627C446.851 424.582 446.846 424.536 446.826 424.494C446.807 424.453 446.774 424.419 446.733 424.399C446.311 424.158 442.569 422.136 441.354 422.762C441.24 422.824 441.143 422.912 441.07 423.018C440.996 423.125 440.95 423.248 440.933 423.376C440.897 423.577 440.91 423.783 440.971 423.978C441.032 424.173 441.138 424.35 441.282 424.495C442.28 425.445 445.072 425.109 446.648 424.82H446.684ZM441.631 423.135C442.377 422.895 444.422 423.725 445.914 424.483C443.748 424.808 442.172 424.687 441.619 424.158C441.519 424.064 441.445 423.946 441.405 423.815C441.365 423.685 441.36 423.545 441.39 423.412C441.39 423.361 441.405 423.311 441.433 423.269C441.461 423.226 441.5 423.192 441.546 423.171L441.631 423.135Z" fill="#B24097"/>
<path d="M446.685 424.821C446.717 424.798 446.743 424.767 446.762 424.731C446.781 424.696 446.791 424.657 446.793 424.617C446.793 424.508 446.709 421.897 445.59 420.875C445.429 420.726 445.239 420.613 445.031 420.542C444.824 420.472 444.604 420.446 444.386 420.465C443.761 420.465 443.556 420.826 443.496 421.091C443.243 422.174 445.409 424.304 446.54 424.845C446.59 424.851 446.64 424.843 446.685 424.821ZM444.146 420.923H444.374C444.54 420.909 444.707 420.929 444.864 420.983C445.022 421.037 445.166 421.123 445.289 421.235C445.955 422.095 446.33 423.145 446.36 424.232C445.217 423.498 443.761 421.825 443.953 421.175C443.929 421.139 444.001 420.983 444.146 420.923Z" fill="#B24097"/>
<path d="M484.659 119.469C484.052 119.39 483.434 119.458 482.858 119.668C482.282 119.877 481.765 120.222 481.35 120.673C478.029 124.282 470.112 135.316 468.475 161.066C467.17 180.513 468.961 200.045 473.782 218.931L494.357 213.083C495.017 212.898 495.59 212.484 495.971 211.915C496.353 211.346 496.519 210.659 496.439 209.978C495.886 205.165 494.694 193.578 494.357 180.619C494.129 171.498 494.815 163.28 494.779 159.55C492.517 155.122 488.45 147.89 489.966 140.009C491.602 131.213 496.439 130.01 499.736 128.398C500.163 128.175 500.52 127.837 500.767 127.423C501.013 127.009 501.14 126.535 501.132 126.053C501.125 125.571 500.984 125.101 500.724 124.695C500.465 124.289 500.098 123.963 499.664 123.753C494.9 121.596 489.844 120.152 484.659 119.469Z" fill="#B24097"/>
<path d="M455.697 218.896L441.595 214.468C441.066 214.301 440.596 213.985 440.242 213.559C439.888 213.132 439.664 212.612 439.597 212.062C438.394 202.748 433.364 159.997 439.862 128.255C440.078 127.183 440.568 126.186 441.285 125.362C442.003 124.537 442.922 123.913 443.953 123.55C448.013 122.172 452.214 121.256 456.479 120.819C456.604 120.805 456.73 120.823 456.846 120.87C456.962 120.918 457.064 120.993 457.144 121.089C457.224 121.186 457.279 121.301 457.303 121.424C457.328 121.546 457.322 121.674 457.285 121.793C454.614 131.6 450.162 185.301 455.697 218.896Z" fill="#B24097"/>
<path d="M437.203 186.168C437.456 190.668 437.78 194.819 438.105 198.465C443.219 199.043 448.453 199.44 453.651 199.668C453.411 195.686 453.242 191.607 453.158 187.504C447.767 187.239 442.401 186.806 437.203 186.168Z" fill="white"/>
<path d="M453.29 164.942C447.575 164.701 441.956 164.256 436.613 163.57C436.613 167.734 436.613 171.825 436.746 175.759C442.052 176.409 447.575 176.83 453.074 177.059C453.086 172.956 453.17 168.889 453.29 164.942Z" fill="white"/>
<path d="M494.538 186.721C487.018 187.455 478.077 187.924 468.668 187.924C469.005 192.34 469.462 196.407 469.98 200.029C479.184 200.029 487.884 199.487 495.344 198.753C495.067 195.083 494.779 190.992 494.538 186.721Z" fill="white"/>
<path d="M494.67 163.643C486.669 164.473 477.572 165.038 468.259 165.159C468.09 169.358 468.066 173.413 468.151 177.275C477.355 177.155 486.308 176.614 494.321 175.807C494.333 171.115 494.538 166.867 494.67 163.643Z" fill="white"/>
<path d="M532.44 226.211L477.777 235.331C477.425 235.397 477.064 235.387 476.717 235.302C476.37 235.218 476.044 235.061 475.762 234.841C475.48 234.622 475.248 234.345 475.081 234.029C474.914 233.713 474.815 233.366 474.792 233.009L472.181 199.125C472.137 198.366 472.371 197.616 472.841 197.018C473.311 196.419 473.984 196.013 474.732 195.877L529.432 186.756C529.784 186.689 530.146 186.697 530.494 186.781C530.842 186.864 531.168 187.021 531.45 187.241C531.733 187.461 531.965 187.739 532.132 188.055C532.298 188.372 532.395 188.721 532.416 189.078L535.027 222.962C535.071 223.727 534.831 224.481 534.354 225.08C533.877 225.679 533.196 226.082 532.44 226.211Z" fill="#B24097"/>
<path opacity="0.4" d="M532.44 226.211L479.04 235.115C478.688 235.182 478.327 235.174 477.979 235.09C477.631 235.006 477.304 234.849 477.022 234.63C476.739 234.41 476.507 234.132 476.341 233.815C476.174 233.499 476.077 233.15 476.056 232.792L473.445 198.909C473.4 198.149 473.635 197.4 474.105 196.801C474.575 196.203 475.247 195.797 475.996 195.66L529.396 186.756C529.748 186.689 530.11 186.697 530.458 186.781C530.806 186.864 531.132 187.021 531.414 187.241C531.697 187.461 531.929 187.739 532.096 188.055C532.262 188.372 532.359 188.721 532.38 189.078L534.991 222.962C535.036 223.721 534.801 224.471 534.331 225.07C533.862 225.668 533.189 226.074 532.44 226.211Z" fill="black"/>
<path d="M500.554 130.432C503.598 137.362 506.294 144.257 508.736 151.38C509.94 154.918 511.143 158.504 512.214 162.113C512.755 163.93 513.273 165.723 513.766 167.6L514.139 168.972L514.524 170.56C514.801 171.643 514.957 172.726 515.15 173.797C516.083 181.94 515.359 190.187 513.02 198.043C511.981 201.783 510.711 205.456 509.218 209.04C508.46 210.821 507.665 212.566 506.811 214.299C505.957 216.031 505.114 217.692 504.08 219.461L497.522 216.344C498.569 213.083 499.628 209.57 500.41 206.14C501.192 202.711 501.95 199.222 502.467 195.792C502.975 192.418 503.248 189.013 503.286 185.601C503.354 182.4 503.051 179.202 502.383 176.071C502.179 175.349 502.046 174.591 501.794 173.905L501.445 172.822L500.999 171.619C500.41 169.935 499.796 168.262 499.134 166.577C497.931 163.196 496.523 159.827 495.2 156.446L487.066 136.231L500.554 130.432Z" fill="#FFB573"/>
<path d="M498.316 124.296C506.992 127.544 512.587 152.44 512.587 152.44L493.395 165.676C493.395 165.676 487.499 150.936 484.25 139.445C480.749 126.943 487.824 120.445 498.316 124.296Z" fill="#B24097"/>
<path opacity="0.5" d="M498.316 124.296C506.992 127.544 512.587 152.44 512.587 152.44L493.395 165.676C493.395 165.676 487.499 150.936 484.25 139.445C480.749 126.943 487.824 120.445 498.316 124.296Z" fill="white"/>
<path d="M496.74 217.861L495.067 225.261L506.631 224.924C506.631 224.924 507.557 215.984 503.021 214.576L499.411 215.262C498.762 215.39 498.164 215.704 497.69 216.165C497.216 216.627 496.886 217.216 496.74 217.861Z" fill="#FFB573"/>
<path d="M498.689 234.502L505.644 233.082C506.053 232.998 506.417 232.769 506.669 232.437C506.921 232.105 507.045 231.693 507.016 231.277L506.631 224.924L495.067 225.261L496.656 233.142C496.746 233.592 497.01 233.987 497.391 234.242C497.773 234.497 498.239 234.59 498.689 234.502Z" fill="#FFB573"/>
<path d="M397.652 72.1934H189.934C189.348 72.1947 188.768 72.3134 188.229 72.5423C187.689 72.7712 187.201 73.1058 186.793 73.5263C186.385 73.9468 186.065 74.4447 185.852 74.9907C185.639 75.5367 185.538 76.1198 185.554 76.7056L193.977 362.78C194.011 363.921 194.489 365.005 195.309 365.8C196.129 366.595 197.226 367.04 198.369 367.039H406.026C406.615 367.039 407.197 366.921 407.738 366.693C408.28 366.464 408.77 366.128 409.18 365.706C409.589 365.284 409.91 364.784 410.123 364.236C410.336 363.688 410.436 363.103 410.418 362.515L401.996 76.4529C401.964 75.3185 401.494 74.2404 400.684 73.4459C399.874 72.6513 398.787 72.2023 397.652 72.1934Z" fill="#B24097"/>
<path opacity="0.2" d="M397.652 72.1934H189.934C189.348 72.1947 188.768 72.3134 188.229 72.5423C187.689 72.7712 187.201 73.1058 186.793 73.5263C186.385 73.9468 186.065 74.4447 185.852 74.9907C185.639 75.5367 185.538 76.1198 185.554 76.7056L193.977 362.78C194.011 363.921 194.489 365.005 195.309 365.8C196.129 366.595 197.226 367.04 198.369 367.039H406.026C406.615 367.039 407.197 366.921 407.738 366.693C408.28 366.464 408.77 366.128 409.18 365.706C409.589 365.284 409.91 364.784 410.123 364.236C410.336 363.688 410.436 363.103 410.418 362.515L401.996 76.4529C401.964 75.3185 401.494 74.2404 400.684 73.4459C399.874 72.6513 398.787 72.2023 397.652 72.1934Z" fill="black"/>
<path d="M235.549 68.0176H216.057V69.2208H235.549V68.0176Z" fill="#B24097"/>
<path d="M209.102 68.0176H204.156V69.2208H209.102V68.0176Z" fill="#B24097"/>
<path d="M399.649 72.1934H191.943C191.356 72.1931 190.775 72.3106 190.234 72.5388C189.694 72.767 189.204 73.1013 188.794 73.522C188.385 73.9426 188.064 74.4411 187.851 74.9879C187.637 75.5347 187.535 76.1188 187.551 76.7056L195.974 362.78C196.012 363.92 196.49 365.002 197.31 365.796C198.129 366.591 199.225 367.037 200.366 367.039H408.036C408.623 367.038 409.204 366.919 409.744 366.689C410.284 366.459 410.773 366.124 411.181 365.702C411.59 365.28 411.909 364.781 412.121 364.233C412.333 363.686 412.434 363.102 412.416 362.515L403.993 76.4529C403.959 75.3195 403.488 74.2431 402.678 73.4492C401.868 72.6553 400.783 72.2053 399.649 72.1934Z" fill="#B24097"/>
<path opacity="0.2" d="M196.455 87.727L204.253 354.164C204.293 355.311 204.775 356.398 205.598 357.199C206.42 357.999 207.521 358.451 208.669 358.46H396.761C397.319 358.462 397.872 358.351 398.386 358.134C398.9 357.917 399.365 357.598 399.753 357.197C400.141 356.795 400.443 356.32 400.643 355.799C400.842 355.278 400.934 354.721 400.913 354.164L393.116 87.727C393.075 86.581 392.593 85.4949 391.77 84.6965C390.947 83.898 389.846 83.449 388.7 83.4434H200.607C200.049 83.4398 199.497 83.5491 198.983 83.7648C198.469 83.9805 198.004 84.298 197.616 84.6983C197.228 85.0986 196.925 85.5734 196.726 86.0939C196.526 86.6145 196.434 87.17 196.455 87.727Z" fill="black"/>
<path d="M197.755 86.4282L205.552 352.865C205.593 354.011 206.075 355.097 206.898 355.896C207.721 356.694 208.821 357.143 209.968 357.149H398.061C398.618 357.152 399.171 357.043 399.685 356.827C400.199 356.612 400.664 356.294 401.052 355.894C401.44 355.493 401.743 355.019 401.942 354.498C402.141 353.978 402.233 353.422 402.212 352.865L394.415 86.4282C394.375 85.2821 393.892 84.1961 393.069 83.3976C392.246 82.5991 391.146 82.1501 389.999 82.1446H201.906C201.349 82.141 200.796 82.2503 200.282 82.466C199.768 82.6816 199.303 82.9992 198.915 83.3995C198.528 83.7998 198.225 84.2746 198.025 84.7951C197.826 85.3156 197.734 85.8712 197.755 86.4282Z" fill="white"/>
<path d="M255.583 172.244H219.438L218.379 136.086H254.525L255.583 172.244Z" fill="#F5F5F5"/>
<path d="M373.262 150.441H271.057L270.865 143.703H373.069L373.262 150.441Z" fill="#E0E0E0"/>
<path d="M351.447 164.627H271.478L271.274 157.889H351.254L351.447 164.627Z" fill="#E0E0E0"/>
<path d="M257.485 237.087H221.339L220.28 200.941H256.426L257.485 237.087Z" fill="#F5F5F5"/>
<path d="M310.512 215.297H272.959L272.766 208.547H310.308L310.512 215.297Z" fill="#E0E0E0"/>
<path d="M346.068 215.297H318.454L318.249 208.547H345.876L346.068 215.297Z" fill="#E0E0E0"/>
<path d="M362.806 229.483H273.368L273.175 222.732H362.613L362.806 229.483Z" fill="#E0E0E0"/>
<path d="M259.386 301.943H223.24L222.181 265.785H258.327L259.386 301.943Z" fill="#F5F5F5"/>
<path d="M377.281 287.574H275.076L275.269 294.324H377.473L377.281 287.574Z" fill="#E0E0E0"/>
<path d="M354.635 273.402H274.655L274.86 280.141H354.828L354.635 273.402Z" fill="#E0E0E0"/>
<path d="M239.303 162.847C239.151 163.062 238.946 163.235 238.71 163.351C238.473 163.467 238.21 163.521 237.947 163.509C237.684 163.497 237.427 163.419 237.202 163.283C236.976 163.146 236.789 162.955 236.656 162.727C234.25 158.877 229.822 155.363 227.247 153.618C226.912 153.396 226.673 153.057 226.577 152.667C226.481 152.277 226.536 151.865 226.729 151.513C226.837 151.327 226.982 151.166 227.155 151.04C227.329 150.914 227.527 150.826 227.736 150.78C227.946 150.735 228.162 150.734 228.372 150.777C228.582 150.82 228.781 150.907 228.955 151.031C231.806 152.945 234.42 155.191 236.74 157.722C236.886 157.9 237.07 158.044 237.278 158.143C237.486 158.242 237.713 158.293 237.944 158.293C238.174 158.293 238.402 158.242 238.61 158.143C238.818 158.044 239.001 157.9 239.147 157.722C244.548 151.313 250.71 145.588 257.497 140.671C257.835 140.424 258.258 140.32 258.673 140.383C259.088 140.446 259.461 140.671 259.711 141.008C259.838 141.171 259.931 141.357 259.986 141.556C260.041 141.755 260.056 141.962 260.03 142.167C260.005 142.372 259.939 142.569 259.836 142.748C259.734 142.927 259.597 143.084 259.434 143.21C250.193 150.201 243.623 156.639 239.364 162.847H239.303Z" fill="#B24097"/>
<path d="M241.205 227.704C241.049 227.915 240.844 228.085 240.606 228.198C240.369 228.31 240.108 228.362 239.845 228.349C239.583 228.336 239.328 228.258 239.103 228.122C238.879 227.987 238.691 227.797 238.557 227.571C236.211 223.721 231.723 220.207 229.136 218.475C228.803 218.251 228.567 217.91 228.473 217.52C228.379 217.13 228.436 216.719 228.631 216.369C228.742 216.185 228.889 216.027 229.064 215.903C229.239 215.779 229.438 215.692 229.648 215.648C229.858 215.604 230.074 215.604 230.284 215.647C230.494 215.69 230.693 215.776 230.869 215.9C233.718 217.806 236.328 220.048 238.642 222.578C238.788 222.754 238.972 222.897 239.18 222.994C239.388 223.092 239.615 223.142 239.845 223.142C240.075 223.142 240.302 223.092 240.51 222.994C240.717 222.897 240.901 222.754 241.048 222.578C246.434 216.176 252.58 210.455 259.35 205.54C259.517 205.415 259.707 205.325 259.909 205.275C260.111 205.225 260.321 205.215 260.527 205.246C260.733 205.278 260.93 205.35 261.108 205.458C261.286 205.566 261.441 205.708 261.564 205.876C261.817 206.204 261.929 206.618 261.877 207.029C261.826 207.439 261.613 207.812 261.287 208.066C252.046 215.069 245.476 221.507 241.217 227.716L241.205 227.704Z" fill="#B24097"/>
<path d="M243.058 292.69C242.902 292.902 242.696 293.072 242.459 293.184C242.222 293.297 241.961 293.349 241.698 293.336C241.436 293.323 241.181 293.245 240.956 293.109C240.732 292.973 240.544 292.784 240.41 292.558C238.004 288.707 233.576 285.194 231.001 283.461C230.668 283.237 230.431 282.898 230.335 282.508C230.24 282.119 230.293 281.708 230.484 281.355C230.591 281.17 230.736 281.009 230.91 280.883C231.083 280.757 231.281 280.668 231.49 280.623C231.7 280.578 231.916 280.577 232.126 280.62C232.336 280.663 232.535 280.75 232.71 280.874C235.558 282.787 238.171 285.028 240.495 287.552C240.641 287.729 240.825 287.871 241.033 287.969C241.241 288.066 241.468 288.117 241.698 288.117C241.928 288.117 242.154 288.066 242.362 287.969C242.57 287.871 242.754 287.729 242.901 287.552C248.28 281.148 254.422 275.426 261.191 270.514C261.358 270.39 261.548 270.3 261.75 270.25C261.952 270.2 262.162 270.19 262.368 270.221C262.574 270.252 262.771 270.324 262.949 270.432C263.127 270.54 263.282 270.683 263.405 270.851C263.533 271.012 263.628 271.197 263.683 271.395C263.739 271.593 263.754 271.8 263.728 272.004C263.703 272.209 263.636 272.405 263.533 272.584C263.43 272.762 263.292 272.917 263.128 273.041C253.899 280.044 247.317 286.481 243.058 292.69Z" fill="#B24097"/>
<path d="M326.576 340.964C322.54 341.001 318.616 339.64 315.469 337.114C312.967 335.381 310.656 333.757 305.928 333.757C302.505 333.693 299.179 334.888 296.578 337.114C293.545 339.651 289.703 341.017 285.749 340.964C281.71 341.003 277.781 339.642 274.631 337.114C272.128 335.381 269.818 333.757 265.089 333.757C261.67 333.691 258.346 334.886 255.752 337.114C252.717 339.648 248.876 341.014 244.923 340.964C240.887 341.001 236.963 339.64 233.817 337.114C231.314 335.381 229.004 333.757 224.275 333.757L224.191 331.049C228.23 331.011 232.158 332.371 235.309 334.9C237.993 337.111 241.373 338.3 244.85 338.257C248.27 338.322 251.593 337.127 254.188 334.9C257.237 332.35 261.103 330.983 265.077 331.049C269.113 331.012 273.037 332.373 276.183 334.9C278.686 336.632 280.996 338.257 285.725 338.257C289.144 338.322 292.468 337.127 295.062 334.9C298.114 332.353 301.978 330.987 305.952 331.049C309.991 331.011 313.919 332.371 317.07 334.9C319.573 336.632 321.883 338.257 326.612 338.257L326.576 340.964Z" fill="#EBEBEB"/>
<path d="M344.48 80.4716H344.251C341.472 71.6517 334.806 65.8039 327.526 65.8039H312.702C311.554 65.7609 310.449 65.3627 309.537 64.6644C308.625 63.9661 307.953 63.0021 307.612 61.9053C305.627 56.2861 300.754 52.2793 295.159 52.2793C289.563 52.2793 284.907 56.2861 283.21 61.9053C282.927 62.9961 282.298 63.9656 281.417 64.6685C280.536 65.3714 279.451 65.7698 278.325 65.8039H263.513C256.233 65.8039 249.868 71.6517 247.558 80.4716H247.341C246.918 80.5002 246.505 80.6133 246.126 80.8041C245.748 80.995 245.411 81.2596 245.136 81.5826C244.862 81.9056 244.654 82.2803 244.527 82.6846C244.399 83.089 244.354 83.5148 244.393 83.937C244.372 84.804 244.685 85.6459 245.268 86.2886C245.85 86.9313 246.657 87.3257 247.522 87.3903H344.685C345.108 87.3631 345.521 87.2515 345.9 87.0621C346.279 86.8727 346.617 86.6094 346.892 86.2875C347.168 85.9657 347.377 85.592 347.506 85.1883C347.635 84.7846 347.682 84.3591 347.645 83.937C347.668 83.0621 347.352 82.2121 346.761 81.5658C346.171 80.9196 345.353 80.5273 344.48 80.4716Z" fill="#263238"/>
<path d="M234.298 110.277L234.936 110.698L235.537 110.975L234.875 112.407C234.499 112.23 234.137 112.025 233.792 111.793C233.535 111.626 233.286 111.445 233.046 111.252C232.379 111.523 231.661 111.65 230.941 111.625C229.85 111.685 228.776 111.333 227.933 110.638C227.484 110.225 227.129 109.72 226.892 109.157C226.656 108.594 226.543 107.987 226.561 107.377C226.479 106.808 226.528 106.227 226.705 105.679C226.881 105.132 227.181 104.632 227.58 104.217C227.979 103.803 228.468 103.485 229.009 103.288C229.549 103.092 230.128 103.021 230.7 103.082C231.279 103.045 231.86 103.123 232.409 103.311C232.959 103.498 233.465 103.793 233.901 104.177C234.613 105.016 235.037 106.063 235.108 107.161C235.18 108.26 234.896 109.353 234.298 110.277ZM232.312 108.966C232.533 108.45 232.619 107.887 232.565 107.329C232.598 106.694 232.416 106.067 232.048 105.548C231.884 105.368 231.683 105.227 231.458 105.133C231.234 105.04 230.991 104.997 230.748 105.007C230.518 104.999 230.29 105.046 230.081 105.142C229.872 105.238 229.689 105.381 229.545 105.56C229.194 106.056 229.044 106.667 229.124 107.269C229.079 107.943 229.261 108.612 229.641 109.17C229.8 109.35 229.997 109.491 230.218 109.585C230.438 109.679 230.677 109.722 230.917 109.712C231.081 109.731 231.246 109.731 231.41 109.712C231.105 109.452 230.754 109.252 230.375 109.122L230.748 108.208C230.931 108.23 231.109 108.279 231.278 108.352C231.54 108.497 231.793 108.658 232.036 108.833L232.312 108.966Z" fill="#263238"/>
<path d="M241.746 103.214H244.261L244.405 108.147C244.434 108.601 244.386 109.057 244.261 109.495C244.133 109.925 243.901 110.317 243.587 110.638C243.305 110.938 242.96 111.172 242.576 111.323C242.004 111.52 241.401 111.614 240.795 111.6C240.357 111.6 239.919 111.571 239.484 111.516C239.066 111.474 238.659 111.36 238.281 111.179C237.941 110.997 237.635 110.757 237.378 110.469C237.131 110.191 236.939 109.869 236.813 109.519C236.652 109.07 236.558 108.599 236.536 108.123L236.391 103.189H238.942L239.087 108.231C239.08 108.426 239.113 108.62 239.183 108.802C239.253 108.984 239.36 109.15 239.496 109.29C239.635 109.421 239.8 109.523 239.98 109.59C240.16 109.656 240.351 109.685 240.543 109.675C240.731 109.685 240.918 109.656 241.094 109.59C241.271 109.523 241.431 109.421 241.565 109.29C241.787 109.007 241.89 108.649 241.854 108.291L241.746 103.214Z" fill="#263238"/>
<path d="M250.879 110.12H247.979L247.618 111.479H245.007L247.871 103.213H250.65L254.007 111.479H251.324L250.879 110.12ZM250.277 108.291L249.278 105.319L248.472 108.291H250.277Z" fill="#263238"/>
<path d="M254.573 103.213H257.124L257.304 109.446H261.299L261.359 111.479H254.813L254.573 103.213Z" fill="#263238"/>
<path d="M262.37 103.213H264.933L265.173 111.479H262.611L262.37 103.213Z" fill="#263238"/>
<path d="M266.184 103.213H273.945L274.005 105.258H271.406L271.587 111.479H269.036L268.843 105.258H266.244L266.184 103.213Z" fill="#263238"/>
<path d="M274.27 103.213H277.11L278.854 106.004L280.443 103.213H283.258L280.19 108.026L280.286 111.479H277.723L277.627 108.026L274.27 103.213Z" fill="#263238"/>
<path d="M293.209 110.12H290.309L289.948 111.479H287.349L290.213 103.213H292.993L296.338 111.479H293.666L293.209 110.12ZM292.632 108.291L291.633 105.319L290.815 108.291H292.632Z" fill="#263238"/>
<path d="M296.626 108.747L299.033 108.591C299.069 108.915 299.185 109.225 299.37 109.493C299.515 109.668 299.7 109.806 299.909 109.894C300.119 109.982 300.347 110.018 300.573 109.999C300.876 110.024 301.177 109.933 301.415 109.746C301.503 109.672 301.573 109.58 301.621 109.476C301.668 109.372 301.693 109.259 301.692 109.144C301.685 109.032 301.654 108.923 301.603 108.824C301.551 108.724 301.479 108.637 301.391 108.567C300.988 108.318 300.537 108.158 300.068 108.097C299.198 107.953 298.374 107.607 297.661 107.087C297.26 106.755 296.995 106.287 296.915 105.773C296.835 105.259 296.947 104.733 297.228 104.295C297.485 103.891 297.864 103.579 298.311 103.405C298.956 103.16 299.644 103.049 300.332 103.08C301.176 103.029 302.015 103.235 302.739 103.669C303.035 103.889 303.282 104.168 303.462 104.49C303.643 104.811 303.753 105.167 303.786 105.534L301.379 105.679C301.339 105.369 301.189 105.083 300.958 104.873C300.71 104.695 300.409 104.606 300.104 104.62C299.865 104.601 299.627 104.665 299.43 104.8C299.362 104.855 299.307 104.924 299.272 105.004C299.236 105.084 299.22 105.171 299.225 105.258C299.227 105.329 299.246 105.398 299.279 105.461C299.313 105.524 299.36 105.578 299.418 105.619C299.682 105.779 299.977 105.882 300.284 105.92C301.113 106.069 301.92 106.315 302.691 106.653C303.13 106.852 303.505 107.168 303.774 107.568C303.999 107.93 304.123 108.345 304.135 108.771C304.151 109.285 304.012 109.792 303.738 110.227C303.455 110.687 303.034 111.045 302.534 111.25C301.903 111.501 301.228 111.619 300.549 111.599C299.499 111.705 298.446 111.413 297.601 110.781C297.049 110.237 296.704 109.518 296.626 108.747Z" fill="#263238"/>
<path d="M304.965 108.747L307.372 108.59C307.411 108.915 307.531 109.226 307.721 109.493C307.859 109.659 308.035 109.791 308.233 109.879C308.431 109.967 308.647 110.007 308.864 109.998C309.166 110.023 309.467 109.933 309.706 109.745C309.793 109.671 309.863 109.579 309.911 109.475C309.959 109.371 309.983 109.258 309.983 109.144C309.975 109.032 309.945 108.923 309.893 108.823C309.841 108.724 309.769 108.636 309.682 108.566C309.279 108.317 308.828 108.157 308.358 108.097C307.488 107.954 306.663 107.608 305.952 107.086C305.713 106.896 305.52 106.654 305.387 106.379C305.253 106.104 305.183 105.803 305.182 105.498C305.168 105.073 305.281 104.654 305.507 104.295C305.771 103.892 306.153 103.581 306.602 103.404C307.246 103.159 307.934 103.048 308.623 103.079C309.466 103.031 310.304 103.236 311.029 103.669C311.326 103.888 311.572 104.168 311.753 104.489C311.933 104.811 312.043 105.167 312.076 105.534L309.67 105.678C309.63 105.365 309.476 105.078 309.237 104.872C308.99 104.691 308.688 104.601 308.382 104.619C308.148 104.603 307.914 104.666 307.721 104.8C307.653 104.855 307.598 104.925 307.561 105.004C307.523 105.083 307.504 105.17 307.504 105.257C307.511 105.328 307.533 105.397 307.568 105.459C307.604 105.521 307.651 105.575 307.709 105.618C307.973 105.779 308.268 105.881 308.575 105.919C309.403 106.068 310.211 106.315 310.981 106.653C311.418 106.854 311.793 107.17 312.064 107.567C312.289 107.929 312.414 108.345 312.425 108.771C312.441 109.285 312.303 109.792 312.028 110.227C311.747 110.687 311.325 111.046 310.825 111.249C310.198 111.5 309.526 111.619 308.852 111.598C307.801 111.705 306.749 111.413 305.904 110.78C305.365 110.231 305.033 109.513 304.965 108.747Z" fill="#263238"/>
<path d="M318.959 103.214H321.51L321.654 108.147C321.671 108.612 321.606 109.077 321.462 109.519C321.334 109.949 321.102 110.342 320.788 110.662C320.506 110.963 320.161 111.197 319.777 111.348C319.204 111.544 318.602 111.638 317.996 111.625C317.558 111.625 317.12 111.596 316.685 111.541C316.267 111.499 315.86 111.385 315.482 111.204C315.142 111.022 314.836 110.781 314.579 110.494C314.339 110.199 314.16 109.859 314.05 109.495C313.889 109.046 313.796 108.576 313.773 108.099L313.629 103.166H316.167L316.324 108.208C316.311 108.599 316.454 108.98 316.721 109.267C316.863 109.397 317.03 109.499 317.212 109.565C317.394 109.631 317.587 109.66 317.78 109.652C317.968 109.662 318.155 109.633 318.332 109.566C318.508 109.5 318.668 109.398 318.803 109.267C318.931 109.124 319.027 108.956 319.085 108.773C319.143 108.591 319.162 108.398 319.139 108.208L318.959 103.214Z" fill="#263238"/>
<path d="M323.471 111.481L323.23 103.214H327.49C328.102 103.194 328.714 103.263 329.307 103.419C329.723 103.556 330.085 103.822 330.342 104.177C330.611 104.571 330.758 105.035 330.763 105.513C330.789 105.931 330.697 106.347 330.498 106.716C330.312 107.048 330.043 107.326 329.716 107.522C329.439 107.679 329.138 107.788 328.826 107.847C329.064 107.912 329.292 108.013 329.499 108.148C329.802 108.431 330.068 108.75 330.294 109.098L331.605 111.505H328.717L327.285 108.978C327.164 108.739 327.001 108.523 326.804 108.34C326.614 108.217 326.393 108.151 326.166 108.148H325.938L326.046 111.505L323.471 111.481ZM325.878 106.571H326.949C327.177 106.555 327.403 106.515 327.622 106.451C327.784 106.418 327.929 106.328 328.031 106.198C328.127 106.056 328.178 105.889 328.176 105.717C328.178 105.601 328.155 105.485 328.107 105.379C328.059 105.273 327.988 105.179 327.899 105.103C327.614 104.929 327.281 104.853 326.949 104.887H325.817L325.878 106.571Z" fill="#263238"/>
<path d="M337.465 110.12H334.565L334.204 111.479H331.593L334.457 103.213H337.236L340.593 111.479H337.91L337.465 110.12ZM336.911 108.291L335.913 105.319L335.107 108.291H336.911Z" fill="#263238"/>
<path d="M341.171 103.213H343.578L346.814 107.785L346.682 103.213H349.088L349.329 111.479H346.923L343.698 106.943L343.83 111.479H341.424L341.171 103.213Z" fill="#263238"/>
<path d="M356.416 108.097L358.678 108.771C358.574 109.338 358.348 109.876 358.017 110.347C357.704 110.762 357.29 111.09 356.813 111.298C356.238 111.534 355.618 111.645 354.996 111.623C354.239 111.65 353.484 111.514 352.782 111.226C352.186 110.911 351.69 110.436 351.351 109.854C350.889 109.092 350.647 108.218 350.653 107.327C350.599 106.762 350.66 106.191 350.832 105.649C351.003 105.108 351.282 104.606 351.651 104.175C352.058 103.791 352.539 103.496 353.065 103.308C353.591 103.119 354.15 103.042 354.708 103.08C355.578 103.032 356.443 103.25 357.186 103.705C357.838 104.192 358.321 104.869 358.57 105.643L356.332 106.148C356.265 105.954 356.177 105.768 356.067 105.594C355.923 105.407 355.738 105.255 355.526 105.149C355.31 105.038 355.071 104.981 354.828 104.981C354.567 104.971 354.309 105.031 354.078 105.153C353.848 105.276 353.654 105.457 353.516 105.679C353.263 106.185 353.159 106.752 353.216 107.315C353.168 107.975 353.333 108.632 353.685 109.192C353.833 109.364 354.018 109.5 354.227 109.59C354.435 109.68 354.661 109.721 354.888 109.71C355.09 109.724 355.293 109.694 355.482 109.621C355.672 109.548 355.843 109.435 355.983 109.288C356.231 108.937 356.381 108.526 356.416 108.097Z" fill="#263238"/>
<path d="M359.773 103.213H366.62V104.982H362.336V106.293H366.307V107.978H362.336V109.614H366.752V111.479H359.785L359.773 103.213Z" fill="#263238"/>
<path d="M151.309 207.232C151.309 207.232 147.892 282.111 147.242 312.433C146.556 343.982 146.256 417.646 146.256 417.646H138.302C138.302 417.646 125.596 356.424 129.362 312.433C123.671 278.658 119.832 207.232 119.832 207.232H151.309Z" fill="#FF8B7B"/>
<path d="M140.781 207.232C140.781 207.232 121.818 285.649 114.069 314.972C105.886 345.763 94.8887 415.36 94.8165 417.646H87.9339C87.9339 417.646 85.768 337.244 96.6695 309.906C96.6695 275.65 110.916 207.232 110.916 207.232H140.781Z" fill="#FF8B7B"/>
<path d="M87.7654 413.468C86.4539 414.96 85.3589 422.685 87.3804 426.127C89.4019 429.568 87.3804 434.658 93.9983 434.658C100.616 434.658 101.218 433.214 99.5934 430.133C97.969 427.053 95.9837 421.265 96.0559 417.644C96.128 412.975 97.9209 410.568 87.7654 413.468Z" fill="#263238"/>
<path d="M86.9472 421.52C86.8028 425.49 86.887 431.976 86.887 431.976H87.9339C87.9339 431.976 88.716 424.877 89.3778 422.241L86.9472 421.52Z" fill="#263238"/>
<path d="M158.084 159.33C158.938 165.443 159.696 171.555 160.394 177.68C161.092 183.804 161.778 189.941 162.439 196.126C162.596 197.654 162.716 199.266 162.981 200.542C163.089 201.203 163.222 201.889 163.378 202.623C163.534 203.357 163.655 204.055 163.835 204.765C164.485 207.629 165.315 210.505 166.242 213.38C167.168 216.256 168.059 219.132 169.118 221.984C170.176 224.835 171.235 227.723 172.342 230.503L167.902 232.909C164.432 227.546 161.399 221.912 158.83 216.064C157.535 213.117 156.395 210.104 155.412 207.039C155.148 206.281 154.931 205.475 154.703 204.693C154.474 203.911 154.245 203.117 154.053 202.286C153.676 200.718 153.379 199.132 153.162 197.533C152.2 191.397 151.293 185.252 150.443 179.1C149.553 172.951 148.734 166.802 148.036 160.63L158.084 159.33Z" fill="#FF8B7B"/>
<path d="M156.339 150.402C158.866 155.131 160.177 173.794 162.295 186.608C162.364 187.061 162.273 187.523 162.038 187.916C161.803 188.309 161.439 188.608 161.008 188.762C158.184 189.885 155.572 191.48 153.283 193.479C153.025 193.699 152.713 193.849 152.38 193.912C152.046 193.975 151.702 193.95 151.381 193.84C151.06 193.729 150.774 193.537 150.55 193.281C150.327 193.026 150.174 192.717 150.106 192.384L144.09 164.577L146.701 159.306C147.345 157.088 148.582 155.087 150.278 153.518C151.974 151.949 154.065 150.872 156.327 150.402H156.339Z" fill="#263238"/>
<path d="M172.15 229.492L180.909 234.414L171.44 238.023C171.44 238.023 166.627 233.872 167.481 229.829L172.15 229.492Z" fill="#FF8B7B"/>
<path d="M184.122 242.139L176.036 244.678L171.44 237.964L180.909 234.414L184.122 242.139Z" fill="#FF8B7B"/>
<path d="M168.287 239.996L261.01 229.059L261.118 229.937L168.552 242.102L168.287 239.996Z" fill="#263238"/>
<path d="M157.229 153.869C157.386 161.089 156.941 181.448 151.875 212.612H109.653C110.339 196.127 112.396 180.485 104.539 146.794C109.935 145.695 115.404 144.995 120.903 144.7C127.012 144.267 133.144 144.267 139.253 144.7C143.199 145.061 147.411 145.699 150.636 146.252C152.446 146.564 154.092 147.493 155.295 148.881C156.497 150.27 157.181 152.033 157.229 153.869Z" fill="#263238"/>
<path opacity="0.2" d="M135.571 212.755C135.533 212.746 135.498 212.725 135.474 212.694C135.45 212.664 135.437 212.625 135.438 212.586C139.289 176.765 135.908 162.483 135.872 162.338C135.864 162.3 135.871 162.26 135.891 162.227C135.911 162.194 135.943 162.169 135.98 162.158C135.999 162.15 136.019 162.147 136.039 162.149C136.06 162.151 136.079 162.157 136.097 162.167C136.114 162.178 136.129 162.192 136.14 162.209C136.151 162.226 136.158 162.246 136.16 162.266C136.16 162.411 139.59 176.705 135.739 212.622C135.738 212.643 135.732 212.662 135.723 212.68C135.713 212.698 135.7 212.713 135.684 212.726C135.669 212.738 135.65 212.747 135.631 212.752C135.611 212.757 135.591 212.758 135.571 212.755Z" fill="white"/>
<path d="M139.253 144.662H120.903C120.903 144.662 127.208 155.251 135.571 160.834C138.684 156.054 139.99 150.319 139.253 144.662Z" fill="#E0E0E0"/>
<path d="M128.845 118.589C132.972 125.556 131.323 134.159 125.163 137.841C119.002 141.523 110.724 138.779 106.548 131.825C102.373 124.87 104.07 116.182 110.23 112.572C116.391 108.963 124.717 111.61 128.845 118.589Z" fill="#263238"/>
<path d="M102.926 126.205C102.701 122.351 103.891 118.547 106.271 115.508C107.349 114.078 108.728 112.902 110.311 112.064C111.894 111.226 113.642 110.746 115.431 110.659C117.219 110.572 119.006 110.879 120.662 111.559C122.319 112.239 123.806 113.275 125.018 114.594C127.692 117.398 129.25 121.082 129.398 124.954H128.796C128.655 121.227 127.157 117.679 124.585 114.979C123.433 113.72 122.018 112.73 120.44 112.081C118.862 111.432 117.161 111.139 115.456 111.223C113.752 111.307 112.088 111.765 110.581 112.567C109.074 113.368 107.763 114.491 106.741 115.857C104.431 118.781 103.271 122.449 103.48 126.169L102.926 126.205Z" fill="#263238"/>
<path d="M150.236 129.651C153.509 122.892 150.955 114.892 144.532 111.781C138.108 108.67 130.248 111.627 126.975 118.386C123.702 125.144 126.256 133.145 132.679 136.256C139.103 139.366 146.963 136.409 150.236 129.651Z" fill="#263238"/>
<path d="M122.732 124.016C123.935 129.912 125.042 140.729 120.915 144.663C120.915 144.663 124.104 150.908 133.537 153.086C139.397 149.476 139.265 144.663 139.265 144.663C132.683 143.087 132.851 138.214 133.994 133.63L122.732 124.016Z" fill="#FF8B7B"/>
<path d="M129.675 151.872L121.457 142.186L118.617 143.69L118.148 157.696L124.236 149.706L129.675 151.872Z" fill="white"/>
<path d="M135.246 151.87L137.917 143.158L141.274 144.662L144.956 156.454L139.469 149.704L135.246 151.87Z" fill="white"/>
<path opacity="0.2" d="M127.316 127.938L133.982 133.617C133.696 134.685 133.507 135.776 133.417 136.878C130.902 136.517 127.401 133.749 127.184 131.114C127.026 130.056 127.071 128.978 127.316 127.938Z" fill="black"/>
<path d="M116.499 113.184C118.809 122.81 119.591 126.889 125.367 131.004C134.067 137.189 145.341 132.208 145.943 122.148C146.484 113.064 142.61 98.9015 132.43 96.7236C130.188 96.2328 127.858 96.3232 125.661 96.9864C123.463 97.6496 121.472 98.8634 119.876 100.513C118.28 102.162 117.132 104.192 116.541 106.409C115.95 108.627 115.935 110.959 116.499 113.184Z" fill="#FF8B7B"/>
<path d="M118.689 117.613C124.705 114.003 123.911 103.174 123.911 103.174C134.319 103.042 138.35 103.174 141.515 103.619C144.679 104.065 142.718 99.8291 138.086 96.3998C133.453 92.9705 120.891 93.9933 116.98 100.551C112.167 102.476 107.571 113.402 118.689 117.613Z" fill="#263238"/>
<path d="M110.519 108.29C110.519 108.29 144.391 101.07 151.514 99.0127C151.514 94.7652 134.091 100.023 134.091 100.023L110.519 108.29Z" fill="#B24097"/>
<path d="M143.669 98.7586C143.019 96.3521 138.025 84.2594 120.807 89.2168C104.948 93.8493 110.519 108.288 110.519 108.288L143.669 98.7586Z" fill="#B24097"/>
<path d="M132.021 88.8322L125.993 87.3281L119.074 88.5555L119.158 89.7707L123.695 90.5047L132.021 88.8322Z" fill="#B24097"/>
<path opacity="0.4" d="M131.925 100.962C131.773 100.962 131.627 100.906 131.516 100.803C131.404 100.7 131.335 100.559 131.323 100.408C131.323 100.035 130.565 91.4922 119.82 89.8437C119.664 89.8171 119.523 89.7307 119.429 89.6028C119.335 89.4749 119.294 89.3154 119.315 89.1579C119.344 89.0026 119.431 88.8642 119.558 88.7704C119.686 88.6767 119.844 88.6345 120.001 88.6525C131.72 90.4574 132.515 100.228 132.527 100.324C132.531 100.403 132.521 100.482 132.495 100.557C132.469 100.632 132.429 100.701 132.376 100.76C132.324 100.82 132.26 100.868 132.189 100.902C132.117 100.937 132.04 100.957 131.961 100.962H131.925Z" fill="black"/>
<path opacity="0.2" d="M147.471 303.384L127.352 298.475C126.799 294.204 126.294 289.655 125.8 284.975L147.94 288.849C147.76 294.047 147.603 298.968 147.471 303.384Z" fill="black"/>
<path opacity="0.2" d="M98.8113 280.27L121.842 284.288C120.795 288.488 119.772 292.543 118.809 296.393L97.6562 291.183C97.9811 287.682 98.3661 283.964 98.8113 280.27Z" fill="black"/>
<path d="M133.477 113.296C133.61 114.09 134.151 114.655 134.68 114.559C135.21 114.463 135.511 113.753 135.366 112.959C135.222 112.164 134.692 111.611 134.163 111.755C133.634 111.9 133.333 112.501 133.477 113.296Z" fill="#263238"/>
<path d="M142.405 111.717C142.538 112.499 143.079 113.064 143.609 112.98C144.138 112.896 144.439 112.174 144.294 111.38C144.15 110.586 143.621 110.02 143.091 110.176C142.562 110.333 142.261 110.922 142.405 111.717Z" fill="#263238"/>
<path d="M142.863 110.201L144.667 109.322C144.667 109.322 143.958 110.971 142.863 110.201Z" fill="#263238"/>
<path d="M140.287 113.488C141.308 115.167 142.555 116.698 143.994 118.037C143.642 118.394 143.216 118.671 142.747 118.848C142.277 119.024 141.775 119.097 141.274 119.059L140.287 113.488Z" fill="#FF5652"/>
<path d="M136.545 122.728C136.997 122.729 137.448 122.688 137.893 122.608C137.923 122.604 137.952 122.593 137.978 122.577C138.004 122.562 138.027 122.541 138.045 122.516C138.063 122.492 138.076 122.464 138.083 122.434C138.09 122.404 138.091 122.373 138.086 122.343C138.074 122.281 138.038 122.226 137.987 122.19C137.935 122.154 137.871 122.14 137.809 122.151C136.83 122.344 135.82 122.305 134.858 122.038C133.897 121.77 133.012 121.282 132.274 120.611C132.232 120.566 132.175 120.54 132.114 120.537C132.053 120.535 131.994 120.557 131.949 120.599C131.904 120.64 131.878 120.698 131.876 120.758C131.873 120.819 131.895 120.879 131.937 120.923C133.177 122.106 134.832 122.754 136.545 122.728Z" fill="#263238"/>
<path d="M115.164 118.66C115.535 119.537 116.075 120.332 116.755 120.999C117.434 121.666 118.239 122.192 119.122 122.547C121.529 123.485 122.925 121.452 122.503 119.093C122.118 116.975 120.446 113.919 117.979 113.979C117.435 113.993 116.902 114.144 116.432 114.418C115.961 114.692 115.567 115.08 115.286 115.547C115.006 116.013 114.847 116.543 114.826 117.088C114.804 117.632 114.92 118.173 115.164 118.66Z" fill="#FF8B7B"/>
<path d="M129.542 109.695C129.606 109.688 129.668 109.669 129.723 109.638C129.779 109.607 129.828 109.565 129.867 109.514C130.225 109.043 130.687 108.662 131.218 108.401C131.748 108.14 132.332 108.006 132.924 108.01C132.985 108.017 133.048 108.011 133.107 107.994C133.167 107.976 133.222 107.947 133.27 107.908C133.318 107.869 133.358 107.82 133.387 107.766C133.417 107.711 133.435 107.651 133.441 107.589C133.451 107.463 133.411 107.339 133.33 107.242C133.249 107.145 133.133 107.084 133.008 107.072C132.26 107.053 131.519 107.213 130.846 107.537C130.172 107.861 129.585 108.341 129.133 108.937C129.058 109.035 129.023 109.159 129.037 109.282C129.05 109.405 129.111 109.519 129.205 109.599C129.303 109.67 129.422 109.704 129.542 109.695Z" fill="#263238"/>
<path d="M144.066 106.771C144.181 106.733 144.276 106.651 144.33 106.542C144.359 106.487 144.376 106.425 144.381 106.363C144.385 106.3 144.377 106.237 144.357 106.178C144.337 106.118 144.305 106.063 144.263 106.017C144.221 105.97 144.171 105.932 144.114 105.905C143.45 105.562 142.713 105.383 141.966 105.383C141.219 105.383 140.482 105.562 139.818 105.905C139.711 105.97 139.634 106.074 139.602 106.195C139.571 106.317 139.588 106.446 139.65 106.554C139.681 106.609 139.723 106.656 139.772 106.694C139.822 106.732 139.879 106.76 139.939 106.775C140 106.791 140.063 106.795 140.125 106.786C140.187 106.777 140.246 106.755 140.3 106.723C140.826 106.451 141.41 106.309 142.002 106.309C142.595 106.309 143.179 106.451 143.705 106.723C143.758 106.757 143.817 106.78 143.88 106.788C143.942 106.796 144.006 106.791 144.066 106.771Z" fill="#263238"/>
<path d="M133.934 111.777L135.739 110.898C135.739 110.898 135.029 112.547 133.934 111.777Z" fill="#263238"/>
<path d="M151.875 212.611L150.142 296.394L96.128 288.693C93.9622 244.883 101.543 221.888 109.653 212.611H151.875Z" fill="#263238"/>
<path opacity="0.2" d="M137.7 261.632L124.838 246.158V233.945L137.7 261.632Z" fill="black"/>
<path d="M109.833 157.623C108.221 162.436 106.669 167.466 105.201 172.387C103.733 177.309 102.433 182.326 101.386 187.272C100.893 189.678 100.412 192.205 100.183 194.599V195.057V195.273C100.156 195.442 100.186 195.616 100.267 195.767C100.62 196.516 101.11 197.193 101.711 197.764C103.339 199.384 105.143 200.817 107.09 202.035C109.159 203.359 111.433 204.635 113.623 205.778L112.083 210.591C109.332 210.065 106.631 209.304 104.009 208.316C101.208 207.298 98.5634 205.893 96.1521 204.141C94.6959 203.056 93.4449 201.719 92.4581 200.195C91.8411 199.21 91.3975 198.128 91.1466 196.994C91.0112 196.365 90.9426 195.724 90.942 195.081V194.359V193.817C91.0262 192.397 91.1466 190.978 91.315 189.606C91.4835 188.234 91.688 186.862 91.8926 185.503C92.8014 180.164 93.9821 174.875 95.4302 169.656C96.112 167.057 96.862 164.478 97.6802 161.919C98.4864 159.356 99.2926 156.841 100.243 154.242L109.833 157.623Z" fill="#FF8B7B"/>
<path d="M141.094 190.916L134.596 186.115L119.712 208.388L102.758 229.132L109.268 233.945L124.14 211.66L141.094 190.916Z" fill="#FAFAFA"/>
<path d="M134.584 186.115C136.05 188.501 138.383 190.226 141.094 190.928C139.628 188.543 137.295 186.818 134.584 186.115Z" fill="#E6E6E6"/>
<path d="M102.758 229.131C104.224 231.516 106.557 233.241 109.268 233.944C107.802 231.558 105.468 229.833 102.758 229.131Z" fill="#E6E6E6"/>
<path d="M112.516 205.416L123.237 206.126L116.222 213.406C116.222 213.406 110.062 211.745 109.123 207.726L112.516 205.416Z" fill="#FF8B7B"/>
<path d="M126.715 211.77L123.695 216.029C123.43 216.399 123.038 216.659 122.595 216.759C122.151 216.859 121.686 216.792 121.288 216.571L114.718 212.889L123.262 206.139L126.522 209.363C126.834 209.677 127.025 210.091 127.06 210.531C127.096 210.972 126.973 211.411 126.715 211.77Z" fill="#FF8B7B"/>
<path d="M113.238 155.672C112.48 151.015 109.003 148.272 104.539 146.756C97.9691 151.509 94.7564 167.211 91.1225 185.525C91.028 186.055 91.1142 186.602 91.3672 187.077C91.6203 187.553 92.0256 187.93 92.5183 188.148C95.3941 189.351 97.8487 190.554 99.4972 191.324C99.7841 191.469 100.098 191.553 100.419 191.571C100.74 191.588 101.061 191.539 101.362 191.425C101.663 191.312 101.937 191.138 102.167 190.914C102.397 190.689 102.578 190.419 102.698 190.121L114.442 160.978L113.238 155.672Z" fill="#263238"/>
<path d="M161.381 432.698C160.16 431.809 158.803 431.127 157.362 430.677C157.362 430.677 150.238 426.646 146.532 414.553L138.302 412.495C138.097 412.444 137.884 412.437 137.676 412.475C137.469 412.512 137.271 412.594 137.097 412.713C136.924 412.832 136.777 412.987 136.667 413.168C136.557 413.348 136.487 413.549 136.461 413.759C136.377 414.409 136.329 415.155 136.245 415.756C136.166 417.067 136.166 418.38 136.245 419.691C136.317 423.77 136.774 432.927 136.774 432.927H137.737C137.736 430.139 137.905 427.355 138.242 424.588C138.711 421.893 140.648 425.081 141.683 428.126C142.718 431.17 147.038 434.431 153.259 434.575C160.538 434.792 163.498 434.467 161.381 432.698Z" fill="#263238"/>
</svg>
