<svg width="527" height="473" viewBox="0 0 527 473" fill="none" xmlns="http://www.w3.org/2000/svg">
<path d="M112.59 198.13C119.208 183.154 112.432 165.65 97.4567 159.032C82.4811 152.414 64.9765 159.19 58.359 174.166C51.7415 189.141 58.5171 206.646 73.4926 213.263C88.4682 219.881 105.973 213.105 112.59 198.13Z" stroke="#263238" stroke-linecap="round" stroke-linejoin="round"/>
<path d="M89.3126 210.428C102.715 208.313 111.865 195.733 109.75 182.33C107.634 168.927 95.0541 159.777 81.6515 161.893C68.2488 164.009 59.0988 176.589 61.2144 189.991C63.33 203.394 75.91 212.544 89.3126 210.428Z" stroke="#263238" stroke-linecap="round" stroke-linejoin="round"/>
<path d="M69.8154 186.163H85.4798V208.767" stroke="#263238" stroke-linecap="round" stroke-linejoin="round"/>
<path d="M209.71 11.8886L204.952 0H127.701V11.8886V50.093V329.412H429.93V11.8886H209.71Z" fill="#A3A3A3"/>
<path d="M423.986 19.5293H131.937V326.019H423.986V19.5293Z" fill="white"/>
<path d="M423.986 19.5293H131.937V32.2598H423.986V19.5293Z" fill="#16B99B"/>
<path d="M335.725 45.5889H228.893C227.823 45.5889 226.764 45.7998 225.776 46.2096C224.788 46.6194 223.89 47.22 223.134 47.977C222.378 48.7341 221.779 49.6328 221.371 50.6216C220.962 51.6105 220.753 52.6702 220.755 53.74V97.4932L230.386 87.2884H335.725C336.798 87.2884 337.86 87.0767 338.85 86.6655C339.841 86.2542 340.741 85.6515 341.498 84.8919C342.255 84.1323 342.855 83.2308 343.263 82.2389C343.671 81.247 343.88 80.1843 343.876 79.1117V53.74C343.876 51.5782 343.017 49.5049 341.489 47.9763C339.96 46.4476 337.887 45.5889 335.725 45.5889Z" fill="#A3A3A3"/>
<path d="M242.556 74.9548C248.882 74.9548 254.01 69.8262 254.01 63.4998C254.01 57.1735 248.882 52.0449 242.556 52.0449C236.229 52.0449 231.101 57.1735 231.101 63.4998C231.101 69.8262 236.229 74.9548 242.556 74.9548Z" fill="white"/>
<path d="M248.336 62.7222C248.336 62.7222 249.535 61.1149 249.803 62.7222C250.071 64.3294 247.749 66.3194 247.749 66.3194L248.336 62.7222Z" fill="white" stroke="#263238" stroke-linecap="round" stroke-linejoin="round"/>
<path d="M236.817 62.7222C236.817 62.7222 235.618 61.1149 235.35 62.7222C235.082 64.3294 237.403 66.3194 237.403 66.3194L236.817 62.7222Z" fill="white" stroke="#263238" stroke-linecap="round" stroke-linejoin="round"/>
<path d="M242.978 54.8763C242.978 54.8763 238.449 54.5192 237.403 57.5423C236.686 60.441 236.686 63.4709 237.403 66.3695C237.748 67.3007 240.656 71.8291 241.473 72.1863C241.985 72.3591 242.527 72.4268 243.066 72.3851C243.605 72.3435 244.131 72.1934 244.611 71.9439C244.955 71.4847 247.863 67.1859 248.093 65.6807C248.176 63.4605 248.133 61.2374 247.965 59.022C247.924 58.2409 247.662 57.4875 247.211 56.8487C246.76 56.2099 246.137 55.7118 245.414 55.4121C244.638 55.0985 243.814 54.9174 242.978 54.8763Z" fill="white" stroke="#263238" stroke-linecap="round" stroke-linejoin="round"/>
<path d="M247.966 58.9722C247.925 58.1911 247.663 57.4376 247.212 56.7989C246.76 56.1601 246.137 55.662 245.415 55.3623C244.638 55.0487 243.815 54.8676 242.978 54.8265C242.978 54.8265 238.45 54.4694 237.404 57.4925C236.91 59.2152 236.737 61.0139 236.894 62.799C237.111 63.0669 237.876 63.8706 237.761 62.799C237.646 61.7275 237.493 57.99 238.425 57.1991C239.356 56.4083 239.496 55.7194 240.823 56.791C242.149 57.8625 242.035 58.7937 243.374 58.0666C244.713 57.3395 244.981 55.9235 246.18 56.4593C247.379 56.995 246.984 59.5335 246.984 60.7326C246.984 61.9316 246.984 64.2022 247.787 63.1435C247.934 62.9158 248.054 62.6718 248.145 62.4164C248.094 61.2556 248.017 59.98 247.966 58.9722Z" fill="#263238" stroke="#263238" stroke-linecap="round" stroke-linejoin="round"/>
<path d="M260.76 55.3223H284.486" stroke="white" stroke-width="2" stroke-linecap="round" stroke-linejoin="round"/>
<path d="M260.76 63.5889H333.38" stroke="white" stroke-linecap="round" stroke-linejoin="round"/>
<path d="M260.76 70.4131H333.38" stroke="white" stroke-linecap="round" stroke-linejoin="round"/>
<path d="M260.76 77.9658H333.38" stroke="white" stroke-linecap="round" stroke-linejoin="round"/>
<path d="M335.725 217.528H228.893C227.824 217.527 226.765 217.736 225.777 218.144C224.789 218.553 223.891 219.152 223.135 219.908C222.379 220.664 221.779 221.562 221.371 222.55C220.963 223.538 220.753 224.597 220.755 225.667V269.42L230.386 259.215H335.725C337.885 259.215 339.956 258.358 341.484 256.832C343.013 255.306 343.873 253.236 343.876 251.077V225.667C343.876 224.597 343.665 223.538 343.255 222.549C342.846 221.561 342.245 220.663 341.488 219.907C340.731 219.152 339.832 218.552 338.843 218.144C337.855 217.736 336.795 217.527 335.725 217.528Z" fill="#A3A3A3"/>
<path d="M252.522 242.866C257.141 238.501 257.346 231.218 252.981 226.6C248.615 221.982 241.333 221.777 236.715 226.142C232.096 230.507 231.891 237.79 236.256 242.408C240.622 247.026 247.904 247.231 252.522 242.866Z" fill="white"/>
<path d="M248.336 234.647C248.336 234.647 249.535 233.04 249.803 234.647C250.071 236.254 247.749 238.257 247.749 238.257L248.336 234.647Z" fill="white" stroke="#263238" stroke-linecap="round" stroke-linejoin="round"/>
<path d="M236.817 234.647C236.817 234.647 235.618 233.04 235.35 234.647C235.082 236.254 237.403 238.257 237.403 238.257L236.817 234.647Z" fill="white" stroke="#263238" stroke-linecap="round" stroke-linejoin="round"/>
<path d="M242.978 226.75C242.978 226.75 238.449 226.406 237.403 229.416C236.686 232.319 236.686 235.353 237.403 238.256C237.748 239.175 240.656 243.716 241.473 244.06C241.985 244.232 242.526 244.3 243.065 244.261C243.603 244.221 244.129 244.075 244.611 243.831C244.955 243.359 247.863 239.06 248.093 237.555C248.176 235.334 248.133 233.111 247.965 230.896C247.921 230.116 247.658 229.363 247.207 228.725C246.756 228.087 246.135 227.588 245.414 227.286C244.636 226.978 243.813 226.797 242.978 226.75Z" fill="white" stroke="#263238" stroke-linecap="round" stroke-linejoin="round"/>
<path d="M247.966 230.911C247.922 230.13 247.659 229.378 247.208 228.74C246.757 228.102 246.136 227.603 245.415 227.301C244.637 226.993 243.814 226.812 242.978 226.765C242.978 226.765 238.45 226.42 237.404 229.431C236.91 231.153 236.737 232.952 236.894 234.737C237.111 235.005 237.876 235.822 237.761 234.737C237.646 233.653 237.493 229.928 238.425 229.125C239.356 228.321 239.496 227.658 240.823 228.717C242.149 229.775 242.035 230.732 243.374 230.056C244.713 229.38 244.981 227.926 246.18 228.461C247.379 228.997 246.984 231.523 246.984 232.735C246.984 233.947 246.984 236.204 247.787 235.133C247.937 234.907 248.057 234.662 248.145 234.406C248.094 233.232 248.017 231.918 247.966 230.911Z" fill="#263238" stroke="#263238" stroke-linecap="round" stroke-linejoin="round"/>
<path d="M260.76 227.248H284.486" stroke="white" stroke-width="2" stroke-linecap="round" stroke-linejoin="round"/>
<path d="M260.76 235.516H333.38" stroke="white" stroke-linecap="round" stroke-linejoin="round"/>
<path d="M260.76 242.353H333.38" stroke="white" stroke-linecap="round" stroke-linejoin="round"/>
<path d="M260.76 249.902H333.38" stroke="white" stroke-linecap="round" stroke-linejoin="round"/>
<path d="M392.352 160.944H285.558C283.4 160.944 281.33 161.801 279.804 163.327C278.277 164.853 277.42 166.923 277.42 169.082V194.492C277.42 196.65 278.277 198.72 279.804 200.247C281.33 201.773 283.4 202.63 285.558 202.63H390.91L400.541 212.835V169.082C400.541 168.009 400.329 166.946 399.917 165.956C399.505 164.965 398.901 164.065 398.14 163.309C397.378 162.553 396.475 161.954 395.482 161.548C394.489 161.142 393.425 160.937 392.352 160.944Z" fill="#A3A3A3"/>
<path d="M299.231 190.308C305.558 190.308 310.686 185.18 310.686 178.853C310.686 172.527 305.558 167.398 299.231 167.398C292.905 167.398 287.776 172.527 287.776 178.853C287.776 185.18 292.905 190.308 299.231 190.308Z" fill="white"/>
<path d="M304.997 178.061C304.997 178.061 306.272 176.467 306.464 178.061C306.655 179.656 304.423 181.671 304.423 181.671L304.997 178.061Z" fill="white" stroke="#263238" stroke-linecap="round" stroke-linejoin="round"/>
<path d="M293.49 178.061C293.49 178.061 292.291 176.467 292.023 178.061C291.755 179.656 294.128 181.671 294.128 181.671L293.49 178.061Z" fill="white" stroke="#263238" stroke-linecap="round" stroke-linejoin="round"/>
<path d="M299.652 170.165C299.652 170.165 295.123 169.821 294.077 172.831C293.353 175.733 293.353 178.769 294.077 181.671C294.422 182.59 297.33 187.131 298.134 187.475C298.646 187.647 299.187 187.715 299.726 187.676C300.265 187.637 300.79 187.49 301.272 187.246C301.629 186.774 304.525 182.475 304.754 180.97C304.85 178.75 304.807 176.526 304.627 174.311C304.585 173.53 304.324 172.776 303.872 172.138C303.421 171.499 302.798 171.001 302.075 170.701C301.302 170.392 300.483 170.211 299.652 170.165Z" fill="white" stroke="#263238" stroke-linecap="round" stroke-linejoin="round"/>
<path d="M304.628 174.311C304.586 173.53 304.325 172.776 303.873 172.138C303.422 171.499 302.799 171.001 302.076 170.701C301.303 170.392 300.484 170.211 299.653 170.165C299.653 170.165 295.124 169.821 294.078 172.831C293.587 174.554 293.409 176.352 293.555 178.138C293.785 178.406 294.538 179.222 294.423 178.202C294.295 176.926 294.155 173.393 295.099 172.589C296.043 171.785 296.158 171.122 297.497 172.193C298.836 173.265 298.696 174.196 300.048 173.469C301.4 172.742 301.655 171.339 302.855 171.875C304.054 172.41 303.658 174.936 303.658 176.148C303.658 177.36 303.658 179.617 304.449 178.546C304.603 178.323 304.724 178.078 304.806 177.819C304.755 176.658 304.691 175.331 304.628 174.311Z" fill="#263238" stroke="#263238" stroke-linecap="round" stroke-linejoin="round"/>
<path d="M295.1 172.59C295.613 173.343 296.281 173.978 297.06 174.451C297.839 174.924 298.71 175.225 299.615 175.333C300.476 175.509 301.364 175.509 302.226 175.334C303.087 175.158 303.904 174.811 304.628 174.312C304.628 174.312 306.083 174.312 306.083 172.59C306.083 170.868 306.567 171.595 304.093 171.595C301.618 171.595 295.763 166.977 295.1 172.59Z" fill="#263238" stroke="#263238" stroke-linecap="round" stroke-linejoin="round"/>
<path d="M299.052 178.801H294.549L295.034 180.293C295.079 180.434 295.168 180.556 295.287 180.643C295.406 180.73 295.549 180.777 295.697 180.778H298.018C298.175 180.777 298.326 180.723 298.449 180.626C298.571 180.529 298.658 180.394 298.695 180.242L299.052 178.801Z" fill="white" stroke="#263238" stroke-linecap="round" stroke-linejoin="round"/>
<path d="M304.04 178.801H299.537L300.022 180.293C300.067 180.434 300.156 180.556 300.275 180.643C300.394 180.73 300.538 180.777 300.685 180.778H303.058C303.215 180.779 303.367 180.726 303.49 180.629C303.613 180.532 303.699 180.395 303.734 180.242L304.04 178.801Z" fill="white" stroke="#263238" stroke-linecap="round" stroke-linejoin="round"/>
<path d="M317.421 170.662H341.147" stroke="white" stroke-width="2" stroke-linecap="round" stroke-linejoin="round"/>
<path d="M317.421 178.93H390.041" stroke="white" stroke-linecap="round" stroke-linejoin="round"/>
<path d="M317.421 185.766H390.041" stroke="white" stroke-linecap="round" stroke-linejoin="round"/>
<path d="M317.421 193.318H390.041" stroke="white" stroke-linecap="round" stroke-linejoin="round"/>
<path d="M337.245 105.645H230.413C228.251 105.645 226.178 106.503 224.649 108.032C223.12 109.561 222.262 111.634 222.262 113.796V157.549L231.893 147.344H337.245C339.403 147.344 341.473 146.487 342.999 144.96C344.526 143.434 345.383 141.364 345.383 139.206V113.796C345.385 112.726 345.175 111.666 344.767 110.677C344.359 109.688 343.76 108.79 343.004 108.033C342.248 107.276 341.35 106.675 340.362 106.265C339.374 105.855 338.314 105.645 337.245 105.645Z" fill="#16B99B"/>
<path d="M245.457 138.005C251.696 136.957 255.903 131.049 254.855 124.81C253.806 118.571 247.899 114.364 241.66 115.412C235.421 116.461 231.213 122.368 232.262 128.607C233.31 134.846 239.218 139.054 245.457 138.005Z" fill="white"/>
<path d="M242.122 118.005C241.58 117.785 240.999 117.676 240.413 117.686C239.828 117.696 239.25 117.824 238.716 118.062C238.181 118.3 237.7 118.644 237.301 119.072C236.902 119.501 236.594 120.006 236.395 120.556C234.826 124.702 236.79 130.417 236.79 132.777C236.79 135.137 239.163 137.127 241.727 137.318C244.291 137.509 247.646 137.905 249.61 134.767C251.575 131.629 250.796 124.715 250.006 120.735C249.215 116.755 244.878 117.801 242.122 118.005Z" fill="white" stroke="#263238" stroke-linecap="round" stroke-linejoin="round"/>
<path d="M249.33 125.916C249.33 125.916 250.605 124.308 250.81 125.916C251.014 127.523 248.756 129.525 248.756 129.525L249.33 125.916Z" fill="white" stroke="#263238" stroke-linecap="round" stroke-linejoin="round"/>
<path d="M237.825 125.916C237.825 125.916 236.626 124.308 236.358 125.916C236.091 127.523 238.412 129.525 238.412 129.525L237.825 125.916Z" fill="white" stroke="#263238" stroke-linecap="round" stroke-linejoin="round"/>
<path d="M243.986 118.018C243.986 118.018 239.457 117.673 238.411 120.684C237.687 123.586 237.687 126.622 238.411 129.524C238.756 130.442 241.664 134.983 242.468 135.328C242.98 135.5 243.521 135.568 244.06 135.529C244.599 135.489 245.124 135.343 245.606 135.098C245.963 134.626 248.859 130.327 249.101 128.822C249.184 126.602 249.141 124.379 248.973 122.164C248.928 121.384 248.664 120.632 248.213 119.994C247.763 119.356 247.142 118.857 246.422 118.554C245.645 118.243 244.822 118.062 243.986 118.018Z" fill="white" stroke="#263238" stroke-linecap="round" stroke-linejoin="round"/>
<path d="M240.554 119.192C240.554 119.192 247.876 125.915 249.343 125.915C250.81 125.915 251.001 120.966 249.432 118.593C247.863 116.22 240.35 114.83 240.554 119.192Z" fill="white" stroke="#263238" stroke-linecap="round" stroke-linejoin="round"/>
<path d="M260.86 114.612H284.587" stroke="#263238" stroke-width="2" stroke-linecap="round" stroke-linejoin="round"/>
<path d="M260.86 122.879H333.48" stroke="#263238" stroke-linecap="round" stroke-linejoin="round"/>
<path d="M260.86 129.703H333.48" stroke="#263238" stroke-linecap="round" stroke-linejoin="round"/>
<path d="M260.86 137.256H333.48" stroke="#263238" stroke-linecap="round" stroke-linejoin="round"/>
<path d="M209.045 43.9053H163.889V323.084H209.045V43.9053Z" fill="#16B99B"/>
<path d="M195.447 134.544C201.091 128.9 201.091 119.749 195.447 114.105C189.803 108.461 180.652 108.461 175.008 114.105C169.364 119.749 169.364 128.9 175.008 134.544C180.652 140.188 189.803 140.188 195.447 134.544Z" fill="white"/>
<path d="M183.42 113.349C183.42 113.349 178.19 111.359 176.2 116.589C174.21 121.819 176.698 129.026 176.698 132.011C176.698 134.996 179.683 137.484 182.923 137.739C186.163 137.994 190.385 138.479 192.872 134.499C195.36 130.519 194.365 121.806 193.37 116.832C192.375 111.857 186.903 113.094 183.42 113.349Z" fill="white" stroke="#263238" stroke-linecap="round" stroke-linejoin="round"/>
<path d="M192.515 123.324C192.515 123.324 194.033 121.309 194.377 123.324C194.722 125.34 191.826 127.878 191.826 127.878L192.515 123.324Z" fill="white" stroke="#263238" stroke-linecap="round" stroke-linejoin="round"/>
<path d="M178.048 123.324C178.048 123.324 176.53 121.309 176.186 123.324C175.841 125.34 178.737 127.878 178.737 127.878L178.048 123.324Z" fill="white" stroke="#263238" stroke-linecap="round" stroke-linejoin="round"/>
<path d="M185.768 113.362C185.768 113.362 180.053 112.928 178.727 116.729C177.4 120.531 178.293 126.704 178.727 127.878C179.16 129.052 182.834 134.766 183.829 135.2C184.824 135.634 187.35 135.493 187.796 134.907C188.243 134.32 191.904 128.898 192.184 126.998C192.316 124.217 192.282 121.432 192.082 118.655C192.026 117.67 191.694 116.72 191.123 115.915C190.552 115.109 189.766 114.481 188.855 114.101C187.873 113.689 186.83 113.439 185.768 113.362Z" fill="white" stroke="#263238" stroke-linecap="round" stroke-linejoin="round"/>
<path d="M181.429 114.83C181.429 114.83 190.664 123.313 192.514 123.313C194.364 123.313 194.606 117.075 192.616 114.078C190.626 111.08 181.174 109.371 181.429 114.83Z" fill="white" stroke="#263238" stroke-linecap="round" stroke-linejoin="round"/>
<path d="M188.542 89.8604C196.313 88.035 201.132 80.256 199.307 72.4856C197.481 64.7152 189.702 59.8958 181.932 61.7212C174.161 63.5466 169.342 71.3255 171.167 79.096C172.993 86.8664 180.772 91.6858 188.542 89.8604Z" fill="white"/>
<path d="M192.515 74.8145C192.515 74.8145 194.033 72.7863 194.377 74.8145C194.722 76.8427 191.826 79.3557 191.826 79.3557L192.515 74.8145Z" fill="white" stroke="#263238" stroke-linecap="round" stroke-linejoin="round"/>
<path d="M178.048 74.8145C178.048 74.8145 176.53 72.7863 176.186 74.8145C175.841 76.8427 178.737 79.3557 178.737 79.3557L178.048 74.8145Z" fill="white" stroke="#263238" stroke-linecap="round" stroke-linejoin="round"/>
<path d="M185.768 64.853C185.768 64.853 180.053 64.4065 178.727 68.2206C177.4 72.0346 178.293 78.183 178.727 79.3566C179.16 80.5302 182.834 86.2449 183.829 86.6913C184.824 87.1378 187.35 86.9847 187.796 86.3979C188.243 85.8112 191.904 80.3898 192.184 78.4764C192.302 75.6781 192.251 72.8752 192.031 70.083C191.978 69.0966 191.647 68.1454 191.076 67.3395C190.505 66.5336 189.717 65.9059 188.804 65.529C187.836 65.1376 186.81 64.9092 185.768 64.853Z" fill="white" stroke="#263238" stroke-linecap="round" stroke-linejoin="round"/>
<path d="M192.081 70.083C192.028 69.0966 191.697 68.1454 191.126 67.3395C190.555 66.5336 189.767 65.9059 188.854 65.529C187.878 65.1348 186.844 64.9063 185.793 64.853C185.793 64.853 180.078 64.4065 178.751 68.2206C178.132 70.3953 177.912 72.6642 178.101 74.9175C178.394 75.2492 179.376 76.2696 179.198 74.9175C179.032 73.3995 178.866 68.8584 180.04 67.8379C181.213 66.8174 181.392 65.9883 183.076 67.3404C184.759 68.6925 184.594 69.8916 186.277 69.0242C187.961 68.1568 188.293 66.3199 189.811 66.996C191.329 67.6721 190.831 70.8228 190.831 72.3918C190.831 73.9608 190.831 76.7671 191.839 75.4277C192.025 75.1414 192.175 74.8328 192.285 74.5093C192.209 73.0296 192.081 71.3586 192.081 70.083Z" fill="#263238" stroke="#263238" stroke-linecap="round" stroke-linejoin="round"/>
<path d="M185.232 187.017C193.214 187.017 199.684 180.547 199.684 172.565C199.684 164.583 193.214 158.112 185.232 158.112C177.25 158.112 170.779 164.583 170.779 172.565C170.779 180.547 177.25 187.017 185.232 187.017Z" fill="white"/>
<path d="M192.515 171.57C192.515 171.57 194.033 169.554 194.377 171.57C194.722 173.585 191.826 176.124 191.826 176.124L192.515 171.57Z" fill="white" stroke="#263238" stroke-linecap="round" stroke-linejoin="round"/>
<path d="M178.048 171.57C178.048 171.57 176.53 169.554 176.186 171.57C175.841 173.585 178.737 176.124 178.737 176.124L178.048 171.57Z" fill="white" stroke="#263238" stroke-linecap="round" stroke-linejoin="round"/>
<path d="M185.768 161.606C185.768 161.606 180.053 161.159 178.727 164.974C177.4 168.788 178.293 174.949 178.727 176.122C179.16 177.296 182.834 183.011 183.829 183.444C184.824 183.878 187.35 183.738 187.796 183.151C188.243 182.564 191.904 177.143 192.184 175.242C192.302 172.44 192.251 169.632 192.031 166.836C191.978 165.85 191.647 164.898 191.076 164.092C190.505 163.287 189.717 162.659 188.804 162.282C187.834 161.896 186.809 161.668 185.768 161.606Z" fill="white" stroke="#263238" stroke-linecap="round" stroke-linejoin="round"/>
<path d="M192.081 166.836C192.028 165.85 191.697 164.898 191.126 164.092C190.555 163.287 189.767 162.659 188.854 162.282C187.876 161.894 186.842 161.665 185.792 161.606C185.792 161.606 180.078 161.159 178.751 164.974C178.132 167.148 177.912 169.417 178.1 171.67C178.394 172.002 179.376 173.035 179.197 171.734C179.032 170.229 178.866 165.675 180.039 164.667C181.213 163.66 181.391 162.805 183.075 164.157C184.759 165.509 184.593 166.708 186.277 165.841C187.961 164.974 188.292 163.149 189.81 163.825C191.328 164.502 190.831 167.652 190.831 169.209C190.831 170.765 190.831 173.597 191.839 172.244C192.023 171.961 192.173 171.657 192.285 171.339C192.209 169.795 192.081 168.124 192.081 166.836Z" fill="#263238" stroke="#263238" stroke-linecap="round" stroke-linejoin="round"/>
<path d="M180.015 164.667C181.382 166.476 183.38 167.704 185.612 168.106C187.843 168.508 190.144 168.054 192.056 166.836C192.056 166.836 193.868 166.836 193.868 164.667C193.868 162.499 194.506 163.392 191.316 163.392C188.127 163.392 180.857 157.588 180.015 164.667Z" fill="#263238" stroke="#263238" stroke-linecap="round" stroke-linejoin="round"/>
<path d="M185.013 172.513H179.324L179.924 174.388C179.983 174.564 180.096 174.717 180.247 174.824C180.399 174.932 180.58 174.989 180.766 174.987H183.687C183.883 174.988 184.073 174.923 184.228 174.803C184.383 174.682 184.493 174.514 184.541 174.324L185.013 172.513Z" fill="white" stroke="#263238" stroke-linecap="round" stroke-linejoin="round"/>
<path d="M191.303 172.513H185.627L186.226 174.388C186.287 174.563 186.401 174.714 186.552 174.822C186.703 174.929 186.883 174.987 187.068 174.987H190.002C190.197 174.989 190.387 174.925 190.54 174.804C190.693 174.683 190.801 174.514 190.844 174.324L191.303 172.513Z" fill="white" stroke="#263238" stroke-linecap="round" stroke-linejoin="round"/>
<path d="M175.983 97.4307H194.582" stroke="#263238" stroke-width="2" stroke-linecap="round" stroke-linejoin="round"/>
<path d="M175.983 144.974H194.582" stroke="#263238" stroke-width="2" stroke-linecap="round" stroke-linejoin="round"/>
<path d="M175.983 192.528H194.582" stroke="#263238" stroke-width="2" stroke-linecap="round" stroke-linejoin="round"/>
<path d="M53.0408 285.543C53.0408 285.543 53.0408 281.117 46.8542 274.917C40.6675 268.718 36.6493 265.185 36.6493 265.185C36.6493 265.185 33.5496 275.389 39.3026 281.563C43.5424 285.918 48.1377 289.912 53.0408 293.503V285.543Z" fill="#16B99B"/>
<path d="M44.1102 313.172C44.1102 313.172 44.1102 308.746 37.9235 302.559C31.7368 296.372 27.7187 292.813 27.7187 292.813C27.7187 292.813 24.619 303.018 30.3719 309.192C34.6117 313.547 39.207 317.541 44.1102 321.132V313.172Z" fill="#16B99B"/>
<path d="M52.6827 293.083C52.6827 293.083 53.1419 288.682 59.9664 283.172C66.7909 277.661 71.1024 274.574 71.1024 274.574C71.1024 274.574 73.1179 285.021 66.7399 290.57C62.0724 294.453 57.0887 297.939 51.8408 300.992L52.6827 293.083Z" fill="#16B99B"/>
<path d="M41.8145 325.712C41.8145 325.712 42.7457 321.388 50.106 316.63C57.4662 311.872 62.0966 309.244 62.0966 309.244C62.0966 309.244 62.9896 319.844 56.063 324.692C51.0142 328.062 45.6936 331.006 40.1562 333.493L41.8145 325.712Z" fill="#16B99B"/>
<path d="M43.8555 361.289C43.8555 361.289 43.8555 356.863 50.0549 350.676C56.2543 344.49 60.2597 340.931 60.2597 340.931C60.2597 340.931 63.3594 351.135 57.6065 357.309C53.3718 361.665 48.7807 365.658 43.881 369.249L43.8555 361.289Z" fill="#16B99B"/>
<path d="M43.7517 369.95C43.7517 369.95 44.3895 365.562 39.134 358.559C33.8786 351.556 30.4472 347.474 30.4472 347.474C30.4472 347.474 25.9315 357.104 30.7406 364.056C34.313 368.972 38.2897 373.58 42.6292 377.833L43.7517 369.95Z" fill="#16B99B"/>
<path d="M37.6445 395.718C37.6445 395.718 37.6445 391.292 43.844 385.092C50.0434 378.893 54.0488 375.359 54.0488 375.359C54.0488 375.359 57.1485 385.564 51.3955 391.725C47.1632 396.087 42.5719 400.085 37.67 403.678L37.6445 395.718Z" fill="#16B99B"/>
<path d="M41.7892 419.048C41.7892 419.048 40.6667 414.762 45.093 407.21C49.5194 399.659 52.466 395.207 52.466 395.207C52.466 395.207 58.0404 404.277 54.0478 411.713C51.0711 417.002 47.6576 422.033 43.843 426.753L41.7892 419.048Z" fill="#16B99B"/>
<path d="M53.6265 284.408C53.3188 289.016 52.7524 293.602 51.93 298.146C49.4808 310.8 43.3579 318.926 40.9088 330.406C38.4596 341.887 45.5009 356.556 43.613 371.226C41.7252 385.895 35.9594 394.059 37.6432 403.856C39.327 413.652 47.848 440.172 47.848 440.172" stroke="#263238" stroke-width="0.5" stroke-linecap="round" stroke-linejoin="round"/>
<path d="M52.6182 296.016L59.2896 290.888" stroke="#263238" stroke-width="0.5" stroke-linecap="round" stroke-linejoin="round"/>
<path d="M52.9254 290.122L50.1318 285.147" stroke="#263238" stroke-width="0.5" stroke-linecap="round" stroke-linejoin="round"/>
<path d="M41.2803 329.858C41.2803 329.858 46.8802 325.674 52.6204 321.478" stroke="#263238" stroke-width="0.5" stroke-linecap="round" stroke-linejoin="round"/>
<path d="M44.1107 321.132C41.3244 315.749 37.9993 310.664 34.1865 305.952" stroke="#263238" stroke-width="0.5" stroke-linecap="round" stroke-linejoin="round"/>
<path d="M44.1094 367.578C47.2965 361.698 51.3228 356.314 56.0618 351.595" stroke="#263238" stroke-width="0.5" stroke-linecap="round" stroke-linejoin="round"/>
<path d="M42.9889 373.778C41.294 369.791 39.2716 365.951 36.9425 362.297C33.677 357.476 33.2178 356.863 33.2178 356.863" stroke="#263238" stroke-width="0.5" stroke-linecap="round" stroke-linejoin="round"/>
<path d="M37.6445 403.842C39.0624 400.317 40.7468 396.906 42.6832 393.637C44.6215 390.626 46.806 387.78 49.2143 385.129" stroke="#263238" stroke-width="0.5" stroke-linecap="round" stroke-linejoin="round"/>
<path d="M43.8035 426.752C43.4818 423.396 44.0586 420.015 45.4746 416.955C47.8089 412.452 50.4494 406.546 51.5337 404.199" stroke="#263238" stroke-width="0.5" stroke-linecap="round" stroke-linejoin="round"/>
<path d="M12.5001 344.654C12.5001 344.654 12.0281 341.873 15.2298 337.319C18.4316 332.766 20.5619 330.112 20.5619 330.112C20.5619 330.112 23.6106 336.159 20.6767 340.662C18.4958 343.838 16.0507 346.825 13.3675 349.591L12.5001 344.654Z" fill="#16B99B"/>
<path d="M21.1493 361.021C21.1493 361.021 20.6773 358.253 23.8919 353.699C27.1064 349.145 29.2111 346.492 29.2111 346.492C29.2111 346.492 32.2598 352.539 29.3259 357.041C27.1412 360.215 24.6964 363.202 22.0167 365.971L21.1493 361.021Z" fill="#16B99B"/>
<path d="M13.5728 349.336C13.5728 349.336 12.7947 346.619 7.92185 343.914C3.04905 341.21 0.000351478 339.73 0.000351478 339.73C0.000351478 339.73 -0.127206 346.491 4.47772 349.285C7.82494 351.216 11.3281 352.863 14.9504 354.209L13.5728 349.336Z" fill="#16B99B"/>
<path d="M23.9176 368.674C23.9176 368.674 22.8716 366.123 17.7437 363.865C12.6158 361.608 9.42676 360.536 9.42676 360.536C9.42676 360.536 10.0135 367.284 14.8736 369.58C18.4096 371.157 22.0704 372.437 25.8183 373.407L23.9176 368.674Z" fill="#16B99B"/>
<path d="M26.5075 391.15C26.5075 391.15 26.0228 388.369 21.4051 385.167C16.7874 381.966 14.0321 380.154 14.0321 380.154C14.0321 380.154 13.1902 386.864 17.4635 390.13C20.5885 392.403 23.8998 394.408 27.3622 396.125L26.5075 391.15Z" fill="#16B99B"/>
<path d="M27.5275 396.585C27.5275 396.585 26.6473 393.906 29.1858 388.931C31.7242 383.956 33.4335 381.035 33.4335 381.035C33.4335 381.035 37.2603 386.584 35.0408 391.47C33.337 394.939 31.3443 398.259 29.0837 401.394L27.5275 396.585Z" fill="#16B99B"/>
<path d="M35.283 418.959C35.283 418.959 35.6019 416.165 39.9772 412.696C44.3526 409.226 47.1079 407.287 47.1079 407.287C47.1079 407.287 48.3835 413.946 44.2505 417.492C41.2561 419.937 38.0647 422.13 34.709 424.049L35.283 418.959Z" fill="#16B99B"/>
<path d="M34.1355 412.044C34.1355 412.044 33.6507 409.276 29.033 406.062C24.4154 402.847 21.5963 401.062 21.5963 401.062C21.5963 401.062 20.7544 407.784 25.0404 411.037C28.1648 413.315 31.4761 415.325 34.9391 417.045L34.1355 412.044Z" fill="#16B99B"/>
<path d="M34.0705 427.148C34.0705 427.148 34.3129 424.342 30.7156 420.081C27.1184 415.82 24.7841 413.32 24.7841 413.32C24.7841 413.32 22.2329 419.609 25.5877 423.844C28.0394 426.835 30.736 429.617 33.6495 432.161L34.0705 427.148Z" fill="#16B99B"/>
<path d="M12.0293 344.004C12.7271 346.858 13.5788 349.673 14.5805 352.436C17.4889 360.089 22.2341 364.554 24.9894 371.455C27.7447 378.356 24.9894 388.344 27.732 397.35C30.4745 406.355 34.9774 410.846 35.0157 417.16C35.0539 423.474 32.6303 441.039 32.6303 441.039" stroke="#263238" stroke-width="0.5" stroke-linecap="round" stroke-linejoin="round"/>
<path d="M13.9298 351.174L9.18457 348.687" stroke="#263238" stroke-width="0.5" stroke-linecap="round" stroke-linejoin="round"/>
<path d="M13.0889 347.5L14.3007 344.081" stroke="#263238" stroke-width="0.5" stroke-linecap="round" stroke-linejoin="round"/>
<path d="M24.7081 371.226C24.7081 371.226 20.741 369.211 16.6846 367.195" stroke="#263238" stroke-width="0.5" stroke-linecap="round" stroke-linejoin="round"/>
<path d="M22.0049 365.995C23.1669 362.315 24.7013 358.763 26.5843 355.395" stroke="#263238" stroke-width="0.5" stroke-linecap="round" stroke-linejoin="round"/>
<path d="M27.0429 395.118C24.405 391.78 21.2987 388.842 17.8203 386.393" stroke="#263238" stroke-width="0.5" stroke-linecap="round" stroke-linejoin="round"/>
<path d="M28.4082 398.894C29.0345 396.208 29.888 393.579 30.9594 391.037C32.4774 387.669 32.707 387.21 32.707 387.21" stroke="#263238" stroke-width="0.5" stroke-linecap="round" stroke-linejoin="round"/>
<path d="M34.7988 421.956C36.3414 420.045 38.0488 418.274 39.9012 416.662C41.0811 415.79 42.1901 414.826 43.2178 413.779" stroke="#263238" stroke-width="0.5" stroke-linecap="round" stroke-linejoin="round"/>
<path d="M35.0158 417.149C33.7476 415.095 32.3232 413.142 30.7553 411.306C29.212 409.626 27.5355 408.073 25.7422 406.663" stroke="#263238" stroke-width="0.5" stroke-linecap="round" stroke-linejoin="round"/>
<path d="M33.65 432.199C33.4889 430.056 32.7579 427.995 31.5325 426.229C29.5808 423.678 27.2847 420.247 26.3535 418.907" stroke="#263238" stroke-width="0.5" stroke-linecap="round" stroke-linejoin="round"/>
<path d="M19.875 437.977H60.4264V467.685C60.4264 468.7 60.0233 469.674 59.3056 470.391C58.5879 471.109 57.6146 471.512 56.5996 471.512H23.7911C22.7762 471.512 21.8028 471.109 21.0851 470.391C20.3675 469.674 19.9643 468.7 19.9643 467.685V437.977H19.875Z" fill="#263238"/>
<path d="M60.0804 443.271H19.8734C19.0398 443.261 18.2436 442.924 17.6566 442.332C17.0695 441.74 16.7387 440.942 16.7354 440.108C16.732 439.27 17.0598 438.465 17.6476 437.867C18.2354 437.27 19.0354 436.929 19.8734 436.919H60.0804C60.4975 436.921 60.9102 437.004 61.2949 437.166C61.6796 437.327 62.0289 437.562 62.3226 437.858C62.6164 438.154 62.8489 438.505 63.007 438.891C63.1651 439.277 63.2456 439.691 63.2439 440.108C63.2405 440.946 62.9062 441.749 62.3136 442.341C61.7211 442.934 60.9184 443.268 60.0804 443.271Z" fill="#263238"/>
<path d="M440.915 295.749H378.321C373.665 295.749 373.499 296.31 373.499 300.545V383.549H445.711V300.545C445.736 296.31 445.571 295.749 440.915 295.749Z" fill="#16B99B" stroke="#263238" stroke-linecap="round" stroke-linejoin="round"/>
<path d="M411.781 406.905H405.989V453.669H411.781V406.905Z" fill="#263238"/>
<path d="M415.25 416.026H402.507V454.83H415.25V416.026Z" fill="#263238"/>
<path d="M429.153 396.471H388.602V410.375H429.153V396.471Z" fill="#263238"/>
<path d="M367.274 471.999C368.838 471.999 370.106 470.731 370.106 469.167C370.106 467.603 368.838 466.335 367.274 466.335C365.71 466.335 364.442 467.603 364.442 469.167C364.442 470.731 365.71 471.999 367.274 471.999Z" fill="#263238"/>
<path d="M453.313 469.167C453.313 468.607 453.147 468.059 452.836 467.594C452.525 467.128 452.082 466.765 451.565 466.551C451.047 466.336 450.478 466.28 449.929 466.389C449.379 466.499 448.875 466.768 448.479 467.164C448.083 467.56 447.813 468.065 447.704 468.614C447.595 469.164 447.651 469.733 447.865 470.25C448.079 470.768 448.442 471.21 448.908 471.521C449.374 471.833 449.921 471.999 450.481 471.999C451.232 471.999 451.953 471.7 452.484 471.169C453.015 470.638 453.313 469.918 453.313 469.167Z" fill="#263238"/>
<path d="M402.506 454.83L364.11 464.001V466.668L408.425 463.007V454.664L402.506 454.83Z" fill="#263238"/>
<path d="M415.25 454.83L453.658 464.001V466.668L409.331 463.007V454.664L415.25 454.83Z" fill="#263238"/>
<path d="M409.037 472C408.767 472 408.5 471.947 408.251 471.843C408.002 471.74 407.776 471.589 407.585 471.398C407.394 471.208 407.243 470.981 407.14 470.732C407.037 470.483 406.983 470.216 406.983 469.946V461.399C406.983 460.854 407.199 460.33 407.584 459.943C407.969 459.556 408.491 459.336 409.037 459.333C409.583 459.336 410.105 459.556 410.49 459.943C410.875 460.33 411.091 460.854 411.091 461.399V469.946C411.091 470.216 411.038 470.483 410.935 470.732C410.831 470.981 410.68 471.208 410.489 471.398C410.299 471.589 410.072 471.74 409.823 471.843C409.574 471.947 409.307 472 409.037 472Z" fill="#263238"/>
<path d="M405.977 467.331H412.087V454.664H405.977V467.331Z" fill="#263238"/>
<path d="M446.221 377.426H372.797C371.212 377.426 369.927 378.711 369.927 380.296V395.029C369.927 396.614 371.212 397.899 372.797 397.899H446.221C447.806 397.899 449.091 396.614 449.091 395.029V380.296C449.091 378.711 447.806 377.426 446.221 377.426Z" fill="#16B99B" stroke="#263238" stroke-linecap="round" stroke-linejoin="round"/>
<path d="M387.416 350.09L382.671 359.644L395.389 377.056H431.629L440.201 362.387L435.991 350.09H387.416Z" fill="#263238" stroke="#263238" stroke-linecap="round" stroke-linejoin="round"/>
<path d="M382.67 359.645C382.67 359.645 375.642 364.058 373.996 371.291C373.193 374.837 380.183 387.3 384.201 388.639C388.028 389.915 409.509 374.709 409.509 374.709" fill="#263238"/>
<path d="M382.67 359.645C382.67 359.645 375.642 364.058 373.996 371.291C373.193 374.837 380.183 387.3 384.201 388.639C388.028 389.915 409.509 374.709 409.509 374.709" stroke="#263238" stroke-linecap="round" stroke-linejoin="round"/>
<path d="M384.264 363.357C384.264 363.357 375.972 362.082 373.906 368.064C372.464 372.261 374.352 384.647 374.824 386.063C375.296 387.479 383.32 456.221 383.32 456.221H394.622L398.449 369.48" fill="#263238"/>
<path d="M384.264 363.357C384.264 363.357 375.972 362.082 373.906 368.064C372.464 372.261 374.352 384.647 374.824 386.063C375.296 387.479 383.32 456.221 383.32 456.221H394.622L398.449 369.48" stroke="#263238" stroke-linecap="round" stroke-linejoin="round"/>
<path d="M383.321 456.219L382.045 461.487L369.646 468.924C369.646 468.924 370.042 471.271 371.917 471.271H393.398C393.794 471.282 394.188 471.207 394.552 471.051C394.916 470.894 395.242 470.66 395.507 470.365C395.771 470.07 395.968 469.721 396.084 469.342C396.201 468.964 396.233 468.564 396.179 468.171L394.674 456.168L383.321 456.219Z" fill="white" stroke="#263238" stroke-linecap="round" stroke-linejoin="round"/>
<path d="M369.711 469.09C369.838 469.613 370.361 471.271 371.943 471.271H393.424C394.05 471.269 394.656 471.05 395.139 470.653C395.623 470.256 395.954 469.703 396.078 469.09H369.711Z" fill="white" stroke="#263238" stroke-linecap="round" stroke-linejoin="round"/>
<path d="M382.07 461.488C385.086 461.297 388.114 461.502 391.076 462.101" stroke="#263238" stroke-linecap="round" stroke-linejoin="round"/>
<path d="M390.426 466.374L386.804 470.966" stroke="#263238" stroke-linecap="round" stroke-linejoin="round"/>
<path d="M438.274 359.645C438.274 359.645 445.303 364.058 446.948 371.291C447.752 374.837 440.762 387.3 436.744 388.639C432.917 389.915 411.436 374.709 411.436 374.709" fill="#263238"/>
<path d="M438.274 359.645C438.274 359.645 445.303 364.058 446.948 371.291C447.752 374.837 440.762 387.3 436.744 388.639C432.917 389.915 411.436 374.709 411.436 374.709" stroke="#263238" stroke-linecap="round" stroke-linejoin="round"/>
<path d="M436.63 363.357C436.63 363.357 444.921 362.082 446.988 368.064C448.429 372.261 446.541 384.647 446.069 386.063C445.597 387.479 437.574 456.221 437.574 456.221H426.272L422.509 369.48" fill="#263238"/>
<path d="M436.63 363.357C436.63 363.357 444.921 362.082 446.988 368.064C448.429 372.261 446.541 384.647 446.069 386.063C445.597 387.479 437.574 456.221 437.574 456.221H426.272L422.509 369.48" stroke="#263238" stroke-linecap="round" stroke-linejoin="round"/>
<path d="M437.574 456.22L438.849 461.488L451.248 468.925C451.248 468.925 450.853 471.272 448.978 471.272H427.471C427.086 471.271 426.706 471.189 426.355 471.03C426.004 470.872 425.691 470.641 425.436 470.354C425.18 470.066 424.989 469.727 424.873 469.36C424.758 468.993 424.722 468.605 424.767 468.223L426.272 456.22H437.574Z" fill="white" stroke="#263238" stroke-linecap="round" stroke-linejoin="round"/>
<path d="M451.182 469.09C451.055 469.613 450.532 471.271 448.95 471.271H427.469C426.843 471.269 426.237 471.05 425.754 470.653C425.27 470.256 424.939 469.703 424.815 469.09H451.182Z" fill="white" stroke="#263238" stroke-linecap="round" stroke-linejoin="round"/>
<path d="M438.823 461.488C435.807 461.297 432.779 461.502 429.817 462.101" stroke="#263238" stroke-linecap="round" stroke-linejoin="round"/>
<path d="M430.466 466.374L434.089 470.966" stroke="#263238" stroke-linecap="round" stroke-linejoin="round"/>
<path d="M418.527 274.6L417.111 275.314L404.393 274.982L403.041 276.156V275.314L401.625 274.6L376.215 286.424L387.415 350.09H435.99L443.707 286.424L418.527 274.6Z" fill="white" stroke="#263238" stroke-linecap="round" stroke-linejoin="round"/>
<path d="M400.951 272.355C400.951 272.355 395.734 275.863 395.734 276.96C395.734 278.057 394.994 289.716 394.994 289.716L401.576 287.522L410.505 295.176L419.18 287.854L427.229 289.69L424.677 276.156L414.804 269.574L400.951 272.355Z" fill="white" stroke="#263238" stroke-linecap="round" stroke-linejoin="round"/>
<path d="M443.709 286.424L465.93 324.092L449.283 326.006L440.481 313.722L443.709 286.424Z" fill="white" stroke="#263238" stroke-linecap="round" stroke-linejoin="round"/>
<path d="M376.459 286.424L354.365 324.092L371.012 326.006L383.704 311.719L376.459 286.424Z" fill="white" stroke="#263238" stroke-linecap="round" stroke-linejoin="round"/>
<path d="M419.892 280.174L410.466 295.252L401.243 280.174V258.183H419.892V280.174Z" fill="white" stroke="#263238" stroke-linecap="round" stroke-linejoin="round"/>
<path d="M399.216 252.34C399.216 252.34 395.759 251.434 396.103 253.857C396.448 256.281 397.494 260.784 399.216 261.817L400.951 262.851L399.216 252.34Z" fill="white" stroke="#263238" stroke-linecap="round" stroke-linejoin="round"/>
<path d="M422.381 252.34C422.381 252.34 425.838 251.434 425.494 253.857C425.149 256.281 424.103 260.784 422.381 261.817L420.646 262.851L422.381 252.34Z" fill="white" stroke="#263238" stroke-linecap="round" stroke-linejoin="round"/>
<path d="M423.999 248.323C423.893 244.908 422.461 241.668 420.008 239.289C417.554 236.911 414.271 235.581 410.854 235.581C407.437 235.581 404.154 236.911 401.701 239.289C399.247 241.668 397.815 244.908 397.709 248.323C397.712 249.686 397.923 251.041 398.334 252.341L401.689 268.082L407.799 276.654H413.692L419.624 269.192L423.247 252.711C423.746 251.302 424 249.818 423.999 248.323Z" fill="white" stroke="#263238" stroke-linecap="round" stroke-linejoin="round"/>
<path d="M421.181 247.29C420.439 248.933 419.969 250.687 419.791 252.481C420.084 254.626 420.668 256.72 421.526 258.706C421.526 258.706 425.672 250.058 425.353 246.945C425.034 243.833 420.824 246.218 421.181 247.29Z" fill="#263238" stroke="#263238" stroke-linecap="round" stroke-linejoin="round"/>
<path d="M399.381 258.017C399.381 258.017 399.381 257.468 399.471 256.665C399.662 254.432 400.185 250.121 401.461 249.368C403.183 248.322 403.004 242.863 403.004 242.863C403.004 242.863 400.593 245.592 408.897 248.36C417.202 251.128 423.937 250.057 428.44 244.176C432.943 238.296 428.784 234.137 428.095 236.217C427.406 238.296 426.016 241.064 423.592 238.985C421.169 236.905 417.367 232.76 410.454 232.76C403.54 232.76 400.415 238.985 400.415 238.985C399.302 239.524 398.358 240.357 397.684 241.393C397.01 242.429 396.631 243.63 396.588 244.865C396.613 249.011 399.381 258.017 399.381 258.017Z" fill="#263238" stroke="#263238" stroke-linecap="round" stroke-linejoin="round"/>
<path d="M423.719 247.059C418.821 247.263 414.65 243.959 410.402 241.051C406.154 238.143 403.259 241.051 403.259 241.051C403.59 239.47 404.433 238.042 405.657 236.988C406.882 235.934 408.419 235.313 410.032 235.222C415.811 234.852 417.686 242.786 423.082 243.475" stroke="white" stroke-width="0.5" stroke-linecap="round" stroke-linejoin="round"/>
<path d="M409.918 257.698H398.336L399.612 261.525C399.719 261.892 399.942 262.215 400.248 262.445C400.554 262.675 400.926 262.8 401.308 262.801H407.291C407.689 262.799 408.075 262.665 408.389 262.421C408.703 262.176 408.927 261.834 409.026 261.449L409.918 257.698Z" fill="white" stroke="#263238" stroke-linecap="round" stroke-linejoin="round"/>
<path d="M422.75 257.698H411.181L412.456 261.525C412.568 261.892 412.794 262.214 413.101 262.444C413.409 262.673 413.782 262.798 414.166 262.801H420.148C420.546 262.799 420.932 262.665 421.246 262.421C421.56 262.176 421.784 261.834 421.883 261.449L422.75 257.698Z" fill="white" stroke="#263238" stroke-linecap="round" stroke-linejoin="round"/>
<path d="M398.335 257.723L397.748 252.072" stroke="#263238" stroke-linecap="round" stroke-linejoin="round"/>
<path d="M422.749 257.724L424.076 252.366" stroke="#263238" stroke-linecap="round" stroke-linejoin="round"/>
<path d="M409.918 257.725H411.181" stroke="#263238" stroke-linecap="round" stroke-linejoin="round"/>
<path d="M409.598 259.522H411.639" stroke="#263238" stroke-linecap="round" stroke-linejoin="round"/>
<path d="M412.953 266.831C412.953 266.831 412.085 268.107 411.052 268.107C410.019 268.107 409.151 266.831 409.151 266.831" stroke="#263238" stroke-linecap="round" stroke-linejoin="round"/>
<path d="M422.431 321.327C422.431 321.327 417.597 317.104 416.372 317.5C415.148 317.895 413.719 323.202 414.765 324.554C415.811 325.906 418.12 321.288 418.12 321.288L422.47 327.296L422.431 321.327Z" fill="white" stroke="#263238" stroke-linecap="round" stroke-linejoin="round"/>
<path d="M421.691 323.199L417.213 324.806C416.18 326.063 414.905 327.1 413.463 327.855C411.409 328.761 410.364 329.73 412.634 330.725C414.905 331.72 418.17 328.174 418.17 328.174L423.273 328.697C423.544 328.236 423.719 327.724 423.786 327.193C423.853 326.662 423.812 326.123 423.664 325.608C423.516 325.094 423.264 324.615 422.925 324.201C422.586 323.786 422.166 323.446 421.691 323.199Z" fill="white" stroke="#263238" stroke-linecap="round" stroke-linejoin="round"/>
<path d="M426.079 331.823C427.438 332.575 429.013 332.84 430.544 332.576C433.018 332.116 436.998 326.95 436.998 326.95L434.996 323.251L427.342 323.06L426.079 331.823Z" fill="white" stroke="#263238" stroke-linecap="round" stroke-linejoin="round"/>
<path d="M421.908 319.488C421.908 319.488 419.076 326.9 419.421 328.111C419.765 329.323 424.523 332.257 426.079 331.823C427.087 331.543 429.154 328.966 430.48 327.231C430.798 326.807 430.936 326.275 430.865 325.749C430.793 325.224 430.517 324.748 430.097 324.425C427.636 322.55 422.967 319.182 421.908 319.488Z" fill="white" stroke="#263238" stroke-linecap="round" stroke-linejoin="round"/>
<path d="M421.717 329.884L425.199 321.312" stroke="#263238" stroke-linecap="round" stroke-linejoin="round"/>
<path d="M428.834 324.068L424.038 331.352" stroke="#263238" stroke-linecap="round" stroke-linejoin="round"/>
<path d="M431.654 322.882C432.851 325.916 433.225 329.212 432.739 332.436L432.675 332.793L462.613 335.345C463.996 335.151 465.259 334.458 466.164 333.395C467.069 332.332 467.553 330.975 467.524 329.579V327.372C467.51 326.608 467.342 325.854 467.03 325.156C466.719 324.458 466.27 323.829 465.711 323.308C465.151 322.787 464.493 322.383 463.775 322.122C463.056 321.86 462.292 321.745 461.529 321.785L431.654 322.882Z" fill="white" stroke="#263238" stroke-linecap="round" stroke-linejoin="round"/>
<path d="M389.086 321.327C389.086 321.327 393.908 317.104 395.133 317.5C396.357 317.895 397.799 323.202 396.753 324.554C395.707 325.906 393.398 321.288 393.398 321.288L389.035 327.296L389.086 321.327Z" fill="white" stroke="#263238" stroke-linecap="round" stroke-linejoin="round"/>
<path d="M389.864 323.199L394.355 324.806C395.385 326.067 396.661 327.104 398.105 327.855C400.146 328.761 401.192 329.73 398.934 330.725C396.676 331.72 393.398 328.174 393.398 328.174L388.295 328.697C388.025 328.236 387.851 327.725 387.784 327.195C387.717 326.665 387.758 326.127 387.905 325.613C388.051 325.099 388.301 324.62 388.637 324.205C388.974 323.79 389.392 323.448 389.864 323.199Z" fill="white" stroke="#263238" stroke-linecap="round" stroke-linejoin="round"/>
<path d="M385.425 331.823C384.066 332.575 382.491 332.84 380.96 332.576C378.486 332.116 374.506 326.95 374.506 326.95L376.509 323.251L384.162 323.06L385.425 331.823Z" fill="white" stroke="#263238" stroke-linecap="round" stroke-linejoin="round"/>
<path d="M389.609 319.488C389.609 319.488 392.441 326.9 392.084 328.111C391.727 329.323 386.981 332.257 385.425 331.823C384.43 331.543 382.351 328.966 381.037 327.231C380.719 326.807 380.581 326.275 380.652 325.749C380.724 325.224 381 324.748 381.42 324.425C383.869 322.55 388.525 319.182 389.609 319.488Z" fill="white" stroke="#263238" stroke-linecap="round" stroke-linejoin="round"/>
<path d="M389.789 329.884L386.307 321.312" stroke="#263238" stroke-linecap="round" stroke-linejoin="round"/>
<path d="M382.683 324.068L387.479 331.352" stroke="#263238" stroke-linecap="round" stroke-linejoin="round"/>
<path d="M379.851 322.882C378.952 325.982 378.678 329.23 379.048 332.436V332.794L356.457 335.345C354.301 334.937 352.707 332.475 352.745 329.579V327.372C352.745 324.145 354.837 321.619 357.26 321.785L379.851 322.882Z" fill="white" stroke="#263238" stroke-linecap="round" stroke-linejoin="round"/>
<path d="M432.494 328.326H364.887V330.724H432.494V328.326Z" fill="white" stroke="#263238" stroke-linecap="round" stroke-linejoin="round"/>
<path d="M470.226 328.582H436.524V330.47H470.226V328.582Z" fill="white" stroke="#263238" stroke-linecap="round" stroke-linejoin="round"/>
<path d="M497.04 264.534H418.425V315.227H497.04V264.534Z" fill="white" stroke="#263238" stroke-linecap="round" stroke-linejoin="round"/>
<path d="M497.039 264.534H420.694V315.227H497.039V264.534Z" fill="#263238" stroke="#263238" stroke-linecap="round" stroke-linejoin="round"/>
<path d="M471.157 287.903H452.074V331.325H471.157V287.903Z" fill="white" stroke="#263238" stroke-linecap="round" stroke-linejoin="round"/>
<path d="M472.919 287.903H453.836V331.325H472.919V287.903Z" fill="#263238" stroke="#263238" stroke-linecap="round" stroke-linejoin="round"/>
<path d="M452.572 288.414H473.365V318.148" stroke="white" stroke-linecap="round" stroke-linejoin="round"/>
<path d="M299.065 315.929H284.932V332.333H299.065V315.929Z" fill="white" stroke="#263238" stroke-linecap="round" stroke-linejoin="round"/>
<path d="M323.915 268.463H258.26V317.701H323.915V268.463Z" fill="#263238" stroke="#263238" stroke-linecap="round" stroke-linejoin="round"/>
<path d="M320.483 271.038H261.69V315.136H320.483V271.038Z" fill="white" stroke="#263238" stroke-linecap="round" stroke-linejoin="round"/>
<path d="M255.709 394.609L269.192 454.333L275.315 452.623L274.907 392.045L255.709 394.609Z" fill="white" stroke="#263238" stroke-linecap="round" stroke-linejoin="round"/>
<path d="M269.191 454.333L261.027 468.888L259.382 471.886H268.375L275.314 462.038V471.465H278.337V455.622L275.314 452.624L269.191 454.333Z" fill="white" stroke="#263238" stroke-linecap="round" stroke-linejoin="round"/>
<path d="M306.515 394.609L293.032 454.333L286.909 452.623L287.317 392.045L306.515 394.609Z" fill="white" stroke="#263238" stroke-linecap="round" stroke-linejoin="round"/>
<path d="M293.034 454.333L301.21 468.888L302.843 471.886H293.85L286.911 462.038V471.465H283.9V455.622L286.911 452.624L293.034 454.333Z" fill="white" stroke="#263238" stroke-linecap="round" stroke-linejoin="round"/>
<path d="M298.034 320.611H283.722V337.232H298.034V320.611Z" fill="white" stroke="#263238" stroke-linecap="round" stroke-linejoin="round"/>
<path d="M279.538 374.711C279.538 378.107 278.532 381.426 276.645 384.25C274.758 387.073 272.077 389.274 268.939 390.573C265.802 391.873 262.35 392.213 259.019 391.55C255.689 390.888 252.629 389.253 250.228 386.851C247.827 384.45 246.192 381.391 245.529 378.06C244.867 374.73 245.207 371.277 246.506 368.14C247.806 365.003 250.006 362.321 252.83 360.435C255.653 358.548 258.973 357.541 262.369 357.541C264.624 357.541 266.856 357.985 268.939 358.848C271.022 359.711 272.915 360.976 274.51 362.57C276.104 364.164 277.369 366.057 278.232 368.14C279.094 370.223 279.538 372.456 279.538 374.711Z" fill="#263238" stroke="#263238" stroke-linecap="round" stroke-linejoin="round"/>
<path d="M281.157 374.711C281.157 378.107 282.164 381.426 284.051 384.25C285.937 387.073 288.619 389.274 291.756 390.573C294.894 391.873 298.346 392.213 301.677 391.55C305.007 390.888 308.066 389.253 310.468 386.851C312.869 384.45 314.504 381.391 315.167 378.06C315.829 374.73 315.489 371.277 314.19 368.14C312.89 365.003 310.689 362.321 307.866 360.435C305.042 358.548 301.723 357.541 298.327 357.541C293.773 357.541 289.406 359.35 286.186 362.57C282.966 365.79 281.157 370.157 281.157 374.711Z" fill="#263238" stroke="#263238" stroke-linecap="round" stroke-linejoin="round"/>
<path d="M274.537 268.53L275.392 278.645L285.086 279.487L285.507 269.793C285.507 269.793 277.548 264.728 274.537 268.53Z" fill="white" stroke="#263238" stroke-linecap="round" stroke-linejoin="round"/>
<path d="M267.635 279.51C269.589 277.56 272.2 276.409 274.957 276.282C279.996 275.81 287.624 276.091 290.341 277.953C292.146 279.294 293.672 280.976 294.831 282.903L264.102 282.38L267.635 279.51Z" fill="white" stroke="#263238" stroke-linecap="round" stroke-linejoin="round"/>
<path d="M312.104 289.104C308.825 285.379 305.215 282.624 301.35 282.292C289.577 281.259 276.923 279.422 265.008 282.075C260.136 283.147 254.804 284.626 250.977 287.905C247.15 291.183 245.874 296.145 243.183 300.355L234.509 314.182C230.886 319.897 227.272 325.654 223.666 331.454C223.666 331.454 222.11 336.123 227.939 338.457C233.769 340.791 237.277 337.283 237.277 337.283L251.053 316.376L255.492 356.494H303.723L308.825 312.371C310.471 315.33 323.75 338.865 328.508 339.286C333.61 339.758 336.353 338.368 338.19 333.291C340.231 327.665 328.546 314.093 325.74 309.922C322.474 304.972 317.78 295.571 312.104 289.104Z" fill="white" stroke="#263238" stroke-linecap="round" stroke-linejoin="round"/>
<path d="M312.984 286.043L328.763 309.527L307.371 320.051L256.526 320.752L236.537 303.927L249.867 284.984C249.867 284.984 261.794 279.027 281.757 278.67C301.72 278.313 312.984 286.043 312.984 286.043Z" fill="white" stroke="#263238" stroke-linecap="round" stroke-linejoin="round"/>
<path d="M255.492 356.442L251.843 371.061C251.207 373.615 251.524 376.314 252.736 378.651L259.599 391.879H301.426L308.047 379.518C308.906 377.913 309.405 376.141 309.511 374.324C309.617 372.506 309.326 370.688 308.659 368.994L303.722 356.442H255.492Z" fill="#263238" stroke="#263238" stroke-linecap="round" stroke-linejoin="round"/>
<path d="M285.979 382.617H277.229V416H285.979V382.617Z" fill="#263238" stroke="#263238" stroke-linecap="round" stroke-linejoin="round"/>
<path d="M288.186 410.746H274.996V456.03H288.186V410.746Z" fill="#263238" stroke="#263238" stroke-linecap="round" stroke-linejoin="round"/>
<path d="M287.918 454.918L281.808 453.273V452.979L281.247 453.12L280.698 452.979V453.273L274.588 454.918L232.927 462.7V465.748H280.698H281.808H329.579V462.7L287.918 454.918Z" fill="#263238" stroke="#263238" stroke-linecap="round" stroke-linejoin="round"/>
<path d="M236.536 470.622C238.15 470.622 239.458 469.314 239.458 467.7C239.458 466.087 238.15 464.779 236.536 464.779C234.923 464.779 233.615 466.087 233.615 467.7C233.615 469.314 234.923 470.622 236.536 470.622Z" fill="#263238" stroke="#263238" stroke-linecap="round" stroke-linejoin="round"/>
<path d="M284.168 467.7C284.168 468.278 283.997 468.843 283.676 469.323C283.355 469.804 282.899 470.178 282.365 470.399C281.831 470.62 281.244 470.678 280.677 470.565C280.111 470.453 279.59 470.175 279.182 469.766C278.773 469.357 278.495 468.837 278.382 468.27C278.27 467.704 278.327 467.116 278.549 466.583C278.77 466.049 279.144 465.593 279.624 465.272C280.105 464.951 280.67 464.779 281.247 464.779C281.631 464.778 282.012 464.852 282.367 464.998C282.722 465.144 283.045 465.36 283.317 465.631C283.588 465.903 283.803 466.225 283.95 466.581C284.096 466.936 284.17 467.316 284.168 467.7Z" fill="#263238" stroke="#263238" stroke-linecap="round" stroke-linejoin="round"/>
<path d="M329.159 467.7C329.159 468.279 328.987 468.844 328.665 469.325C328.344 469.805 327.887 470.18 327.352 470.4C326.818 470.621 326.23 470.678 325.663 470.565C325.096 470.451 324.575 470.171 324.167 469.761C323.759 469.352 323.482 468.83 323.371 468.262C323.26 467.695 323.319 467.107 323.542 466.574C323.765 466.04 324.142 465.585 324.624 465.265C325.106 464.946 325.672 464.777 326.25 464.779C326.633 464.779 327.013 464.855 327.366 465.002C327.72 465.149 328.041 465.364 328.311 465.636C328.582 465.907 328.796 466.229 328.941 466.584C329.086 466.938 329.16 467.317 329.159 467.7Z" fill="#263238" stroke="#263238" stroke-linecap="round" stroke-linejoin="round"/>
<path d="M308.406 393.168H254.83C253.339 393.17 251.862 392.877 250.484 392.307C249.106 391.738 247.854 390.901 246.799 389.847C245.744 388.792 244.908 387.54 244.338 386.162C243.768 384.784 243.476 383.307 243.478 381.815L249.856 301.656C249.856 299.148 250.851 296.743 252.623 294.968C254.396 293.193 256.8 292.195 259.308 292.191H303.954C305.196 292.191 306.426 292.436 307.574 292.912C308.722 293.388 309.764 294.085 310.642 294.964C311.52 295.843 312.216 296.887 312.69 298.035C313.165 299.184 313.408 300.414 313.406 301.656L319.784 381.815C319.786 383.309 319.493 384.788 318.921 386.168C318.349 387.548 317.511 388.801 316.454 389.856C315.396 390.911 314.141 391.746 312.76 392.315C311.379 392.883 309.899 393.173 308.406 393.168Z" fill="#16B99B" stroke="#263238" stroke-linecap="round" stroke-linejoin="round"/>
<path d="M308.406 397.391H254.83C253.339 397.393 251.862 397.1 250.484 396.53C249.106 395.96 247.854 395.124 246.799 394.069C245.744 393.015 244.908 391.763 244.338 390.385C243.768 389.006 243.476 387.529 243.478 386.038L249.856 305.879C249.856 303.371 250.851 300.965 252.623 299.191C254.396 297.416 256.8 296.417 259.308 296.414H303.954C305.196 296.414 306.426 296.659 307.574 297.135C308.722 297.611 309.764 298.308 310.642 299.187C311.52 300.066 312.216 301.11 312.69 302.258C313.165 303.406 313.408 304.637 313.406 305.879L319.784 386.038C319.786 387.531 319.493 389.011 318.921 390.39C318.349 391.77 317.511 393.024 316.454 394.078C315.396 395.133 314.141 395.969 312.76 396.537C311.379 397.106 309.899 397.396 308.406 397.391Z" fill="#16B99B" stroke="#263238" stroke-linecap="round" stroke-linejoin="round"/>
<path d="M279.817 274.089C277.484 274.089 275.225 273.271 273.433 271.777C271.641 270.283 270.429 268.208 270.008 265.913C269.715 264.28 269.472 262.647 269.051 261.04L266.87 249.394C266.87 245.959 268.234 242.664 270.662 240.234C273.089 237.804 276.382 236.437 279.817 236.434C283.255 236.434 286.551 237.799 288.982 240.23C291.412 242.66 292.778 245.956 292.778 249.394L290.596 261.04C290.175 262.647 289.933 264.28 289.64 265.913C289.219 268.21 288.005 270.286 286.21 271.781C284.415 273.275 282.153 274.092 279.817 274.089Z" fill="#263238" stroke="#263238" stroke-linecap="round" stroke-linejoin="round"/>
<path d="M271.743 239.075C269.932 239.831 268.362 241.069 267.204 242.654C266.046 244.24 265.344 246.112 265.174 248.068C264.651 254.803 266.73 262.239 267.075 267.087C267.419 271.934 265.863 275.735 261.717 282.305C257.571 288.874 260.161 298.556 270.187 303.913C280.213 309.271 293.62 306.018 298.034 300.457C306.363 289.946 295.61 275.735 294.207 268.299C292.804 260.862 296.107 251.18 292.14 243.743C288.173 236.306 282.803 233.883 278.3 233.883C273.797 233.883 271.743 239.075 271.743 239.075Z" fill="white" stroke="#263238" stroke-linecap="round" stroke-linejoin="round"/>
<path d="M292.65 260.441C292.65 260.441 290.545 274.116 293.696 284.678C296.847 295.24 291.949 305.011 280.366 305.355C268.784 305.7 265.99 290.635 272.304 290.278C278.619 289.921 278.619 296.592 277.215 296.949" stroke="#263238" stroke-linecap="round" stroke-linejoin="round"/>
<path d="M271.743 239.075C271.743 239.075 277.215 242.902 277.573 248.515" stroke="#263238" stroke-linecap="round" stroke-linejoin="round"/>
<path d="M197.656 314.578H182.361V332.335H197.656V314.578Z" fill="white" stroke="#263238" stroke-linecap="round" stroke-linejoin="round"/>
<path d="M224.571 263.195H153.507V316.49H224.571V263.195Z" fill="#263238" stroke="#263238" stroke-linecap="round" stroke-linejoin="round"/>
<path d="M220.846 265.989H157.219V313.71H220.846V265.989Z" fill="white" stroke="#263238" stroke-linecap="round" stroke-linejoin="round"/>
<path d="M208.511 328.889H141.912V331.848H208.511V328.889Z" fill="white" stroke="#263238" stroke-linecap="round" stroke-linejoin="round"/>
<path d="M57.5044 471.44H53.9965L51.458 335.001H60.0301L57.5044 471.44Z" fill="white" stroke="#263238" stroke-linecap="round" stroke-linejoin="round"/>
<path d="M87.1128 471.44H83.6049L81.0664 335.001H89.6512L87.1128 471.44Z" fill="#263238" stroke="#263238" stroke-linecap="round" stroke-linejoin="round"/>
<path d="M302.651 471.44H299.143L296.604 335.001H305.189L302.651 471.44Z" fill="#263238" stroke="#263238" stroke-linecap="round" stroke-linejoin="round"/>
<path d="M340.69 471.44H337.169L334.644 335.001H343.216L340.69 471.44Z" fill="#263238" stroke="#263238" stroke-linecap="round" stroke-linejoin="round"/>
<path d="M329.861 471.44H326.353L323.814 335.001H332.399L329.861 471.44Z" fill="#263238" stroke="#263238" stroke-linecap="round" stroke-linejoin="round"/>
<path d="M465.916 471.44H462.408L459.869 335.001H468.441L465.916 471.44Z" fill="#263238" stroke="#263238" stroke-linecap="round" stroke-linejoin="round"/>
<path d="M123.939 471.44H120.418L117.893 335.001H126.465L123.939 471.44Z" fill="#263238" stroke="#263238" stroke-linecap="round" stroke-linejoin="round"/>
<path d="M150.522 471.44H147.014L144.476 335.001H153.06L150.522 471.44Z" fill="#263238" stroke="#263238" stroke-linecap="round" stroke-linejoin="round"/>
<path d="M474.577 471.44H471.056L468.53 335.001H477.102L474.577 471.44Z" fill="#263238" stroke="#263238" stroke-linecap="round" stroke-linejoin="round"/>
<path d="M487.206 471.44H483.698L481.159 335.001H489.744L487.206 471.44Z" fill="#263238" stroke="#263238" stroke-linecap="round" stroke-linejoin="round"/>
<path d="M288.735 471.44H285.227L282.701 335.001H291.273L288.735 471.44Z" fill="white" stroke="#263238" stroke-linecap="round" stroke-linejoin="round"/>
<path d="M500.433 471.44H496.925L494.387 335.001H502.959L500.433 471.44Z" fill="white" stroke="#263238" stroke-linecap="round" stroke-linejoin="round"/>
<path d="M510.37 330.969H48.3594V366.252H510.37V330.969Z" fill="white" stroke="#263238" stroke-linecap="round" stroke-linejoin="round"/>
<path d="M510.37 330.969H48.3594V339.936H510.37V330.969Z" fill="#263238" stroke="#263238" stroke-linecap="round" stroke-linejoin="round"/>
<path d="M513.597 330.969H45.1191V335.867H513.597V330.969Z" fill="white" stroke="#263238" stroke-linecap="round" stroke-linejoin="round"/>
<path d="M97.1501 454.726L86.3074 468.451C86.3074 468.451 84.5088 470.62 87.7489 471.002C90.9889 471.385 107.266 471.002 107.266 471.002L106.743 457.443L97.1501 454.726Z" fill="white" stroke="#263238" stroke-linecap="round" stroke-linejoin="round"/>
<path d="M96.1926 372.397L95.5548 456.753C95.5514 457.285 95.6532 457.812 95.8542 458.304C96.0553 458.796 96.3517 459.243 96.7263 459.62C97.101 459.997 97.5465 460.296 98.0372 460.5C98.5279 460.704 99.0542 460.81 99.5857 460.81H102.787C103.745 460.807 104.671 460.464 105.4 459.843C106.129 459.222 106.613 458.362 106.767 457.416L118.898 380.74L96.1926 372.397Z" fill="#263238" stroke="#263238" stroke-linecap="round" stroke-linejoin="round"/>
<path d="M132.404 376.683C134.748 366.82 128.653 356.924 118.79 354.579C108.927 352.235 99.0312 358.33 96.687 368.193C94.3428 378.056 100.438 387.952 110.301 390.296C120.164 392.641 130.06 386.545 132.404 376.683Z" fill="#263238" stroke="#263238" stroke-linecap="round" stroke-linejoin="round"/>
<path d="M170.396 454.726L181.226 468.451C181.226 468.451 183.037 470.62 179.784 471.002C176.531 471.385 160.28 471.002 160.28 471.002L160.778 456.269L170.396 454.726Z" fill="white" stroke="#263238" stroke-linecap="round" stroke-linejoin="round"/>
<path d="M171.339 372.397L171.977 456.753C171.98 457.285 171.879 457.812 171.677 458.304C171.476 458.796 171.18 459.243 170.805 459.62C170.431 459.997 169.985 460.296 169.495 460.5C169.004 460.704 168.478 460.81 167.946 460.81H164.77C163.811 460.812 162.882 460.471 162.152 459.849C161.422 459.227 160.939 458.364 160.79 457.416L148.71 380.74L171.339 372.397Z" fill="#263238" stroke="#263238" stroke-linecap="round" stroke-linejoin="round"/>
<path d="M165.962 385.376C173.131 378.208 173.131 366.585 165.962 359.417C158.794 352.248 147.171 352.248 140.003 359.417C132.835 366.585 132.835 378.208 140.003 385.376C147.171 392.545 158.794 392.545 165.962 385.376Z" fill="#263238" stroke="#263238" stroke-linecap="round" stroke-linejoin="round"/>
<path d="M127.56 258.896L128.452 269.713L138.823 270.606L139.27 260.248C139.27 260.248 130.71 254.84 127.56 258.896Z" fill="white" stroke="#263238" stroke-linecap="round" stroke-linejoin="round"/>
<path d="M122.356 256.063C121.793 256.128 121.228 255.967 120.783 255.616C120.338 255.264 120.051 254.751 119.984 254.188L119.308 248.474C119.276 248.194 119.299 247.91 119.377 247.64C119.455 247.369 119.585 247.116 119.76 246.896C119.935 246.676 120.152 246.492 120.399 246.356C120.645 246.219 120.916 246.133 121.196 246.101C121.759 246.036 122.325 246.197 122.769 246.549C123.214 246.9 123.501 247.413 123.568 247.976L124.244 253.678C124.278 253.959 124.256 254.243 124.179 254.516C124.102 254.788 123.973 255.042 123.797 255.264C123.622 255.486 123.404 255.67 123.157 255.808C122.909 255.945 122.637 256.032 122.356 256.063Z" fill="white" stroke="#263238" stroke-linecap="round" stroke-linejoin="round"/>
<path d="M144.258 255.338C143.693 255.289 143.171 255.019 142.805 254.586C142.439 254.154 142.26 253.594 142.306 253.029L142.778 247.302C142.8 247.02 142.878 246.745 143.007 246.494C143.136 246.242 143.314 246.019 143.53 245.836C143.746 245.654 143.995 245.515 144.265 245.43C144.534 245.344 144.818 245.313 145.099 245.337C145.38 245.361 145.653 245.44 145.903 245.57C146.153 245.7 146.375 245.878 146.557 246.093C146.738 246.309 146.875 246.558 146.96 246.827C147.045 247.095 147.076 247.378 147.051 247.659L146.579 253.386C146.555 253.667 146.476 253.94 146.346 254.19C146.216 254.44 146.039 254.662 145.823 254.843C145.607 255.025 145.358 255.162 145.09 255.246C144.821 255.331 144.538 255.362 144.258 255.338Z" fill="white" stroke="#263238" stroke-linecap="round" stroke-linejoin="round"/>
<path d="M133.2 264.84C130.706 264.839 128.291 263.965 126.376 262.368C124.46 260.772 123.165 258.555 122.714 256.102C122.395 254.355 122.14 252.607 121.694 250.898L119.372 238.435C119.372 234.764 120.83 231.244 123.426 228.648C126.021 226.053 129.542 224.595 133.212 224.595C136.882 224.598 140.4 226.057 142.995 228.652C145.59 231.247 147.049 234.765 147.053 238.435L144.718 250.898C144.272 252.607 144.004 254.355 143.698 256.102C143.247 258.557 141.95 260.776 140.031 262.372C138.113 263.969 135.695 264.842 133.2 264.84Z" fill="#263238" stroke="#263238" stroke-linecap="round" stroke-linejoin="round"/>
<path d="M117.776 270.989C119.86 268.902 122.649 267.67 125.595 267.532C130.978 267.034 139.933 265.759 142.828 267.748C145.947 270.161 148.928 272.746 151.758 275.491L114.051 274.063L117.776 270.989Z" fill="white" stroke="#263238" stroke-linecap="round" stroke-linejoin="round"/>
<path d="M99.9943 275.989L73.2067 326.159C73.2067 326.159 71.5484 331.146 77.7861 333.634C84.0238 336.121 87.7613 332.358 87.7613 332.358L103.489 308.428L99.9943 275.989Z" fill="#263238" stroke="#263238" stroke-linecap="round" stroke-linejoin="round"/>
<path d="M162.984 274.369C162.984 274.369 197.591 322.638 195.627 328.072C193.663 333.506 190.69 334.973 185.269 334.45C179.848 333.927 164.018 305.379 164.018 305.379L162.984 274.369Z" fill="#263238" stroke="#263238" stroke-linecap="round" stroke-linejoin="round"/>
<path d="M159.999 273.948C159.999 273.948 138.377 271.869 126.323 271.869C114.268 271.869 99.9941 275.989 99.9941 275.989L107.189 352.87H158.748L162.983 274.369L159.999 273.948Z" fill="#263238" stroke="#263238" stroke-linecap="round" stroke-linejoin="round"/>
<path d="M107.189 352.87L103.362 368.496C102.682 371.227 103.022 374.112 104.319 376.609L111.641 390.756H156.351L163.367 377.604C164.286 375.889 164.822 373.994 164.937 372.052C165.051 370.109 164.742 368.165 164.03 366.353L158.749 352.934L107.189 352.87Z" fill="#263238" stroke="#263238" stroke-linecap="round" stroke-linejoin="round"/>
<path d="M139.767 380.843H130.417V416.521H139.767V380.843Z" fill="#263238" stroke="#263238" stroke-linecap="round" stroke-linejoin="round"/>
<path d="M142.153 410.923H128.045V456.054H142.153V410.923Z" fill="#263238" stroke="#263238" stroke-linecap="round" stroke-linejoin="round"/>
<path d="M141.86 454.855L135.316 453.107V452.788L134.729 452.941L134.13 452.788V453.107L127.599 454.855L83.0674 463.171V466.437H134.13H135.316H186.391V463.171L141.86 454.855Z" fill="#263238" stroke="#263238" stroke-linecap="round" stroke-linejoin="round"/>
<path d="M86.9318 471.628C88.6508 471.628 90.0443 470.235 90.0443 468.516C90.0443 466.797 88.6508 465.403 86.9318 465.403C85.2128 465.403 83.8193 466.797 83.8193 468.516C83.8193 470.235 85.2128 471.628 86.9318 471.628Z" fill="#263238" stroke="#263238" stroke-linecap="round" stroke-linejoin="round"/>
<path d="M137.841 468.516C137.841 469.131 137.659 469.733 137.317 470.245C136.975 470.757 136.489 471.156 135.92 471.391C135.351 471.627 134.725 471.689 134.121 471.568C133.518 471.448 132.963 471.152 132.528 470.717C132.093 470.281 131.796 469.727 131.676 469.123C131.556 468.519 131.618 467.893 131.853 467.325C132.089 466.756 132.488 466.27 132.999 465.928C133.511 465.586 134.113 465.403 134.729 465.403C135.554 465.403 136.346 465.731 136.93 466.315C137.513 466.899 137.841 467.69 137.841 468.516Z" fill="#263238" stroke="#263238" stroke-linecap="round" stroke-linejoin="round"/>
<path d="M185.945 468.516C185.947 469.134 185.766 469.74 185.424 470.256C185.082 470.771 184.595 471.174 184.024 471.412C183.454 471.651 182.825 471.714 182.218 471.595C181.611 471.476 181.053 471.18 180.614 470.743C180.176 470.306 179.877 469.75 179.755 469.143C179.634 468.536 179.695 467.907 179.931 467.336C180.167 466.764 180.568 466.275 181.082 465.931C181.596 465.587 182.201 465.403 182.82 465.403C183.646 465.403 184.439 465.731 185.025 466.314C185.611 466.898 185.941 467.689 185.945 468.516Z" fill="#263238" stroke="#263238" stroke-linecap="round" stroke-linejoin="round"/>
<path d="M90.0303 346.631H99.2785V386.723H98.9468C96.5786 386.723 94.3074 385.782 92.6329 384.108C90.9583 382.433 90.0176 380.162 90.0176 377.794V346.631H90.0303Z" fill="#16B99B" stroke="#263238" stroke-linecap="round" stroke-linejoin="round"/>
<path d="M99.2421 338.265H84.7002V345.752H99.2421V338.265Z" fill="#16B99B" stroke="#263238" stroke-linecap="round" stroke-linejoin="round"/>
<path d="M171.288 386.723C172.508 386.733 173.719 386.501 174.849 386.041C175.979 385.581 177.007 384.901 177.873 384.041C178.738 383.181 179.425 382.158 179.893 381.031C180.362 379.904 180.602 378.695 180.6 377.475V346.631H171.288V386.723Z" fill="#16B99B" stroke="#263238" stroke-linecap="round" stroke-linejoin="round"/>
<path d="M171.288 345.765H185.83V338.277H171.288V345.765Z" fill="#16B99B" stroke="#263238" stroke-linecap="round" stroke-linejoin="round"/>
<path d="M163.761 392.132H106.448C104.854 392.134 103.275 391.821 101.802 391.212C100.329 390.603 98.9901 389.71 97.8623 388.584C96.7345 387.457 95.8398 386.119 95.2293 384.646C94.6189 383.174 94.3047 381.595 94.3047 380.001L101.104 294.306C101.104 291.623 102.169 289.05 104.066 287.153C105.963 285.256 108.536 284.19 111.219 284.19H158.978C160.308 284.187 161.626 284.446 162.857 284.953C164.087 285.46 165.205 286.205 166.147 287.144C167.089 288.084 167.836 289.2 168.346 290.429C168.856 291.658 169.119 292.975 169.119 294.306L175.918 380.001C175.918 381.596 175.603 383.176 174.992 384.649C174.381 386.123 173.485 387.461 172.356 388.588C171.227 389.715 169.886 390.608 168.411 391.216C166.937 391.824 165.357 392.135 163.761 392.132Z" fill="#16B99B" stroke="#263238" stroke-linecap="round" stroke-linejoin="round"/>
<path d="M163.761 396.635H106.448C104.854 396.637 103.275 396.324 101.802 395.715C100.329 395.106 98.9901 394.213 97.8623 393.086C96.7345 391.96 95.8398 390.622 95.2293 389.149C94.6189 387.677 94.3047 386.098 94.3047 384.504L101.104 298.809C101.107 296.128 102.174 293.559 104.071 291.664C105.968 289.77 108.539 288.706 111.219 288.706H158.978C161.658 288.706 164.229 289.77 166.126 291.664C168.023 293.559 169.09 296.128 169.093 298.809L175.892 384.504C175.892 387.721 174.614 390.807 172.339 393.082C170.064 395.357 166.979 396.635 163.761 396.635Z" fill="#16B99B" stroke="#263238" stroke-linecap="round" stroke-linejoin="round"/>
<path d="M1.87598 471.566H522.003" stroke="#263238" stroke-linecap="round" stroke-linejoin="round"/>
</svg>
