<svg width="568" height="382" viewBox="0 0 568 382" fill="none" xmlns="http://www.w3.org/2000/svg">
<path d="M124.82 29.0586H24.6279V204.35H124.82V29.0586Z" fill="#FAFAFA"/>
<path d="M55.8404 206.028C55.8404 206.028 44.8531 127.17 39.1115 118.499C39.1115 118.499 71.9382 93.8566 72.9387 27.0586H23.1309V206.028H55.8404Z" fill="#F5F5F5"/>
<path d="M93.5986 205.686C93.5986 205.686 104.568 126.819 110.318 118.157C110.318 118.157 77.5007 93.5058 76.4912 26.7168H126.299V205.686H93.5986Z" fill="#F5F5F5"/>
<path d="M127.451 22.3818H15.3428V210.148H132.102V22.3818H127.451ZM44.7624 119.933V164.586H24.6265V119.933H44.7624ZM24.6265 116.707V70.4952H44.7624V116.707H24.6265ZM75.4169 116.707V70.4952H100.654V116.707H75.4169ZM100.654 119.933V164.586H75.4169V119.933H100.654ZM45.6727 116.707V70.4952H72.1991V116.707H45.6727ZM72.1991 119.933V164.586H45.6637V119.933H72.1991ZM45.6637 69.6659V29.1058H72.1901V69.6659H45.6637ZM72.1901 165.388V204.371H45.6637V165.388H72.1901ZM75.4169 165.388H100.654V204.371H75.4169V165.388ZM75.4169 69.693V29.1058H100.654V69.6659L75.4169 69.693ZM101.502 119.933H122.809V164.586H101.502V119.933ZM101.502 116.707V70.4952H122.809V116.707H101.502ZM122.809 69.6659H101.502V29.1058H122.809V69.6659ZM44.7624 29.1058V69.6659H24.6265V29.1058H44.7624ZM24.6265 165.388H44.7624V204.371H24.6265V165.388ZM101.502 204.371V165.388H122.809V204.371H101.502Z" fill="#EBEBEB"/>
<path d="M465.956 63.7881H161.115V267.959H465.956V63.7881Z" fill="#F5F5F5"/>
<path d="M465.956 63.7881H161.115V84.1853H465.956V63.7881Z" fill="#EBEBEB"/>
<path d="M174.321 73.9803C174.358 74.4752 174.244 74.9696 173.995 75.3989C173.746 75.8283 173.374 76.1727 172.926 76.3873C172.479 76.6019 171.977 76.6768 171.487 76.6021C170.996 76.5274 170.539 76.3067 170.176 75.9687C169.813 75.6306 169.56 75.191 169.45 74.707C169.34 74.2231 169.379 73.7173 169.56 73.2556C169.742 72.7939 170.059 72.3976 170.469 72.1185C170.88 71.8394 171.365 71.6904 171.861 71.6909C172.49 71.669 173.103 71.8977 173.564 72.3269C174.026 72.7561 174.298 73.3507 174.321 73.9803Z" fill="#FAFAFA"/>
<path d="M182.271 73.9803C182.307 74.4752 182.193 74.9696 181.944 75.3989C181.695 75.8283 181.323 76.1727 180.876 76.3873C180.428 76.6019 179.927 76.6768 179.436 76.6021C178.945 76.5274 178.489 76.3067 178.125 75.9687C177.762 75.6306 177.509 75.191 177.399 74.707C177.289 74.2231 177.328 73.7173 177.51 73.2556C177.692 72.7939 178.008 72.3976 178.419 72.1185C178.829 71.8394 179.314 71.6904 179.81 71.6909C180.44 71.669 181.052 71.8977 181.514 72.3269C181.975 72.7561 182.247 73.3507 182.271 73.9803Z" fill="#FAFAFA"/>
<path d="M190.221 73.9803C190.257 74.4752 190.143 74.9696 189.895 75.3989C189.646 75.8283 189.273 76.1727 188.826 76.3873C188.378 76.6019 187.877 76.6768 187.386 76.6021C186.896 76.5274 186.439 76.3067 186.075 75.9687C185.712 75.6306 185.459 75.191 185.349 74.707C185.24 74.2231 185.278 73.7173 185.46 73.2556C185.642 72.7939 185.958 72.3976 186.369 72.1185C186.779 71.8394 187.264 71.6904 187.76 71.6909C188.39 71.669 189.003 71.8977 189.464 72.3269C189.925 72.7561 190.197 73.3507 190.221 73.9803Z" fill="#FAFAFA"/>
<path d="M559.282 104.13H498.036V183.997L559.282 185.539V104.13Z" fill="#EBEBEB"/>
<path d="M555.253 106.979H501.659V179.411L555.253 181.223V106.979Z" fill="#FAFAFA"/>
<path d="M545.869 120.14L510.303 118.788V169.416H545.869V120.14Z" fill="#EBEBEB"/>
<path d="M510.303 169.416L545.869 143.404L510.303 118.788V169.416Z" fill="#F5F5F5"/>
<path d="M552.53 47.9327L518.441 46.8691V91.3231L552.53 92.1793V47.9327Z" fill="#EBEBEB"/>
<path d="M550.287 49.8712L520.462 48.4561V88.7638L550.287 89.7733V49.8712Z" fill="#FAFAFA"/>
<path d="M545.068 55.7764L525.274 55.0283V83.2041H545.068V55.7764Z" fill="#EBEBEB"/>
<path d="M525.274 83.2041L545.068 68.7286L525.274 55.0283V83.2041Z" fill="#F5F5F5"/>
<path d="M318.01 10.2852L314.747 40.5881H356.578L360.048 10.2852H318.01Z" fill="#EBEBEB"/>
<path d="M319.732 12.2754L316.551 38.7927H354.308L357.363 12.2754H319.732Z" fill="#FAFAFA"/>
<path d="M326.088 16.917L324.132 34.5201H347.954L349.18 16.917H326.088Z" fill="#EBEBEB"/>
<path d="M372.597 0L368.217 40.5872H424.262L428.913 0H372.597Z" fill="#EBEBEB"/>
<path d="M374.895 2.66992L370.641 38.1916H421.224L425.316 2.66992H374.895Z" fill="#FAFAFA"/>
<path d="M383.411 8.88867L380.788 32.4586H412.704L414.345 8.88867H383.411Z" fill="#EBEBEB"/>
<path d="M449.83 40.5869H286.616V45.2558H449.83V40.5869Z" fill="#EBEBEB"/>
<path d="M314.541 56.6127L307.394 45.2559H318.011V56.6127H314.541Z" fill="#EBEBEB"/>
<path d="M310.844 45.2559L317.162 56.6127H318.009V45.2559H310.844Z" fill="#E0E0E0"/>
<path d="M408.714 56.6127L401.566 45.2559H412.184V56.6127H408.714Z" fill="#EBEBEB"/>
<path d="M405.018 45.2559L411.336 56.6127H412.183V45.2559H405.018Z" fill="#E0E0E0"/>
<path d="M91.3785 318.155C106.404 308.33 110.216 289.501 110.045 272.502C110.045 269.663 110.406 266.68 109.099 264.156C107.792 261.632 104.646 259.866 102.041 260.992C99.8871 261.939 98.8957 264.363 97.6518 266.4C95.9836 269.073 93.5931 271.22 90.7566 272.592C88.9088 273.494 86.6285 273.998 84.8438 272.971C82.4012 271.565 82.1939 268.176 82.275 265.355L82.7617 249.59C83.0053 246.773 82.783 243.935 82.1038 241.19C81.2836 238.486 79.3998 235.962 76.6957 235.142C73.9917 234.322 70.5937 235.791 69.9538 238.54C69.8182 239.706 69.7639 240.881 69.7915 242.055C69.6833 243.218 69.0975 244.507 67.9888 244.759C66.8802 245.012 65.7175 244.236 64.8792 243.389C62.004 240.469 60.0841 236.755 58.3085 233.06C56.5328 229.364 54.7662 225.597 52.1524 222.424C49.5385 219.251 45.9151 216.701 41.823 216.376C37.731 216.052 33.3144 218.44 32.2328 222.379C31.1512 226.318 33.3505 230.428 35.8382 233.709C39.5233 238.579 43.8917 242.893 48.8084 246.517C49.7697 247.069 50.528 247.916 50.9716 248.932C51.5485 250.825 49.7007 252.646 47.7989 253.223C45.6537 253.872 43.3463 253.601 41.111 253.8C38.8757 253.998 36.4421 254.917 35.5497 256.981C34.3059 259.838 36.6764 262.912 39.0289 264.949C43.7591 269.039 49.155 272.289 54.9825 274.557C57.0646 275.36 59.2549 276.081 60.9133 277.577C62.5718 279.073 63.5362 281.642 62.4636 283.598C61.3911 285.554 58.7501 286.139 56.5509 285.68C54.3516 285.22 52.4228 284.003 50.3407 283.165C46.4469 281.606 41.3273 281.759 38.7765 285.049C37.9809 286.178 37.4613 287.478 37.2593 288.845C37.0574 290.211 37.1788 291.606 37.6138 292.918C38.5141 295.531 39.9301 297.937 41.778 299.993C47.8492 307.539 55.806 313.347 64.8432 316.83C73.8565 320.165 82.3021 321.21 91.4326 318.155" fill="#16B99B"/>
<path d="M36.4062 218.611L36.6767 218.882L37.5059 219.657C38.245 220.324 39.3086 221.315 40.6786 222.622C44.5143 226.313 48.0666 230.287 51.3053 234.511C53.3694 237.215 55.5056 240.189 57.7409 243.47C59.9762 246.751 62.3377 250.266 64.6722 254.061C67.1462 258.009 69.4029 262.089 71.4322 266.283C72.4777 268.464 73.4061 270.745 74.3525 273.07L77.2097 280.137C80.8986 289.08 84.0764 298.225 86.7279 307.528C88.8628 315.129 90.2692 322.915 90.9281 330.783C91.3531 336.091 91.3108 341.426 90.8019 346.727C90.6126 348.602 90.4324 350.053 90.2701 351.036C90.207 351.504 90.1529 351.874 90.1079 352.153C90.1 352.279 90.1 352.406 90.1079 352.532C90.1555 352.414 90.1859 352.289 90.198 352.162L90.4143 351.054C90.6036 350.071 90.8199 348.62 91.0453 346.745C91.6329 341.436 91.7295 336.083 91.3337 330.756C90.7208 322.856 89.3413 315.035 87.2146 307.402C84.584 298.074 81.4119 288.907 77.7145 279.947L74.8573 272.872C73.9109 270.555 72.9735 268.257 71.9099 266.067C69.875 261.855 67.6029 257.763 65.1048 253.809C62.7433 250.014 60.3728 246.499 58.1194 243.218C55.8661 239.937 53.7119 236.908 51.6208 234.286C48.3386 230.066 44.7215 226.117 40.8048 222.478C39.4257 221.189 38.3261 220.216 37.569 219.576L36.6676 218.846C36.5883 218.759 36.5008 218.681 36.4062 218.611Z" fill="#263238"/>
<path d="M71.7466 266.038C71.8937 265.652 71.9965 265.249 72.0531 264.84C72.2243 264.064 72.4316 262.938 72.666 261.541C73.1347 258.738 73.6575 254.853 74.2163 250.562C74.7751 246.272 75.3429 242.405 75.8567 239.62C76.1091 238.223 76.3254 237.105 76.4877 236.321C76.5949 235.924 76.6584 235.516 76.6769 235.104C76.5034 235.479 76.3734 235.872 76.2894 236.276C76.073 237.042 75.7936 238.16 75.4962 239.548C74.8833 242.324 74.2523 246.2 73.6935 250.49C73.1347 254.781 72.666 258.557 72.2964 261.478C72.1162 262.803 71.972 263.911 71.8548 264.804C71.7702 265.209 71.7339 265.624 71.7466 266.038Z" fill="#263238"/>
<path d="M35.1621 258.385C35.6415 258.499 36.1303 258.568 36.6223 258.593C37.5236 258.701 38.9297 258.845 40.6062 259.071C43.9592 259.512 48.583 260.278 53.6305 261.342C58.678 262.405 63.2207 263.586 66.4745 264.524C68.106 264.974 69.4129 265.38 70.3232 265.659C70.7838 265.834 71.261 265.961 71.7474 266.038C71.3112 265.807 70.8558 265.614 70.3863 265.461C69.485 265.127 68.2051 264.668 66.5827 264.163C63.3469 263.136 58.8132 261.91 53.7387 260.828C48.6641 259.747 44.0313 259.025 40.6512 258.701C38.9657 258.521 37.5867 258.431 36.6403 258.385C36.1487 258.339 35.6537 258.339 35.1621 258.385Z" fill="#263238"/>
<path d="M86.7646 306.716C86.8736 306.583 86.9617 306.434 87.026 306.274L87.684 304.976C88.2609 303.85 89.036 302.2 89.9734 300.136C91.8482 296.026 94.2548 290.267 96.8236 283.912C99.3924 277.558 101.745 271.744 103.539 267.598C104.44 265.579 105.125 263.921 105.666 262.695L106.234 261.352C106.307 261.199 106.364 261.039 106.405 260.874C106.296 261.005 106.205 261.151 106.134 261.307C105.963 261.658 105.738 262.091 105.476 262.605C104.909 263.731 104.133 265.39 103.196 267.445C101.321 271.555 98.9147 277.359 96.3368 283.714C93.759 290.068 91.4155 295.882 89.6309 300.028L87.5038 304.913L86.9359 306.247C86.8574 306.395 86.7997 306.553 86.7646 306.716Z" fill="#263238"/>
<path d="M38.3154 290.026C38.4638 290.118 38.6247 290.188 38.7931 290.234L40.1992 290.738L45.3909 292.541C49.7714 294.064 55.7923 296.228 62.4442 298.634C69.0961 301.041 75.153 303.141 79.5696 304.574C81.7779 305.295 83.5715 305.854 84.8154 306.214L86.2485 306.629C86.4152 306.684 86.5875 306.72 86.7623 306.737C86.6133 306.644 86.4526 306.572 86.2846 306.521L84.8785 306.025L79.6868 304.222C75.3063 302.708 69.2853 300.545 62.6245 298.138C55.9636 295.732 49.9246 293.632 45.4991 292.19C43.2908 291.478 41.4971 290.919 40.2533 290.549L38.8202 290.144C38.6582 290.081 38.4883 290.042 38.3154 290.026Z" fill="#263238"/>
<path d="M500.556 352.296C500.556 352.431 399.48 352.53 274.816 352.53C150.153 352.53 49.0586 352.431 49.0586 352.296C49.0586 352.161 150.116 352.062 274.816 352.062C399.516 352.062 500.556 352.17 500.556 352.296Z" fill="#263238"/>
<path d="M417.304 81.1455H110.462C109.204 81.1455 107.959 81.3934 106.797 81.875C105.635 82.3566 104.579 83.0625 103.69 83.9523C102.801 84.8421 102.096 85.8984 101.616 87.0608C101.135 88.2232 100.888 89.4689 100.89 90.7267V307.453C100.888 308.711 101.135 309.957 101.616 311.119C102.096 312.281 102.801 313.338 103.69 314.227C104.579 315.117 105.635 315.823 106.797 316.305C107.959 316.786 109.204 317.034 110.462 317.034H228.23C228.23 317.034 235.721 340.199 212.493 352.186H322.609C322.609 352.186 296.399 343.173 303.141 317.034H417.304C419.845 317.034 422.282 316.025 424.079 314.228C425.876 312.431 426.885 309.994 426.885 307.453V90.7267C426.885 88.1856 425.876 85.7486 424.079 83.9518C422.282 82.1549 419.845 81.1455 417.304 81.1455Z" fill="#263238"/>
<path d="M268.304 294.159C272.477 300.126 265.942 306.66 259.975 302.487C259.776 302.347 259.602 302.173 259.461 301.973C255.297 296.007 261.823 289.481 267.79 293.645C267.989 293.786 268.163 293.96 268.304 294.159Z" fill="#455A64"/>
<path d="M416.689 92.0977H111.073C109.446 92.0977 108.126 93.4172 108.126 95.045V273.924C108.126 275.552 109.446 276.872 111.073 276.872H416.689C418.317 276.872 419.637 275.552 419.637 273.924V95.045C419.637 93.4172 418.317 92.0977 416.689 92.0977Z" fill="#E0E0E0"/>
<path d="M419.637 105.636H108.126V276.872H419.637V105.636Z" fill="#FAFAFA"/>
<path d="M133.679 99.227C133.679 99.719 133.534 100.2 133.26 100.609C132.987 101.018 132.598 101.337 132.144 101.525C131.689 101.714 131.189 101.763 130.706 101.667C130.224 101.571 129.781 101.334 129.433 100.986C129.085 100.638 128.848 100.195 128.752 99.7123C128.656 99.2297 128.705 98.7295 128.893 98.275C129.082 97.8204 129.401 97.4319 129.81 97.1585C130.219 96.8852 130.7 96.7393 131.192 96.7393C131.852 96.7393 132.484 97.0014 132.951 97.4679C133.417 97.9344 133.679 98.5672 133.679 99.227Z" fill="#16B99B"/>
<path d="M118.602 99.227C118.602 99.719 118.456 100.2 118.183 100.609C117.91 101.018 117.521 101.337 117.067 101.525C116.612 101.714 116.112 101.763 115.629 101.667C115.147 101.571 114.703 101.334 114.356 100.986C114.008 100.638 113.771 100.195 113.675 99.7123C113.579 99.2297 113.628 98.7295 113.816 98.275C114.005 97.8204 114.323 97.4319 114.733 97.1585C115.142 96.8852 115.623 96.7393 116.115 96.7393C116.774 96.7393 117.407 97.0014 117.874 97.4679C118.34 97.9344 118.602 98.5672 118.602 99.227Z" fill="#16B99B"/>
<path d="M125.84 99.227C125.84 99.719 125.694 100.2 125.42 100.609C125.147 101.018 124.759 101.337 124.304 101.525C123.849 101.714 123.349 101.763 122.867 101.667C122.384 101.571 121.941 101.334 121.593 100.986C121.245 100.638 121.008 100.195 120.912 99.7123C120.816 99.2297 120.865 98.7295 121.054 98.275C121.242 97.8204 121.561 97.4319 121.97 97.1585C122.379 96.8852 122.86 96.7393 123.352 96.7393C124.012 96.7393 124.644 97.0014 125.111 97.4679C125.578 97.9344 125.84 98.5672 125.84 99.227Z" fill="#16B99B"/>
<path d="M261.618 185.366C261.618 185.501 250.207 185.618 236.137 185.618C222.067 185.618 210.647 185.501 210.647 185.366C210.647 185.23 222.058 185.113 236.137 185.113C250.216 185.113 261.618 185.221 261.618 185.366Z" fill="#455A64"/>
<path d="M261.618 192.191C261.618 192.326 250.207 192.443 236.137 192.443C222.067 192.443 210.647 192.326 210.647 192.191C210.647 192.056 222.058 191.93 236.137 191.93C250.216 191.93 261.618 192.047 261.618 192.191Z" fill="#455A64"/>
<path d="M241.194 199.004C241.194 199.149 234.362 199.266 225.925 199.266C217.489 199.266 210.647 199.149 210.647 199.004C210.647 198.86 217.489 198.752 225.925 198.752C234.362 198.752 241.194 198.869 241.194 199.004Z" fill="#455A64"/>
<path d="M234.884 115.655H210.647V118.729H234.884V115.655Z" fill="#455A64"/>
<path d="M263.907 125.564H210.647V177.094H263.907V125.564Z" fill="#E0E0E0"/>
<path d="M214.773 172.676L229.51 146.159L241.561 163.113L248.88 154.109L259.777 172.676H214.773Z" fill="#16B99B"/>
<path d="M242.858 144.834C244.974 144.834 246.689 143.119 246.689 141.004C246.689 138.888 244.974 137.173 242.858 137.173C240.742 137.173 239.027 138.888 239.027 141.004C239.027 143.119 240.742 144.834 242.858 144.834Z" fill="#16B99B"/>
<path d="M259.779 172.822C259.769 172.754 259.769 172.684 259.779 172.615C259.779 172.453 259.779 172.264 259.779 172.011C259.779 171.461 259.779 170.686 259.779 169.695C259.779 167.649 259.779 164.692 259.724 160.943C259.724 153.417 259.661 142.7 259.616 129.829L259.833 130.045H214.838C214.775 130.099 215.307 129.567 215.081 129.802V141.357C215.081 145.142 215.081 148.856 215.081 152.461C215.081 159.672 215.081 166.504 215.081 172.777L214.856 172.552L247.394 172.669L256.57 172.723H259.003H259.634H259.03H256.633L247.511 172.777L214.829 172.894H214.613V172.669C214.613 166.36 214.613 159.573 214.613 152.353C214.613 148.748 214.613 145.034 214.613 141.249V129.847C214.387 130.063 214.919 129.522 214.874 129.585H259.869H260.085V129.802C260.04 142.727 260.004 153.489 259.977 161.051C259.977 164.782 259.932 167.721 259.914 169.758C259.914 170.731 259.914 171.488 259.914 172.029C259.914 172.273 259.914 172.462 259.914 172.606C259.875 172.682 259.83 172.754 259.779 172.822Z" fill="#455A64"/>
<path d="M326.547 185.366C326.547 185.501 315.136 185.618 301.057 185.618C286.978 185.618 275.576 185.501 275.576 185.366C275.576 185.23 286.978 185.113 301.057 185.113C315.136 185.113 326.547 185.221 326.547 185.366Z" fill="#455A64"/>
<path d="M326.547 192.191C326.547 192.326 315.136 192.443 301.057 192.443C286.978 192.443 275.576 192.326 275.576 192.191C275.576 192.056 286.978 191.93 301.057 191.93C315.136 191.93 326.547 192.047 326.547 192.191Z" fill="#455A64"/>
<path d="M306.125 199.004C306.125 199.149 299.284 199.266 290.847 199.266C282.411 199.266 275.597 199.149 275.597 199.004C275.597 198.86 282.429 198.752 290.865 198.752C299.302 198.752 306.125 198.869 306.125 199.004Z" fill="#455A64"/>
<path d="M299.813 115.655H275.576V118.729H299.813V115.655Z" fill="#455A64"/>
<path d="M328.836 125.564H275.576V177.094H328.836V125.564Z" fill="#E0E0E0"/>
<path d="M279.706 172.676L294.434 146.159L306.485 163.113L313.813 154.109L324.701 172.676H279.706Z" fill="#16B99B"/>
<path d="M311.651 141.004C311.653 141.764 311.429 142.507 311.008 143.14C310.586 143.773 309.987 144.266 309.285 144.558C308.583 144.85 307.81 144.927 307.064 144.779C306.319 144.631 305.634 144.265 305.096 143.728C304.559 143.19 304.193 142.505 304.045 141.759C303.897 141.014 303.974 140.241 304.266 139.539C304.557 138.837 305.051 138.237 305.684 137.816C306.317 137.395 307.06 137.171 307.82 137.173C308.836 137.173 309.811 137.576 310.529 138.295C311.247 139.013 311.651 139.988 311.651 141.004Z" fill="#16B99B"/>
<path d="M324.698 172.822C324.698 172.822 324.698 172.75 324.698 172.615C324.698 172.48 324.698 172.264 324.698 172.011C324.698 171.461 324.698 170.686 324.698 169.695C324.698 167.649 324.698 164.692 324.644 160.943C324.644 153.417 324.572 142.7 324.527 129.829L324.743 130.045H279.748C279.685 130.099 280.226 129.567 280.001 129.802V141.357C280.001 145.142 280.001 148.856 280.001 152.461C280.001 159.672 280.001 166.504 280.001 172.777L279.784 172.552L312.322 172.669L321.498 172.723H323.932H324.563H323.95H321.561L312.431 172.777L279.757 172.894H279.532V172.669C279.532 166.36 279.532 159.573 279.532 152.353V129.847C279.298 130.063 279.838 129.522 279.784 129.585H324.779H325.004V129.802C324.95 142.727 324.914 153.489 324.887 161.051C324.887 164.782 324.842 167.721 324.833 169.758C324.833 170.731 324.833 171.488 324.833 172.029C324.833 172.273 324.833 172.462 324.833 172.606C324.8 172.685 324.755 172.758 324.698 172.822Z" fill="#455A64"/>
<path d="M236.586 208.512H212.349V211.585H236.586V208.512Z" fill="#455A64"/>
<path d="M265.609 218.408H212.349V269.938H265.609V218.408Z" fill="#E0E0E0"/>
<path d="M216.478 265.533L231.214 239.016L243.265 255.961L250.584 246.965L261.481 265.533H216.478Z" fill="#16B99B"/>
<path d="M248.404 233.857C248.404 234.617 248.179 235.359 247.757 235.991C247.335 236.622 246.735 237.114 246.034 237.405C245.332 237.695 244.56 237.771 243.815 237.623C243.07 237.475 242.386 237.109 241.849 236.572C241.312 236.035 240.947 235.351 240.798 234.606C240.65 233.862 240.726 233.089 241.017 232.388C241.308 231.686 241.8 231.087 242.431 230.665C243.063 230.243 243.805 230.018 244.564 230.018C245.069 230.016 245.569 230.115 246.035 230.307C246.501 230.5 246.925 230.783 247.282 231.14C247.639 231.496 247.922 231.92 248.114 232.386C248.307 232.853 248.405 233.353 248.404 233.857Z" fill="#16B99B"/>
<path d="M261.481 265.674C261.481 265.674 261.481 265.593 261.481 265.458C261.481 265.323 261.481 265.106 261.481 264.854C261.481 264.313 261.481 263.538 261.481 262.537C261.481 260.5 261.481 257.544 261.418 253.785C261.418 246.259 261.355 235.542 261.309 222.68L261.526 222.897H216.531L216.783 222.644V225.592C216.783 226.565 216.783 227.539 216.783 228.503V245.349C216.783 252.56 216.783 259.383 216.783 265.665L216.558 265.44L249.096 265.557L258.272 265.611H260.715H261.346C261.417 265.604 261.49 265.604 261.562 265.611H260.76H258.371L249.241 265.674L216.558 265.782H216.342V265.566C216.342 259.257 216.342 252.46 216.342 245.25C216.342 241.644 216.342 237.943 216.342 234.145V222.68L216.603 222.419H261.598H261.814V222.644C261.769 235.569 261.733 246.331 261.706 253.894C261.706 257.625 261.706 260.563 261.652 262.591C261.652 263.574 261.652 264.331 261.652 264.872C261.652 265.106 261.652 265.296 261.652 265.449C261.614 265.536 261.555 265.614 261.481 265.674Z" fill="#455A64"/>
<path d="M301.565 208.512H277.328V211.585H301.565V208.512Z" fill="#455A64"/>
<path d="M330.588 218.408H277.328V269.938H330.588V218.408Z" fill="#E0E0E0"/>
<path d="M281.456 265.533L296.193 239.016L308.244 255.961L315.563 246.965L326.46 265.533H281.456Z" fill="#16B99B"/>
<path d="M313.373 233.857C313.371 234.615 313.145 235.354 312.723 235.983C312.301 236.612 311.702 237.101 311.002 237.39C310.302 237.678 309.532 237.753 308.79 237.604C308.047 237.455 307.366 237.09 306.831 236.554C306.296 236.018 305.932 235.335 305.785 234.592C305.638 233.849 305.714 233.08 306.004 232.38C306.295 231.681 306.786 231.083 307.415 230.663C308.045 230.242 308.785 230.018 309.543 230.018C310.046 230.018 310.545 230.117 311.011 230.31C311.476 230.503 311.899 230.786 312.254 231.143C312.61 231.499 312.892 231.923 313.084 232.389C313.276 232.854 313.374 233.353 313.373 233.857Z" fill="#16B99B"/>
<path d="M326.457 265.674C326.45 265.602 326.45 265.53 326.457 265.458C326.457 265.305 326.457 265.106 326.457 264.854C326.457 264.313 326.457 263.538 326.457 262.537C326.457 260.5 326.457 257.544 326.402 253.785C326.402 246.259 326.339 235.542 326.294 222.68L326.511 222.897H281.507L281.759 222.644V234.217C281.759 238.003 281.759 241.705 281.759 245.322C281.759 252.533 281.759 259.356 281.759 265.638L281.534 265.413L314.072 265.53L323.248 265.584H325.681H326.312H326.538H325.735H323.338L314.216 265.647L281.534 265.755H281.309V265.539C281.309 259.23 281.309 252.433 281.309 245.223C281.309 241.617 281.309 237.916 281.309 234.118V222.68L281.561 222.419H326.565H326.781V222.644C326.736 235.569 326.7 246.331 326.673 253.894C326.673 257.625 326.628 260.563 326.61 262.591C326.61 263.574 326.61 264.331 326.61 264.872C326.61 265.106 326.61 265.296 326.61 265.449C326.566 265.528 326.514 265.604 326.457 265.674Z" fill="#455A64"/>
<path d="M368.604 208.512H344.367V211.585H368.604V208.512Z" fill="#455A64"/>
<path d="M397.627 218.408H344.367V269.938H397.627V218.408Z" fill="#E0E0E0"/>
<path d="M348.495 265.533L363.232 239.016L375.283 255.961L382.602 246.965L393.499 265.533H348.495Z" fill="#16B99B"/>
<path d="M380.42 233.857C380.42 234.617 380.194 235.359 379.773 235.991C379.351 236.622 378.751 237.114 378.049 237.405C377.348 237.695 376.576 237.771 375.831 237.623C375.086 237.475 374.402 237.109 373.865 236.572C373.328 236.035 372.962 235.351 372.814 234.606C372.666 233.862 372.742 233.089 373.033 232.388C373.323 231.686 373.815 231.087 374.447 230.665C375.078 230.243 375.821 230.018 376.58 230.018C377.085 230.016 377.584 230.115 378.051 230.307C378.517 230.5 378.941 230.783 379.298 231.14C379.654 231.496 379.937 231.92 380.13 232.386C380.322 232.853 380.421 233.353 380.42 233.857Z" fill="#16B99B"/>
<path d="M393.501 265.674C393.501 265.674 393.501 265.593 393.501 265.458C393.501 265.323 393.501 265.106 393.501 264.854C393.501 264.313 393.501 263.538 393.501 262.537C393.501 260.5 393.501 257.544 393.438 253.785C393.438 246.259 393.375 235.542 393.33 222.68L393.546 222.897H348.552L348.804 222.644V245.322C348.804 252.533 348.804 259.356 348.804 265.638L348.579 265.413L381.117 265.53L390.292 265.584H392.735H393.357C393.432 265.577 393.507 265.577 393.582 265.584H392.78H390.392L381.261 265.647L348.579 265.755H348.362V265.539C348.362 259.23 348.362 252.433 348.362 245.223C348.362 241.617 348.362 237.916 348.362 234.118V222.68L348.624 222.419H393.618H393.835V222.644C393.79 235.569 393.754 246.331 393.727 253.894C393.727 257.625 393.681 260.563 393.672 262.591C393.672 263.574 393.672 264.331 393.672 264.872C393.672 265.106 393.672 265.296 393.672 265.449C393.634 265.536 393.575 265.614 393.501 265.674Z" fill="#455A64"/>
<path d="M392.644 177.083C394.58 176.834 396.534 176.75 398.484 176.831L398.232 177.083V176.507C398.232 176.308 398.232 176.119 398.232 175.93C398.232 175.551 398.232 175.191 398.232 174.83C398.232 174.19 398.232 173.568 398.286 172.973C398.259 172.397 398.319 171.819 398.466 171.261C398.601 171.821 398.659 172.397 398.637 172.973C398.637 173.568 398.637 174.19 398.692 174.83C398.692 175.191 398.692 175.551 398.692 175.93V177.083L398.43 177.345C396.497 177.428 394.561 177.341 392.644 177.083Z" fill="#455A64"/>
<path d="M366.079 177.081C370.501 176.745 374.943 176.745 379.365 177.081C374.943 177.43 370.501 177.43 366.079 177.081Z" fill="#455A64"/>
<path d="M346.954 171.244C347.208 173.18 347.293 175.134 347.206 177.085L346.954 176.832H349.234L351.091 176.887C351.667 176.871 352.243 176.932 352.803 177.067C352.245 177.213 351.667 177.273 351.091 177.247L349.234 177.301H348.134H346.954L346.701 177.04C346.623 175.104 346.707 173.166 346.954 171.244Z" fill="#455A64"/>
<path d="M346.955 144.68C347.21 146.884 347.294 149.105 347.208 151.323C347.294 153.537 347.21 155.755 346.955 157.956C346.706 155.754 346.621 153.537 346.703 151.323C346.622 149.105 346.706 146.885 346.955 144.68Z" fill="#455A64"/>
<path d="M352.806 125.548C350.867 125.802 348.91 125.886 346.957 125.8L347.209 125.548V126.71C347.209 127.08 347.209 127.449 347.209 127.81C347.209 128.45 347.209 129.063 347.155 129.667C347.181 130.243 347.12 130.821 346.975 131.379C346.829 130.821 346.768 130.243 346.794 129.667C346.794 129.063 346.794 128.45 346.74 127.81C346.74 127.449 346.74 127.08 346.74 126.71C346.74 126.521 346.74 126.323 346.74 126.124V125.548L346.993 125.295C348.934 125.216 350.879 125.301 352.806 125.548Z" fill="#455A64"/>
<path d="M379.365 125.547C374.943 125.884 370.501 125.884 366.079 125.547C370.501 125.211 374.943 125.211 379.365 125.547Z" fill="#455A64"/>
<path d="M398.492 131.405C398.232 129.467 398.144 127.509 398.231 125.555C398.745 126.06 398.375 125.699 398.483 125.808H397.275H396.176L394.319 125.753C393.742 125.78 393.165 125.719 392.606 125.573C393.165 125.427 393.742 125.367 394.319 125.393L396.176 125.339H398.447L398.708 125.591C398.799 127.532 398.727 129.476 398.492 131.405Z" fill="#455A64"/>
<path d="M398.491 157.994C398.23 155.793 398.143 153.575 398.23 151.361C398.143 149.143 398.231 146.922 398.491 144.718C398.74 146.923 398.825 149.143 398.744 151.361C398.825 153.575 398.741 155.793 398.491 157.994Z" fill="#455A64"/>
<path d="M397.745 185.296C397.745 185.432 386.325 185.549 372.255 185.549C358.186 185.549 346.766 185.432 346.766 185.296C346.766 185.161 358.177 185.044 372.255 185.044C386.334 185.044 397.745 185.152 397.745 185.296Z" fill="#455A64"/>
<path d="M397.745 192.119C397.745 192.254 386.325 192.371 372.255 192.371C358.186 192.371 346.802 192.245 346.802 192.119C346.802 191.993 358.213 191.857 372.292 191.857C386.37 191.857 397.745 191.975 397.745 192.119Z" fill="#455A64"/>
<path d="M371.003 115.587H346.766V118.66H371.003V115.587Z" fill="#455A64"/>
<path d="M185.867 155.687C185.867 160.856 184.334 165.91 181.462 170.209C178.59 174.507 174.508 177.857 169.731 179.836C164.955 181.814 159.7 182.332 154.629 181.323C149.559 180.315 144.901 177.825 141.246 174.169C137.59 170.514 135.101 165.856 134.092 160.786C133.084 155.716 133.601 150.46 135.58 145.684C137.558 140.908 140.908 136.825 145.207 133.953C149.505 131.081 154.559 129.548 159.729 129.548C166.661 129.548 173.31 132.302 178.212 137.204C183.113 142.106 185.867 148.754 185.867 155.687Z" fill="#E0E0E0"/>
<path d="M191.033 212.614C191.033 212.749 177.621 212.866 161.082 212.866C144.542 212.866 131.121 212.749 131.121 212.614C131.121 212.479 144.533 212.353 161.082 212.353C177.63 212.353 191.033 212.47 191.033 212.614Z" fill="#455A64"/>
<path d="M191.033 219.286C191.033 219.43 177.621 219.538 161.082 219.538C144.542 219.538 131.121 219.43 131.121 219.286C131.121 219.141 144.533 219.033 161.082 219.033C177.63 219.033 191.033 219.096 191.033 219.286Z" fill="#455A64"/>
<path d="M191.033 225.864C191.033 226.008 177.621 226.117 161.082 226.117C144.542 226.117 131.121 226.008 131.121 225.864C131.121 225.72 144.533 225.594 161.127 225.594C177.72 225.594 191.033 225.729 191.033 225.864Z" fill="#455A64"/>
<path d="M165.544 232.631C165.544 232.775 157.766 232.884 148.176 232.884C138.585 232.884 130.798 232.775 130.798 232.631C130.798 232.487 138.576 232.379 148.176 232.379C157.775 232.379 165.544 232.496 165.544 232.631Z" fill="#455A64"/>
<path d="M131.12 202.105H172.401V199.086H131.12V202.105Z" fill="#455A64"/>
<path d="M143.379 175.631C147.979 179.614 153.861 181.806 159.945 181.806C166.03 181.806 171.912 179.614 176.512 175.631C175.124 170.908 171.753 165.301 163.56 164.058C165.397 163.248 166.956 161.917 168.044 160.23C169.132 158.543 169.7 156.574 169.68 154.567C169.68 148.888 165.408 144.273 160.09 144.246C154.772 144.219 150.445 148.807 150.418 154.476C150.381 156.502 150.944 158.494 152.036 160.2C153.128 161.907 154.701 163.252 156.556 164.067C148.228 165.301 144.794 170.935 143.379 175.631Z" fill="#16B99B"/>
<path d="M154.267 242.98H131.121V245.802H154.267V242.98Z" fill="#16B99B"/>
<path d="M477.622 145.07L481.57 158.311C481.781 158.905 481.899 159.528 481.922 160.159C481.922 162.024 480.119 163.494 478.316 163.836C476.455 164.038 474.573 163.816 472.809 163.187C472.323 165.089 470.105 165.891 468.167 166.252C459.535 167.858 450.616 166.746 442.642 163.07C446.045 158.197 448.811 152.908 450.871 147.333L471.007 148.234C472.193 148.363 473.392 148.262 474.54 147.937C475.111 147.764 475.62 147.432 476.01 146.98C476.399 146.529 476.652 145.976 476.739 145.386" fill="#16B99B"/>
<path d="M454.545 170.929C454.797 169.451 454.193 163.232 454.193 163.232C454.193 163.232 448.524 162.628 448.182 157.004C447.839 151.379 448.182 138.4 448.182 138.4L458.511 133.353L469.886 141.96L468.164 170.091L455.861 181.069L454.545 170.929Z" fill="#FFBE9D"/>
<path d="M449.309 147.856C449.307 147.999 449.348 148.139 449.426 148.259C449.504 148.378 449.616 148.472 449.747 148.528C449.879 148.584 450.024 148.6 450.165 148.573C450.305 148.546 450.435 148.478 450.536 148.378C450.638 148.277 450.708 148.149 450.736 148.009C450.765 147.869 450.751 147.723 450.697 147.591C450.642 147.459 450.55 147.345 450.431 147.266C450.312 147.186 450.173 147.144 450.03 147.144C449.935 147.142 449.842 147.16 449.754 147.195C449.667 147.23 449.587 147.283 449.52 147.349C449.453 147.415 449.4 147.494 449.364 147.581C449.327 147.668 449.309 147.761 449.309 147.856Z" fill="#263238"/>
<path d="M448.653 147.073C448.752 147.172 449.284 146.721 450.059 146.676C450.834 146.631 451.411 147.01 451.492 146.901C451.573 146.793 451.438 146.685 451.186 146.514C450.842 146.287 450.434 146.18 450.023 146.207C449.615 146.228 449.225 146.383 448.914 146.649C448.653 146.856 448.563 147.037 448.653 147.073Z" fill="#263238"/>
<path d="M457.665 147.856C457.663 147.999 457.704 148.14 457.783 148.26C457.861 148.38 457.974 148.473 458.106 148.529C458.238 148.585 458.384 148.6 458.525 148.572C458.665 148.545 458.795 148.476 458.896 148.374C458.997 148.273 459.066 148.144 459.094 148.003C459.121 147.862 459.106 147.717 459.051 147.585C458.995 147.452 458.901 147.34 458.781 147.261C458.661 147.183 458.52 147.142 458.377 147.144C458.188 147.144 458.007 147.219 457.874 147.352C457.74 147.486 457.665 147.667 457.665 147.856Z" fill="#263238"/>
<path d="M457.207 147.072C457.297 147.171 457.829 146.72 458.604 146.675C459.379 146.63 459.965 147.008 460.046 146.9C460.127 146.792 459.992 146.684 459.731 146.513C459.389 146.29 458.985 146.182 458.577 146.207C458.17 146.231 457.781 146.386 457.468 146.648C457.234 146.855 457.162 147.036 457.207 147.072Z" fill="#263238"/>
<path d="M456.971 154.391C455.787 154.995 454.526 155.432 453.222 155.689C453.509 156.076 453.917 156.358 454.382 156.49C454.847 156.622 455.342 156.597 455.79 156.419C456.004 156.369 456.206 156.276 456.383 156.145C456.559 156.014 456.708 155.849 456.818 155.659C456.929 155.469 456.999 155.259 457.026 155.041C457.052 154.823 457.033 154.601 456.971 154.391Z" fill="#FAFAFA"/>
<path d="M454.195 163.232C456.869 163.121 459.455 162.249 461.649 160.717C461.649 160.717 459.964 164.845 454.321 164.611L454.195 163.232Z" fill="#EB996E"/>
<path d="M486.255 158.14C485.548 158.167 484.846 158.008 484.218 157.68C483.292 157.176 482.522 156.428 481.992 155.517C481.335 154.382 480.78 153.19 480.334 151.957C479.279 149.343 478.531 146.909 477.945 145.143C477.864 144.863 477.783 144.611 477.711 144.367C477.677 144.107 477.629 143.848 477.566 143.592C474.493 131.875 464.182 129.676 462.144 129.676C459.954 129.676 456.124 128.468 450.544 134.272C449.7 135.138 448.986 136.121 448.426 137.193C447.196 138.741 446.347 140.556 445.947 142.493C445.703 143.401 445.66 144.351 445.821 145.278C445.929 145.278 445.947 144.223 446.38 142.574C446.639 141.615 447.002 140.687 447.462 139.807C446.976 141.974 447.175 144.238 448.03 146.287L450.031 145.728L457.241 143.295C456.583 141.077 457.548 138.319 458.088 136.985H458.143C459.783 145.404 469.058 146.287 469.058 146.287L468.598 162.268C478.125 160.231 478.251 149.829 478.188 147.243C478.621 148.703 479.18 150.379 479.883 152.137C480.354 153.39 480.939 154.597 481.631 155.742C482.217 156.714 483.076 157.492 484.101 157.978C484.791 158.305 485.563 158.418 486.318 158.302C486.598 158.276 486.865 158.177 487.094 158.014C486.812 158.037 486.532 158.08 486.255 158.14Z" fill="#16B99B"/>
<path d="M454.414 153.625C454.003 153.53 453.583 153.485 453.161 153.489C452.963 153.489 452.765 153.489 452.729 153.309C452.701 153.093 452.739 152.873 452.837 152.678C453.008 152.173 453.179 151.642 453.369 151.074C453.738 149.929 454.054 148.893 454.27 148.135C454.419 147.735 454.513 147.317 454.549 146.892C454.338 147.266 454.175 147.666 454.063 148.081C453.792 148.82 453.441 149.884 453.071 151.002L452.558 152.615C452.446 152.87 452.42 153.155 452.485 153.426C452.517 153.494 452.564 153.555 452.621 153.603C452.679 153.651 452.746 153.686 452.819 153.706C452.93 153.718 453.042 153.718 453.152 153.706C453.575 153.729 453.998 153.702 454.414 153.625Z" fill="#263238"/>
<path d="M467.492 149.045C465.743 148.703 464.265 148.459 463.76 148.423C463.827 148.127 463.863 147.825 463.868 147.522C463.86 146.548 463.545 145.602 462.967 144.818C462.435 144.088 461.693 143.537 460.84 143.241C460.074 142.968 459.249 142.906 458.451 143.06C457.756 143.201 457.106 143.51 456.558 143.962C455.753 144.584 455.189 145.466 454.963 146.458C454.899 146.724 454.866 146.996 454.864 147.27C454.849 147.362 454.849 147.456 454.864 147.549C454.864 147.549 454.864 147.161 455.062 146.494C455.323 145.55 455.89 144.719 456.676 144.133C457.206 143.733 457.824 143.464 458.478 143.349C459.318 143.197 460.183 143.299 460.964 143.643C461.744 143.988 462.404 144.558 462.858 145.28C463.312 146.002 463.539 146.844 463.51 147.696C463.481 148.549 463.198 149.373 462.697 150.064C462.201 150.75 461.51 151.272 460.714 151.56C459.999 151.824 459.228 151.892 458.478 151.758C457.823 151.64 457.205 151.368 456.676 150.965C455.889 150.384 455.321 149.555 455.062 148.612C454.988 148.347 454.937 148.076 454.909 147.801C455.044 147.801 455.134 147.729 455.134 147.693C455.134 147.657 455.026 147.603 454.873 147.576C454.693 147.56 454.512 147.56 454.332 147.576C454.114 147.575 453.896 147.599 453.683 147.648V147.594C453.679 146.62 453.363 145.672 452.782 144.89C452.252 144.162 451.513 143.612 450.664 143.313C449.895 143.04 449.067 142.978 448.266 143.132C447.425 143.302 446.65 143.709 446.032 144.305C445.414 144.9 444.979 145.66 444.778 146.494C444.714 146.76 444.681 147.032 444.679 147.306C444.664 147.398 444.664 147.492 444.679 147.585C444.679 147.585 444.679 147.197 444.877 146.53C445.137 145.586 445.705 144.755 446.491 144.169C447.021 143.769 447.639 143.5 448.293 143.385C448.909 143.273 449.541 143.297 450.147 143.456C450.752 143.615 451.314 143.906 451.795 144.306C452.276 144.707 452.662 145.208 452.928 145.775C453.193 146.341 453.331 146.959 453.332 147.585C453.331 148.459 453.063 149.311 452.563 150.028C452.064 150.745 451.357 151.292 450.538 151.596C449.82 151.86 449.046 151.928 448.293 151.794C447.638 151.676 447.02 151.404 446.491 151.001C445.704 150.42 445.136 149.591 444.877 148.649C444.697 147.982 444.715 147.585 444.679 147.585C444.665 147.681 444.665 147.778 444.679 147.873C444.681 148.144 444.714 148.413 444.778 148.676C445.003 149.671 445.567 150.556 446.373 151.181C446.925 151.626 447.573 151.935 448.266 152.083C449.067 152.237 449.895 152.175 450.664 151.902C451.511 151.6 452.249 151.051 452.782 150.325C453.319 149.605 453.632 148.743 453.683 147.846C453.901 147.9 454.126 147.925 454.35 147.918C454.524 147.93 454.699 147.93 454.873 147.918C454.875 148.189 454.908 148.458 454.972 148.721C455.166 149.559 455.599 150.324 456.218 150.922C456.837 151.52 457.616 151.926 458.46 152.092C459.258 152.246 460.083 152.184 460.849 151.911C461.7 151.61 462.441 151.061 462.976 150.334C463.347 149.83 463.605 149.252 463.733 148.64C464.211 148.793 465.671 149.135 467.438 149.478C468.73 149.782 470.044 149.99 471.367 150.1C470.107 149.64 468.811 149.287 467.492 149.045Z" fill="#263238"/>
<path d="M470.484 153.388C470.395 152.451 470.499 151.506 470.791 150.612C470.94 150.166 471.206 149.769 471.561 149.461C471.916 149.154 472.347 148.947 472.81 148.863C473.345 148.836 473.871 149.004 474.292 149.336C474.713 149.667 475 150.139 475.099 150.666C475.164 151.205 475.066 151.751 474.817 152.233C474.568 152.715 474.179 153.111 473.702 153.37C473.221 153.619 472.69 153.756 472.148 153.772C471.607 153.787 471.069 153.681 470.574 153.46" fill="#FFBE9D"/>
<path d="M472.086 152.588C472.086 152.525 472.393 152.66 472.789 152.588C473.037 152.501 473.251 152.339 473.402 152.124C473.552 151.909 473.631 151.652 473.628 151.389C473.652 151.258 473.647 151.122 473.613 150.993C473.578 150.864 473.516 150.744 473.429 150.641C473.257 150.503 473.036 150.438 472.816 150.461C472.393 150.461 472.095 150.605 472.077 150.533C472.059 150.461 472.267 150.272 472.771 150.137C472.926 150.098 473.086 150.094 473.242 150.125C473.398 150.157 473.545 150.222 473.673 150.317C473.821 150.457 473.934 150.631 474.001 150.824C474.068 151.017 474.089 151.223 474.06 151.426C474.047 151.811 473.9 152.181 473.646 152.471C473.433 152.716 473.138 152.873 472.816 152.913C472.33 152.904 472.086 152.588 472.086 152.588Z" fill="#EB996E"/>
<path d="M493.919 366.772L487.132 362.166L495.686 349.403L505.681 356.037L505.204 356.857C503.04 360.517 493.946 375.281 491.684 377.164C489.106 379.256 493.919 366.772 493.919 366.772Z" fill="#16B99B"/>
<path d="M490.834 377.021C490.708 376.94 493.835 372.117 497.819 366.259C501.803 360.4 505.12 355.704 505.246 355.785C505.372 355.866 502.236 360.688 498.252 366.601C494.268 372.514 490.951 377.12 490.834 377.021Z" fill="#263238"/>
<path d="M495.153 367.935C495.153 368.079 494.729 368.16 494.252 368.196C493.774 368.232 493.35 368.196 493.305 368.052C493.26 367.908 493.675 367.7 494.206 367.673C494.738 367.646 495.171 367.79 495.153 367.935Z" fill="#263238"/>
<path d="M495.054 369.055C495.054 369.199 494.559 369.217 494.009 369.181C493.459 369.145 492.999 369.073 492.99 368.919C492.981 368.766 493.45 368.622 494.036 368.658C494.622 368.694 495.081 368.91 495.054 369.055Z" fill="#263238"/>
<path d="M502.599 359.606C502.536 359.606 502.365 359.363 502.157 358.903C501.877 358.287 501.715 357.624 501.68 356.948C501.645 356.246 501.848 355.554 502.256 354.983C502.59 354.55 502.914 354.433 502.951 354.487C502.987 354.541 502.779 354.766 502.563 355.181C502.3 355.725 502.176 356.326 502.202 356.93C502.245 357.557 502.348 358.178 502.509 358.786C502.626 359.264 502.671 359.579 502.599 359.606Z" fill="#263238"/>
<path d="M493.853 367.106C493.79 366.98 494.033 366.728 494.366 366.484C494.7 366.241 495.006 366.079 495.115 366.178C495.223 366.277 495.052 366.629 494.673 366.908C494.294 367.188 493.907 367.242 493.853 367.106Z" fill="#263238"/>
<path d="M493.33 366.465C493.213 366.375 493.33 365.969 493.636 365.564C493.943 365.158 494.258 364.888 494.375 364.96C494.493 365.032 494.375 365.438 494.069 365.861C493.762 366.285 493.438 366.555 493.33 366.465Z" fill="#263238"/>
<path d="M413.924 377.264V369.062L429.247 368.963L429.373 380.969L428.418 381.032C424.182 381.293 406.858 382.068 404.01 381.23C400.882 380.293 413.924 377.264 413.924 377.264Z" fill="#16B99B"/>
<path d="M403.692 380.472C403.692 380.328 409.443 380.211 416.527 380.211C423.612 380.211 429.362 380.328 429.362 380.472C429.362 380.617 423.621 380.743 416.527 380.743C409.434 380.743 403.692 380.626 403.692 380.472Z" fill="#263238"/>
<path d="M413.651 378.941C413.525 379.013 413.227 378.716 412.921 378.319C412.615 377.923 412.407 377.562 412.506 377.418C412.606 377.274 413.011 377.535 413.336 377.968C413.66 378.4 413.777 378.869 413.651 378.941Z" fill="#263238"/>
<path d="M412.672 379.48C412.536 379.534 412.266 379.165 411.987 378.687C411.707 378.209 411.509 377.785 411.626 377.695C411.743 377.605 412.131 377.912 412.437 378.425C412.744 378.939 412.807 379.426 412.672 379.48Z" fill="#263238"/>
<path d="M424.732 380.417C424.678 380.417 424.804 380.083 425.066 379.66C425.419 379.084 425.874 378.577 426.409 378.164C426.973 377.744 427.661 377.522 428.364 377.533C428.905 377.533 429.194 377.776 429.167 377.83C429.14 377.884 428.833 377.83 428.373 377.902C427.777 377.995 427.211 378.23 426.724 378.587C426.229 378.974 425.773 379.409 425.363 379.885C425.029 380.246 424.795 380.462 424.732 380.417Z" fill="#263238"/>
<path d="M413.61 377.397C413.682 377.271 414.034 377.334 414.412 377.469C414.791 377.605 415.115 377.776 415.088 377.92C415.061 378.064 414.683 378.118 414.241 377.965C413.799 377.812 413.502 377.524 413.61 377.397Z" fill="#263238"/>
<path d="M413.852 376.605C413.852 376.461 414.276 376.344 414.753 376.353C415.231 376.362 415.655 376.488 415.655 376.632C415.655 376.777 415.258 376.885 414.753 376.885C414.249 376.885 413.834 376.75 413.852 376.605Z" fill="#263238"/>
<path d="M452.68 187.875L436.033 182.332C436.033 182.332 428.687 203.495 426.433 203.703C413.959 204.838 400.61 200.701 395.923 199.07C395.454 198.538 394.914 197.898 394.31 197.114C393.791 196.439 393.391 195.68 393.129 194.87C392.769 193.877 392.544 192.84 392.462 191.787C392.481 191.584 392.437 191.38 392.335 191.204C392.234 191.027 392.08 190.886 391.894 190.801C391.709 190.716 391.502 190.69 391.302 190.728C391.101 190.766 390.918 190.865 390.776 191.012C390.245 191.715 390.1 194.383 391.335 197.267C392.57 200.151 388.208 197.853 386.603 197.042C384.999 196.231 379.924 193.977 379.284 194.275C378.383 194.716 378.644 195.798 380.267 196.564C381.889 197.33 386.576 199.971 386.117 200.8C385.657 201.63 377.545 197.402 377.545 197.402C377.545 197.402 375.958 196.222 375.391 197.159C374.363 198.845 383.304 202.693 384.17 203.036C384.765 203.27 384.296 204.189 383.665 203.937C383.034 203.685 375.679 199.548 374.606 201.233C373.795 202.54 381.943 204.46 382.998 206.154C384.052 207.849 376.959 204.072 376.238 205.361C375.967 205.839 375.823 206.263 380.204 207.813C383.419 208.811 386.687 209.632 389.992 210.273V210.319C389.992 210.319 433.752 229.887 443.171 211.031C453.158 191.021 452.68 187.875 452.68 187.875Z" fill="#FFBE9D"/>
<path d="M442.495 234.386C442.495 234.386 431.886 304.888 433.409 308.295C434.933 311.702 489.491 369.586 489.491 369.586L502.253 347.72C502.253 347.72 459.215 299.679 459.539 298.39C459.864 297.101 474.79 228.536 474.79 228.536L442.495 234.386Z" fill="#455A64"/>
<path d="M444.81 321.464L453.778 301.769L462.746 282.075L447.64 308.259L444.81 321.464Z" fill="#263238"/>
<path d="M450.156 303.896C450.197 304.152 450.215 304.411 450.21 304.671C450.21 305.229 450.21 305.978 450.264 306.906V306.834C453.68 310.692 461.252 319.453 469.994 329.692L485.182 347.592L489.743 353.063C490.248 353.676 490.644 354.181 490.96 354.56C491.113 354.726 491.247 354.911 491.356 355.109C491.182 354.966 491.022 354.806 490.878 354.632L489.59 353.19C488.436 351.883 486.886 350.062 484.903 347.836L469.58 330.034C460.846 319.804 453.356 310.953 450.084 306.978C450.084 306.077 450.084 305.302 450.129 304.743C450.099 304.46 450.108 304.175 450.156 303.896Z" fill="#263238"/>
<path d="M498.164 343.191C498.29 343.273 495.306 348.005 491.512 353.755C487.717 359.506 484.544 364.111 484.427 364.03C484.31 363.949 487.284 359.217 491.079 353.467C494.874 347.716 498.046 343.11 498.164 343.191Z" fill="#263238"/>
<path d="M438.655 260.865C438.754 260.126 447.227 241.036 447.227 241.036L443.117 235.24L442.387 235.078L438.655 260.865Z" fill="#263238"/>
<path d="M450.807 233.71L442.388 235.116L447.229 241.074C439.414 258.758 423.271 296.199 421.333 308.268C418.755 324.258 409.048 374.201 410.021 374.967C410.995 375.733 433.375 374.967 433.375 374.967L447.643 308.268L479.19 253.629C483.114 246.825 484.26 238.769 482.39 231.141L481.759 228.545" fill="#455A64"/>
<path d="M425.589 367.559C425.594 367.435 425.609 367.312 425.634 367.19C425.634 366.919 425.724 366.559 425.796 366.099L426.49 361.926C427.13 358.276 428.041 353.039 429.194 346.603C430.348 340.168 431.727 332.425 433.25 323.881C434.043 319.608 434.873 315.12 435.729 310.469C435.945 309.315 436.18 308.143 436.405 306.963C436.522 306.368 436.63 305.782 436.765 305.16C436.838 304.862 436.892 304.556 436.982 304.259L437.315 303.357C438.217 301.068 439.244 298.851 440.254 296.516C448.411 278.192 456 261.697 461.489 249.764L468.042 235.64C468.808 233.999 469.421 232.719 469.845 231.818C470.043 231.404 470.205 231.07 470.331 230.827C470.379 230.709 470.44 230.598 470.512 230.493L470.376 230.854L469.944 231.863L468.222 235.73C466.681 239.119 464.482 243.986 461.796 249.935C456.388 261.914 448.852 278.426 440.704 296.75C439.695 299.04 438.676 301.311 437.775 303.555L437.45 304.385C437.36 304.673 437.315 304.971 437.243 305.286C437.108 305.863 437 306.467 436.874 307.089C436.648 308.269 436.423 309.441 436.198 310.595C435.296 315.237 434.494 319.725 433.692 323.989C432.124 332.533 430.709 340.213 429.519 346.693C428.329 353.174 427.365 358.357 426.698 362.016C426.355 363.819 426.085 365.189 425.904 366.171C425.805 366.622 425.733 366.983 425.679 367.253C425.66 367.358 425.63 367.461 425.589 367.559Z" fill="#263238"/>
<path d="M434.708 368.548C434.708 368.692 429.3 368.71 422.712 368.548C416.123 368.386 410.715 368.214 410.715 368.07C410.715 367.926 416.123 367.908 422.721 368.025C429.318 368.142 434.717 368.404 434.708 368.548Z" fill="#263238"/>
<path d="M442.388 235.107L442.712 235.873L483.155 232.601L481.731 228.536L442.388 235.107Z" fill="#263238"/>
<path d="M459.089 169.217L456.385 180.141L456.286 172.281L456.493 170.542L456.737 169.217L453.131 168L451.275 170.893H450.734C450.734 170.893 436.177 169.442 431.085 188.676L426.425 200.078L440.531 207.109V208.01L441.432 235.221L482.172 228.624C482.335 222.513 476.097 211.444 477.476 205.91L482.172 186.982L476.016 169.343L471.753 169.478L469.382 166.675L459.134 169.217" fill="#263238"/>
<path d="M440.784 206.948C440.456 206.857 440.15 206.7 439.883 206.488C439.131 205.972 438.491 205.31 437.999 204.542C437.253 203.39 436.914 202.023 437.035 200.657C437.103 198.986 437.654 197.371 438.621 196.006C439.371 194.936 440.358 194.054 441.505 193.428L441.379 193.59C441.722 191.094 442.028 188.948 442.28 187.425C442.367 186.612 442.517 185.808 442.731 185.019C442.732 185.839 442.672 186.659 442.551 187.47C442.398 188.993 442.154 191.157 441.848 193.653V193.762L441.74 193.825C440.516 194.522 439.486 195.515 438.746 196.713C438.006 197.912 437.579 199.277 437.503 200.684C437.367 201.968 437.652 203.262 438.315 204.37C438.766 205.121 439.346 205.786 440.027 206.335C440.541 206.732 440.793 206.912 440.784 206.948Z" fill="#455A64"/>
<path d="M442.342 188.641C442.225 188.695 441.829 188.118 441.441 187.343C441.053 186.568 440.846 185.892 440.963 185.837C441.08 185.783 441.477 186.36 441.865 187.135C442.252 187.911 442.433 188.532 442.342 188.641Z" fill="#455A64"/>
<path d="M400.665 180.906L528.817 205.522C537.956 207.279 543.707 215.626 542.67 225.135C542.656 225.269 542.632 225.401 542.598 225.531C542.172 227.779 541.303 229.92 540.041 231.829C538.78 233.738 537.152 235.377 535.251 236.651C533.351 237.925 531.216 238.808 528.971 239.25C526.726 239.691 524.415 239.682 522.174 239.223L396.582 213.877L368.884 191.74L400.665 180.906Z" fill="#16B99B"/>
<path d="M400.665 180.906C400.665 180.906 407.659 183.529 406.217 190.235C404.775 196.941 398.006 196.662 398.006 196.662C398.006 196.662 404.586 198.122 402.765 207.523C401.584 213.58 396.582 213.895 396.582 213.895L368.884 191.74L400.665 180.906Z" fill="#E0E0E0"/>
<path d="M374.904 196.554C377.608 195.211 378.554 191.633 377.608 188.775L368.91 191.741L374.904 196.554Z" fill="#455A64"/>
<path d="M527.07 222.819L526.736 222.774L525.745 222.612L521.968 221.936C518.687 221.341 513.955 220.448 508.097 219.322C496.379 217.068 480.254 213.833 462.444 210.155L416.854 200.673L403.037 197.78L399.287 196.978L398.314 196.752C398.2 196.736 398.088 196.705 397.98 196.662C398.096 196.667 398.21 196.682 398.323 196.707L399.305 196.878L403.073 197.6L416.945 200.358L462.57 209.704C480.372 213.382 496.506 216.672 508.196 219.006L522.031 221.764L525.79 222.53L526.772 222.738C526.875 222.752 526.974 222.78 527.07 222.819Z" fill="#455A64"/>
<path d="M522.173 239.224C524.414 239.684 526.725 239.693 528.97 239.252C531.215 238.81 533.35 237.927 535.25 236.653C537.151 235.379 538.779 233.74 540.04 231.831C541.301 229.922 542.171 227.781 542.597 225.533C542.631 225.403 542.655 225.27 542.669 225.136C543.706 215.627 537.955 207.281 528.816 205.523L522.173 239.224Z" fill="#455A64"/>
<path d="M471.239 186.037C471.239 186.037 463.443 210.635 461.271 211.175C449.121 214.276 435.285 212.302 430.409 211.428C429.859 210.977 429.21 210.418 428.498 209.751C427.883 209.165 427.372 208.479 426.984 207.723C426.467 206.802 426.082 205.813 425.839 204.785C425.83 204.577 425.755 204.378 425.626 204.216C425.496 204.053 425.318 203.936 425.118 203.881C424.918 203.826 424.705 203.836 424.511 203.909C424.316 203.983 424.15 204.116 424.036 204.289C423.613 205.064 423.901 207.723 425.569 210.373C425.569 210.373 415.798 216.574 413.662 216.52C411.526 216.466 405.406 216.313 406.046 217.16C406.686 218.008 413.662 219.17 413.662 219.17L426.281 223.452C426.281 223.452 472.573 235.908 478.91 215.79C482.785 203.46 485.471 196.204 486.075 193.257L471.239 186.037Z" fill="#FFBE9D"/>
<path d="M476.079 169.38C476.079 169.38 486.264 171.183 486.66 187.858C486.849 197.998 484.664 208.042 480.279 217.187L462.36 207.777C466.385 199.724 469.412 191.209 471.374 182.422L476.025 169.371L476.079 169.38Z" fill="#263238"/>
<path d="M470.852 183.349C470.852 183.695 470.813 184.039 470.735 184.376C470.635 185.025 470.464 185.962 470.212 187.08C469.55 190.079 468.717 193.037 467.715 195.94C466.708 198.843 465.531 201.684 464.191 204.449C463.677 205.512 463.235 206.36 462.911 206.928C462.763 207.246 462.582 207.549 462.37 207.829C462.452 207.495 462.58 207.173 462.749 206.874C463.055 206.179 463.443 205.332 463.893 204.341C464.849 202.196 466.093 199.194 467.273 195.814C468.454 192.434 469.31 189.306 469.887 187.026C470.152 185.962 470.377 185.061 470.563 184.322C470.62 183.987 470.717 183.66 470.852 183.349Z" fill="#455A64"/>
</svg>
