<svg width="564" height="375" viewBox="0 0 564 375" fill="none" xmlns="http://www.w3.org/2000/svg">
<path d="M521.073 336.879H559.837" stroke="#263238" stroke-linecap="round" stroke-linejoin="round"/>
<path d="M29.8857 336.879H512.185" stroke="#263238" stroke-linecap="round" stroke-linejoin="round"/>
<path d="M11.459 336.879H22.9" stroke="#263238" stroke-linecap="round" stroke-linejoin="round"/>
<path d="M504.733 244.182C506.06 244.503 507.461 244.285 508.628 243.575C509.795 242.865 510.633 241.722 510.958 240.395L514.252 226.839C514.574 225.511 514.356 224.11 513.646 222.943C512.936 221.776 511.792 220.938 510.466 220.613C509.139 220.292 507.739 220.511 506.574 221.221C505.408 221.931 504.572 223.074 504.248 224.4L500.946 237.94C500.784 238.599 500.753 239.283 500.855 239.954C500.957 240.624 501.191 241.268 501.543 241.848C501.895 242.428 502.358 242.932 502.905 243.333C503.453 243.733 504.074 244.022 504.733 244.182Z" fill="white" stroke="#263238" stroke-linecap="round" stroke-linejoin="round"/>
<path d="M509.982 260.016C510.428 260.139 510.896 260.16 511.351 260.077C511.806 259.994 512.236 259.808 512.609 259.535C512.982 259.261 513.288 258.906 513.505 258.498C513.721 258.089 513.842 257.636 513.858 257.174L515.222 240.145C515.28 239.122 514.987 238.109 514.391 237.275C513.795 236.441 512.931 235.836 511.944 235.559C511.498 235.436 511.029 235.415 510.573 235.499C510.118 235.583 509.687 235.769 509.314 236.043C508.941 236.318 508.635 236.673 508.419 237.083C508.203 237.493 508.084 237.947 508.069 238.41L506.696 255.43C506.637 256.455 506.931 257.469 507.529 258.304C508.127 259.138 508.993 259.742 509.982 260.016Z" fill="white" stroke="#263238" stroke-linecap="round" stroke-linejoin="round"/>
<path d="M473.583 241.186L490.789 237.609C496.843 237.487 502.886 238.15 508.77 239.579L520.332 242.389C520.939 242.537 521.569 242.564 522.187 242.469C522.804 242.373 523.397 242.157 523.931 241.832C524.465 241.507 524.93 241.081 525.298 240.576C525.667 240.072 525.933 239.5 526.081 238.893L528.503 228.929C528.8 227.702 528.598 226.408 527.941 225.33C527.284 224.252 526.226 223.479 524.999 223.181L515.633 220.904C508.546 219.182 501.773 216.359 495.561 212.539L483.337 201.001L473.583 241.186Z" fill="white" stroke="#263238" stroke-linecap="round" stroke-linejoin="round"/>
<path d="M509.174 218.982C511.306 219.725 513.461 220.371 515.633 220.904L524.983 223.181C526.21 223.479 527.268 224.252 527.925 225.33C528.582 226.408 528.784 227.703 528.487 228.93L526.065 238.893C525.917 239.5 525.651 240.072 525.283 240.577C524.914 241.081 524.449 241.508 523.915 241.833C523.381 242.157 522.789 242.374 522.171 242.469C521.554 242.565 520.923 242.537 520.316 242.389L508.754 239.579C507.312 239.224 505.853 238.917 504.378 238.659L509.174 218.982Z" fill="#263238" stroke="#263238" stroke-linecap="round" stroke-linejoin="round"/>
<path d="M471.291 246.114L472.005 246.288C474.054 246.787 476.12 245.53 476.619 243.481L486.694 202.09C487.192 200.041 485.936 197.975 483.886 197.476L483.172 197.302C481.123 196.804 479.057 198.061 478.558 200.11L468.484 241.501C467.985 243.55 469.242 245.616 471.291 246.114Z" fill="#16B99B" stroke="#263238" stroke-linecap="round" stroke-linejoin="round"/>
<path d="M464.871 204.352L468.908 210.722" stroke="#263238" stroke-width="2" stroke-linecap="round" stroke-linejoin="round"/>
<path d="M458.372 231.07L464.88 227.267" stroke="#263238" stroke-width="2" stroke-linecap="round" stroke-linejoin="round"/>
<path d="M465.477 219.062L457.572 217.141" stroke="#263238" stroke-width="2" stroke-linecap="round" stroke-linejoin="round"/>
<path d="M506.751 253.481L503.982 255.839C503.658 256.121 503.43 256.496 503.328 256.913C503.263 257.174 503.25 257.446 503.291 257.712C503.331 257.979 503.424 258.234 503.563 258.465C503.703 258.695 503.887 258.896 504.104 259.055C504.321 259.214 504.568 259.328 504.83 259.392L513.574 261.523L514.123 253.53L506.751 253.481Z" fill="#263238" stroke="#263238" stroke-linecap="round" stroke-linejoin="round"/>
<path d="M520.905 229.462C520.962 229.231 521.087 229.023 521.262 228.863C521.438 228.703 521.657 228.599 521.891 228.563C522.126 228.528 522.366 228.562 522.581 228.663C522.796 228.763 522.977 228.925 523.1 229.128C523.223 229.331 523.284 229.566 523.274 229.803C523.264 230.04 523.184 230.269 523.044 230.461C522.905 230.653 522.711 230.799 522.489 230.881C522.266 230.964 522.024 230.978 521.793 230.923C521.638 230.887 521.491 230.821 521.362 230.727C521.233 230.634 521.124 230.516 521.041 230.379C520.958 230.243 520.904 230.092 520.88 229.934C520.857 229.777 520.865 229.616 520.905 229.462Z" fill="#16B99B"/>
<path d="M469.53 281.346V271.245H472.493C473.006 271.225 473.516 271.339 473.971 271.576C474.338 271.807 474.621 272.15 474.778 272.553C474.968 273.048 475.059 273.574 475.045 274.104C475.071 274.661 474.957 275.216 474.714 275.719C474.505 276.106 474.172 276.413 473.769 276.591C473.321 276.784 472.836 276.878 472.348 276.865H471.347V281.346H469.53ZM471.371 275.573H472.074C472.351 275.592 472.628 275.542 472.881 275.428C472.974 275.382 473.057 275.318 473.123 275.239C473.19 275.159 473.24 275.067 473.269 274.968C473.349 274.692 473.384 274.406 473.374 274.12C473.381 273.822 473.354 273.524 473.293 273.232C473.274 273.127 473.233 273.028 473.173 272.941C473.113 272.853 473.036 272.779 472.946 272.723C472.694 272.604 472.416 272.549 472.138 272.562H471.436L471.371 275.573Z" fill="#263238"/>
<path d="M476.07 281.347V271.247H478.493C479.078 271.232 479.662 271.314 480.22 271.489C480.659 271.625 481.036 271.911 481.286 272.296C481.562 272.788 481.691 273.349 481.658 273.911C481.66 274.278 481.622 274.643 481.545 275.001C481.477 275.294 481.347 275.569 481.165 275.809C480.97 276.048 480.713 276.229 480.422 276.333L481.827 281.299H479.946L478.727 276.681H477.919V281.299L476.07 281.347ZM477.919 275.574H478.484C478.778 275.589 479.07 275.537 479.34 275.421C479.549 275.317 479.711 275.139 479.792 274.92C479.896 274.639 479.943 274.34 479.93 274.04C479.957 273.642 479.861 273.244 479.655 272.902C479.518 272.762 479.351 272.654 479.166 272.588C478.982 272.523 478.784 272.5 478.589 272.522H477.919V275.574Z" fill="#263238"/>
<path d="M485.711 281.483C485.117 281.514 484.527 281.377 484.007 281.088C483.581 280.821 483.259 280.416 483.095 279.941C482.903 279.372 482.81 278.774 482.82 278.173V274.402C482.809 273.809 482.902 273.219 483.095 272.658C483.262 272.193 483.584 271.8 484.007 271.544C484.542 271.289 485.127 271.156 485.719 271.156C486.311 271.156 486.896 271.289 487.431 271.544C487.852 271.802 488.173 272.194 488.343 272.658C488.543 273.217 488.639 273.808 488.626 274.402V278.189C488.637 278.783 488.541 279.373 488.343 279.933C488.174 280.406 487.853 280.809 487.431 281.079C486.906 281.371 486.31 281.511 485.711 281.483ZM485.711 280.127C485.954 280.148 486.197 280.076 486.389 279.925C486.542 279.78 486.643 279.591 486.68 279.384C486.73 279.134 486.754 278.88 486.752 278.625V273.982C486.755 273.727 486.731 273.473 486.68 273.223C486.643 273.019 486.541 272.832 486.389 272.69C486.188 272.564 485.956 272.497 485.719 272.497C485.482 272.497 485.249 272.564 485.049 272.69C484.894 272.831 484.789 273.018 484.75 273.223C484.699 273.473 484.675 273.727 484.677 273.982V278.625C484.676 278.88 484.7 279.134 484.75 279.384C484.779 279.593 484.882 279.785 485.041 279.925C485.23 280.075 485.47 280.147 485.711 280.127Z" fill="#263238"/>
<path d="M489.948 281.346L490.126 271.27H492.031L493.46 278.246L494.954 271.27H496.795L496.981 281.346H495.616L495.463 274.338L494.034 281.346H492.928L491.466 274.313L491.337 281.346H489.948Z" fill="#263238"/>
<path d="M501.212 281.484C500.619 281.514 500.028 281.377 499.509 281.088C499.084 280.821 498.765 280.416 498.604 279.942C498.409 279.373 498.316 278.774 498.33 278.173V274.403C498.314 273.809 498.407 273.218 498.604 272.659C498.769 272.194 499.088 271.801 499.509 271.544C500.03 271.261 500.62 271.127 501.212 271.157C501.813 271.125 502.411 271.259 502.94 271.544C503.359 271.803 503.677 272.196 503.845 272.659C504.045 273.218 504.141 273.809 504.127 274.403V278.189C504.139 278.783 504.043 279.374 503.845 279.933C503.679 280.405 503.361 280.809 502.94 281.08C502.413 281.373 501.815 281.513 501.212 281.484ZM501.212 280.127C501.456 280.149 501.698 280.077 501.891 279.925C502.043 279.781 502.145 279.591 502.181 279.384C502.238 279.136 502.265 278.881 502.262 278.625V273.983C502.266 273.728 502.239 273.473 502.181 273.224C502.145 273.02 502.042 272.833 501.891 272.691C501.695 272.546 501.454 272.477 501.212 272.497C500.978 272.48 500.745 272.549 500.558 272.691C500.401 272.829 500.296 273.017 500.26 273.224C500.202 273.473 500.175 273.728 500.179 273.983V278.625C500.177 278.88 500.201 279.135 500.252 279.384C500.285 279.592 500.387 279.783 500.542 279.925C500.732 280.075 500.972 280.147 501.212 280.127Z" fill="#263238"/>
<path d="M506.445 281.347V272.627H504.83V271.246H509.852V272.603H508.237V281.323L506.445 281.347Z" fill="#263238"/>
<path d="M510.838 281.347V271.246H512.655V281.323L510.838 281.347Z" fill="#263238"/>
<path d="M516.942 281.483C516.348 281.511 515.759 281.374 515.238 281.088C514.814 280.821 514.495 280.416 514.334 279.941C514.139 279.373 514.046 278.774 514.059 278.173V274.402C514.043 273.809 514.136 273.218 514.334 272.658C514.498 272.194 514.818 271.8 515.238 271.544C515.774 271.289 516.36 271.156 516.954 271.156C517.548 271.156 518.134 271.289 518.67 271.544C519.088 271.803 519.407 272.196 519.574 272.658C519.774 273.217 519.87 273.809 519.857 274.402V278.189C519.868 278.783 519.772 279.374 519.574 279.933C519.408 280.405 519.09 280.808 518.67 281.08C518.143 281.373 517.544 281.513 516.942 281.483ZM516.942 280.127C517.185 280.148 517.428 280.076 517.62 279.925C517.772 279.779 517.876 279.59 517.919 279.384C517.969 279.134 517.993 278.88 517.991 278.625V273.983C517.994 273.728 517.97 273.473 517.919 273.224C517.876 273.02 517.772 272.834 517.62 272.691C517.425 272.546 517.184 272.477 516.942 272.497C516.707 272.479 516.475 272.548 516.288 272.691C516.131 272.829 516.025 273.017 515.989 273.224C515.931 273.472 515.904 273.727 515.908 273.983V278.625C515.907 278.88 515.931 279.134 515.981 279.384C516.014 279.592 516.117 279.783 516.272 279.925C516.462 280.074 516.701 280.146 516.942 280.127Z" fill="#263238"/>
<path d="M521.213 281.347V271.246H522.497L524.919 276.995V271.246H526.437V281.323H525.242L522.82 275.299V281.323L521.213 281.347Z" fill="#263238"/>
<path d="M519.395 137.296L515.511 134.325L510.86 130.764L497.821 120.784V120.776L497.804 120.768L497.708 120.696L483.521 130.966L478.645 134.486L474.664 137.377L483.836 89.2712L488.204 66.373L504.336 66.7122L505.539 66.7364L506.476 66.7525L510.327 87.7694L519.395 137.296Z" fill="#16B99B" stroke="#263238" stroke-linecap="round" stroke-linejoin="round"/>
<path d="M510.327 87.7694C509.742 87.5755 509.114 87.5558 508.518 87.7129C507.711 88.1489 507.501 90.0544 506.612 90.3935C505.724 90.7326 504.319 89.4569 503.383 89.7072C502.446 89.9575 501.897 91.7823 500.961 91.9357C500.024 92.0891 498.91 90.5308 497.957 90.5873C497.004 90.6438 496.076 92.3071 495.123 92.2587C494.17 92.2102 493.387 90.4662 492.459 90.3209C491.53 90.1755 490.246 91.6127 489.342 91.3786C488.438 91.1444 488.018 89.2632 487.138 88.9563C486.258 88.6495 484.715 89.7638 483.908 89.3278H483.852L488.179 66.373L504.328 66.7122H505.531H506.467L510.327 87.7694Z" fill="#263238" stroke="#263238" stroke-linecap="round" stroke-linejoin="round"/>
<path d="M470.207 57.8722C470.255 56.9114 468.697 55.8053 468.842 54.8767C468.987 53.9482 470.804 53.3427 471.038 52.4545C471.272 51.5664 469.989 50.1211 470.32 49.2249C470.651 48.3286 472.564 48.1429 472.984 47.2951C473.404 46.4474 472.443 44.8002 472.984 44.009C473.525 43.2177 475.406 43.4115 475.988 42.6768C476.569 41.942 475.988 40.1253 476.642 39.4471C477.296 38.7689 479.129 39.3664 479.871 38.7608C480.614 38.1553 480.388 36.2659 481.179 35.7411C481.971 35.2163 483.602 36.1771 484.466 35.7411C485.329 35.3051 485.483 33.3996 486.371 33.0524C487.259 32.7052 488.672 33.989 489.601 33.7387C490.529 33.4884 491.078 31.6717 492.023 31.5183C492.968 31.3649 494.074 32.9152 495.026 32.8667C495.979 32.8183 496.9 31.1469 497.86 31.1954C498.821 31.2438 499.596 32.9878 500.517 33.1251C501.437 33.2623 502.729 31.8413 503.633 32.0754C504.538 32.3096 504.958 34.1909 505.838 34.4977C506.718 34.8045 508.26 33.6903 509.067 34.1263C509.875 34.5623 509.875 36.4597 510.682 36.9764C511.49 37.4932 513.217 36.6938 513.952 37.2913C514.687 37.8888 514.291 39.7136 514.97 40.4241C515.648 41.1346 517.505 40.6744 518.102 41.4091C518.7 42.1439 517.925 43.8879 518.449 44.6791C518.974 45.4704 520.872 45.4462 521.316 46.294C521.76 47.1417 520.621 48.6758 520.969 49.5236C521.316 50.3714 523.189 50.7832 523.439 51.7036C523.69 52.6241 522.26 53.8836 522.414 54.8283C522.567 55.773 524.319 56.5158 524.368 57.4685C524.416 58.4213 522.753 59.3579 522.753 60.3187C522.753 61.2795 524.263 62.3857 524.126 63.3142C523.988 64.2427 522.164 64.8483 521.921 65.7364C521.679 66.6246 522.971 68.0698 522.64 68.9661C522.309 69.8623 520.403 70.0561 519.975 70.8958C519.548 71.7355 520.516 73.3907 519.975 74.19C519.435 74.9894 517.553 74.7794 516.964 75.5222C516.374 76.2651 516.964 78.0737 516.31 78.7519C515.656 79.4301 513.823 78.8326 513.08 79.4301C512.337 80.0276 512.571 81.9331 511.78 82.4498C510.989 82.9666 509.358 82.0138 508.486 82.4498C507.614 82.8858 507.469 84.7833 506.58 85.1305C505.692 85.4776 504.279 84.1939 503.351 84.4441C502.422 84.6944 501.865 86.5192 500.929 86.6726C499.992 86.826 498.886 85.2677 497.933 85.3242C496.98 85.3807 496.052 87.044 495.091 86.9956C494.13 86.9471 493.363 85.2031 492.435 85.0578C491.506 84.9124 490.222 86.3496 489.318 86.1074C488.414 85.8652 487.994 84.0001 487.114 83.6852C486.234 83.3703 484.692 84.4926 483.844 84.0647C482.996 83.6367 483.036 81.7232 482.229 81.2145C481.422 80.7058 479.694 81.489 478.999 80.8996C478.305 80.3102 478.66 78.4289 477.99 77.7669C477.32 77.1048 475.447 77.5166 474.849 76.7818C474.252 76.0471 475.027 74.3031 474.502 73.5522C473.977 72.8013 472.08 72.7448 471.636 71.9373C471.192 71.1299 472.33 69.5151 471.983 68.6593C471.636 67.8034 469.771 67.4078 469.561 66.4873C469.351 65.5669 470.731 64.2992 470.578 63.3626C470.425 62.426 468.673 61.6671 468.624 60.7143C468.576 59.7616 470.166 58.825 470.207 57.8722Z" fill="#16B99B" stroke="#263238" stroke-linecap="round" stroke-linejoin="round"/>
<path d="M503.285 80.4259C515.047 76.6677 521.535 64.0864 517.777 52.3247C514.018 40.5629 501.437 34.0748 489.675 37.8329C477.914 41.5911 471.426 54.1725 475.184 65.9342C478.942 77.6959 491.523 84.1841 503.285 80.4259Z" fill="#263238" stroke="#263238" stroke-linecap="round" stroke-linejoin="round"/>
<path d="M513.022 70.0318C519.047 60.8914 516.521 48.5976 507.38 42.5729C498.24 36.5482 485.946 39.074 479.921 48.2144C473.897 57.3548 476.422 69.6486 485.563 75.6734C494.703 81.6981 506.997 79.1723 513.022 70.0318Z" fill="white" stroke="#263238" stroke-linecap="round" stroke-linejoin="round"/>
<path d="M482.083 56.0703L482.729 58.0565H484.82L483.124 59.2838L483.77 61.2781L482.083 60.0428L480.387 61.2781L481.033 59.2838L479.346 58.0565H481.437L482.083 56.0703Z" fill="#16B99B" stroke="#263238" stroke-width="0.5" stroke-linecap="round" stroke-linejoin="round"/>
<path d="M489.254 56.0703L489.9 58.0565H491.991L490.303 59.2838L490.941 61.2781L489.254 60.0428L487.566 61.2781L488.212 59.2838L486.517 58.0565H488.608L489.254 56.0703Z" fill="#16B99B" stroke="#263238" stroke-width="0.5" stroke-linecap="round" stroke-linejoin="round"/>
<path d="M496.424 56.0703L497.07 58.0565H499.161L497.474 59.2838L498.12 61.2781L496.424 60.0428L494.737 61.2781L495.383 59.2838L493.695 58.0565H495.778L496.424 56.0703Z" fill="#16B99B" stroke="#263238" stroke-width="0.5" stroke-linecap="round" stroke-linejoin="round"/>
<path d="M503.601 56.0703L504.247 58.0565H506.338L504.643 59.2838L505.289 61.2781L503.601 60.0428L501.906 61.2781L502.552 59.2838L500.864 58.0565H502.955L503.601 56.0703Z" fill="#16B99B" stroke="#263238" stroke-width="0.5" stroke-linecap="round" stroke-linejoin="round"/>
<path d="M510.77 56.0703L511.416 58.0565H513.507L511.812 59.2838L512.466 61.2781L510.77 60.0428L509.083 61.2781L509.729 59.2838L508.033 58.0565H510.124L510.77 56.0703Z" fill="#16B99B" stroke="#263238" stroke-width="0.5" stroke-linecap="round" stroke-linejoin="round"/>
<path d="M483.465 159.018C483.223 158.899 482.998 158.75 482.794 158.574C482.549 158.362 482.317 158.136 482.1 157.895C481.886 157.66 481.689 157.409 481.511 157.144H481.285C480.691 157.175 480.1 157.038 479.581 156.749C479.157 156.482 478.837 156.077 478.677 155.602C478.481 155.034 478.388 154.435 478.402 153.834V150.136C478.386 149.543 478.479 148.952 478.677 148.392C478.841 147.928 479.16 147.534 479.581 147.278C480.102 146.995 480.692 146.861 481.285 146.89C481.885 146.859 482.483 146.993 483.012 147.278C483.435 147.534 483.757 147.927 483.925 148.392C484.122 148.952 484.215 149.543 484.199 150.136V153.923C484.202 154.363 484.156 154.801 484.062 155.231C483.983 155.595 483.829 155.939 483.61 156.24C483.405 156.531 483.126 156.762 482.803 156.91L483.134 157.266L483.481 157.621C483.587 157.716 483.7 157.802 483.82 157.879L483.465 159.018ZM481.285 155.788C481.398 155.805 481.514 155.799 481.625 155.771C481.737 155.743 481.841 155.693 481.933 155.623C482.025 155.554 482.102 155.468 482.16 155.368C482.217 155.269 482.255 155.159 482.27 155.045C482.32 154.795 482.344 154.541 482.342 154.286V149.644C482.345 149.389 482.321 149.134 482.27 148.885C482.23 148.679 482.125 148.492 481.971 148.352C481.772 148.208 481.529 148.14 481.285 148.158C481.045 148.139 480.807 148.208 480.614 148.352C480.457 148.489 480.354 148.678 480.324 148.885C480.273 149.134 480.249 149.389 480.251 149.644V154.286C480.249 154.541 480.274 154.795 480.324 155.045C480.355 155.256 480.458 155.45 480.614 155.594C480.807 155.738 481.045 155.807 481.285 155.788Z" fill="#263238"/>
<path d="M488.325 157.175C487.719 157.21 487.116 157.066 486.589 156.763C486.171 156.488 485.865 156.073 485.726 155.592C485.559 155.001 485.48 154.389 485.491 153.775V146.961H487.284V153.993C487.284 154.291 487.306 154.588 487.348 154.882C487.376 155.129 487.477 155.363 487.639 155.552C487.728 155.642 487.836 155.711 487.954 155.756C488.073 155.8 488.199 155.819 488.325 155.81C488.456 155.822 488.587 155.805 488.71 155.76C488.832 155.716 488.944 155.644 489.036 155.552C489.189 155.358 489.286 155.126 489.318 154.882C489.368 154.588 489.392 154.291 489.391 153.993V146.961H491.167V153.775C491.179 154.389 491.1 155.001 490.933 155.592C490.794 156.071 490.491 156.485 490.077 156.763C489.546 157.068 488.937 157.211 488.325 157.175Z" fill="#263238"/>
<path d="M492.048 157.037L494.066 146.961H496.028L498.047 157.037H496.343L495.948 154.712H494.188L493.776 157.037H492.048ZM494.373 153.541H495.746L495.06 149.31L494.373 153.541Z" fill="#263238"/>
<path d="M499.008 157.037V146.961H500.849V155.786H503.271V157.054L499.008 157.037Z" fill="#263238"/>
<path d="M504.247 157.037V146.961H506.064V157.037H504.247Z" fill="#263238"/>
<path d="M508.623 157.037V148.317H507.008V146.961H512.038V148.317H510.423V157.037H508.623Z" fill="#263238"/>
<path d="M514.372 157.037V153.194L512.329 146.961H514.017L515.26 150.998L516.431 146.961H518.11L516.092 153.194V157.037H514.372Z" fill="#263238"/>
<path d="M315.393 23.4415L317.887 41.7213L306.253 44.4908C303.062 46.651 299.731 48.5958 296.281 50.3122C291.566 52.5245 288.247 53.3561 286.592 53.3561C284.937 53.3561 278.833 50.8612 278.833 50.8612C278.833 50.8612 282.991 28.4233 287.715 25.9284C292.438 23.4335 304.848 19.8405 315.393 23.4415Z" fill="white" stroke="#263238" stroke-linecap="round" stroke-linejoin="round"/>
<path d="M256.226 22.8056C256.226 22.8056 277.025 21.4814 280.068 21.4814C283.112 21.4814 289.887 29.0227 289.887 29.0227C289.887 29.0227 302.288 49.6682 301.247 50.9035C298.631 54.004 296.54 51.7594 296.54 51.7594L296.063 53.9394C296.063 53.9394 294.045 56.4424 283.799 55.0617C273.553 53.681 270.226 50.5886 267.755 50.0154C265.285 49.4421 251.825 45.7119 251.825 45.7119L256.226 22.8056Z" fill="white" stroke="#263238" stroke-linecap="round" stroke-linejoin="round"/>
<path d="M296.54 51.7189L293.116 45.1143" stroke="#263238" stroke-linecap="round" stroke-linejoin="round"/>
<path d="M293.116 54.7788L288.869 47.4717" stroke="#263238" stroke-linecap="round" stroke-linejoin="round"/>
<path d="M309.555 25.0991C309.555 25.0991 288.748 18.7286 284.63 23.1613C280.513 27.594 271.607 39.2288 273.545 40.6175C275.482 42.0063 282.426 36.7339 284.041 35.6277C285.262 34.7432 286.378 33.7219 287.367 32.5838C289.298 34.4897 291.697 35.8519 294.323 36.5325C296.949 37.213 299.708 37.1878 302.321 36.4594" fill="white"/>
<path d="M309.555 25.0991C309.555 25.0991 288.748 18.7286 284.63 23.1613C280.513 27.594 271.607 39.2288 273.545 40.6175C275.482 42.0063 282.426 36.7339 284.041 35.6277C285.262 34.7432 286.378 33.7219 287.367 32.5838C289.298 34.4897 291.697 35.8519 294.323 36.5325C296.949 37.213 299.708 37.1878 302.321 36.4594" stroke="#263238" stroke-linecap="round" stroke-linejoin="round"/>
<path d="M286.706 47.0766C286.706 47.0766 284.711 54.198 285.519 55.4091C285.82 55.9158 286.28 56.3091 286.827 56.528C287.375 56.747 287.979 56.7794 288.546 56.6202C289.228 56.3393 289.848 55.9279 290.371 55.4091C290.371 55.4091 290.67 49.3535 289.766 47.8356C288.861 46.3176 288.07 45.2599 286.706 47.0766Z" fill="white" stroke="#263238" stroke-linecap="round" stroke-linejoin="round"/>
<path d="M281.401 47.9885C281.401 47.9885 279.431 55.1099 280.19 56.321C280.492 56.8284 280.954 57.2219 281.502 57.4409C282.051 57.6598 282.657 57.6918 283.225 57.5321C283.902 57.2458 284.518 56.8349 285.042 56.321C285.042 56.321 285.341 50.2574 284.437 48.7475C283.532 47.2376 282.765 46.1719 281.401 47.9885Z" fill="white" stroke="#263238" stroke-linecap="round" stroke-linejoin="round"/>
<path d="M276.071 48.2388C276.071 48.2388 274.562 53.7049 275.143 54.6335C275.372 55.0184 275.722 55.3176 276.137 55.4852C276.553 55.6529 277.012 55.6799 277.444 55.562C277.965 55.3453 278.439 55.03 278.841 54.6335C278.841 54.6335 279.075 49.9828 278.381 48.8201C277.686 47.6574 277.113 46.85 276.071 48.2388Z" fill="white" stroke="#263238" stroke-linecap="round" stroke-linejoin="round"/>
<path d="M269.783 48.4722C269.783 48.4722 268.596 52.0894 269.056 52.7031C269.269 52.9707 269.554 53.1711 269.878 53.28C270.202 53.3889 270.55 53.4016 270.881 53.3167C271.281 53.1794 271.653 52.9716 271.979 52.7031C271.979 52.7031 272.165 49.6268 271.616 48.8598C271.067 48.0928 270.606 47.5922 269.783 48.4722Z" fill="white" stroke="#263238" stroke-linecap="round" stroke-linejoin="round"/>
<path d="M319.108 17.8055L311.237 19.4541L317.668 50.1558L325.539 48.5071L319.108 17.8055Z" fill="white" stroke="#263238" stroke-linecap="round" stroke-linejoin="round"/>
<path d="M329.267 15.2678L316.67 17.9062L323.844 52.1562L336.441 49.5177L329.267 15.2678Z" fill="#16B99B" stroke="#263238" stroke-linecap="round" stroke-linejoin="round"/>
<path d="M246.781 48.5066L254.652 50.1553L261.083 19.4536L253.212 17.805L246.781 48.5066Z" fill="white" stroke="#263238" stroke-linecap="round" stroke-linejoin="round"/>
<path d="M235.881 49.5168L248.478 52.1553L255.651 17.9053L243.055 15.2668L235.881 49.5168Z" fill="#263238" stroke="#263238" stroke-linecap="round" stroke-linejoin="round"/>
<path d="M242.727 73.5911C242.118 73.6255 241.512 73.4734 240.991 73.1551C240.575 72.8674 240.266 72.4501 240.111 71.9682C239.939 71.4059 239.854 70.8203 239.861 70.2322V66.6312C239.852 66.0244 239.937 65.4199 240.111 64.8387C240.261 64.359 240.572 63.9456 240.991 63.668C241.519 63.3686 242.122 63.2284 242.727 63.2643C243.287 63.2381 243.843 63.3577 244.342 63.6115C244.715 63.8537 244.998 64.2109 245.15 64.6288C245.319 65.1221 245.401 65.6413 245.392 66.1629V66.9703H243.632V66.1629C243.633 65.9064 243.617 65.6501 243.583 65.3959C243.569 65.1892 243.487 64.9931 243.349 64.8387C243.257 64.7615 243.15 64.7037 243.035 64.669C242.919 64.6343 242.798 64.6234 242.679 64.6369C242.556 64.6261 242.432 64.6399 242.314 64.6773C242.196 64.7147 242.087 64.7751 241.993 64.8549C241.839 65.0138 241.74 65.2174 241.71 65.4362C241.67 65.7035 241.651 65.9734 241.653 66.2436V70.6198C241.646 70.9233 241.673 71.2267 241.734 71.5241C241.775 71.7393 241.894 71.9317 242.069 72.0644C242.243 72.197 242.46 72.2605 242.679 72.2427C242.797 72.2569 242.917 72.2447 243.03 72.207C243.143 72.1693 243.247 72.1071 243.333 72.0247C243.47 71.8597 243.555 71.6571 243.575 71.4434C243.616 71.1762 243.635 70.9062 243.632 70.636V69.7155H245.392V70.5229C245.407 71.0706 245.328 71.6169 245.158 72.1377C245.018 72.5792 244.734 72.9605 244.35 73.2197C243.856 73.496 243.293 73.6249 242.727 73.5911Z" fill="#263238"/>
<path d="M249.477 73.5919C248.87 73.6268 248.267 73.4837 247.741 73.1802C247.322 72.9054 247.016 72.4902 246.877 72.0094C246.711 71.4184 246.632 70.8065 246.643 70.1927V63.3701H248.435V70.4027C248.431 70.7 248.452 70.9972 248.5 71.2908C248.526 71.5411 248.627 71.7776 248.79 71.969C248.986 72.1305 249.231 72.2188 249.485 72.2188C249.738 72.2188 249.984 72.1305 250.179 71.969C250.336 71.7735 250.436 71.5391 250.47 71.2908C250.517 70.9972 250.538 70.7 250.534 70.4027V63.3701H252.319V70.2008C252.331 70.8152 252.249 71.4278 252.076 72.0175C251.943 72.4967 251.642 72.9122 251.229 73.1882C250.696 73.4907 250.087 73.631 249.477 73.5919Z" fill="#263238"/>
<path d="M256.298 73.5909C255.77 73.6085 255.246 73.4859 254.78 73.2356C254.369 72.9977 254.045 72.6321 253.86 72.1941C253.635 71.6625 253.517 71.0918 253.513 70.5146L255.087 70.1997C255.097 70.5486 255.146 70.8952 255.233 71.2332C255.292 71.4922 255.417 71.7315 255.596 71.9276C255.68 72.0096 255.78 72.0734 255.89 72.115C255.999 72.1567 256.117 72.1754 256.234 72.1698C256.354 72.1812 256.475 72.1628 256.586 72.1163C256.697 72.0698 256.795 71.9967 256.872 71.9034C257.001 71.7015 257.066 71.4649 257.057 71.2252C257.076 70.8419 256.971 70.4628 256.759 70.1432C256.525 69.829 256.254 69.5444 255.951 69.2954L254.684 68.1731C254.342 67.8825 254.053 67.5358 253.828 67.1477C253.605 66.7168 253.496 66.2358 253.513 65.7509C253.493 65.4126 253.545 65.0739 253.665 64.7568C253.784 64.4397 253.969 64.1512 254.207 63.91C254.735 63.4562 255.418 63.2247 256.113 63.2641C256.518 63.2525 256.922 63.3239 257.3 63.474C257.599 63.6065 257.858 63.8154 258.05 64.0796C258.24 64.3468 258.382 64.6445 258.47 64.9596C258.562 65.3002 258.619 65.6492 258.64 66.0012L257.073 66.2676C257.061 65.996 257.026 65.726 256.969 65.4602C256.927 65.241 256.827 65.0372 256.678 64.8708C256.598 64.7974 256.503 64.7409 256.401 64.7048C256.298 64.6688 256.189 64.6538 256.08 64.6609C255.962 64.6565 255.845 64.6781 255.736 64.7242C255.627 64.7702 255.53 64.8396 255.451 64.9273C255.301 65.118 255.224 65.3554 255.233 65.5975C255.231 65.8804 255.303 66.1588 255.443 66.4049C255.617 66.6567 255.823 66.8846 256.056 67.0831L257.308 68.1893C257.725 68.5398 258.085 68.954 258.373 69.4166C258.679 69.9285 258.832 70.5163 258.817 71.1121C258.827 71.5612 258.715 72.0046 258.495 72.3959C258.289 72.7639 257.984 73.0663 257.614 73.2679C257.212 73.49 256.758 73.6014 256.298 73.5909Z" fill="#263238"/>
<path d="M260.917 73.4305V64.7266H259.302V63.3701H264.324V64.7266H262.749V73.4305H260.917Z" fill="#263238"/>
<path d="M267.942 73.5927C267.347 73.6202 266.757 73.4803 266.238 73.189C265.814 72.9252 265.495 72.523 265.334 72.0506C265.138 71.482 265.046 70.8834 265.059 70.2824V66.5117C265.044 65.9159 265.137 65.3223 265.334 64.7597C265.498 64.2952 265.817 63.9017 266.238 63.6454C266.775 63.3934 267.361 63.2627 267.954 63.2627C268.547 63.2627 269.133 63.3934 269.67 63.6454C270.088 63.9041 270.407 64.2968 270.574 64.7597C270.774 65.3217 270.869 65.9154 270.856 66.5117V70.2904C270.869 70.8867 270.773 71.4803 270.574 72.0425C270.406 72.5133 270.088 72.9161 269.67 73.189C269.143 73.4823 268.544 73.6221 267.942 73.5927ZM267.942 72.2363C268.185 72.2538 268.426 72.182 268.62 72.0344C268.774 71.8866 268.878 71.6949 268.919 71.4854C268.969 71.2356 268.993 70.9812 268.991 70.7264V66.0838C268.994 65.829 268.97 65.5746 268.919 65.3248C268.874 65.1239 268.77 64.941 268.62 64.8C268.425 64.6553 268.184 64.5864 267.942 64.6063C267.707 64.5887 267.475 64.6576 267.288 64.8C267.132 64.9364 267.027 65.1213 266.989 65.3248C266.931 65.5736 266.904 65.8285 266.908 66.0838V70.7264C266.906 70.9812 266.931 71.2356 266.981 71.4854C267.015 71.6952 267.117 71.8879 267.272 72.0344C267.464 72.1795 267.701 72.2511 267.942 72.2363Z" fill="#263238"/>
<path d="M272.188 73.4303L272.358 63.3457H274.264L275.701 70.3298L277.186 63.3457H279.06L279.221 73.4303H277.848L277.703 66.4219L276.266 73.4303H275.16L273.706 66.3977L273.569 73.4303H272.188Z" fill="#263238"/>
<path d="M280.675 73.4305V63.3701H284.906V64.6701H282.483V67.5687H284.365V68.8524H282.483V72.187H284.906V73.4305H280.675Z" fill="#263238"/>
<path d="M285.963 73.4301V63.3697H288.385C288.968 63.3556 289.549 63.4374 290.105 63.6119C290.545 63.7488 290.925 64.0341 291.179 64.4194C291.449 64.9128 291.575 65.4725 291.542 66.0342C291.548 66.403 291.512 66.7712 291.437 67.1323C291.368 67.4249 291.239 67.6999 291.058 67.9397C290.861 68.1796 290.605 68.3635 290.315 68.4726L291.72 73.4381H289.879L288.66 68.8198H287.812V73.4301H285.963ZM287.804 67.6571H288.377C288.655 67.6627 288.93 67.6076 289.184 67.4956C289.397 67.3983 289.562 67.2214 289.645 67.0031C289.743 66.7204 289.79 66.4222 289.782 66.123C289.81 65.7232 289.711 65.3249 289.499 64.9846C289.364 64.8426 289.197 64.7343 289.011 64.6684C288.826 64.6025 288.629 64.5808 288.434 64.6051H287.763L287.804 67.6571Z" fill="#263238"/>
<path d="M295.942 73.4305V63.3701H297.783V72.187H300.206V73.4305H295.942Z" fill="#263238"/>
<path d="M303.791 73.5927C303.197 73.6202 302.607 73.4803 302.088 73.189C301.664 72.9252 301.344 72.523 301.183 72.0506C300.988 71.482 300.895 70.8834 300.909 70.2824V66.5117C300.894 65.9159 300.987 65.3223 301.183 64.7597C301.348 64.2952 301.667 63.9017 302.088 63.6454C302.625 63.3934 303.21 63.2627 303.803 63.2627C304.396 63.2627 304.982 63.3934 305.519 63.6454C305.938 63.9041 306.256 64.2968 306.423 64.7597C306.627 65.3207 306.723 65.9151 306.706 66.5117V70.2904C306.722 70.887 306.626 71.4813 306.423 72.0425C306.256 72.5133 305.938 72.9161 305.519 73.189C304.992 73.4823 304.394 73.6221 303.791 73.5927ZM303.791 72.2363C304.034 72.2538 304.276 72.182 304.47 72.0344C304.626 71.8887 304.731 71.696 304.768 71.4854C304.818 71.2356 304.843 70.9812 304.841 70.7264V66.0838C304.844 65.829 304.819 65.5746 304.768 65.3248C304.727 65.1226 304.622 64.9387 304.47 64.8C304.274 64.6553 304.033 64.5864 303.791 64.6063C303.557 64.5887 303.324 64.6576 303.137 64.8C302.982 64.9364 302.876 65.1213 302.839 65.3248C302.788 65.5746 302.763 65.829 302.766 66.0838V70.7264C302.762 70.981 302.783 71.2353 302.83 71.4854C302.865 71.6952 302.967 71.8879 303.121 72.0344C303.313 72.1795 303.551 72.2511 303.791 72.2363Z" fill="#263238"/>
<path d="M309.37 73.4305V69.5791L307.319 63.3701H309.039L310.283 67.3668L311.453 63.3701H313.133L311.114 69.6033V73.4305H309.37Z" fill="#263238"/>
<path d="M313.125 73.4303L315.144 63.3457H317.114L319.124 73.4303H317.42L317.025 71.1049H315.265L314.853 73.4303H313.125ZM315.458 69.9342H316.823L316.137 65.7033L315.458 69.9342Z" fill="#263238"/>
<path d="M320.085 73.4305V63.3701H321.926V72.187H324.348V73.4305H320.085Z" fill="#263238"/>
<path d="M325.833 73.4305V64.7266H324.218V63.3701H329.248V64.7266H327.633V73.4305H325.833Z" fill="#263238"/>
<path d="M331.583 73.4303V69.5789L329.54 63.3457H331.26L332.503 67.3424L333.674 63.3457H335.353L333.335 69.5789V73.4303H331.583Z" fill="#263238"/>
<path d="M78.3218 83.1758V74.8191L69.9813 73.8906C69.5318 72.1494 68.8444 70.4785 67.9385 68.925L73.2109 62.3365L67.3007 56.4747L60.7445 61.7148C59.1925 60.804 57.525 60.106 55.787 59.6398L54.8584 51.2266H46.526L45.5813 59.559C43.8379 60.0134 42.1646 60.7033 40.6076 61.6099L34.0192 56.3375L28.117 62.2477L33.3652 68.8039C32.4517 70.3555 31.751 72.023 31.282 73.7614L22.9092 74.6899V83.0386L31.2497 83.9671C31.7012 85.7102 32.3885 87.3835 33.2925 88.9408L28.0201 95.5292L33.9303 101.431L40.4865 96.1832C42.0368 97.0975 43.7047 97.7956 45.444 98.2583L46.3726 106.639H54.7293L55.6497 98.2987C57.3928 97.8472 59.0661 97.1599 60.6234 96.2559L67.2118 101.52L73.114 95.618L67.8658 89.0619C68.7793 87.5102 69.48 85.8428 69.949 84.1044L78.3218 83.1758ZM50.6195 88.9004C48.647 88.902 46.7183 88.3185 45.0775 87.2238C43.4366 86.1291 42.1572 84.5723 41.4013 82.7504C40.6453 80.9285 40.4467 78.9233 40.8305 76.9885C41.2144 75.0536 42.1634 73.2761 43.5577 71.8808C44.9519 70.4854 46.7286 69.5349 48.6631 69.1495C50.5977 68.7641 52.603 68.9611 54.4255 69.7156C56.2481 70.4701 57.8059 71.7481 58.9019 73.3881C59.998 75.0281 60.583 76.9563 60.583 78.9288C60.583 81.5721 59.5335 84.1071 57.6653 85.9769C55.797 87.8467 53.2628 88.8982 50.6195 88.9004Z" fill="#263238" stroke="#263238" stroke-linecap="round" stroke-linejoin="round"/>
<path d="M111.118 66.4143L110.189 60.8836L104.538 61.1904C104.042 60.0899 103.401 59.0607 102.632 58.1303L105.466 53.1809L100.904 49.9512L97.1417 54.1498C96.0134 53.7211 94.8317 53.4495 93.6295 53.3423L92.0873 47.9004L86.5566 48.8208L86.8714 54.4727C85.7674 54.9665 84.7353 55.6075 83.8033 56.3782L78.8216 53.5523L75.5919 58.0899L79.7904 61.8444C79.3618 62.9727 79.0902 64.1544 78.983 65.3566L73.5088 66.9714L74.4373 72.4941L80.0892 72.1873C80.5791 73.2891 81.2175 74.3187 81.9866 75.2474L79.2333 80.1968L83.7952 83.4265L87.5578 79.228C88.686 79.6566 89.8678 79.9282 91.07 80.0354L92.6121 85.4773L98.1429 84.5569L97.828 78.905C98.932 78.4112 99.9641 77.7702 100.896 76.9995L105.838 79.7608L109.067 75.1909L104.869 71.4364C105.293 70.307 105.565 69.1257 105.676 67.9242L111.118 66.4143ZM93.4034 73.2693C92.0996 73.4856 90.7608 73.3107 89.5564 72.7665C88.3519 72.2224 87.3358 71.3334 86.6364 70.212C85.9369 69.0905 85.5856 67.7869 85.6268 66.4659C85.6679 65.1448 86.0997 63.8656 86.8676 62.7899C87.6355 61.7142 88.705 60.8902 89.941 60.4221C91.177 59.954 92.5241 59.8627 93.8119 60.1599C95.0997 60.457 96.2706 61.1292 97.1766 62.0915C98.0825 63.0539 98.6829 64.2631 98.9019 65.5666C99.1943 67.3135 98.7823 69.1051 97.7562 70.5489C96.7301 71.9927 95.1736 72.9709 93.4276 73.2693H93.4034Z" fill="#16B99B" stroke="#263238" stroke-linecap="round" stroke-linejoin="round"/>
<path d="M98.0306 117.291L97.1021 111.76L91.4502 112.067C90.9545 110.967 90.3136 109.937 89.5447 109.007L92.3061 104.066L87.7361 100.836L83.9817 105.035C82.8517 104.612 81.6707 104.34 80.4694 104.227L78.9192 98.7852L73.3965 99.7137L73.7033 105.366C72.6012 105.863 71.5695 106.504 70.6352 107.271L65.6938 104.518L62.4642 109.08L66.6627 112.842C66.235 113.968 65.9633 115.147 65.8553 116.346L60.4053 117.84L61.3257 123.371L66.9776 123.056C67.4684 124.162 68.1096 125.194 68.8831 126.124L66.1217 131.065L70.6836 134.295L74.4462 130.097C75.5744 130.525 76.7562 130.797 77.9584 130.904L79.5005 136.354L85.0313 135.425L84.7245 129.774C85.8263 129.284 86.8559 128.645 87.7846 127.876L92.734 130.629L95.9637 126.068L91.7651 122.305C92.19 121.176 92.4616 119.994 92.5725 118.793L98.0306 117.291ZM80.3241 124.154C79.0183 124.374 77.6765 124.202 76.4686 123.659C75.2608 123.116 74.2411 122.227 73.5385 121.104C72.836 119.982 72.4823 118.676 72.522 117.353C72.5618 116.029 72.9933 114.747 73.7619 113.668C74.5305 112.59 75.6018 111.764 76.84 111.295C78.0783 110.825 79.428 110.734 80.7183 111.032C82.0086 111.33 83.1815 112.004 84.0887 112.968C84.9958 113.933 85.5964 115.145 85.8145 116.451C86.1066 118.201 85.6924 119.994 84.663 121.439C83.6335 122.883 82.073 123.859 80.3241 124.154Z" fill="white" stroke="#263238" stroke-linecap="round" stroke-linejoin="round"/>
<path d="M45.8539 157.175C45.3251 157.197 44.8003 157.074 44.336 156.82C43.9287 156.58 43.6068 156.219 43.4155 155.786C43.1914 155.255 43.0735 154.684 43.0684 154.107L44.6832 153.792C44.6951 154.14 44.7411 154.486 44.8204 154.826C44.8793 155.082 45.0046 155.319 45.1838 155.512C45.2684 155.593 45.3684 155.656 45.478 155.698C45.5876 155.74 45.7045 155.759 45.8216 155.754C45.9418 155.767 46.0632 155.749 46.1747 155.703C46.2862 155.656 46.3841 155.582 46.4595 155.488C46.5924 155.287 46.6575 155.05 46.6452 154.809C46.6618 154.426 46.5572 154.048 46.3464 153.728C46.1129 153.425 45.8416 153.154 45.539 152.92L44.2472 151.749C43.9076 151.459 43.6208 151.112 43.3994 150.724C43.1766 150.29 43.0682 149.807 43.0845 149.319C43.065 148.981 43.1168 148.642 43.2364 148.325C43.356 148.008 43.5408 147.719 43.7789 147.478C44.3069 147.025 44.9897 146.794 45.6844 146.832C46.0884 146.82 46.4904 146.894 46.8632 147.05C47.1623 147.183 47.4212 147.392 47.6141 147.656C47.8049 147.919 47.9471 148.214 48.0339 148.528C48.1232 148.869 48.1826 149.218 48.2116 149.569L46.5967 149.844C46.5835 149.572 46.5484 149.302 46.4918 149.037C46.458 148.819 46.3596 148.616 46.2092 148.455C46.1279 148.381 46.0323 148.324 45.9281 148.288C45.824 148.251 45.7136 148.237 45.6036 148.245C45.4856 148.241 45.368 148.262 45.2591 148.308C45.1503 148.355 45.0529 148.424 44.9739 148.512C44.8249 148.699 44.7476 148.934 44.7558 149.174C44.7511 149.457 44.8237 149.736 44.9658 149.981C45.14 150.233 45.3463 150.461 45.5794 150.659L46.8793 151.749C47.2944 152.1 47.6514 152.514 47.937 152.977C48.2459 153.487 48.4002 154.076 48.3811 154.672C48.39 155.12 48.2814 155.563 48.0662 155.956C47.8585 156.327 47.5507 156.632 47.1781 156.836C46.7738 157.063 46.3173 157.18 45.8539 157.175Z" fill="#263238"/>
<path d="M52.2258 157.177C51.6194 157.211 51.016 157.068 50.4898 156.765C50.0715 156.49 49.7651 156.075 49.6259 155.594C49.4589 155.003 49.38 154.391 49.3918 153.777V146.963H51.1842V153.995C51.1819 154.292 51.2008 154.589 51.2407 154.884C51.2748 155.131 51.3784 155.363 51.5395 155.554C51.7327 155.72 51.9791 155.811 52.2338 155.811C52.4886 155.811 52.7349 155.72 52.9282 155.554C53.0835 155.361 53.1839 155.129 53.2189 154.884C53.2617 154.589 53.2832 154.293 53.2835 153.995V146.963H55.0679V153.777C55.0813 154.392 54.9996 155.005 54.8256 155.594C54.7028 156.067 54.4169 156.482 54.0182 156.765C53.4752 157.078 52.851 157.221 52.2258 157.177Z" fill="#263238"/>
<path d="M56.5039 157.039V146.962H59.4429C59.9558 146.942 60.4652 147.056 60.9204 147.293C61.2875 147.524 61.5706 147.866 61.7279 148.27C61.9175 148.765 62.008 149.291 61.9943 149.82C62.0212 150.378 61.9073 150.933 61.6633 151.435C61.4542 151.823 61.1218 152.13 60.7186 152.307C60.2705 152.501 59.7856 152.595 59.2975 152.582H58.2964V157.063L56.5039 157.039ZM58.3448 151.266H59.0473C59.3242 151.284 59.6015 151.234 59.8547 151.12C59.9478 151.075 60.0304 151.011 60.0971 150.931C60.1639 150.852 60.2133 150.76 60.2422 150.66C60.3223 150.385 60.3577 150.099 60.3472 149.812C60.355 149.514 60.3279 149.216 60.2664 148.924C60.2225 148.715 60.0976 148.533 59.9193 148.416C59.6673 148.297 59.3901 148.241 59.1118 148.254H58.4094L58.3448 151.266Z" fill="#263238"/>
<path d="M63.0127 157.039V146.962H65.9759C66.4888 146.942 66.9982 147.056 67.4535 147.293C67.8205 147.524 68.1036 147.866 68.2609 148.27C68.4505 148.765 68.541 149.291 68.5273 149.82C68.5542 150.378 68.4404 150.933 68.1963 151.435C67.9873 151.823 67.6548 152.13 67.2516 152.307C66.8035 152.501 66.3186 152.595 65.8306 152.582H64.8374V157.063L63.0127 157.039ZM64.8617 151.266H65.556C65.833 151.284 66.1103 151.234 66.3635 151.12C66.4566 151.075 66.5392 151.011 66.6059 150.931C66.6727 150.852 66.7221 150.76 66.751 150.66C66.8311 150.385 66.8665 150.099 66.856 149.812C66.8638 149.514 66.8367 149.216 66.7752 148.924C66.7313 148.715 66.6064 148.533 66.428 148.416C66.1761 148.297 65.8989 148.241 65.6206 148.254H64.9263L64.8617 151.266Z" fill="#263238"/>
<path d="M72.3142 157.176C71.7203 157.208 71.1297 157.071 70.6106 156.78C70.1841 156.514 69.8621 156.109 69.6982 155.634C69.5029 155.065 69.41 154.467 69.4237 153.866V150.135C69.4076 149.542 69.5006 148.951 69.6982 148.391C69.8656 147.926 70.1877 147.533 70.6106 147.277C71.132 146.994 71.7215 146.86 72.3142 146.89C72.9123 146.857 73.5077 146.991 74.034 147.277C74.4551 147.535 74.7767 147.928 74.9463 148.391C75.1439 148.951 75.237 149.542 75.2209 150.135V153.922C75.2348 154.515 75.1418 155.106 74.9463 155.666C74.7774 156.139 74.4565 156.542 74.034 156.813C73.5053 157.09 72.91 157.216 72.3142 157.176ZM72.3142 155.82C72.5563 155.839 72.7973 155.771 72.9924 155.626C73.1433 155.477 73.2448 155.285 73.2831 155.077C73.3332 154.827 73.3575 154.573 73.3558 154.318V149.675C73.3583 149.42 73.334 149.166 73.2831 148.916C73.2463 148.712 73.1443 148.525 72.9924 148.383C72.7917 148.257 72.5594 148.19 72.3223 148.19C72.0852 148.19 71.8529 148.257 71.6521 148.383C71.4977 148.524 71.3929 148.711 71.3534 148.916C71.3025 149.166 71.2781 149.42 71.2807 149.675V154.318C71.2804 154.572 71.302 154.826 71.3453 155.077C71.3522 155.192 71.3838 155.305 71.4381 155.407C71.4925 155.51 71.5681 155.599 71.66 155.67C71.7519 155.74 71.8579 155.79 71.9708 155.816C72.0836 155.842 72.2008 155.843 72.3142 155.82Z" fill="#263238"/>
<path d="M76.5781 157.038V146.962H79.0004C79.5857 146.947 80.1695 147.029 80.7282 147.204C81.1671 147.34 81.5442 147.626 81.794 148.011C82.0697 148.503 82.1986 149.063 82.1654 149.626C82.1681 149.992 82.1302 150.358 82.0524 150.716C81.9859 151.01 81.8564 151.285 81.6729 151.523C81.4774 151.763 81.2207 151.944 80.9301 152.048L82.335 157.014H80.4941L79.2749 152.395H78.4675V157.014L76.5781 157.038ZM78.419 151.265H78.9923C79.2855 151.28 79.5782 151.227 79.8481 151.112C80.0568 151.008 80.2184 150.829 80.3003 150.611C80.3991 150.331 80.4456 150.036 80.4375 149.739C80.4694 149.339 80.3702 148.939 80.155 148.601C80.0216 148.458 79.8561 148.349 79.6721 148.283C79.4881 148.217 79.291 148.196 79.0972 148.221H78.419V151.265Z" fill="#263238"/>
<path d="M84.522 157.039V148.319H82.9072V146.963H87.9293V148.319H86.3549V157.039H84.522Z" fill="#263238"/>
<path d="M36.4911 232.209H28.1748V257.021H36.4911V232.209Z" fill="#263238" stroke="#263238" stroke-width="0.5" stroke-linecap="round" stroke-linejoin="round"/>
<path d="M49.5644 241.131H41.248V257.021H49.5644V241.131Z" fill="#16B99B" stroke="#263238" stroke-linecap="round" stroke-linejoin="round"/>
<path d="M62.6366 226.775H54.3203V257.021H62.6366V226.775Z" fill="#263238" stroke="#263238" stroke-width="0.5" stroke-linecap="round" stroke-linejoin="round"/>
<path d="M75.707 233.032H67.3906V257.02H75.707V233.032Z" fill="#16B99B" stroke="#263238" stroke-linecap="round" stroke-linejoin="round"/>
<path d="M88.7792 227.55H80.4629V257.02H88.7792V227.55Z" fill="#263238" stroke="#263238" stroke-width="0.5" stroke-linecap="round" stroke-linejoin="round"/>
<path d="M101.844 210.085H93.5273V257.02H101.844V210.085Z" fill="#16B99B" stroke="#263238" stroke-linecap="round" stroke-linejoin="round"/>
<path d="M111.191 209.586H116.06" stroke="#263238" stroke-width="0.5" stroke-linecap="round" stroke-linejoin="round"/>
<path d="M111.191 219.072H116.06" stroke="#263238" stroke-width="0.5" stroke-linecap="round" stroke-linejoin="round"/>
<path d="M111.191 228.568H116.06" stroke="#263238" stroke-width="0.5" stroke-linecap="round" stroke-linejoin="round"/>
<path d="M111.191 238.054H116.06" stroke="#263238" stroke-width="0.5" stroke-linecap="round" stroke-linejoin="round"/>
<path d="M111.191 247.543H116.06" stroke="#263238" stroke-width="0.5" stroke-linecap="round" stroke-linejoin="round"/>
<path d="M111.191 257.029H116.06" stroke="#263238" stroke-width="0.5" stroke-linecap="round" stroke-linejoin="round"/>
<path d="M32.9316 223.06L45.6807 230.763L58.9303 216.568L72.0184 217.675L84.7109 212.636L99.0586 193.751" stroke="#263238" stroke-linecap="round" stroke-linejoin="round"/>
<path d="M34.5373 223.061C34.5373 222.742 34.4426 222.43 34.2651 222.164C34.0877 221.898 33.8355 221.691 33.5404 221.569C33.2453 221.447 32.9206 221.415 32.6074 221.477C32.2942 221.54 32.0064 221.693 31.7806 221.919C31.5548 222.145 31.401 222.433 31.3386 222.746C31.2763 223.059 31.3083 223.384 31.4305 223.679C31.5528 223.974 31.7597 224.226 32.0253 224.404C32.2908 224.581 32.6031 224.676 32.9224 224.676C33.3507 224.676 33.7615 224.506 34.0643 224.203C34.3671 223.9 34.5373 223.489 34.5373 223.061Z" fill="#263238"/>
<path d="M47.2863 230.763C47.2863 230.444 47.1916 230.132 47.0141 229.866C46.8367 229.601 46.5845 229.394 46.2894 229.271C45.9944 229.149 45.6697 229.117 45.3564 229.179C45.0432 229.242 44.7554 229.396 44.5296 229.621C44.3038 229.847 44.15 230.135 44.0877 230.448C44.0254 230.761 44.0573 231.086 44.1796 231.381C44.3018 231.676 44.5088 231.929 44.7743 232.106C45.0399 232.283 45.3521 232.378 45.6715 232.378C46.0997 232.378 46.5105 232.208 46.8133 231.905C47.1162 231.602 47.2863 231.192 47.2863 230.763Z" fill="#263238"/>
<path d="M60.5373 216.569C60.5373 216.25 60.4426 215.937 60.2651 215.672C60.0877 215.406 59.8355 215.199 59.5404 215.077C59.2453 214.955 58.9206 214.923 58.6074 214.985C58.2942 215.047 58.0064 215.201 57.7806 215.427C57.5547 215.653 57.401 215.941 57.3386 216.254C57.2763 216.567 57.3083 216.892 57.4305 217.187C57.5528 217.482 57.7597 217.734 58.0253 217.912C58.2909 218.089 58.6031 218.184 58.9224 218.184C59.3507 218.184 59.7615 218.014 60.0643 217.711C60.3671 217.408 60.5373 216.997 60.5373 216.569Z" fill="#263238"/>
<path d="M73.6252 217.675C73.6252 217.356 73.5304 217.044 73.353 216.778C73.1756 216.513 72.9234 216.306 72.6283 216.183C72.3332 216.061 72.0085 216.029 71.6953 216.092C71.3821 216.154 71.0943 216.308 70.8685 216.534C70.6426 216.759 70.4888 217.047 70.4265 217.36C70.3642 217.674 70.3962 217.998 70.5184 218.293C70.6407 218.588 70.8476 218.841 71.1132 219.018C71.3787 219.195 71.6909 219.29 72.0103 219.29C72.4386 219.29 72.8493 219.12 73.1522 218.817C73.455 218.514 73.6252 218.104 73.6252 217.675Z" fill="#263238"/>
<path d="M86.3166 212.387C86.3166 212.068 86.2218 211.756 86.0444 211.49C85.867 211.225 85.6148 211.018 85.3197 210.895C85.0246 210.773 84.6999 210.741 84.3867 210.803C84.0735 210.866 83.7857 211.02 83.5599 211.245C83.334 211.471 83.1803 211.759 83.1179 212.072C83.0556 212.385 83.0876 212.71 83.2098 213.005C83.3321 213.3 83.539 213.553 83.8046 213.73C84.0701 213.907 84.3824 214.002 84.7017 214.002C85.13 214.002 85.5407 213.832 85.8436 213.529C86.1464 213.226 86.3166 212.816 86.3166 212.387Z" fill="#263238"/>
<path d="M100.673 193.736C100.673 193.417 100.578 193.104 100.401 192.839C100.223 192.573 99.9712 192.366 99.6761 192.244C99.3811 192.122 99.0564 192.09 98.7431 192.152C98.4299 192.214 98.1422 192.368 97.9163 192.594C97.6905 192.82 97.5367 193.108 97.4744 193.421C97.4121 193.734 97.4441 194.059 97.5663 194.354C97.6885 194.649 97.8955 194.901 98.161 195.079C98.4266 195.256 98.7388 195.351 99.0582 195.351C99.4865 195.351 99.8972 195.181 100.2 194.878C100.503 194.575 100.673 194.164 100.673 193.736Z" fill="#263238"/>
<path d="M31.1865 281.349V271.248H33.0032V281.325L31.1865 281.349Z" fill="#263238"/>
<path d="M34.5527 281.349L34.7304 271.248H36.6278L38.065 278.224L39.5587 271.248H41.3996L41.5853 281.325H40.2127L40.0674 274.34L38.6382 281.349H37.524L36.0707 274.316L35.9334 281.349H34.5527Z" fill="#263238"/>
<path d="M42.999 281.347V271.246H45.9622C46.4752 271.226 46.9845 271.34 47.4398 271.577C47.8068 271.808 48.0899 272.151 48.2472 272.554C48.4368 273.049 48.5273 273.575 48.5136 274.105C48.5395 274.662 48.4257 275.217 48.1826 275.719C47.9736 276.107 47.6411 276.414 47.2379 276.591C46.7898 276.785 46.3049 276.879 45.8169 276.866H44.8399V281.347H42.999ZM44.8399 275.574H45.5424C45.8193 275.593 46.0966 275.543 46.3498 275.429C46.4429 275.383 46.5255 275.319 46.5922 275.24C46.659 275.16 46.7084 275.068 46.7373 274.969C46.8174 274.693 46.8529 274.407 46.8423 274.121C46.8501 273.823 46.823 273.525 46.7616 273.233C46.7425 273.128 46.7017 273.029 46.6419 272.942C46.5821 272.854 46.5046 272.78 46.4144 272.724C46.1624 272.605 45.8852 272.55 45.607 272.563H44.9045L44.8399 275.574Z" fill="#263238"/>
<path d="M49.5146 281.347V271.246H51.9369C52.5222 271.231 53.106 271.313 53.6647 271.488C54.1036 271.624 54.4808 271.91 54.7305 272.295C55.0062 272.787 55.1351 273.348 55.1019 273.91C55.1046 274.277 55.0667 274.642 54.9889 275C54.921 275.293 54.7917 275.568 54.6094 275.808C54.4139 276.047 54.1572 276.228 53.8666 276.332L55.2796 281.298H53.4144L52.1791 276.728H51.3717V281.347H49.5146ZM51.3717 275.574H51.9369C52.2301 275.588 52.5228 275.536 52.7927 275.42C53.0014 275.316 53.163 275.138 53.2449 274.92C53.3486 274.638 53.3952 274.339 53.3821 274.039C53.4097 273.641 53.3139 273.243 53.1076 272.901C52.9715 272.76 52.8044 272.652 52.6194 272.586C52.4345 272.52 52.2368 272.498 52.0418 272.521H51.3717V275.574Z" fill="#263238"/>
<path d="M59.1785 281.485C58.5848 281.516 57.9944 281.379 57.4749 281.089C57.0485 280.823 56.7264 280.418 56.5625 279.943C56.3711 279.373 56.2783 278.775 56.288 278.175V274.404C56.2768 273.811 56.3697 273.221 56.5625 272.66C56.7299 272.195 57.0521 271.802 57.4749 271.546C58.0094 271.291 58.5943 271.158 59.1866 271.158C59.779 271.158 60.3638 271.291 60.8983 271.546C61.3195 271.804 61.641 272.196 61.8107 272.66C62.011 273.219 62.1068 273.81 62.0933 274.404V278.191C62.1048 278.785 62.0091 279.375 61.8107 279.935C61.6418 280.407 61.3209 280.811 60.8983 281.081C60.375 281.376 59.7785 281.517 59.1785 281.485ZM59.1785 280.129C59.4221 280.15 59.6646 280.078 59.8568 279.927C60.0093 279.782 60.1112 279.593 60.1474 279.386C60.1975 279.136 60.2219 278.882 60.2201 278.627V273.984C60.2227 273.729 60.1983 273.475 60.1474 273.225C60.1107 273.021 60.0087 272.834 59.8568 272.692C59.656 272.566 59.4237 272.499 59.1866 272.499C58.9495 272.499 58.7172 272.566 58.5165 272.692C58.362 272.833 58.2572 273.02 58.2177 273.225C58.1668 273.475 58.1425 273.729 58.1451 273.984V278.627C58.1433 278.882 58.1676 279.136 58.2177 279.386C58.2472 279.595 58.3503 279.787 58.5084 279.927C58.6981 280.077 58.9376 280.149 59.1785 280.129Z" fill="#263238"/>
<path d="M64.9439 281.349L62.9092 271.248H64.524L65.8562 278.377L67.1158 271.248H68.7871L66.7605 281.325L64.9439 281.349Z" fill="#263238"/>
<path d="M69.8213 281.349V271.248H74.0521V272.54H71.6299V275.439H73.5031V276.722H71.6299V280.057H74.0521V281.325L69.8213 281.349Z" fill="#263238"/>
<path d="M75.1182 281.347L75.2958 271.271H77.2094L78.6385 278.247L80.1322 271.271H81.9731L82.1588 281.347H80.7862L80.6409 274.339L79.2117 281.347H78.0975L76.6361 274.314L76.4988 281.347H75.1182Z" fill="#263238"/>
<path d="M83.5713 281.349V271.248H87.8021V272.54H85.3799V275.439H87.2531V276.722H85.3799V280.057H87.8021V281.325L83.5713 281.349Z" fill="#263238"/>
<path d="M88.8916 281.349V271.248H90.1754L92.5976 276.997V271.248H94.164V281.325H92.9448L90.4741 275.301V281.325L88.8916 281.349Z" fill="#263238"/>
<path d="M96.6842 281.349V272.629H95.0693V271.248H100.1V272.604H98.4847V281.325L96.6842 281.349Z" fill="#263238"/>
<path d="M322.109 332.851H250.217L260.996 293.167H311.322L322.109 332.851Z" fill="#263238" stroke="#263238" stroke-linecap="round" stroke-linejoin="round"/>
<path d="M340.802 332.85H231.527V336.879H340.802V332.85Z" fill="#263238" stroke="#263238" stroke-linecap="round" stroke-linejoin="round"/>
<path d="M441.567 100.025H130.754V297.332H441.567V100.025Z" fill="#263238" stroke="#263238" stroke-linecap="round" stroke-linejoin="round"/>
<path d="M431.613 107.551H140.719V289.816H431.613V107.551Z" fill="#B2B2B2" stroke="#263238" stroke-linecap="round" stroke-linejoin="round"/>
<path d="M228.605 153.544L209.76 156.693L215.702 243.611L243.017 245.815C243.017 245.815 248.951 212.396 249.291 206.97C249.63 201.545 239.602 160.835 239.602 160.835L228.605 153.544Z" fill="#16B99B" stroke="#263238" stroke-linecap="round" stroke-linejoin="round"/>
<path d="M256.453 289.818C257.073 287.677 257.38 285.458 257.366 283.229C257.148 280 256.292 275.066 256.292 275.066L248.557 275.712L251.552 289.818H256.453Z" fill="white" stroke="#263238" stroke-linecap="round" stroke-linejoin="round"/>
<path d="M173.516 289.818H251.738C251.528 288.098 250.93 283.762 250.309 279.41C249.461 273.815 243.696 234.623 243.696 234.623L186.208 229.189C186.208 229.189 172.805 255.148 170.94 262.778C169.075 270.408 173.29 288.389 173.29 288.389L173.516 289.818Z" fill="#263238" stroke="#263238" stroke-linecap="round" stroke-linejoin="round"/>
<path d="M249.291 94.5058C249.291 94.5058 253.7 93.4885 255.565 100.44C257.43 107.392 255.226 110.937 256.074 114.352C256.921 117.767 258.746 125.712 256.534 133.681C254.321 141.651 246.409 147.407 246.037 150.314L245.698 153.197C245.698 153.197 244.511 154.383 240.781 154.044C237.051 153.705 232.465 150.992 232.465 150.992L232.974 145.227C232.974 145.227 239.433 145.227 240.951 144.04C242.469 142.854 249.089 131.122 249.598 127.755C250.107 124.388 250.446 114.691 249.937 111.809C249.429 108.926 245.9 102.984 244.511 102.475C243.123 101.966 236.873 97.5578 236.873 97.5578C236.873 97.5578 245.561 92.3016 249.291 94.5058Z" fill="#263238" stroke="#263238" stroke-linecap="round" stroke-linejoin="round"/>
<path d="M253.531 167.446C253.531 167.446 258.965 169.99 259.134 174.229C259.304 178.467 256.244 197.296 256.244 198.661C256.244 200.025 254.718 228.172 254.718 228.172L258.004 277.206L250.277 277.642C250.277 277.642 243.535 241.373 244.205 236.997C244.875 232.621 248.953 210.869 249.292 206.969C249.631 203.069 248.783 186.445 249.97 181.528C251.157 176.61 253.531 167.446 253.531 167.446Z" fill="white" stroke="#263238" stroke-linecap="round" stroke-linejoin="round"/>
<path d="M241.92 98.2023C241.92 98.2023 250.301 101.626 251.657 107.568C253.013 113.511 250.979 120.963 251.657 125.719C252.335 130.475 245.553 142.344 243.179 145.226C240.805 148.108 235.032 147.091 235.032 147.091L235.904 156.594C235.904 156.594 239.457 168.463 238.94 171.515C238.424 174.567 232.828 179.048 225.715 178.637C216.89 178.128 214.169 169.917 214.169 169.917L215.356 151.088C215.653 147.209 215.542 143.309 215.025 139.453C214.177 132.501 216.042 121.981 216.72 120.285C217.399 118.589 223.68 111.638 227.58 108.925C231.48 106.212 239.11 98.4284 239.11 98.4284C239.11 98.4284 241.354 97.4837 241.92 98.2023Z" fill="white" stroke="#263238" stroke-linecap="round" stroke-linejoin="round"/>
<path d="M215.016 154.648C215.016 154.648 188.905 157.071 185.142 159.638C181.38 162.206 186.838 216.633 186.838 216.633C186.838 216.633 165.845 262.777 166.483 263.116C167.121 263.455 177.165 271.763 187.855 273.612C198.545 275.461 214.144 276.842 214.144 276.842C214.144 276.842 219.74 231.038 220.418 227.477C221.096 223.916 218.892 188.632 219.231 183.715C219.57 178.798 215.016 154.648 215.016 154.648Z" fill="white" stroke="#263238" stroke-linecap="round" stroke-linejoin="round"/>
<path d="M215.768 209.836C216.538 211.648 217.422 213.409 218.416 215.108" stroke="#263238" stroke-linecap="round" stroke-linejoin="round"/>
<path d="M209.072 165.953C210.195 176.118 211.922 191.911 212.48 197.806C212.871 201.397 213.754 204.918 215.104 208.27" stroke="#263238" stroke-linecap="round" stroke-linejoin="round"/>
<path d="M208.064 156.861C208.064 156.861 208.331 159.284 208.735 162.925" stroke="#263238" stroke-linecap="round" stroke-linejoin="round"/>
<path d="M241.919 98.2027C240.231 101.085 238.342 103.845 236.267 106.462C233.312 110.007 222.105 117.282 222.105 117.282C222.105 117.282 222.298 121.222 221.507 122.401C220.716 123.58 218.164 122.796 218.164 122.796C218.164 122.796 216.396 132.429 216.986 139.518C217.575 146.607 221.12 148.561 220.135 150.337C219.15 152.114 212.941 156.797 204.487 153.478C196.033 150.16 191.698 146.785 189.534 141.472C187.37 136.159 194.951 107.843 200.458 98.7921C205.965 89.741 219.15 83.8388 227.216 84.8239C235.282 85.8089 249.645 90.1366 250.824 93.4793C252.003 96.822 241.919 98.2027 241.919 98.2027Z" fill="#263238" stroke="#263238" stroke-linecap="round" stroke-linejoin="round"/>
<path d="M216.72 120.261C216.72 120.261 209.131 128.706 207.572 137.822C206.014 146.938 210.697 150.845 212.522 151.629" stroke="#5C5C5C" stroke-linecap="round" stroke-linejoin="round"/>
<path d="M194.323 136.578C194.118 138.318 194.283 140.082 194.807 141.754" stroke="#5C5C5C" stroke-linecap="round" stroke-linejoin="round"/>
<path d="M229.807 103.53C227.898 105.228 225.86 106.775 223.712 108.157C213.401 114.891 199.626 122.989 195.452 132.444" stroke="#5C5C5C" stroke-linecap="round" stroke-linejoin="round"/>
<path d="M235.461 93.5684C235.461 93.5684 236.333 96.2974 232.425 100.892" stroke="#5C5C5C" stroke-linecap="round" stroke-linejoin="round"/>
<path d="M235.904 156.595C235.904 156.595 250.308 165.242 253.529 167.446C256.751 169.651 251.325 190.345 251.834 194.414C252.343 198.483 253.869 208.14 252.343 212.225C250.817 216.311 249.969 218.846 249.969 218.846L247.086 237.505C247.086 237.505 251.834 273.298 251.664 273.839C251.495 274.38 234.87 276.552 234.87 276.552C234.87 276.552 237.922 240.218 239.626 232.612C241.329 225.007 246.892 213.784 245.56 201.237C244.228 188.689 235.904 156.595 235.904 156.595Z" fill="white" stroke="#263238" stroke-linecap="round" stroke-linejoin="round"/>
<path d="M248.977 201.221C248.765 205.307 247.779 209.315 246.07 213.033" stroke="#263238" stroke-linecap="round" stroke-linejoin="round"/>
<path d="M244.342 163.539C244.342 163.539 248.831 187.81 249.057 197.386" stroke="#263238" stroke-linecap="round" stroke-linejoin="round"/>
<path d="M250.799 190.342C250.799 190.342 249.766 181.873 248.377 177.424" stroke="#263238" stroke-linecap="round" stroke-linejoin="round"/>
<path d="M237.882 121.625C237.882 122.966 237.236 124.048 236.429 124.048C235.622 124.048 234.976 122.958 234.976 121.625C234.976 120.293 235.622 119.203 236.429 119.203C237.236 119.203 237.882 120.261 237.882 121.625Z" fill="#263238"/>
<path d="M250.228 121.625C250.228 122.966 249.582 124.048 248.775 124.048C247.967 124.048 247.313 122.958 247.313 121.625C247.313 120.293 247.967 119.203 248.775 119.203C249.582 119.203 250.228 120.261 250.228 121.625Z" fill="#263238"/>
<path d="M232.02 117.032C233.223 116.238 234.585 115.719 236.011 115.51C237.437 115.3 238.891 115.407 240.271 115.821" stroke="#263238" stroke-linecap="round" stroke-linejoin="round"/>
<path d="M250.47 117.032C250.056 116.557 249.485 116.246 248.86 116.157C248.236 116.068 247.601 116.207 247.071 116.548C247.071 116.548 244.89 119.463 245.375 121.392" stroke="#263238" stroke-linecap="round" stroke-linejoin="round"/>
<path d="M245.616 133.042L240.998 133.769" stroke="#263238" stroke-linecap="round" stroke-linejoin="round"/>
<path d="M242.727 136.927C242.727 136.927 235.929 138.865 231.803 133.771" stroke="#263238" stroke-linecap="round" stroke-linejoin="round"/>
<path d="M235.04 147.09L228.371 144.935L234.201 151.983L235.04 147.09Z" fill="#263238" stroke="#263238" stroke-linecap="round" stroke-linejoin="round"/>
<path d="M355.651 156.401C354.058 158.86 352.895 161.571 352.211 164.419C351.258 168.803 350.306 173.769 350.306 173.769C350.306 173.769 355.077 169.95 355.651 169.732C356.224 169.514 355.271 164.774 355.271 164.774L358.501 162.102L355.651 156.401Z" fill="#263238" stroke="#263238" stroke-linecap="round" stroke-linejoin="round"/>
<path d="M357.556 92.0905C357.556 92.0905 352.784 93.8103 350.878 97.2418C348.973 100.673 344.007 108.691 344.774 111.363C345.541 114.036 345.913 115.182 345.913 115.182C345.913 115.182 339.05 127.205 339.809 128.351C340.738 129.508 341.758 130.588 342.861 131.581C342.861 131.581 345.913 145.888 347.253 146.841C348.593 147.794 352.404 148.367 352.404 148.367L357.935 155.238L388.278 142.869L388.665 136.191C388.665 136.191 398.968 122.829 400.3 115.199C401.632 107.569 391.903 94.3997 381.406 89.2484C370.91 84.0971 359.849 86.9392 357.556 92.0905Z" fill="white" stroke="#263238" stroke-linecap="round" stroke-linejoin="round"/>
<path d="M347.689 119.293C348.999 120.375 350.614 121.021 352.308 121.142" stroke="#263238" stroke-linecap="round" stroke-linejoin="round"/>
<path d="M381.407 89.2317C370.91 84.0804 359.849 86.9386 357.556 92.0899C357.556 92.0899 358.508 92.8569 361.593 92.6631C364.677 92.4694 371.903 89.4335 373.809 92.0899C375.714 94.7463 368.084 97.0555 365.226 101.06C362.368 105.065 363.127 105.259 365.412 108.327C367.697 111.395 368.084 112.719 367.705 114.051C367.325 115.384 366.752 116.53 369.231 116.918C371.71 117.305 372.46 111.193 376.288 113.099C380.115 115.004 380.68 120.729 379.34 124.548C379.012 125.615 378.472 126.605 377.752 127.459C377.031 128.312 376.146 129.011 375.149 129.513C375.149 129.513 375.714 131.992 379.913 134.091C382.665 135.388 385.656 136.103 388.698 136.191C388.698 136.191 399 122.828 400.332 115.198C401.665 107.568 391.903 94.4233 381.407 89.2317Z" fill="#263238" stroke="#263238" stroke-linecap="round" stroke-linejoin="round"/>
<path d="M388.666 123.419C389.291 125.009 389.534 126.724 389.377 128.425" stroke="#5C5C5C" stroke-linecap="round" stroke-linejoin="round"/>
<path d="M366.963 103.587C366.963 103.587 368.311 106.284 375.844 109.521C380.091 111.346 384.088 115.222 386.631 119.315" stroke="#5C5C5C" stroke-linecap="round" stroke-linejoin="round"/>
<path d="M387.754 111.686C387.754 111.686 394.504 115.723 393.406 123.563" stroke="#5C5C5C" stroke-linecap="round" stroke-linejoin="round"/>
<path d="M350.92 115.659C350.92 116.975 350.363 118.081 349.677 118.081C348.99 118.081 348.441 117.007 348.441 115.659C348.441 114.31 348.99 113.236 349.677 113.236C350.363 113.236 350.92 114.342 350.92 115.659Z" fill="#263238"/>
<path d="M346.884 110.411C346.884 110.411 350.315 106.374 353.343 110.605" stroke="#263238" stroke-linecap="round" stroke-linejoin="round"/>
<path d="M345.534 132.161C345.534 132.161 350.112 131.782 352.979 128.932" stroke="#263238" stroke-linecap="round" stroke-linejoin="round"/>
<path d="M375.141 129.498L373.042 130.063C372.107 132.865 370.538 135.413 368.456 137.508" fill="white"/>
<path d="M375.141 129.498L373.042 130.063C372.107 132.865 370.538 135.413 368.456 137.508" stroke="#263238" stroke-linecap="round" stroke-linejoin="round"/>
<path d="M388.867 139.985C388.867 139.985 359.098 152.395 357.765 153.921C356.433 155.447 355.666 156.4 355.666 156.4L357.951 168.616L392.67 145.71L388.867 139.985Z" fill="white" stroke="#263238" stroke-linecap="round" stroke-linejoin="round"/>
<path d="M302.29 224.078L303.945 236.23L296.21 238.071C294.081 239.507 291.858 240.799 289.557 241.938C286.432 243.408 284.22 243.957 283.098 243.957C281.975 243.957 277.946 242.302 277.946 242.302C277.946 242.302 280.708 227.389 283.84 225.734C286.973 224.078 295.289 221.68 302.29 224.078Z" fill="white" stroke="#263238" stroke-linecap="round" stroke-linejoin="round"/>
<path d="M263.348 229.173C263.348 229.173 277.881 227.017 279.496 226.791C281.111 226.565 285.342 230.093 285.342 230.093C285.342 230.093 293.553 240.266 293.085 241.009C291.906 242.874 290.622 241.817 290.622 241.817L290.525 243.028C290.525 243.028 289.629 244.53 284.01 244.546C278.39 244.562 276.38 243.181 274.999 243.068C273.618 242.955 262.734 240.178 262.734 240.178L263.348 229.173Z" fill="white" stroke="#263238" stroke-linecap="round" stroke-linejoin="round"/>
<path d="M258.471 228.091L263.808 229.052L263.219 241.082L258.366 240.767L258.471 228.091Z" fill="white" stroke="#263238" stroke-linecap="round" stroke-linejoin="round"/>
<path d="M199.297 158.879C199.297 158.879 184.118 157.822 180.936 160.292C177.755 162.763 179.322 195.423 182.002 207.251C184.683 219.08 188.357 237.973 190.076 238.853C191.796 239.734 259.175 242.463 259.175 242.463L259.885 227.808L207.912 216.609L204.206 170.361" fill="white"/>
<path d="M199.297 158.879C199.297 158.879 184.118 157.822 180.936 160.292C177.755 162.763 179.322 195.423 182.002 207.251C184.683 219.08 188.357 237.973 190.076 238.853C191.796 239.734 259.175 242.463 259.175 242.463L259.885 227.808L207.912 216.609L204.206 170.361" stroke="#263238" stroke-linecap="round" stroke-linejoin="round"/>
<path d="M290.663 241.817L288.321 238.522" stroke="#263238" stroke-linecap="round" stroke-linejoin="round"/>
<path d="M289.049 243.722L286.215 240.113" stroke="#263238" stroke-linecap="round" stroke-linejoin="round"/>
<path d="M298.438 225.225C298.438 225.225 284.632 220.986 281.87 223.933C279.109 226.88 273.215 234.615 274.507 235.535C275.799 236.456 280.393 232.952 281.499 232.217C282.312 231.628 283.054 230.948 283.711 230.19C284.994 231.458 286.588 232.365 288.333 232.819C290.079 233.272 291.913 233.257 293.65 232.774" fill="white"/>
<path d="M298.438 225.225C298.438 225.225 284.632 220.986 281.87 223.933C279.109 226.88 273.215 234.615 274.507 235.535C275.799 236.456 280.393 232.952 281.499 232.217C282.312 231.628 283.054 230.948 283.711 230.19C284.994 231.458 286.588 232.365 288.333 232.819C290.079 233.272 291.913 233.257 293.65 232.774" stroke="#263238" stroke-linecap="round" stroke-linejoin="round"/>
<path d="M283.235 239.758C283.235 239.758 281.927 244.497 282.428 245.296C282.629 245.634 282.936 245.895 283.301 246.041C283.665 246.187 284.068 246.209 284.446 246.104C284.895 245.913 285.303 245.639 285.649 245.296C285.649 245.296 285.851 241.259 285.245 240.266C284.64 239.273 284.139 238.579 283.235 239.758Z" fill="white" stroke="#263238" stroke-linecap="round" stroke-linejoin="round"/>
<path d="M279.707 240.387C279.707 240.387 278.399 245.119 278.899 245.926C279.098 246.264 279.404 246.526 279.767 246.672C280.131 246.818 280.533 246.84 280.91 246.734C281.362 246.545 281.773 246.271 282.121 245.926C282.121 245.926 282.323 241.889 281.717 240.896C281.112 239.903 280.619 239.184 279.707 240.387Z" fill="white" stroke="#263238" stroke-linecap="round" stroke-linejoin="round"/>
<path d="M276.162 240.566C276.162 240.566 275.161 244.199 275.548 244.813C275.701 245.072 275.935 245.273 276.214 245.386C276.492 245.498 276.801 245.515 277.09 245.435C277.438 245.291 277.754 245.08 278.019 244.813C278.019 244.813 278.172 241.729 277.712 240.954C277.252 240.178 276.856 239.637 276.162 240.566Z" fill="white" stroke="#263238" stroke-linecap="round" stroke-linejoin="round"/>
<path d="M271.987 240.711C271.987 240.711 271.18 243.133 271.503 243.529C271.644 243.706 271.834 243.838 272.049 243.91C272.264 243.982 272.495 243.989 272.714 243.932C272.981 243.841 273.229 243.705 273.449 243.529C273.449 243.529 273.57 241.478 273.207 240.969C272.843 240.46 272.536 240.097 271.987 240.711Z" fill="white" stroke="#263238" stroke-linecap="round" stroke-linejoin="round"/>
<path d="M301.182 222.786L303.023 239.911L309.094 238.805L306.89 221.68L301.182 222.786Z" fill="white" stroke="#263238" stroke-linecap="round" stroke-linejoin="round"/>
<path d="M305.051 220.583L308.733 242.302L333.948 238.992L336.709 214.317L305.051 220.583Z" fill="#16B99B" stroke="#263238" stroke-linecap="round" stroke-linejoin="round"/>
<path d="M324.85 240.187L333.949 238.992L336.71 214.317L330.066 215.633L324.85 240.187Z" fill="#263238" stroke="#263238" stroke-linecap="round" stroke-linejoin="round"/>
<path d="M400.98 289.817L398.921 250.254C398.921 250.254 407.577 212.305 405.736 191.313C403.895 170.32 389.717 148.423 389.717 148.423C389.717 148.423 356.395 169.222 352.899 172.904C349.403 176.585 343.153 182.835 341.313 188.729C339.472 194.623 332.294 230.876 332.294 230.876C332.294 230.876 324.744 256.285 322.355 271.569C320.901 280.863 321.079 286.668 321.442 289.801L400.98 289.817Z" fill="#16B99B" stroke="#263238" stroke-linecap="round" stroke-linejoin="round"/>
<path d="M388.464 155.344C390.747 154.418 392.979 153.37 395.149 152.203" stroke="#263238" stroke-linecap="round" stroke-linejoin="round"/>
<path d="M343.153 197.135C346.028 191.935 349.613 185.758 351.227 183.877C354.279 180.446 377.178 160.22 385.575 156.595" stroke="#263238" stroke-linecap="round" stroke-linejoin="round"/>
<path d="M338.857 205.04C338.857 205.04 340.222 202.457 342.087 199.065" stroke="#263238" stroke-linecap="round" stroke-linejoin="round"/>
<path d="M360.028 207.025C360.028 218.862 358.413 230.578 359.22 242.293C355.038 257.359 347.505 270.746 342.087 284.884" stroke="#263238" stroke-linecap="round" stroke-linejoin="round"/>
<path d="M363.095 182.738C363.095 182.738 359.656 187.89 360.035 197.425C360.084 198.596 360.1 200.195 360.092 202.092" stroke="#263238" stroke-linecap="round" stroke-linejoin="round"/>
<path d="M396.296 188.083C396.296 188.083 388.666 246.863 387.899 251.634C387.35 255.05 375.651 273.733 369.046 284.06" stroke="#263238" stroke-linecap="round" stroke-linejoin="round"/>
<path d="M345.865 273.137L330.258 270.424L331.275 265.668L346.543 268.389" stroke="#263238" stroke-linecap="round" stroke-linejoin="round"/>
</svg>
