<svg width="461" height="519" viewBox="0 0 461 519" fill="none" xmlns="http://www.w3.org/2000/svg">
<path d="M1 485.287H460.033" stroke="#263238" stroke-linecap="round" stroke-linejoin="round"/>
<path d="M279.676 247.946V75.6006H290.346" stroke="#263238" stroke-linecap="round" stroke-linejoin="round"/>
<path d="M279.676 268.456V263.888" stroke="#263238" stroke-linecap="round" stroke-linejoin="round"/>
<path d="M317.79 75.6006H427.904V284.526H279.676" stroke="#263238" stroke-linecap="round" stroke-linejoin="round"/>
<path d="M304.297 75.6006H313.972" stroke="#263238" stroke-linecap="round" stroke-linejoin="round"/>
<path d="M422.328 81.1641H285.251V278.962H422.328V81.1641Z" stroke="#263238" stroke-linecap="round" stroke-linejoin="round"/>
<path d="M415.957 91.7529V173.896H291.623V168.532" stroke="#263238" stroke-linecap="round" stroke-linejoin="round"/>
<path d="M291.623 155.975V86.9971H415.957" stroke="#263238" stroke-linecap="round" stroke-linejoin="round"/>
<path d="M291.623 164.42V159.208" stroke="#263238" stroke-linecap="round" stroke-linejoin="round"/>
<path d="M394.955 180.058H422.328" stroke="#263238" stroke-linecap="round" stroke-linejoin="round"/>
<path d="M385.222 180.058H389.099" stroke="#263238" stroke-linecap="round" stroke-linejoin="round"/>
<path d="M285.251 180.058H380.607" stroke="#263238" stroke-linecap="round" stroke-linejoin="round"/>
<path d="M346.896 173.896V171.062H358.364V172.666H353.795V173.896" stroke="#263238" stroke-linecap="round" stroke-linejoin="round"/>
<path d="M285.485 254.037C285.485 254.037 287.395 255.477 288.73 264.192C288.73 264.192 291.072 250.277 293.813 250.066C296.554 249.855 296.039 259.108 296.039 259.108C296.039 259.108 296.507 254.552 298.686 254.763C300.865 254.974 298.686 264.133 298.686 264.133C298.686 264.133 301.31 256.942 303.793 257.106C306.276 257.27 302.153 270.13 302.153 270.13C302.153 270.13 308.525 265.516 311.102 267.788C313.679 270.06 309.673 275.729 309.673 275.729C309.673 275.729 318.809 273.75 320.214 279.114" stroke="#263238" stroke-linecap="round" stroke-linejoin="round"/>
<path d="M320.227 273.949C320.227 273.949 324.209 271.337 327.348 272.555C327.348 272.555 325.357 269.522 327.348 267.671C329.339 265.82 331.893 272.555 331.893 272.555C331.893 272.555 332.186 261.252 336.168 261.826C340.15 262.4 336.168 272.555 336.168 272.555C336.168 272.555 343.278 266.254 344.988 268.444C346.698 270.634 343.817 273.949 343.817 273.949C345.102 273.584 346.46 273.56 347.758 273.878C349.056 274.196 350.249 274.846 351.219 275.765C351.219 275.765 355.986 270.904 361.281 270.201C361.281 270.201 357.767 259.976 359.465 257.914C361.164 255.853 364.279 266.839 364.279 266.839C364.279 266.839 365.638 259.694 370.136 259.132C370.136 259.132 366.423 257.118 367.524 254.06C368.625 251.003 373.743 254.787 373.743 254.787C373.743 254.787 371.635 249.41 374.973 247.935C378.311 246.459 379.658 252.432 379.658 252.432C379.658 252.432 380.595 246.178 384.508 246.576C388.42 246.974 387.155 254.119 387.155 254.119C387.155 254.119 390.844 248.403 392.824 248.977C396.771 250.148 395.576 259.191 395.576 259.191C395.576 259.191 401.082 255.361 402.511 257.129C403.939 258.898 396.771 263.935 396.771 263.935C396.771 263.935 402.241 264.532 405.65 267.73" stroke="#263238" stroke-linecap="round" stroke-linejoin="round"/>
<path d="M422.328 256.145C422.328 256.145 421.696 250.406 415.956 250.101C410.217 249.796 417.538 262.693 417.538 262.693C417.538 262.693 412.794 258.769 411.096 259.975C409.397 261.182 415.956 267.835 415.956 267.835C415.956 267.835 412.806 264.918 409.491 265.82C406.176 266.722 411.377 275.963 411.377 275.963C406.472 274.981 401.383 275.58 396.841 277.673" stroke="#263238" stroke-linecap="round" stroke-linejoin="round"/>
<path d="M226.64 434.007V484.982" stroke="#263238" stroke-linecap="round" stroke-linejoin="round"/>
<path d="M226.64 417.328V428.245" stroke="#263238" stroke-linecap="round" stroke-linejoin="round"/>
<path d="M12.0566 485.287V390.294H226.639V411.143" stroke="#263238" stroke-linecap="round" stroke-linejoin="round"/>
<path d="M43.319 400.684H24.6953V476.572" stroke="#263238" stroke-linecap="round" stroke-linejoin="round"/>
<path d="M214.001 484.982V400.684H54.1299" stroke="#263238" stroke-linecap="round" stroke-linejoin="round"/>
<path d="M205.076 380.455H199.161" stroke="#263238" stroke-linecap="round" stroke-linejoin="round"/>
<path d="M190.669 380.455H6.72754V390.224H231.969V380.455H208.847" stroke="#263238" stroke-linecap="round" stroke-linejoin="round"/>
<path d="M19.4131 317.86C19.4131 317.86 36.9826 319.254 37.7791 332.256C37.7791 332.256 19.9167 340.478 19.4131 317.86Z" stroke="#263238" stroke-linecap="round" stroke-linejoin="round"/>
<path d="M54.2822 321.093C54.2822 321.093 64.1329 307.776 80.0509 314.604C80.0509 314.604 70.3291 330.698 54.2822 321.093Z" stroke="#263238" stroke-linecap="round" stroke-linejoin="round"/>
<path d="M78.7038 279.044C78.7038 279.044 81.5384 304.66 58.2178 297.609C58.2178 297.609 65.6204 278.774 78.7038 279.044Z" stroke="#263238" stroke-linecap="round" stroke-linejoin="round"/>
<path d="M50.0655 264.777C50.0655 264.777 68.5135 274.733 54.9498 289.82C54.9498 289.82 42.0187 279.044 50.0655 264.777Z" stroke="#263238" stroke-linecap="round" stroke-linejoin="round"/>
<path d="M27.3779 287.676C27.3779 287.676 47.4306 285.662 47.4306 304.215C47.4306 304.215 27.3779 305.012 27.3779 287.676Z" stroke="#263238" stroke-linecap="round" stroke-linejoin="round"/>
<path d="M42.4053 342.739C42.1125 336.508 42.1125 328.496 45.9193 320.027C54.6923 300.49 57.6323 284.033 53.0759 272.438" stroke="#263238" stroke-linecap="round" stroke-linejoin="round"/>
<path d="M33.96 292.689C33.96 292.689 45.9775 297.468 50.0654 309.849" stroke="#263238" stroke-linecap="round" stroke-linejoin="round"/>
<path d="M72.3902 289.293C72.3902 289.293 65.4444 298.757 53.6494 297.738" stroke="#263238" stroke-linecap="round" stroke-linejoin="round"/>
<path d="M72.3911 317.287C72.3911 317.287 53.1466 322.827 45.4512 321.012" stroke="#263238" stroke-linecap="round" stroke-linejoin="round"/>
<path d="M25.1523 323.717C25.1523 323.717 33.7614 333.158 42.4056 333.005" stroke="#263238" stroke-linecap="round" stroke-linejoin="round"/>
<path d="M65.2808 342.739H23.477C23.2068 342.739 22.9476 342.847 22.7565 343.038C22.5654 343.229 22.458 343.488 22.458 343.758V346.933C22.458 347.066 22.4844 347.198 22.5358 347.321C22.5871 347.444 22.6624 347.555 22.7572 347.649C22.852 347.743 22.9644 347.817 23.088 347.867C23.2115 347.916 23.3438 347.941 23.477 347.94H24.6483L28.3731 380.455H60.3262L64.0509 347.94H65.2808C65.4135 347.941 65.5452 347.916 65.6681 347.866C65.7911 347.816 65.9027 347.742 65.9966 347.648C66.0904 347.554 66.1646 347.443 66.2146 347.32C66.2647 347.197 66.2897 347.065 66.2881 346.933V343.758C66.2897 343.625 66.2648 343.493 66.2148 343.369C66.1649 343.246 66.0909 343.133 65.9972 343.038C65.9036 342.944 65.792 342.868 65.669 342.817C65.546 342.766 65.4141 342.739 65.2808 342.739Z" stroke="#263238" stroke-miterlimit="10"/>
<path d="M27.3779 347.939H51.6942" stroke="#263238" stroke-linecap="round" stroke-linejoin="round"/>
<path d="M56.2734 347.939H59.9279" stroke="#263238" stroke-linecap="round" stroke-linejoin="round"/>
<path d="M322.709 213.146L318.024 238.611L279.816 261.826L285.099 271.524C285.099 271.524 329.269 258.054 330.346 254.903C331.424 251.753 341.603 218.382 341.603 218.382L322.709 213.146Z" fill="#263238"/>
<path d="M339.448 170.09L336.894 200.965L335.547 217.164C328.18 220.749 320.976 215.361 320.531 215.009C322.534 209.129 324.865 175.946 339.448 170.09Z" fill="#999999" stroke="#263238" stroke-linecap="round" stroke-linejoin="round"/>
<path d="M336.847 200.965L335.5 217.164C328.133 220.748 320.929 215.36 320.484 215.009C320.801 215.149 324.678 216.789 327.196 215.009C326.315 214.058 325.53 213.022 324.853 211.916C324.701 211.307 327.196 211.143 327.196 211.143C327.196 211.143 325.556 198.013 329.925 192.402C331.635 190.271 334.306 194.722 336.847 200.965Z" fill="#263238"/>
<path d="M365.907 456.016L367.079 459.459C365.303 462.389 363.315 465.185 361.128 467.822C361.128 467.822 359.957 467.448 358.036 469.146C356.853 470.326 356.123 471.885 355.975 473.55C355.975 473.55 347.026 484.279 335.676 484.431C324.326 484.584 327.746 478.868 327.746 478.868L365.907 456.016Z" fill="#16B99B" stroke="#263238" stroke-linecap="round" stroke-linejoin="round"/>
<path d="M355.237 428.713C355.237 428.713 340.01 423.103 337.035 434.324C337.035 434.324 339.752 446.681 338.124 453.439C336.496 460.198 328.297 473.105 327.793 475.554C326.797 480.356 327.547 480.684 327.547 480.684C327.547 480.684 333.509 484.127 341.521 480.438C349.532 476.748 363.401 460.865 365.568 457.597C367.734 454.33 358.774 441.445 358.774 441.445L355.237 428.713Z" fill="white"/>
<mask id="mask0_216_3008" style="mask-type:luminance" maskUnits="userSpaceOnUse" x="327" y="427" width="39" height="56">
<path d="M355.237 428.713C355.237 428.713 340.01 423.103 337.035 434.324C337.035 434.324 339.752 446.681 338.124 453.439C336.496 460.198 328.297 473.105 327.793 475.554C326.797 480.356 327.547 480.684 327.547 480.684C327.547 480.684 333.509 484.127 341.521 480.438C349.532 476.748 363.401 460.865 365.568 457.597C367.734 454.33 358.774 441.445 358.774 441.445L355.237 428.713Z" fill="white"/>
</mask>
<g mask="url(#mask0_216_3008)">
<path opacity="0.4" d="M355.237 428.713C355.237 428.713 340.01 423.103 337.035 434.324C337.035 434.324 339.752 446.681 338.124 453.439C336.496 460.198 328.297 473.105 327.793 475.554C326.797 480.356 327.547 480.684 327.547 480.684C327.547 480.684 333.509 484.127 341.521 480.438C349.532 476.748 363.401 460.865 365.568 457.597C367.734 454.33 358.774 441.445 358.774 441.445L355.237 428.713Z" fill="#16B99B"/>
</g>
<path d="M355.237 428.713C355.237 428.713 340.01 423.103 337.035 434.324C337.035 434.324 339.752 446.681 338.124 453.439C336.496 460.198 328.297 473.105 327.793 475.554C326.797 480.356 327.547 480.684 327.547 480.684C327.547 480.684 333.509 484.127 341.521 480.438C349.532 476.748 363.401 460.865 365.568 457.597C367.734 454.33 358.774 441.445 358.774 441.445L355.237 428.713Z" stroke="#263238" stroke-linecap="round" stroke-linejoin="round"/>
<path d="M347.447 444.584C348.772 452.143 347.427 459.929 343.641 466.604" stroke="#263238" stroke-linecap="round" stroke-linejoin="round"/>
<path d="M343.641 469.556C343.074 470.982 342.195 472.263 341.068 473.305C339.941 474.347 338.595 475.123 337.128 475.576C334.059 476.398 330.827 476.398 327.758 475.576L331.412 468.174C335.292 469.719 339.514 470.197 343.641 469.556Z" fill="#16B99B" stroke="#263238" stroke-linecap="round" stroke-linejoin="round"/>
<path d="M345.796 465.07C345.796 465.07 337.831 465.55 333.673 463.898" stroke="#263238" stroke-linecap="round" stroke-linejoin="round"/>
<path d="M347.272 460.678C347.272 460.678 339.822 461.849 335.664 459.507" stroke="#263238" stroke-linecap="round" stroke-linejoin="round"/>
<path d="M348.537 455.793C348.537 455.793 342.013 456.742 337.749 454.728" stroke="#263238" stroke-linecap="round" stroke-linejoin="round"/>
<path d="M349.263 450.265C349.263 450.265 342.001 452.537 338.569 450.265" stroke="#263238" stroke-linecap="round" stroke-linejoin="round"/>
<path d="M350.352 436.607L351.617 444.584C351.617 444.584 342.013 450.909 335.664 443.003V434.675C335.664 434.675 338.054 440.274 350.352 436.607Z" fill="#16B99B" stroke="#263238" stroke-linecap="round" stroke-linejoin="round"/>
<path d="M342.013 257.551C332.279 288.391 302.071 337.855 305.128 350.517C306.803 357.428 316.771 396.584 324.572 413.767C327.535 420.338 333.942 424.731 333.942 424.731L338.569 434.652C349.849 439.559 353.89 429.58 353.89 429.58L351.617 418.335C357.661 407.349 355.131 407.349 347.272 350.4C346.346 343.688 361.913 322.945 361.913 322.945L369.901 375.138L371.201 417.89L375.348 431.103C375.348 431.103 376.379 443.507 376.285 444.256H394.827L396.841 430.622C396.841 430.622 405.45 422.505 405.45 413.135C405.45 403.764 403.6 356.034 405.45 342.13C407.301 328.227 401.117 263.407 401.117 263.407L342.013 257.551Z" fill="#263238"/>
<path d="M215.964 230.071L241.732 232.39C242.316 232.443 242.856 232.725 243.231 233.175C243.607 233.626 243.789 234.207 243.736 234.791L242.081 253.18L211.908 250.465L213.564 232.075C213.616 231.491 213.899 230.952 214.349 230.576C214.799 230.2 215.38 230.019 215.964 230.071Z" fill="#16B99B"/>
<mask id="mask1_216_3008" style="mask-type:luminance" maskUnits="userSpaceOnUse" x="211" y="230" width="33" height="24">
<path d="M215.965 230.071L241.733 232.39C242.317 232.443 242.857 232.725 243.232 233.175C243.608 233.626 243.79 234.207 243.737 234.791L242.082 253.18L211.909 250.465L213.565 232.075C213.617 231.491 213.899 230.952 214.35 230.576C214.8 230.2 215.381 230.019 215.965 230.071Z" fill="white"/>
</mask>
<g mask="url(#mask1_216_3008)">
<path opacity="0.3" d="M215.965 230.071L241.733 232.39C242.317 232.443 242.857 232.725 243.232 233.175C243.608 233.626 243.79 234.207 243.737 234.791L242.082 253.18L211.909 250.465L213.565 232.075C213.617 231.491 213.899 230.952 214.35 230.576C214.8 230.2 215.381 230.019 215.965 230.071Z" fill="black" fill-opacity="0.7"/>
<path opacity="0.3" d="M242.138 232.071L234.751 231.437L233.482 246.211L240.869 246.845L242.138 232.071Z" fill="white" fill-opacity="0.7"/>
</g>
<path d="M215.964 230.071L241.732 232.39C242.316 232.443 242.856 232.725 243.231 233.175C243.607 233.626 243.789 234.207 243.736 234.791L242.081 253.18L211.908 250.465L213.564 232.075C213.616 231.491 213.899 230.952 214.349 230.576C214.799 230.2 215.38 230.019 215.964 230.071Z" stroke="#263238" stroke-width="1.00404" stroke-linecap="round" stroke-linejoin="round"/>
<path d="M260.442 231.699L286.116 233.905C286.698 233.955 287.236 234.234 287.612 234.681C287.988 235.127 288.172 235.705 288.122 236.287L286.548 254.609L256.486 252.027L258.06 233.705C258.11 233.123 258.389 232.585 258.835 232.209C259.282 231.832 259.86 231.649 260.442 231.699Z" fill="#16B99B"/>
<mask id="mask2_216_3008" style="mask-type:luminance" maskUnits="userSpaceOnUse" x="256" y="231" width="33" height="24">
<path d="M260.442 231.699L286.116 233.905C286.698 233.955 287.236 234.234 287.612 234.681C287.988 235.127 288.172 235.705 288.122 236.287L286.548 254.609L256.486 252.027L258.06 233.705C258.11 233.123 258.389 232.585 258.835 232.209C259.282 231.832 259.86 231.649 260.442 231.699Z" fill="white"/>
</mask>
<g mask="url(#mask2_216_3008)">
<path opacity="0.3" d="M260.442 231.699L286.116 233.905C286.698 233.955 287.236 234.234 287.612 234.681C287.988 235.127 288.172 235.705 288.122 236.287L286.548 254.609L256.486 252.027L258.06 233.705C258.11 233.123 258.389 232.585 258.835 232.209C259.282 231.832 259.86 231.649 260.442 231.699Z" fill="black" fill-opacity="0.7"/>
<path opacity="0.3" d="M285.976 235.845L281.519 235.462L280.249 250.236L284.707 250.619L285.976 235.845Z" fill="white" fill-opacity="0.7"/>
</g>
<path d="M260.442 231.699L286.116 233.905C286.698 233.955 287.236 234.234 287.612 234.681C287.988 235.127 288.172 235.705 288.122 236.287L286.548 254.609L256.486 252.027L258.06 233.705C258.11 233.123 258.389 232.585 258.835 232.209C259.282 231.832 259.86 231.649 260.442 231.699Z" stroke="#263238" stroke-linecap="round" stroke-linejoin="round"/>
<path d="M251.117 230.892L276.791 233.097C277.373 233.147 277.911 233.426 278.287 233.873C278.663 234.32 278.846 234.898 278.796 235.48L277.222 253.802L247.16 251.219L248.734 232.897C248.784 232.315 249.063 231.777 249.51 231.401C249.957 231.025 250.535 230.842 251.117 230.892Z" fill="#16B99B" stroke="#263238" stroke-linecap="round" stroke-linejoin="round"/>
<path d="M295.453 234.708L321.127 236.914C321.709 236.964 322.247 237.243 322.623 237.689C322.999 238.136 323.182 238.714 323.132 239.296L321.559 257.606L291.497 255.024L293.071 236.702C293.124 236.122 293.404 235.587 293.851 235.214C294.297 234.84 294.873 234.658 295.453 234.708Z" fill="#16B99B" stroke="#263238" stroke-linecap="round" stroke-linejoin="round"/>
<path opacity="0.3" d="M277.148 235.08L269.761 234.445L268.492 249.22L275.879 249.854L277.148 235.08Z" fill="white" fill-opacity="0.7"/>
<path opacity="0.3" d="M320.998 238.843L313.611 238.208L312.342 252.982L319.729 253.617L320.998 238.843Z" fill="white" fill-opacity="0.7"/>
<path d="M334.985 254.494L327.734 338.745L191.992 327.032L199.243 242.792C199.302 242.095 199.497 241.416 199.819 240.795C200.141 240.174 200.582 239.622 201.118 239.172C201.653 238.721 202.272 238.381 202.939 238.17C203.606 237.959 204.308 237.882 205.005 237.943L330.124 248.696C330.825 248.753 331.508 248.949 332.133 249.272C332.759 249.596 333.313 250.04 333.765 250.579C334.218 251.119 334.558 251.742 334.767 252.414C334.977 253.086 335.051 253.793 334.985 254.494Z" fill="#16B99B"/>
<mask id="mask3_216_3008" style="mask-type:luminance" maskUnits="userSpaceOnUse" x="191" y="237" width="145" height="102">
<path d="M334.985 254.494L327.734 338.745L191.992 327.032L199.243 242.792C199.302 242.095 199.497 241.416 199.819 240.795C200.141 240.174 200.582 239.622 201.118 239.172C201.653 238.721 202.272 238.381 202.939 238.17C203.606 237.959 204.308 237.882 205.005 237.943L330.124 248.696C330.825 248.753 331.508 248.949 332.133 249.272C332.759 249.596 333.313 250.04 333.765 250.579C334.218 251.119 334.558 251.742 334.767 252.414C334.977 253.086 335.051 253.793 334.985 254.494Z" fill="white"/>
</mask>
<g mask="url(#mask3_216_3008)">
<path opacity="0.3" d="M334.985 254.494L327.734 338.745L191.992 327.032L199.243 242.792C199.302 242.095 199.497 241.416 199.819 240.795C200.141 240.174 200.582 239.622 201.118 239.172C201.653 238.721 202.272 238.381 202.939 238.17C203.606 237.959 204.308 237.882 205.005 237.943L330.124 248.696C330.825 248.753 331.508 248.949 332.133 249.272C332.759 249.596 333.313 250.04 333.765 250.579C334.218 251.119 334.558 251.742 334.767 252.414C334.977 253.086 335.051 253.793 334.985 254.494Z" fill="black" fill-opacity="0.7"/>
</g>
<path d="M334.985 254.494L327.734 338.745L191.992 327.032L199.243 242.792C199.302 242.095 199.497 241.416 199.819 240.795C200.141 240.174 200.582 239.622 201.118 239.172C201.653 238.721 202.272 238.381 202.939 238.17C203.606 237.959 204.308 237.882 205.005 237.943L330.124 248.696C330.825 248.753 331.508 248.949 332.133 249.272C332.759 249.596 333.313 250.04 333.765 250.579C334.218 251.119 334.558 251.742 334.767 252.414C334.977 253.086 335.051 253.793 334.985 254.494Z" stroke="#263238" stroke-linecap="round" stroke-linejoin="round"/>
<path d="M334.984 254.493L327.734 338.745L227.002 330.077L234.264 245.837C234.323 245.14 234.519 244.461 234.841 243.84C235.162 243.219 235.604 242.667 236.139 242.217C236.674 241.766 237.293 241.426 237.96 241.215C238.628 241.004 239.33 240.927 240.027 240.988L330.135 248.73C330.832 248.789 331.511 248.985 332.132 249.307C332.754 249.629 333.305 250.07 333.756 250.605C334.206 251.141 334.547 251.76 334.757 252.427C334.968 253.094 335.045 253.796 334.984 254.493Z" fill="#16B99B" stroke="#263238" stroke-linecap="round" stroke-linejoin="round"/>
<path opacity="0.3" d="M327.91 256.907L241.808 249.504C241.234 249.453 240.703 249.179 240.328 248.741C239.954 248.303 239.766 247.736 239.805 247.161C239.856 246.587 240.129 246.056 240.567 245.682C241.005 245.307 241.573 245.119 242.147 245.158L328.25 252.561C328.824 252.612 329.355 252.886 329.729 253.323C330.104 253.761 330.292 254.329 330.253 254.904C330.202 255.478 329.928 256.009 329.49 256.383C329.052 256.758 328.485 256.946 327.91 256.907Z" fill="white" fill-opacity="0.7"/>
<path d="M395.436 444.737C395.436 444.737 388.947 440.11 375.523 441.035C375.523 441.035 374.54 457.141 372.712 461.826C370.885 466.511 361.257 474.628 359.465 476.022C357.673 477.416 357.673 482.277 357.673 482.277H398.458C397.934 475.306 396.849 468.388 395.213 461.592L395.436 444.737Z" fill="white"/>
<mask id="mask4_216_3008" style="mask-type:luminance" maskUnits="userSpaceOnUse" x="357" y="440" width="42" height="43">
<path d="M395.436 444.737C395.436 444.737 388.947 440.11 375.523 441.035C375.523 441.035 374.54 457.141 372.712 461.826C370.885 466.511 361.257 474.628 359.465 476.022C357.673 477.416 357.673 482.277 357.673 482.277H398.458C397.934 475.306 396.849 468.388 395.213 461.592L395.436 444.737Z" fill="white"/>
</mask>
<g mask="url(#mask4_216_3008)">
<path opacity="0.4" d="M395.436 444.737C395.436 444.737 388.947 440.11 375.523 441.035C375.523 441.035 374.54 457.141 372.712 461.826C370.885 466.511 361.257 474.628 359.465 476.022C357.673 477.416 357.673 482.277 357.673 482.277H398.458C397.934 475.306 396.849 468.388 395.213 461.592L395.436 444.737Z" fill="#16B99B"/>
</g>
<path d="M395.436 444.737C395.436 444.737 388.947 440.11 375.523 441.035C375.523 441.035 374.54 457.141 372.712 461.826C370.885 466.511 361.257 474.628 359.465 476.022C357.673 477.416 357.673 482.277 357.673 482.277H398.458C397.934 475.306 396.849 468.388 395.213 461.592L395.436 444.737Z" stroke="#263238" stroke-linecap="round" stroke-linejoin="round"/>
<path d="M387.014 446.821C387.014 446.821 386.053 461.65 383.746 465.562C382.514 467.712 380.992 469.682 379.225 471.419" stroke="#263238" stroke-linecap="round" stroke-linejoin="round"/>
<path d="M378.1 473.468C378.1 473.468 376.05 476.022 373.778 476.361C371.506 476.701 359.5 476.022 359.5 476.022L364.396 471.782C364.396 471.782 374.352 470.107 378.1 473.468Z" fill="#16B99B" stroke="#263238" stroke-linecap="round" stroke-linejoin="round"/>
<path d="M382.34 469.99C382.34 469.99 373.649 465 367.453 468.819" stroke="#263238" stroke-linecap="round" stroke-linejoin="round"/>
<path d="M384.437 466.605C384.437 466.605 378.37 461.861 371.213 464.461" stroke="#263238" stroke-linecap="round" stroke-linejoin="round"/>
<path d="M387.014 461.439C387.014 461.439 380.478 456.356 373.591 459.589" stroke="#263238" stroke-linecap="round" stroke-linejoin="round"/>
<path d="M387.904 454.985C387.904 454.985 379.975 450.721 374.212 453.954" stroke="#263238" stroke-linecap="round" stroke-linejoin="round"/>
<path d="M398.446 482.276V485.287H393.76C393.76 485.287 389.743 482.944 385.924 485.287H363.927C361.603 485.279 359.308 484.763 357.204 483.776L357.661 482.276H398.446Z" fill="#16B99B" stroke="#263238" stroke-linecap="round" stroke-linejoin="round"/>
<path d="M392.601 443.788L391.558 450.359C391.558 450.359 379.318 446.388 372.56 448.965V440.883C372.56 440.883 385.128 436.479 392.601 443.788Z" fill="#16B99B" stroke="#263238" stroke-linecap="round" stroke-linejoin="round"/>
<path d="M405.837 280.074C405.837 280.074 379.823 285.169 354.3 276.9C348.489 275.048 342.929 272.483 337.749 269.263C337.749 269.263 337.82 267.623 337.867 264.941C338.077 254.47 338.019 228.127 332.502 221.603C328.988 217.492 326.236 192.074 333.017 179.225L353.761 162.546C382.481 168.156 388.549 175.758 393.293 192.156C394.171 195.155 394.991 198.446 395.905 202.077C396.9 206.036 397.837 210.874 398.727 216.133C403.038 242.323 405.837 280.074 405.837 280.074Z" fill="#999999"/>
<mask id="mask5_216_3008" style="mask-type:luminance" maskUnits="userSpaceOnUse" x="328" y="162" width="78" height="120">
<path d="M405.837 280.074C405.837 280.074 379.823 285.169 354.3 276.9C348.489 275.048 342.929 272.483 337.749 269.263C337.749 269.263 337.82 267.623 337.867 264.941C338.077 254.47 338.019 228.127 332.502 221.603C328.988 217.492 326.236 192.074 333.017 179.225L353.761 162.546C382.481 168.156 388.549 175.758 393.293 192.156C394.171 195.155 394.991 198.446 395.905 202.077C396.9 206.036 397.837 210.874 398.727 216.133C403.038 242.323 405.837 280.074 405.837 280.074Z" fill="white"/>
</mask>
<g mask="url(#mask5_216_3008)">
<path opacity="0.2" d="M398.727 216.133L387.014 268.455C387.014 268.455 370.089 273.14 354.311 276.9C348.496 275.049 342.933 272.484 337.749 269.263C337.749 269.263 337.819 267.623 337.866 264.941C352.039 257.691 372.724 247.032 372.56 246.528C372.291 245.743 372.56 218.417 372.56 218.417C372.56 218.417 391.301 214.071 393.292 192.121C394.171 195.12 394.991 198.411 395.904 202.042C396.9 206.013 397.837 210.815 398.727 216.133Z" fill="black"/>
</g>
<path d="M405.837 280.074C405.837 280.074 379.823 285.169 354.3 276.9C348.489 275.048 342.929 272.483 337.749 269.263C337.749 269.263 337.82 267.623 337.867 264.941C338.077 254.47 338.019 228.127 332.502 221.603C328.988 217.492 326.236 192.074 333.017 179.225L353.761 162.546C382.481 168.156 388.549 175.758 393.293 192.156C394.171 195.155 394.991 198.446 395.905 202.077C396.9 206.036 397.837 210.874 398.727 216.133C403.038 242.323 405.837 280.074 405.837 280.074Z" stroke="#263238" stroke-linecap="round" stroke-linejoin="round"/>
<path d="M354.674 140.654C354.674 140.654 345.515 153.773 357.696 164.01C357.696 164.01 342.914 180.596 338.053 178.312C336.004 177.351 338.053 171.366 338.053 171.366L329.479 155.506L354.674 140.654Z" fill="white" stroke="#263238" stroke-linecap="round" stroke-linejoin="round"/>
<path d="M351.687 147.449C354.545 134.951 353.175 116.339 335.664 117.991C323.389 119.162 314.639 125.955 318.094 142.424C319.535 149.37 320.718 159.209 327.09 168.087C328.859 170.547 347.365 161.844 346.241 154.805" fill="white"/>
<path d="M351.687 147.449C354.545 134.951 353.175 116.339 335.664 117.991C323.389 119.162 314.639 125.955 318.094 142.424C319.535 149.37 320.718 159.209 327.09 168.087C328.859 170.547 347.365 161.844 346.241 154.805" stroke="#263238" stroke-linecap="round" stroke-linejoin="round"/>
<path d="M326.633 139.636C327.868 139.157 329.197 138.975 330.515 139.103C331.833 139.231 333.103 139.666 334.223 140.374" stroke="#263238" stroke-linecap="round" stroke-linejoin="round"/>
<path d="M317.825 141.17C318.05 140.691 318.44 140.308 318.924 140.093C319.409 139.878 319.954 139.845 320.461 139.999" stroke="#263238" stroke-linecap="round" stroke-linejoin="round"/>
<path d="M322.206 143.771C322.206 143.771 318.599 150.342 318.587 151.279C318.575 152.216 323.026 152.532 323.026 152.532" fill="white"/>
<path d="M322.206 143.771C322.206 143.771 318.599 150.342 318.587 151.279C318.575 152.216 323.026 152.532 323.026 152.532" stroke="#263238" stroke-linecap="round" stroke-linejoin="round"/>
<path d="M329.959 145.106C329.959 145.82 329.643 146.406 329.198 146.43C328.753 146.453 328.378 145.867 328.355 145.153C328.331 144.438 328.671 143.853 329.116 143.841C329.561 143.829 329.936 144.415 329.959 145.106Z" fill="#263238"/>
<path d="M324.864 157.311C324.864 157.311 331.787 156.011 333.063 153.574" stroke="#263238" stroke-linecap="round" stroke-linejoin="round"/>
<path d="M317.778 131.05L323.166 129.481C323.166 129.481 330.721 125.967 332.326 126.459C333.931 126.95 337.187 131.952 337.082 134.81C337.082 134.81 342.165 139.284 342.809 145.773L344.355 145.071C344.355 145.071 344.273 139.214 347.6 139.366C350.926 139.519 352.426 143.501 352.203 144.754C351.98 146.008 348.338 151.208 348.338 151.208C348.338 151.208 356.677 149.967 356.947 133.639C357.216 117.311 339.319 114.652 330.616 115.319C326.21 115.742 321.782 115.906 317.357 115.811L317.849 120.497L314.335 121.422L316.982 124.666L314.077 125.99L317.778 131.05Z" fill="#263238"/>
<path d="M347.951 309.088C347.951 309.088 369.152 314.698 374.891 330.488" stroke="white" stroke-linecap="round" stroke-linejoin="round"/>
<path d="M357.661 317.58C357.661 317.58 346.205 336.661 328.671 346.57" stroke="white" stroke-linecap="round" stroke-linejoin="round"/>
<path d="M341.556 424.883C341.556 424.883 348.068 423.419 349.848 420.889" stroke="white" stroke-linecap="round" stroke-linejoin="round"/>
<path d="M377.819 427.308C377.819 427.308 384.191 424.005 390.54 427.308" stroke="white" stroke-linecap="round" stroke-linejoin="round"/>
<path d="M398.446 338.476C398.446 338.476 387.752 366.177 382.341 368.742" stroke="white" stroke-linecap="round" stroke-linejoin="round"/>
<path d="M351.617 295.091C351.91 298.101 364.501 312.051 374.891 317.58" stroke="white" stroke-linecap="round" stroke-linejoin="round"/>
<path d="M362.358 283.319C363.874 287.054 364.189 291.169 363.26 295.091C362.25 298.476 362.25 302.083 363.26 305.469" stroke="white" stroke-linecap="round" stroke-linejoin="round"/>
<path d="M339.447 225.715C339.447 225.715 359.16 251.226 380.349 259.601" stroke="#263238" stroke-linecap="round" stroke-linejoin="round"/>
<path d="M359.852 184.473C359.852 184.473 359.781 201.82 372.291 209.644" stroke="#263238" stroke-linecap="round" stroke-linejoin="round"/>
<path d="M366.891 209.785C364.244 212.385 367.125 245.018 367.125 245.018C367.125 245.018 351.746 251.038 346.932 254.915C342.118 258.792 319.313 267.694 319.313 267.694C319.313 267.694 315.799 279.665 320.18 280.075C324.56 280.485 369.925 265.024 380.303 259.601C380.303 259.601 387.061 219.776 387.014 209.645" fill="white"/>
<path d="M366.891 209.785C364.244 212.385 367.125 245.018 367.125 245.018C367.125 245.018 351.746 251.038 346.932 254.915C342.118 258.792 319.313 267.694 319.313 267.694C319.313 267.694 315.799 279.665 320.18 280.075C324.56 280.485 369.925 265.024 380.303 259.601C380.303 259.601 387.061 219.776 387.014 209.645" stroke="#263238" stroke-linecap="round" stroke-linejoin="round"/>
<path d="M321.116 266.979C319.008 266.581 315.26 265.199 313.292 265.656C311.324 266.113 307.728 268.28 304.027 269.17C300.326 270.06 301.86 271.512 304.027 271.946C305.613 272.21 307.232 272.21 308.817 271.946L305.807 274.886C304.083 275.819 302.304 276.644 300.478 277.357C299.389 277.357 295.535 278.4 295.793 280.04C296.05 281.679 298.264 281.492 300.736 281.586C300.736 281.586 296.8 282.37 297.222 284.608C297.479 286.142 301.907 284.76 304.167 284.76C304.167 284.76 302.317 286.775 303.699 287.395C305.081 288.016 308.15 286.47 308.15 286.47C308.15 286.47 308.033 288.133 309.415 288.297C310.797 288.461 314.276 287.126 316.642 285.697C318.972 284.195 321.202 282.544 323.318 280.754C324.214 279.935 325.239 279.27 326.352 278.786" fill="white"/>
<path d="M321.116 266.979C319.008 266.581 315.26 265.199 313.292 265.656C311.324 266.113 307.728 268.28 304.027 269.17C300.326 270.06 301.86 271.512 304.027 271.946C305.613 272.21 307.232 272.21 308.817 271.946L305.807 274.886C304.083 275.819 302.304 276.644 300.478 277.357C299.389 277.357 295.535 278.4 295.793 280.04C296.05 281.679 298.264 281.492 300.736 281.586C300.736 281.586 296.8 282.37 297.222 284.608C297.479 286.142 301.907 284.76 304.167 284.76C304.167 284.76 302.317 286.775 303.699 287.395C305.081 288.016 308.15 286.47 308.15 286.47C308.15 286.47 308.033 288.133 309.415 288.297C310.797 288.461 314.276 287.126 316.642 285.697C318.972 284.195 321.202 282.544 323.318 280.754C324.214 279.935 325.239 279.27 326.352 278.786" stroke="#263238" stroke-linecap="round" stroke-linejoin="round"/>
<path d="M300.794 281.632C301.882 281.574 302.966 281.448 304.038 281.258C304.964 281.023 305.889 280.719 305.889 280.719" stroke="#263238" stroke-linecap="round" stroke-linejoin="round"/>
<path d="M304.18 284.807C305.595 284.608 306.959 284.139 308.197 283.425" stroke="#263238" stroke-linecap="round" stroke-linejoin="round"/>
<path d="M308.162 286.517C309.209 286.385 310.212 286.012 311.09 285.428" stroke="#263238" stroke-linecap="round" stroke-linejoin="round"/>
<path d="M306.182 275.776C306.182 275.776 305.339 277.709 306.182 278.787C307.026 279.864 308.045 279.958 308.197 281.129C308.349 282.301 310.364 282.301 311.09 283.062C311.816 283.823 312.367 285.287 314.686 285.404" stroke="#263238" stroke-linecap="round" stroke-linejoin="round"/>
<path d="M365.907 175.946C357.931 193.996 365.907 219.038 365.907 219.038C365.907 219.038 385.21 225.598 386.991 222.775C388.771 219.952 392.027 206.107 392.578 199.712" fill="#999999"/>
<path d="M365.907 175.946C357.931 193.996 365.907 219.038 365.907 219.038C365.907 219.038 385.21 225.598 386.991 222.775C388.771 219.952 392.027 206.107 392.578 199.712" stroke="#263238" stroke-linecap="round" stroke-linejoin="round"/>
<path d="M387.014 201.715C387.014 201.715 378.815 212.994 372.291 213.147" stroke="#263238" stroke-linecap="round" stroke-linejoin="round"/>
<path d="M93.9547 485.286C93.9547 485.286 91.9518 477.638 94.2944 474.803C98.4876 469.72 93.779 465.433 97.9957 463.687L99.7644 465.737C100.104 463.664 99.1201 457.327 106.944 456.507C116.409 455.512 116.584 462.364 117.1 464.706L116.936 461.532C120.977 461.532 118.88 465.561 124.994 472.144C126.597 473.922 127.817 476.009 128.579 478.278C129.341 480.547 129.627 482.949 129.422 485.333L93.9547 485.286Z" fill="#263238"/>
<path d="M166.095 485.287C162.288 483.589 165.779 469.228 165.779 469.228C165.779 469.228 160.66 465.796 165.779 462.201C167.758 463.878 170.159 464.983 172.721 465.396C175.282 465.809 177.908 465.514 180.315 464.543C180.315 464.543 181.31 454.938 187.343 456.168C187.343 456.168 188.889 462.259 192.414 465.738C201.96 475.108 214.294 476.28 216.356 480.777C216.976 482.136 216.227 485.24 216.227 485.24L166.095 485.287Z" fill="#263238"/>
<path d="M149.826 256.273L154.511 266.206C154.511 266.206 173.884 306.241 185.749 352.086C186.031 353.175 192.168 374.891 187.249 428.97L190.06 438.458L186.991 454.13C186.991 454.13 191.606 460.794 191.442 462.973C191.442 462.973 180.057 465.093 176.215 467.131C173.263 468.724 164.397 477.474 164.397 477.474C161.878 476.958 161.656 466.791 161.656 466.791C161.656 466.791 156.397 376.519 154.886 372.63C153.375 368.742 144.145 351.969 129.738 313.585C129.738 313.585 129.41 367.196 125.568 380.759C122.136 392.824 126.201 426.592 126.201 426.592L123.858 464.179C123.858 464.179 131.963 472.601 125.392 474.862C125.392 474.862 121 466.417 108.49 464.496C102.13 463.512 94.2123 474.803 94.2123 474.803C91.4246 473.913 95.3836 459.728 95.3836 459.728C86.5168 392.824 93.041 404.935 91.284 372.232C90.1127 351.243 84.1976 261.451 91.1786 254.153L149.826 256.273Z" fill="#BFBFBF"/>
<mask id="mask6_216_3008" style="mask-type:luminance" maskUnits="userSpaceOnUse" x="87" y="254" width="105" height="224">
<path d="M149.826 256.273L154.511 266.206C154.511 266.206 173.884 306.241 185.749 352.086C186.031 353.175 192.168 374.891 187.249 428.97L190.06 438.458L186.991 454.13C186.991 454.13 191.606 460.794 191.442 462.973C191.442 462.973 180.057 465.093 176.215 467.131C173.263 468.724 164.397 477.474 164.397 477.474C161.878 476.958 161.656 466.791 161.656 466.791C161.656 466.791 156.397 376.519 154.886 372.63C153.375 368.742 144.145 351.969 129.738 313.585C129.738 313.585 129.41 367.196 125.568 380.759C122.136 392.824 126.201 426.592 126.201 426.592L123.858 464.179C123.858 464.179 131.963 472.601 125.392 474.862C125.392 474.862 121 466.417 108.49 464.496C102.13 463.512 94.2123 474.803 94.2123 474.803C91.4246 473.913 95.3836 459.728 95.3836 459.728C86.5168 392.824 93.041 404.935 91.284 372.232C90.1127 351.243 84.1976 261.451 91.1786 254.153L149.826 256.273Z" fill="white"/>
</mask>
<g mask="url(#mask6_216_3008)">
<path opacity="0.2" d="M87.922 287.196C119.243 289.655 146.358 279.407 158.13 274.054C155.893 269.041 154.522 266.206 154.522 266.206L149.837 256.285L91.2719 254.153C88.7888 256.789 87.9103 270.177 87.922 287.196Z" fill="black"/>
<path opacity="0.2" d="M130.054 314.276C144.308 352.168 153.48 368.754 154.956 372.619C155.811 374.868 157.907 405.521 159.547 431.243C161.421 407.817 163.354 383.137 163.518 378.3C163.869 368.648 156.9 355.424 155.857 352.004C154.815 348.584 157.169 344.882 157.169 344.882L144.636 329.07C145.058 323.705 138.417 300.291 138.417 300.291C134.47 304.027 130.956 311.981 130.054 314.276Z" fill="black"/>
</g>
<path d="M149.826 256.273L154.511 266.206C154.511 266.206 173.884 306.241 185.749 352.086C186.031 353.175 192.168 374.891 187.249 428.97L190.06 438.458L186.991 454.13C186.991 454.13 191.606 460.794 191.442 462.973C191.442 462.973 180.057 465.093 176.215 467.131C173.263 468.724 164.397 477.474 164.397 477.474C161.878 476.958 161.656 466.791 161.656 466.791C161.656 466.791 156.397 376.519 154.886 372.63C153.375 368.742 144.145 351.969 129.738 313.585C129.738 313.585 129.41 367.196 125.568 380.759C122.136 392.824 126.201 426.592 126.201 426.592L123.858 464.179C123.858 464.179 131.963 472.601 125.392 474.862C125.392 474.862 121 466.417 108.49 464.496C102.13 463.512 94.2123 474.803 94.2123 474.803C91.4246 473.913 95.3836 459.728 95.3836 459.728C86.5168 392.824 93.041 404.935 91.284 372.232C90.1127 351.243 84.1976 261.451 91.1786 254.153L149.826 256.273Z" stroke="#263238" stroke-linecap="round" stroke-linejoin="round"/>
<path d="M129.784 313.585C129.784 313.585 136.941 299.775 143.043 295.922" stroke="#263238" stroke-linecap="round" stroke-linejoin="round"/>
<path d="M145.738 291.448C145.738 291.448 123.998 298.066 116.455 299.343" stroke="#263238" stroke-linecap="round" stroke-linejoin="round"/>
<path d="M134.61 269.264C135.548 287.36 141.931 290.441 135.782 294.388C135.782 294.388 135.957 302.857 132.889 308.221" stroke="#263238" stroke-linecap="round" stroke-linejoin="round"/>
<path d="M96.5195 262.341C96.5195 262.341 99.0847 290.159 90.5225 295.395" stroke="#263238" stroke-linecap="round" stroke-linejoin="round"/>
<path d="M90.5226 271.313C90.5226 271.313 89.8784 289.832 90.5226 304.754C90.5226 304.754 92.6661 367.829 94.8096 375.747C96.9531 383.665 91.5065 395.659 91.9751 429.884" stroke="#263238" stroke-linecap="round" stroke-linejoin="round"/>
<path d="M111.044 456.672C109.017 456.231 106.9 456.513 105.059 457.468" stroke="#263238" stroke-linecap="round" stroke-linejoin="round"/>
<path d="M123.928 464.18C121.242 461.565 118.128 459.43 114.722 457.866" stroke="#263238" stroke-linecap="round" stroke-linejoin="round"/>
<path d="M120.414 317.954C115.612 323.342 107.998 333.497 100.197 334.352" stroke="#263238" stroke-linecap="round" stroke-linejoin="round"/>
<path d="M127.758 309.193C126.282 311.056 124.759 312.883 123.213 314.698" stroke="#263238" stroke-linecap="round" stroke-linejoin="round"/>
<path d="M120.918 372.232C120.918 372.232 110.001 387.096 104.016 387.951" stroke="#263238" stroke-linecap="round" stroke-linejoin="round"/>
<path d="M133.755 310.903C133.755 310.903 153.198 365.053 159.957 370.394C159.957 370.394 160.718 410.218 160.941 424.121C161.163 438.025 164.361 456.508 164.361 456.508" stroke="#263238" stroke-linecap="round" stroke-linejoin="round"/>
<path d="M185.116 456.109C185.116 456.109 177.632 458.698 173.989 460.35C171.752 461.441 169.999 463.323 169.069 465.632" stroke="#263238" stroke-linecap="round" stroke-linejoin="round"/>
<path d="M166.177 350.868C155.741 344.32 141.978 336.133 136.426 324.596" stroke="#263238" stroke-linecap="round" stroke-linejoin="round"/>
<path d="M175.277 356.268C173.298 355.179 171.354 354.042 169.421 352.871" stroke="#263238" stroke-linecap="round" stroke-linejoin="round"/>
<path d="M142.387 276.584C136.777 276.502 130.674 275.764 125.837 272.59" stroke="#263238" stroke-linecap="round" stroke-linejoin="round"/>
<path d="M151.301 276.057C149.697 276.279 148.08 276.42 146.464 276.502" stroke="#263238" stroke-linecap="round" stroke-linejoin="round"/>
<path d="M161.714 151.711C157.427 145.222 135.582 143.571 121.562 143.571C107.541 143.571 90.5223 141.228 82.8386 157.041C76.9821 169.117 90.4755 232.976 90.4755 232.976L87.1724 260.549C112.566 268.513 156.068 266.756 156.068 266.756L150.212 241.831C150.212 241.831 166.001 158.188 161.714 151.711Z" fill="#263238"/>
<path d="M113.233 127.536C113.233 127.536 115.119 142.564 109.403 145.808C109.403 145.808 112.261 156.83 122.288 157.521C132.314 158.213 136.741 147.448 136.741 147.448L113.233 127.536Z" fill="white" stroke="#263238" stroke-linecap="round" stroke-linejoin="round"/>
<path d="M166.369 88.9505L192.028 86.5837C192.61 86.53 193.189 86.7096 193.638 87.0829C194.087 87.4562 194.37 87.9926 194.423 88.5741L196.113 106.886L166.114 109.653L164.425 91.3412C164.372 90.7676 164.546 90.1961 164.909 89.7492C165.272 89.3023 165.796 89.0156 166.369 88.9505Z" fill="#16B99B"/>
<mask id="mask7_216_3008" style="mask-type:luminance" maskUnits="userSpaceOnUse" x="164" y="86" width="33" height="24">
<path d="M166.369 88.9505L192.028 86.5837C192.61 86.53 193.189 86.7096 193.638 87.0829C194.087 87.4562 194.37 87.9926 194.423 88.5741L196.113 106.886L166.114 109.653L164.425 91.3412C164.372 90.7676 164.546 90.1961 164.909 89.7492C165.272 89.3023 165.796 89.0156 166.369 88.9505Z" fill="white"/>
</mask>
<g mask="url(#mask7_216_3008)">
<path opacity="0.3" d="M166.369 88.9505L192.028 86.5837C192.61 86.53 193.189 86.7096 193.638 87.0829C194.087 87.4562 194.37 87.9926 194.423 88.5741L196.113 106.886L166.114 109.653L164.425 91.3412C164.372 90.7676 164.546 90.1961 164.909 89.7492C165.272 89.3023 165.796 89.0156 166.369 88.9505Z" fill="black" fill-opacity="0.7"/>
<path opacity="0.3" d="M192.777 88.4362L185.394 89.1172L186.756 103.883L194.139 103.202L192.777 88.4362Z" fill="white" fill-opacity="0.7"/>
</g>
<path d="M166.369 88.9505L192.028 86.5837C192.61 86.53 193.189 86.7096 193.638 87.0829C194.087 87.4562 194.37 87.9926 194.423 88.5741L196.113 106.886L166.114 109.653L164.425 91.3412C164.372 90.7676 164.546 90.1961 164.909 89.7492C165.272 89.3023 165.796 89.0156 166.369 88.9505Z" stroke="#263238" stroke-linecap="round" stroke-linejoin="round"/>
<path d="M210.735 84.8349L236.394 82.468C236.976 82.4144 237.555 82.594 238.004 82.9673C238.453 83.3405 238.736 83.877 238.789 84.4585L240.479 102.77L210.433 105.542L208.744 87.2299C208.691 86.6483 208.87 86.0693 209.243 85.6201C209.617 85.171 210.153 84.8885 210.735 84.8349Z" fill="#16B99B"/>
<mask id="mask8_216_3008" style="mask-type:luminance" maskUnits="userSpaceOnUse" x="208" y="82" width="33" height="24">
<path d="M210.735 84.8349L236.394 82.468C236.976 82.4144 237.555 82.594 238.004 82.9673C238.453 83.3405 238.736 83.877 238.789 84.4585L240.479 102.77L210.433 105.542L208.744 87.2299C208.691 86.6483 208.87 86.0693 209.243 85.6201C209.617 85.171 210.153 84.8885 210.735 84.8349Z" fill="white"/>
</mask>
<g mask="url(#mask8_216_3008)">
<path opacity="0.3" d="M210.735 84.8349L236.394 82.468C236.976 82.4144 237.555 82.594 238.004 82.9673C238.453 83.3405 238.736 83.877 238.789 84.4585L240.479 102.77L210.433 105.542L208.744 87.2299C208.691 86.6483 208.87 86.0693 209.243 85.6201C209.617 85.171 210.153 84.8885 210.735 84.8349Z" fill="black" fill-opacity="0.7"/>
<path opacity="0.3" d="M236.612 84.4054L232.156 84.8164L233.518 99.5824L237.974 99.1714L236.612 84.4054Z" fill="white" fill-opacity="0.7"/>
</g>
<path d="M210.735 84.8349L236.394 82.468C236.976 82.4144 237.555 82.594 238.004 82.9673C238.453 83.3405 238.736 83.877 238.789 84.4585L240.479 102.77L210.433 105.542L208.744 87.2299C208.691 86.6483 208.87 86.0693 209.243 85.6201C209.617 85.171 210.153 84.8885 210.735 84.8349Z" stroke="#263238" stroke-linecap="round" stroke-linejoin="round"/>
<path d="M201.411 85.6875L227.071 83.3207C227.653 83.267 228.232 83.4466 228.681 83.8199C229.13 84.1932 229.412 84.7296 229.466 85.3111L231.155 103.623L201.063 106.398L199.374 88.0868C199.347 87.7949 199.379 87.5005 199.467 87.2209C199.555 86.9414 199.699 86.6823 199.888 86.4588C200.078 86.2353 200.31 86.052 200.572 85.9195C200.834 85.7871 201.119 85.7082 201.411 85.6875Z" fill="#16B99B" stroke="#263238" stroke-linecap="round" stroke-linejoin="round"/>
<path d="M245.733 81.5985L271.392 79.2317C271.974 79.1781 272.553 79.3576 273.002 79.7309C273.451 80.1042 273.734 80.6406 273.787 81.2222L275.477 99.5339L245.431 102.305L243.742 83.9935C243.689 83.412 243.868 82.8329 244.242 82.3838C244.615 81.9346 245.151 81.6522 245.733 81.5985Z" fill="#16B99B" stroke="#263238" stroke-linecap="round" stroke-linejoin="round"/>
<path opacity="0.3" d="M227.776 85.2116L220.393 85.8926L221.755 100.659L229.138 99.9776L227.776 85.2116Z" fill="white" fill-opacity="0.7"/>
<path opacity="0.3" d="M271.611 81.1569L264.228 81.8379L265.59 96.6039L272.973 95.9229L271.611 81.1569Z" fill="white" fill-opacity="0.7"/>
<path d="M288.157 94.0602L295.934 178.253L160.239 190.786L152.508 106.57C152.378 105.163 152.812 103.761 153.715 102.674C154.617 101.587 155.915 100.902 157.322 100.772L282.37 89.2345C283.067 89.1701 283.77 89.2439 284.439 89.4518C285.107 89.6596 285.728 89.9974 286.266 90.4458C286.803 90.8942 287.247 91.4442 287.571 92.0645C287.896 92.6847 288.095 93.3629 288.157 94.0602Z" fill="#16B99B"/>
<mask id="mask9_216_3008" style="mask-type:luminance" maskUnits="userSpaceOnUse" x="152" y="89" width="144" height="102">
<path d="M288.157 94.0602L295.934 178.253L160.239 190.786L152.508 106.57C152.378 105.163 152.812 103.761 153.715 102.674C154.617 101.587 155.915 100.902 157.322 100.772L282.37 89.2345C283.067 89.1701 283.77 89.2439 284.439 89.4518C285.107 89.6596 285.728 89.9974 286.266 90.4458C286.803 90.8942 287.247 91.4442 287.571 92.0645C287.896 92.6847 288.095 93.3629 288.157 94.0602Z" fill="white"/>
</mask>
<g mask="url(#mask9_216_3008)">
<path opacity="0.3" d="M288.157 94.0602L295.934 178.253L160.239 190.786L152.508 106.57C152.378 105.163 152.812 103.761 153.715 102.674C154.617 101.587 155.915 100.902 157.322 100.772L282.37 89.2345C283.067 89.1701 283.77 89.2439 284.439 89.4518C285.107 89.6596 285.728 89.9974 286.266 90.4458C286.803 90.8942 287.247 91.4442 287.571 92.0645C287.896 92.6847 288.095 93.3629 288.157 94.0602Z" fill="black" fill-opacity="0.7"/>
</g>
<path d="M288.157 94.0602L295.934 178.253L160.239 190.786L152.508 106.57C152.378 105.163 152.812 103.761 153.715 102.674C154.617 101.587 155.915 100.902 157.322 100.772L282.37 89.2345C283.067 89.1701 283.77 89.2439 284.439 89.4518C285.107 89.6596 285.728 89.9974 286.266 90.4458C286.803 90.8942 287.247 91.4442 287.571 92.0645C287.896 92.6847 288.095 93.363 288.157 94.0602Z" stroke="#263238" stroke-linecap="round" stroke-linejoin="round"/>
<path d="M288.156 94.0601L295.933 178.253L195.202 187.542L187.436 103.348C187.306 101.941 187.739 100.54 188.642 99.4527C189.545 98.3654 190.843 97.6812 192.25 97.5505L282.311 89.2343C283.013 89.1617 283.722 89.2294 284.397 89.4335C285.072 89.6376 285.7 89.974 286.244 90.4231C286.788 90.8723 287.237 91.4251 287.566 92.0495C287.894 92.6739 288.095 93.3573 288.156 94.0601Z" fill="#16B99B" stroke="#263238" stroke-linecap="round" stroke-linejoin="round"/>
<path opacity="0.3" d="M281.632 97.6798L195.576 105.621C195.003 105.66 194.437 105.474 194 105.102C193.562 104.73 193.287 104.202 193.234 103.63C193.191 103.058 193.375 102.492 193.745 102.054C194.115 101.616 194.642 101.341 195.213 101.287L281.269 93.346C281.842 93.3068 282.407 93.4931 282.845 93.865C283.283 94.237 283.557 94.7653 283.611 95.3372C283.648 95.9077 283.462 96.4701 283.093 96.9068C282.724 97.3434 282.2 97.6204 281.632 97.6798Z" fill="white" fill-opacity="0.7"/>
<path d="M130.416 97.7385C130.416 97.7385 110.563 93.7561 108.337 106.535C106.112 119.314 113.386 124.749 113.386 124.749L130.416 97.7385Z" fill="#263238"/>
<path d="M113.386 131.765C111.118 125.412 110.763 118.533 112.367 111.981C114.312 103.782 124.08 92.5027 138.897 102.752C146.522 108.034 146.991 119.501 144.613 129.996C144.051 132.503 144.473 134.951 143.641 137.258C140.713 145.34 135.36 151.56 132.432 151.7C127.547 151.946 117.779 146.031 118.177 140.877" fill="white"/>
<path d="M113.386 131.765C111.118 125.412 110.763 118.533 112.367 111.981C114.312 103.782 124.08 92.5027 138.897 102.752C146.522 108.034 146.991 119.501 144.613 129.996C144.051 132.503 144.473 134.951 143.641 137.258C140.713 145.34 135.36 151.56 132.432 151.7C127.547 151.946 117.779 146.031 118.177 140.877" stroke="#263238" stroke-linecap="round" stroke-linejoin="round"/>
<path d="M133.169 128.051C133.169 128.051 129.222 125.193 125.427 127.536" stroke="#263238" stroke-linecap="round" stroke-linejoin="round"/>
<path d="M140.619 127.536C140.619 127.536 143.606 124.796 145.55 125.194" stroke="#263238" stroke-linecap="round" stroke-linejoin="round"/>
<path d="M127.594 132.432C127.594 133.158 127.957 133.756 128.414 133.756C128.87 133.756 129.245 133.158 129.245 132.432C129.245 131.706 128.87 131.12 128.414 131.12C127.957 131.12 127.594 131.706 127.594 132.432Z" fill="#263238"/>
<path d="M140.619 133.017C141.078 133.017 141.45 132.43 141.45 131.705C141.45 130.981 141.078 130.394 140.619 130.394C140.159 130.394 139.787 130.981 139.787 131.705C139.787 132.43 140.159 133.017 140.619 133.017Z" fill="#263238"/>
<path d="M138.944 130.3C137.492 132.197 139.53 139.424 138.944 139.94C138.358 140.455 134.634 138.991 134.634 138.991C134.634 138.991 133.767 137.89 135.582 137.304" stroke="#263238" stroke-linecap="round" stroke-linejoin="round"/>
<path d="M135.64 143.571C135.64 143.571 130.639 143.571 129.304 141.744" stroke="#263238" stroke-linecap="round" stroke-linejoin="round"/>
<path d="M123.67 116.503L123.283 122.547C123.283 122.547 118.996 124.76 117.919 127.009C117.278 128.482 117.043 130.1 117.239 131.694C117.239 131.694 114.639 127.15 113.234 127.525C112.73 127.653 112.73 129.563 112.73 129.563C112.73 129.563 106.873 116.491 112.168 109.58C117.462 102.67 123.67 116.503 123.67 116.503Z" fill="#757575" stroke="#263238" stroke-linecap="round" stroke-linejoin="round"/>
<path d="M115.412 130.394C115.412 130.394 114.241 126.002 110.294 124.842C106.347 123.682 109.052 134.212 112.414 135.583C115.776 136.953 116.619 137.925 116.818 136.672" fill="white"/>
<path d="M115.412 130.394C115.412 130.394 114.241 126.002 110.294 124.842C106.347 123.682 109.052 134.212 112.414 135.583C115.776 136.953 116.619 137.925 116.818 136.672" stroke="#263238" stroke-linecap="round" stroke-linejoin="round"/>
<path d="M110.036 115.741C109.708 115.296 108.256 104.028 115.694 98.968C123.132 93.908 135.7 94.4468 143.7 101.451C151.7 108.456 149.427 120.602 143.7 124.748V119.677C143.7 119.677 141.064 124.76 133.158 125.182L135.571 121.457C135.571 121.457 131.682 123.8 124.83 123.6C124.83 123.6 128.051 121.035 127.582 118.751C127.594 118.751 116.713 124.877 110.036 115.741Z" fill="#263238"/>
<path d="M111.43 156.361C105.948 157.017 98.1475 164.174 103.231 176.882C106.475 184.941 133.134 180.15 133.134 180.15C143.02 176.074 157.462 161.41 168.062 154.604C168.062 154.604 165.825 140.549 163.248 142.54C151.266 151.711 141.415 152.344 124.701 160.379C124.736 160.332 114.874 155.951 111.43 156.361Z" fill="white" stroke="#263238" stroke-linecap="round" stroke-linejoin="round"/>
<path d="M123.67 171.964C123.506 177.211 125.661 178.137 129.292 179.378L123.67 171.964Z" fill="white"/>
<path d="M123.67 171.964C123.506 177.211 125.661 178.137 129.292 179.378" stroke="#263238" stroke-linecap="round" stroke-linejoin="round"/>
<path d="M162.452 143.571C162.698 142.81 167.137 135.009 168.391 133.029C169.644 131.05 175.243 129.258 177.41 128.063C179.577 126.868 179.752 125.053 180.924 126.353C182.095 127.653 180.924 130.616 174.435 133.767C176.74 133.895 179.051 133.895 181.357 133.767C183.09 133.509 184.637 131.94 185.41 133.029C186.183 134.119 186.335 136.075 182.47 137.269C180.631 137.936 178.706 138.33 176.754 138.441C178.645 138.845 180.504 139.385 182.317 140.057C182.938 140.514 183.864 141.58 184.789 141.744C185.714 141.908 186.722 142.915 185.023 144.086C184.421 144.419 183.746 144.6 183.058 144.612C182.37 144.624 181.69 144.468 181.076 144.157C181.076 144.157 185.562 146.324 184.168 147.671C182.774 149.018 178.312 148.748 178.312 148.748C178.312 148.748 171.694 156.818 166.095 155.132" fill="white"/>
<path d="M162.452 143.571C162.698 142.81 167.137 135.009 168.391 133.029C169.644 131.05 175.243 129.258 177.41 128.063C179.577 126.868 179.752 125.053 180.924 126.353C182.095 127.653 180.924 130.616 174.435 133.767C176.74 133.895 179.051 133.895 181.357 133.767C183.09 133.509 184.637 131.94 185.41 133.029C186.183 134.119 186.335 136.075 182.47 137.269C180.631 137.936 178.706 138.33 176.754 138.441C178.645 138.845 180.504 139.385 182.317 140.057C182.938 140.514 183.864 141.58 184.789 141.744C185.714 141.908 186.722 142.915 185.023 144.086C184.421 144.419 183.746 144.6 183.058 144.612C182.37 144.624 181.69 144.468 181.076 144.157C181.076 144.157 185.562 146.324 184.168 147.671C182.774 149.018 178.312 148.748 178.312 148.748C178.312 148.748 171.694 156.818 166.095 155.132" stroke="#263238" stroke-linecap="round" stroke-linejoin="round"/>
<path d="M170.382 133.018C170.761 133.106 171.108 133.296 171.385 133.569C171.662 133.842 171.858 134.186 171.951 134.564C172.338 135.946 173.474 136.028 174.165 137.574C174.856 139.12 174.657 141.51 175.336 142.329C176.016 143.149 175.336 146.605 175.336 146.605" stroke="#263238" stroke-linecap="round" stroke-linejoin="round"/>
<path d="M112.577 155.366C109.708 151.712 103.266 153.363 103.266 153.363" stroke="white" stroke-linecap="round" stroke-linejoin="round"/>
<path d="M99.752 146.628C99.752 146.628 106.382 147.6 108.338 153.117" stroke="white" stroke-linecap="round" stroke-linejoin="round"/>
<path d="M111.43 181.557C111.43 181.557 104.965 186.558 95.126 179.378" stroke="white" stroke-linecap="round" stroke-linejoin="round"/>
<path d="M103.266 183.067C103.266 183.067 99.9863 187.6 91.998 187.542" stroke="white" stroke-linecap="round" stroke-linejoin="round"/>
<path d="M144.355 240.098C144.355 240.098 127.442 253.579 110.259 251.811" stroke="white" stroke-linecap="round" stroke-linejoin="round"/>
<path d="M98.6396 210.476C98.6396 210.476 124.889 229.732 144.32 230.962" stroke="white" stroke-linecap="round" stroke-linejoin="round"/>
<path d="M99.3311 353.024C103.846 350.519 109.155 349.856 114.148 351.173C122.71 353.328 144.953 385.141 148.045 388.245C151.138 391.349 156.924 392.93 162.253 398.541C170.687 407.337 182.95 415.114 184.192 415.114C185.433 415.114 186.429 414.341 187.975 414.037C189.521 413.732 201.492 412.643 201.492 412.643C201.492 412.643 205.51 413.533 201.492 415.255C197.474 416.977 197.779 418.511 197.779 418.511C197.779 418.511 196.971 419.811 198.587 421.053C200.204 422.295 201.152 421.615 203.46 424.883C205.767 428.151 200.204 426.3 200.204 426.3C200.204 426.3 201.433 429.814 198.962 429.463C196.491 429.112 198.657 432.895 194.64 432.379C190.622 431.864 182.025 426.441 179.87 420.76C179.87 420.76 144.801 403.999 139.554 399.677C134.306 395.355 112.215 372.175 110.704 371.87" fill="#263238"/>
<path d="M191.079 384.415H216.848C217.432 384.415 217.992 384.647 218.405 385.06C218.818 385.473 219.05 386.033 219.05 386.617V405.007H188.877V386.617C188.877 386.033 189.109 385.473 189.522 385.06C189.935 384.647 190.495 384.415 191.079 384.415Z" fill="#16B99B"/>
<mask id="mask10_216_3008" style="mask-type:luminance" maskUnits="userSpaceOnUse" x="188" y="384" width="32" height="22">
<path d="M191.079 384.415H216.848C217.432 384.415 217.992 384.647 218.405 385.06C218.818 385.473 219.05 386.033 219.05 386.617V405.007H188.877V386.617C188.877 386.033 189.109 385.473 189.522 385.06C189.935 384.647 190.495 384.415 191.079 384.415Z" fill="white"/>
</mask>
<g mask="url(#mask10_216_3008)">
<path opacity="0.3" d="M191.079 384.415H216.848C217.432 384.415 217.992 384.647 218.405 385.06C218.818 385.473 219.05 386.033 219.05 386.617V405.007H188.877V386.617C188.877 386.033 189.109 385.473 189.522 385.06C189.935 384.647 190.495 384.415 191.079 384.415Z" fill="black" fill-opacity="0.7"/>
<path opacity="0.3" d="M217.374 386.359H209.96V401.188H217.374V386.359Z" fill="white" fill-opacity="0.7"/>
</g>
<path d="M191.079 384.415H216.848C217.432 384.415 217.992 384.647 218.405 385.06C218.818 385.473 219.05 386.033 219.05 386.617V405.007H188.877V386.617C188.877 386.033 189.109 385.473 189.522 385.06C189.935 384.647 190.495 384.415 191.079 384.415Z" stroke="#263238" stroke-linecap="round" stroke-linejoin="round"/>
<path d="M235.588 384.415H261.356C261.94 384.415 262.501 384.647 262.914 385.06C263.326 385.473 263.558 386.033 263.558 386.617V405.007H233.386V386.617C233.386 386.328 233.443 386.042 233.553 385.774C233.664 385.507 233.826 385.264 234.031 385.06C234.235 384.856 234.478 384.693 234.745 384.583C235.012 384.472 235.299 384.415 235.588 384.415Z" fill="#16B99B"/>
<mask id="mask11_216_3008" style="mask-type:luminance" maskUnits="userSpaceOnUse" x="233" y="384" width="31" height="22">
<path d="M235.588 384.415H261.356C261.94 384.415 262.501 384.647 262.914 385.06C263.326 385.473 263.558 386.033 263.558 386.617V405.007H233.386V386.617C233.386 386.328 233.443 386.042 233.553 385.774C233.664 385.507 233.826 385.264 234.031 385.06C234.235 384.856 234.478 384.693 234.745 384.583C235.012 384.472 235.299 384.415 235.588 384.415Z" fill="white"/>
</mask>
<g mask="url(#mask11_216_3008)">
<path opacity="0.3" d="M235.588 384.415H261.356C261.94 384.415 262.501 384.647 262.914 385.06C263.326 385.473 263.558 386.033 263.558 386.617V405.007H233.386V386.617C233.386 386.328 233.443 386.042 233.553 385.774C233.664 385.507 233.826 385.264 234.031 385.06C234.235 384.856 234.478 384.693 234.745 384.583C235.012 384.472 235.299 384.415 235.588 384.415Z" fill="black" fill-opacity="0.7"/>
<path opacity="0.3" d="M261.391 386.359H256.917V401.188H261.391V386.359Z" fill="white" fill-opacity="0.7"/>
</g>
<path d="M235.588 384.415H261.356C261.94 384.415 262.501 384.647 262.914 385.06C263.326 385.473 263.558 386.033 263.558 386.617V405.007H233.386V386.617C233.386 386.328 233.443 386.042 233.553 385.774C233.664 385.507 233.826 385.264 234.031 385.06C234.235 384.856 234.478 384.693 234.745 384.583C235.012 384.472 235.299 384.415 235.588 384.415Z" stroke="#263238" stroke-linecap="round" stroke-linejoin="round"/>
<path d="M226.218 384.415H251.986C252.57 384.415 253.13 384.647 253.543 385.06C253.956 385.473 254.188 386.033 254.188 386.617V405.007H224.016V386.617C224.016 386.328 224.073 386.042 224.183 385.774C224.294 385.507 224.456 385.264 224.661 385.06C224.865 384.856 225.108 384.693 225.375 384.583C225.642 384.472 225.929 384.415 226.218 384.415Z" fill="#16B99B" stroke="#263238" stroke-linecap="round" stroke-linejoin="round"/>
<path d="M270.727 384.415H296.496C297.08 384.415 297.64 384.647 298.053 385.06C298.466 385.473 298.698 386.033 298.698 386.617V405.007H268.525V386.617C268.525 386.033 268.757 385.473 269.17 385.06C269.583 384.647 270.143 384.415 270.727 384.415Z" fill="#16B99B" stroke="#263238" stroke-linecap="round" stroke-linejoin="round"/>
<path opacity="0.3" d="M252.513 386.359H245.099V401.188H252.513V386.359Z" fill="white" fill-opacity="0.7"/>
<path opacity="0.3" d="M296.531 386.359H289.116V401.188H296.531V386.359Z" fill="white" fill-opacity="0.7"/>
<path d="M311.828 400.719V485.275H175.594V400.719C175.594 399.306 176.155 397.95 177.155 396.951C178.154 395.951 179.51 395.39 180.923 395.39H306.498C307.912 395.39 309.267 395.951 310.267 396.951C311.266 397.95 311.828 399.306 311.828 400.719Z" fill="#16B99B"/>
<mask id="mask12_216_3008" style="mask-type:luminance" maskUnits="userSpaceOnUse" x="175" y="395" width="137" height="91">
<path d="M311.828 400.719V485.275H175.594V400.719C175.594 399.306 176.155 397.95 177.155 396.951C178.154 395.951 179.51 395.39 180.923 395.39H306.498C307.912 395.39 309.267 395.951 310.267 396.951C311.266 397.95 311.828 399.306 311.828 400.719Z" fill="white"/>
</mask>
<g mask="url(#mask12_216_3008)">
<path opacity="0.3" d="M311.828 400.719V485.275H175.594V400.719C175.594 399.306 176.155 397.95 177.155 396.951C178.154 395.951 179.51 395.39 180.923 395.39H306.498C307.912 395.39 309.267 395.951 310.267 396.951C311.266 397.95 311.828 399.306 311.828 400.719Z" fill="black" fill-opacity="0.7"/>
</g>
<path d="M311.828 400.719V485.275H175.594V400.719C175.594 399.306 176.155 397.95 177.155 396.951C178.154 395.951 179.51 395.39 180.923 395.39H306.498C307.912 395.39 309.267 395.951 310.267 396.951C311.266 397.95 311.828 399.306 311.828 400.719Z" stroke="#263238" stroke-linecap="round" stroke-linejoin="round"/>
<path d="M311.828 400.719V485.275H210.733V400.719C210.733 399.306 211.295 397.95 212.294 396.951C213.294 395.951 214.649 395.39 216.063 395.39H306.499C307.912 395.39 309.268 395.951 310.268 396.951C311.267 397.95 311.828 399.306 311.828 400.719Z" fill="#16B99B" stroke="#263238" stroke-linecap="round" stroke-linejoin="round"/>
<path opacity="0.3" d="M304.987 403.729H218.569C217.985 403.729 217.425 403.497 217.012 403.084C216.599 402.671 216.367 402.111 216.367 401.527C216.36 401.234 216.413 400.943 216.521 400.67C216.629 400.398 216.79 400.149 216.995 399.94C217.2 399.73 217.445 399.564 217.715 399.45C217.985 399.337 218.276 399.278 218.569 399.278H304.987C305.571 399.278 306.132 399.51 306.544 399.923C306.957 400.336 307.189 400.896 307.189 401.48C307.196 401.773 307.143 402.065 307.035 402.337C306.928 402.61 306.766 402.858 306.561 403.068C306.356 403.277 306.111 403.444 305.841 403.557C305.571 403.671 305.281 403.729 304.987 403.729Z" fill="white" fill-opacity="0.7"/>
<path d="M145.011 485.276C137.984 485.276 128.109 480.755 116.736 475.976C104.941 471.01 91.5063 465.762 77.8723 464.977C72.7889 464.685 75.8694 485.276 75.8694 485.276H64.742C64.742 485.276 53.7552 470.611 52.4785 457.481C52.4785 457.481 61.4507 451.941 63.6059 451.625C64.349 451.547 65.0959 451.512 65.8431 451.519C68.256 451.519 71.477 451.625 71.477 451.625C70.9617 451.32 62.7508 446.377 58.2179 441.352C54.4814 437.206 52.7713 430.658 52.6425 426.746C52.7873 424.156 53.0728 421.575 53.4976 419.016L111.969 419.988C111.969 419.988 112.601 420.433 113.726 421.265C120.508 426.207 145.292 444.62 157.685 458.5C161.691 462.986 164.396 466.992 164.795 469.92C166.657 483.425 155.612 485.276 145.011 485.276Z" fill="#757575" stroke="#263238" stroke-linecap="round" stroke-linejoin="round"/>
<path d="M157.697 458.477L129.257 464.978C124.382 467.767 120.116 471.507 116.713 475.976C104.918 471.01 91.4829 465.762 77.8489 464.978C72.7655 464.685 75.846 485.276 75.846 485.276H64.7186C64.7186 485.276 53.7552 470.611 52.4785 457.481C52.4785 457.481 62.8328 472.24 65.3628 479.736C65.3628 479.736 69.3804 465.868 75.9045 460.304C72.9579 456.985 69.6095 454.046 65.9368 451.554C68.3496 451.554 71.5707 451.66 71.5707 451.66C71.0554 451.355 62.8445 446.412 58.3116 441.388C54.5751 437.241 53.0642 430.682 52.7362 426.781C52.5722 424.86 52.8065 419.051 52.8065 419.051C52.8065 419.051 96.414 425.27 113.82 421.3C120.519 426.219 145.304 444.597 157.697 458.477Z" fill="#263238"/>
<path d="M111.98 457.48C111.98 457.48 135.149 469.088 141.333 473.633C147.518 478.177 149.357 476.947 149.357 476.947" stroke="#263238" stroke-linecap="round" stroke-linejoin="round"/>
<path d="M58.2295 456.251C58.2295 456.251 63.7932 464.743 64.086 467.285" stroke="#263238" stroke-linecap="round" stroke-linejoin="round"/>
<path d="M151.418 293.253C151.418 293.253 163.752 287.888 162.581 310.705C161.41 333.522 165.591 334.693 165.591 334.693C165.591 334.693 134.552 347.437 126.669 336.544C118.786 325.651 126.271 295.841 151.418 293.253Z" fill="#263238"/>
<path d="M149.697 334.693C149.697 334.693 136.93 340.714 135.77 346.278C134.61 351.841 118.622 343.466 118.622 343.466L130.206 326.811L149.697 334.693Z" fill="white" stroke="#263238" stroke-linecap="round" stroke-linejoin="round"/>
<path d="M65.9832 395.765C36.7007 433.059 60.4664 451.051 93.6611 448.075L87.0081 458.617L103.711 461.51C103.711 461.51 116.513 453.147 133.966 444.21C163.67 428.983 175.676 429.897 172.618 414.658C169.561 399.42 133.157 389.534 96.6596 405.592C96.6244 405.581 76.806 382.037 65.9832 395.765Z" fill="#757575" stroke="#263238" stroke-linecap="round" stroke-linejoin="round"/>
<path d="M76.1978 476.948C76.1978 476.948 83.823 455.865 87.0089 454.693C90.1948 453.522 102.236 458.09 103.712 461.487C103.712 461.487 107.776 455.255 109.439 457.903C111.103 460.55 108.701 464.93 109.439 468.28C110.177 471.63 118.412 476.315 121.703 476.936C124.994 477.557 126.868 479.408 126.868 481.258V485.276H76.1978C75.6356 483.96 75.3457 482.543 75.3457 481.112C75.3457 479.681 75.6356 478.264 76.1978 476.948Z" fill="white" stroke="#263238" stroke-linecap="round" stroke-linejoin="round"/>
<path d="M109.439 464.978C109.439 464.978 102.727 468.292 100.279 467.32C97.8314 466.348 101.533 472.884 102.458 473.505C103.383 474.125 109.486 471.338 109.486 471.338" stroke="#263238" stroke-linecap="round" stroke-linejoin="round"/>
<path d="M82.5342 461.498C82.5342 461.498 91.6469 461.674 94.4229 465.012" stroke="#263238" stroke-linecap="round" stroke-linejoin="round"/>
<path d="M76.1973 476.948C76.1973 476.948 90.7214 480.345 91.9513 480.345C93.9487 479.949 95.9082 479.38 97.8078 478.647C97.8078 478.647 101.79 480.65 104.437 481.891C107.084 483.133 124.349 481.891 124.349 481.891" stroke="#263238" stroke-linecap="round" stroke-linejoin="round"/>
<path d="M93.6611 448.099C107.529 446.6 134.469 429.51 143.84 423.572C153.21 417.633 155.553 419.191 155.553 419.191" stroke="#263238" stroke-linecap="round" stroke-linejoin="round"/>
<path d="M52.7246 418.992L54.9384 402.184L60.2795 398.154C68.9354 377.153 108.151 337.926 118.845 338.055C134.903 338.242 137.738 355.097 139.717 373.545C141.697 391.993 116.678 389.217 116.678 389.217V393.844L102.446 401.212L111.067 400.942C111.067 400.942 86.2707 425.048 52.7246 418.992Z" fill="#16B99B" stroke="#263238" stroke-linecap="round" stroke-linejoin="round"/>
<path d="M122.23 305.574C125.591 295.033 140.97 292.221 146.499 293.943C151.037 295.715 154.756 299.109 156.935 303.466C158.341 306.5 155.401 311.864 157.497 314.992C160.496 319.478 160.238 328.942 159.161 334.904C158.575 338.066 145.421 339.94 134.669 332.561C123.12 324.573 118.973 315.718 122.23 305.574Z" fill="white" stroke="#263238" stroke-linecap="round" stroke-linejoin="round"/>
<path d="M137.773 290.793C137.773 290.793 151.313 288.591 151.407 292.07C152.004 315.179 138.147 320.028 138.147 320.028C138.147 320.028 132.49 315.519 131.225 318.611C129.96 321.703 133.216 330.254 137.222 330.43C136.299 331.864 135.795 333.527 135.766 335.232C135.737 336.937 136.184 338.617 137.058 340.081C137.058 340.081 114.124 343.911 112.227 333.288C113.113 329.595 113.747 325.846 114.124 322.067C115.612 307.179 112.133 297.165 137.773 290.793Z" fill="#263238"/>
<path d="M155.857 314.348C158.68 316.889 160.707 316.889 160.671 317.803C160.566 320.649 157.158 322.067 157.158 322.067" fill="white"/>
<path d="M155.857 314.348C158.68 316.889 160.707 316.889 160.671 317.803C160.566 320.649 157.158 322.067 157.158 322.067" stroke="#263238" stroke-linecap="round" stroke-linejoin="round"/>
<path d="M157.088 326.811C155.093 327.486 152.941 327.539 150.915 326.963" stroke="#263238" stroke-linecap="round" stroke-linejoin="round"/>
<path d="M149.579 300.163C149.579 300.163 158.586 297.551 156.935 312.169C156.935 312.169 160.683 307.074 160.671 301.346C160.671 291.425 147.4 293.416 147.4 293.416L149.134 300.444" fill="#263238"/>
<path d="M157.766 307.32C157.425 307.094 157.042 306.939 156.639 306.864C156.237 306.79 155.823 306.797 155.424 306.887" stroke="#263238" stroke-linecap="round" stroke-linejoin="round"/>
<path d="M151.7 307.156C151.7 307.156 146.862 307.437 144.766 310.67" stroke="#263238" stroke-linecap="round" stroke-linejoin="round"/>
<path d="M150.54 314.852C150.61 315.625 150.282 316.292 149.802 316.339C149.322 316.386 148.876 315.789 148.794 315.016C148.712 314.242 149.052 313.575 149.532 313.528C150.013 313.481 150.469 314.078 150.54 314.852Z" fill="#263238"/>
<path d="M94.4229 451.612C94.4229 451.612 105.199 452.784 107.541 457.469" stroke="#263238" stroke-linecap="round" stroke-linejoin="round"/>
<path d="M121.702 345.961C126.218 343.456 131.526 342.793 136.519 344.111C145.093 346.277 167.324 378.078 170.417 381.182C173.509 384.286 179.295 385.867 184.624 391.478C193.058 400.275 205.321 408.052 206.563 408.052C207.805 408.052 208.8 407.279 210.346 406.974C211.892 406.67 223.863 405.581 223.863 405.581C223.863 405.581 227.881 406.482 223.863 408.192C219.846 409.903 220.15 411.46 220.15 411.46C220.15 411.46 219.354 412.749 220.958 413.99C222.563 415.232 223.523 414.553 225.831 417.821C228.138 421.089 222.575 419.238 222.575 419.238C222.575 419.238 223.805 422.752 221.333 422.4C218.862 422.049 221.029 425.832 217.011 425.317C212.993 424.802 204.396 419.378 202.241 413.698C202.241 413.698 167.172 396.936 161.925 392.614C156.677 388.292 134.61 365.112 133.052 364.808" fill="white"/>
<path d="M121.702 345.961C126.218 343.456 131.526 342.793 136.519 344.111C145.093 346.277 167.324 378.078 170.417 381.182C173.509 384.286 179.295 385.867 184.624 391.478C193.058 400.275 205.321 408.052 206.563 408.052C207.805 408.052 208.8 407.279 210.346 406.974C211.892 406.67 223.863 405.581 223.863 405.581C223.863 405.581 227.881 406.482 223.863 408.192C219.846 409.903 220.15 411.46 220.15 411.46C220.15 411.46 219.354 412.749 220.958 413.99C222.563 415.232 223.523 414.553 225.831 417.821C228.138 421.089 222.575 419.238 222.575 419.238C222.575 419.238 223.805 422.752 221.333 422.4C218.862 422.049 221.029 425.832 217.011 425.317C212.993 424.802 204.396 419.378 202.241 413.698C202.241 413.698 167.172 396.936 161.925 392.614C156.677 388.292 134.61 365.112 133.052 364.808" stroke="#263238" stroke-linecap="round" stroke-linejoin="round"/>
<path d="M116.666 342.564C116.666 342.564 133.954 337.938 139.987 341.335C146.019 344.731 157.451 360.485 157.451 360.485C157.451 360.485 143.512 372.96 139.202 371.824C134.891 370.687 121.703 368.825 121.703 368.825" fill="#16B99B"/>
<path d="M116.666 342.564C116.666 342.564 133.954 337.938 139.987 341.335C146.019 344.731 157.451 360.485 157.451 360.485C157.451 360.485 143.512 372.96 139.202 371.824C134.891 370.687 121.703 368.825 121.703 368.825" stroke="#263238" stroke-linecap="round" stroke-linejoin="round"/>
<path d="M131.659 370.348C131.659 370.348 125.392 373.791 123.085 373.791" stroke="#263238" stroke-linecap="round" stroke-linejoin="round"/>
<path d="M121.702 353.071C122.229 353.997 122.054 364.128 133.052 367.279" stroke="#263238" stroke-linecap="round" stroke-linejoin="round"/>
<path d="M62.915 398.482C62.915 398.482 86.3411 402.499 94.423 395.39" stroke="#263238" stroke-linecap="round" stroke-linejoin="round"/>
<path d="M102.435 401.211C102.435 401.211 96.5781 400.181 94.4229 403.191C92.2677 406.201 80.5312 409.047 80.5312 409.047" stroke="#263238" stroke-linecap="round" stroke-linejoin="round"/>
<path d="M55.3477 423.571C55.3477 423.571 51.9627 438.166 66.4048 444.655" stroke="#263238" stroke-linecap="round" stroke-linejoin="round"/>
<path d="M62.915 424.579C62.915 424.579 62.997 431.771 65.2576 435.706L72.4377 438.049L80.4728 433.575C80.4728 433.575 78.7627 424.38 78.6105 422.518" stroke="#263238" stroke-linecap="round" stroke-linejoin="round"/>
</svg>
