<svg width="570" height="443" viewBox="0 0 570 443" fill="none" xmlns="http://www.w3.org/2000/svg">
<path d="M520.478 429.188C520.478 431.615 443.691 433.575 349.077 433.575C254.464 433.575 177.676 431.615 177.676 429.188C177.676 426.761 254.464 424.813 349.077 424.813C443.691 424.813 520.478 426.774 520.478 429.188Z" fill="#2E353A"/>
<path d="M384.866 22.5278H223.817C218.804 22.5278 214.74 26.5919 214.74 31.6052V94.5575C214.74 99.5708 218.804 103.635 223.817 103.635H384.866C389.879 103.635 393.943 99.5708 393.943 94.5575V31.6052C393.943 26.5919 389.879 22.5278 384.866 22.5278Z" fill="#399B8E"/>
<path d="M214.739 89.3745V118.65L231.07 99.8506" fill="#399B8E"/>
<path d="M384.879 22.5278H223.776C222.584 22.5278 221.404 22.7627 220.304 23.2191C219.203 23.6754 218.204 24.3443 217.362 25.1874C216.52 26.0305 215.853 27.0313 215.398 28.1325C214.943 29.2338 214.71 30.4138 214.712 31.6052V118.65L227.766 103.635H384.879C386.07 103.635 387.25 103.4 388.351 102.944C389.451 102.487 390.451 101.818 391.293 100.975C392.135 100.132 392.802 99.1315 393.257 98.0302C393.711 96.929 393.945 95.7489 393.943 94.5575V31.6052C393.945 30.4138 393.711 29.2338 393.257 28.1325C392.802 27.0313 392.135 26.0305 391.293 25.1874C390.451 24.3443 389.451 23.6754 388.351 23.2191C387.25 22.7627 386.07 22.5278 384.879 22.5278Z" fill="#399B8E"/>
<path opacity="0.1" d="M384.879 22.5278H223.776C222.584 22.5278 221.404 22.7627 220.304 23.2191C219.203 23.6754 218.204 24.3443 217.362 25.1874C216.52 26.0305 215.853 27.0313 215.398 28.1325C214.943 29.2338 214.71 30.4138 214.712 31.6052V118.65L227.766 103.635H384.879C386.07 103.635 387.25 103.4 388.351 102.944C389.451 102.487 390.451 101.818 391.293 100.975C392.135 100.132 392.802 99.1315 393.257 98.0302C393.711 96.929 393.945 95.7489 393.943 94.5575V31.6052C393.945 30.4138 393.711 29.2338 393.257 28.1325C392.802 27.0313 392.135 26.0305 391.293 25.1874C390.451 24.3443 389.451 23.6754 388.351 23.2191C387.25 22.7627 386.07 22.5278 384.879 22.5278Z" fill="#399B8E"/>
<path d="M352.67 67.0233H236.954C236.096 67.0233 235.272 66.6824 234.666 66.0755C234.059 65.4686 233.718 64.6455 233.718 63.7873C233.721 62.9314 234.064 62.1118 234.67 61.5079C235.277 60.904 236.098 60.5649 236.954 60.5649H352.67C353.526 60.5649 354.347 60.904 354.954 61.5079C355.56 62.1118 355.903 62.9314 355.906 63.7873C355.906 64.2122 355.823 64.633 355.66 65.0257C355.497 65.4183 355.259 65.775 354.958 66.0755C354.658 66.376 354.301 66.6144 353.909 66.777C353.516 66.9396 353.095 67.0233 352.67 67.0233Z" fill="white"/>
<path d="M352.67 81.8876H236.954C236.529 81.8876 236.108 81.8039 235.715 81.6413C235.323 81.4786 234.966 81.2403 234.666 80.9398C234.365 80.6393 234.127 80.2825 233.964 79.8899C233.801 79.4973 233.718 79.0765 233.718 78.6515C233.721 77.7957 234.064 76.9761 234.67 76.3722C235.277 75.7682 236.098 75.4292 236.954 75.4292H352.67C353.526 75.4292 354.347 75.7682 354.954 76.3722C355.56 76.9761 355.903 77.7957 355.906 78.6515C355.906 79.0765 355.823 79.4973 355.66 79.8899C355.497 80.2825 355.259 80.6393 354.958 80.9398C354.658 81.2403 354.301 81.4786 353.909 81.6413C353.516 81.8039 353.095 81.8876 352.67 81.8876Z" fill="white"/>
<path d="M243.412 52.1595C249.834 52.1595 255.04 46.9536 255.04 40.5317C255.04 34.1098 249.834 28.9038 243.412 28.9038C236.99 28.9038 231.784 34.1098 231.784 40.5317C231.784 46.9536 236.99 52.1595 243.412 52.1595Z" fill="white"/>
<path d="M384.865 132.293H223.817C218.803 132.293 214.739 136.358 214.739 141.371V204.323C214.739 209.336 218.803 213.401 223.817 213.401H384.865C389.879 213.401 393.943 209.336 393.943 204.323V141.371C393.943 136.358 389.879 132.293 384.865 132.293Z" fill="#399B8E"/>
<path d="M214.739 199.126V228.416L231.07 209.603" fill="#399B8E"/>
<path d="M384.879 132.293H223.776C221.372 132.293 219.066 133.248 217.367 134.948C215.667 136.648 214.712 138.953 214.712 141.357V228.415L227.766 213.332H384.879C387.283 213.332 389.588 212.377 391.288 210.677C392.988 208.977 393.943 206.672 393.943 204.268V141.357C393.943 138.953 392.988 136.648 391.288 134.948C389.588 133.248 387.283 132.293 384.879 132.293Z" fill="#399B8E"/>
<path opacity="0.1" d="M384.879 132.293H223.776C221.372 132.293 219.066 133.248 217.367 134.948C215.667 136.648 214.712 138.953 214.712 141.357V228.415L227.766 213.332H384.879C387.283 213.332 389.588 212.377 391.288 210.677C392.988 208.977 393.943 206.672 393.943 204.268V141.357C393.943 138.953 392.988 136.648 391.288 134.948C389.588 133.248 387.283 132.293 384.879 132.293Z" fill="#399B8E"/>
<path d="M352.67 176.776H236.954C236.098 176.776 235.277 176.437 234.67 175.833C234.064 175.229 233.721 174.409 233.718 173.553C233.718 172.695 234.059 171.872 234.666 171.265C235.272 170.658 236.096 170.317 236.954 170.317H352.67C353.095 170.317 353.516 170.401 353.909 170.564C354.301 170.726 354.658 170.965 354.958 171.265C355.259 171.566 355.497 171.922 355.66 172.315C355.823 172.708 355.906 173.128 355.906 173.553C355.903 174.409 355.56 175.229 354.954 175.833C354.347 176.437 353.526 176.776 352.67 176.776Z" fill="white"/>
<path d="M352.67 191.639H236.954C236.098 191.639 235.277 191.3 234.67 190.696C234.064 190.092 233.721 189.273 233.718 188.417C233.718 187.558 234.059 186.735 234.666 186.128C235.272 185.522 236.096 185.181 236.954 185.181H352.67C353.095 185.181 353.516 185.264 353.909 185.427C354.301 185.59 354.658 185.828 354.958 186.128C355.259 186.429 355.497 186.786 355.66 187.178C355.823 187.571 355.906 187.992 355.906 188.417C355.903 189.273 355.56 190.092 354.954 190.696C354.347 191.3 353.526 191.639 352.67 191.639Z" fill="white"/>
<path d="M243.412 161.911C249.834 161.911 255.04 156.706 255.04 150.284C255.04 143.862 249.834 138.656 243.412 138.656C236.99 138.656 231.784 143.862 231.784 150.284C231.784 156.706 236.99 161.911 243.412 161.911Z" fill="white"/>
<g filter="url(#filter0_d_107_195)">
<path d="M257.247 434.495C326.972 434.495 383.495 377.972 383.495 308.247C383.495 238.523 326.972 182 257.247 182C187.523 182 131 238.523 131 308.247C131 377.972 187.523 434.495 257.247 434.495Z" fill="url(#paint0_linear_107_195)"/>
</g>
<path d="M423.301 197.521C423.301 197.521 419.187 205.173 418.584 206.242C417.98 207.312 415.773 213.098 416.431 214.47C417.089 215.841 417.72 216.622 419.022 216.842C420.325 217.061 421.395 219.433 423.547 219.859C424.903 220.127 426.279 220.274 427.661 220.297C428 220.546 428.391 220.714 428.804 220.788C429.218 220.861 429.643 220.839 430.047 220.722C431.336 220.297 432.419 219.653 433.283 215.978C433.811 214.158 433.955 212.248 433.708 210.37L433.324 202.951L423.301 197.521Z" fill="white"/>
<path d="M429.279 221.518C428.628 221.509 427.992 221.319 427.442 220.969C426.088 220.932 424.739 220.781 423.411 220.517C422.178 220.181 421.075 219.484 420.243 218.515C419.873 218.072 419.403 217.725 418.872 217.5C418.167 217.343 417.514 217.008 416.974 216.528C416.434 216.049 416.026 215.439 415.787 214.758C414.895 212.989 417.487 206.695 417.967 205.9C418.598 204.844 422.629 197.275 422.67 197.192C422.76 197.034 422.907 196.916 423.081 196.863C423.249 196.796 423.435 196.796 423.603 196.863L433.612 202.28C433.715 202.339 433.801 202.422 433.863 202.523C433.926 202.623 433.962 202.737 433.969 202.856L434.353 210.26C434.604 212.204 434.45 214.179 433.9 216.06C433.05 219.721 431.939 220.736 430.212 221.312C429.914 221.429 429.599 221.499 429.279 221.518ZM423.589 198.454C422.602 200.291 419.722 205.68 419.174 206.599C418.419 207.847 416.609 213.29 417.034 214.141C417.72 215.512 418.241 216.005 419.132 216.156C419.944 216.396 420.665 216.874 421.203 217.527C421.85 218.308 422.714 218.88 423.685 219.173C424.991 219.426 426.317 219.568 427.648 219.598C427.807 219.598 427.961 219.651 428.086 219.749C428.332 219.927 428.615 220.048 428.914 220.103C429.213 220.158 429.521 220.144 429.814 220.064C430.76 219.749 431.748 219.42 432.557 215.813C433.054 214.087 433.199 212.277 432.982 210.493L432.611 203.363L423.589 198.454Z" fill="#2E353A"/>
<path d="M447.078 403.546C447.078 403.546 441.223 413.076 441.223 415.379C441.223 417.683 449.285 421.92 452.741 423.456C456.196 424.992 462.339 426.198 467.331 426.911C472.322 427.624 482.688 429.654 479.671 425.76C476.655 421.865 458.116 411.609 457.348 410.388C456.397 409.249 455.331 408.21 454.167 407.289L447.078 403.546Z" fill="white"/>
<path d="M477.175 428.748C474.249 428.63 471.335 428.304 468.454 427.775L467.22 427.583C460.255 426.513 455.291 425.334 452.466 424.073C451.973 423.853 440.537 418.739 440.537 415.379C440.537 412.952 445.884 404.176 446.488 403.175C446.581 403.029 446.725 402.923 446.893 402.878C447.06 402.832 447.238 402.85 447.393 402.929L454.482 406.686C455.754 407.659 456.909 408.777 457.924 410.018C458.253 410.402 461.269 412.294 464.19 414.131C470.415 418.012 478.149 422.852 480.151 425.348C480.878 426.253 481.056 427.034 480.672 427.679C480.288 428.323 479.081 428.748 477.175 428.748ZM447.283 404.451C445.062 408.125 441.867 413.926 441.867 415.42C441.867 416.915 447.735 420.535 452.974 422.866C455.716 424.073 460.543 425.211 467.399 426.266L468.619 426.458C471.142 426.856 478.821 428.076 479.452 427.007C479.452 427.007 479.452 426.733 479.04 426.225C477.189 423.908 469.236 418.931 463.422 415.256C458.746 412.335 457.073 411.265 456.731 410.758C455.821 409.672 454.801 408.684 453.687 407.81L447.283 404.451Z" fill="#2E353A"/>
<path d="M456.251 418.56L458.308 421.632C460.52 424.988 463.524 427.748 467.056 429.667C472.541 432.629 480.988 436.016 488.365 433.986C500.459 430.654 470.018 412.294 470.018 412.294C470.018 412.294 459.172 419.836 456.251 418.56Z" fill="white"/>
<path d="M483.565 435.289C477.477 435.289 471.225 432.739 466.727 430.27C463.102 428.303 460.014 425.478 457.732 422.043L455.675 418.958C455.589 418.84 455.543 418.699 455.543 418.553C455.543 418.408 455.589 418.266 455.675 418.149C455.772 418.034 455.902 417.954 456.048 417.92C456.194 417.885 456.346 417.898 456.484 417.957C458.253 418.725 465.205 414.789 469.579 411.759C469.688 411.685 469.817 411.645 469.949 411.645C470.081 411.645 470.21 411.685 470.32 411.759C472.609 413.13 492.684 425.471 491.82 431.724C491.628 433.095 490.449 434.137 488.502 434.686C486.891 435.107 485.23 435.31 483.565 435.289ZM457.595 419.328L458.87 421.262C461.026 424.516 463.944 427.194 467.371 429.064C472.966 432.08 481.084 435.275 488.186 433.328C490.325 432.725 490.463 431.792 490.504 431.491C491.121 427.007 476.284 416.928 470.032 413.117C467.851 414.57 461.297 418.889 457.595 419.328Z" fill="#2E353A"/>
<path d="M459.734 420.014C463.066 425.053 468.114 428.713 473.94 430.311C483.881 433.15 486.733 432.437 488.858 429.598" fill="white"/>
<path d="M483.428 432.807C480.139 432.621 476.889 432.003 473.761 430.97C467.751 429.347 462.548 425.569 459.144 420.357C459.098 420.279 459.067 420.194 459.055 420.105C459.042 420.016 459.047 419.925 459.07 419.838C459.093 419.751 459.133 419.67 459.189 419.599C459.244 419.527 459.312 419.468 459.391 419.424C459.55 419.333 459.737 419.309 459.914 419.355C460.091 419.401 460.243 419.514 460.337 419.671C463.597 424.538 468.489 428.079 474.131 429.653C483.826 432.396 486.472 431.71 488.31 429.187C488.421 429.045 488.583 428.951 488.762 428.925C488.941 428.9 489.123 428.944 489.27 429.05C489.415 429.159 489.511 429.322 489.537 429.502C489.563 429.682 489.516 429.864 489.407 430.01C488.735 430.951 487.832 431.703 486.785 432.193C485.737 432.683 484.581 432.895 483.428 432.807Z" fill="#2E353A"/>
<path d="M441.977 413.624C441.977 413.624 452.946 421.481 458.308 421.632Z" fill="white"/>
<path d="M458.253 422.317C452.768 422.166 442.004 414.501 441.551 414.186C441.407 414.077 441.31 413.916 441.282 413.737C441.254 413.558 441.296 413.375 441.4 413.226C441.451 413.152 441.516 413.09 441.591 413.041C441.667 412.993 441.751 412.96 441.839 412.945C441.927 412.93 442.017 412.932 442.104 412.952C442.192 412.972 442.274 413.009 442.347 413.062C442.456 413.144 453.22 420.809 458.294 420.946C458.477 420.953 458.65 421.032 458.775 421.165C458.901 421.299 458.969 421.476 458.966 421.659C458.962 421.749 458.941 421.838 458.903 421.92C458.865 422.001 458.812 422.075 458.746 422.136C458.679 422.197 458.602 422.245 458.517 422.276C458.433 422.307 458.343 422.321 458.253 422.317Z" fill="#2E353A"/>
<path d="M418.159 200.154C418.159 200.154 427.894 216.293 429.979 220.036C432.063 223.78 458.335 253.823 468.756 279.684C479.178 305.545 489.201 328.883 488.776 336.397C488.351 343.911 454.139 407.289 454.139 407.289L447.05 403.545C447.05 403.545 457.883 343.898 456.649 337.645C455.414 331.392 417.117 269.249 417.117 269.249C417.117 269.249 399.181 256.744 391.681 242.14" fill="#2E353A"/>
<path d="M419.544 240.481C419.544 240.481 414.127 252.15 414.127 253.823C414.127 255.496 444.568 345.16 453.33 365.591C458.876 378.678 463.746 392.042 467.92 405.63C467.92 405.63 471.266 409.744 468.756 413.967C466.247 418.19 456.251 421.056 454.167 417.299C452.083 413.542 431.638 393.988 422.889 374.353C414.141 354.717 401.622 321.383 394.519 308.877C385.163 292.865 376.81 276.287 369.508 259.24C360.321 237.561 350.874 214.058 350.874 214.058C363.256 215.093 375.721 213.695 387.567 209.945C406.764 203.692 414.991 191.721 414.991 191.721C414.991 191.721 419.873 204.199 421.121 206.613" fill="#2E353A"/>
<path d="M422.409 275.694C422.314 275.693 422.222 275.663 422.144 275.61C422.066 275.556 422.006 275.48 421.97 275.392L412.372 250.436C412.339 250.344 412.334 250.243 412.359 250.148C412.383 250.053 412.436 249.967 412.509 249.902L423.259 240.687C423.351 240.602 423.471 240.555 423.595 240.555C423.72 240.555 423.84 240.602 423.931 240.687C424.015 240.776 424.062 240.894 424.062 241.016C424.062 241.139 424.015 241.256 423.931 241.345L413.428 250.354L422.903 275.036C422.948 275.152 422.947 275.282 422.898 275.397C422.849 275.513 422.758 275.604 422.642 275.653L422.409 275.694Z" fill="white"/>
<path d="M412.797 250.725C412.68 250.726 412.567 250.681 412.482 250.601C412.435 250.557 412.397 250.504 412.371 250.445C412.345 250.386 412.331 250.323 412.331 250.258C412.331 250.19 412.331 242.662 408.958 237.917C408.122 236.697 407.45 235.737 406.888 234.956C405.132 232.46 404.598 231.706 404.282 230.458C404.065 228.999 404.065 227.516 404.282 226.056C404.306 225.935 404.373 225.827 404.472 225.754C404.571 225.68 404.694 225.646 404.817 225.659C404.878 225.667 404.938 225.688 404.991 225.719C405.045 225.751 405.091 225.793 405.128 225.843C405.165 225.892 405.192 225.949 405.207 226.009C405.222 226.07 405.224 226.132 405.215 226.194C405.021 227.535 405.021 228.897 405.215 230.239C405.489 231.308 405.955 231.966 407.683 234.421C408.231 235.202 408.917 236.162 409.753 237.383C412.797 241.757 413.222 248.037 413.291 249.833L432.776 249.079C432.9 249.079 433.02 249.125 433.111 249.209C433.203 249.293 433.259 249.408 433.27 249.532C433.273 249.593 433.264 249.655 433.243 249.713C433.222 249.771 433.19 249.824 433.147 249.869C433.105 249.914 433.054 249.95 432.997 249.975C432.94 249.999 432.879 250.012 432.817 250.011L412.852 250.779L412.797 250.725Z" fill="white"/>
<path d="M478.094 339.496C469.414 339.496 458.39 333.874 457.896 333.627C457.787 333.569 457.706 333.47 457.67 333.351C457.634 333.233 457.646 333.105 457.704 332.996C457.732 332.941 457.77 332.892 457.817 332.852C457.864 332.811 457.918 332.781 457.977 332.762C458.035 332.743 458.097 332.735 458.159 332.74C458.22 332.745 458.28 332.762 458.335 332.791C458.458 332.859 470.991 339.249 479.575 338.495C479.637 338.489 479.7 338.496 479.76 338.515C479.819 338.535 479.875 338.566 479.922 338.607C479.969 338.648 480.008 338.698 480.035 338.754C480.063 338.81 480.079 338.871 480.082 338.934C480.088 338.995 480.082 339.057 480.063 339.115C480.045 339.174 480.015 339.229 479.976 339.276C479.936 339.323 479.888 339.362 479.833 339.39C479.778 339.419 479.719 339.436 479.657 339.441C479.15 339.482 478.629 339.496 478.094 339.496Z" fill="white"/>
<path d="M476.929 346.736H476.819C469.127 344.803 460.488 337.727 460.118 337.426C460.034 337.337 459.987 337.219 459.987 337.097C459.987 336.974 460.034 336.857 460.118 336.768C460.156 336.72 460.204 336.68 460.258 336.65C460.312 336.621 460.372 336.603 460.433 336.596C460.494 336.59 460.556 336.596 460.615 336.613C460.674 336.631 460.728 336.66 460.776 336.699C460.858 336.768 469.62 343.953 477.107 345.818C477.167 345.833 477.223 345.861 477.272 345.899C477.321 345.936 477.361 345.983 477.392 346.037C477.423 346.09 477.442 346.149 477.45 346.211C477.458 346.272 477.453 346.334 477.436 346.393C477.41 346.504 477.343 346.6 477.249 346.664C477.155 346.727 477.041 346.753 476.929 346.736Z" fill="white"/>
<path d="M412.413 243.429C412.338 243.429 412.265 243.412 412.198 243.379C412.132 243.345 412.074 243.297 412.029 243.237C411.993 243.186 411.967 243.129 411.954 243.068C411.941 243.006 411.94 242.943 411.951 242.882C411.963 242.821 411.986 242.762 412.021 242.71C412.056 242.658 412.1 242.614 412.152 242.579C414.003 241.29 416.938 238.808 416.938 237.588C416.938 236.779 415.937 235.819 414.867 234.845C413.684 233.857 412.705 232.646 411.988 231.28C411.288 229.649 408.779 223.245 409.245 221.682C409.264 221.623 409.294 221.569 409.334 221.522C409.374 221.475 409.422 221.436 409.477 221.408C409.532 221.38 409.592 221.363 409.653 221.358C409.715 221.354 409.776 221.361 409.835 221.38C409.954 221.421 410.053 221.507 410.11 221.62C410.166 221.733 410.176 221.863 410.137 221.983C409.849 222.82 411.343 227.468 412.81 230.869C413.481 232.108 414.384 233.207 415.471 234.105C416.746 235.325 417.843 236.367 417.843 237.574C417.843 239.686 413.181 242.963 412.646 243.333C412.578 243.385 412.498 243.418 412.413 243.429Z" fill="white"/>
<path d="M366.725 246.117C366.626 246.121 366.528 246.093 366.446 246.038C366.363 245.983 366.301 245.903 366.267 245.809C366.234 245.716 366.231 245.615 366.259 245.52C366.287 245.424 366.344 245.341 366.423 245.281L370.262 242.209C373.951 239.275 376.227 231.774 376.255 231.692C376.293 231.573 376.375 231.474 376.486 231.415C376.596 231.356 376.724 231.342 376.844 231.377C376.963 231.414 377.063 231.497 377.122 231.607C377.18 231.717 377.194 231.846 377.16 231.966C377.064 232.282 374.76 239.823 370.852 242.936L367.013 246.007C366.933 246.076 366.831 246.115 366.725 246.117Z" fill="white"/>
<path d="M457.883 419.164C457.814 419.161 457.747 419.144 457.685 419.113C457.624 419.082 457.569 419.039 457.526 418.985C452.617 412.967 448.184 406.576 444.267 399.871C438.96 390.382 423.698 364.425 423.534 364.219C422.12 361.096 421.071 357.82 420.408 354.456C420.312 353.935 420.243 353.455 420.174 353.085C419.667 349.63 419.448 348.204 414.854 345.242C410.261 342.28 409.973 337.124 409.589 331.598C409.506 330.295 409.41 328.952 409.26 327.622C408.643 322.137 394.08 297.455 383.453 279.52C381.04 275.406 378.846 271.731 377.064 268.673C367.547 252.301 360.966 230.773 360.897 230.554C360.863 230.434 360.876 230.305 360.935 230.195C360.994 230.085 361.094 230.002 361.212 229.964C361.271 229.945 361.333 229.939 361.394 229.944C361.455 229.95 361.514 229.968 361.568 229.998C361.622 230.028 361.669 230.068 361.707 230.116C361.745 230.164 361.773 230.22 361.788 230.279C361.857 230.499 368.411 251.931 377.873 268.193C379.655 271.251 381.849 274.967 384.262 279.04C394.944 297.071 409.561 321.78 410.192 327.512C410.343 328.883 410.439 330.254 410.535 331.543C410.905 337.028 411.22 341.8 415.361 344.46C420.312 347.641 420.558 349.3 421.107 352.934C421.107 353.387 421.244 353.853 421.326 354.374C421.977 357.638 422.999 360.817 424.37 363.849C424.494 364.082 439.769 390.039 445.089 399.5C448.982 406.152 453.383 412.492 458.253 418.464C458.292 418.512 458.321 418.567 458.339 418.626C458.356 418.685 458.362 418.746 458.356 418.808C458.349 418.869 458.331 418.928 458.301 418.982C458.272 419.036 458.232 419.084 458.184 419.122C458.091 419.169 457.985 419.183 457.883 419.164Z" fill="white"/>
<path d="M350.874 214.058C350.874 214.058 351.751 223.766 355.591 226.838C359.43 229.909 370.948 232.597 386.69 229.58C402.431 226.564 419.708 213.126 421.244 208.464C422.78 203.802 414.964 191.735 414.964 191.735C414.964 191.735 405.886 204.624 380.546 208.848C355.207 213.071 350.874 214.058 350.874 214.058Z" fill="white"/>
<path d="M373.347 231.568C364.064 231.568 357.702 229.415 355.152 227.372C351.134 224.15 350.229 214.538 350.188 214.126C350.173 213.963 350.218 213.8 350.313 213.666C350.409 213.533 350.549 213.438 350.709 213.4C350.887 213.4 355.357 212.289 380.437 208.107C405.118 203.993 414.305 191.406 414.401 191.282C414.466 191.193 414.551 191.121 414.648 191.071C414.746 191.021 414.854 190.995 414.964 190.994C415.076 190.997 415.186 191.027 415.284 191.082C415.382 191.137 415.465 191.215 415.526 191.31C416.349 192.571 423.479 203.842 421.888 208.628C420.202 213.674 402.527 227.126 386.813 230.197C382.379 231.085 377.869 231.544 373.347 231.568ZM351.627 214.606C351.888 216.718 352.999 223.876 356.015 226.303C359.443 229.045 370.427 232.007 386.552 228.853C402.403 225.754 419.228 212.303 420.599 208.189C421.683 204.926 417.254 196.685 414.895 192.873C412.454 195.793 402.664 205.803 380.615 209.464C360.294 212.865 353.465 214.154 351.627 214.606Z" fill="#2E353A"/>
<path d="M452.082 119.952C445.816 115.838 397.028 77.8285 392.434 76.1556C387.841 74.4827 378.722 76.1556 378.722 76.1556C378.722 76.1556 350.448 79.6111 344.524 81.997C343.962 82.2164 331.224 89.5386 330.812 89.9225C326.219 93.6797 306.13 102.922 300.728 114.604C294.599 127.823 348.46 207.408 350.969 214.072C353.478 220.736 366.628 222.381 378.722 220.709C390.816 219.036 401.43 216.595 410.192 206.571C411.78 204.575 413.111 202.387 414.154 200.058C415.406 197.456 415.726 194.503 415.059 191.694C411.933 178.667 403.953 141.11 398.687 116.277C407.463 121.94 425.714 133.445 436.327 137.504C450.505 142.988 461.351 139.176 461.351 134.583C461.351 129.989 458.335 124.121 452.082 119.952Z" fill="white"/>
<path d="M435.148 128.056C426.788 127.231 418.691 124.677 411.371 120.556C411.371 120.556 422.217 115.551 422.629 113.042C423.04 110.532 407.614 112.63 409.698 111.794C411.783 110.957 414.703 108.873 409.698 108.873C405.708 108.611 401.778 107.77 398.029 106.377L398.591 116.236C403.363 119.322 410.932 124.107 418.529 128.495C425.674 132.252 433.032 135.589 440.564 138.491C440.564 138.491 449.738 129.729 435.148 128.056Z" fill="#399B8E"/>
<g style="mix-blend-mode:multiply">
<path d="M378.627 220.695L380.176 220.475C383.522 218.857 389.185 217.842 394.697 216.471C403.034 214.387 393.861 214.387 380.094 207.298C366.327 200.209 360.897 189.787 348.392 174.773C335.886 159.758 330.881 152.244 333.391 150.585C335.9 148.925 328.386 148.912 325.465 147.239C322.544 145.566 329.579 145.58 335.475 139.738C341.371 133.897 324.203 140.986 322.544 140.575C320.885 140.163 324.203 134.733 324.203 134.733L312.109 147.239L341.302 197.288L342.975 198.536L344.895 201.278L350.38 213.071C350.599 213.482 350.75 213.825 350.846 214.058C353.369 220.736 366.533 222.381 378.627 220.695Z" fill="#399B8E"/>
</g>
<path d="M323.34 104.087C332.568 102.716 358.292 117.388 358.292 117.388C344.155 107.789 331.787 98.7941 323.326 94.7354L307.736 105.705L306.666 106.706C308.476 106.349 315.414 105.211 323.34 104.087Z" fill="#399B8E"/>
<path opacity="0.5" d="M435.148 128.056C426.788 127.231 418.691 124.677 411.371 120.556C411.371 120.556 422.217 115.551 422.629 113.042C423.04 110.532 407.614 112.63 409.698 111.794C411.783 110.957 414.703 108.873 409.698 108.873C405.708 108.611 401.778 107.77 398.029 106.377L398.591 116.236C403.363 119.322 410.932 124.107 418.529 128.495C425.674 132.252 433.032 135.589 440.564 138.491C440.564 138.491 449.738 129.729 435.148 128.056Z" fill="white"/>
<path opacity="0.5" d="M378.627 220.695L380.176 220.475C383.522 218.857 389.185 217.842 394.697 216.471C403.034 214.387 393.861 214.387 380.094 207.298C366.327 200.209 360.897 189.787 348.392 174.773C335.886 159.758 330.881 152.244 333.391 150.585C335.9 148.925 328.386 148.912 325.465 147.239C322.544 145.566 329.579 145.58 335.475 139.738C341.371 133.897 324.203 140.986 322.544 140.575C320.885 140.163 324.203 134.733 324.203 134.733L312.109 147.239L341.302 197.288L342.975 198.536L344.895 201.278L350.38 213.071C350.599 213.482 350.75 213.825 350.846 214.058C353.369 220.736 366.533 222.381 378.627 220.695Z" fill="white"/>
<path opacity="0.5" d="M323.34 104.087C332.568 102.716 358.292 117.388 358.292 117.388C344.155 107.789 331.787 98.7941 323.326 94.7354L307.736 105.705L306.666 106.706C308.476 106.349 315.414 105.211 323.34 104.087Z" fill="white"/>
<path d="M369.851 221.997C360.609 221.997 352.286 219.789 350.229 214.305C349.626 212.687 345.567 206.077 340.425 197.768C318.582 162.336 295.641 123.722 300.016 114.302C304.129 105.417 316.292 98.0809 324.341 93.2268C326.392 92.0615 328.374 90.7796 330.278 89.3874C330.772 88.9897 343.538 81.6401 344.223 81.3658C350.174 78.9662 377.434 75.6204 378.6 75.4833C378.942 75.4148 387.965 73.7967 392.668 75.4833C395.712 76.594 416.568 92.3766 433.325 105.06C442.402 111.916 450.232 117.867 452.453 119.348C459.446 124.01 461.942 130.236 461.942 134.514C461.892 135.308 461.645 136.077 461.223 136.752C460.802 137.427 460.22 137.987 459.528 138.381C455.483 141.123 446.639 142.152 435.985 138.079C428.539 135.227 415.979 128.193 399.607 117.675C405.091 143.797 412.619 178.982 415.622 191.488C416.329 194.453 415.995 197.57 414.676 200.318C413.605 202.711 412.221 204.952 410.562 206.982C401.403 217.445 390.255 219.748 378.682 221.339C375.757 221.761 372.806 221.98 369.851 221.997ZM386.854 76.1004C384.157 76.1411 381.466 76.384 378.805 76.8271C378.476 76.8271 350.517 80.2963 344.731 82.6273C343.977 82.9701 331.759 90.0044 331.142 90.4569C329.19 91.8916 327.152 93.2059 325.04 94.3923C317.142 99.1641 305.212 106.377 301.263 114.96C296.821 124.559 325.945 171.742 341.591 197.123C347.171 206.173 350.86 212.207 351.518 213.893C353.945 220.365 367.219 221.641 378.531 220.077C389.843 218.514 400.731 216.279 409.575 206.173C411.13 204.226 412.429 202.088 413.442 199.811C414.62 197.353 414.921 194.565 414.292 191.913C411.221 179.133 403.487 142.727 397.92 116.496C397.893 116.362 397.906 116.223 397.957 116.097C398.008 115.97 398.095 115.861 398.208 115.783C398.32 115.709 398.451 115.67 398.585 115.67C398.719 115.67 398.85 115.709 398.962 115.783C415.938 126.753 428.909 134.061 436.478 136.941C446.598 140.821 455.127 139.903 458.747 137.407C459.245 137.126 459.67 136.731 459.987 136.254C460.304 135.778 460.504 135.233 460.571 134.665C460.571 130.743 458.239 124.998 451.699 120.637C449.436 119.129 441.593 113.192 432.502 106.308C416.692 94.3512 395.054 77.9652 392.202 76.9231C390.476 76.3591 388.67 76.0812 386.854 76.1004Z" fill="#2E353A"/>
<path d="M307.338 106.062C307.338 106.062 302.333 111.546 300.386 114.083C289.937 127.507 256.685 170.522 256.315 173.991C255.945 177.46 257.522 179.791 265.653 182.918C273.784 186.044 328.18 131.539 328.18 131.539" fill="white"/>
<g style="mix-blend-mode:multiply" opacity="0.8">
<path d="M307.419 106.226L306.72 106.679C305.705 107.803 303.511 110.257 301.811 112.273L276.553 145.402C276.553 145.402 275.772 146.279 274.538 147.733C265.063 160.361 256.808 171.756 256.301 173.786C256.301 173.854 256.301 173.923 256.301 173.978C255.971 177.255 257.562 179.75 265.652 182.863C267.092 183.411 269.944 182.177 273.687 179.778C271.786 179.395 269.969 178.671 268.326 177.639C263.733 174.718 267.49 171.797 267.49 171.797C267.49 171.797 273.454 174.183 279.337 175.788C280.557 174.869 281.832 173.882 283.135 172.839C281.882 172.019 280.695 171.102 279.584 170.097C274.579 165.517 270.41 160.924 270.41 160.924L308.64 107.57L307.419 106.226Z" fill="#399B8E"/>
</g>
<path opacity="0.5" d="M307.419 106.226L306.72 106.679C305.705 107.803 303.511 110.257 301.811 112.273L276.553 145.402C276.553 145.402 275.772 146.279 274.538 147.733C265.063 160.361 256.808 171.756 256.301 173.786C256.301 173.854 256.301 173.923 256.301 173.978C255.971 177.255 257.562 179.75 265.652 182.863C267.092 183.411 269.944 182.177 273.687 179.778C271.786 179.395 269.969 178.671 268.326 177.639C263.733 174.718 267.49 171.797 267.49 171.797C267.49 171.797 273.454 174.183 279.337 175.788C280.557 174.869 281.832 173.882 283.135 172.839C281.882 172.019 280.695 171.102 279.584 170.097C274.579 165.517 270.41 160.924 270.41 160.924L308.64 107.57L307.419 106.226Z" fill="white"/>
<path d="M266.283 183.713C265.975 183.717 265.668 183.666 265.378 183.562C257.809 180.642 255.149 178.078 255.601 173.964C255.972 170.55 283.464 134.747 299.809 113.713C301.756 111.217 306.597 105.883 306.802 105.664C306.861 105.591 306.934 105.531 307.016 105.487C307.099 105.444 307.19 105.417 307.283 105.41C307.376 105.402 307.47 105.414 307.558 105.444C307.646 105.474 307.728 105.522 307.797 105.585C307.866 105.648 307.922 105.724 307.961 105.809C308 105.894 308.021 105.986 308.022 106.08C308.024 106.173 308.007 106.266 307.972 106.352C307.936 106.439 307.884 106.517 307.817 106.583C307.817 106.583 302.798 112.068 300.892 114.563C274.483 148.542 257.233 171.921 257.014 174.115C256.698 177.036 258.056 179.312 265.927 182.342C271.59 184.522 305.98 152.888 327.713 131.1C327.842 130.971 328.018 130.898 328.2 130.898C328.383 130.898 328.558 130.971 328.687 131.1C328.816 131.229 328.889 131.404 328.889 131.587C328.889 131.769 328.816 131.944 328.687 132.074C323.243 137.449 276.787 183.713 266.283 183.713Z" fill="#2E353A"/>
<path d="M417.404 103.566L398.591 116.236C401.334 115.852 414.333 111.245 414.333 111.245" fill="white"/>
<path d="M398.591 116.922C398.454 116.924 398.319 116.883 398.205 116.804C398.092 116.725 398.007 116.613 397.961 116.483C397.903 116.34 397.896 116.182 397.941 116.035C397.986 115.887 398.08 115.76 398.208 115.674L417.034 103.004C417.108 102.952 417.191 102.916 417.278 102.897C417.366 102.878 417.457 102.877 417.545 102.893C417.633 102.91 417.717 102.944 417.792 102.994C417.867 103.043 417.931 103.107 417.98 103.182C418.08 103.336 418.116 103.522 418.08 103.701C418.044 103.881 417.94 104.039 417.788 104.142L402.362 114.536C407.093 113.082 414.018 110.642 414.114 110.6C414.295 110.54 414.494 110.555 414.665 110.641C414.836 110.727 414.965 110.878 415.025 111.06C415.085 111.242 415.071 111.44 414.985 111.611C414.898 111.782 414.748 111.912 414.566 111.972C414.031 112.15 401.416 116.606 398.687 116.99L398.591 116.922Z" fill="#2E353A"/>
<path d="M416.637 111.546C416.478 111.543 416.324 111.485 416.202 111.383C416.08 111.281 415.996 111.14 415.965 110.984C415.933 110.806 415.973 110.622 416.075 110.473C416.178 110.324 416.336 110.222 416.513 110.189L420.737 109.421C420.917 109.388 421.102 109.428 421.253 109.53C421.404 109.633 421.509 109.79 421.546 109.969C421.564 110.059 421.563 110.152 421.544 110.242C421.525 110.332 421.489 110.417 421.436 110.493C421.384 110.568 421.317 110.632 421.239 110.681C421.161 110.731 421.074 110.763 420.984 110.778L416.76 111.546H416.637Z" fill="#2E353A"/>
<path d="M277.253 160.677C274.35 160.59 271.463 161.138 268.793 162.281Z" fill="white"/>
<path d="M268.793 163.008C268.611 163.042 268.423 163.003 268.27 162.899C268.117 162.795 268.012 162.634 267.977 162.452C267.943 162.271 267.982 162.082 268.086 161.929C268.19 161.776 268.351 161.671 268.532 161.636C271.301 160.447 274.297 159.881 277.308 159.977C277.398 159.984 277.486 160.009 277.567 160.05C277.647 160.091 277.719 160.148 277.778 160.216C277.836 160.285 277.881 160.365 277.908 160.451C277.936 160.537 277.946 160.628 277.939 160.718C277.922 160.898 277.835 161.065 277.696 161.183C277.558 161.301 277.38 161.36 277.199 161.349C274.408 161.268 271.633 161.796 269.067 162.898C268.985 162.955 268.892 162.992 268.793 163.008Z" fill="#2E353A"/>
<path d="M318.252 141.878C318.252 141.878 328.824 138.642 331.622 136.489Z" fill="white"/>
<path d="M318.252 142.563C318.07 142.588 317.886 142.541 317.739 142.43C317.593 142.319 317.496 142.155 317.471 141.973C317.445 141.792 317.493 141.607 317.604 141.46C317.714 141.314 317.878 141.217 318.06 141.192C318.156 141.192 328.536 137.983 331.21 135.926C331.354 135.816 331.536 135.767 331.716 135.79C331.895 135.813 332.059 135.906 332.17 136.05C332.277 136.195 332.324 136.376 332.301 136.554C332.278 136.733 332.187 136.896 332.047 137.01C329.167 139.217 318.897 142.371 318.458 142.494C318.395 142.531 318.325 142.554 318.252 142.563Z" fill="#2E353A"/>
<path d="M334.213 135.419C334.213 135.419 335.941 133.911 336.585 133.911Z" fill="white"/>
<path d="M334.213 136.105C334.115 136.104 334.018 136.083 333.929 136.043C333.839 136.002 333.758 135.944 333.692 135.872C333.566 135.741 333.495 135.566 333.495 135.385C333.495 135.203 333.566 135.028 333.692 134.898C334.468 134.098 335.443 133.521 336.517 133.225C336.699 133.225 336.873 133.297 337.002 133.426C337.13 133.554 337.203 133.729 337.203 133.911C337.199 134.091 337.126 134.264 336.998 134.392C336.87 134.519 336.698 134.593 336.517 134.596C335.811 134.952 335.163 135.415 334.597 135.968C334.487 136.053 334.353 136.101 334.213 136.105Z" fill="#2E353A"/>
<path d="M398.591 116.921C398.421 116.919 398.258 116.855 398.132 116.742C398.006 116.628 397.925 116.473 397.905 116.304L396.191 98.6843C396.182 98.5943 396.191 98.5034 396.217 98.4167C396.243 98.3301 396.286 98.2495 396.344 98.1795C396.401 98.1094 396.472 98.0514 396.551 98.0086C396.631 97.9658 396.718 97.9392 396.808 97.9302C396.899 97.9212 396.989 97.93 397.076 97.9561C397.163 97.9823 397.243 98.0252 397.313 98.0825C397.383 98.1398 397.441 98.2103 397.484 98.2901C397.527 98.3698 397.554 98.4572 397.563 98.5472L399.29 116.181C399.3 116.27 399.291 116.361 399.265 116.447C399.239 116.533 399.196 116.613 399.138 116.682C399.081 116.751 399.01 116.807 398.93 116.849C398.85 116.89 398.763 116.915 398.673 116.921H398.591Z" fill="#2E353A"/>
<path d="M256.273 174.17C256.273 174.17 253.846 183.453 269.41 187.306C276.8 189.129 325.711 201.018 325.711 201.018C325.711 201.018 330.086 191.639 327.59 191.639C325.094 191.639 279.995 161.65 279.995 161.65" fill="white"/>
<path d="M263.542 185.263L320.255 199.743L321.763 196.15C321.763 196.15 300.4 191.872 287.058 185.18C273.716 178.489 272.866 180.587 268.286 177.68C263.706 174.773 267.45 171.839 267.45 171.839C267.45 171.839 279.969 176.843 286.646 177.255C293.324 177.666 284.562 174.759 279.557 170.166C277.487 168.273 275.567 166.367 274.072 164.804L256.247 174.156C256.247 174.156 254.519 180.888 263.542 185.263Z" fill="#399B8E"/>
<path opacity="0.5" d="M263.542 185.263L320.255 199.743L321.763 196.15C321.763 196.15 300.4 191.872 287.058 185.18C273.716 178.489 272.866 180.587 268.286 177.68C263.706 174.773 267.45 171.839 267.45 171.839C267.45 171.839 279.969 176.843 286.646 177.255C293.324 177.666 284.562 174.759 279.557 170.166C277.487 168.273 275.567 166.367 274.072 164.804L256.247 174.156C256.247 174.156 254.519 180.888 263.542 185.263Z" fill="white"/>
<path d="M325.712 201.813H325.547C325.547 201.813 276.636 189.869 269.245 188.101C263.075 186.579 258.893 183.987 256.822 180.545C255.616 178.638 255.185 176.343 255.616 174.128C255.664 173.953 255.778 173.804 255.934 173.712C256.09 173.62 256.276 173.592 256.452 173.634C256.626 173.683 256.774 173.797 256.864 173.954C256.954 174.111 256.978 174.296 256.932 174.471C256.622 176.345 257.012 178.268 258.029 179.873C259.907 183.027 263.802 185.358 269.574 186.729C276.431 188.443 319.925 199.07 325.328 200.359C327.014 196.63 328.07 193.01 327.59 192.447C324.985 192.447 287.208 167.354 279.667 162.281C279.515 162.178 279.411 162.019 279.375 161.84C279.339 161.661 279.375 161.474 279.475 161.321C279.524 161.246 279.588 161.182 279.663 161.132C279.738 161.083 279.822 161.049 279.91 161.032C279.998 161.016 280.089 161.017 280.177 161.036C280.264 161.055 280.347 161.091 280.421 161.143C298.178 172.976 325.41 190.706 327.618 191.049C327.841 191.052 328.061 191.11 328.257 191.218C328.453 191.325 328.619 191.479 328.742 191.666C329.88 193.462 327.179 199.578 326.315 201.415C326.262 201.531 326.177 201.63 326.07 201.7C325.964 201.77 325.839 201.809 325.712 201.813Z" fill="#2E353A"/>
<path d="M327.59 191.68C327.59 191.68 343.647 199.194 344.895 201.278C346.143 203.362 349.009 214.195 349.009 217.541C349.009 220.886 348.597 220.873 346.513 220.873C344.429 220.873 338.999 212.947 337.751 211.274C336.503 209.601 333.638 209.601 329.826 207.161C328.763 206.487 327.851 205.603 327.143 204.563C326.436 203.523 325.949 202.349 325.712 201.114L327.59 191.68Z" fill="white"/>
<path d="M346.568 221.558C344.771 221.558 341.81 217.98 337.915 212.604C337.641 212.221 337.422 211.905 337.257 211.699C336.474 210.92 335.492 210.37 334.419 210.109C332.689 209.494 331.037 208.68 329.496 207.682C328.343 206.956 327.35 206.001 326.581 204.876C325.812 203.751 325.283 202.48 325.026 201.141C325.019 201.073 325.019 201.004 325.026 200.935L326.905 191.543C326.926 191.442 326.969 191.346 327.03 191.264C327.092 191.181 327.171 191.112 327.261 191.063C327.355 191.016 327.458 190.991 327.563 190.991C327.668 190.991 327.771 191.016 327.864 191.063C330.607 192.324 344.182 198.769 345.471 200.922C346.76 203.075 349.735 214.099 349.735 217.541C349.735 220.983 349.105 221.558 346.568 221.558ZM326.411 201.086C326.655 202.211 327.122 203.276 327.784 204.218C328.446 205.16 329.289 205.96 330.264 206.571C331.72 207.508 333.28 208.272 334.912 208.847C336.233 209.19 337.427 209.904 338.354 210.904C338.519 211.11 338.752 211.425 339.026 211.823C344.045 218.761 345.882 220.215 346.568 220.215C348.378 220.215 348.378 220.215 348.378 217.568C348.378 214.332 345.526 203.678 344.264 201.648C343.469 200.277 334.213 195.615 328.043 192.694L326.411 201.086Z" fill="#2E353A"/>
<path d="M320.734 200.14C320.666 200.153 320.596 200.153 320.528 200.14C320.442 200.114 320.362 200.07 320.292 200.012C320.223 199.954 320.166 199.883 320.125 199.802C320.084 199.721 320.06 199.633 320.054 199.543C320.048 199.453 320.06 199.362 320.09 199.277L322.585 191.529C322.611 191.441 322.654 191.358 322.711 191.286C322.769 191.215 322.841 191.155 322.923 191.112C323.004 191.069 323.093 191.042 323.185 191.034C323.277 191.026 323.37 191.037 323.457 191.066C323.545 191.094 323.626 191.14 323.695 191.201C323.765 191.261 323.821 191.335 323.862 191.418C323.902 191.501 323.925 191.592 323.929 191.684C323.934 191.776 323.92 191.868 323.888 191.954L321.392 199.702C321.34 199.833 321.249 199.945 321.131 200.023C321.014 200.101 320.875 200.142 320.734 200.14Z" fill="#2E353A"/>
<path d="M442.484 133.253C442.484 133.253 438.37 147.431 436.642 155.768C434.914 164.105 423.3 197.481 423.3 197.481L433.31 203.733C433.31 203.733 455.414 157.935 459.624 147.898C463.833 137.86 462.544 130.374 458.376 126.205" fill="white"/>
<path d="M433.311 204.46C433.184 204.457 433.06 204.419 432.954 204.35L422.944 198.098C422.811 198.016 422.71 197.891 422.658 197.744C422.605 197.597 422.605 197.436 422.656 197.289C422.766 196.96 434.339 163.872 435.971 155.686C437.602 147.5 441.798 133.253 441.798 133.102C441.849 132.92 441.97 132.766 442.135 132.674C442.299 132.581 442.494 132.558 442.676 132.609C442.858 132.66 443.012 132.781 443.104 132.945C443.197 133.11 443.22 133.304 443.17 133.486C443.17 133.623 438.987 147.733 437.342 155.947C435.779 163.776 425.7 192.818 424.151 197.234L433.05 202.787C435.792 197.014 455.14 156.838 458.98 147.623C462.682 138.724 462.284 131.169 457.883 126.685C457.755 126.558 457.684 126.385 457.684 126.205C457.684 126.025 457.755 125.852 457.883 125.725C458.01 125.598 458.182 125.526 458.363 125.526C458.543 125.526 458.715 125.598 458.842 125.725C463.669 130.538 464.176 138.724 460.214 148.158C456.1 158.072 434.161 203.61 433.928 204.076C433.887 204.163 433.828 204.24 433.754 204.301C433.681 204.363 433.595 204.408 433.503 204.433L433.311 204.46Z" fill="#2E353A"/>
<path d="M425.193 192.708C425.948 192.708 435.45 197.947 435.45 197.947Z" fill="#2E353A"/>
<path d="M359.43 117.388C357.126 117.004 344.826 108.941 336.38 102.414C327.933 95.8872 323.326 94.7354 323.326 94.7354L317.567 98.5748C316.695 95.7685 316.971 92.7312 318.334 90.1281C320.638 85.9048 328.701 81.6815 336.764 78.6099C344.826 75.5384 354.041 72.9194 359.814 72.9194C365.586 72.9194 367.108 75.2231 367.108 78.2946C367.108 81.3661 367.108 90.9646 365.189 98.2594C363.269 105.554 359.43 117.388 359.43 117.388Z" fill="white"/>
<g style="mix-blend-mode:multiply">
<path d="M355.809 77.3486C355.809 77.3486 352.258 87.9892 348.706 91.1842C345.964 93.4838 342.996 95.5006 339.848 97.2038C339.848 97.2038 337.723 89.7581 332.403 89.7581C327.083 89.7581 318.924 93.3095 318.924 93.3095C318.924 93.3095 318.924 90.4711 325.656 86.9197L332.403 83.382L348.007 77.3486H355.809Z" fill="#399B8E"/>
</g>
<path opacity="0.5" d="M355.809 77.3486C355.809 77.3486 352.258 87.9892 348.706 91.1842C345.964 93.4838 342.996 95.5006 339.848 97.2038C339.848 97.2038 337.723 89.7581 332.403 89.7581C327.083 89.7581 318.924 93.3095 318.924 93.3095C318.924 93.3095 318.924 90.4711 325.656 86.9197L332.403 83.382L348.007 77.3486H355.809Z" fill="white"/>
<path d="M359.429 118.073H359.306C356.756 117.648 344.127 109.27 335.995 102.99C328.934 97.5049 324.573 95.8732 323.463 95.5167L317.978 99.1778C317.888 99.2319 317.788 99.2671 317.685 99.2813C317.581 99.2954 317.475 99.2882 317.374 99.2601C317.276 99.2262 317.186 99.1703 317.113 99.0966C317.039 99.023 316.983 98.9335 316.949 98.835C316.479 97.3548 316.309 95.7959 316.448 94.2492C316.587 92.7025 317.032 91.1989 317.758 89.8261C320.501 84.6978 330.73 80.2277 336.558 77.9926C341.137 76.2512 352.573 72.1924 359.868 72.1924C365.23 72.1924 367.849 74.1669 367.849 78.2531C367.849 81.4069 367.849 91.0191 365.902 98.3962C363.954 105.773 360.17 117.511 360.129 117.593C360.085 117.741 359.992 117.87 359.864 117.957C359.737 118.045 359.583 118.086 359.429 118.073ZM323.325 94.0495H323.49C323.682 94.0495 328.344 95.311 336.804 101.852C344.744 107.981 355.809 115.276 358.977 116.524C359.8 113.946 362.885 104.183 364.462 97.9848C366.368 90.786 366.368 81.3109 366.368 78.1983C366.368 75.8809 365.586 73.5087 359.759 73.5087C354.795 73.5087 346.485 75.593 336.955 79.2267C327.425 82.8604 320.775 86.9603 318.883 90.4295C317.748 92.5843 317.408 95.0698 317.923 97.4501L322.887 94.1454C323.018 94.0641 323.173 94.0302 323.325 94.0495Z" fill="#2E353A"/>
<path d="M325.246 68.6549C329.744 73.6158 332.901 79.6429 334.419 86.1653C336.915 97.0115 352.601 109.764 356.358 109.764C360.115 109.764 359.855 91.1702 358.607 85.7539C357.359 80.3376 352.354 65.7342 352.354 65.7342C352.354 65.7342 332.39 56.1358 325.246 68.6549Z" fill="white"/>
<path d="M356.413 110.449C352.382 110.449 336.338 97.3405 333.802 86.316C332.298 79.9228 329.204 74.013 324.806 69.1347C324.701 69.0284 324.633 68.8904 324.613 68.7418C324.593 68.5932 324.623 68.4422 324.697 68.312C332.019 55.3952 352.491 65.0074 352.697 65.1171C352.78 65.1561 352.854 65.2114 352.915 65.2797C352.977 65.3481 353.024 65.428 353.053 65.5147C353.259 66.1043 358.086 80.2004 359.334 85.6029C360.417 90.3473 360.924 105.938 358.045 109.572C357.859 109.835 357.616 110.051 357.332 110.203C357.049 110.356 356.734 110.44 356.413 110.449ZM326.15 68.5588C330.549 73.5399 333.636 79.5395 335.132 86.0143C337.627 96.7783 353.218 109.078 356.413 109.078C356.413 109.078 356.673 109.078 356.961 108.708C359.292 105.787 359.142 90.8821 357.99 85.9046C356.838 80.9271 352.505 68.2845 351.847 66.2277C349.557 65.213 332.622 58.1239 326.15 68.5588Z" fill="#2E353A"/>
<g style="mix-blend-mode:multiply">
<path d="M355.809 77.3481C355.809 77.3481 352.258 87.9888 348.706 91.1837C345.964 93.4833 342.996 95.5001 339.848 97.2033C339.848 97.2033 337.723 89.7576 332.403 89.7576C327.083 89.7576 318.924 93.309 318.924 93.309C318.924 93.309 318.924 90.4706 325.656 86.9192L332.403 83.3815L348.007 77.3481H355.809Z" fill="#399B8E"/>
</g>
<path opacity="0.5" d="M355.809 77.3481C355.809 77.3481 352.258 87.9888 348.706 91.1837C345.964 93.4833 342.996 95.5001 339.848 97.2033C339.848 97.2033 337.723 89.7576 332.403 89.7576C327.083 89.7576 318.924 93.309 318.924 93.309C318.924 93.309 318.924 90.4706 325.656 86.9192L332.403 83.3815L348.007 77.3481H355.809Z" fill="white"/>
<path d="M325.246 68.6544C329.744 73.6153 332.901 79.6424 334.419 86.1648C336.915 97.0111 352.601 109.763 356.358 109.763C360.115 109.763 359.855 91.1697 358.607 85.7534C357.359 80.3371 352.354 65.7338 352.354 65.7338C352.354 65.7338 332.39 56.1353 325.246 68.6544Z" fill="white"/>
<path d="M356.413 110.449C352.382 110.449 336.339 97.3405 333.802 86.316C332.298 79.9228 329.204 74.013 324.807 69.1347C324.701 69.0284 324.633 68.8904 324.613 68.7418C324.594 68.5932 324.623 68.4422 324.697 68.312C332.02 55.3952 352.492 65.0074 352.697 65.1171C352.78 65.1561 352.855 65.2114 352.916 65.2797C352.977 65.3481 353.024 65.428 353.054 65.5147C353.26 66.1043 358.086 80.2004 359.334 85.6029C360.417 90.3473 360.925 105.938 358.045 109.572C357.86 109.835 357.616 110.051 357.333 110.203C357.05 110.356 356.735 110.44 356.413 110.449ZM326.151 68.5588C330.549 73.5399 333.636 79.5395 335.132 86.0143C337.628 96.7783 353.218 109.078 356.413 109.078C356.413 109.078 356.674 109.078 356.962 108.708C359.293 105.787 359.142 90.8821 357.99 85.9046C356.838 80.9271 352.505 68.2845 351.847 66.2277C349.557 65.213 332.623 58.1239 326.151 68.5588Z" fill="#2E353A"/>
<path d="M312.068 48.5531C315.01 56.5535 318.649 64.2802 322.942 71.6443C329.277 82.0518 341.508 87.948 348.296 85.233C355.083 82.518 359.704 73.7559 357.894 60.181C357.496 57.1917 354.891 55.9713 354.055 53.3249C351.052 43.7264 347.994 34.4708 346.938 30.9468C345.567 26.408 334.707 21.883 323.394 25.0505C312.082 28.218 310.258 37.6794 312.068 48.5531Z" fill="white"/>
<path d="M349.653 40.2433C349.653 40.2433 345.54 43.3011 336.298 41.5323C327.056 39.7634 320.693 40.1611 321.05 42.6018C321.406 45.0426 322.119 48.2649 322.119 48.2649C322.119 48.2649 311.026 38.6664 321.077 36.116C328.317 34.2374 332.499 37.0896 334.268 37.4872C336.037 37.8849 349.653 40.2433 349.653 40.2433Z" fill="#399B8E"/>
<path opacity="0.5" d="M349.653 40.2433C349.653 40.2433 345.54 43.3011 336.298 41.5323C327.056 39.7634 320.693 40.1611 321.05 42.6018C321.406 45.0426 322.119 48.2649 322.119 48.2649C322.119 48.2649 311.026 38.6664 321.077 36.116C328.317 34.2374 332.499 37.0896 334.268 37.4872C336.037 37.8849 349.653 40.2433 349.653 40.2433Z" fill="white"/>
<path d="M344.511 86.6313C337.148 86.6313 327.563 80.6117 322.353 72.0416C318.023 64.6352 314.352 56.8625 311.383 48.8133C311.375 48.7772 311.375 48.7398 311.383 48.7036C309.12 35.1972 312.987 27.2305 323.189 24.3784C335.023 21.06 346.143 25.9415 347.583 30.7271C348.076 32.3862 348.954 35.2932 350.174 38.9543C351.546 43.068 353.095 48.0454 354.686 53.1463C355.084 54.1612 355.67 55.0916 356.413 55.8888C357.522 57.0528 358.266 58.5163 358.553 60.0984C360.582 75.3325 354.713 83.4089 348.543 85.8771C347.259 86.3832 345.891 86.6392 344.511 86.6313ZM312.74 48.3745C315.662 56.3101 319.268 63.9766 323.518 71.2874C329.894 81.7498 341.947 87.0289 348.049 84.5882C353.74 82.312 359.142 74.7292 357.209 60.2629C356.957 58.9414 356.334 57.7189 355.412 56.7389C354.546 55.7889 353.879 54.6744 353.452 53.4617C351.861 48.3745 350.257 43.3833 348.94 39.2834C347.775 35.6634 346.842 32.7427 346.335 31.0562C345.183 27.2442 335.05 22.4312 323.628 25.5713C314.194 28.2863 310.642 35.7183 312.74 48.3745Z" fill="#2E353A"/>
<path d="M320.227 63.4854C320.227 63.4854 312.973 60.3179 312.521 63.4854C312.068 66.6529 315.263 68.9703 318.403 70.3415C319.186 70.7698 320.079 70.9554 320.968 70.8749C321.856 70.7943 322.701 70.4511 323.394 69.889" fill="white"/>
<path d="M320.693 71.5482C319.814 71.5372 318.946 71.3458 318.143 70.986C313.659 69.0663 311.424 66.3924 311.849 63.458C311.885 63.1226 312.003 62.8011 312.192 62.5215C312.38 62.2419 312.635 62.0126 312.932 61.8537C315.112 60.6333 319.953 62.6902 320.501 62.937C320.656 63.0183 320.773 63.1555 320.83 63.3205C320.887 63.4856 320.878 63.666 320.807 63.8252C320.735 63.9843 320.605 64.11 320.444 64.1769C320.283 64.2437 320.102 64.2465 319.939 64.1848C318.129 63.3895 314.797 62.3885 313.59 63.0467C313.481 63.1066 313.388 63.1934 313.321 63.2989C313.254 63.4044 313.214 63.5252 313.206 63.65C312.768 66.7078 316.443 68.7646 318.691 69.7245C319.351 70.0913 320.104 70.2569 320.857 70.2009C321.61 70.1448 322.33 69.8696 322.928 69.4091C323.06 69.2976 323.229 69.2401 323.402 69.2479C323.575 69.2558 323.738 69.3285 323.859 69.4515C323.98 69.5745 324.051 69.7387 324.056 69.9113C324.061 70.084 324.002 70.2523 323.888 70.3826C323.009 71.1608 321.867 71.5772 320.693 71.5482Z" fill="#2E353A"/>
<path d="M349.831 45.5775C349.831 45.5775 341.755 43.6578 345.21 54.4218C345.896 56.5472 350.599 59.0291 350.599 59.0291C350.599 59.0291 350.215 62.4845 348.296 62.8685" fill="white"/>
<path d="M348.282 63.554C348.125 63.5515 347.973 63.496 347.851 63.3965C347.729 63.297 347.644 63.1592 347.61 63.0055C347.592 62.9163 347.592 62.8244 347.61 62.7353C347.628 62.6461 347.664 62.5614 347.715 62.4861C347.766 62.4108 347.831 62.3464 347.908 62.2967C347.984 62.247 348.069 62.2129 348.159 62.1965C349.146 61.9908 349.653 60.3591 349.845 59.4541C348.584 58.741 345.211 56.7117 344.566 54.6823C343.277 50.6783 343.387 47.8262 344.881 46.2082C346.719 44.2199 349.845 44.9467 349.982 44.9741C350.158 45.0164 350.311 45.1267 350.406 45.2808C350.501 45.435 350.531 45.6205 350.49 45.7968C350.47 45.8849 350.434 45.9683 350.381 46.0419C350.329 46.1154 350.263 46.1778 350.186 46.2251C350.109 46.2724 350.024 46.3038 349.935 46.3174C349.845 46.331 349.754 46.3265 349.667 46.3042C349.667 46.3042 347.171 45.742 345.882 47.1406C344.593 48.5392 344.758 50.8155 345.882 54.2572C346.321 55.6284 349.214 57.5618 350.928 58.4668C351.048 58.5347 351.144 58.6355 351.208 58.7571C351.271 58.8787 351.298 59.016 351.285 59.1524C351.285 59.5638 350.778 63.1289 348.433 63.5951L348.282 63.554Z" fill="#2E353A"/>
<path d="M344.058 70.547C344.058 70.547 338.299 71.6988 335.995 69.0112Z" fill="white"/>
<path d="M341.302 71.5479C340.243 71.6319 339.178 71.4949 338.175 71.1455C337.172 70.7962 336.252 70.2421 335.475 69.5185C335.416 69.4501 335.372 69.3708 335.344 69.2852C335.316 69.1996 335.305 69.1093 335.312 69.0195C335.319 68.9298 335.344 68.8422 335.385 68.762C335.425 68.6817 335.482 68.6103 335.55 68.5518C335.618 68.4933 335.698 68.4488 335.783 68.4209C335.869 68.393 335.959 68.3823 336.049 68.3893C336.139 68.3963 336.226 68.4209 336.307 68.4617C336.387 68.5025 336.458 68.5588 336.517 68.6272C338.532 70.9857 343.88 69.9984 343.935 69.9984C344.023 69.9785 344.113 69.9767 344.201 69.9932C344.29 70.0096 344.374 70.044 344.448 70.094C344.523 70.1441 344.586 70.2089 344.635 70.2844C344.683 70.36 344.716 70.4446 344.73 70.5332C344.748 70.6214 344.749 70.7123 344.732 70.8008C344.715 70.8892 344.68 70.9733 344.631 71.0485C344.581 71.1236 344.517 71.1882 344.442 71.2386C344.368 71.289 344.284 71.3242 344.196 71.3422C343.239 71.4939 342.271 71.5627 341.302 71.5479Z" fill="#2E353A"/>
<path d="M335.612 52.502C335.612 52.502 331.389 50.9662 329.085 52.8859C327.852 53.7441 326.899 54.9457 326.343 56.3414" fill="white"/>
<path d="M326.397 57.0136H326.233C326.146 56.9912 326.063 56.9518 325.991 56.8976C325.919 56.8434 325.858 56.7755 325.812 56.6978C325.767 56.6201 325.737 56.5341 325.724 56.4448C325.711 56.3554 325.717 56.2645 325.739 56.1771C326.313 54.6485 327.324 53.3226 328.646 52.3652C331.224 50.2261 335.667 51.803 335.845 51.8715C335.931 51.9006 336.01 51.9467 336.077 52.007C336.145 52.0674 336.199 52.1407 336.238 52.2227C336.276 52.3046 336.298 52.3935 336.301 52.484C336.304 52.5744 336.289 52.6646 336.256 52.7491C336.195 52.92 336.067 53.0593 335.903 53.1364C335.738 53.2136 335.55 53.2222 335.379 53.1605C335.379 53.1605 331.498 51.7892 329.524 53.421C328.437 54.2094 327.588 55.2814 327.069 56.5199C327.025 56.6634 326.936 56.7889 326.815 56.8778C326.694 56.9667 326.548 57.0143 326.397 57.0136Z" fill="#2E353A"/>
<path d="M335.502 59.0704C336.051 60.3456 335.941 61.6072 335.255 61.8951C334.57 62.1831 333.583 61.4015 333.034 60.1263C332.486 58.851 332.609 57.6032 333.295 57.3016C333.98 56.9999 334.968 57.8363 335.502 59.0704Z" fill="#2E353A"/>
<path d="M349.31 52.3517C349.858 53.6132 349.735 54.8747 349.063 55.1764C348.391 55.4781 347.377 54.6691 346.842 53.4076C346.307 52.146 346.403 50.8708 347.089 50.5829C347.774 50.2949 348.761 51.0902 349.31 52.3517Z" fill="#2E353A"/>
<path d="M318.211 65.3091C318.211 65.3091 322.791 61.9771 321.954 59.0564C321.118 56.1358 319.459 56.1358 321.132 54.4766C322.804 52.8174 324.039 51.9673 323.627 49.4717C323.216 46.9761 316.538 42.7939 318.622 40.2983C320.707 37.8027 319.87 34.8134 336.969 39.0368C354.068 43.2601 364.914 36.5412 359.909 30.2884C354.905 24.0357 350.736 23.1993 350.736 23.1993C350.736 23.1993 360.334 19.0857 352.409 14.8486C344.483 10.6116 326.548 10.735 316.538 18.6057C306.528 26.4765 308.612 33.1543 308.612 33.1543C308.612 33.1543 303.196 33.9907 302.771 42.3414C302.346 50.692 318.211 65.3091 318.211 65.3091Z" fill="#2E353A"/>
<path d="M345.498 37.3777C341.854 37.2247 338.265 36.4261 334.899 35.0192C332.261 33.8944 329.451 33.2266 326.59 33.0447C319.967 33.0447 318.595 36.8018 318.54 36.9663C318.522 37.0249 318.492 37.0791 318.452 37.1256C318.412 37.1721 318.363 37.21 318.308 37.2369C318.252 37.2638 318.192 37.2793 318.131 37.2823C318.07 37.2852 318.008 37.2757 317.951 37.2543C317.892 37.2356 317.838 37.2055 317.791 37.1657C317.744 37.1259 317.705 37.0772 317.677 37.0224C317.649 36.9675 317.632 36.9077 317.627 36.8463C317.623 36.7849 317.63 36.7232 317.649 36.6647C317.718 36.4864 319.254 32.0985 326.59 32.0985C329.561 32.2743 332.48 32.9656 335.214 34.1416C339.479 35.6637 343.908 37.2406 349.475 36.0065C352.492 35.3346 354.261 34.2513 354.699 32.8116C355.275 30.9604 353.493 29.027 353.479 28.9996C353.392 28.9122 353.343 28.7939 353.343 28.6705C353.343 28.5472 353.392 28.4288 353.479 28.3414C353.57 28.2566 353.69 28.2095 353.815 28.2095C353.939 28.2095 354.059 28.2566 354.151 28.3414C354.233 28.4374 356.317 30.6999 355.591 33.0721C355.028 34.8684 353.04 36.1573 349.667 36.9115C348.298 37.2142 346.901 37.3705 345.498 37.3777Z" fill="white"/>
<path d="M314.906 36.2259C314.782 36.2154 314.666 36.1564 314.584 36.0616C314.502 35.9668 314.46 35.8437 314.468 35.7186C314.468 35.6226 315.277 26.5726 323.298 24.5432C328.029 23.3502 333.5 24.2415 337.902 24.9546C340.644 25.407 343.099 25.8047 344.127 25.4071C344.24 25.3829 344.358 25.4002 344.459 25.4558C344.56 25.5115 344.638 25.6018 344.678 25.7101C344.718 25.8184 344.717 25.9375 344.677 26.0456C344.636 26.1536 344.558 26.2434 344.456 26.2983C343.195 26.7646 340.795 26.3806 337.751 25.887C333.431 25.1739 328.056 24.3101 323.531 25.4482C316.154 27.3267 315.414 35.7048 315.4 35.7871C315.397 35.8484 315.381 35.9083 315.354 35.9636C315.328 36.0188 315.29 36.0682 315.244 36.109C315.199 36.1498 315.145 36.1811 315.087 36.2011C315.029 36.2212 314.968 36.2296 314.906 36.2259Z" fill="white"/>
<path d="M309.6 50.3767C309.507 50.3751 309.416 50.3466 309.339 50.2945C308.108 49.2621 307.154 47.9391 306.562 46.4451C305.971 44.9512 305.761 43.3334 305.952 41.7381C306.336 35.7048 310.971 35.6362 311.026 35.6362C311.137 35.6553 311.239 35.7133 311.312 35.7998C311.385 35.8864 311.425 35.996 311.425 36.1093C311.425 36.2226 311.385 36.3322 311.312 36.4188C311.239 36.5053 311.137 36.5633 311.026 36.5824C310.861 36.5824 307.214 36.6646 306.912 41.793C306.727 43.2278 306.901 44.6862 307.421 46.0364C307.941 47.3867 308.788 48.5862 309.888 49.5266C309.938 49.5608 309.981 49.605 310.014 49.6563C310.048 49.7077 310.07 49.7652 310.08 49.8254C310.09 49.8856 310.088 49.9473 310.074 50.0067C310.06 50.0661 310.034 50.122 309.997 50.1711C309.956 50.2379 309.897 50.2922 309.827 50.3284C309.757 50.3646 309.678 50.3813 309.6 50.3767Z" fill="white"/>
<path d="M312.439 46.4823C312.349 46.4823 312.261 46.4564 312.186 46.4078C312.11 46.3592 312.05 46.2898 312.013 46.208C311.675 45.5825 311.474 44.8918 311.425 44.1823C311.375 43.4729 311.478 42.761 311.726 42.0944C312.33 40.7874 313.408 39.7584 314.742 39.2148C314.799 39.1906 314.86 39.1781 314.921 39.1782C314.983 39.1783 315.043 39.1909 315.1 39.2153C315.156 39.2397 315.207 39.2753 315.25 39.32C315.292 39.3648 315.324 39.4176 315.345 39.4754C315.391 39.59 315.388 39.7177 315.34 39.8308C315.291 39.9438 315.199 40.0329 315.085 40.0787C313.993 40.5412 313.107 41.3841 312.589 42.4509C312.395 42.9985 312.319 43.581 312.367 44.16C312.414 44.7391 312.583 45.3015 312.864 45.8104C312.915 45.9251 312.92 46.0554 312.876 46.1734C312.832 46.2914 312.744 46.3875 312.63 46.4411C312.57 46.4679 312.505 46.4819 312.439 46.4823Z" fill="white"/>
<path d="M313.495 53.915C313.419 53.9135 313.345 53.894 313.278 53.8583C313.211 53.8225 313.154 53.7715 313.111 53.7094L311.342 51.2412C311.269 51.1394 311.24 51.0128 311.26 50.8894C311.281 50.7659 311.35 50.6557 311.451 50.583C311.553 50.5103 311.68 50.481 311.803 50.5015C311.927 50.5221 312.037 50.5909 312.11 50.6927L313.879 53.1746C313.948 53.2749 313.976 53.3987 313.956 53.5193C313.935 53.6398 313.868 53.7475 313.769 53.8191C313.692 53.8823 313.594 53.9163 313.495 53.915Z" fill="white"/>
<path d="M247.748 318.187H302.699C306.52 318.187 309.349 317.625 311.625 316.53C313.9 315.434 315.737 314.073 317.108 312.445C318.479 310.818 319.471 309.101 320.054 307.237C320.637 305.402 320.929 303.685 320.929 302.146C320.929 300.223 320.579 298.299 319.908 296.346C319.237 294.392 318.158 292.646 316.729 291.107C315.3 289.568 313.462 288.296 311.245 287.319C309.029 286.343 306.433 285.839 303.428 285.839H289.836V275.511H304.654C308.854 275.511 312.529 276.251 315.65 277.701C318.8 279.151 321.425 281.104 323.583 283.561C325.712 286.017 327.346 288.799 328.396 291.995C329.475 295.162 330 298.477 330 301.88C330 305.431 329.475 308.835 328.425 312.09C327.375 315.346 325.712 318.157 323.437 320.584C321.162 323.011 318.246 324.935 314.687 326.385C311.129 327.835 306.841 328.545 301.387 328.545H247.748V318.187Z" fill="#B24097"/>
<path d="M272.253 285.869H216.863C213.48 285.869 210.651 286.431 208.376 287.526C206.101 288.621 204.263 289.982 202.892 291.61C201.521 293.238 200.529 294.954 199.946 296.819C199.363 298.654 199.071 300.37 199.071 301.909C199.071 303.833 199.421 305.756 200.092 307.71C200.763 309.663 201.842 311.409 203.271 312.948C204.7 314.487 206.538 315.76 208.755 316.736C210.971 317.713 213.567 318.216 216.572 318.216H230.164V328.545H215.376C211.176 328.545 207.501 327.805 204.38 326.355C201.23 324.904 198.604 322.951 196.446 320.495C194.317 318.038 192.683 315.256 191.633 312.06C190.525 308.893 190 305.579 190 302.175C190 298.624 190.525 295.221 191.575 291.965C192.625 288.71 194.288 285.898 196.563 283.471C198.838 281.045 201.755 279.121 205.313 277.671C208.871 276.221 213.159 275.51 218.176 275.51H272.253V285.869Z" fill="#DB283D"/>
<path d="M244.076 289.597V345.798C244.076 349.231 244.63 352.101 245.709 354.41C246.788 356.718 248.13 358.583 249.734 359.974C251.339 361.365 253.03 362.371 254.868 362.963C256.676 363.555 258.368 363.851 259.885 363.851C261.781 363.851 263.676 363.496 265.602 362.815C267.527 362.134 269.247 361.039 270.764 359.589C272.281 358.139 273.535 356.274 274.498 354.025C275.46 351.776 275.956 349.142 275.956 346.094V332.302H286.135V347.337C286.135 351.598 285.406 355.327 283.977 358.494C282.548 361.69 280.623 364.354 278.202 366.544C275.781 368.704 273.039 370.362 269.889 371.427C266.768 372.522 263.501 373.055 260.147 373.055C256.647 373.055 253.293 372.522 250.084 371.457C246.876 370.391 244.105 368.704 241.713 366.396C239.322 364.087 237.426 361.128 235.996 357.517C234.567 353.907 233.867 349.556 233.867 344.466V289.597H244.076Z" fill="#21AACE"/>
<path d="M275.927 314.458V253.522C275.927 254.824 275.373 251.953 274.293 249.645C273.214 247.336 271.873 245.472 270.268 244.081C268.664 242.69 266.972 241.684 265.135 241.092C263.326 240.5 261.635 240.204 260.118 240.204C258.222 240.204 256.326 240.559 254.401 241.24C252.476 241.921 250.755 243.016 249.238 244.466C247.722 245.916 246.468 247.78 245.505 250.03C244.543 252.279 244.047 254.913 244.047 257.961V271.752H233.867V256.748C233.867 252.486 234.596 248.757 236.026 245.59C237.455 242.394 239.38 239.731 241.801 237.541C244.222 235.38 246.963 233.723 250.114 232.657C253.234 231.533 256.501 231 259.855 231C263.356 231 266.71 231.533 269.918 232.598C273.127 233.664 275.898 235.35 278.289 237.659C280.681 239.967 282.577 242.927 284.006 246.537C285.435 250.148 286.135 254.498 286.135 254.854V314.458H275.927Z" fill="#239B7E"/>
<defs>
<filter id="filter0_d_107_195" x="123" y="182" width="260.495" height="260.495" filterUnits="userSpaceOnUse" color-interpolation-filters="sRGB">
<feFlood flood-opacity="0" result="BackgroundImageFix"/>
<feColorMatrix in="SourceAlpha" type="matrix" values="0 0 0 0 0 0 0 0 0 0 0 0 0 0 0 0 0 0 127 0" result="hardAlpha"/>
<feOffset dx="-4" dy="4"/>
<feGaussianBlur stdDeviation="2"/>
<feComposite in2="hardAlpha" operator="out"/>
<feColorMatrix type="matrix" values="0 0 0 0 0 0 0 0 0 0 0 0 0 0 0 0 0 0 0.15 0"/>
<feBlend mode="normal" in2="BackgroundImageFix" result="effect1_dropShadow_107_195"/>
<feBlend mode="normal" in="SourceGraphic" in2="effect1_dropShadow_107_195" result="shape"/>
</filter>
<linearGradient id="paint0_linear_107_195" x1="190.628" y1="215.838" x2="302.844" y2="345.895" gradientUnits="userSpaceOnUse">
<stop stop-color="#A4F6EB"/>
<stop offset="0.600059" stop-color="#4AD8C5"/>
</linearGradient>
</defs>
</svg>
