<svg width="600" height="645" fill="none" xmlns="http://www.w3.org/2000/svg"><g clip-path="url(#clip0_861_21621)"><g filter="url(#filter0_dddddd_861_21621)"><rect x="26.421" y="26.421" width="735.159" height="457.159" rx="13.579" fill="#fff" stroke="#D5D5D5" stroke-width="2.841"/><g clip-path="url(#clip1_861_21621)"><path d="M27 79h736v391c0 8.284-6.716 15-15 15H42c-8.284 0-15-6.716-15-15V79z" fill="#fff"/><text fill="#6A737C" font-family="Arial" font-size="16.576" letter-spacing="0em" white-space="pre"><tspan x="200.251" y="152.868">2</tspan></text><path d="M191.763 124.573h25.258l-12.629-12.63-12.629 12.63zm0 44.619h25.258l-12.629 12.629-12.629-12.629z" fill="#BBC0C4"/><path d="M198.181 205.19a6.315 6.315 0 1 1 2.945 5.344l1.16-1.161a4.738 4.738 0 0 0 5.654-.938 4.728 4.728 0 0 0 .61-5.698 4.738 4.738 0 0 0-5.327-2.114 4.736 4.736 0 0 0-3.463 4.567l2.376-.008-3.157 3.157-3.158-3.157h2.368l-.008.008zm5.526-3.158h.797l-.008 3.442 2.542 1.658-.474.734-2.857-1.887v-3.947z" fill="#BAC0C5"/><g clip-path="url(#clip2_861_21621)"><g clip-path="url(#clip3_861_21621)"><path fill-rule="evenodd" clip-rule="evenodd" d="M239.331 113.416l2.368 2.368v-7.894c0-.872-.707-1.578-1.579-1.578h-6.315c-.871 0-1.578.706-1.578 1.578v3.947c0 .872.707 1.579 1.578 1.579h5.526z" fill="#F1720D"/><path d="M236.766 106.88a.236.236 0 0 1 .443 0l.61 1.63a.235.235 0 0 0 .211.153l1.738.076c.219.01.309.286.137.422l-1.361 1.083a.237.237 0 0 0-.081.249l.465 1.676a.237.237 0 0 1-.359.261l-1.451-.96a.238.238 0 0 0-.261 0l-1.451.96a.237.237 0 0 1-.359-.261l.465-1.676a.237.237 0 0 0-.081-.249l-1.361-1.083a.237.237 0 0 1 .137-.422l1.738-.076a.235.235 0 0 0 .211-.153l.61-1.63z" fill="#fff"/><text fill="#F1720D" font-family="Arial" font-size="9.472" letter-spacing="0em" white-space="pre"><tspan x="245.646" y="114.332">Answer recommended by</tspan></text><text fill="#07C" font-family="Arial" font-size="9.472" letter-spacing="0em" white-space="pre"><tspan x="355.739" y="114.332">Audio Bubble</tspan></text></g><rect opacity=".5" x="231.438" y="126.048" width="278" height="19" rx="3.429" fill="url(#paint0_linear_861_21621)"/><rect opacity=".5" x="231.438" y="154.048" width="214" height="19" rx="3.429" fill="url(#paint1_linear_861_21621)"/><path d="M231.438 185.995a3.946 3.946 0 0 1 3.946-3.947h512.277a3.947 3.947 0 0 1 3.947 3.947v227.328a3.947 3.947 0 0 1-3.947 3.946H235.384a3.946 3.946 0 0 1-3.946-3.946V185.995z" fill="#F1F2F3"/><rect opacity=".5" x="246" y="196" width="326" height="14" rx="3.429" fill="url(#paint2_linear_861_21621)"/><rect opacity=".5" x="246" y="218" width="214" height="14" rx="3.429" fill="url(#paint3_linear_861_21621)"/><rect opacity=".5" x="246" y="240" width="264" height="14" rx="3.429" fill="url(#paint4_linear_861_21621)"/><rect opacity=".5" x="246" y="262" width="214" height="14" rx="3.429" fill="url(#paint5_linear_861_21621)"/></g><g clip-path="url(#clip4_861_21621)" fill="#838D96" font-family="Arial" font-size="10.261" letter-spacing="0em" white-space="pre"><text><tspan x="231.438" y="438.378">share</tspan></text><text><tspan x="266.91" y="438.378">edit</tspan></text><text><tspan x="293.381" y="438.378">follow</tspan></text></g><path fill="#23272A" filter="url(#filter1_dd_861_21621)" d="M-88 79H914.45V118.467H-88z"/><path fill="#F48024" d="M-88 79H914.45V81.368H-88z"/><path d="M70.245 109.945v-6.315h2.368v8.683H53.67v-8.683h2.368v6.315h14.208z" fill="#fff"/><path d="M57.934 103.709l10.704 1.547.13-1.879-10.464-2.01-.37 2.342zm1.419-5.368l9.472 4.42.868-1.894-9.472-4.42-.868 1.894zm2.683-4.657l8.052 6.709 1.342-1.578-8.052-6.71-1.342 1.579zm5.131-4.894l-1.657 1.263 6.235 8.367 1.658-1.263-6.236-8.367zm-9.55 19.576h11.05v-2.368h-11.05v2.368zm42.734-11.048h-6.136c-.184 0-.307.123-.307.308v9.619c0 .184.123.307.307.307h1.473c.184 0 .307-.123.307-.307v-3.75h3.681c.184 0 .307-.122.307-.307v-1.321c0-.185-.123-.308-.307-.308h-3.681v-2.305h4.387c.184 0 .307-.123.307-.307v-1.322c-.031-.153-.184-.307-.338-.307zm8.124 2.152a3.082 3.082 0 0 0-.705-1.107c-.737-.737-1.688-1.106-2.762-1.106s-1.994.369-2.73 1.106c-.246.246-.461.523-.583.8a4.323 4.323 0 0 0-.307.891c-.061.307-.092.645-.123.983-.031.338-.031.83-.031 1.414 0 .768.031 1.352.062 1.782.031.43.123.83.276 1.23.153.399.399.737.706 1.106.736.738 1.656 1.106 2.73 1.106s1.995-.368 2.762-1.137c.307-.338.552-.707.705-1.106.154-.369.215-.799.246-1.23.031-.399.031-1.014.031-1.782s0-1.352-.031-1.783c0-.399-.092-.799-.246-1.167zm-5.062 1.014c.061-.338.184-.615.368-.83.123-.154.307-.277.522-.369.214-.092.46-.123.675-.123.245 0 .46.062.675.123.214.092.399.215.521.369.184.215.307.461.368.799.062.369.092 1.045.092 1.967 0 .615 0 1.106-.03 1.475-.031.338-.062.615-.154.799a1.201 1.201 0 0 1-.306.492c-.307.338-.706.492-1.197.492a1.654 1.654 0 0 1-1.197-.461c-.122-.123-.214-.246-.245-.369a1.485 1.485 0 0 1-.123-.461c-.03-.215-.061-.461-.092-.768 0-.308-.031-.707-.031-1.199.062-.891.093-1.567.154-1.936zm11.881 2.704c.46-.184.859-.491 1.197-.891.398-.492.583-1.106.583-1.844 0-.584-.123-1.137-.399-1.598a2.89 2.89 0 0 0-1.166-1.106c-.491-.277-1.074-.4-1.718-.4h-3.744c-.184 0-.306.123-.306.307v9.62c0 .184.122.307.306.307h1.473c.184 0 .307-.123.307-.307v-3.75h1.319l1.933 3.873c.062.092.154.184.276.184h1.688a.363.363 0 0 0 .276-.154.28.28 0 0 0 0-.307l-2.025-3.934zm-3.467-3.934h1.841c.429 0 .736.093.982.338.245.216.337.492.337.892 0 .369-.123.645-.337.86-.246.215-.553.338-.982.338h-1.841v-2.428zm17.522-1.936h-6.75c-.184 0-.307.123-.307.308v1.321c0 .185.123.307.307.307h2.332v7.991c0 .184.122.307.306.307h1.442c.185 0 .307-.123.307-.307v-7.99h2.332c.184 0 .307-.123.307-.308v-1.321c.031-.154-.123-.308-.276-.308zm8.1 0h-6.137c-.184 0-.306.123-.306.308v9.619c0 .184.122.307.306.307h6.137c.184 0 .307-.123.307-.307v-1.321c0-.185-.123-.308-.307-.308h-4.388v-2.274h3.682c.184 0 .307-.123.307-.307v-1.291c0-.185-.123-.307-.307-.307h-3.682v-2.183h4.388c.184 0 .307-.122.307-.307v-1.321a.33.33 0 0 0-.307-.308zm6.418.215a.296.296 0 0 0-.276-.215h-1.166a.294.294 0 0 0-.276.215l-3.529 9.62a.295.295 0 0 0 .031.276.276.276 0 0 0 .245.123h1.565a.294.294 0 0 0 .276-.215l.583-1.721h3.344l.583 1.721a.296.296 0 0 0 .277.215h1.564c.092 0 .184-.061.246-.123a.298.298 0 0 0 .03-.276l-3.497-9.62zm.184 6.239h-2.087l1.074-3.012 1.013 3.012zm13.198-6.454h-1.472c-.123 0-.215.062-.276.185l-2.455 5.378-2.516-5.378c-.061-.123-.153-.185-.276-.185h-1.473c-.184 0-.307.123-.307.308v9.619c0 .184.123.307.307.307h1.473c.184 0 .307-.123.307-.307v-5.071l1.687 3.473c.062.092.154.184.276.184h1.074c.123 0 .215-.061.276-.184l1.627-3.442v5.071c0 .184.122.307.306.307h1.473c.184 0 .307-.123.307-.307v-9.62c-.031-.184-.154-.338-.338-.338zm8.254 5.01c-.215-.215-.491-.369-.798-.492a4.745 4.745 0 0 0-1.135-.277l-1.105-.153c-.184-.031-.368-.062-.552-.154a1.288 1.288 0 0 1-.368-.215c-.184-.154-.246-.369-.246-.676 0-.246.062-.43.154-.615a1.15 1.15 0 0 1 .46-.4 2.05 2.05 0 0 1 .798-.153c.276 0 .521.03.736.061.215.031.43.123.614.216.184.092.368.215.552.4a.297.297 0 0 0 .43 0l.951-.923a.334.334 0 0 0 .092-.215.28.28 0 0 0-.092-.215 4.37 4.37 0 0 0-1.412-.891c-.491-.185-1.104-.277-1.779-.277-.706 0-1.32.123-1.841.369a2.864 2.864 0 0 0-1.227 1.106 3.135 3.135 0 0 0-.43 1.629c0 .861.276 1.567.798 2.059.491.461 1.135.738 1.994.861l1.135.153c.246.031.461.093.583.123a.519.519 0 0 1 .307.215c.184.154.276.431.276.769 0 .369-.122.645-.399.83-.306.215-.736.338-1.288.338-.307 0-.614-.031-.859-.093a3.565 3.565 0 0 1-.737-.276 3.025 3.025 0 0 1-.644-.492.28.28 0 0 0-.215-.092.281.281 0 0 0-.215.092l-.981.953a.276.276 0 0 0-.092.215c0 .092.03.154.092.215.491.492 1.012.83 1.595 1.045.583.215 1.258.307 2.025.307.522 0 1.043-.061 1.473-.215.46-.123.859-.338 1.196-.614.338-.277.614-.615.798-1.015.184-.399.276-.829.276-1.29-.03-.984-.337-1.721-.92-2.213z" fill="#fff"/><path fill="#fff" d="M83.664 97.315H84.453V107.576H83.664z"/><rect x="188.267" y="92.419" width="12.629" height="12.629" rx="2.368" fill="#F1720D"/><text fill="#fff" font-family="Arial" font-size="8.683" font-weight="bold" letter-spacing="0em" white-space="pre"><tspan x="191.424" y="102.007">Y</tspan></text><path d="M196.949 101.765l3.552-1.453 3.552 1.453v2.502c0 1.987-2.128 3.939-3.552 3.939s-3.552-1.952-3.552-3.939v-2.502z" fill="#fff"/><path fill-rule="evenodd" clip-rule="evenodd" d="M197.739 102.286l2.762-1.184 2.763 1.184v1.981c0 1.843-2.096 3.149-2.763 3.149-.667 0-2.762-1.306-2.762-3.149v-1.981zm2.353 2.387l-.617 1.165 2.053-.003-.617-1.162a.308.308 0 0 1 .118-.305c.267-.187.576-.554.576-.896 0-.564-.39-.973-1.113-.973s-1.092.409-1.092.973c0 .342.307.709.573.896a.304.304 0 0 1 .119.305z" fill="#6A7E7C"/><text fill="#fff" font-family="Arial" font-size="10.261" letter-spacing="0em" white-space="pre"><tspan x="206.421" y="103.87">Your Team</tspan></text><path d="M335.558 99.209h6.314l-3.157 3.157-3.157-3.157z" fill="#fff"/><path d="M359.157 90.05c0-1.09.884-1.973 1.974-1.973h498.858c1.09 0 1.974.884 1.974 1.974v20.522c0 1.09-.884 1.974-1.974 1.974H361.131a1.974 1.974 0 0 1-1.974-1.974V90.051z" fill="#3C4146" stroke="#6A737C" stroke-width=".789"/><path fill-rule="evenodd" clip-rule="evenodd" d="M383.245 106.128l-4.054-4.088-.281-.001a5.525 5.525 0 1 0-.937.937v.282l4.088 4.054 1.184-1.184zm-4.736-7.5a3.947 3.947 0 1 1-7.894.001 3.947 3.947 0 0 1 7.894 0z" fill="#D6D9DC"/><text fill="#D6D9DC" font-family="Arial" font-size="10.261" letter-spacing="0em" white-space="pre"><tspan x="392.523" y="103.949">Search…</tspan></text><g filter="url(#filter2_ddd_861_21621)"><g clip-path="url(#clip5_861_21621)"><rect x="64.234" y="138.427" width="77.706" height="77.706" rx="8.094" fill="#F1720D"/><text fill="#fff" font-family="Arial" font-size="53.423" font-weight="bold" letter-spacing="0em" white-space="pre"><tspan x="83.661" y="195.541">Y</tspan></text></g><rect x="65.853" y="140.046" width="74.468" height="74.468" rx="6.476" stroke="#fff" stroke-width="3.238"/></g><text fill="#000" font-family="Arial" font-size="15.379" letter-spacing="0em" white-space="pre"><tspan x="66.734" y="240.677">Your Team</tspan></text><text fill="#525A61" font-family="Arial" font-size="10.523" letter-spacing="0em" white-space="pre"><tspan x="80.018" y="257.04">Private Team</tspan></text><path fill-rule="evenodd" clip-rule="evenodd" d="M67.876 251.142l4.452-1.822 4.452 1.809v3.048c0 2.835-3.475 4.857-4.452 4.857-.977 0-4.452-2.01-4.452-4.845v-3.047zm3.93 3.521l-.692 1.942h2.428l-.692-1.942a.426.426 0 0 1 .152-.41c.34-.25.54-.832.54-1.29 0-.756-.57-1.214-1.226-1.214-.662 0-1.202.458-1.202 1.214 0 .458.2 1.04.54 1.29.12.088.18.25.152.41z" fill="#525A61"/><text fill="#525A61" font-family="Arial" font-size="10.523" letter-spacing="0em" white-space="pre"><tspan x="82.133" y="274.846">Business</tspan></text><path stroke="#E4E6E8" stroke-width=".809" d="M169.461 289.435L36.713 289.435"/><path transform="translate(36.713 300.363)" fill="#F1F2F3" d="M0 0H132.748V27.521H0z"/><text fill="#0C0D0E" font-family="Arial" font-size="10.523" font-weight="bold" letter-spacing="0em" white-space="pre"><tspan x="43.189" y="317.772">Questions</tspan></text><path fill="#F1720D" d="M167.033 300.768H169.46099999999998V327.479H167.033z"/><text fill="#525A61" font-family="Arial" font-size="10.523" letter-spacing="0em" white-space="pre"><tspan x="43.189" y="345.293">For You</tspan></text><text fill="#525A61" font-family="Arial" font-size="10.523" letter-spacing="0em" white-space="pre"><tspan x="43.189" y="372.814">Articles</tspan></text><text fill="#525A61" font-family="Arial" font-size="10.523" letter-spacing="0em" white-space="pre"><tspan x="43.189" y="400.335">Collections</tspan></text><text fill="#525A61" font-family="Arial" font-size="10.523" letter-spacing="0em" white-space="pre"><tspan x="43.189" y="427.855">Bookmarks</tspan></text><text fill="#525A61" font-family="Arial" font-size="10.523" letter-spacing="0em" white-space="pre"><tspan x="43.189" y="455.377">Tags</tspan></text><text fill="#525A61" font-family="Arial" font-size="10.523" letter-spacing="0em" white-space="pre"><tspan x="43.189" y="482.897">Users</tspan></text><path stroke="#E4E6E8" stroke-width=".809" d="M169.056 578.81L169.056 119"/></g><rect x="26.421" y="26.421" width="735.159" height="457.159" rx="13.579" stroke="#D5D5D5" stroke-width="2.841"/><path stroke="#D4D4D4" stroke-width="2.841" d="M26.09 78.507L763 78.507"/><circle cx="54.358" cy="52.464" r="7.576" fill="#C4C4C4"/><circle cx="77.087" cy="52.464" r="7.576" fill="#C4C4C4"/><circle cx="99.816" cy="52.464" r="7.576" fill="#C4C4C4"/><rect x="158.531" y="36.364" width="471.884" height="31.252" rx="15.626" fill="#EAEAEA"/><text fill="#BAC0C5" font-family="Arial" font-size="12" letter-spacing="0em" white-space="pre"><tspan x="277.205" y="56.62">stackoverflowteams.com/yourteam/question</tspan></text></g><g filter="url(#filter3_dddddd_861_21621)"><rect x="189.115" y="242.115" width="660.321" height="378.566" rx="10.08" fill="#fff" stroke="#D6D9DC" stroke-width="1.186"/><path d="M189.708 577.398h659.135v33.204c0 5.239-4.248 9.487-9.487 9.487H199.194c-5.239 0-9.486-4.248-9.486-9.487v-33.204z" fill="#FAFBFB" filter="url(#filter4_d_861_21621)"/><text fill="#6A737C" font-family="Arial" font-size="10.246" letter-spacing="0em" white-space="pre"><tspan x="210.822" y="602.819">https://gist.github.com/nginx/default.conf</tspan></text><path d="M189.708 252.195c0-5.24 4.247-9.487 9.486-9.487h640.162a9.487 9.487 0 0 1 9.487 9.487v60.525H189.708v-60.525z" fill="#FAFBFB" filter="url(#filter5_d_861_21621)"/><text fill="#6A737C" font-family="Arial" font-size="15.368" letter-spacing="0em" white-space="pre"><tspan x="256.248" y="294.471">Last active June 17 ‘22 at 6:21 by nginx</tspan></text><path fill="#F1F2F3" d="M210.73 357.117H831.939V560.735H210.73z"/><text fill="#07C" font-family="Arial" font-size="17.076" font-weight="bold" letter-spacing="0em" white-space="pre"><tspan x="255.621" y="275.792">nginx / default.conf</tspan></text><text fill="#07C" font-family="Arial" font-size="14.437" letter-spacing="0em" white-space="pre"><tspan x="246.967" y="340.385">default.conf</tspan></text><text fill="#6A737C" font-family="Menlo" font-size="12.993" letter-spacing="0em" white-space="pre"><tspan x="218.737" y="376.197"># Default server configuration </tspan><tspan x="218.737" y="392.197"># </tspan><tspan x="218.737" y="408.197">server { </tspan><tspan x="218.737" y="424.197"> listen 80 default_server; </tspan><tspan x="218.737" y="440.197"> listen [::]:80 default_server; </tspan><tspan x="218.737" y="456.197"> </tspan><tspan x="218.737" y="472.197"> # SSL configuration </tspan><tspan x="218.737" y="488.197"> # </tspan><tspan x="218.737" y="504.197"> # listen 443 ssl default_server; </tspan><tspan x="218.737" y="520.197"> # listen [::]:443 ssl default_server; </tspan><tspan x="218.737" y="536.197"> #</tspan></text><path d="M226.322 329.35l-1.583-1.583-6.737 6.737 6.737 6.737 1.583-1.583-5.154-5.154 5.154-5.154zm2.246 0l1.583-1.583 6.737 6.737-6.737 6.737-1.583-1.583 5.154-5.154-5.154-5.154z" fill="#9199A1"/><path d="M229.397 262.008c-9.107 0-16.484 7.376-16.484 16.484 0 7.294 4.719 13.455 11.271 15.639.824.144 1.133-.35 1.133-.783 0-.391-.02-1.689-.02-3.07-4.142.762-5.213-1.01-5.543-1.937-.185-.474-.989-1.937-1.69-2.328-.577-.309-1.401-1.072-.02-1.092 1.298-.021 2.225 1.195 2.534 1.689 1.484 2.494 3.853 1.793 4.801 1.36.144-1.071.577-1.792 1.051-2.205-3.668-.412-7.5-1.833-7.5-8.139 0-1.792.639-3.276 1.689-4.43-.164-.412-.741-2.101.165-4.368 0 0 1.381-.433 4.533 1.69a15.294 15.294 0 0 1 4.121-.557c1.402 0 2.803.186 4.121.557 3.153-2.143 4.534-1.69 4.534-1.69.906 2.267.329 3.956.164 4.368 1.051 1.154 1.69 2.617 1.69 4.43 0 6.326-3.853 7.727-7.521 8.139.598.516 1.113 1.505 1.113 3.05 0 2.205-.021 3.977-.021 4.533 0 .433.309.948 1.133.783a16.51 16.51 0 0 0 11.23-15.639c0-9.108-7.376-16.484-16.484-16.484z" fill="#010101"/></g></g><defs><filter id="filter0_dddddd_861_21621" x="0" y="15" width="788" height="510" filterUnits="userSpaceOnUse" color-interpolation-filters="sRGB"><feFlood flood-opacity="0" result="BackgroundImageFix"/><feColorMatrix in="SourceAlpha" values="0 0 0 0 0 0 0 0 0 0 0 0 0 0 0 0 0 0 127 0" result="hardAlpha"/><feOffset dy=".415"/><feGaussianBlur stdDeviation=".346"/><feColorMatrix values="0 0 0 0 0.266667 0 0 0 0 0.239216 0 0 0 0 0.109804 0 0 0 0.0224916 0"/><feBlend in2="BackgroundImageFix" result="effect1_dropShadow_861_21621"/><feColorMatrix in="SourceAlpha" values="0 0 0 0 0 0 0 0 0 0 0 0 0 0 0 0 0 0 127 0" result="hardAlpha"/><feOffset dy=".998"/><feGaussianBlur stdDeviation=".831"/><feColorMatrix values="0 0 0 0 0.266667 0 0 0 0 0.239216 0 0 0 0 0.109804 0 0 0 0.0323114 0"/><feBlend in2="effect1_dropShadow_861_21621" result="effect2_dropShadow_861_21621"/><feColorMatrix in="SourceAlpha" values="0 0 0 0 0 0 0 0 0 0 0 0 0 0 0 0 0 0 127 0" result="hardAlpha"/><feOffset dy="1.878"/><feGaussianBlur stdDeviation="1.565"/><feColorMatrix values="0 0 0 0 0.266667 0 0 0 0 0.239216 0 0 0 0 0.109804 0 0 0 0.04 0"/><feBlend in2="effect2_dropShadow_861_21621" result="effect3_dropShadow_861_21621"/><feColorMatrix in="SourceAlpha" values="0 0 0 0 0 0 0 0 0 0 0 0 0 0 0 0 0 0 127 0" result="hardAlpha"/><feOffset dy="3.35"/><feGaussianBlur stdDeviation="2.792"/><feColorMatrix values="0 0 0 0 0.266667 0 0 0 0 0.239216 0 0 0 0 0.109804 0 0 0 0.0476886 0"/><feBlend in2="effect3_dropShadow_861_21621" result="effect4_dropShadow_861_21621"/><feColorMatrix in="SourceAlpha" values="0 0 0 0 0 0 0 0 0 0 0 0 0 0 0 0 0 0 127 0" result="hardAlpha"/><feOffset dy="6.267"/><feGaussianBlur stdDeviation="5.222"/><feColorMatrix values="0 0 0 0 0.266667 0 0 0 0 0.239216 0 0 0 0 0.109804 0 0 0 0.0575083 0"/><feBlend in2="effect4_dropShadow_861_21621" result="effect5_dropShadow_861_21621"/><feColorMatrix in="SourceAlpha" values="0 0 0 0 0 0 0 0 0 0 0 0 0 0 0 0 0 0 127 0" result="hardAlpha"/><feOffset dy="15"/><feGaussianBlur stdDeviation="12.5"/><feColorMatrix values="0 0 0 0 0.266667 0 0 0 0 0.239216 0 0 0 0 0.109804 0 0 0 0.08 0"/><feBlend in2="effect5_dropShadow_861_21621" result="effect6_dropShadow_861_21621"/><feBlend in="SourceGraphic" in2="effect6_dropShadow_861_21621" result="shape"/></filter><filter id="filter1_dd_861_21621" x="-92.736" y="75.053" width="1011.93" height="48.939" filterUnits="userSpaceOnUse" color-interpolation-filters="sRGB"><feFlood flood-opacity="0" result="BackgroundImageFix"/><feColorMatrix in="SourceAlpha" values="0 0 0 0 0 0 0 0 0 0 0 0 0 0 0 0 0 0 127 0" result="hardAlpha"/><feOffset dy=".789"/><feGaussianBlur stdDeviation="2.368"/><feColorMatrix values="0 0 0 0 0.231373 0 0 0 0 0.25098 0 0 0 0 0.270588 0 0 0 0.1 0"/><feBlend in2="BackgroundImageFix" result="effect1_dropShadow_861_21621"/><feColorMatrix in="SourceAlpha" values="0 0 0 0 0 0 0 0 0 0 0 0 0 0 0 0 0 0 127 0" result="hardAlpha"/><feOffset dy=".789"/><feColorMatrix values="0 0 0 0 0.0470588 0 0 0 0 0.0509804 0 0 0 0 0.054902 0 0 0 0.1 0"/><feBlend in2="effect1_dropShadow_861_21621" result="effect2_dropShadow_861_21621"/><feBlend in="SourceGraphic" in2="effect2_dropShadow_861_21621" result="shape"/></filter><filter id="filter2_ddd_861_21621" x="57.759" y="133.57" width="90.657" height="90.657" filterUnits="userSpaceOnUse" color-interpolation-filters="sRGB"><feFlood flood-opacity="0" result="BackgroundImageFix"/><feColorMatrix in="SourceAlpha" values="0 0 0 0 0 0 0 0 0 0 0 0 0 0 0 0 0 0 127 0" result="hardAlpha"/><feOffset dy="1.619"/><feGaussianBlur stdDeviation="3.238"/><feColorMatrix values="0 0 0 0 0 0 0 0 0 0 0 0 0 0 0 0 0 0 0.05 0"/><feBlend in2="BackgroundImageFix" result="effect1_dropShadow_861_21621"/><feColorMatrix in="SourceAlpha" values="0 0 0 0 0 0 0 0 0 0 0 0 0 0 0 0 0 0 127 0" result="hardAlpha"/><feOffset dy=".809"/><feGaussianBlur stdDeviation="1.619"/><feColorMatrix values="0 0 0 0 0 0 0 0 0 0 0 0 0 0 0 0 0 0 0.05 0"/><feBlend in2="effect1_dropShadow_861_21621" result="effect2_dropShadow_861_21621"/><feColorMatrix in="SourceAlpha" values="0 0 0 0 0 0 0 0 0 0 0 0 0 0 0 0 0 0 127 0" result="hardAlpha"/><feOffset dy=".809"/><feGaussianBlur stdDeviation=".809"/><feColorMatrix values="0 0 0 0 0 0 0 0 0 0 0 0 0 0 0 0 0 0 0.05 0"/><feBlend in2="effect2_dropShadow_861_21621" result="effect3_dropShadow_861_21621"/><feBlend in="SourceGraphic" in2="effect3_dropShadow_861_21621" result="shape"/></filter><filter id="filter3_dddddd_861_21621" x="163" y="231" width="712.55" height="430.796" filterUnits="userSpaceOnUse" color-interpolation-filters="sRGB"><feFlood flood-opacity="0" result="BackgroundImageFix"/><feColorMatrix in="SourceAlpha" values="0 0 0 0 0 0 0 0 0 0 0 0 0 0 0 0 0 0 127 0" result="hardAlpha"/><feOffset dy=".415"/><feGaussianBlur stdDeviation=".346"/><feColorMatrix values="0 0 0 0 0.266667 0 0 0 0 0.239216 0 0 0 0 0.109804 0 0 0 0.0224916 0"/><feBlend in2="BackgroundImageFix" result="effect1_dropShadow_861_21621"/><feColorMatrix in="SourceAlpha" values="0 0 0 0 0 0 0 0 0 0 0 0 0 0 0 0 0 0 127 0" result="hardAlpha"/><feOffset dy=".998"/><feGaussianBlur stdDeviation=".831"/><feColorMatrix values="0 0 0 0 0.266667 0 0 0 0 0.239216 0 0 0 0 0.109804 0 0 0 0.0323114 0"/><feBlend in2="effect1_dropShadow_861_21621" result="effect2_dropShadow_861_21621"/><feColorMatrix in="SourceAlpha" values="0 0 0 0 0 0 0 0 0 0 0 0 0 0 0 0 0 0 127 0" result="hardAlpha"/><feOffset dy="1.878"/><feGaussianBlur stdDeviation="1.565"/><feColorMatrix values="0 0 0 0 0.266667 0 0 0 0 0.239216 0 0 0 0 0.109804 0 0 0 0.04 0"/><feBlend in2="effect2_dropShadow_861_21621" result="effect3_dropShadow_861_21621"/><feColorMatrix in="SourceAlpha" values="0 0 0 0 0 0 0 0 0 0 0 0 0 0 0 0 0 0 127 0" result="hardAlpha"/><feOffset dy="3.35"/><feGaussianBlur stdDeviation="2.792"/><feColorMatrix values="0 0 0 0 0.266667 0 0 0 0 0.239216 0 0 0 0 0.109804 0 0 0 0.0476886 0"/><feBlend in2="effect3_dropShadow_861_21621" result="effect4_dropShadow_861_21621"/><feColorMatrix in="SourceAlpha" values="0 0 0 0 0 0 0 0 0 0 0 0 0 0 0 0 0 0 127 0" result="hardAlpha"/><feOffset dy="6.267"/><feGaussianBlur stdDeviation="5.222"/><feColorMatrix values="0 0 0 0 0.266667 0 0 0 0 0.239216 0 0 0 0 0.109804 0 0 0 0.0575083 0"/><feBlend in2="effect4_dropShadow_861_21621" result="effect5_dropShadow_861_21621"/><feColorMatrix in="SourceAlpha" values="0 0 0 0 0 0 0 0 0 0 0 0 0 0 0 0 0 0 127 0" result="hardAlpha"/><feOffset dy="15"/><feGaussianBlur stdDeviation="12.5"/><feColorMatrix values="0 0 0 0 0.266667 0 0 0 0 0.239216 0 0 0 0 0.109804 0 0 0 0.08 0"/><feBlend in2="effect5_dropShadow_861_21621" result="effect6_dropShadow_861_21621"/><feBlend in="SourceGraphic" in2="effect6_dropShadow_861_21621" result="shape"/></filter><filter id="filter4_d_861_21621" x="189.708" y="576.213" width="659.135" height="43.876" filterUnits="userSpaceOnUse" color-interpolation-filters="sRGB"><feFlood flood-opacity="0" result="BackgroundImageFix"/><feColorMatrix in="SourceAlpha" values="0 0 0 0 0 0 0 0 0 0 0 0 0 0 0 0 0 0 127 0" result="hardAlpha"/><feOffset dy="-1.186"/><feColorMatrix values="0 0 0 0 0.839216 0 0 0 0 0.85098 0 0 0 0 0.862745 0 0 0 1 0"/><feBlend in2="BackgroundImageFix" result="effect1_dropShadow_861_21621"/><feBlend in="SourceGraphic" in2="effect1_dropShadow_861_21621" result="shape"/></filter><filter id="filter5_d_861_21621" x="189.708" y="242.708" width="659.135" height="71.198" filterUnits="userSpaceOnUse" color-interpolation-filters="sRGB"><feFlood flood-opacity="0" result="BackgroundImageFix"/><feColorMatrix in="SourceAlpha" values="0 0 0 0 0 0 0 0 0 0 0 0 0 0 0 0 0 0 127 0" result="hardAlpha"/><feOffset dy="1.186"/><feColorMatrix values="0 0 0 0 0.839216 0 0 0 0 0.85098 0 0 0 0 0.862745 0 0 0 1 0"/><feBlend in2="BackgroundImageFix" result="effect1_dropShadow_861_21621"/><feBlend in="SourceGraphic" in2="effect1_dropShadow_861_21621" result="shape"/></filter><linearGradient id="paint0_linear_861_21621" x1="230.532" y1="135.152" x2="617.81" y2="135.152" gradientUnits="userSpaceOnUse"><stop stop-color="#D6D9DC"/><stop offset="1" stop-color="#EFF0F1"/></linearGradient><linearGradient id="paint1_linear_861_21621" x1="230.741" y1="163.152" x2="528.861" y2="163.152" gradientUnits="userSpaceOnUse"><stop stop-color="#D6D9DC"/><stop offset="1" stop-color="#EFF0F1"/></linearGradient><linearGradient id="paint2_linear_861_21621" x1="244.939" y1="202.708" x2="699.085" y2="202.708" gradientUnits="userSpaceOnUse"><stop stop-color="#D6D9DC"/><stop offset="1" stop-color="#EFF0F1"/></linearGradient><linearGradient id="paint3_linear_861_21621" x1="245.303" y1="224.708" x2="543.424" y2="224.708" gradientUnits="userSpaceOnUse"><stop stop-color="#D6D9DC"/><stop offset="1" stop-color="#EFF0F1"/></linearGradient><linearGradient id="paint4_linear_861_21621" x1="245.141" y1="246.708" x2="612.915" y2="246.708" gradientUnits="userSpaceOnUse"><stop stop-color="#D6D9DC"/><stop offset="1" stop-color="#EFF0F1"/></linearGradient><linearGradient id="paint5_linear_861_21621" x1="245.303" y1="268.708" x2="543.424" y2="268.708" gradientUnits="userSpaceOnUse"><stop stop-color="#D6D9DC"/><stop offset="1" stop-color="#EFF0F1"/></linearGradient><clipPath id="clip0_861_21621"><path fill="#fff" d="M0 0H600V645H0z"/></clipPath><clipPath id="clip1_861_21621"><path d="M27 79h736v391c0 8.284-6.716 15-15 15H42c-8.284 0-15-6.716-15-15V79z" fill="#fff"/></clipPath><clipPath id="clip2_861_21621"><path fill="#fff" transform="translate(231.438 105.048)" d="M0 0H520.171V312.221H0z"/></clipPath><clipPath id="clip3_861_21621"><path fill="#fff" transform="translate(231.438 105.048)" d="M0 0H181.208V12H0z"/></clipPath><clipPath id="clip4_861_21621"><path fill="#fff" transform="translate(231.438 428.32)" d="M0 0H88.944V13H0z"/></clipPath><clipPath id="clip5_861_21621"><rect x="64.234" y="138.427" width="77.706" height="77.706" rx="8.094" fill="#fff"/></clipPath></defs></svg>