<svg width="600" height="645" fill="none" xmlns="http://www.w3.org/2000/svg"><g clip-path="url(#clip0_861_21622)"><g filter="url(#filter0_dddddd_861_21622)"><path d="M418 25H32a7 7 0 0 0-7 7v287a7 7 0 0 0 7 7h386a7 7 0 0 0 7-7V32a7 7 0 0 0-7-7z" fill="#fff"/><path d="M418 25.5H32a6.5 6.5 0 0 0-6.5 6.5v287a6.5 6.5 0 0 0 6.5 6.5h386a6.5 6.5 0 0 0 6.5-6.5V32a6.5 6.5 0 0 0-6.5-6.5z" stroke="#C8CCD0"/><path d="M124 66h300v253a6 6 0 0 1-6 6H124V66z" fill="#FAFAFB"/><path d="M109 36.5H41a2.5 2.5 0 0 0-2.5 2.5v12a2.5 2.5 0 0 0 2.5 2.5h68a2.5 2.5 0 0 0 2.5-2.5V39a2.5 2.5 0 0 0-2.5-2.5zm180 0H140a2.5 2.5 0 0 0-2.5 2.5v12a2.5 2.5 0 0 0 2.5 2.5h149a2.5 2.5 0 0 0 2.5-2.5V39a2.5 2.5 0 0 0-2.5-2.5z" fill="#FAFAFB" stroke="#E4E6E8"/><path d="M242 96.25h66a2.75 2.75 0 0 1 2.75 2.75v86a2.75 2.75 0 0 1-2.75 2.75h-66a2.75 2.75 0 0 1-2.75-2.75V99a2.75 2.75 0 0 1 2.75-2.75zm86 0h66a2.75 2.75 0 0 1 2.75 2.75v86a2.75 2.75 0 0 1-2.75 2.75h-66a2.75 2.75 0 0 1-2.75-2.75V99a2.75 2.75 0 0 1 2.75-2.75zm-172 105h66a2.75 2.75 0 0 1 2.75 2.75v86a2.75 2.75 0 0 1-2.75 2.75h-66a2.75 2.75 0 0 1-2.75-2.75v-86a2.75 2.75 0 0 1 2.75-2.75zm86 0h66a2.75 2.75 0 0 1 2.75 2.75v86a2.75 2.75 0 0 1-2.75 2.75h-66a2.75 2.75 0 0 1-2.75-2.75v-86a2.75 2.75 0 0 1 2.75-2.75zm86 0h66a2.75 2.75 0 0 1 2.75 2.75v86a2.75 2.75 0 0 1-2.75 2.75h-66a2.75 2.75 0 0 1-2.75-2.75v-86a2.75 2.75 0 0 1 2.75-2.75z" fill="#FFFFFB" stroke="#C8CCD0" stroke-width=".5"/><path d="M410 36.5h-12a2.5 2.5 0 0 0-2.5 2.5v12a2.5 2.5 0 0 0 2.5 2.5h12a2.5 2.5 0 0 0 2.5-2.5V39a2.5 2.5 0 0 0-2.5-2.5zm-301 43H41a2.5 2.5 0 0 0-2.5 2.5v6a2.5 2.5 0 0 0 2.5 2.5h68a2.5 2.5 0 0 0 2.5-2.5v-6a2.5 2.5 0 0 0-2.5-2.5zm0 18H41a2.5 2.5 0 0 0-2.5 2.5v6a2.5 2.5 0 0 0 2.5 2.5h68a2.5 2.5 0 0 0 2.5-2.5v-6a2.5 2.5 0 0 0-2.5-2.5zm0 18H41a2.5 2.5 0 0 0-2.5 2.5v6a2.5 2.5 0 0 0 2.5 2.5h68a2.5 2.5 0 0 0 2.5-2.5v-6a2.5 2.5 0 0 0-2.5-2.5zm0 18H41a2.5 2.5 0 0 0-2.5 2.5v6a2.5 2.5 0 0 0 2.5 2.5h68a2.5 2.5 0 0 0 2.5-2.5v-6a2.5 2.5 0 0 0-2.5-2.5z" fill="#FAFAFB" stroke="#E4E6E8"/><path d="M124.5 25v301M124 65.5h301" stroke="#C8CCD0"/><path d="M156 96.25h66a2.75 2.75 0 0 1 2.75 2.75v86a2.75 2.75 0 0 1-2.75 2.75h-66a2.75 2.75 0 0 1-2.75-2.75V99a2.75 2.75 0 0 1 2.75-2.75z" fill="#FFFFFB" stroke="#C8CCD0" stroke-width=".5"/></g><g filter="url(#filter1_dddddd_861_21622)"><rect x="96" y="226" width="562" height="396" rx="10" fill="#F1F2F3"/><rect x="301" y="258" width="96" height="96" rx="10" fill="#7D66D9"/><text fill="#fff" font-family="Arial" font-size="66" font-weight="bold" letter-spacing="0em" white-space="pre"><tspan x="325" y="328.881">Y</tspan></text><path d="M382 343.522L395.5 338l13.5 5.522v9.508c0 7.553-8.088 14.97-13.5 14.97-5.412 0-13.5-7.417-13.5-14.97v-9.508z" fill="#fff"/><path fill-rule="evenodd" clip-rule="evenodd" d="M385 345.5l10.5-4.5 10.5 4.5v7.53c0 7.005-7.965 11.97-10.5 11.97s-10.5-4.965-10.5-11.97v-7.53zm8.945 9.074L391.6 359l7.8-.011-2.345-4.415a1.175 1.175 0 0 1 .452-1.161c1.012-.708 2.188-2.105 2.188-3.404 0-2.144-1.484-3.699-4.231-3.699s-4.151 1.555-4.151 3.699c0 1.299 1.168 2.696 2.18 3.404.356.249.536.71.452 1.161z" fill="#6A7E7C"/><text fill="#000" font-family="Arial" font-size="34" letter-spacing="0em" white-space="pre"><tspan x="269.132" y="401.287">Your Team</tspan></text><text fill="#525A61" font-family="Arial" font-size="15" letter-spacing="0em" white-space="pre"><tspan x="230.978" y="426.2">stackoverflowteams.com/your-team</tspan></text><g filter="url(#filter2_ddd_861_21622)"><rect x="128" y="455" width="442" height="135" rx="5" fill="#fff"/><g filter="url(#filter3_i_861_21622)"><rect x="152" y="479" width="394" height="37" rx="3" fill="#0095FF"/><text fill="#fff" font-family="Arial" font-size="13" letter-spacing="0em" white-space="pre"><tspan x="302.351" y="502.007">Log in with SSO</tspan></text><rect x="152.5" y="479.5" width="393" height="36" rx="2.5" stroke="#0095FF"/></g><text fill="#525A61" font-family="Arial" font-size="15" letter-spacing="0em" white-space="pre"><tspan x="161.91" y="541.2">You’ll be automatically redirected to your internal identity </tspan><tspan x="241.363" y="561.2">provider when you click “Log in”.</tspan></text></g></g></g><defs><filter id="filter0_dddddd_861_21622" x="0" y="15" width="450" height="351" filterUnits="userSpaceOnUse" color-interpolation-filters="sRGB"><feFlood flood-opacity="0" result="BackgroundImageFix"/><feColorMatrix in="SourceAlpha" values="0 0 0 0 0 0 0 0 0 0 0 0 0 0 0 0 0 0 127 0" result="hardAlpha"/><feOffset dy=".415"/><feGaussianBlur stdDeviation=".346"/><feColorMatrix values="0 0 0 0 0.266667 0 0 0 0 0.239216 0 0 0 0 0.109804 0 0 0 0.0224916 0"/><feBlend in2="BackgroundImageFix" result="effect1_dropShadow_861_21622"/><feColorMatrix in="SourceAlpha" values="0 0 0 0 0 0 0 0 0 0 0 0 0 0 0 0 0 0 127 0" result="hardAlpha"/><feOffset dy=".998"/><feGaussianBlur stdDeviation=".831"/><feColorMatrix values="0 0 0 0 0.266667 0 0 0 0 0.239216 0 0 0 0 0.109804 0 0 0 0.0323114 0"/><feBlend in2="effect1_dropShadow_861_21622" result="effect2_dropShadow_861_21622"/><feColorMatrix in="SourceAlpha" values="0 0 0 0 0 0 0 0 0 0 0 0 0 0 0 0 0 0 127 0" result="hardAlpha"/><feOffset dy="1.878"/><feGaussianBlur stdDeviation="1.565"/><feColorMatrix values="0 0 0 0 0.266667 0 0 0 0 0.239216 0 0 0 0 0.109804 0 0 0 0.04 0"/><feBlend in2="effect2_dropShadow_861_21622" result="effect3_dropShadow_861_21622"/><feColorMatrix in="SourceAlpha" values="0 0 0 0 0 0 0 0 0 0 0 0 0 0 0 0 0 0 127 0" result="hardAlpha"/><feOffset dy="3.35"/><feGaussianBlur stdDeviation="2.792"/><feColorMatrix values="0 0 0 0 0.266667 0 0 0 0 0.239216 0 0 0 0 0.109804 0 0 0 0.0476886 0"/><feBlend in2="effect3_dropShadow_861_21622" result="effect4_dropShadow_861_21622"/><feColorMatrix in="SourceAlpha" values="0 0 0 0 0 0 0 0 0 0 0 0 0 0 0 0 0 0 127 0" result="hardAlpha"/><feOffset dy="6.267"/><feGaussianBlur stdDeviation="5.222"/><feColorMatrix values="0 0 0 0 0.266667 0 0 0 0 0.239216 0 0 0 0 0.109804 0 0 0 0.0575083 0"/><feBlend in2="effect4_dropShadow_861_21622" result="effect5_dropShadow_861_21622"/><feColorMatrix in="SourceAlpha" values="0 0 0 0 0 0 0 0 0 0 0 0 0 0 0 0 0 0 127 0" result="hardAlpha"/><feOffset dy="15"/><feGaussianBlur stdDeviation="12.5"/><feColorMatrix values="0 0 0 0 0.266667 0 0 0 0 0.239216 0 0 0 0 0.109804 0 0 0 0.08 0"/><feBlend in2="effect5_dropShadow_861_21622" result="effect6_dropShadow_861_21622"/><feBlend in="SourceGraphic" in2="effect6_dropShadow_861_21622" result="shape"/></filter><filter id="filter1_dddddd_861_21622" x="71" y="216" width="612" height="446" filterUnits="userSpaceOnUse" color-interpolation-filters="sRGB"><feFlood flood-opacity="0" result="BackgroundImageFix"/><feColorMatrix in="SourceAlpha" values="0 0 0 0 0 0 0 0 0 0 0 0 0 0 0 0 0 0 127 0" result="hardAlpha"/><feOffset dy=".415"/><feGaussianBlur stdDeviation=".346"/><feColorMatrix values="0 0 0 0 0.266667 0 0 0 0 0.239216 0 0 0 0 0.109804 0 0 0 0.0224916 0"/><feBlend in2="BackgroundImageFix" result="effect1_dropShadow_861_21622"/><feColorMatrix in="SourceAlpha" values="0 0 0 0 0 0 0 0 0 0 0 0 0 0 0 0 0 0 127 0" result="hardAlpha"/><feOffset dy=".998"/><feGaussianBlur stdDeviation=".831"/><feColorMatrix values="0 0 0 0 0.266667 0 0 0 0 0.239216 0 0 0 0 0.109804 0 0 0 0.0323114 0"/><feBlend in2="effect1_dropShadow_861_21622" result="effect2_dropShadow_861_21622"/><feColorMatrix in="SourceAlpha" values="0 0 0 0 0 0 0 0 0 0 0 0 0 0 0 0 0 0 127 0" result="hardAlpha"/><feOffset dy="1.878"/><feGaussianBlur stdDeviation="1.565"/><feColorMatrix values="0 0 0 0 0.266667 0 0 0 0 0.239216 0 0 0 0 0.109804 0 0 0 0.04 0"/><feBlend in2="effect2_dropShadow_861_21622" result="effect3_dropShadow_861_21622"/><feColorMatrix in="SourceAlpha" values="0 0 0 0 0 0 0 0 0 0 0 0 0 0 0 0 0 0 127 0" result="hardAlpha"/><feOffset dy="3.35"/><feGaussianBlur stdDeviation="2.792"/><feColorMatrix values="0 0 0 0 0.266667 0 0 0 0 0.239216 0 0 0 0 0.109804 0 0 0 0.0476886 0"/><feBlend in2="effect3_dropShadow_861_21622" result="effect4_dropShadow_861_21622"/><feColorMatrix in="SourceAlpha" values="0 0 0 0 0 0 0 0 0 0 0 0 0 0 0 0 0 0 127 0" result="hardAlpha"/><feOffset dy="6.267"/><feGaussianBlur stdDeviation="5.222"/><feColorMatrix values="0 0 0 0 0.266667 0 0 0 0 0.239216 0 0 0 0 0.109804 0 0 0 0.0575083 0"/><feBlend in2="effect4_dropShadow_861_21622" result="effect5_dropShadow_861_21622"/><feColorMatrix in="SourceAlpha" values="0 0 0 0 0 0 0 0 0 0 0 0 0 0 0 0 0 0 127 0" result="hardAlpha"/><feOffset dy="15"/><feGaussianBlur stdDeviation="12.5"/><feColorMatrix values="0 0 0 0 0.266667 0 0 0 0 0.239216 0 0 0 0 0.109804 0 0 0 0.08 0"/><feBlend in2="effect5_dropShadow_861_21622" result="effect6_dropShadow_861_21622"/><feBlend in="SourceGraphic" in2="effect6_dropShadow_861_21622" result="shape"/></filter><filter id="filter2_ddd_861_21622" x="120" y="450" width="458" height="151" filterUnits="userSpaceOnUse" color-interpolation-filters="sRGB"><feFlood flood-opacity="0" result="BackgroundImageFix"/><feColorMatrix in="SourceAlpha" values="0 0 0 0 0 0 0 0 0 0 0 0 0 0 0 0 0 0 127 0" result="hardAlpha"/><feOffset dy="3"/><feGaussianBlur stdDeviation="4"/><feColorMatrix values="0 0 0 0 0 0 0 0 0 0 0 0 0 0 0 0 0 0 0.09 0"/><feBlend in2="BackgroundImageFix" result="effect1_dropShadow_861_21622"/><feColorMatrix in="SourceAlpha" values="0 0 0 0 0 0 0 0 0 0 0 0 0 0 0 0 0 0 127 0" result="hardAlpha"/><feOffset dy="2"/><feGaussianBlur stdDeviation="3"/><feColorMatrix values="0 0 0 0 0 0 0 0 0 0 0 0 0 0 0 0 0 0 0.06 0"/><feBlend in2="effect1_dropShadow_861_21622" result="effect2_dropShadow_861_21622"/><feColorMatrix in="SourceAlpha" values="0 0 0 0 0 0 0 0 0 0 0 0 0 0 0 0 0 0 127 0" result="hardAlpha"/><feOffset dy="1"/><feGaussianBlur stdDeviation="1.5"/><feColorMatrix values="0 0 0 0 0 0 0 0 0 0 0 0 0 0 0 0 0 0 0.06 0"/><feBlend in2="effect2_dropShadow_861_21622" result="effect3_dropShadow_861_21622"/><feBlend in="SourceGraphic" in2="effect3_dropShadow_861_21622" result="shape"/></filter><filter id="filter3_i_861_21622" x="152" y="479" width="394" height="37" filterUnits="userSpaceOnUse" color-interpolation-filters="sRGB"><feFlood flood-opacity="0" result="BackgroundImageFix"/><feBlend in="SourceGraphic" in2="BackgroundImageFix" result="shape"/><feColorMatrix in="SourceAlpha" values="0 0 0 0 0 0 0 0 0 0 0 0 0 0 0 0 0 0 127 0" result="hardAlpha"/><feOffset dy="2"/><feComposite in2="hardAlpha" operator="arithmetic" k2="-1" k3="1"/><feColorMatrix values="0 0 0 0 1 0 0 0 0 1 0 0 0 0 1 0 0 0 0.4 0"/><feBlend in2="shape" result="effect1_innerShadow_861_21622"/></filter><clipPath id="clip0_861_21622"><path fill="#fff" d="M0 0H600V645H0z"/></clipPath></defs></svg>