<svg width="630" height="630" fill="none" xmlns="http://www.w3.org/2000/svg"><g clip-path="url(#clip0_383_19771)"><path d="M242.718 641.372V230.688" stroke="#252861" stroke-width="1.895" stroke-miterlimit="10"/><path d="M267.96 221.917h-50.392a7.58 7.58 0 0 0-7.581 7.581v50.392a7.58 7.58 0 0 0 7.581 7.581h50.392a7.58 7.58 0 0 0 7.581-7.581v-50.392a7.58 7.58 0 0 0-7.581-7.581z" fill="#252861"/><path d="M244.125 248a5.25 5.25 0 1 0 0-10.5 5.25 5.25 0 0 0 0 10.5z" fill="#7B83EB"/><path opacity=".1" d="M243.75 243.875h-4.754l.024.105.003.009.024.096a5.252 5.252 0 0 0 6.203 3.794v-2.504a1.503 1.503 0 0 0-1.5-1.5z" fill="#000"/><path opacity=".2" d="M242.625 245h-3.244a5.253 5.253 0 0 0 4.744 3v-1.5a1.503 1.503 0 0 0-1.5-1.5z" fill="#000"/><path d="M255.938 248.375a3.938 3.938 0 1 0-.001-7.875 3.938 3.938 0 0 0 .001 7.875zm3.374 1.125h-8.843a.72.72 0 0 0-.719.719v9.124a5.758 5.758 0 0 0 4.462 5.72 5.63 5.63 0 0 0 6.788-5.508v-8.367c0-.448-.178-.877-.494-1.194a1.691 1.691 0 0 0-1.194-.494z" fill="#5059C9"/><path d="M253.125 251.188v10.687a8.989 8.989 0 0 1-6.665 8.693 8.995 8.995 0 0 1-10.12-4.193 8.142 8.142 0 0 1-.562-1.125 9.317 9.317 0 0 1-.372-1.125 9.327 9.327 0 0 1-.281-2.25v-10.687a1.689 1.689 0 0 1 1.042-1.56 1.68 1.68 0 0 1 .646-.128h14.625a1.688 1.688 0 0 1 1.687 1.688z" fill="#7B83EB"/><path opacity=".2" d="M242.625 245h-3.244a5.253 5.253 0 0 0 4.744 3v-1.5a1.503 1.503 0 0 0-1.5-1.5z" fill="#000"/><path opacity=".1" d="M245.25 249.5v14.254a1.484 1.484 0 0 1-1.17 1.451 1.092 1.092 0 0 1-.326.045h-7.976a9.317 9.317 0 0 1-.372-1.125 9.327 9.327 0 0 1-.281-2.25v-10.687a1.689 1.689 0 0 1 1.042-1.56 1.68 1.68 0 0 1 .646-.128h8.437z" fill="#000"/><path opacity=".2" d="M244.125 249.5v15.379c.002.11-.013.22-.045.326a1.487 1.487 0 0 1-1.451 1.17h-6.289a8.142 8.142 0 0 1-.562-1.125 9.317 9.317 0 0 1-.372-1.125 9.327 9.327 0 0 1-.281-2.25v-10.687a1.689 1.689 0 0 1 1.042-1.56 1.68 1.68 0 0 1 .646-.128h7.312z" fill="#000"/><path opacity=".2" d="M244.125 249.5v13.129a1.505 1.505 0 0 1-1.496 1.496h-7.223a9.327 9.327 0 0 1-.281-2.25v-10.687a1.689 1.689 0 0 1 1.042-1.56 1.68 1.68 0 0 1 .646-.128h7.312z" fill="#000"/><path opacity=".2" d="M236.813 249.5a1.68 1.68 0 0 0-1.194.494 1.685 1.685 0 0 0-.494 1.194v10.687c.002.759.096 1.514.281 2.25h6.098a1.505 1.505 0 0 0 1.496-1.496V249.5h-6.187z" fill="#000"/><path d="M226.5 245h15a1.5 1.5 0 0 1 1.5 1.5v15a1.503 1.503 0 0 1-1.5 1.5h-15a1.499 1.499 0 0 1-1.5-1.5v-15a1.5 1.5 0 0 1 1.5-1.5z" fill="#4B53BC"/><path d="M238.477 250.597h-3.362v9.022h-2.21v-9.022h-3.382v-2.217h8.954v2.217z" fill="#fff"/><path d="M276.558 402.185c1.506 0 2.726-1.24 2.726-2.771 0-1.53-1.22-2.77-2.726-2.77-1.505 0-2.725 1.24-2.725 2.77 0 1.531 1.22 2.771 2.725 2.771zm16.425 0c1.505 0 2.726-1.24 2.726-2.771 0-1.53-1.221-2.77-2.726-2.77s-2.725 1.24-2.725 2.77c0 1.531 1.22 2.771 2.725 2.771zm16.425 0c1.505 0 2.726-1.24 2.726-2.771 0-1.53-1.221-2.77-2.726-2.77s-2.726 1.24-2.726 2.77c0 1.531 1.221 2.771 2.726 2.771zm16.425 0c1.505 0 2.725-1.24 2.725-2.771 0-1.53-1.22-2.77-2.725-2.77-1.505 0-2.726 1.24-2.726 2.77 0 1.531 1.221 2.771 2.726 2.771zm16.425 0c1.505 0 2.726-1.24 2.726-2.771 0-1.53-1.221-2.77-2.726-2.77s-2.726 1.24-2.726 2.77c0 1.531 1.221 2.771 2.726 2.771zm16.425 0c1.505 0 2.725-1.24 2.725-2.771 0-1.53-1.22-2.77-2.725-2.77-1.505 0-2.726 1.24-2.726 2.77 0 1.531 1.221 2.771 2.726 2.771zm-82.125 16.698c1.506 0 2.726-1.241 2.726-2.771 0-1.531-1.22-2.771-2.726-2.771-1.505 0-2.725 1.24-2.725 2.771 0 1.53 1.22 2.771 2.725 2.771zm16.425 0c1.505 0 2.726-1.241 2.726-2.771 0-1.531-1.221-2.771-2.726-2.771s-2.725 1.24-2.725 2.771c0 1.53 1.22 2.771 2.725 2.771zm16.425 0c1.505 0 2.726-1.241 2.726-2.771 0-1.531-1.221-2.771-2.726-2.771s-2.726 1.24-2.726 2.771c0 1.53 1.221 2.771 2.726 2.771zm16.425 0c1.505 0 2.725-1.241 2.725-2.771 0-1.531-1.22-2.771-2.725-2.771-1.505 0-2.726 1.24-2.726 2.771 0 1.53 1.221 2.771 2.726 2.771zm16.425 0c1.505 0 2.726-1.241 2.726-2.771 0-1.531-1.221-2.771-2.726-2.771s-2.726 1.24-2.726 2.771c0 1.53 1.221 2.771 2.726 2.771zm16.425 0c1.505 0 2.725-1.241 2.725-2.771 0-1.531-1.22-2.771-2.725-2.771-1.505 0-2.726 1.24-2.726 2.771 0 1.53 1.221 2.771 2.726 2.771zm-82.125 16.697c1.506 0 2.726-1.241 2.726-2.771 0-1.53-1.22-2.771-2.726-2.771-1.505 0-2.725 1.241-2.725 2.771 0 1.53 1.22 2.771 2.725 2.771zm16.425 0c1.505 0 2.726-1.241 2.726-2.771 0-1.53-1.221-2.771-2.726-2.771s-2.725 1.241-2.725 2.771c0 1.53 1.22 2.771 2.725 2.771zm16.425 0c1.505 0 2.726-1.241 2.726-2.771 0-1.53-1.221-2.771-2.726-2.771s-2.726 1.241-2.726 2.771c0 1.53 1.221 2.771 2.726 2.771zm16.425 0c1.505 0 2.725-1.241 2.725-2.771 0-1.53-1.22-2.771-2.725-2.771-1.505 0-2.726 1.241-2.726 2.771 0 1.53 1.221 2.771 2.726 2.771zm16.425 0c1.505 0 2.726-1.241 2.726-2.771 0-1.53-1.221-2.771-2.726-2.771s-2.726 1.241-2.726 2.771c0 1.53 1.221 2.771 2.726 2.771zm16.425 0c1.505 0 2.725-1.241 2.725-2.771 0-1.53-1.22-2.771-2.725-2.771-1.505 0-2.726 1.241-2.726 2.771 0 1.53 1.221 2.771 2.726 2.771zm-82.125 16.698c1.506 0 2.726-1.241 2.726-2.771 0-1.53-1.22-2.771-2.726-2.771-1.505 0-2.725 1.241-2.725 2.771 0 1.53 1.22 2.771 2.725 2.771zm16.425 0c1.505 0 2.726-1.241 2.726-2.771 0-1.53-1.221-2.771-2.726-2.771s-2.725 1.241-2.725 2.771c0 1.53 1.22 2.771 2.725 2.771zm16.425 0c1.505 0 2.726-1.241 2.726-2.771 0-1.53-1.221-2.771-2.726-2.771s-2.726 1.241-2.726 2.771c0 1.53 1.221 2.771 2.726 2.771zm16.425 0c1.505 0 2.725-1.241 2.725-2.771 0-1.53-1.22-2.771-2.725-2.771-1.505 0-2.726 1.241-2.726 2.771 0 1.53 1.221 2.771 2.726 2.771zm16.425 0c1.505 0 2.726-1.241 2.726-2.771 0-1.53-1.221-2.771-2.726-2.771s-2.726 1.241-2.726 2.771c0 1.53 1.221 2.771 2.726 2.771zm16.425 0c1.505 0 2.725-1.241 2.725-2.771 0-1.53-1.22-2.771-2.725-2.771-1.505 0-2.726 1.241-2.726 2.771 0 1.53 1.221 2.771 2.726 2.771zm-82.125 16.697c1.506 0 2.726-1.24 2.726-2.771 0-1.53-1.22-2.77-2.726-2.77-1.505 0-2.725 1.24-2.725 2.77 0 1.531 1.22 2.771 2.725 2.771zm16.425 0c1.505 0 2.726-1.24 2.726-2.771 0-1.53-1.221-2.77-2.726-2.77s-2.725 1.24-2.725 2.77c0 1.531 1.22 2.771 2.725 2.771zm16.425 0c1.505 0 2.726-1.24 2.726-2.771 0-1.53-1.221-2.77-2.726-2.77s-2.726 1.24-2.726 2.77c0 1.531 1.221 2.771 2.726 2.771zm16.425 0c1.505 0 2.725-1.24 2.725-2.771 0-1.53-1.22-2.77-2.725-2.77-1.505 0-2.726 1.24-2.726 2.77 0 1.531 1.221 2.771 2.726 2.771zm16.425 0c1.505 0 2.726-1.24 2.726-2.771 0-1.53-1.221-2.77-2.726-2.77s-2.726 1.24-2.726 2.77c0 1.531 1.221 2.771 2.726 2.771zm16.425 0c1.505 0 2.725-1.24 2.725-2.771 0-1.53-1.22-2.77-2.725-2.77-1.505 0-2.726 1.24-2.726 2.77 0 1.531 1.221 2.771 2.726 2.771zm-82.125 16.698c1.506 0 2.726-1.241 2.726-2.771 0-1.531-1.22-2.771-2.726-2.771-1.505 0-2.725 1.24-2.725 2.771 0 1.53 1.22 2.771 2.725 2.771zm16.425 0c1.505 0 2.726-1.241 2.726-2.771 0-1.531-1.221-2.771-2.726-2.771s-2.725 1.24-2.725 2.771c0 1.53 1.22 2.771 2.725 2.771zm16.425 0c1.505 0 2.726-1.241 2.726-2.771 0-1.531-1.221-2.771-2.726-2.771s-2.726 1.24-2.726 2.771c0 1.53 1.221 2.771 2.726 2.771zm16.425 0c1.505 0 2.725-1.241 2.725-2.771 0-1.531-1.22-2.771-2.725-2.771-1.505 0-2.726 1.24-2.726 2.771 0 1.53 1.221 2.771 2.726 2.771zm16.425 0c1.505 0 2.726-1.241 2.726-2.771 0-1.531-1.221-2.771-2.726-2.771s-2.726 1.24-2.726 2.771c0 1.53 1.221 2.771 2.726 2.771zm16.425 0c1.505 0 2.725-1.241 2.725-2.771 0-1.531-1.22-2.771-2.725-2.771-1.505 0-2.726 1.24-2.726 2.771 0 1.53 1.221 2.771 2.726 2.771zm5.409-347.812c1.53 0 2.771-1.22 2.771-2.725 0-1.506-1.241-2.726-2.771-2.726-1.53 0-2.771 1.22-2.771 2.726 0 1.505 1.241 2.725 2.771 2.725zm0 16.425c1.53 0 2.771-1.22 2.771-2.725 0-1.506-1.241-2.726-2.771-2.726-1.53 0-2.771 1.22-2.771 2.726 0 1.505 1.241 2.725 2.771 2.725zm-16.698-16.425c1.531 0 2.771-1.22 2.771-2.725 0-1.506-1.24-2.726-2.771-2.726-1.53 0-2.77 1.22-2.77 2.726 0 1.505 1.24 2.725 2.77 2.725zm0 16.425c1.531 0 2.771-1.22 2.771-2.725 0-1.506-1.24-2.726-2.771-2.726-1.53 0-2.77 1.22-2.77 2.726 0 1.505 1.24 2.725 2.77 2.725zm-16.697-16.425c1.53 0 2.771-1.22 2.771-2.725 0-1.506-1.241-2.726-2.771-2.726-1.53 0-2.771 1.22-2.771 2.726 0 1.505 1.241 2.725 2.771 2.725zm0 16.425c1.53 0 2.771-1.22 2.771-2.725 0-1.506-1.241-2.726-2.771-2.726-1.53 0-2.771 1.22-2.771 2.726 0 1.505 1.241 2.725 2.771 2.725zM314 137.861c1.53 0 2.77-1.22 2.77-2.725 0-1.506-1.24-2.726-2.77-2.726-1.531 0-2.771 1.22-2.771 2.726 0 1.505 1.24 2.725 2.771 2.725zm0 16.425c1.53 0 2.77-1.22 2.77-2.725 0-1.506-1.24-2.726-2.77-2.726-1.531 0-2.771 1.22-2.771 2.726 0 1.505 1.24 2.725 2.771 2.725zm-16.698-16.425c1.531 0 2.771-1.22 2.771-2.725 0-1.506-1.24-2.726-2.771-2.726-1.53 0-2.771 1.22-2.771 2.726 0 1.505 1.241 2.725 2.771 2.725zm0 16.425c1.531 0 2.771-1.22 2.771-2.725 0-1.506-1.24-2.726-2.771-2.726-1.53 0-2.771 1.22-2.771 2.726 0 1.505 1.241 2.725 2.771 2.725zm-16.697-16.425c1.53 0 2.771-1.22 2.771-2.725 0-1.506-1.241-2.726-2.771-2.726-1.53 0-2.771 1.22-2.771 2.726 0 1.505 1.241 2.725 2.771 2.725zm0 16.425c1.53 0 2.771-1.22 2.771-2.725 0-1.506-1.241-2.726-2.771-2.726-1.53 0-2.771 1.22-2.771 2.726 0 1.505 1.241 2.725 2.771 2.725zM9.955 306.545c1.506 0 2.726-1.241 2.726-2.771 0-1.531-1.22-2.771-2.726-2.771-1.505 0-2.725 1.24-2.725 2.771 0 1.53 1.22 2.771 2.725 2.771zm16.425 0c1.505 0 2.726-1.241 2.726-2.771 0-1.531-1.22-2.771-2.726-2.771-1.505 0-2.725 1.24-2.725 2.771 0 1.53 1.22 2.771 2.725 2.771zm16.425 0c1.505 0 2.726-1.241 2.726-2.771 0-1.531-1.22-2.771-2.726-2.771-1.505 0-2.725 1.24-2.725 2.771 0 1.53 1.22 2.771 2.725 2.771zm16.425 0c1.505 0 2.726-1.241 2.726-2.771 0-1.531-1.22-2.771-2.726-2.771-1.505 0-2.725 1.24-2.725 2.771 0 1.53 1.22 2.771 2.725 2.771zm16.425 0c1.505 0 2.725-1.241 2.725-2.771 0-1.531-1.22-2.771-2.725-2.771-1.505 0-2.726 1.24-2.726 2.771 0 1.53 1.22 2.771 2.726 2.771zm16.425 0c1.505 0 2.725-1.241 2.725-2.771 0-1.531-1.22-2.771-2.725-2.771-1.505 0-2.726 1.24-2.726 2.771 0 1.53 1.22 2.771 2.726 2.771zm16.425 0c1.505 0 2.725-1.241 2.725-2.771 0-1.531-1.22-2.771-2.725-2.771-1.506 0-2.726 1.24-2.726 2.771 0 1.53 1.22 2.771 2.726 2.771zm16.425 0c1.505 0 2.725-1.241 2.725-2.771 0-1.531-1.22-2.771-2.725-2.771-1.506 0-2.726 1.24-2.726 2.771 0 1.53 1.22 2.771 2.726 2.771zm16.424 0c1.506 0 2.726-1.241 2.726-2.771 0-1.531-1.22-2.771-2.726-2.771-1.505 0-2.725 1.24-2.725 2.771 0 1.53 1.22 2.771 2.725 2.771zM9.955 323.242c1.506 0 2.726-1.241 2.726-2.771 0-1.53-1.22-2.771-2.726-2.771-1.505 0-2.725 1.241-2.725 2.771 0 1.53 1.22 2.771 2.725 2.771zm16.425 0c1.505 0 2.726-1.241 2.726-2.771 0-1.53-1.22-2.771-2.726-2.771-1.505 0-2.725 1.241-2.725 2.771 0 1.53 1.22 2.771 2.725 2.771zm16.425 0c1.505 0 2.726-1.241 2.726-2.771 0-1.53-1.22-2.771-2.726-2.771-1.505 0-2.725 1.241-2.725 2.771 0 1.53 1.22 2.771 2.725 2.771zm16.425 0c1.505 0 2.726-1.241 2.726-2.771 0-1.53-1.22-2.771-2.726-2.771-1.505 0-2.725 1.241-2.725 2.771 0 1.53 1.22 2.771 2.725 2.771zm16.425 0c1.505 0 2.725-1.241 2.725-2.771 0-1.53-1.22-2.771-2.725-2.771-1.505 0-2.726 1.241-2.726 2.771 0 1.53 1.22 2.771 2.726 2.771zm16.425 0c1.505 0 2.725-1.241 2.725-2.771 0-1.53-1.22-2.771-2.725-2.771-1.505 0-2.726 1.241-2.726 2.771 0 1.53 1.22 2.771 2.726 2.771zm16.425 0c1.505 0 2.725-1.241 2.725-2.771 0-1.53-1.22-2.771-2.725-2.771-1.506 0-2.726 1.241-2.726 2.771 0 1.53 1.22 2.771 2.726 2.771zm16.425 0c1.505 0 2.725-1.241 2.725-2.771 0-1.53-1.22-2.771-2.725-2.771-1.506 0-2.726 1.241-2.726 2.771 0 1.53 1.22 2.771 2.726 2.771zm16.424 0c1.506 0 2.726-1.241 2.726-2.771 0-1.53-1.22-2.771-2.726-2.771-1.505 0-2.725 1.241-2.725 2.771 0 1.53 1.22 2.771 2.725 2.771zM9.955 339.939c1.506 0 2.726-1.24 2.726-2.771 0-1.53-1.22-2.771-2.726-2.771-1.505 0-2.725 1.241-2.725 2.771 0 1.531 1.22 2.771 2.725 2.771zm16.425 0c1.505 0 2.726-1.24 2.726-2.771 0-1.53-1.22-2.771-2.726-2.771-1.505 0-2.725 1.241-2.725 2.771 0 1.531 1.22 2.771 2.725 2.771zm16.425 0c1.505 0 2.726-1.24 2.726-2.771 0-1.53-1.22-2.771-2.726-2.771-1.505 0-2.725 1.241-2.725 2.771 0 1.531 1.22 2.771 2.725 2.771zm16.425 0c1.505 0 2.726-1.24 2.726-2.771 0-1.53-1.22-2.771-2.726-2.771-1.505 0-2.725 1.241-2.725 2.771 0 1.531 1.22 2.771 2.725 2.771zm16.425 0c1.505 0 2.725-1.24 2.725-2.771 0-1.53-1.22-2.771-2.725-2.771-1.505 0-2.726 1.241-2.726 2.771 0 1.531 1.22 2.771 2.726 2.771zm16.425 0c1.505 0 2.725-1.24 2.725-2.771 0-1.53-1.22-2.771-2.725-2.771-1.505 0-2.726 1.241-2.726 2.771 0 1.531 1.22 2.771 2.726 2.771zm16.425 0c1.505 0 2.725-1.24 2.725-2.771 0-1.53-1.22-2.771-2.725-2.771-1.506 0-2.726 1.241-2.726 2.771 0 1.531 1.22 2.771 2.726 2.771zm16.425 0c1.505 0 2.725-1.24 2.725-2.771 0-1.53-1.22-2.771-2.725-2.771-1.506 0-2.726 1.241-2.726 2.771 0 1.531 1.22 2.771 2.726 2.771zm16.424 0c1.506 0 2.726-1.24 2.726-2.771 0-1.53-1.22-2.771-2.726-2.771-1.505 0-2.725 1.241-2.725 2.771 0 1.531 1.22 2.771 2.725 2.771zM9.955 356.636c1.506 0 2.726-1.24 2.726-2.77 0-1.531-1.22-2.771-2.726-2.771-1.505 0-2.725 1.24-2.725 2.771 0 1.53 1.22 2.77 2.725 2.77zm16.425 0c1.505 0 2.726-1.24 2.726-2.77 0-1.531-1.22-2.771-2.726-2.771-1.505 0-2.725 1.24-2.725 2.771 0 1.53 1.22 2.77 2.725 2.77zm16.425 0c1.505 0 2.726-1.24 2.726-2.77 0-1.531-1.22-2.771-2.726-2.771-1.505 0-2.725 1.24-2.725 2.771 0 1.53 1.22 2.77 2.725 2.77zm16.425 0c1.505 0 2.726-1.24 2.726-2.77 0-1.531-1.22-2.771-2.726-2.771-1.505 0-2.725 1.24-2.725 2.771 0 1.53 1.22 2.77 2.725 2.77zm16.425 0c1.505 0 2.725-1.24 2.725-2.77 0-1.531-1.22-2.771-2.725-2.771-1.505 0-2.726 1.24-2.726 2.771 0 1.53 1.22 2.77 2.726 2.77zm16.425 0c1.505 0 2.725-1.24 2.725-2.77 0-1.531-1.22-2.771-2.725-2.771-1.505 0-2.726 1.24-2.726 2.771 0 1.53 1.22 2.77 2.726 2.77zm16.425 0c1.505 0 2.725-1.24 2.725-2.77 0-1.531-1.22-2.771-2.725-2.771-1.506 0-2.726 1.24-2.726 2.771 0 1.53 1.22 2.77 2.726 2.77zm16.425 0c1.505 0 2.725-1.24 2.725-2.77 0-1.531-1.22-2.771-2.725-2.771-1.506 0-2.726 1.24-2.726 2.771 0 1.53 1.22 2.77 2.726 2.77zm16.424 0c1.506 0 2.726-1.24 2.726-2.77 0-1.531-1.22-2.771-2.726-2.771-1.505 0-2.725 1.24-2.725 2.771 0 1.53 1.22 2.77 2.725 2.77zM9.955 373.334c1.506 0 2.726-1.241 2.726-2.771 0-1.53-1.22-2.771-2.726-2.771-1.505 0-2.725 1.241-2.725 2.771 0 1.53 1.22 2.771 2.725 2.771zm16.425 0c1.505 0 2.726-1.241 2.726-2.771 0-1.53-1.22-2.771-2.726-2.771-1.505 0-2.725 1.241-2.725 2.771 0 1.53 1.22 2.771 2.725 2.771zm16.425 0c1.505 0 2.726-1.241 2.726-2.771 0-1.53-1.22-2.771-2.726-2.771-1.505 0-2.725 1.241-2.725 2.771 0 1.53 1.22 2.771 2.725 2.771zm16.425 0c1.505 0 2.726-1.241 2.726-2.771 0-1.53-1.22-2.771-2.726-2.771-1.505 0-2.725 1.241-2.725 2.771 0 1.53 1.22 2.771 2.725 2.771zm16.425 0c1.505 0 2.725-1.241 2.725-2.771 0-1.53-1.22-2.771-2.725-2.771-1.505 0-2.726 1.241-2.726 2.771 0 1.53 1.22 2.771 2.726 2.771zm16.425 0c1.505 0 2.725-1.241 2.725-2.771 0-1.53-1.22-2.771-2.725-2.771-1.505 0-2.726 1.241-2.726 2.771 0 1.53 1.22 2.771 2.726 2.771zm16.425 0c1.505 0 2.725-1.241 2.725-2.771 0-1.53-1.22-2.771-2.725-2.771-1.506 0-2.726 1.241-2.726 2.771 0 1.53 1.22 2.771 2.726 2.771zm16.425 0c1.505 0 2.725-1.241 2.725-2.771 0-1.53-1.22-2.771-2.725-2.771-1.506 0-2.726 1.241-2.726 2.771 0 1.53 1.22 2.771 2.726 2.771zm16.424 0c1.506 0 2.726-1.241 2.726-2.771 0-1.53-1.22-2.771-2.726-2.771-1.505 0-2.725 1.241-2.725 2.771 0 1.53 1.22 2.771 2.725 2.771zM9.955 390.032c1.506 0 2.726-1.241 2.726-2.771 0-1.53-1.22-2.771-2.726-2.771-1.505 0-2.725 1.241-2.725 2.771 0 1.53 1.22 2.771 2.725 2.771zm16.425 0c1.505 0 2.726-1.241 2.726-2.771 0-1.53-1.22-2.771-2.726-2.771-1.505 0-2.725 1.241-2.725 2.771 0 1.53 1.22 2.771 2.725 2.771zm16.425 0c1.505 0 2.726-1.241 2.726-2.771 0-1.53-1.22-2.771-2.726-2.771-1.505 0-2.725 1.241-2.725 2.771 0 1.53 1.22 2.771 2.725 2.771zm16.425 0c1.505 0 2.726-1.241 2.726-2.771 0-1.53-1.22-2.771-2.726-2.771-1.505 0-2.725 1.241-2.725 2.771 0 1.53 1.22 2.771 2.725 2.771zm16.425 0c1.505 0 2.725-1.241 2.725-2.771 0-1.53-1.22-2.771-2.725-2.771-1.505 0-2.726 1.241-2.726 2.771 0 1.53 1.22 2.771 2.726 2.771zm16.425 0c1.505 0 2.725-1.241 2.725-2.771 0-1.53-1.22-2.771-2.725-2.771-1.505 0-2.726 1.241-2.726 2.771 0 1.53 1.22 2.771 2.726 2.771zm16.425 0c1.505 0 2.725-1.241 2.725-2.771 0-1.53-1.22-2.771-2.725-2.771-1.506 0-2.726 1.241-2.726 2.771 0 1.53 1.22 2.771 2.726 2.771zm16.425 0c1.505 0 2.725-1.241 2.725-2.771 0-1.53-1.22-2.771-2.725-2.771-1.506 0-2.726 1.241-2.726 2.771 0 1.53 1.22 2.771 2.726 2.771zm16.424 0c1.506 0 2.726-1.241 2.726-2.771 0-1.53-1.22-2.771-2.726-2.771-1.505 0-2.725 1.241-2.725 2.771 0 1.53 1.22 2.771 2.725 2.771z" fill="#F0F1F7"/><path d="M194.996 640.836V481.398l-59.801-59.801V298.308" stroke="#5EBA7D" stroke-width="1.895" stroke-miterlimit="10"/><path d="M172.553 198.745H37.928a7.58 7.58 0 0 0-7.581 7.581v134.625a7.58 7.58 0 0 0 7.58 7.581h134.626a7.58 7.58 0 0 0 7.581-7.581V206.326a7.58 7.58 0 0 0-7.581-7.581z" fill="#5EBA7D"/><path d="M408.197 313.911H217.568a7.58 7.58 0 0 0-7.581 7.581v95.339a7.58 7.58 0 0 0 7.581 7.581h190.629a7.581 7.581 0 0 0 7.581-7.581v-95.339a7.581 7.581 0 0 0-7.581-7.581z" fill="#FFB500"/><path d="M389.1 337.749H236.664v5.008H389.1v-5.008z" fill="#242729"/><path d="M346.086 330.395h-30.289a3.79 3.79 0 0 0-3.79 3.79v12.136a3.79 3.79 0 0 0 3.79 3.791h30.289a3.79 3.79 0 0 0 3.791-3.791v-12.136a3.79 3.79 0 0 0-3.791-3.79z" fill="#FFFFFB"/><path d="M389.1 366.657H236.664v5.008H389.1v-5.008z" fill="#242729"/><path d="M366.69 359.303h-30.288a3.79 3.79 0 0 0-3.791 3.79v12.137a3.79 3.79 0 0 0 3.791 3.79h30.288a3.79 3.79 0 0 0 3.791-3.79v-12.137a3.79 3.79 0 0 0-3.791-3.79z" fill="#F48024"/><path d="M389.1 395.566H236.664v5.008H389.1v-5.008z" fill="#242729"/><path d="M282.851 388.211h-30.289a3.79 3.79 0 0 0-3.79 3.79v12.137a3.79 3.79 0 0 0 3.79 3.79h30.289a3.79 3.79 0 0 0 3.791-3.79v-12.137a3.79 3.79 0 0 0-3.791-3.79z" fill="#5F67FA"/><path d="M363.848 364.676v8.972m-83.839 19.936v8.972m63.235-66.789v8.971" stroke="#242729" stroke-width="1.895" stroke-miterlimit="10"/><path d="M160.008 212.448v116.585H50.473V182.948h80.036l29.499 29.5z" fill="#F0F1F7"/><path d="M160.008 212.448h-29.499v-29.5l29.499 29.5z" fill="#242729"/><path d="M90.594 212.448h-22.95a4.382 4.382 0 0 0 0 8.764h22.95a4.382 4.382 0 1 0 0-8.764z" fill="#5F67FA"/><path d="M63.262 234.983h85.129m-85.13 13.771h62.387m-62.386 13.77h40.686m8.346 0h34.899m-83.931 13.772h83.931m-83.931 13.77h31.715" stroke="#242729" stroke-width="1.895" stroke-miterlimit="10"/><path d="M20.81 263.368l-6.75 6.75 42.049 42.049 6.75-6.75-42.05-42.049z" fill="#FFB500"/><path d="M62.858 305.417l-6.75 6.75 11.09 4.34-4.34-11.09zm-52.484-42.038l3.696-3.696a2.16 2.16 0 0 1 3.054 0l3.686 3.686-6.75 6.75-3.686-3.686a2.16 2.16 0 0 1 0-3.054z" fill="#242729"/><path d="M147.556 301.032h-38.809v15.475h38.809v-15.475z" fill="#FFFFFB"/><path d="M95.661 304.55a46.13 46.13 0 0 0 33.957-3.628c2.259-1.199.573-4.733-1.736-3.635l-.057.028c-1.894.935-3.136 2.784-4.289 4.553l-10.244 15.704a23.196 23.196 0 0 1 9.296-9.515c1.224-.675 2.756-1.233 3.968-.536.948.545 1.359 1.671 1.984 2.569 1.876 2.689 5.819 3.217 8.9 2.095 3.081-1.122 5.502-3.511 7.818-5.832" stroke="#242729" stroke-width="1.895" stroke-miterlimit="10"/><path d="M515.419 108.134H351.244a7.58 7.58 0 0 0-7.581 7.581V279.89a7.58 7.58 0 0 0 7.581 7.581h164.175A7.58 7.58 0 0 0 523 279.89V115.715a7.58 7.58 0 0 0-7.581-7.581z" fill="#F48024"/><path d="M635.113 123.665v89.759l-34.607-34.608L523 256.313l-.464.464-48.689-48.698-79.401 79.391h-40.529l119.93-119.921 48.689 48.698.464-.464 57.237-57.236-34.892-34.882h89.768z" fill="#242729"/><path d="M366.863 153.293h61.498m-61.498 13.654h61.498m-61.498 13.654h46.476" stroke="#FFB500" stroke-width="1.895" stroke-miterlimit="10"/><path d="M523 138c16.569 0 30-13.431 30-30 0-16.569-13.431-30-30-30-16.568 0-30 13.431-30 30 0 16.569 13.432 30 30 30z" fill="#00297A"/><path fill-rule="evenodd" clip-rule="evenodd" d="M327 194h53v54h-41.923L327 260v-66z" fill="#000"/><path d="M354 202c-9.945 0-18 8.259-18 18.455 0 8.167 5.153 15.064 12.308 17.51.9.161 1.237-.392 1.237-.877 0-.438-.022-1.892-.022-3.437-4.523.853-5.693-1.131-6.053-2.169-.202-.53-1.08-2.168-1.845-2.606-.63-.347-1.53-1.2-.022-1.223 1.417-.023 2.43 1.338 2.767 1.892 1.62 2.791 4.208 2.007 5.243 1.522.157-1.2.63-2.007 1.147-2.468-4.005-.462-8.19-2.053-8.19-9.113 0-2.007.698-3.668 1.845-4.959-.18-.462-.81-2.354.18-4.891 0 0 1.508-.485 4.95 1.892 1.44-.416 2.97-.623 4.5-.623 1.53 0 3.06.207 4.5.623 3.443-2.4 4.95-1.892 4.95-1.892.99 2.537.36 4.429.18 4.891 1.148 1.291 1.845 2.929 1.845 4.959 0 7.083-4.207 8.651-8.212 9.113.652.576 1.215 1.684 1.215 3.414 0 2.468-.023 4.452-.023 5.075 0 .485.338 1.061 1.238.877 7.327-2.536 12.26-9.581 12.262-17.51 0-10.196-8.055-18.455-18-18.455z" fill="#fff"/><path d="M376.311 123v3.434l-5.877 5.877 5.877 5.878v3.434L367 132.311l9.311-9.311zm19.377 18.623v-3.434l5.877-5.878-5.877-5.877V123l9.312 9.311-9.312 9.312zm-15.742 0h2.925L392.026 123h-2.924l-9.156 18.623z" fill="#FFB500"/><path d="M200.179 466.485H99.814a7.58 7.58 0 0 0-7.581 7.581v54.748a7.58 7.58 0 0 0 7.58 7.581H200.18a7.58 7.58 0 0 0 7.581-7.581v-54.748a7.58 7.58 0 0 0-7.581-7.581z" fill="#FFDDA6"/><path d="M193.748 489.465c12.546-19.489-.082-45.995-23.221-47.336a33.714 33.714 0 0 0-3.984 0c-23.139 1.341-35.766 27.847-23.221 47.336l25.213 39.167 25.213-39.167z" fill="#2151C5"/><path d="M123.014 473.055h-16.199a3.79 3.79 0 0 0-3.791 3.79v16.199a3.79 3.79 0 0 0 3.791 3.791h16.199a3.79 3.79 0 0 0 3.79-3.791v-16.199a3.79 3.79 0 0 0-3.79-3.79z" fill="#FFFFFB"/><path d="M182.72 457h-15.17a6.849 6.849 0 0 0 6.845 6.845h2.794v2.7a6.85 6.85 0 0 0 6.827 6.84v-15.066A1.313 1.313 0 0 0 182.72 457z" fill="#fff"/><path d="M174.651 465.009h-15.169a6.845 6.845 0 0 0 6.844 6.844h2.795v2.7a6.852 6.852 0 0 0 6.844 6.845v-15.075a1.312 1.312 0 0 0-1.314-1.314z" fill="#fff"/><path d="M166.719 473.002h-15.188a6.85 6.85 0 0 0 6.867 6.844h2.795v2.7a6.841 6.841 0 0 0 6.844 6.845V474.32a1.315 1.315 0 0 0-1.318-1.318z" fill="#fff"/><path d="M114.971 491.67l-8.168-8.168 3.408-3.408 4.76 4.76 14.162-14.163 3.407 3.409-17.569 17.57z" fill="#5F67FA"/><path d="M123.014 505.8h-16.199a3.79 3.79 0 0 0-3.791 3.79v16.199a3.79 3.79 0 0 0 3.791 3.791h16.199a3.79 3.79 0 0 0 3.79-3.791V509.59a3.79 3.79 0 0 0-3.79-3.79z" fill="#FFFFFB"/><path d="M114.971 524.415l-8.168-8.168 3.408-3.407 4.76 4.76 14.162-14.162 3.407 3.407-17.569 17.57z" fill="#2F6F44"/><path d="M242.718 593.441h66.176v47.396" stroke="#252861" stroke-width="1.895" stroke-miterlimit="10"/><path d="M93.66 501.723H71.206v139.113" stroke="#FFDDA6" stroke-width="1.895" stroke-miterlimit="10"/><path d="M505.875 522.446h-50.392a7.58 7.58 0 0 0-7.581 7.581v50.393a7.58 7.58 0 0 0 7.581 7.58h50.392a7.58 7.58 0 0 0 7.581-7.58v-50.393a7.58 7.58 0 0 0-7.581-7.581z" fill="#F48024"/><path d="M334.138 640.836v-81.807L485.9 407.267V225.809" stroke="#F48024" stroke-width="1.895" stroke-miterlimit="10"/><path d="M611.831 380.144H455.483a7.58 7.58 0 0 0-7.581 7.581v87.465a7.58 7.58 0 0 0 7.581 7.581h156.348a7.58 7.58 0 0 0 7.581-7.581v-87.465a7.58 7.58 0 0 0-7.581-7.581z" fill="#5F67FA"/><mask id="a" style="mask-type:alpha" maskUnits="userSpaceOnUse" x="447" y="380" width="173" height="103"><path d="M611.831 380.144H455.483a7.58 7.58 0 0 0-7.581 7.581v87.465a7.58 7.58 0 0 0 7.581 7.581h156.348a7.58 7.58 0 0 0 7.581-7.581v-87.465a7.58 7.58 0 0 0-7.581-7.581z" fill="#5F67FA"/></mask><g mask="url(#a)" stroke="#242729" stroke-width="1.895" stroke-miterlimit="10"><path d="M471.687 370.307H440.49v31.197h31.197v-31.197z"/><path d="M502.883 370.307h-31.197v31.197h31.197v-31.197zm31.198 0h-31.197v31.197h31.197v-31.197zm31.197 0h-31.197v31.197h31.197v-31.197zm31.197 0h-31.197v31.197h31.197v-31.197zm31.197 0h-31.197v31.197h31.197v-31.197zm-155.985 31.197h-31.198v31.197h31.198v-31.197z"/><path d="M502.883 401.504h-31.197v31.197h31.197v-31.197zm31.198 0h-31.197v31.197h31.197v-31.197zm31.197 0h-31.197v31.197h31.197v-31.197zm31.197 0h-31.197v31.197h31.197v-31.197zm31.197 0h-31.197v31.197h31.197v-31.197z"/><path d="M471.687 432.7h-31.198v31.197h31.198V432.7z"/><path d="M502.883 432.7h-31.197v31.197h31.197V432.7zm31.198 0h-31.197v31.197h31.197V432.7zm31.197 0h-31.197v31.197h31.197V432.7zm31.197 0h-31.197v31.197h31.197V432.7zm31.197 0h-31.197v31.197h31.197V432.7zm-155.985 31.197h-31.198v31.198h31.198v-31.198z"/><path d="M502.883 463.897h-31.197v31.198h31.197v-31.198zm31.198 0h-31.197v31.198h31.197v-31.198zm31.197 0h-31.197v31.198h31.197v-31.198zm31.197 0h-31.197v31.198h31.197v-31.198zm31.197 0h-31.197v31.198h31.197v-31.198z"/></g><path d="M620.23 333.322H517.107v8.184H620.23v-8.184z" fill="#242729"/><path d="M635.113 341.506H517.107v75.129h118.006v-75.129z" fill="#E2E2E2"/><path d="M635.113 333.322H620.23v8.184h14.883v-8.184z" fill="#FFB500"/><path d="M608.357 358.244h-77.139a2.504 2.504 0 1 0 0 5.008h77.139a2.504 2.504 0 0 0 0-5.008z" fill="#5EBA7D"/><path d="M567.284 370.459h-36.066a2.504 2.504 0 1 0 0 5.008h36.066a2.504 2.504 0 0 0 0-5.008z" fill="#FFFFFB"/><path d="M608.357 370.459h-30.38a2.504 2.504 0 1 0 0 5.008h30.38a2.504 2.504 0 1 0 0-5.008z" fill="#242729"/><path d="M540.75 382.674h-9.532a2.504 2.504 0 1 0 0 5.007h9.532a2.504 2.504 0 1 0 0-5.007z" fill="#F48024"/><path d="M585.614 382.674h-34.17a2.504 2.504 0 1 0 0 5.007h34.17a2.504 2.504 0 1 0 0-5.007z" fill="#5F67FA"/><path d="M597.607 394.889h-66.389a2.504 2.504 0 1 0 0 5.007h66.389a2.504 2.504 0 1 0 0-5.007z" fill="#FFB500"/><path d="M508.249 423.407h-10.731l-5.366 9.294 5.366 9.293h10.731l5.366-9.293-5.366-9.294z" fill="#FFFFFB"/><path d="M570.463 454.415h-10.732l-5.365 9.293 5.365 9.295h10.732l5.365-9.295-5.365-9.293z" fill="#5EBA7D"/><path d="M388.892 563.932v77.06" stroke="#5EBA7D" stroke-width="1.895" stroke-miterlimit="10"/><path d="M408.197 506.521h-107.38a7.58 7.58 0 0 0-7.58 7.58v42.469a7.58 7.58 0 0 0 7.58 7.581h107.38a7.58 7.58 0 0 0 7.581-7.581v-42.469a7.58 7.58 0 0 0-7.581-7.58z" fill="#5EBA7D"/><path d="M332.08 531.422v7.825h60.108v-7.825H332.08z" fill="#242729"/><path d="M318.703 519.239a16.093 16.093 0 0 1 15.721 12.658 15.925 15.925 0 0 1 0 6.878 16.09 16.09 0 0 1-14.419 12.605 16.09 16.09 0 0 1-16.265-10.113h14.007l4.261-5.931-4.261-5.931H303.74a16.089 16.089 0 0 1 14.963-10.166zm46.96 22.844v-13.496h35.82a3.788 3.788 0 0 1 3.791 3.79v5.916a3.79 3.79 0 0 1-3.791 3.79h-35.82z" fill="#FFFFFB"/><path d="M356.914 531.422h-2.893v7.825h2.893c1.303 0 2.554.508 3.487 1.418a5 5 0 0 0 3.488 1.417h1.774v-13.496h-1.774a5 5 0 0 0-3.488 1.418 4.997 4.997 0 0 1-3.487 1.418z" fill="#535A60"/><path d="M365.662 537.909h35.373m-35.373-5.149h35.373" stroke="#242729" stroke-width="1.895" stroke-miterlimit="10"/><path d="M480.679 588v52.836" stroke="#F48024" stroke-width="1.895" stroke-miterlimit="10"/><path d="M549.251 482.771v59.312l47.322 47.322v53.326" stroke="#5F67FA" stroke-width="1.895" stroke-miterlimit="10"/><path d="M109.442 212.448h-8.764v8.764h8.764v-8.764z" fill="#F48024"/><path fill-rule="evenodd" clip-rule="evenodd" d="M475.834 573a3.5 3.5 0 0 1-3.5-3.5v-9.333a3.5 3.5 0 1 1 7 0v9.333a3.5 3.5 0 0 1-3.5 3.5zm-9.334-9.333a3.5 3.5 0 1 1 0-7h3.5v3.5a3.5 3.5 0 0 1-3.5 3.5zm0-16.334h9.334a3.5 3.5 0 1 1 0 7H466.5a3.5 3.5 0 1 1 0-7zm9.334-9.333a3.5 3.5 0 0 1 3.5 3.5v3.5h-3.5a3.5 3.5 0 1 1 0-7zm9.333 18.667h9.333a3.5 3.5 0 1 1 0 7h-9.333a3.5 3.5 0 1 1 0-7zm0 16.333a3.5 3.5 0 0 1-3.5-3.5V566h3.5a3.5 3.5 0 1 1 0 7zm0-35a3.5 3.5 0 0 1 3.5 3.5v9.333a3.5 3.5 0 1 1-7 0V541.5a3.5 3.5 0 0 1 3.5-3.5zm9.333 9.333a3.5 3.5 0 1 1 0 7H491v-3.5a3.5 3.5 0 0 1 3.5-3.5zm30.507-459.055l-.823 10.133a10.332 10.332 0 0 0-1.178-.067c-.501 0-.99.034-1.468.112l-.467-4.912a.269.269 0 0 1 .267-.288h.834l-.401-4.967c-.011-.156.112-.289.256-.289h2.724c.156 0 .278.133.256.289v-.011zm-6.871.5c-.045-.145-.201-.234-.345-.178l-2.557.933c-.145.056-.212.223-.145.356l2.079 4.533-.789.29c-.145.055-.211.221-.145.355l2.124 4.455a9.537 9.537 0 0 1 2.479-.944l-2.69-9.8h-.011zm-6.271 2.822l5.881 8.289a9.656 9.656 0 0 0-2.001 1.733l-3.525-3.466a.268.268 0 0 1 .012-.39l.644-.533-3.502-3.544a.26.26 0 0 1 .022-.389l2.08-1.744a.257.257 0 0 1 .378.044h.011zm-4.937 4.8c-.122-.089-.3-.044-.378.089l-1.357 2.355a.263.263 0 0 0 .112.367l4.514 2.133-.423.723a.255.255 0 0 0 .123.366l4.492 2.056a9.418 9.418 0 0 1 1.289-2.311l-8.372-5.778zm-3.325 6.4c.023-.156.178-.244.323-.211l9.84 2.567a9.742 9.742 0 0 0-.423 2.622l-4.925-.4a.257.257 0 0 1-.234-.311l.145-.823-4.97-.466c-.156-.011-.256-.156-.234-.311l.467-2.678.011.011zm-.366 6.644c-.156.012-.256.156-.234.312l.478 2.677c.022.156.178.245.323.211l4.825-1.255.145.822c.022.156.178.245.322.211l4.759-1.311a9.601 9.601 0 0 1-.5-2.6l-10.13.933h.012zm1.578 7.045a.263.263 0 0 1 .112-.367l9.184-4.355a9.424 9.424 0 0 0 1.367 2.277l-4.025 2.867a.261.261 0 0 1-.378-.078l-.422-.733-4.103 2.833c-.122.089-.3.045-.378-.089l-1.368-2.355h.011zm11.13-1.911l-7.149 7.233a.26.26 0 0 0 .022.389l2.09 1.744c.123.1.29.078.378-.044l2.891-4.067.645.545c.123.1.3.078.389-.056l2.802-4.066a10.034 10.034 0 0 1-2.057-1.678h-.011zm-1.412 11.611a.26.26 0 0 1-.144-.356l4.236-9.244c.778.4 1.623.7 2.502.867l-1.246 4.777a.26.26 0 0 1-.344.178l-.79-.289-1.323 4.811c-.044.145-.2.234-.345.178l-2.557-.933.011.011zm7.294-8.611l-.823 10.133c-.011.156.111.289.256.289h2.724a.254.254 0 0 0 .256-.289l-.401-4.967h.834a.268.268 0 0 0 .267-.288l-.467-4.912a9.096 9.096 0 0 1-1.467.112 8.37 8.37 0 0 1-1.179-.078zm9.807-27.434c.066-.144 0-.3-.145-.355l-2.557-.933c-.145-.056-.3.033-.345.177l-1.323 4.811-.789-.288c-.145-.056-.301.033-.345.177l-1.245 4.778a9.947 9.947 0 0 1 2.501.867l4.248-9.234zm5.581 4.034l-7.149 7.233a9.713 9.713 0 0 0-2.057-1.678l2.802-4.066a.271.271 0 0 1 .389-.056l.645.545 2.891-4.067a.258.258 0 0 1 .378-.045l2.09 1.745a.27.27 0 0 1 .022.389h-.011zm3.87 5.689a.255.255 0 0 0 .111-.367l-1.368-2.356a.274.274 0 0 0-.378-.088l-4.103 2.833-.422-.722c-.078-.134-.256-.178-.378-.078l-4.025 2.867a9.789 9.789 0 0 1 1.367 2.277l9.184-4.355.012-.011zm1.445 3.689l.467 2.677a.268.268 0 0 1-.234.311l-10.129.945a9.52 9.52 0 0 0-.5-2.6l4.759-1.311c.144-.045.3.055.322.211l.145.822 4.825-1.255c.145-.034.3.055.323.211l.022-.011zm-.456 9.833c.145.033.3-.056.323-.211l.466-2.678a.267.267 0 0 0-.233-.311l-4.97-.467.145-.822a.268.268 0 0 0-.234-.311l-4.926-.4a9.703 9.703 0 0 1-.422 2.622l9.84 2.567.011.011zm-2.624 6.111a.274.274 0 0 1-.378.089l-8.372-5.778c.533-.7.967-1.478 1.289-2.311l4.492 2.056a.257.257 0 0 1 .123.366l-.423.722 4.514 2.134a.262.262 0 0 1 .112.366l-1.357 2.356zm-11.196-3.411l5.881 8.289a.258.258 0 0 0 .378.044l2.08-1.744a.27.27 0 0 0 .022-.389l-3.503-3.545.645-.533c.123-.1.123-.278.011-.389l-3.524-3.466a9.615 9.615 0 0 1-2.002 1.733h.012zm-.056 11.289c-.145.055-.3-.034-.345-.178l-2.69-9.8a9.543 9.543 0 0 0 2.479-.944l2.124 4.455c.066.145 0 .311-.145.356l-.789.289 2.079 4.533c.067.144 0 .3-.145.355l-2.557.934h-.011z" fill="#fff"/></g><defs><clipPath id="clip0_383_19771"><path fill="#fff" d="M0 0H630V630H0z"/></clipPath></defs></svg>