<svg width="567" height="434" viewBox="0 0 567 434" fill="none" xmlns="http://www.w3.org/2000/svg">
<path d="M437.216 337.953C469.647 337.953 495.938 322.772 495.938 304.047C495.938 285.321 469.647 270.141 437.216 270.141C404.785 270.141 378.495 285.321 378.495 304.047C378.495 322.772 404.785 337.953 437.216 337.953Z" fill="#E0E0E0"/>
<path d="M119.562 423.932C151.993 423.932 178.283 408.752 178.283 390.026C178.283 371.301 151.993 356.121 119.562 356.121C87.1312 356.121 60.8408 371.301 60.8408 390.026C60.8408 408.752 87.1312 423.932 119.562 423.932Z" fill="#E0E0E0"/>
<path d="M525.46 292.187L516.974 287.34C516.974 287.34 512.908 264.917 515.942 245.653C520.223 218.559 538.668 209.204 545.378 211.899C552.089 214.593 553.65 222.626 541.601 238.338C534.412 247.517 525.284 267.032 525.46 292.187Z" fill="#399B8E"/>
<g opacity="0.1">
<path d="M525.46 292.187L516.974 287.34C516.974 287.34 512.908 264.917 515.942 245.653C520.223 218.559 538.668 209.204 545.378 211.899C552.089 214.593 553.65 222.626 541.601 238.338C534.412 247.517 525.284 267.032 525.46 292.187Z" fill="black"/>
</g>
<path d="M521.418 281.159H521.506C521.586 281.151 521.663 281.127 521.734 281.09C521.804 281.052 521.866 281 521.916 280.938C521.967 280.876 522.004 280.805 522.027 280.728C522.049 280.651 522.057 280.571 522.048 280.491C519.278 255.034 530.282 227.612 542.066 216.696C542.185 216.586 542.255 216.433 542.261 216.272C542.267 216.11 542.208 215.952 542.098 215.834C541.988 215.715 541.835 215.645 541.673 215.64C541.511 215.634 541.354 215.692 541.236 215.802C529.25 226.869 518.032 254.832 520.839 280.63C520.859 280.772 520.928 280.902 521.034 280.998C521.14 281.095 521.275 281.151 521.418 281.159Z" fill="white"/>
<path d="M548.991 305.772C550.325 306.54 553.082 304.866 554.14 304.148C555.955 302.918 557.421 301.239 558.396 299.276C559.488 297.043 559.862 294.527 559.466 292.074C559.244 290.797 558.941 289.535 558.559 288.297C558.194 287.038 557.842 285.779 557.489 284.583C557.052 283.374 556.867 282.088 556.948 280.806C557.262 278.287 559.466 276.487 561.568 274.951C563.835 273.251 566.202 271.01 566.189 267.951C566.018 265.577 565.071 263.325 563.495 261.542C562.034 259.692 560.297 258.055 558.975 256.103C557.928 254.742 557.385 253.06 557.439 251.344C557.574 250.297 557.926 249.29 558.471 248.385C559.712 246.491 560.799 244.499 561.719 242.43C562.462 240.29 562.362 237.621 560.687 236.135C559.938 235.586 559.086 235.192 558.182 234.975C557.279 234.759 556.341 234.725 555.424 234.876C553.687 235.087 552.017 235.671 550.527 236.588C545.667 239.295 542.897 245.049 537.747 247.126C535.72 247.723 533.661 248.203 531.578 248.562C530.52 248.754 529.515 249.167 528.627 249.775C527.74 250.382 526.991 251.17 526.429 252.087C524.54 255.864 528.053 260.523 526.718 264.526C525.535 268.077 522.085 269.436 520.159 272.634C519.367 274.046 519.049 275.675 519.252 277.28C519.417 279.996 520.078 282.659 521.204 285.137C522.467 287.598 523.91 289.963 525.522 292.212C525.535 292.263 548.777 305.659 548.991 305.772Z" fill="#399B8E"/>
<path d="M535.217 298.445C535.297 298.443 535.377 298.425 535.45 298.393C535.524 298.36 535.59 298.313 535.645 298.254C535.7 298.196 535.743 298.127 535.771 298.051C535.799 297.976 535.812 297.896 535.808 297.815C534.814 273.805 546.12 247.303 554.354 239.598C554.412 239.543 554.458 239.478 554.491 239.405C554.524 239.332 554.542 239.254 554.544 239.175C554.546 239.095 554.533 239.016 554.505 238.942C554.476 238.867 554.434 238.799 554.379 238.741C554.325 238.684 554.259 238.637 554.187 238.604C554.114 238.572 554.036 238.554 553.956 238.552C553.877 238.549 553.798 238.563 553.723 238.591C553.649 238.619 553.581 238.662 553.523 238.716C545.125 246.573 533.593 273.516 534.638 297.891C534.65 298.038 534.715 298.175 534.822 298.278C534.929 298.38 535.069 298.439 535.217 298.445Z" fill="white"/>
<path d="M538.819 270.079H538.995C544.683 268.506 550.526 267.564 556.42 267.271C556.579 267.261 556.728 267.19 556.836 267.073C556.944 266.955 557.003 266.801 556.999 266.641C556.999 266.561 556.983 266.481 556.951 266.408C556.918 266.334 556.871 266.267 556.812 266.213C556.753 266.158 556.683 266.117 556.607 266.091C556.53 266.065 556.45 266.055 556.369 266.062C550.374 266.364 544.429 267.323 538.642 268.92C538.566 268.943 538.495 268.981 538.434 269.032C538.372 269.082 538.321 269.144 538.284 269.214C538.247 269.285 538.223 269.361 538.216 269.441C538.208 269.52 538.216 269.6 538.239 269.676C538.28 269.796 538.358 269.9 538.462 269.973C538.567 270.045 538.692 270.082 538.819 270.079Z" fill="white"/>
<path d="M37.3216 319.458L45.7571 314.586C45.7571 314.586 49.8489 292.162 46.8021 272.899C42.534 245.805 24.1395 236.463 17.3785 239.145C10.6175 241.826 9.10667 249.871 21.1556 265.584C28.3447 274.763 37.5482 294.315 37.3216 319.458Z" fill="#399B8E"/>
<g opacity="0.1">
<path d="M37.3216 319.458L45.7571 314.586C45.7571 314.586 49.8489 292.162 46.8021 272.899C42.534 245.805 24.1395 236.463 17.3785 239.145C10.6175 241.826 9.10667 249.871 21.1556 265.584C28.3447 274.763 37.5482 294.315 37.3216 319.458Z" fill="black"/>
</g>
<path d="M41.815 318.161C41.6502 318.152 41.4959 318.078 41.3852 317.955C41.2745 317.833 41.2164 317.672 41.2233 317.507C43.2125 279.736 37.8994 258.244 23.4457 245.49C23.3296 245.37 23.2646 245.21 23.2646 245.043C23.2646 244.876 23.3296 244.716 23.4457 244.596C23.5655 244.48 23.7258 244.415 23.8927 244.415C24.0596 244.415 24.2199 244.48 24.3397 244.596C39.1081 257.627 44.5597 279.471 42.5453 317.62C42.5346 317.704 42.507 317.785 42.4641 317.859C42.4212 317.932 42.3639 317.996 42.2957 318.046C42.2274 318.097 42.1497 318.133 42.0671 318.153C41.9845 318.173 41.8987 318.176 41.815 318.161Z" fill="white"/>
<path d="M39.8768 317.972C40.0531 309.864 35.3317 283.009 19.4427 273.239C3.55374 263.469 -4.16412 275.644 2.26953 283.021C6.9909 288.423 15.7789 292.326 24.0508 303.493C29.729 311.173 33.0025 321.963 33.0025 321.963L39.8768 317.972Z" fill="#399B8E"/>
<path d="M37.0313 321.12C36.8707 321.12 36.716 321.059 36.599 320.949C36.482 320.839 36.4114 320.688 36.4018 320.528C34.8784 300.056 23.2575 281.687 8.13652 275.87C8.05881 275.84 7.98773 275.795 7.92732 275.738C7.86692 275.681 7.81838 275.612 7.78447 275.536C7.75057 275.46 7.73196 275.378 7.72972 275.295C7.72748 275.212 7.74164 275.129 7.7714 275.052C7.80116 274.974 7.84594 274.903 7.90317 274.842C7.96041 274.782 8.02898 274.733 8.10497 274.7C8.18096 274.666 8.26289 274.647 8.34607 274.645C8.42926 274.643 8.51207 274.657 8.58978 274.686C24.1892 280.692 36.0996 299.502 37.6608 320.44C37.6677 320.523 37.6577 320.608 37.6315 320.687C37.6053 320.767 37.5634 320.841 37.5082 320.904C37.4531 320.968 37.3858 321.019 37.3104 321.056C37.235 321.093 37.1529 321.115 37.0691 321.12H37.0313Z" fill="white"/>
<path d="M357.179 79.1589C359.092 80.7327 361.283 81.551 363.801 83.9935C365.393 85.8049 367.403 87.2008 369.656 88.0602C372.564 89.2185 375.296 88.8786 383.367 87.5818C393.225 86.008 397.468 84.3461 401.723 80.7201C406.696 76.4771 417.826 63.6728 423.202 58.6492C428.893 53.3361 436.712 55.3883 436.712 55.3883C434.292 63.2634 430.692 70.7262 426.035 77.5221C421.729 83.6536 413.684 89.5333 410.045 92.555C404.216 97.4022 401.119 99.316 388.327 100.285C378.67 101.016 377.386 101.242 369.442 101.016C366.584 100.928 364.808 100.902 360.125 100.512C358.091 100.379 356.078 100.029 354.119 99.4671C351.904 98.9571 349.78 98.1077 347.824 96.949C345.271 95.291 343.21 92.9778 341.856 90.2509C341.117 88.7517 340.737 87.1005 340.748 85.4288C340.768 83.744 341.384 82.1207 342.486 80.846C342.702 80.5857 342.979 80.3825 343.292 80.2542C343.902 80.1502 344.529 80.2855 345.042 80.6319C348.063 82.1805 351.11 84.3209 354.283 85.5422C356.952 86.562 358.992 86.9271 358.79 86.3857C358.589 85.8443 356.977 85.3533 355.315 83.4773C353.653 81.6014 353.238 78.9952 354.308 78.1768C355.378 77.3584 355.315 77.5725 357.179 79.1589Z" fill="#F9C7C7"/>
<path d="M439.003 55.3508C435.96 53.8881 432.508 53.5105 429.221 54.2806C424.247 55.7159 420.256 58.9642 415.51 64.0633C410.763 69.1623 402.743 77.3964 402.743 77.3964C402.743 77.3964 406.697 87.3805 415.56 90.931L434.143 73.7452L439.003 55.3508Z" fill="#E0E0E0"/>
<path d="M466.313 283.487H455.045V302.775H466.313V283.487Z" fill="#F9C7C7"/>
<path d="M435.127 288.347L423.871 288.738L423.305 268.329L435.127 267.938V288.347Z" fill="#F9C7C7"/>
<path d="M471.148 139.492C471.148 150.244 469.247 212.818 469.247 212.818C469.499 215.915 472.483 221.417 472.722 232.572C473.049 248.738 466.83 293.132 466.83 293.132C464.878 294.096 462.739 294.618 460.563 294.662C458.387 294.705 456.228 294.269 454.239 293.384C454.239 293.384 449.128 233.202 447.101 217.2C445.338 203.224 442.354 165.277 442.354 165.277L437.054 210.879C438.345 216.754 438.803 222.781 438.413 228.783C437.884 236.186 435.794 282.027 435.794 282.027C433.832 283.137 431.65 283.802 429.402 283.974C427.155 284.145 424.897 283.82 422.789 283.022C422.789 283.022 414.844 217.665 414.718 210.879C414.567 203.136 417.652 124.082 417.652 124.082L471.148 139.492Z" fill="#37474F"/>
<path d="M463.707 60.3494C466.188 61.4485 468.137 63.4789 469.134 66.0024C470.29 69.1142 470.849 72.4159 470.783 75.7347V97.8056L471.11 139.492C454.932 148.016 434.384 148.582 417.123 135.979C417.123 135.979 418.092 82.3321 418.092 73.5566C418.092 73.1663 418.092 72.7634 418.092 72.2976C418.722 59.7073 431.061 51.1584 443.273 54.2808L453.522 56.9752L463.77 60.3494H463.707Z" fill="#F0F0F0"/>
<path d="M438.333 34.3909C446.657 32.4262 451.812 24.0856 449.848 15.7616C447.883 7.43754 439.542 2.28224 431.218 4.24689C422.894 6.21154 417.739 14.5522 419.704 22.8762C421.668 31.2002 430.009 36.3555 438.333 34.3909Z" fill="#399B8E"/>
<path opacity="0.5" d="M438.333 34.3909C446.657 32.4262 451.812 24.0856 449.848 15.7616C447.883 7.43754 439.542 2.28224 431.218 4.24689C422.894 6.21154 417.739 14.5522 419.704 22.8762C421.668 31.2002 430.009 36.3555 438.333 34.3909Z" fill="black"/>
<path d="M461.543 30.2964C461.543 30.2964 459.025 42.0935 458.03 44.0198C457.364 45.2248 456.259 46.1266 454.945 46.5379L455.122 38.2409L461.543 30.2964Z" fill="#399B8E"/>
<path opacity="0.5" d="M461.543 30.2964C461.543 30.2964 459.025 42.0935 458.03 44.0198C457.364 45.2248 456.259 46.1266 454.945 46.5379L455.122 38.2409L461.543 30.2964Z" fill="black"/>
<path d="M458.393 13.4127C459.271 13.3101 460.161 13.4099 460.995 13.7045C461.829 13.9991 462.584 14.4807 463.203 15.1124C465.267 17.215 464.109 23.8249 461.541 30.2963L456.819 30.8503L458.393 13.4127Z" fill="#399B8E"/>
<path opacity="0.5" d="M458.393 13.4127C459.271 13.3101 460.161 13.4099 460.995 13.7045C461.829 13.9991 462.584 14.4807 463.203 15.1124C465.267 17.215 464.109 23.8249 461.541 30.2963L456.819 30.8503L458.393 13.4127Z" fill="black"/>
<path d="M455.398 30.8502C456.342 31.4168 457.702 29.5912 458.86 28.3321C460.018 27.0731 463.896 25.4364 465.747 29.4527C467.598 33.469 464.072 38.9332 461.063 39.8775C455.889 41.5016 455.121 38.1778 455.121 38.1778L454.781 57.4661C448.347 65.7128 430.494 65.0203 437.935 56.396V50.7177C435.629 51.0827 433.291 51.2008 430.96 51.0703C427.183 50.4785 424.753 47.482 423.594 43.365C421.744 36.7425 421.076 31.4042 422.612 18.3858C424.337 4.12096 440.931 3.96987 449.896 9.57257C458.86 15.1753 455.398 30.8502 455.398 30.8502Z" fill="#F9C7C7"/>
<path d="M455.397 32.4365C455.875 32.4365 457.688 29.44 458.859 28.3698C460.496 26.8841 458.393 13.4125 458.393 13.4125C458.823 12.2473 458.904 10.9818 458.624 9.77168C458.344 8.56151 457.717 7.45948 456.819 6.60115C454.578 4.08308 450.839 3.86905 444.443 2.82405C441.094 2.29526 436.008 1.36358 432.659 0.73406C428.668 -0.00876906 425.356 -0.789367 422.586 1.66575C421.477 2.62132 420.693 3.89786 420.341 5.31883C419.989 6.73981 420.087 8.235 420.622 9.59764C421.411 11.295 422.822 12.6246 424.563 13.3118C424.563 13.3118 426.301 14.8604 432.369 15.6032C437.966 16.0177 443.589 15.9081 449.165 15.2759C450.927 15.0367 451.305 16.7489 452.249 21.3948C453.105 25.4866 453.798 32.4113 455.397 32.4365Z" fill="#399B8E"/>
<path opacity="0.5" d="M455.397 32.4365C455.875 32.4365 457.688 29.44 458.859 28.3698C460.496 26.8841 458.393 13.4125 458.393 13.4125C458.823 12.2473 458.904 10.9818 458.624 9.77168C458.344 8.56151 457.717 7.45948 456.819 6.60115C454.578 4.08308 450.839 3.86905 444.443 2.82405C441.094 2.29526 436.008 1.36358 432.659 0.73406C428.668 -0.00876906 425.356 -0.789367 422.586 1.66575C421.477 2.62132 420.693 3.89786 420.341 5.31883C419.989 6.73981 420.087 8.235 420.622 9.59764C421.411 11.295 422.822 12.6246 424.563 13.3118C424.563 13.3118 426.301 14.8604 432.369 15.6032C437.966 16.0177 443.589 15.9081 449.165 15.2759C450.927 15.0367 451.305 16.7489 452.249 21.3948C453.105 25.4866 453.798 32.4113 455.397 32.4365Z" fill="black"/>
<path d="M458.38 14.4574L464.109 11.3854C463.925 11.0054 463.668 10.6661 463.351 10.3873C463.034 10.1085 462.665 9.89594 462.265 9.76217C461.865 9.6284 461.442 9.57611 461.021 9.60838C460.601 9.64065 460.191 9.75684 459.816 9.95008C459.042 10.3725 458.462 11.0767 458.195 11.9161C457.927 12.7556 457.994 13.6657 458.38 14.4574Z" fill="#399B8E"/>
<path opacity="0.5" d="M458.38 14.4574L464.109 11.3854C463.925 11.0054 463.668 10.6661 463.351 10.3873C463.034 10.1085 462.665 9.89594 462.265 9.76217C461.865 9.6284 461.442 9.57611 461.021 9.60838C460.601 9.64065 460.191 9.75684 459.816 9.95008C459.042 10.3725 458.462 11.0767 458.195 11.9161C457.927 12.7556 457.994 13.6657 458.38 14.4574Z" fill="black"/>
<path d="M437.897 50.7178C437.897 50.7178 446.396 49.0055 449.367 47.4191C451.135 46.5132 452.584 45.0903 453.522 43.3398C453.075 45.075 452.283 46.7023 451.193 48.1242C449.015 50.9066 437.948 52.9463 437.948 52.9463L437.897 50.7178Z" fill="#F7ACAC"/>
<path d="M438.313 28.7222C438.322 29.0561 438.43 29.3796 438.623 29.6524C438.816 29.9252 439.085 30.1352 439.396 30.2562C439.707 30.3771 440.047 30.4037 440.374 30.3325C440.7 30.2614 440.998 30.0956 441.231 29.8561C441.463 29.6165 441.62 29.3136 441.682 28.9854C441.744 28.6571 441.707 28.318 441.577 28.0103C441.447 27.7027 441.229 27.4401 440.951 27.2555C440.673 27.0709 440.346 26.9723 440.012 26.9722C439.556 26.9821 439.122 27.1712 438.804 27.4987C438.486 27.8262 438.309 28.2657 438.313 28.7222Z" fill="#263238"/>
<path d="M440.113 22.2887L443.764 24.3031C444.02 23.8028 444.074 23.2232 443.915 22.6842C443.756 22.1452 443.395 21.6881 442.908 21.4074C442.668 21.2754 442.404 21.1935 442.131 21.1666C441.859 21.1396 441.584 21.1682 441.322 21.2506C441.061 21.3329 440.819 21.4674 440.612 21.6458C440.404 21.8242 440.234 22.0429 440.113 22.2887Z" fill="#263238"/>
<path d="M438.666 40.4819L434.775 41.9424C434.863 42.2012 435.001 42.4398 435.183 42.644C435.364 42.8483 435.584 43.014 435.831 43.1314C436.078 43.2489 436.345 43.3156 436.618 43.3276C436.891 43.3396 437.163 43.2967 437.419 43.2014C437.937 42.9955 438.356 42.598 438.588 42.0915C438.82 41.585 438.848 41.0085 438.666 40.4819Z" fill="black"/>
<path d="M423.62 23.7115L426.944 21.1934C426.795 20.9625 426.6 20.7648 426.371 20.6125C426.143 20.4602 425.885 20.3566 425.614 20.3082C425.344 20.2598 425.066 20.2675 424.799 20.331C424.532 20.3945 424.28 20.5123 424.061 20.6772C423.605 21.0248 423.303 21.5371 423.221 22.1044C423.139 22.6716 423.282 23.2486 423.62 23.7115Z" fill="#263238"/>
<path d="M424.64 28.2313C424.652 28.567 424.763 28.8916 424.959 29.1648C425.154 29.438 425.426 29.6477 425.74 29.7677C426.053 29.8877 426.395 29.9127 426.723 29.8397C427.051 29.7667 427.35 29.5988 427.584 29.3571C427.817 29.1153 427.974 28.8102 428.035 28.4799C428.096 28.1496 428.059 27.8086 427.927 27.4994C427.796 27.1901 427.577 26.9263 427.297 26.7408C427.017 26.5553 426.688 26.4563 426.352 26.4561C426.123 26.4593 425.897 26.5079 425.686 26.5991C425.476 26.6902 425.286 26.8221 425.127 26.9872C424.967 27.1522 424.842 27.3471 424.759 27.5606C424.675 27.7741 424.635 28.0021 424.64 28.2313Z" fill="#263238"/>
<path d="M433.314 26.6196L432.76 36.8681L427.409 35.0426L433.314 26.6196Z" fill="#F3A4A4"/>
<path d="M455.045 297.211V295.599C453.963 296.078 451.457 305.672 446.988 309.701C443.437 312.949 438.59 316.688 437.356 320.302C436.122 323.915 444.104 326.131 447.428 325.552C451.281 324.859 457.966 322.152 459.653 319.634C461.34 317.116 462.108 313.402 463.43 311.551C464.752 309.701 467.938 307.648 468.668 305.508C469.071 304.337 468.593 301.731 468.026 299.603C467.459 297.475 466.943 295.423 466.263 295.599C466.263 295.851 466.263 296.858 466.263 296.858C464.656 298.118 462.665 298.789 460.623 298.76C459.024 298.797 455.033 298.47 455.045 297.211Z" fill="#263238"/>
<path d="M423.758 285.263C423.166 285.263 422.687 286.106 421.403 287.504C419.477 289.452 417.238 291.065 414.781 292.275C410.563 294.378 402.354 297.626 398.64 299.301C396.323 300.346 396.437 303.153 398.829 304.74C401.221 306.326 407.013 307.485 413.937 305.936C417.714 305.08 422.65 301.592 425.772 301.781C428.894 301.97 434.724 301.92 437.028 300.333C439.332 298.747 438.413 295.36 437.758 292.439C437.053 289.266 436.159 284.306 435.114 284.532V285.628C433.754 287.68 426.767 288.511 423.783 287L423.758 285.263Z" fill="#263238"/>
<path d="M442.367 165.277C436.543 163.464 431.188 160.396 426.68 156.287C426.68 156.287 429.701 161.953 438.703 167.228L437.444 207.051L442.367 165.277Z" fill="#263238"/>
<path d="M108.204 92.8701H112.22C118.2 92.8701 123.936 95.2458 128.165 99.4747C132.394 103.703 134.769 109.439 134.769 115.419V163.263H85.667V115.419C85.667 109.439 88.0427 103.703 92.2715 99.4747C96.5003 95.2458 102.236 92.8701 108.216 92.8701H108.204Z" fill="#263238"/>
<path d="M106.592 398.475L103.432 395.667C100.373 392.872 98.0434 388.113 96.6962 384.915C95.9359 383.07 95.5425 381.094 95.5379 379.098V372.803H84.5088V383.039V383.278C85.0376 385.57 90.1115 391.676 92.9821 395.655C94.921 398.324 98.5848 401.711 102.966 402.302C107.159 402.932 109.287 401.622 106.592 398.475Z" fill="#F9C7C7"/>
<path d="M138.484 381.679C138.793 381.5 139.063 381.261 139.277 380.974C140.133 379.791 139.453 379.149 138.824 378.205C138.068 376.894 137.435 375.516 136.935 374.088C136.419 372.828 135.752 370.587 135.752 370.587C135.752 370.587 135.752 368.938 135.752 368.271V361.976H124.71V372.489C125.277 375.007 127.518 377.311 128.978 379.262C130.111 380.773 133.032 381.541 134.795 381.919C135.567 382.117 136.369 382.172 137.162 382.082C137.624 382.035 138.073 381.898 138.484 381.679Z" fill="#F9C7C7"/>
<path d="M86.6993 211.874C78.1379 230.571 87.014 296.418 87.014 296.418C86.7496 299.452 83.2369 305.42 81.9779 318.766C80.4545 334.541 84.3701 374.163 84.3701 374.163C86.0553 375.139 87.9533 375.69 89.8993 375.766C91.8454 375.843 93.7808 375.444 95.5377 374.604C95.5377 374.604 106.051 314.951 108.027 299.263C109.752 285.578 113.063 255.487 113.063 255.487L119.648 299.251C118.28 303.666 117.29 308.19 116.689 312.773C115.796 321.989 124.735 364.947 124.735 364.947C124.735 364.947 128.512 366.345 135.776 365.274C135.776 365.274 138.937 308.278 139.767 297.161C141.165 278.502 139.037 220.209 135.613 209.167L86.6993 211.874Z" fill="#37474F"/>
<path d="M113.089 255.474L115.859 238.112C115.859 238.112 127.618 235.669 132.944 230.658C132.944 230.658 127.354 237.621 119.094 239.899L115.972 253.258L118.767 292.917L113.089 255.474Z" fill="#263238"/>
<path d="M95.5764 381.389V379.791C96.634 380.256 99.1017 389.649 103.496 393.64C106.983 396.825 111.755 400.502 112.964 404.052C114.172 407.603 106.329 409.781 103.068 409.214C99.2906 408.534 92.7184 405.865 91.0691 403.397C89.4197 400.93 88.6391 397.278 87.292 395.465C85.9448 393.652 82.8602 391.638 82.1048 389.573C81.7019 388.427 82.1803 385.897 82.7343 383.769C83.2883 381.641 83.8045 379.665 84.4717 379.841V381.1C86.0476 382.335 87.9969 382.997 89.9989 382.976C91.6608 382.951 95.589 382.623 95.5764 381.389Z" fill="#263238"/>
<path d="M135.752 370.587C136.318 370.587 137.011 371.468 138.27 372.841C140.163 374.754 142.363 376.337 144.779 377.524C148.921 379.602 156.979 382.787 160.63 384.437C162.909 385.456 162.796 388.214 160.441 389.775C158.087 391.336 152.409 392.469 145.585 390.946C141.808 390.115 137.023 386.678 133.951 386.866C130.879 387.055 125.138 387.005 122.897 385.444C120.656 383.883 121.537 380.559 122.179 377.701C122.884 374.578 123.753 369.706 124.785 369.92V371.003C126.12 373.017 132.982 373.835 135.903 372.35L135.752 370.587Z" fill="#263238"/>
<path d="M120.064 146.429C122.749 146.193 125.449 146.648 127.908 147.75C130.368 148.852 132.504 150.564 134.115 152.725C138.534 158.491 150.168 182.11 150.168 182.11C150.168 182.11 175.714 180.398 176.935 178.925C178.156 177.452 177.476 174.455 177.136 172.806C176.796 171.157 176.242 167.506 175.877 166.511C175.235 164.71 177.892 165.252 179.453 166.876C181.014 168.5 181.707 171.824 182.487 172.391C183.268 172.957 189.198 166.095 192.068 162.835C194.939 159.574 196.299 157.244 198.225 158.604C199.623 159.586 198.729 161.538 196.664 164.358C195.699 165.562 194.808 166.824 193.995 168.135C193.755 168.651 194.511 169.054 194.813 169.319C195.38 169.822 196.362 170.641 196.437 171.421C196.425 171.842 196.45 172.264 196.513 172.68C196.777 173.624 197.948 174.065 198.275 174.984C198.515 175.651 198.275 176.394 198.376 177.087C198.464 177.527 198.716 177.93 198.792 178.346C198.822 178.791 198.755 179.238 198.596 179.655C198.438 180.072 198.191 180.45 197.872 180.763C195.845 183.168 193.088 184.087 190.432 185.56C188.228 186.819 185.962 187.31 183.419 188.443C180.876 189.576 149.828 197.609 145.182 195.028C140.536 192.447 122.721 164.471 122.721 164.471C115.771 152.951 120.064 146.429 120.064 146.429Z" fill="#F9C7C7"/>
<path d="M101.795 146.933C90.8286 147.689 90.0606 152.989 87.3159 158.781C85.2133 163.2 85.9058 168.463 87.5047 173.071L94.442 195.041C94.442 195.041 90.8538 203.703 86.699 211.874C105.887 222.588 129.846 216.91 135.612 209.142C135.864 207.48 134.353 194.525 133.472 186.051C136.846 177.578 137.74 172.202 136.317 166.599C133.661 156.2 123.387 146.064 118.842 146.455L101.795 146.933Z" fill="#399B8E"/>
<path d="M84.4707 103.005L87.7946 108.343C87.4552 108.579 87.0717 108.743 86.6672 108.826C86.2627 108.909 85.8456 108.91 85.4409 108.827C85.0362 108.745 84.6524 108.581 84.3125 108.347C83.9727 108.112 83.6839 107.811 83.4635 107.462C83.0298 106.731 82.8925 105.862 83.0798 105.033C83.2671 104.204 83.7649 103.478 84.4707 103.005Z" fill="#263238"/>
<path d="M126.711 102.804C129.305 104.327 132.502 110.849 132.188 124.535C131.923 136.118 128.159 138.988 126.283 139.807C124.407 140.625 120.756 140.134 117.218 139.542V146.505C117.218 146.505 122.103 152.183 121.801 155.318C121.499 158.453 114.738 159.259 110.167 156.149C107.184 154.016 104.622 151.348 102.613 148.28V131.472C102.613 131.472 100.233 134.657 96.3179 132.064C92.4023 129.47 92.2638 123.049 94.53 120.732C96.7963 118.416 101.694 119.159 102.6 122.344C102.6 122.344 108.241 122.545 115.757 118.428C118.681 116.866 121.196 114.637 123.099 111.923C125.001 109.209 126.239 106.085 126.711 102.804Z" fill="#F9C7C7"/>
<path d="M117.949 121.613C117.954 121.9 117.874 122.182 117.719 122.423C117.565 122.665 117.343 122.855 117.081 122.972C116.819 123.088 116.529 123.124 116.246 123.077C115.963 123.029 115.701 122.899 115.492 122.704C115.282 122.508 115.135 122.255 115.068 121.976C115.002 121.698 115.019 121.405 115.117 121.136C115.215 120.867 115.39 120.632 115.621 120.462C115.851 120.292 116.127 120.193 116.413 120.178C116.608 120.171 116.803 120.203 116.986 120.272C117.168 120.34 117.336 120.444 117.479 120.577C117.621 120.711 117.736 120.871 117.817 121.049C117.898 121.226 117.943 121.418 117.949 121.613Z" fill="#263238"/>
<path d="M119.635 131.472L123.021 132.555C122.965 132.785 122.862 133.002 122.719 133.192C122.576 133.381 122.396 133.54 122.19 133.657C121.984 133.775 121.756 133.85 121.52 133.877C121.284 133.904 121.045 133.882 120.818 133.814C120.352 133.659 119.966 133.325 119.744 132.887C119.523 132.448 119.483 131.94 119.635 131.472Z" fill="black"/>
<path d="M129.947 117.144L126.95 115.105C127.074 114.905 127.237 114.733 127.429 114.599C127.622 114.465 127.84 114.371 128.069 114.324C128.299 114.277 128.536 114.277 128.766 114.325C128.996 114.373 129.213 114.466 129.405 114.601C129.807 114.873 130.087 115.29 130.188 115.764C130.289 116.238 130.203 116.733 129.947 117.144Z" fill="#263238"/>
<path d="M129.216 120.569C129.232 120.763 129.208 120.958 129.147 121.142C129.086 121.327 128.989 121.498 128.861 121.644C128.733 121.791 128.578 121.91 128.403 121.996C128.228 122.081 128.038 122.131 127.844 122.142C127.544 122.17 127.242 122.107 126.978 121.961C126.713 121.815 126.499 121.594 126.362 121.325C126.224 121.056 126.171 120.753 126.208 120.453C126.244 120.154 126.37 119.872 126.568 119.645C126.767 119.417 127.029 119.255 127.32 119.177C127.612 119.1 127.92 119.112 128.205 119.211C128.49 119.311 128.738 119.493 128.919 119.735C129.099 119.977 129.203 120.267 129.216 120.569Z" fill="#263238"/>
<path d="M122.104 119.725L122.33 128.501L126.951 127.078L122.104 119.725Z" fill="#F7ACAC"/>
<path d="M117.219 139.543C113.442 139.052 105.888 136.848 104.629 133.814C105.101 135.352 106.038 136.707 107.311 137.692C109.602 139.656 117.219 141.859 117.219 141.859V139.543Z" fill="#F49696"/>
<path opacity="0.1" d="M106.705 213.951C101.48 212.692 96.1795 207.001 98.5717 201.424C99.2535 199.858 100.424 198.555 101.908 197.709C102.455 197.398 103.087 197.267 103.713 197.335C104.339 197.402 104.928 197.666 105.396 198.087C102.878 196.438 98.5591 188.418 97.9799 185.497L95.0212 175.626C94.7459 173.368 94.9475 171.078 95.6129 168.903L87.8951 159.989L86.4724 160.971C85.2133 164.836 86.1702 169.205 87.5048 173.07L94.442 195.04C94.442 195.04 90.8538 203.702 86.699 211.873C92.9425 215.226 99.8323 217.202 106.904 217.666C113.975 218.131 121.064 217.075 127.693 214.568C120.721 215.687 113.6 215.477 106.705 213.951Z" fill="black"/>
<path d="M197.332 432.998L172.378 418.594C169.784 417.058 168.336 413.206 168.336 408.245L168.235 298.797L193.416 313.314L193.315 423.114C193.277 427.949 194.839 431.399 197.332 432.998Z" fill="#399B8E"/>
<path opacity="0.2" d="M197.332 432.998L172.378 418.594C169.784 417.058 168.336 413.206 168.336 408.245L168.235 298.797L193.416 313.314L193.315 423.114C193.277 427.949 194.839 431.399 197.332 432.998Z" fill="black"/>
<path d="M197.508 433.098L197.331 432.997C194.813 431.398 193.277 427.961 193.277 423.114L193.378 313.314L168.197 298.797L189.941 286.119L190.142 286.005L193.227 284.217L196.702 281.8L196.84 281.712L196.979 281.611C197.168 281.485 197.319 281.347 197.482 281.221L197.684 281.082L198.288 280.629L198.867 280.176C199.027 280.025 199.19 279.886 199.358 279.76L199.547 279.609L199.723 279.458C200.051 279.206 200.366 278.929 200.668 278.665L201.146 278.224L201.322 278.036C201.914 277.494 202.506 276.902 203.047 276.311L203.249 276.122C203.475 275.878 203.689 275.639 203.891 275.404C203.998 275.291 204.095 275.169 204.18 275.039C204.282 274.943 204.375 274.838 204.457 274.724V274.636L204.533 274.523L204.671 274.372L205.339 273.528C205.515 273.276 205.704 273.012 205.867 272.748L206.006 272.584V272.508C206.245 272.168 206.459 271.829 206.673 271.489C206.887 271.149 207.038 270.897 207.215 270.595L207.278 270.481C207.416 270.204 207.567 269.953 207.706 269.676L207.92 269.285C208.096 268.945 208.26 268.605 208.411 268.253L208.688 267.611C208.798 267.401 208.891 267.182 208.965 266.956C209.057 266.779 209.133 266.593 209.191 266.402C209.254 266.226 209.342 266.024 209.405 265.848C209.569 265.407 209.708 264.954 209.859 264.488C209.972 264.123 210.098 263.733 210.199 263.343C210.199 263.343 210.199 263.242 210.199 263.179C210.324 262.763 210.413 262.335 210.501 261.92V261.781C210.501 261.454 210.652 261.114 210.715 260.762C210.803 260.283 210.904 259.729 210.967 259.213V258.949C210.967 258.835 210.967 258.722 210.967 258.596C210.973 258.55 210.973 258.504 210.967 258.458C210.961 258.34 210.961 258.223 210.967 258.105C211.03 257.488 211.08 256.846 211.13 256.292V256.015V255.323C211.13 254.416 211.155 253.497 211.206 252.565V252.339C211.206 252.074 211.206 251.835 211.206 251.558V250.878C211.206 250.576 211.206 250.249 211.206 249.959C211.212 249.88 211.212 249.8 211.206 249.72C211.212 249.64 211.212 249.56 211.206 249.481V249.141C211.206 248.675 211.143 248.222 211.105 247.806V247.731C211.105 247.328 211.017 246.95 210.979 246.585C210.752 244.883 210.402 243.2 209.934 241.549C209.645 240.542 209.33 239.623 209.053 238.754C208.318 236.781 207.803 234.733 207.517 232.647C207.517 232.232 207.416 231.804 207.378 231.388C207.341 230.973 207.378 230.419 207.29 229.903V229.676C207.278 229.555 207.278 229.432 207.29 229.311C207.266 229.047 207.266 228.782 207.29 228.518C207.29 222.714 210.815 215.928 215.184 213.409C215.617 213.154 216.083 212.959 216.569 212.83C216.882 212.745 217.203 212.694 217.526 212.679C217.835 212.641 218.148 212.641 218.458 212.679C218.607 212.7 218.755 212.733 218.898 212.78C219.338 212.91 219.761 213.092 220.157 213.321L245.779 227.914C245.927 227.997 246.07 228.089 246.207 228.191C247.693 229.324 248.523 231.477 248.523 234.272C248.523 234.649 248.523 235.04 248.448 235.644V235.808C248.274 239.441 247.692 243.044 246.71 246.547C246.496 247.441 246.282 248.335 246.081 249.279C245.993 249.594 245.93 249.921 245.867 250.236C245.64 251.193 245.439 252.188 245.275 253.258C245.212 253.598 245.162 253.963 245.112 254.315L262.738 244.331L287.919 258.848V287.73C287.919 295.838 287.302 301.252 286.043 304.274C285.161 306.364 283.814 307.673 280.704 309.461C278.263 310.968 275.464 311.798 272.596 311.866C271.69 311.866 270.834 312.029 269.965 312.143L268.945 312.319C268.618 312.382 268.303 312.445 267.963 312.533C267.359 312.672 266.704 312.873 266.1 313.074L265.596 313.263C264.646 313.631 263.717 314.052 262.814 314.522C262.698 314.568 262.588 314.628 262.486 314.699H262.398L262.247 314.774C261.907 314.925 261.517 315.114 261.114 315.341C257.382 317.662 254.212 320.785 251.835 324.481C250.575 326.353 249.468 328.324 248.523 330.374C247.624 332.312 246.858 334.31 246.232 336.354L247.617 334.881C248.927 333.407 250.323 332.011 251.797 330.701C253.026 329.637 254.354 328.693 255.763 327.881C257.777 326.722 259.389 325.791 260.585 326.533L285.539 341.403L285.829 341.617C285.898 341.682 285.961 341.754 286.017 341.831C286.063 341.861 286.099 341.905 286.118 341.957C286.191 342.037 286.254 342.126 286.307 342.221C286.307 342.221 286.307 342.221 286.307 342.284C286.384 342.404 286.452 342.531 286.508 342.662C287.151 344.021 287.579 346.439 287.768 350.493C287.768 350.934 287.768 351.399 287.768 351.903C287.768 353.162 287.768 354.597 287.768 356.171V385.041L205.553 432.506C204.216 433.327 202.708 433.826 201.146 433.967C200.652 434.011 200.155 434.011 199.66 433.967C199.497 433.959 199.335 433.925 199.182 433.866C198.589 433.693 198.025 433.435 197.508 433.098Z" fill="#399B8E"/>
<path opacity="0.1" d="M260.572 326.533L285.501 341.403C284.317 340.647 282.693 341.604 280.679 342.762C279.272 343.57 277.947 344.515 276.725 345.583C275.241 346.881 273.841 348.273 272.533 349.75C269.653 353.09 266.337 356.029 262.675 358.488C262.184 358.84 261.604 359.205 261.063 359.52C251.935 364.795 244.507 359.18 244.507 347.005C244.552 343.381 245.134 339.783 246.232 336.329C246.698 335.838 247.138 335.347 247.591 334.881C248.902 333.407 250.297 332.011 251.771 330.701C252.997 329.637 254.32 328.693 255.725 327.881C257.752 326.722 259.389 325.791 260.572 326.533Z" fill="black"/>
<path opacity="0.1" d="M245.035 254.328L262.75 244.332L287.93 258.861L266.288 271.35L259.778 274.75H259.703H259.64L259.174 274.951L258.935 275.039L257.852 275.48L257.248 275.694L257.084 275.757C256.732 275.87 256.392 275.996 256.064 276.084L255.359 276.273C254.994 276.374 254.654 276.437 254.314 276.5H254.201L253.735 276.575C253.318 276.632 252.897 276.666 252.476 276.676H252.073C251.583 276.67 251.094 276.619 250.613 276.525L250.361 276.462C249.99 276.361 249.628 276.23 249.278 276.072C249.174 276.037 249.077 275.986 248.989 275.921C248.673 275.74 248.37 275.538 248.082 275.316H248.019L247.805 275.127C247.479 274.826 247.184 274.493 246.924 274.133L246.798 273.982C246.118 272.934 245.616 271.781 245.312 270.57L245.249 270.356C245.086 269.714 244.972 269.097 244.859 268.404V268.064C244.746 267.309 244.657 266.503 244.607 265.685C244.532 264.602 244.506 263.658 244.506 262.713C244.471 259.909 244.648 257.106 245.035 254.328Z" fill="black"/>
<path opacity="0.1" d="M193.378 313.314L168.197 298.797L189.941 286.119L190.13 286.006H190.205L193.29 284.218L196.777 281.8L196.903 281.712L197.042 281.612C197.231 281.486 197.382 281.347 197.545 281.221L197.734 281.083L198.351 280.629L198.93 280.176C199.09 280.025 199.253 279.887 199.421 279.761L199.61 279.61L199.786 279.459C200.114 279.207 200.428 278.93 200.731 278.665L201.209 278.225L201.385 278.036C201.977 277.495 202.569 276.903 203.11 276.311L203.312 276.122C203.538 275.879 203.752 275.64 203.954 275.405C204.061 275.292 204.158 275.169 204.243 275.039C204.344 274.939 204.42 274.825 204.508 274.725L204.583 274.636L204.671 274.536L204.797 274.372C205.024 274.095 205.263 273.818 205.465 273.529L206.006 272.761L206.132 272.584V272.509C206.371 272.169 206.585 271.829 206.799 271.489C207.013 271.149 207.164 270.897 207.341 270.595V270.469C207.492 270.205 207.643 269.953 207.781 269.676C207.864 269.55 207.94 269.42 208.008 269.286C208.159 268.933 208.335 268.593 208.486 268.253L208.763 267.611C208.864 267.41 208.952 267.196 209.053 266.969C209.154 266.742 209.204 266.604 209.267 266.402C209.33 266.201 209.418 266.025 209.481 265.848C209.645 265.395 209.783 264.967 209.934 264.489C210.047 264.124 210.173 263.733 210.274 263.343C210.274 263.343 210.274 263.242 210.274 263.179C210.375 262.776 210.488 262.336 210.576 261.92V261.794C210.639 261.442 210.715 261.115 210.778 260.762C210.866 260.284 210.967 259.73 211.03 259.213V258.949C211.03 258.848 211.03 258.722 211.03 258.596C211.036 258.551 211.036 258.504 211.03 258.458C211.03 258.345 211.03 258.219 211.03 258.093C211.105 257.463 211.155 256.834 211.193 256.292V256.015C211.193 255.776 211.193 255.575 211.193 255.323C211.193 254.416 211.218 253.497 211.269 252.566V252.339C211.269 252.075 211.269 251.835 211.269 251.558V250.879C211.269 250.576 211.269 250.249 211.269 249.947V249.72C211.275 249.641 211.275 249.561 211.269 249.481V249.141C211.269 248.675 211.206 248.222 211.168 247.807V247.718L211.055 246.585C210.827 244.884 210.478 243.201 210.01 241.549C209.733 240.529 209.418 239.61 209.128 238.754C208.393 236.781 207.878 234.734 207.592 232.648C207.592 232.232 207.492 231.804 207.454 231.389C207.416 230.973 207.454 230.432 207.378 229.903V229.676C207.378 229.551 207.378 229.425 207.378 229.299C207.354 229.035 207.354 228.769 207.378 228.506C207.378 222.701 210.904 215.915 215.272 213.397C215.706 213.142 216.171 212.947 216.657 212.818C216.97 212.733 217.291 212.682 217.614 212.667C217.923 212.616 218.237 212.616 218.546 212.667C218.696 212.687 218.843 212.721 218.987 212.768C219.426 212.898 219.849 213.08 220.246 213.309L245.779 227.914C245.244 227.605 244.645 227.424 244.029 227.385C243.581 227.368 243.133 227.406 242.694 227.498C241.962 227.663 241.26 227.943 240.617 228.329C239.847 228.787 239.133 229.332 238.489 229.953C236.728 231.689 235.329 233.755 234.372 236.035C234.145 236.526 233.969 237.029 233.78 237.545C233.541 238.268 233.344 239.004 233.188 239.749C232.913 240.946 232.769 242.171 232.76 243.4C232.76 243.74 232.76 244.13 232.76 244.558V244.684C232.812 246.726 233.104 248.754 233.629 250.727C233.705 251.055 233.805 251.37 233.894 251.684C234.095 252.326 234.296 252.943 234.498 253.573C234.787 254.442 235.102 255.348 235.392 256.368C235.493 256.72 235.581 257.073 235.669 257.426C235.757 257.778 235.845 258.168 235.946 258.559C236.225 259.872 236.431 261.201 236.563 262.537V262.6C236.55 262.822 236.55 263.045 236.563 263.267V263.947V264.124V264.3C236.563 264.451 236.563 264.602 236.563 264.766C236.575 264.921 236.575 265.076 236.563 265.232C236.563 265.383 236.563 265.546 236.563 265.697V266.39C236.563 266.629 236.563 266.881 236.563 267.158V267.271C236.563 267.737 236.563 268.203 236.563 268.669C236.563 269.135 236.563 269.588 236.5 270.054C236.5 270.28 236.5 270.519 236.5 270.733V271.01C236.5 271.602 236.412 272.207 236.336 272.811C236.336 273.1 236.261 273.377 236.223 273.68V273.919L235.958 275.493L235.732 276.512V276.638C235.732 276.878 235.631 277.117 235.555 277.369C235.48 277.62 235.43 277.847 235.367 278.061C235.304 278.275 235.367 278.263 235.304 278.363C235.241 278.464 235.115 278.93 235.039 279.219C234.901 279.673 234.75 280.126 234.586 280.567C234.422 281.007 234.296 281.322 234.158 281.687C234.019 282.052 233.793 282.556 233.604 282.946L233.088 284.004C232.987 284.193 232.886 284.407 232.773 284.595L232.458 285.187L232.383 285.313C232.304 285.47 232.216 285.621 232.118 285.766L232.03 285.917C231.976 286.015 231.913 286.108 231.841 286.194C231.627 286.547 231.413 286.887 231.187 287.227V287.302L231.061 287.479C230.977 287.61 230.884 287.737 230.784 287.856C230.703 287.987 230.615 288.113 230.519 288.234L230.28 288.549C230.147 288.737 230.005 288.918 229.852 289.09L229.726 289.254L229.588 289.443L229.298 289.783L229.21 289.883C229.21 289.959 229.084 290.047 229.008 290.123L228.681 290.488C228.593 290.601 228.48 290.714 228.366 290.84L228.178 291.029C227.63 291.635 227.05 292.211 226.44 292.754L226.264 292.943L225.773 293.383C225.483 293.66 225.168 293.925 224.841 294.189L224.665 294.328L224.577 294.416L224.489 294.491L223.998 294.894L222.739 295.801L222.55 295.952L222.046 296.33L221.769 296.518L218.282 298.936L215.197 300.724L215.096 300.799L214.895 300.9L193.378 313.314Z" fill="black"/>
<mask id="mask0_114_718" style="mask-type:luminance" maskUnits="userSpaceOnUse" x="245" y="187" width="146" height="199">
<path d="M261.088 347.95C261.353 347.799 261.655 347.585 261.982 347.358C264.737 345.499 267.227 343.275 269.385 340.748C270.506 339.489 271.501 338.482 272.634 337.387L272.81 337.21L273.137 336.896L273.288 336.744C273.855 336.216 274.409 335.725 274.963 335.246L285.4 341.478C285.614 341.611 285.802 341.782 285.954 341.982C286.044 342.088 286.124 342.202 286.194 342.322V342.398C286.26 342.511 286.319 342.629 286.37 342.75V342.863L286.521 343.254C286.521 343.254 286.521 343.354 286.521 343.405C286.575 343.545 286.621 343.688 286.659 343.833C286.659 343.896 286.659 343.959 286.659 344.022C286.659 344.085 286.748 344.362 286.798 344.55V344.714C286.798 344.941 286.886 345.18 286.936 345.444C286.936 345.734 287.024 346.036 287.075 346.351V346.426L287.188 347.333C287.188 347.434 287.188 347.534 287.188 347.635L287.264 348.416C287.264 348.554 287.264 348.693 287.264 348.819C287.264 348.944 287.264 349.335 287.327 349.612C287.39 349.889 287.327 349.927 287.327 350.09V350.909C287.327 351.085 287.327 351.274 287.327 351.463C287.327 351.651 287.327 352.054 287.327 352.356C287.327 352.659 287.327 352.722 287.327 352.91C287.327 353.099 287.327 353.628 287.327 353.993V354.497C287.327 355.051 287.327 355.605 287.327 356.197V385.041L390.567 325.413V309.134C390.573 309.037 390.573 308.941 390.567 308.844V187.65L368.912 200.152L368.509 200.391L368.257 200.542L363.989 203.186C362.28 204.317 360.636 205.545 359.066 206.863L358.966 206.951L358.701 207.165C358.311 207.492 357.946 207.832 357.581 208.172L357.48 208.273L357.014 208.726C356.674 209.053 356.347 209.381 356.019 209.721L355.403 210.388C355.1 210.728 354.798 211.068 354.509 211.42C354.219 211.773 354.131 211.886 353.917 212.176C353.703 212.465 353.35 212.906 353.086 213.271L352.633 213.938L352.532 214.115L352.406 214.291C352.192 214.618 351.978 214.946 351.789 215.273C351.6 215.6 351.5 215.764 351.374 216.028L351.26 216.217C350.883 216.922 350.505 217.665 350.178 218.421L350.089 218.61C349.951 218.924 349.8 219.239 349.674 219.566C349.548 219.894 349.422 220.234 349.309 220.574L349.221 220.825C349.082 221.216 348.944 221.593 348.83 221.996C348.717 222.399 348.591 222.815 348.478 223.255C348.365 223.696 348.264 224.111 348.163 224.514C348.062 224.917 347.987 225.345 347.911 225.773C347.836 226.201 347.748 226.68 347.685 227.146V227.234C347.685 227.612 347.571 227.989 347.521 228.38C347.471 228.77 347.42 229.387 347.37 229.928V230.23C347.37 230.52 347.37 230.81 347.307 231.099C347.307 231.716 347.307 232.358 347.307 233.265V233.391C347.307 233.554 347.307 233.705 347.307 233.869C347.208 238.507 347.976 243.123 349.573 247.479C350.629 250.302 351.216 253.279 351.311 256.292V256.431C351.311 256.846 351.374 257.237 351.374 257.589C351.313 260.669 350.519 263.691 349.057 266.402C347.814 268.975 345.883 271.153 343.479 272.698C343.099 272.911 342.703 273.096 342.296 273.251L342.095 273.327C341.735 273.45 341.364 273.534 340.987 273.579H340.785C340.429 273.617 340.071 273.617 339.715 273.579H339.639C339.281 273.521 338.933 273.411 338.607 273.251L338.506 273.189L327.616 266.793C327.616 266.465 327.616 266.151 327.704 265.823C327.792 265.496 327.792 265.068 327.842 264.69C327.943 263.909 328.044 263.154 328.17 262.424C328.296 261.694 328.396 261.089 328.522 260.447C328.598 260.107 328.661 259.78 328.724 259.465C329.026 258.068 329.341 256.67 329.706 255.172C330.793 251.328 331.369 247.357 331.418 243.362C331.418 239.585 331.091 237.885 330.071 237.281L317.657 230.117L296.581 242.267L287.906 237.231V247.303L280.352 251.697L277.934 253.082L288.007 258.873V273.831V287.756C288.007 295.864 287.39 301.278 286.131 304.299C285.249 306.377 283.902 307.686 280.792 309.486C278.347 310.995 275.544 311.825 272.672 311.891C271.79 311.891 270.909 312.055 270.065 312.168L269.033 312.344C268.718 312.407 268.391 312.47 268.051 312.558C267.421 312.707 266.799 312.888 266.188 313.1H266.062L265.684 313.226C264.733 313.592 263.804 314.012 262.901 314.485L262.562 314.648H262.486H262.335C261.943 314.817 261.561 315.006 261.189 315.215C257.462 317.535 254.301 320.658 251.935 324.356C251.331 325.237 250.764 326.156 250.223 327.1L250.009 327.516C249.543 328.347 249.102 329.19 248.75 330.034L248.662 330.235C247.76 332.173 246.994 334.171 246.37 336.216C245.805 338.06 245.384 339.946 245.111 341.856L256.14 348.227C256.919 348.611 257.784 348.788 258.651 348.739C259.518 348.691 260.358 348.419 261.088 347.95Z" fill="white"/>
</mask>
<g mask="url(#mask0_114_718)">
<path d="M289.43 313.426L262.625 297.953L263.217 297.135L263.28 297.059L263.569 296.644C263.997 296.014 264.4 295.385 264.828 294.717L264.942 294.516C265.332 293.823 265.71 293.068 266.075 292.275C266.15 292.086 266.238 291.897 266.314 291.696V291.57C266.503 291.116 266.729 290.575 266.943 289.971C267.044 289.706 267.132 289.442 267.233 289.152V288.989C267.384 288.535 267.535 288.082 267.661 287.616C267.787 287.15 267.875 286.873 267.976 286.483C268.077 286.093 268.177 285.64 268.291 285.224C268.404 284.809 268.467 284.393 268.542 283.965C268.618 283.537 268.706 283.172 268.769 282.782V282.593C268.845 282.215 268.908 281.812 268.971 281.409C269.033 281.006 269.033 280.943 269.071 280.717V280.465C269.348 278.451 269.512 276.335 269.65 274.044V273.792L269.789 267.61V238.212L296.493 253.849V283.26L296.354 289.455V289.694C296.241 291.985 296.065 294.1 295.8 296.102V296.367C295.8 296.606 295.738 296.832 295.7 297.072C295.662 297.311 295.586 297.865 295.511 298.243V298.419C295.448 298.834 295.372 299.212 295.297 299.615C295.221 300.018 295.121 300.433 295.02 300.874C294.919 301.315 294.831 301.73 294.73 302.133C294.63 302.536 294.516 302.901 294.416 303.266C294.315 303.631 294.139 304.185 293.975 304.626V304.815C293.887 305.079 293.786 305.369 293.685 305.633C293.484 306.212 293.245 306.766 293.056 307.232L292.993 307.345L292.766 307.925C292.401 308.705 292.023 309.461 291.633 310.178L291.52 310.38C291.155 311.009 290.752 311.639 290.324 312.306C290.234 312.444 290.133 312.575 290.022 312.696V312.784L289.43 313.426Z" fill="#399B8E"/>
<path d="M269.801 364.556L269.877 340.282L269.499 340.672C270.607 339.413 271.627 338.393 272.735 337.311L272.924 337.134L273.251 336.82L273.478 336.694C275.595 334.654 277.944 332.871 280.478 331.381L280.755 331.242H280.818L281.007 331.129C281.611 330.789 282.266 330.487 282.807 330.197C282.971 330.109 283.147 330.046 283.311 329.97L283.487 329.882C283.89 329.731 284.318 329.542 284.746 329.404C284.973 329.303 285.187 329.253 285.388 329.177H285.489C285.854 329.089 286.206 328.988 286.534 328.925C286.861 328.862 287.037 328.825 287.277 328.8C287.587 328.775 287.898 328.775 288.208 328.8C288.443 328.787 288.678 328.787 288.913 328.8C289.189 328.823 289.463 328.869 289.732 328.938H289.845L290.361 329.064C290.624 329.156 290.877 329.274 291.117 329.416C291.386 329.548 291.643 329.704 291.885 329.882C292.176 330.09 292.45 330.322 292.703 330.575C292.846 330.726 292.981 330.886 293.106 331.053L293.194 331.179L293.27 331.267C293.4 331.433 293.522 331.605 293.635 331.783C293.795 332.025 293.938 332.277 294.063 332.539C294.189 332.778 294.302 332.992 294.403 333.231C294.503 333.471 294.654 333.836 294.78 334.163C294.906 334.49 294.944 334.641 295.02 334.893C295.095 335.145 295.234 335.598 295.334 335.976L295.485 336.606V336.706C295.574 337.122 295.674 337.55 295.75 337.965C295.75 338.079 295.75 338.204 295.75 338.33V338.481C296.027 340.257 296.228 342.259 296.367 344.613V344.714L296.505 350.329V380.143L269.801 364.556Z" fill="#399B8E"/>
<path d="M255.625 348.176L229.274 332.917C227.524 331.985 226.504 329.543 226.504 326.307C226.615 322.469 227.821 318.743 229.979 315.567L230.482 314.862C230.357 315.064 230.205 315.265 230.08 315.454L256.872 330.928C256.802 331.015 256.739 331.107 256.683 331.205C254.517 334.372 253.311 338.096 253.208 341.931C253.208 344.966 254.14 347.131 255.625 348.176Z" fill="#399B8E"/>
<path d="M289.43 313.426L262.625 297.953L263.217 297.135L263.28 297.059L263.569 296.644C263.997 296.014 264.4 295.385 264.828 294.717L264.942 294.516C265.332 293.823 265.71 293.068 266.075 292.275C266.15 292.086 266.238 291.897 266.314 291.696V291.57C266.503 291.116 266.729 290.575 266.943 289.971C267.044 289.706 267.132 289.442 267.233 289.152V288.989C267.384 288.535 267.535 288.082 267.661 287.616C267.787 287.15 267.875 286.873 267.976 286.483C268.077 286.093 268.177 285.64 268.291 285.224C268.404 284.809 268.467 284.393 268.542 283.965C268.618 283.537 268.706 283.172 268.769 282.782V282.593C268.845 282.215 268.908 281.812 268.971 281.409C269.033 281.006 269.033 280.943 269.071 280.717V280.465C269.348 278.451 269.512 276.335 269.65 274.044V273.792L269.789 267.61V238.212L296.493 253.849V283.26L296.354 289.455V289.694C296.241 291.985 296.065 294.1 295.8 296.102V296.367C295.8 296.606 295.738 296.832 295.7 297.072C295.662 297.311 295.586 297.865 295.511 298.243V298.419C295.448 298.834 295.372 299.212 295.297 299.615C295.221 300.018 295.121 300.433 295.02 300.874C294.919 301.315 294.831 301.73 294.73 302.133C294.63 302.536 294.516 302.901 294.416 303.266C294.315 303.631 294.139 304.185 293.975 304.626V304.815C293.887 305.079 293.786 305.369 293.685 305.633C293.484 306.212 293.245 306.766 293.056 307.232L292.993 307.345L292.766 307.925C292.401 308.705 292.023 309.461 291.633 310.178L291.52 310.38C291.155 311.009 290.752 311.639 290.324 312.306C290.234 312.444 290.133 312.575 290.022 312.696V312.784L289.43 313.426Z" fill="#263238"/>
<path d="M269.801 364.556L269.877 340.282L269.499 340.672C270.607 339.413 271.627 338.393 272.735 337.311L272.924 337.134L273.251 336.82L273.478 336.694C275.595 334.654 277.944 332.871 280.478 331.381L280.755 331.242H280.818L281.007 331.129C281.611 330.789 282.266 330.487 282.807 330.197C282.971 330.109 283.147 330.046 283.311 329.97L283.487 329.882C283.89 329.731 284.318 329.542 284.746 329.404C284.973 329.303 285.187 329.253 285.388 329.177H285.489C285.854 329.089 286.206 328.988 286.534 328.925C286.861 328.862 287.037 328.825 287.277 328.8C287.587 328.775 287.898 328.775 288.208 328.8C288.443 328.787 288.678 328.787 288.913 328.8C289.189 328.823 289.463 328.869 289.732 328.938H289.845L290.361 329.064C290.624 329.156 290.877 329.274 291.117 329.416C291.386 329.548 291.643 329.704 291.885 329.882C292.176 330.09 292.45 330.322 292.703 330.575C292.846 330.726 292.981 330.886 293.106 331.053L293.194 331.179L293.27 331.267C293.4 331.433 293.522 331.605 293.635 331.783C293.795 332.025 293.938 332.277 294.063 332.539C294.189 332.778 294.302 332.992 294.403 333.231C294.503 333.471 294.654 333.836 294.78 334.163C294.906 334.49 294.944 334.641 295.02 334.893C295.095 335.145 295.234 335.598 295.334 335.976L295.485 336.606V336.706C295.574 337.122 295.674 337.55 295.75 337.965C295.75 338.079 295.75 338.204 295.75 338.33V338.481C296.027 340.257 296.228 342.259 296.367 344.613V344.714L296.505 350.329V380.143L269.801 364.556Z" fill="#263238"/>
<path d="M255.625 348.176L229.274 332.917C227.524 331.985 226.504 329.543 226.504 326.307C226.615 322.469 227.821 318.743 229.979 315.567L230.482 314.862C230.357 315.064 230.205 315.265 230.08 315.454L256.872 330.928C256.802 331.015 256.739 331.107 256.683 331.205C254.517 334.372 253.311 338.096 253.208 341.931C253.208 344.966 254.14 347.131 255.625 348.176Z" fill="#263238"/>
<path d="M255.851 348.265L255.675 348.164C254.189 347.119 253.257 344.953 253.257 341.969C253.36 338.134 254.567 334.41 256.732 331.243C256.788 331.145 256.851 331.053 256.921 330.966L230.129 315.492C230.255 315.303 230.406 315.102 230.532 314.9C230.872 314.46 231.224 314.044 231.589 313.641C231.76 313.443 231.941 313.254 232.131 313.075C232.316 312.87 232.518 312.68 232.735 312.508C233.253 312.027 233.823 311.604 234.435 311.249C234.659 311.119 234.89 311.001 235.127 310.897L235.429 310.771H235.505C236.618 310.177 237.797 309.717 239.018 309.398L239.446 309.298C240.55 309.073 241.67 308.926 242.795 308.857C246.76 308.719 250.62 307.542 253.988 305.445L254.869 304.904C255.133 304.753 255.372 304.589 255.624 304.413C255.876 304.236 256.015 304.173 256.203 304.047H256.279L257.211 303.368L258.092 302.675L258.256 302.549L258.394 302.423L258.495 302.335L258.873 302.008C258.986 301.907 259.124 301.806 259.238 301.693C259.351 301.58 259.691 301.29 259.918 301.064L260.232 300.749L260.371 300.598L260.925 300.019C261.151 299.779 261.378 299.528 261.592 299.276L261.68 299.175L262.045 298.747C262.209 298.52 262.41 298.294 262.574 298.054L289.392 313.541L289.87 312.886V312.798C289.981 312.676 290.082 312.546 290.172 312.407C290.6 311.753 291.003 311.148 291.368 310.481L291.482 310.28C291.872 309.562 292.25 308.807 292.615 308.026L292.841 307.447L292.904 307.334C293.093 306.868 293.332 306.314 293.534 305.735C293.634 305.47 293.735 305.181 293.823 304.916V304.727C293.987 304.287 294.125 303.833 294.264 303.368C294.402 302.902 294.465 302.625 294.579 302.234C294.692 301.844 294.78 301.391 294.868 300.975C294.956 300.56 295.057 300.157 295.145 299.716C295.233 299.276 295.296 298.936 295.359 298.52V298.344C295.435 297.966 295.485 297.576 295.548 297.173C295.611 296.77 295.611 296.707 295.649 296.468V296.204C295.913 294.202 296.09 292.087 296.203 289.795V289.556L296.341 283.362V253.862L269.637 238.225L280.591 231.93L286.244 228.669L291.28 225.748L293.244 224.64C293.76 224.389 294.226 224.112 294.705 223.885C296.376 222.969 298.14 222.234 299.967 221.694L300.521 221.556C301.09 221.42 301.677 221.377 302.259 221.43C302.586 221.43 302.762 221.719 303.014 221.87L330.033 237.231C330.293 237.4 330.516 237.62 330.689 237.878C330.862 238.135 330.981 238.424 331.04 238.729C331.04 238.943 331.154 239.195 331.204 239.459C331.254 239.724 331.28 240.026 331.317 240.353V240.857C331.317 241.209 331.317 241.587 331.317 242.002C331.317 242.418 331.317 242.859 331.317 243.337C331.317 244.533 331.317 245.616 331.166 246.648C331.166 246.913 331.166 247.164 331.166 247.416C331.166 247.668 331.166 247.907 331.078 248.159C330.99 248.411 331.078 248.637 330.965 248.889C330.851 249.141 330.902 249.368 330.864 249.607C330.776 250.073 330.7 250.526 330.612 251.004C330.524 251.483 330.411 251.924 330.323 252.377C330.31 252.409 330.31 252.445 330.323 252.478C332.489 247.632 333.658 242.399 333.76 237.092C333.76 236.349 333.76 235.606 333.684 234.977C333.558 230.939 332.784 226.948 331.393 223.155C330.197 220.012 329.612 216.671 329.668 213.309C329.668 207.089 329.668 203.665 342.863 196.073L364.405 183.734L391.197 199.208V308.819C391.197 317.947 385.632 328.586 378.795 332.539L296.581 380.005V350.216L296.442 344.601V344.5C296.304 342.171 296.102 340.144 295.825 338.369V338.218C295.825 338.092 295.825 337.966 295.825 337.852C295.75 337.399 295.649 336.971 295.561 336.593V336.493L295.41 335.863C295.309 335.485 295.221 335.133 295.095 334.78C294.969 334.428 294.944 334.289 294.856 334.05C294.768 333.811 294.616 333.408 294.478 333.118C294.34 332.829 294.264 332.665 294.138 332.426C294.013 332.165 293.87 331.912 293.71 331.671C293.597 331.492 293.475 331.32 293.345 331.154L293.269 331.066L293.181 330.94C293.056 330.773 292.922 330.613 292.778 330.462C292.525 330.209 292.251 329.977 291.96 329.769C291.719 329.591 291.462 329.435 291.192 329.304C290.952 329.162 290.699 329.043 290.437 328.951L289.92 328.825H289.807C289.538 328.757 289.265 328.71 288.989 328.687C288.754 328.674 288.518 328.674 288.284 328.687C287.973 328.662 287.662 328.662 287.352 328.687C287.113 328.687 286.873 328.762 286.609 328.813C286.345 328.863 285.929 328.976 285.564 329.064H285.463C285.262 329.14 285.048 329.19 284.821 329.291C284.393 329.43 283.965 329.618 283.562 329.769L283.386 329.858C283.222 329.933 283.046 329.996 282.882 330.084C282.278 330.374 281.686 330.676 281.082 331.016L280.893 331.129H280.83L280.553 331.268C277.987 332.789 275.612 334.61 273.477 336.694L273.314 336.845L272.986 337.16L272.797 337.336C271.69 338.419 270.67 339.502 269.562 340.698C267.404 343.225 264.913 345.449 262.159 347.308C261.831 347.534 261.542 347.748 261.265 347.9C260.529 348.355 259.705 348.651 258.847 348.768C258.319 348.87 257.777 348.87 257.248 348.768C256.756 348.685 256.283 348.515 255.851 348.265Z" fill="#37474F"/>
<path d="M296.594 253.85L269.89 238.213L280.843 231.918L286.496 228.657L291.532 225.736L293.496 224.628C294.013 224.376 294.479 224.099 294.957 223.872C296.628 222.956 298.392 222.222 300.22 221.682L300.774 221.543C301.342 221.407 301.929 221.365 302.511 221.417C302.839 221.417 303.015 221.707 303.267 221.858L329.958 237.231C329.864 237.178 329.762 237.14 329.656 237.117C329.527 237.053 329.384 237.023 329.24 237.029C328.823 236.967 328.399 236.967 327.981 237.029C327.627 237.072 327.277 237.148 326.936 237.256C323.885 238.25 320.967 239.616 318.249 241.322L313.213 244.243L307.547 247.517L296.594 253.85Z" fill="black"/>
<path d="M331.142 283.727C328.624 281.209 327.365 276.966 327.365 271.841C327.352 271.106 327.382 270.37 327.453 269.638C327.453 269.638 327.453 269.638 327.453 269.55C327.453 268.291 327.579 267.12 327.718 265.773C327.718 265.395 327.806 265.03 327.856 264.652C327.944 263.872 328.058 263.104 328.184 262.386C328.309 261.668 328.41 261.052 328.536 260.409C328.612 260.069 328.675 259.742 328.738 259.427C329.04 258.03 329.354 256.632 329.72 255.134C329.959 254.19 330.173 253.283 330.374 252.377C332.527 247.563 333.687 242.364 333.786 237.092C333.786 236.349 333.786 235.619 333.698 234.99C333.578 230.944 332.809 226.944 331.419 223.142C330.228 220.003 329.643 216.666 329.694 213.309C329.694 207.102 329.694 203.677 342.889 196.06L364.431 183.734L391.223 199.208L369.593 211.697C356.398 219.252 356.398 222.739 356.398 228.946C356.332 232.309 356.918 235.652 358.123 238.792C359.502 242.592 360.271 246.586 360.402 250.627C360.402 251.256 360.49 251.986 360.478 252.717C360.478 264.892 353.062 279.093 343.909 284.356C338.948 287.239 334.302 287 331.142 283.727Z" fill="black"/>
<path d="M256.871 330.978L230.079 315.504C230.205 315.316 230.356 315.114 230.482 314.913C230.822 314.472 231.174 314.057 231.54 313.654C231.71 313.456 231.891 313.267 232.081 313.087C232.267 312.882 232.469 312.692 232.685 312.521C233.203 312.039 233.773 311.617 234.385 311.262C234.609 311.131 234.84 311.014 235.077 310.909L235.38 310.796H235.455C236.568 310.202 237.747 309.742 238.968 309.423L239.396 309.323C240.501 309.098 241.62 308.951 242.745 308.882C246.71 308.744 250.57 307.568 253.938 305.47L254.819 304.929C255.083 304.778 255.323 304.614 255.574 304.438C255.771 304.323 255.96 304.197 256.141 304.06H256.217L257.148 303.38L258.042 302.688L258.193 302.562L258.332 302.436L258.445 302.348L258.81 302.02C258.924 301.92 259.062 301.819 259.175 301.705C259.289 301.592 259.629 301.303 259.855 301.076L260.17 300.761C260.214 300.708 260.265 300.662 260.321 300.623L260.862 300.031C261.089 299.792 261.316 299.54 261.53 299.288L261.618 299.187L261.983 298.759C262.147 298.533 262.348 298.306 262.512 298.067L289.342 313.553L289.228 313.679C289.052 313.931 288.863 314.17 288.674 314.422C288.486 314.674 288.435 314.686 288.322 314.825L288.221 314.925C287.818 315.391 287.415 315.832 286.962 316.247L286.71 316.499C286.647 316.575 286.572 316.638 286.522 316.713L285.829 317.343L285.099 317.972L284.998 318.073L284.683 318.312C284.104 318.803 283.5 319.256 282.883 319.697C282.883 319.697 282.807 319.697 282.744 319.785C282.039 320.289 281.308 320.755 280.554 321.183L279.773 321.586L278.854 322.051C276.806 323.117 274.6 323.844 272.32 324.204L271.161 324.355H270.582L269.512 324.456C267.918 324.513 266.338 324.784 264.816 325.262C264.35 325.413 263.859 325.602 263.318 325.829C262.978 325.98 262.6 326.156 262.222 326.357L261.907 326.483C261.669 326.585 261.438 326.703 261.215 326.836C260.6 327.204 260.019 327.625 259.478 328.095C259.284 328.257 259.099 328.429 258.924 328.611C258.735 328.787 258.546 328.989 258.37 329.19C258.132 329.425 257.914 329.678 257.715 329.946C257.575 330.106 257.445 330.274 257.325 330.449C257.111 330.688 256.972 330.827 256.871 330.978Z" fill="black"/>
</g>
<mask id="mask1_114_718" style="mask-type:luminance" maskUnits="userSpaceOnUse" x="261" y="50" width="131" height="236">
<path d="M287.919 247.303V218.345L288.209 209.532V209.356C288.209 209.142 288.209 208.94 288.209 208.751V208.462C288.209 207.895 288.309 207.354 288.372 206.825C288.387 206.554 288.42 206.285 288.473 206.019V205.767C288.473 205.251 288.599 204.735 288.662 204.244C288.725 203.753 288.763 203.564 288.826 203.249C288.926 202.695 289.002 202.154 289.115 201.625V201.449C289.115 201.235 289.203 201.008 289.254 200.794C289.405 200.064 289.594 199.359 289.77 198.654C289.77 198.654 289.77 198.515 289.833 198.402C290.047 197.609 290.324 196.79 290.601 195.985L290.714 195.645C290.966 194.965 291.256 194.298 291.52 193.643C291.52 193.517 291.646 193.366 291.721 193.227V193.127C292.011 192.522 292.301 191.868 292.628 191.314L292.88 190.886C293.261 190.203 293.681 189.543 294.139 188.909C295.118 187.48 296.226 186.144 297.45 184.918L297.551 184.817C298.067 184.313 298.659 183.772 299.288 183.256L299.414 183.13C300.745 182.05 302.159 181.077 303.644 180.222C305.238 179.273 306.926 178.493 308.681 177.892C309.563 177.601 310.463 177.365 311.375 177.187C312.517 176.993 313.668 176.863 314.825 176.797C317.372 176.732 319.871 176.082 322.127 174.896H322.19C322.531 174.756 322.863 174.596 323.185 174.417C325.585 172.873 327.511 170.694 328.75 168.122C329.125 167.417 329.457 166.69 329.744 165.944C330.595 163.852 331.044 161.618 331.066 159.359C331.066 158.982 331.066 158.617 331.066 158.264C331.074 158.168 331.074 158.071 331.066 157.974C331.057 157.729 331.027 157.485 330.978 157.244C330.978 157.131 330.978 157.055 330.978 156.955C330.978 156.854 330.877 156.501 330.827 156.313C330.777 156.124 330.764 156.136 330.739 156.061C330.714 155.985 330.6 155.645 330.512 155.444L330.424 155.268C330.345 155.066 330.248 154.872 330.134 154.688C330.116 154.64 330.085 154.597 330.046 154.562C329.933 154.374 329.807 154.197 329.669 154.008C329.53 153.82 329.669 154.008 329.606 153.933L329.127 153.455C328.948 153.302 328.754 153.167 328.548 153.052L317.103 146.454C315.28 148.091 313.545 149.822 311.904 151.642C309.589 154.404 306.837 156.769 303.758 158.642C301.781 159.775 300.157 160.719 298.986 160.039L287.919 153.643C287.844 151.125 287.844 148.393 287.919 145.497V121.11L261.127 105.649L356.574 50.4531L391.311 70.4969L391.248 199.233L369.605 211.723C356.423 219.277 356.423 222.764 356.423 228.971C356.361 232.332 356.942 235.674 358.135 238.817C359.53 242.613 360.304 246.609 360.427 250.652C360.427 251.269 360.502 252.012 360.515 252.754C360.332 259.718 358.401 266.524 354.9 272.546L332.967 285.2C332.299 284.782 331.682 284.288 331.129 283.727C328.687 281.208 327.352 276.978 327.352 271.854C327.352 271.161 327.352 270.431 327.453 269.625C327.453 269.625 327.453 269.625 327.453 269.55C327.453 268.291 327.566 267.12 327.717 265.773C327.717 265.408 327.805 265.017 327.856 264.652C327.944 263.859 328.057 263.104 328.183 262.386C328.309 261.668 328.41 261.051 328.536 260.409C328.611 260.069 328.674 259.742 328.737 259.427C329.027 258.03 329.354 256.632 329.732 255.134C330.809 251.288 331.38 247.318 331.431 243.324C331.431 239.547 331.104 237.847 330.072 237.243L317.67 230.079L296.581 242.267L287.919 247.303Z" fill="white"/>
</mask>
<g mask="url(#mask1_114_718)">
<path d="M338.744 273.227L311.889 257.716C311.763 257.652 311.641 257.58 311.523 257.502C310.025 256.368 309.333 254.014 309.333 251.206C309.304 250.754 309.304 250.3 309.333 249.847V249.683C309.523 246.05 310.11 242.449 311.083 238.943C311.511 237.143 311.964 235.166 312.342 233.139L318.158 229.778L318.385 229.652L318.524 229.576L323.107 227.121L323.232 227.058C324.673 226.341 326.162 225.727 327.689 225.22H327.866L328.457 225.031C328.692 224.955 328.932 224.896 329.175 224.855H329.314C329.591 224.779 329.88 224.704 330.17 224.653L330.925 224.553C331.215 224.553 331.517 224.553 331.806 224.553C332.096 224.553 332.26 224.553 332.474 224.553C332.774 224.558 333.074 224.592 333.368 224.653H333.481L333.909 224.729C334.257 224.822 334.598 224.94 334.929 225.082L335.231 225.207C336.131 225.686 336.903 226.372 337.485 227.209C337.536 227.281 337.583 227.357 337.623 227.436C337.898 227.832 338.134 228.254 338.328 228.695C338.328 228.783 338.416 228.884 338.454 228.959V229.047C338.643 229.513 338.807 230.017 338.97 230.546L339.071 230.949C339.238 231.565 339.364 232.192 339.449 232.825L339.512 233.114C339.756 234.904 339.87 236.709 339.852 238.515C339.8 243.996 339.038 249.447 337.585 254.732C336.624 258.243 336.041 261.848 335.848 265.484V265.635C335.848 266.214 335.785 266.63 335.785 267.007C335.785 269.815 336.603 271.968 338.089 273.101L338.744 273.227Z" fill="#399B8E"/>
<path d="M296.579 242.267L269.888 226.642V197.76C269.798 193.523 270.068 189.286 270.694 185.094C271.625 179.945 273.035 178.384 277.089 176.042C279.54 174.534 282.347 173.704 285.223 173.637C286.167 173.562 287.061 173.473 287.968 173.335L288.685 173.209L289.944 172.945C290.46 172.794 291.014 172.642 291.594 172.441C291.834 172.372 292.069 172.288 292.299 172.189C293.221 171.853 294.121 171.457 294.993 171.006L295.106 170.943C295.65 170.723 296.176 170.462 296.68 170.162C301.641 167.304 306.299 161.676 309.447 154.752C309.661 154.298 309.837 153.845 310.026 153.404L309.358 154.072C310.215 153.228 311.046 152.322 311.877 151.39C314.762 148.067 318.073 145.138 321.722 142.678C322.237 142.29 322.78 141.941 323.346 141.633C332.474 136.345 339.915 141.972 339.915 154.135C339.81 159.758 338.523 165.296 336.138 170.389C332.978 177.326 328.32 182.979 323.359 185.812C322.852 186.103 322.326 186.359 321.785 186.58C321.748 186.592 321.709 186.592 321.672 186.58C320.799 187.052 319.9 187.472 318.978 187.839L318.272 188.091C317.731 188.278 317.181 188.438 316.623 188.569C316.182 188.683 315.78 188.771 315.364 188.846L314.634 188.972C313.74 189.098 312.833 189.211 311.889 189.274C309.016 189.334 306.211 190.164 303.768 191.679C299.714 194.008 298.292 195.569 297.373 200.719C296.736 204.918 296.458 209.164 296.542 213.41V232.421L296.579 242.267Z" fill="#399B8E"/>
<path d="M299.035 159.788L272.217 144.277C270.643 143.32 269.926 139.341 269.926 129.345L269.812 100.639L296.605 116.112V144.969C296.605 155.041 297.448 158.881 299.047 159.775L299.035 159.788Z" fill="#399B8E"/>
<path opacity="0.2" d="M338.744 273.227L311.889 257.716C311.763 257.652 311.641 257.58 311.523 257.502C310.025 256.368 309.333 254.014 309.333 251.206C309.304 250.754 309.304 250.3 309.333 249.847V249.683C309.523 246.05 310.11 242.449 311.083 238.943C311.511 237.143 311.964 235.166 312.342 233.139L318.158 229.778L318.385 229.652L318.524 229.576L323.107 227.121L323.232 227.058C324.673 226.341 326.162 225.727 327.689 225.22H327.866L328.457 225.031C328.692 224.955 328.932 224.896 329.175 224.855H329.314C329.591 224.779 329.88 224.704 330.17 224.653L330.925 224.553C331.215 224.553 331.517 224.553 331.806 224.553C332.096 224.553 332.26 224.553 332.474 224.553C332.774 224.558 333.074 224.592 333.368 224.653H333.481L333.909 224.729C334.257 224.822 334.598 224.94 334.929 225.082L335.231 225.207C336.131 225.686 336.903 226.372 337.485 227.209C337.536 227.281 337.583 227.357 337.623 227.436C337.898 227.832 338.134 228.254 338.328 228.695C338.328 228.783 338.416 228.884 338.454 228.959V229.047C338.643 229.513 338.807 230.017 338.97 230.546L339.071 230.949C339.238 231.565 339.364 232.192 339.449 232.825L339.512 233.114C339.756 234.904 339.87 236.709 339.852 238.515C339.8 243.996 339.038 249.447 337.585 254.732C336.624 258.243 336.041 261.848 335.848 265.484V265.635C335.848 266.214 335.785 266.63 335.785 267.007C335.785 269.815 336.603 271.968 338.089 273.101L338.744 273.227Z" fill="black"/>
<path opacity="0.2" d="M296.579 242.267L269.888 226.642V197.76C269.798 193.523 270.068 189.286 270.694 185.094C271.625 179.945 273.035 178.384 277.089 176.042C279.54 174.534 282.347 173.704 285.223 173.637C286.167 173.562 287.061 173.473 287.968 173.335L288.685 173.209L289.944 172.945C290.46 172.794 291.014 172.642 291.594 172.441C291.834 172.372 292.069 172.288 292.299 172.189C293.221 171.853 294.121 171.457 294.993 171.006L295.106 170.943C295.65 170.723 296.176 170.462 296.68 170.162C301.641 167.304 306.299 161.676 309.447 154.752C309.661 154.298 309.837 153.845 310.026 153.404L309.358 154.072C310.215 153.228 311.046 152.322 311.877 151.39C314.762 148.067 318.073 145.138 321.722 142.678C322.237 142.29 322.78 141.941 323.346 141.633C332.474 136.345 339.915 141.972 339.915 154.135C339.81 159.758 338.523 165.296 336.138 170.389C332.978 177.326 328.32 182.979 323.359 185.812C322.852 186.103 322.326 186.359 321.785 186.58C321.748 186.592 321.709 186.592 321.672 186.58C320.799 187.052 319.9 187.472 318.978 187.839L318.272 188.091C317.731 188.278 317.181 188.438 316.623 188.569C316.182 188.683 315.78 188.771 315.364 188.846L314.634 188.972C313.74 189.098 312.833 189.211 311.889 189.274C309.016 189.334 306.211 190.164 303.768 191.679C299.714 194.008 298.292 195.569 297.373 200.719C296.736 204.918 296.458 209.164 296.542 213.41V232.421L296.579 242.267Z" fill="black"/>
<path opacity="0.2" d="M299.035 159.788L272.217 144.277C270.643 143.32 269.926 139.341 269.926 129.345L269.812 100.639L296.605 116.112V144.969C296.605 155.041 297.448 158.881 299.047 159.775L299.035 159.788Z" fill="black"/>
<path d="M338.946 273.353L338.744 273.239L338.316 272.962C336.831 271.829 336.012 269.676 336.012 266.869C336.012 266.491 336.012 266.075 336.075 265.496V265.345C336.268 261.709 336.851 258.105 337.813 254.593C339.266 249.308 340.027 243.857 340.079 238.377C340.097 236.57 339.983 234.765 339.739 232.975L339.676 232.686C339.592 232.053 339.465 231.426 339.298 230.81L339.198 230.407C339.034 229.878 338.87 229.375 338.681 228.909V228.821C338.681 228.745 338.606 228.644 338.556 228.556C338.362 228.115 338.126 227.693 337.85 227.297C337.81 227.218 337.764 227.143 337.712 227.071C337.131 226.234 336.358 225.547 335.458 225.069L335.156 224.943C334.825 224.801 334.484 224.684 334.136 224.59L333.708 224.515H333.595C333.301 224.453 333.002 224.419 332.701 224.414C332.487 224.414 332.26 224.414 332.034 224.414C331.807 224.414 331.442 224.414 331.152 224.414L330.397 224.515C330.107 224.515 329.818 224.641 329.541 224.716H329.402C329.159 224.757 328.919 224.816 328.685 224.892L328.093 225.081H327.917C326.389 225.588 324.9 226.202 323.46 226.92L323.334 226.982L318.751 229.438L318.612 229.513L318.386 229.639L312.569 233.001L296.579 242.267V232.409V213.398C296.493 209.156 296.767 204.914 297.398 200.719C298.317 195.57 299.74 194.008 303.794 191.679C306.236 190.165 309.041 189.334 311.914 189.274C312.859 189.274 313.765 189.098 314.659 188.972L315.389 188.846C315.805 188.771 316.208 188.683 316.648 188.569C317.206 188.438 317.756 188.278 318.298 188.091L319.003 187.839C319.925 187.473 320.824 187.052 321.697 186.58C321.734 186.592 321.774 186.592 321.81 186.58C322.352 186.36 322.877 186.103 323.384 185.812C328.345 182.929 333.003 177.326 336.163 170.389C338.548 165.296 339.835 159.758 339.94 154.135C339.94 141.973 332.5 136.345 323.372 141.633C322.806 141.941 322.263 142.29 321.747 142.678C318.098 145.138 314.788 148.067 311.902 151.39C311.033 152.322 310.202 153.228 309.384 154.072C308.053 155.405 306.594 156.603 305.028 157.648L304.461 158L303.806 158.39C303.051 158.818 302.371 159.221 301.729 159.511L301.112 159.763C300.927 159.843 300.732 159.898 300.533 159.926C300.358 159.985 300.175 160.015 299.991 160.015C299.656 160.025 299.325 159.943 299.035 159.775C297.436 158.881 296.592 155.067 296.592 144.969V116.112L269.8 100.639L352.115 53.0221C352.417 52.8584 352.694 52.6947 352.997 52.5562C353.264 52.4175 353.542 52.2997 353.828 52.2037L354.659 51.9393C354.917 51.8526 355.182 51.7894 355.452 51.7504C355.789 51.6885 356.129 51.6506 356.472 51.6371C357.853 51.5752 359.22 51.9401 360.387 52.6821L386.827 67.929C387.644 68.378 388.36 68.9909 388.929 69.7294C389.126 69.9828 389.306 70.2476 389.471 70.5226C389.59 70.7054 389.699 70.8946 389.798 71.0892C390 71.4921 390.188 71.9075 390.365 72.3482C390.428 72.5748 390.516 72.8014 390.579 73.0407C391.052 74.6764 391.277 76.3741 391.246 78.0768V187.688L369.603 200.178L369.213 200.43L368.949 200.581H368.886L364.592 203.237C362.881 204.361 361.237 205.584 359.669 206.901L359.556 206.989L359.304 207.203L358.184 208.21L358.096 208.311C357.932 208.45 357.768 208.613 357.617 208.764C357.466 208.915 356.95 209.419 356.635 209.759C356.32 210.099 356.207 210.2 356.018 210.426C355.829 210.653 355.401 211.106 355.112 211.459L354.52 212.201L353.689 213.309L353.236 213.977L353.135 214.153L353.022 214.329C352.808 214.644 352.581 214.971 352.38 215.311C352.178 215.651 352.103 215.802 351.977 216.054L351.876 216.256C351.486 216.961 351.108 217.703 350.768 218.459L350.693 218.648C350.541 218.962 350.403 219.29 350.277 219.605C350.164 219.932 350.038 220.259 349.925 220.599L349.824 220.851L349.446 222.009C349.32 222.425 349.207 222.84 349.094 223.268C348.98 223.696 348.88 224.124 348.779 224.527C348.678 224.93 348.603 225.371 348.527 225.786C348.451 226.202 348.363 226.705 348.3 227.171V227.247C348.3 227.637 348.175 228.027 348.137 228.418C348.099 228.808 348.036 229.4 347.986 229.954V230.256C347.986 230.546 347.986 230.835 347.923 231.125C347.923 231.742 347.923 232.384 347.923 233.29V233.454C347.923 233.605 347.923 233.769 347.923 233.92C347.83 238.558 348.598 243.172 350.189 247.53C351.244 250.354 351.831 253.33 351.926 256.343V256.482C351.926 256.884 351.989 257.3 352.002 257.64C352.002 263.444 348.452 270.23 344.095 272.748C343.301 273.234 342.413 273.547 341.489 273.667C341.301 273.686 341.111 273.686 340.923 273.667H340.834C340.718 273.687 340.599 273.687 340.482 273.667C340.378 273.687 340.271 273.687 340.167 273.667L339.915 273.604L339.613 273.516C339.533 273.502 339.456 273.472 339.386 273.428C339.235 273.447 339.082 273.421 338.946 273.353Z" fill="#399B8E"/>
<path opacity="0.3" d="M296.579 116.112L269.787 100.639L352.103 53.0221C352.405 52.8584 352.682 52.6947 352.984 52.5562C353.251 52.4175 353.529 52.2997 353.815 52.2037L354.646 51.9393C354.904 51.8526 355.17 51.7894 355.439 51.7504C355.776 51.6885 356.117 51.6506 356.459 51.6371C357.84 51.5752 359.207 51.9401 360.374 52.6821L386.512 67.7905C386.284 67.6711 386.043 67.5782 385.794 67.5135C385.738 67.4981 385.683 67.477 385.631 67.4506C385.402 67.3722 385.166 67.3174 384.926 67.2869H384.686C384.532 67.267 384.375 67.267 384.22 67.2869H383.767C383.73 67.2805 383.691 67.2805 383.654 67.2869C383.436 67.2679 383.217 67.2679 382.999 67.2869L382.496 67.3624C382.153 67.4045 381.816 67.4805 381.488 67.5891L380.985 67.7401L380.003 68.1304C379.625 68.3067 379.247 68.5081 378.844 68.7348L296.579 116.112Z" fill="white"/>
</g>
<mask id="mask2_114_718" style="mask-type:luminance" maskUnits="userSpaceOnUse" x="166" y="105" width="166" height="197">
<path d="M193.277 301.933L166.46 286.472L166.561 176.659C166.658 172.29 167.702 167.995 169.62 164.069C171.899 159.259 175.248 155.117 178.987 152.951L261.101 105.662L287.894 121.123V145.259V153.405L298.948 159.788C300.144 160.48 301.743 159.549 303.732 158.403C306.812 156.53 309.563 154.166 311.878 151.403C313.519 149.583 315.255 147.852 317.078 146.216L328.523 152.813C328.612 152.858 328.696 152.913 328.774 152.977C328.788 152.97 328.803 152.966 328.818 152.966C328.834 152.966 328.849 152.97 328.862 152.977C328.964 153.035 329.058 153.107 329.139 153.191C329.547 153.548 329.888 153.974 330.147 154.45C330.242 154.577 330.318 154.716 330.373 154.865C330.436 154.973 330.487 155.087 330.524 155.205C330.74 155.702 330.9 156.222 331.003 156.754C331.01 156.837 331.01 156.922 331.003 157.005C331.003 157.32 331.104 157.673 331.141 158.025C331.179 158.378 331.141 158.743 331.141 159.121C331.16 159.473 331.16 159.826 331.141 160.178C331.141 160.556 331.078 160.921 331.028 161.274C330.978 161.626 330.915 162.004 330.852 162.369C330.789 162.734 330.738 162.923 330.663 163.2C330.619 163.4 330.564 163.597 330.499 163.792C330.109 165.213 329.56 166.586 328.862 167.883C327.624 170.455 325.698 172.634 323.298 174.179C322.976 174.357 322.644 174.517 322.303 174.657H322.24C319.984 175.843 317.485 176.493 314.938 176.558C314.132 176.558 313.313 176.684 312.42 176.81L311.5 176.948C309.299 177.386 307.177 178.154 305.205 179.227C304.966 179.341 304.739 179.454 304.525 179.58L303.808 179.983C302.323 180.838 300.908 181.811 299.577 182.891L299.451 183.017C298.822 183.533 298.192 184.075 297.714 184.578L297.613 184.679C296.39 185.905 295.281 187.241 294.302 188.67C293.844 189.304 293.424 189.964 293.043 190.647L292.791 191.075C292.464 191.679 292.174 192.334 291.885 192.888V192.989C291.809 193.127 291.746 193.278 291.683 193.404C291.419 194.059 291.129 194.726 290.877 195.406L290.764 195.746C290.487 196.552 290.21 197.37 289.996 198.163C289.996 198.276 289.933 198.377 289.933 198.415C289.757 199.12 289.568 199.825 289.417 200.555C289.417 200.769 289.329 200.996 289.279 201.21V201.386C289.165 201.915 289.09 202.456 288.989 203.01C288.989 203.325 288.876 203.665 288.825 204.005C288.775 204.345 288.687 205.012 288.636 205.529V205.78C288.584 206.046 288.55 206.315 288.536 206.586C288.536 207.115 288.422 207.656 288.372 208.223V208.512C288.372 208.701 288.372 208.903 288.372 209.117V209.293L288.082 218.106V247.064L280.528 251.445L278.123 252.843L273.377 255.55L266.465 259.554C261.655 262.336 258.332 263.746 256.267 263.91C255.949 263.949 255.628 263.949 255.31 263.91C255.095 263.863 254.887 263.787 254.693 263.683L244.835 257.917C244.829 257.875 244.829 257.833 244.835 257.791C244.948 256.532 245.099 255.273 245.275 254.14C245.389 253.41 245.515 252.704 245.653 252.05C246.018 249.985 246.484 248.134 246.912 246.372C247.889 242.868 248.468 239.265 248.637 235.632V235.556V235.456C248.637 234.864 248.637 234.474 248.7 234.109C248.7 231.301 247.869 229.135 246.383 228.015C246.311 227.96 246.235 227.91 246.157 227.864L245.955 227.75L234.939 221.392C231.885 224.775 229.425 228.648 227.661 232.85C227.422 233.429 227.183 234.008 226.969 234.562C226.755 235.116 226.528 235.733 226.34 236.324L226.251 236.576C226.05 237.168 225.874 237.76 225.697 238.351C225.521 238.943 225.37 239.548 225.232 240.139C225.093 240.731 225.043 240.958 224.955 241.398C224.866 241.839 224.791 242.217 224.741 242.657C224.586 243.49 224.477 244.331 224.413 245.175C224.35 245.629 224.312 246.095 224.287 246.548C224.262 247.001 224.224 247.719 224.224 248.285C224.224 248.852 224.224 249.041 224.224 249.406C224.224 249.771 224.224 250.098 224.3 250.413C224.3 250.954 224.3 251.458 224.388 251.949C224.455 253.089 224.585 254.223 224.778 255.348C224.778 255.802 224.917 256.242 225.005 256.607C225.405 258.494 225.926 260.353 226.566 262.172C227.334 264.201 227.854 266.314 228.115 268.468V268.707V268.896V269.16C228.19 270.092 228.228 271.011 228.228 271.968C228.228 278.175 228.228 281.599 215.033 289.216L193.277 301.933Z" fill="white"/>
</mask>
<g mask="url(#mask2_114_718)">
<path d="M254.454 263.884L227.75 248.222C226.705 247.605 226.378 245.88 226.378 242.153C226.382 239.082 226.75 236.023 227.473 233.038C226.669 234.892 225.987 236.797 225.434 238.741C227.952 229.488 233.831 220.687 240.542 216.784C244.961 214.266 249.116 214.127 252.251 216.494C255.386 218.861 257.111 223.381 257.111 229.299C257.111 229.865 257.111 230.419 257.048 230.923V231.2C257.048 231.338 257.048 231.477 257.048 231.615C257.048 232.874 256.897 234.133 256.758 235.455C256.746 235.666 256.72 235.877 256.683 236.085V236.274C256.569 237.168 256.456 238.036 256.318 238.905C256.217 239.421 256.116 239.938 256.028 240.441C255.94 240.945 255.827 241.461 255.726 241.965C255.449 243.224 255.134 244.596 254.807 245.968C253.715 249.816 253.135 253.791 253.082 257.791C253.069 261.542 253.334 263.267 254.454 263.884Z" fill="#399B8E"/>
<path d="M193.277 301.932L166.46 286.472L166.561 176.671C166.649 172.302 167.693 168.004 169.62 164.081L196.387 179.529C194.418 183.508 193.348 187.871 193.252 192.309L193.277 301.932Z" fill="#399B8E"/>
<path d="M254.454 263.884L227.75 248.222C226.705 247.605 226.378 245.88 226.378 242.153C226.382 239.082 226.75 236.023 227.473 233.038C230.495 226.025 235.242 219.869 240.592 216.784C245.012 214.266 249.166 214.127 252.301 216.494C255.436 218.861 257.111 223.381 257.111 229.299C257.111 229.865 257.111 230.419 257.048 230.923V231.2C257.048 231.338 257.048 231.477 257.048 231.615C257.048 232.874 256.897 234.133 256.758 235.455C256.746 235.666 256.72 235.877 256.683 236.085V236.274C256.57 237.168 256.456 238.036 256.318 238.905C256.217 239.421 256.116 239.938 256.028 240.441C255.94 240.945 255.827 241.461 255.726 241.965C255.449 243.224 255.134 244.596 254.807 245.968C253.715 249.816 253.135 253.791 253.082 257.791C253.069 261.542 253.334 263.267 254.454 263.884Z" fill="#263238"/>
<path d="M193.277 301.932L166.46 286.472L166.561 176.671C166.649 172.302 167.693 168.004 169.62 164.081L196.387 179.529C194.418 183.508 193.348 187.871 193.252 192.309L193.277 301.932Z" fill="#263238"/>
<path d="M193.277 301.933V192.296C193.372 187.858 194.442 183.495 196.412 179.517L169.645 164.069C169.72 163.905 169.783 163.754 169.859 163.603C169.969 163.352 170.095 163.108 170.236 162.872C170.413 162.533 170.589 162.205 170.778 161.878C170.967 161.55 171.231 161.085 171.483 160.72L171.621 160.455C171.655 160.402 171.693 160.351 171.735 160.304C171.949 159.952 172.2 159.586 172.452 159.234L172.679 158.919C172.807 158.72 172.95 158.531 173.107 158.353C173.243 158.159 173.39 157.975 173.548 157.799L173.673 157.635C173.9 157.345 174.139 157.056 174.391 156.791L174.693 156.477C174.758 156.395 174.83 156.319 174.907 156.25L175.046 156.086L175.31 155.847L175.776 155.394C175.816 155.349 175.863 155.311 175.915 155.281C176.053 155.155 176.179 155.016 176.305 154.915L176.443 154.802H176.506L176.846 154.55C176.972 154.437 177.111 154.349 177.236 154.248C177.362 154.147 177.488 154.047 177.614 153.946C177.764 153.832 177.919 153.727 178.08 153.631C178.354 153.419 178.644 153.23 178.949 153.065L261.075 105.775L287.868 121.249V145.372L288.258 144.969C290.417 142.438 292.912 140.214 295.674 138.359H295.774C296.033 138.164 296.302 137.984 296.58 137.818C297.331 137.298 298.215 137.004 299.127 136.971C300.04 136.937 300.943 137.166 301.73 137.629L328.434 153.052C328.578 153.124 328.713 153.213 328.837 153.316L329.063 153.493C329.992 154.36 330.626 155.495 330.876 156.741C330.952 157.056 331.015 157.396 331.065 157.736C331.138 158.295 331.172 158.859 331.166 159.423C331.098 162.48 330.308 165.478 328.862 168.173C327.617 170.744 325.687 172.922 323.284 174.468C322.962 174.654 322.63 174.822 322.29 174.972H322.227C319.971 176.159 317.472 176.809 314.924 176.873C310.957 177.018 307.097 178.204 303.731 180.31C302.246 181.158 300.835 182.131 299.514 183.218L299.363 183.332C298.746 183.848 298.104 184.377 297.625 184.906L297.55 184.994C296.32 186.209 295.211 187.542 294.238 188.972C293.823 189.589 293.42 190.231 292.979 190.949L292.79 191.289V191.39C292.463 191.969 292.161 192.649 291.871 193.203V193.291C291.803 193.429 291.744 193.572 291.695 193.719C291.405 194.361 291.141 194.978 290.889 195.721L290.763 196.048C290.474 196.854 290.209 197.685 289.995 198.465L289.932 198.73C289.744 199.422 289.567 200.14 289.416 200.87C289.416 201.072 289.316 201.298 289.278 201.512V201.688C289.177 202.23 289.089 202.759 288.988 203.313C288.988 203.627 288.875 203.967 288.837 204.295C288.799 204.622 288.686 205.314 288.623 205.843V206.095C288.623 206.347 288.56 206.611 288.547 206.888C288.547 207.417 288.434 207.971 288.396 208.512V208.802C288.396 209.003 288.396 209.205 288.333 209.406V209.595L288.044 218.408V247.366L280.49 251.76L273.351 255.877L266.439 259.868C261.642 262.651 258.293 264.061 256.253 264.212C256.094 264.224 255.934 264.224 255.775 264.212C255.385 264.208 255.001 264.113 254.654 263.935C253.584 263.318 253.269 261.593 253.269 257.841C253.322 253.842 253.902 249.867 254.994 246.019C255.322 244.647 255.636 243.312 255.913 242.015C256.014 241.512 256.127 241.008 256.216 240.492C256.304 239.976 256.404 239.472 256.505 238.956C256.644 238.087 256.757 237.218 256.87 236.324V236.136C256.908 235.927 256.933 235.717 256.946 235.506C257.084 234.184 257.185 232.988 257.235 231.666C257.235 231.527 257.235 231.389 257.235 231.251V230.936C257.235 230.432 257.311 229.878 257.298 229.312C257.298 223.407 255.586 218.862 252.451 216.495C249.316 214.128 245.161 214.216 240.742 216.784C235.391 219.869 230.67 226.026 227.623 233.038C227.001 234.423 226.463 235.844 226.011 237.294C225.86 237.772 225.709 238.263 225.583 238.742C225.457 239.22 225.281 239.887 225.143 240.467C225.103 240.563 225.077 240.665 225.067 240.769C224.941 241.323 224.828 241.889 224.74 242.443C224.523 243.639 224.368 244.845 224.274 246.057C224.249 246.417 224.249 246.779 224.274 247.139C224.274 247.568 224.274 247.996 224.274 248.399C224.274 249.141 224.274 249.922 224.362 250.526C224.484 254.559 225.254 258.547 226.641 262.336C227.403 264.366 227.923 266.479 228.19 268.631V268.883V268.959V269.059C228.183 269.147 228.183 269.236 228.19 269.324C228.252 270.255 228.303 271.174 228.303 272.131C228.303 278.338 228.303 281.763 215.121 289.38L193.277 301.933Z" fill="#37474F"/>
<path d="M301.869 137.364L328.573 152.787C327.754 152.38 326.84 152.204 325.928 152.277C325.016 152.35 324.142 152.67 323.398 153.203C323.172 153.329 322.882 153.53 322.593 153.732L322.504 153.82H322.442C319.678 155.672 317.182 157.896 315.026 160.43C311.818 164.157 308.04 167.352 303.833 169.898L303.304 170.187L303.103 170.288L302.952 170.364C302.549 170.578 302.159 170.804 301.793 170.981L301.088 171.283L300.849 171.371L300.711 171.446L299.829 171.774C299.567 171.877 299.298 171.961 299.024 172.026H298.923L298.029 172.24C297.727 172.315 297.45 172.328 297.16 172.378H296.329C296.065 172.378 295.8 172.378 295.549 172.378C295.297 172.378 295.058 172.29 294.818 172.252C294.578 172.206 294.342 172.138 294.113 172.051C293.891 171.975 293.676 171.878 293.471 171.761H293.358C293.172 171.671 292.991 171.57 292.817 171.459C292.646 171.338 292.486 171.203 292.338 171.056L292.237 170.981L292.137 170.88C291.998 170.766 291.847 170.628 291.709 170.49C291.548 170.3 291.396 170.103 291.255 169.898L291.18 169.784C290.9 169.382 290.648 168.961 290.424 168.525L290.349 168.362C290.24 168.171 290.143 167.973 290.059 167.77C289.971 167.556 289.87 167.292 289.782 167.04V166.863V166.712C289.707 166.486 289.619 166.284 289.543 166.033C289.467 165.781 289.367 165.353 289.279 165C289.191 164.648 289.115 164.396 289.065 164.081C289.014 163.766 288.914 163.326 288.851 162.923C288.788 162.52 288.737 162.268 288.687 161.941C288.637 161.613 288.586 161.097 288.536 160.682C288.485 160.266 288.46 159.989 288.422 159.637C288.385 159.284 288.334 158.718 288.309 158.227C288.309 157.975 288.309 157.673 288.309 157.383V157.005C288.309 156.565 288.309 156.099 288.234 155.62V155.431L288.146 150.395V145.183C288.259 145.044 288.397 144.919 288.511 144.793C290.67 142.262 293.165 140.038 295.926 138.183H295.989L296.09 138.107C296.342 137.914 296.607 137.737 296.883 137.578C297.616 137.093 298.468 136.816 299.346 136.778C300.225 136.741 301.097 136.943 301.869 137.364Z" fill="black"/>
<path d="M196.426 179.529L169.634 164.056C169.709 163.892 169.772 163.754 169.86 163.603C169.971 163.352 170.097 163.108 170.238 162.872C170.414 162.532 170.591 162.205 170.779 161.878C170.968 161.55 171.233 161.085 171.485 160.719C171.556 160.574 171.641 160.435 171.736 160.304C171.95 159.951 172.202 159.586 172.454 159.234L172.681 158.919C172.809 158.72 172.952 158.53 173.109 158.352C173.284 158.102 173.473 157.863 173.675 157.635C173.902 157.345 174.141 157.056 174.393 156.791L174.695 156.476C174.76 156.395 174.831 156.319 174.909 156.25L175.312 155.847L175.778 155.394C175.818 155.349 175.865 155.311 175.916 155.28C176.08 155.108 176.257 154.948 176.445 154.802H176.508L176.848 154.55C177.093 154.335 177.349 154.133 177.616 153.946C177.765 153.832 177.921 153.727 178.082 153.631C178.356 153.419 178.646 153.23 178.951 153.065L261.065 105.763L287.857 121.236L251.76 142.073L205.63 168.727C205.277 168.928 204.937 169.142 204.597 169.369C204.257 169.596 203.968 169.822 203.678 170.074C203.508 170.186 203.348 170.312 203.2 170.452C202.897 170.691 202.595 170.981 202.306 171.258C202.016 171.535 201.601 171.95 201.261 172.303C200.504 173.129 199.801 174.004 199.158 174.921C198.906 175.274 198.654 175.626 198.415 176.004C197.678 177.136 197.014 178.313 196.426 179.529Z" fill="#455A64"/>
</g>
<path d="M156.953 206.662C158.265 206.737 159.56 206.33 160.592 205.516C163.374 203.363 165.452 203.539 168.436 202.255C170.777 201.235 171.722 199.989 172.213 200.417C172.701 200.958 172.966 201.664 172.954 202.393C172.942 203.122 172.655 203.819 172.15 204.345C171.25 205.392 170.207 206.308 169.053 207.064C171.82 206.893 174.549 206.333 177.161 205.403C183.456 203.262 186.44 204.144 183.582 212.138C181.794 217.174 177.287 219.944 164.936 219.693C160.371 219.385 155.833 218.771 151.351 217.854C139.125 215.45 114.511 211.761 110.218 205.982C98.0683 189.614 86.9259 176.117 85.3899 163.905C84.1309 153.656 90.426 147.928 96.2553 147.928C99.5666 151.415 101.581 155.57 104.628 165.353C104.628 165.353 120.441 193.668 122.04 195.733C126.019 197.911 154.36 206.246 156.953 206.662Z" fill="#F9C7C7"/>
<path d="M385.304 101.759C387.432 103.018 389.711 103.559 392.544 105.624C394.375 107.196 396.562 108.298 398.915 108.835C401.949 109.578 425.833 101.507 430.252 98.0952C439.254 91.158 447.022 78.1018 451.353 73.1538C454.916 69.0745 458.907 62.9305 463.352 62.9053C470.616 65.096 468.98 75.8985 462.899 85.5678C457.862 93.6131 448.319 103.773 437.517 110.862C432.279 114.299 408.143 120.531 400.123 121.06C397.693 121.211 395.893 121.765 391.31 122.42C389.405 122.806 387.454 122.912 385.518 122.734C383.143 122.365 380.832 121.657 378.657 120.632C375.896 119.344 373.531 117.34 371.808 114.828C370.867 113.446 370.264 111.864 370.045 110.207C369.825 108.538 370.209 106.846 371.128 105.435C371.3 105.141 371.548 104.898 371.845 104.73C372.431 104.54 373.068 104.585 373.621 104.856C376.844 105.977 380.142 107.664 383.454 108.432C386.249 109.074 388.314 109.15 388.037 108.646C387.76 108.142 386.098 107.865 384.197 106.254C382.295 104.642 381.515 102.099 382.459 101.142C383.403 100.185 383.189 100.45 385.304 101.759Z" fill="#F9C7C7"/>
<path d="M463.817 60.3494C469.181 62.9808 471.372 66.9845 468.979 75.8985C466.839 83.9059 458.63 97.5664 452.171 104.252C452.171 104.252 441.117 99.0143 435.237 92.2029C441.054 83.3016 443.862 78.064 449.326 70.5224C454.79 62.9808 460.544 59.4555 463.817 60.3494Z" fill="#E0E0E0"/>
</svg>
