<svg width="623" height="561" viewBox="0 0 623 561" fill="none" xmlns="http://www.w3.org/2000/svg">
<path d="M581.647 231.978C599.986 231.069 614.115 215.464 613.206 197.125C612.296 178.786 596.692 164.657 578.352 165.567C560.013 166.476 545.884 182.081 546.794 200.42C547.704 218.759 563.308 232.888 581.647 231.978Z" fill="#EBEBEB"/>
<path fill-rule="evenodd" clip-rule="evenodd" d="M575.486 211.96C574.605 211.413 573.844 210.625 572.656 210.719C572.216 210.719 572.309 210.385 572.309 210.145C572.309 205.696 572.309 201.269 572.309 196.865C572.309 196.531 572.309 196.278 572.683 196.091C576.06 194.396 577.528 191.032 579.596 188.163C580.659 186.738 581.424 185.114 581.845 183.387C582.267 181.661 582.338 179.867 582.052 178.113C581.919 177.125 582.386 176.671 583.28 176.471C583.731 176.315 584.22 176.309 584.674 176.453C585.129 176.598 585.524 176.885 585.803 177.272C586.773 179.078 587.428 181.037 587.738 183.064C587.726 184.742 587.52 186.413 587.124 188.043C586.964 189.257 586.684 190.458 586.457 191.7C586.75 191.913 587.097 191.793 587.418 191.807H598.629C600.217 191.807 600.978 192.26 601.205 193.301C601.324 193.946 601.23 194.611 600.936 195.197C600.642 195.782 600.165 196.256 599.576 196.545C599.296 196.691 598.789 196.545 598.749 196.998C598.709 197.452 599.243 197.399 599.496 197.586C600.831 198.507 600.604 200.429 599.029 201.59C598.656 201.857 597.921 201.737 597.908 202.284C597.895 202.831 598.589 202.724 598.896 203.031C599.136 203.343 599.301 203.706 599.377 204.092C599.453 204.479 599.438 204.877 599.333 205.257C599.228 205.636 599.036 205.986 598.773 206.278C598.509 206.571 598.181 206.798 597.815 206.942C597.586 207.01 597.363 207.095 597.147 207.195C596.961 207.315 596.787 207.462 597.147 207.716C597.531 207.892 597.856 208.174 598.083 208.528C598.311 208.883 598.432 209.296 598.432 209.718C598.432 210.14 598.311 210.552 598.083 210.907C597.856 211.262 597.531 211.544 597.147 211.72L596.667 212.08C596.071 212.431 595.379 212.581 594.692 212.507H577.034C576.752 212.526 576.47 212.487 576.203 212.393C575.937 212.299 575.693 212.152 575.486 211.96Z" fill="#C35899"/>
<path fill-rule="evenodd" clip-rule="evenodd" d="M558.802 204.152C558.802 201.336 558.802 198.52 558.802 195.704C558.802 195.143 558.802 194.863 559.562 194.863C562.997 194.863 566.427 194.863 569.853 194.863C570.534 194.863 570.627 195.09 570.627 195.69C570.627 201.349 570.627 207.008 570.627 212.681C570.627 213.401 570.44 213.602 569.719 213.588C566.383 213.588 563.055 213.588 559.736 213.588C558.909 213.588 558.788 213.308 558.802 212.574C558.828 209.811 558.802 206.968 558.802 204.152Z" fill="#C35899"/>
<path d="M198.214 137.552H45.834V39.8535H198.214V137.552ZM47.1687 136.217H196.879V41.1882H47.1687V136.217Z" fill="#EBEBEB"/>
<path d="M198.214 54.0011H45.834V39.8535H198.214V54.0011ZM47.1687 52.6664H196.879V41.1882H47.1687V52.6664Z" fill="#EBEBEB"/>
<path d="M58.5126 46.9804C58.5126 47.6198 58.3228 48.2448 57.9673 48.7763C57.6118 49.3077 57.1066 49.7217 56.5156 49.9657C55.9246 50.2098 55.2745 50.273 54.6476 50.1473C54.0207 50.0216 53.4452 49.7126 52.994 49.2596C52.5429 48.8065 52.2363 48.2298 52.1132 47.6023C51.9901 46.9749 52.0559 46.3251 52.3024 45.7351C52.549 45.1452 52.965 44.6416 53.4979 44.2883C54.0308 43.9351 54.6566 43.7479 55.296 43.7505C55.7195 43.7505 56.1389 43.8342 56.53 43.9966C56.9211 44.1591 57.2763 44.3972 57.5752 44.6973C57.8741 44.9974 58.1107 45.3536 58.2716 45.7454C58.4324 46.1372 58.5143 46.5569 58.5126 46.9804Z" fill="#C7C7C7"/>
<path d="M71.6597 46.9804C71.657 47.616 71.4661 48.2366 71.1111 48.7638C70.7561 49.291 70.2528 49.7012 69.6648 49.9426C69.0768 50.184 68.4305 50.2458 67.8074 50.1202C67.1844 49.9946 66.6125 49.6872 66.164 49.2368C65.7155 48.7864 65.4104 48.2133 65.2874 47.5897C65.1644 46.9661 65.2288 46.32 65.4727 45.7331C65.7165 45.1461 66.1288 44.6445 66.6575 44.2917C67.1861 43.9388 67.8075 43.7505 68.4431 43.7505C68.8666 43.7505 69.286 43.8341 69.6771 43.9966C70.0682 44.1591 70.4234 44.3972 70.7223 44.6973C71.0212 44.9974 71.2578 45.3536 71.4187 45.7454C71.5795 46.1372 71.6614 46.5569 71.6597 46.9804Z" fill="#EBEBEB"/>
<path d="M81.6013 50.2373C83.3778 50.2373 84.8179 48.7972 84.8179 47.0208C84.8179 45.2443 83.3778 43.8042 81.6013 43.8042C79.8249 43.8042 78.3848 45.2443 78.3848 47.0208C78.3848 48.7972 79.8249 50.2373 81.6013 50.2373Z" fill="#16B99B"/>
<path d="M33.8746 257.192C32.3149 250.805 32.6844 244.098 34.9364 237.92C37.1884 231.742 41.2217 226.371 46.5263 222.485C51.8309 218.6 58.1686 216.374 64.7379 216.091C71.3072 215.807 77.8132 217.477 83.4331 220.891C89.0529 224.305 93.5344 229.308 96.3106 235.269C99.0869 241.23 100.033 247.88 99.0302 254.378C98.0271 260.877 95.1196 266.932 90.6752 271.778C86.2309 276.624 80.4493 280.043 74.0617 281.604C69.82 282.641 65.4154 282.833 61.0996 282.168C56.7838 281.503 52.6414 279.993 48.9092 277.726C45.177 275.459 41.9282 272.479 39.3485 268.955C36.7687 265.432 34.9087 261.435 33.8746 257.192Z" fill="#EBEBEB"/>
<path d="M83.1366 253.455C78.1182 263.585 66.1595 269.591 66.1595 269.591C66.1595 269.591 54.1475 263.585 49.1958 253.455C45.0183 245.007 47.6609 235.877 54.2676 233.875C63.7304 231.019 66.1595 247.503 66.1595 247.503C66.1595 247.503 68.5887 231.019 78.0649 233.875C84.6715 235.877 87.3141 245.007 83.1366 253.455Z" fill="#C35899"/>
<path d="M498.114 62.1825C492.856 65.4175 486.803 67.1303 480.63 67.1303C474.456 67.1303 468.403 65.4175 463.145 62.1825C456.993 58.3788 452.25 52.6726 449.634 45.9293C447.018 39.1861 446.672 31.7736 448.649 24.8162C450.626 17.8588 454.818 11.7359 460.59 7.37616C466.361 3.01644 473.397 0.657715 480.63 0.657715C487.862 0.657715 494.898 3.01644 500.669 7.37616C506.441 11.7359 510.633 17.8588 512.61 24.8162C514.587 31.7736 514.242 39.1861 511.626 45.9293C509.01 52.6726 504.266 58.3788 498.114 62.1825Z" fill="#EBEBEB"/>
<path d="M480.63 40.2137C486.218 40.2137 490.747 35.6842 490.747 30.0968C490.747 24.5094 486.218 19.98 480.63 19.98C475.043 19.98 470.514 24.5094 470.514 30.0968C470.514 35.6842 475.043 40.2137 480.63 40.2137Z" fill="#C35899"/>
<path d="M498.115 58.0053V62.1828C492.857 65.4177 486.804 67.1305 480.631 67.1305C474.457 67.1305 468.405 65.4177 463.146 62.1828V58.0053C463.146 53.3681 464.989 48.921 468.267 45.642C471.546 42.3631 475.994 40.521 480.631 40.521C485.268 40.521 489.715 42.3631 492.994 45.642C496.273 48.921 498.115 53.3681 498.115 58.0053Z" fill="#C35899"/>
<path d="M62.877 483.18L124.939 482.859L187.015 482.739L311.14 482.512L435.265 482.739L497.341 482.859L559.403 483.18L497.341 483.5L435.265 483.62L311.14 483.847L187.015 483.62L124.939 483.5L62.877 483.18Z" fill="#263238"/>
<path d="M173.202 560.07C257.101 560.07 325.115 550.276 325.115 538.195C325.115 526.113 257.101 516.319 173.202 516.319C89.3027 516.319 21.2891 526.113 21.2891 538.195C21.2891 550.276 89.3027 560.07 173.202 560.07Z" fill="#EBEBEB"/>
<path d="M462.999 560.07C546.898 560.07 614.912 550.276 614.912 538.195C614.912 526.113 546.898 516.319 462.999 516.319C379.1 516.319 311.086 526.113 311.086 538.195C311.086 550.276 379.1 560.07 462.999 560.07Z" fill="#EBEBEB"/>
<path d="M537.82 81.5352H90.0098V414.79H537.82V81.5352Z" fill="#37474F"/>
<path d="M515.211 103.21H112.633V342.518H515.211V103.21Z" fill="white"/>
<path d="M537.82 365.634H90.0098V414.79H537.82V365.634Z" fill="#C7C7C7"/>
<path d="M409.425 474.864H218.42V490.827H409.425V474.864Z" fill="#37474F"/>
<path d="M386.668 474.877H241.162L244.859 447.17L245.033 445.862L245.38 443.272L245.553 441.964L245.9 439.362L245.954 438.961L246.074 438.054L246.434 435.451L246.594 434.157L249.184 414.804H378.647L381.076 433.049L381.21 433.93L381.61 436.959L381.717 437.84L381.877 438.961L382.131 440.87L382.237 441.737L382.638 444.781L382.771 445.648L386.668 474.877Z" fill="#C7C7C7"/>
<path d="M515.211 103.21H112.633V116.157H515.211V103.21Z" fill="#263238"/>
<path d="M122.949 109.71C122.949 110.347 122.76 110.969 122.406 111.499C122.052 112.028 121.549 112.44 120.96 112.683C120.371 112.926 119.724 112.989 119.1 112.864C118.475 112.739 117.902 112.431 117.453 111.98C117.004 111.529 116.698 110.954 116.576 110.33C116.453 109.705 116.519 109.058 116.764 108.47C117.01 107.883 117.424 107.381 117.955 107.029C118.486 106.677 119.109 106.491 119.746 106.494C120.167 106.494 120.585 106.577 120.974 106.739C121.364 106.901 121.718 107.138 122.015 107.437C122.313 107.735 122.549 108.09 122.709 108.48C122.869 108.871 122.951 109.288 122.949 109.71Z" fill="#C7C7C7"/>
<path d="M136.015 109.71C136.015 110.347 135.826 110.969 135.472 111.499C135.118 112.028 134.615 112.44 134.026 112.683C133.438 112.926 132.79 112.989 132.166 112.864C131.542 112.739 130.969 112.431 130.519 111.98C130.07 111.529 129.765 110.954 129.642 110.33C129.52 109.705 129.585 109.058 129.831 108.47C130.076 107.883 130.491 107.381 131.021 107.029C131.552 106.677 132.175 106.491 132.812 106.494C133.234 106.494 133.651 106.577 134.041 106.739C134.43 106.901 134.784 107.138 135.082 107.437C135.379 107.735 135.615 108.09 135.775 108.48C135.935 108.871 136.017 109.288 136.015 109.71Z" fill="white"/>
<path d="M149.136 109.71C149.136 110.346 148.948 110.968 148.594 111.497C148.241 112.026 147.738 112.438 147.151 112.682C146.563 112.925 145.916 112.989 145.292 112.865C144.668 112.741 144.095 112.435 143.645 111.985C143.195 111.535 142.889 110.962 142.765 110.338C142.641 109.714 142.705 109.067 142.948 108.479C143.191 107.892 143.604 107.389 144.133 107.036C144.662 106.682 145.284 106.494 145.92 106.494C146.773 106.494 147.591 106.833 148.194 107.436C148.797 108.039 149.136 108.857 149.136 109.71Z" fill="#16B99B"/>
<path d="M321.882 386.909C321.879 388.515 321.4 390.084 320.505 391.418C319.61 392.751 318.339 393.789 316.854 394.4C315.369 395.011 313.735 395.168 312.161 394.85C310.587 394.532 309.142 393.754 308.01 392.615C306.878 391.475 306.11 390.026 305.802 388.449C305.495 386.873 305.662 385.241 306.283 383.759C306.904 382.278 307.95 381.014 309.289 380.128C310.629 379.242 312.201 378.773 313.807 378.781C315.955 378.791 318.011 379.653 319.524 381.176C321.038 382.7 321.886 384.761 321.882 386.909Z" fill="#37474F"/>
<path d="M381.877 438.961H245.953L246.073 438.054L246.434 435.451L246.594 434.157L249.183 414.804H378.647L381.076 433.049L381.209 433.93L381.61 436.959L381.716 437.84L381.877 438.961Z" fill="#A6A6A6"/>
<path d="M515.211 116.143H112.633V169.784H515.211V116.143Z" fill="#C35899"/>
<path d="M491.907 321.457H329.236V207.142H491.907V321.457ZM330.571 320.122H490.572V208.476H330.571V320.122Z" fill="#EBEBEB"/>
<path d="M328.907 206.131L328.146 207.225L489.652 319.491L490.413 318.397L328.907 206.131Z" fill="#EBEBEB"/>
<path d="M330.292 321.336L329.518 320.242C331.066 319.161 484.5 212.053 490.84 207.275L491.641 208.343C485.288 213.134 331.84 320.255 330.292 321.336Z" fill="#EBEBEB"/>
<path d="M390.298 116.143H237.531V162.99H390.298V116.143Z" fill="#263238"/>
<path d="M300.381 184.532H194.395V186.694H300.381V184.532Z" fill="#EBEBEB"/>
<path d="M276.304 189.978H194.395V192.14H276.304V189.978Z" fill="#EBEBEB"/>
<path d="M294.028 195.423H194.395V197.586H294.028V195.423Z" fill="#EBEBEB"/>
<path d="M302.744 200.869H194.395V203.031H302.744V200.869Z" fill="#EBEBEB"/>
<path d="M250.571 206.314H194.395V208.476H250.571V206.314Z" fill="#EBEBEB"/>
<path d="M300.715 211.773H194.395V213.935H300.715V211.773Z" fill="#EBEBEB"/>
<path d="M282.897 217.218H194.395V219.38H282.897V217.218Z" fill="#EBEBEB"/>
<path d="M305.64 222.664H194.395V224.826H305.64V222.664Z" fill="#EBEBEB"/>
<path d="M300.715 228.109H194.395V230.272H300.715V228.109Z" fill="#EBEBEB"/>
<path d="M305.64 233.555H194.395V235.717H305.64V233.555Z" fill="#EBEBEB"/>
<path d="M152.219 130.812H136.59V132.974H152.219V130.812Z" fill="white"/>
<path d="M152.219 136.257H136.59V138.419H152.219V136.257Z" fill="white"/>
<path d="M152.219 141.702H136.59V143.864H152.219V141.702Z" fill="white"/>
<path d="M491.24 184.532H329.904V196.504H491.24V184.532Z" fill="#16B99B"/>
<path d="M187.775 184.519H136.59V235.717H187.775V184.519Z" fill="#A6A6A6"/>
<path d="M162.189 210.118C167.297 210.118 171.438 205.977 171.438 200.868C171.438 195.76 167.297 191.619 162.189 191.619C157.08 191.619 152.939 195.76 152.939 200.868C152.939 205.977 157.08 210.118 162.189 210.118Z" fill="white"/>
<path d="M178.179 226.401V235.744H146.146V226.401C146.146 222.153 147.834 218.079 150.838 215.076C153.841 212.072 157.915 210.385 162.163 210.385C166.41 210.385 170.484 212.072 173.488 215.076C176.491 218.079 178.179 222.153 178.179 226.401Z" fill="white"/>
<path d="M269.496 152.22V142.877C269.494 142.762 269.516 142.648 269.558 142.541C269.601 142.434 269.665 142.337 269.746 142.255C269.826 142.173 269.922 142.108 270.029 142.063C270.135 142.019 270.249 141.996 270.364 141.996H272.619C273.419 141.996 274.187 142.314 274.752 142.88C275.318 143.445 275.636 144.212 275.636 145.012C275.637 145.669 275.421 146.307 275.022 146.828C275.649 147.216 276.133 147.798 276.399 148.486C276.666 149.174 276.701 149.93 276.498 150.64C276.296 151.35 275.868 151.974 275.278 152.418C274.689 152.862 273.971 153.102 273.233 153.101H270.364C270.249 153.101 270.135 153.078 270.029 153.033C269.922 152.989 269.826 152.924 269.746 152.842C269.665 152.76 269.601 152.663 269.558 152.556C269.516 152.449 269.494 152.335 269.496 152.22ZM271.245 146.28H272.579C272.919 146.26 273.238 146.11 273.472 145.862C273.705 145.614 273.835 145.286 273.834 144.946C273.834 144.613 273.702 144.294 273.466 144.059C273.231 143.823 272.912 143.691 272.579 143.691H271.245V146.28ZM271.245 151.325H273.233C273.448 151.325 273.661 151.283 273.86 151.2C274.058 151.118 274.238 150.996 274.389 150.844C274.541 150.691 274.66 150.51 274.742 150.311C274.823 150.112 274.863 149.899 274.862 149.684C274.862 149.251 274.69 148.835 274.385 148.528C274.081 148.22 273.666 148.046 273.233 148.042H271.245V151.325Z" fill="white"/>
<path d="M278.92 152.22V142.877C278.919 142.762 278.94 142.648 278.983 142.541C279.025 142.434 279.089 142.337 279.17 142.255C279.25 142.173 279.347 142.108 279.453 142.063C279.559 142.019 279.673 141.996 279.788 141.996C280.021 141.996 280.246 142.089 280.411 142.254C280.576 142.419 280.669 142.643 280.669 142.877V151.339H284.98C285.212 151.346 285.433 151.443 285.595 151.61C285.757 151.777 285.847 152 285.847 152.233C285.844 152.462 285.751 152.681 285.589 152.843C285.427 153.005 285.209 153.097 284.98 153.101H279.788C279.672 153.102 279.558 153.081 279.451 153.037C279.344 152.993 279.247 152.928 279.166 152.846C279.084 152.764 279.021 152.666 278.979 152.558C278.937 152.45 278.917 152.335 278.92 152.22Z" fill="white"/>
<path d="M295.964 143.371C296.989 144.452 297.561 145.885 297.561 147.375C297.561 148.865 296.989 150.298 295.964 151.379C295.483 151.907 294.898 152.33 294.246 152.622C293.593 152.914 292.888 153.067 292.173 153.074C291.445 153.072 290.724 152.92 290.056 152.628C289.388 152.337 288.787 151.912 288.29 151.379C287.282 150.289 286.723 148.859 286.723 147.375C286.723 145.891 287.282 144.461 288.29 143.371C288.783 142.834 289.384 142.406 290.053 142.114C290.722 141.822 291.444 141.673 292.173 141.676C292.889 141.676 293.596 141.827 294.25 142.119C294.903 142.411 295.487 142.838 295.964 143.371ZM295.764 147.375C295.761 146.347 295.375 145.358 294.683 144.599C294.361 144.246 293.97 143.964 293.533 143.771C293.096 143.578 292.624 143.478 292.147 143.478C291.669 143.478 291.197 143.578 290.761 143.771C290.324 143.964 289.932 144.246 289.611 144.599C288.907 145.351 288.52 146.345 288.53 147.375C288.523 148.4 288.91 149.389 289.611 150.138C289.928 150.498 290.318 150.787 290.755 150.985C291.192 151.182 291.667 151.285 292.147 151.285C292.627 151.285 293.101 151.182 293.538 150.985C293.976 150.787 294.366 150.498 294.683 150.138C295.384 149.389 295.77 148.4 295.764 147.375Z" fill="white"/>
<path d="M300.207 147.401C300.214 146.641 300.371 145.89 300.669 145.191C300.966 144.491 301.399 143.858 301.942 143.326C302.485 142.794 303.128 142.374 303.833 142.091C304.539 141.808 305.293 141.667 306.053 141.676C307.362 141.672 308.634 142.104 309.67 142.904C309.776 142.971 309.868 143.061 309.938 143.166C310.008 143.271 310.055 143.389 310.076 143.514C310.098 143.638 310.093 143.766 310.063 143.888C310.033 144.011 309.977 144.126 309.899 144.225C309.822 144.325 309.725 144.408 309.614 144.468C309.502 144.528 309.38 144.564 309.254 144.574C309.128 144.584 309.002 144.567 308.883 144.526C308.763 144.484 308.654 144.418 308.562 144.332C307.842 143.78 306.96 143.48 306.053 143.478C305.524 143.473 304.999 143.573 304.509 143.772C304.018 143.971 303.572 144.266 303.197 144.639C302.822 144.991 302.524 145.416 302.32 145.887C302.116 146.359 302.01 146.867 302.01 147.381C302.01 147.895 302.116 148.404 302.32 148.876C302.524 149.347 302.822 149.772 303.197 150.124C303.572 150.497 304.018 150.791 304.509 150.991C304.999 151.19 305.524 151.29 306.053 151.285C306.818 151.276 307.567 151.069 308.228 150.685V148.509H305.959C305.72 148.506 305.491 148.409 305.322 148.24C305.152 148.07 305.055 147.841 305.052 147.602C305.052 147.484 305.075 147.367 305.121 147.258C305.167 147.15 305.235 147.051 305.319 146.969C305.404 146.887 305.504 146.823 305.614 146.78C305.724 146.737 305.842 146.717 305.959 146.721H309.123C309.241 146.717 309.358 146.737 309.468 146.78C309.578 146.823 309.678 146.887 309.763 146.969C309.848 147.051 309.915 147.15 309.961 147.258C310.007 147.367 310.03 147.484 310.03 147.602V151.085C310.038 151.174 310.038 151.263 310.03 151.352V151.432C309.97 151.589 309.863 151.724 309.723 151.819C308.692 152.617 307.424 153.049 306.12 153.047C305.36 153.067 304.604 152.936 303.896 152.662C303.187 152.389 302.539 151.978 301.99 151.453C301.44 150.929 301 150.301 300.694 149.605C300.388 148.91 300.223 148.161 300.207 147.401Z" fill="white"/>
<path d="M322.083 148.776H320.121V152.22C320.121 152.453 320.028 152.677 319.863 152.842C319.698 153.008 319.474 153.1 319.24 153.1C319.007 153.1 318.783 153.008 318.617 152.842C318.452 152.677 318.359 152.453 318.359 152.22V142.877C318.359 142.643 318.452 142.419 318.617 142.254C318.783 142.089 319.007 141.996 319.24 141.996H322.083C322.547 141.967 323.012 142.033 323.449 142.191C323.887 142.348 324.287 142.594 324.626 142.912C324.965 143.23 325.235 143.615 325.42 144.041C325.604 144.468 325.7 144.928 325.7 145.393C325.7 145.858 325.604 146.318 325.42 146.744C325.235 147.171 324.965 147.555 324.626 147.873C324.287 148.192 323.887 148.437 323.449 148.595C323.012 148.752 322.547 148.819 322.083 148.789V148.776ZM320.121 147.081H322.083C322.31 147.102 322.539 147.075 322.755 147.002C322.971 146.929 323.17 146.812 323.338 146.658C323.507 146.504 323.641 146.317 323.733 146.108C323.825 145.9 323.873 145.674 323.873 145.446C323.873 145.218 323.825 144.992 323.733 144.784C323.641 144.575 323.507 144.388 323.338 144.234C323.17 144.08 322.971 143.963 322.755 143.89C322.539 143.818 322.31 143.791 322.083 143.811H320.121V147.081Z" fill="white"/>
<path d="M336.364 143.371C337.389 144.452 337.961 145.885 337.961 147.375C337.961 148.865 337.389 150.298 336.364 151.379C335.883 151.907 335.298 152.33 334.646 152.622C333.994 152.913 333.288 153.067 332.574 153.074C331.845 153.071 331.125 152.92 330.457 152.628C329.789 152.337 329.187 151.912 328.69 151.379C327.683 150.289 327.123 148.859 327.123 147.375C327.123 145.891 327.683 144.461 328.69 143.371C329.187 142.838 329.789 142.413 330.457 142.121C331.125 141.83 331.845 141.678 332.574 141.676C333.289 141.676 333.997 141.827 334.65 142.119C335.303 142.411 335.887 142.838 336.364 143.371ZM336.164 147.375C336.161 146.347 335.776 145.358 335.083 144.599C334.762 144.246 334.37 143.964 333.933 143.771C333.497 143.578 333.025 143.478 332.547 143.478C332.07 143.478 331.598 143.578 331.161 143.771C330.724 143.964 330.333 144.246 330.011 144.599C329.307 145.351 328.92 146.345 328.93 147.375C328.924 148.4 329.31 149.389 330.011 150.138C330.328 150.498 330.718 150.787 331.156 150.985C331.593 151.182 332.067 151.285 332.547 151.285C333.027 151.285 333.502 151.182 333.939 150.985C334.376 150.787 334.766 150.498 335.083 150.138C335.784 149.389 336.171 148.4 336.164 147.375Z" fill="white"/>
<path d="M340.662 150.338C340.8 150.168 341 150.061 341.218 150.038C341.435 150.016 341.653 150.08 341.823 150.218C342.674 150.943 343.737 151.374 344.853 151.446C345.56 151.459 346.255 151.254 346.842 150.858C347.038 150.735 347.203 150.567 347.321 150.367C347.44 150.167 347.509 149.942 347.522 149.711C347.523 149.531 347.472 149.355 347.375 149.203C347.256 149.011 347.097 148.847 346.908 148.723C346.231 148.354 345.495 148.106 344.733 147.989C344.028 147.868 343.342 147.658 342.691 147.362C342.092 147.098 341.579 146.673 341.209 146.134C340.969 145.73 340.844 145.268 340.849 144.799C340.864 144.341 340.986 143.894 341.207 143.493C341.427 143.092 341.739 142.748 342.117 142.49C342.922 141.927 343.884 141.632 344.866 141.649C346.128 141.728 347.335 142.194 348.323 142.984C348.501 143.103 348.624 143.288 348.667 143.498C348.709 143.708 348.667 143.926 348.55 144.105C348.493 144.197 348.418 144.277 348.329 144.339C348.241 144.402 348.14 144.446 348.034 144.468C347.928 144.491 347.819 144.491 347.712 144.47C347.606 144.449 347.505 144.406 347.415 144.345C346.691 143.751 345.8 143.397 344.866 143.331C344.233 143.316 343.611 143.503 343.091 143.865C342.922 143.975 342.78 144.123 342.676 144.296C342.571 144.469 342.508 144.664 342.49 144.866C342.48 145.02 342.517 145.174 342.597 145.306C342.709 145.473 342.854 145.614 343.024 145.72C343.634 146.086 344.31 146.326 345.013 146.427C345.769 146.551 346.505 146.776 347.202 147.095C347.849 147.376 348.401 147.84 348.79 148.429C349.035 148.831 349.164 149.293 349.164 149.764C349.155 150.25 349.029 150.727 348.797 151.155C348.564 151.582 348.232 151.948 347.829 152.22C346.972 152.828 345.943 153.146 344.893 153.127C343.421 153.046 342.016 152.489 340.889 151.539C340.793 151.477 340.71 151.396 340.646 151.302C340.582 151.207 340.538 151.1 340.517 150.987C340.495 150.875 340.497 150.759 340.522 150.648C340.547 150.536 340.595 150.431 340.662 150.338Z" fill="white"/>
<path d="M358.146 143.744H355.623V152.22C355.623 152.45 355.532 152.67 355.369 152.833C355.207 152.996 354.986 153.087 354.756 153.087C354.526 153.087 354.305 152.996 354.142 152.833C353.98 152.67 353.888 152.45 353.888 152.22V143.744H351.379C351.146 143.741 350.924 143.647 350.76 143.482C350.596 143.318 350.502 143.096 350.498 142.863C350.496 142.747 350.518 142.632 350.562 142.524C350.605 142.417 350.67 142.319 350.752 142.237C350.834 142.154 350.932 142.09 351.04 142.046C351.148 142.002 351.263 141.981 351.379 141.983H358.146C358.379 141.983 358.604 142.075 358.769 142.241C358.934 142.406 359.027 142.63 359.027 142.863C359.023 143.096 358.929 143.318 358.765 143.482C358.6 143.647 358.378 143.741 358.146 143.744Z" fill="white"/>
<path d="M374.844 156.41H252.975V158.025H374.844V156.41Z" fill="white"/>
<path d="M214.895 243.151H136.59V321.456H214.895V243.151Z" fill="#EBEBEB"/>
<path d="M136.591 297.966H214.883V243.138H136.591V297.966Z" fill="#EBEBEB"/>
<path d="M145.746 258.727C145.746 260.01 146.127 261.264 146.839 262.33C147.552 263.397 148.565 264.229 149.75 264.72C150.936 265.211 152.24 265.339 153.498 265.089C154.756 264.838 155.912 264.221 156.819 263.313C157.726 262.406 158.344 261.251 158.595 259.992C158.845 258.734 158.716 257.43 158.225 256.244C157.734 255.059 156.903 254.046 155.836 253.333C154.77 252.621 153.516 252.24 152.233 252.24C151.38 252.238 150.536 252.405 149.748 252.73C148.96 253.056 148.245 253.534 147.642 254.136C147.039 254.739 146.562 255.455 146.236 256.242C145.911 257.03 145.744 257.874 145.746 258.727Z" fill="#DBDBDB"/>
<path d="M171.357 286.047H214.895L193.126 256.538L171.357 286.047Z" fill="#C7C7C7"/>
<path d="M154.287 286.181H190.23L172.265 266.975L154.287 286.181Z" fill="#DBDBDB"/>
<path d="M214.882 286.154H136.59V297.966H214.882V286.154Z" fill="#DBDBDB"/>
<path d="M209.344 303.412H142.156V305.574H209.344V303.412Z" fill="white"/>
<path d="M188.71 308.857H142.156V311.02H188.71V308.857Z" fill="white"/>
<path d="M198.773 314.303H142.156V316.465H198.773V314.303Z" fill="white"/>
<path d="M305.639 243.151H227.334V321.456H305.639V243.151Z" fill="#EBEBEB"/>
<path d="M227.335 297.966H305.627V243.138H227.335V297.966Z" fill="#DBDBDB"/>
<path d="M266.481 286.181C274.707 286.181 281.376 279.512 281.376 271.286C281.376 263.06 274.707 256.391 266.481 256.391C258.255 256.391 251.586 263.06 251.586 271.286C251.586 279.512 258.255 286.181 266.481 286.181Z" fill="#EBEBEB"/>
<path d="M259.354 263.198V279.374L276.477 271.286L259.354 263.198Z" fill="white"/>
<path d="M300.088 303.412H232.9V305.574H300.088V303.412Z" fill="white"/>
<path d="M279.454 308.857H232.9V311.02H279.454V308.857Z" fill="white"/>
<path d="M289.517 314.303H232.9V316.465H289.517V314.303Z" fill="white"/>
<path d="M491.307 130.812H410.973V143.865H491.307V130.812Z" fill="white"/>
<path d="M491.307 130.812H478.254V143.865H491.307V130.812Z" fill="#263238"/>
<path d="M485.208 136.085L484.006 136.996L487.705 141.879L488.908 140.968L485.208 136.085Z" fill="white"/>
<path d="M486.542 134.055C486.934 134.571 487.165 135.192 487.205 135.839C487.245 136.486 487.092 137.131 486.766 137.692C486.441 138.252 485.956 138.704 485.374 138.989C484.792 139.275 484.138 139.382 483.495 139.296C482.852 139.211 482.249 138.937 481.762 138.509C481.275 138.081 480.925 137.519 480.757 136.893C480.589 136.266 480.61 135.604 480.818 134.99C481.025 134.376 481.41 133.837 481.924 133.441C482.618 132.911 483.494 132.677 484.36 132.792C485.226 132.908 486.01 133.362 486.542 134.055Z" fill="white"/>
<path d="M485.501 134.856C485.74 135.165 485.882 135.539 485.909 135.929C485.936 136.319 485.846 136.708 485.651 137.048C485.457 137.387 485.166 137.661 484.815 137.834C484.465 138.008 484.071 138.074 483.683 138.023C483.295 137.972 482.931 137.808 482.637 137.55C482.342 137.292 482.131 136.953 482.03 136.575C481.929 136.197 481.942 135.798 482.068 135.428C482.194 135.058 482.427 134.733 482.738 134.495C483.153 134.178 483.676 134.038 484.194 134.105C484.711 134.173 485.181 134.443 485.501 134.856Z" fill="#263238"/>
<path d="M270.872 539.983C268.336 540.824 196.13 540.61 193.327 538.875C192.286 538.221 191.699 527.677 191.365 514.944C191.285 512.195 191.231 509.366 191.178 506.469C191.178 503.053 191.085 499.596 191.058 496.232C190.978 481.137 191.178 467.844 191.178 467.844H238.225V496.232V506.469L237.985 514.944C237.985 514.944 265.613 527.41 268.416 529.626C271.219 531.841 273.394 539.156 270.872 539.983Z" fill="#F7A9A0"/>
<path d="M270.872 539.983C268.336 540.824 196.13 540.61 193.328 538.875C192.286 538.221 191.699 527.677 191.366 514.945C191.285 512.195 191.232 509.366 191.179 506.469C191.179 503.053 191.085 499.596 191.059 496.232H238.199V506.469L237.959 514.945C237.959 514.945 265.587 527.41 268.39 529.626C271.193 531.842 273.395 539.156 270.872 539.983Z" fill="white"/>
<path d="M271.098 540.09C269.456 540.637 238.679 540.744 216.269 540.277C211.077 540.17 206.339 540.023 202.509 539.863C197.237 539.623 193.7 539.329 193.166 538.969C191.898 538.154 191.284 522.699 191.004 506.389H238.265L238.025 514.904C238.025 514.904 265.759 527.464 268.589 529.693C271.418 531.922 273.62 539.249 271.098 540.09Z" fill="#16B99B"/>
<path d="M270.057 537.18C257.872 536.846 208.662 536.646 196.65 537.247C196.557 537.247 196.557 537.314 196.65 537.327C208.662 537.914 257.872 537.714 270.057 537.327C270.311 537.38 270.311 537.193 270.057 537.18Z" fill="#263238"/>
<path d="M239.706 512.208C234.915 511.301 229.029 512.021 225.372 515.425C225.238 515.558 225.372 515.759 225.585 515.705C230.166 514.231 234.891 513.251 239.68 512.782C239.739 512.763 239.791 512.726 239.829 512.676C239.867 512.627 239.889 512.567 239.891 512.505C239.894 512.442 239.878 512.38 239.845 512.328C239.812 512.275 239.764 512.233 239.706 512.208Z" fill="#263238"/>
<path d="M243.163 514.304C238.372 513.396 232.486 514.117 228.829 517.521C228.682 517.654 228.829 517.854 229.029 517.801C233.616 516.341 238.345 515.375 243.137 514.918C243.177 514.92 243.217 514.914 243.255 514.9C243.293 514.886 243.328 514.865 243.358 514.837C243.388 514.81 243.412 514.777 243.429 514.741C243.446 514.704 243.455 514.665 243.457 514.624C243.459 514.584 243.453 514.544 243.439 514.506C243.425 514.468 243.404 514.433 243.377 514.403C243.349 514.374 243.317 514.35 243.28 514.333C243.243 514.315 243.204 514.306 243.163 514.304Z" fill="#263238"/>
<path d="M246.607 516.399C241.816 515.492 235.93 516.212 232.286 519.616C232.139 519.749 232.286 519.949 232.486 519.896C237.073 518.437 241.802 517.47 246.594 517.013C246.675 517.015 246.754 516.984 246.813 516.928C246.872 516.872 246.906 516.794 246.907 516.713C246.909 516.631 246.879 516.553 246.822 516.494C246.766 516.435 246.689 516.401 246.607 516.399Z" fill="#263238"/>
<path d="M250.064 518.495C245.273 517.587 239.387 518.308 235.743 521.712C235.596 521.845 235.743 522.045 235.943 521.992C240.526 520.533 245.251 519.562 250.038 519.096C250.107 519.084 250.171 519.049 250.218 518.997C250.265 518.944 250.292 518.877 250.295 518.806C250.298 518.736 250.277 518.666 250.235 518.609C250.193 518.553 250.133 518.512 250.064 518.495Z" fill="#263238"/>
<path d="M248.583 501.158C246.715 498.488 243.244 499.716 241.202 501.385C237.808 504.321 235.248 508.1 233.782 512.342C233.775 512.362 233.774 512.382 233.777 512.402C233.78 512.423 233.788 512.442 233.799 512.458C233.811 512.475 233.826 512.489 233.844 512.499C233.862 512.509 233.881 512.515 233.902 512.516C233.899 512.609 233.918 512.701 233.957 512.785C233.995 512.87 234.053 512.944 234.126 513.002C234.198 513.06 234.283 513.101 234.374 513.121C234.465 513.141 234.559 513.139 234.649 513.116C238.653 511.662 243.018 510.594 246.421 507.978C248.41 506.443 250.358 503.613 248.583 501.158ZM240.201 509.686C238.266 510.447 236.317 511.114 234.409 511.942C235.793 509.768 237.285 507.666 238.88 505.642C239.669 504.696 240.521 503.804 241.429 502.973C242.857 501.638 248.516 498.969 247.649 504.187C247.182 507.017 242.497 508.779 240.201 509.686Z" fill="#263238"/>
<path d="M221.609 511.06C225.613 512.756 230.098 512.675 234.288 513.103C234.382 513.102 234.474 513.08 234.558 513.038C234.642 512.996 234.714 512.935 234.77 512.86C234.826 512.784 234.863 512.697 234.879 512.605C234.895 512.513 234.889 512.418 234.862 512.328C234.882 512.322 234.899 512.311 234.913 512.296C234.928 512.282 234.938 512.264 234.945 512.245C234.951 512.225 234.953 512.205 234.95 512.185C234.948 512.164 234.94 512.145 234.929 512.128C232.452 508.393 229.037 505.373 225.026 503.373C222.663 502.252 218.966 502.038 217.805 504.988C216.644 507.937 219.3 510.113 221.609 511.06ZM219.447 507.63C217.311 502.759 223.451 504 225.173 504.894C226.288 505.494 227.363 506.168 228.389 506.91C230.498 508.418 232.393 510.206 234.288 511.901C232.246 511.568 230.178 511.421 228.122 511.167C225.6 510.86 220.635 510.326 219.447 507.63Z" fill="#263238"/>
<path d="M175.496 267.389C175.496 267.389 188.202 393.129 188.509 394.717C188.509 394.93 188.643 397.386 188.763 401.297C189.443 422.945 191.138 490.44 191.138 490.44H243.071C243.071 490.44 239.694 410.493 237.732 391.847C235.25 368.063 219.647 267.389 219.647 267.389H175.496Z" fill="#455A64"/>
<path d="M194.688 399.161C193.086 371.907 190.68 344.724 187.467 317.613C185.652 302.331 183.463 287.115 181.288 271.887C181.288 271.753 181.048 271.753 181.074 271.887C185.078 298.994 187.935 326.315 190.417 353.596C192.9 380.876 194.581 408.157 195.689 435.505C196.33 451 196.797 466.496 197.304 481.991C197.318 482.057 197.354 482.116 197.407 482.158C197.459 482.2 197.524 482.223 197.591 482.223C197.658 482.223 197.723 482.2 197.775 482.158C197.827 482.116 197.864 482.057 197.878 481.991C197.104 454.364 196.356 426.736 194.688 399.161Z" fill="#263238"/>
<path d="M239.732 482.085C238.33 481.953 236.923 481.895 235.515 481.911C233.967 481.911 232.405 481.845 230.843 481.778C227.845 481.671 224.842 481.595 221.834 481.551C215.775 481.444 209.702 481.484 203.656 481.671L198.664 481.845C196.889 481.911 195.101 482.071 193.326 482.071C193.192 482.071 193.206 482.232 193.326 482.232C196.369 482.232 199.452 482.485 202.508 482.605C205.565 482.725 208.514 482.765 211.517 482.806C217.563 482.886 223.649 482.805 229.696 482.619C231.351 482.619 233.019 482.525 234.687 482.472L237.357 482.365C238.145 482.378 238.933 482.352 239.719 482.285C239.735 482.292 239.752 482.295 239.769 482.294C239.786 482.293 239.803 482.288 239.817 482.279C239.832 482.27 239.844 482.257 239.853 482.243C239.862 482.228 239.867 482.212 239.869 482.194C239.87 482.177 239.867 482.16 239.86 482.144C239.853 482.129 239.842 482.115 239.829 482.104C239.816 482.093 239.8 482.086 239.783 482.083C239.766 482.079 239.749 482.08 239.732 482.085Z" fill="#263238"/>
<path d="M175.496 267.389C175.496 267.389 188.202 393.129 188.509 394.717C188.509 394.93 188.643 397.386 188.763 401.297L213.214 267.389H175.496Z" fill="#263238"/>
<path d="M88.0205 506.109C85.7249 504.774 38.6375 449.906 38.2104 446.676C38.0236 445.448 45.6179 438.134 55.0407 429.565C57.0694 427.697 59.0447 425.695 61.3403 423.88C64.1432 421.597 66.986 419.328 69.7488 417.206C81.7609 407.864 92.158 400.496 92.158 400.496L122.015 435.104L100.767 452.388L92.0512 459.489L85.4713 464.827C85.4713 464.827 94.0933 493.883 94.2268 497.474C94.3602 501.064 90.3028 507.444 88.0205 506.109Z" fill="#F7A9A0"/>
<path d="M88.0205 506.109C85.7249 504.775 38.6375 449.906 38.2104 446.676C38.0236 445.448 45.6179 438.134 55.0407 429.566C57.0694 427.697 59.0447 425.695 61.3403 423.88C64.1432 421.598 66.986 419.329 69.7488 417.207C78.9981 427.884 92.4383 442.979 100.767 452.389L92.0512 459.489L85.4713 464.828C85.4713 464.828 94.0933 493.884 94.2268 497.474C94.3602 501.064 90.3028 507.444 88.0205 506.109Z" fill="white"/>
<path d="M88.0875 506.363C85.7919 505.028 38.4776 449.839 37.9971 446.596C37.7836 445.088 49.0883 434.584 61.2605 423.666L92.1316 459.395L85.4582 464.734C85.4582 464.734 94.1202 493.95 94.2671 497.567C94.4139 501.184 90.3831 507.737 88.0875 506.363Z" fill="#16B99B"/>
<path d="M89.5827 503.68C81.8816 494.23 49.9161 456.886 41.5343 448.144C41.4142 448.144 41.4676 448.077 41.5343 448.144C48.9551 457.66 81.2276 494.751 89.4359 503.747C89.5827 504 89.7695 503.867 89.5827 503.68Z" fill="#263238"/>
<path d="M88.6889 464.387C86.2598 460.156 81.8821 456.192 76.9037 455.632C76.7035 455.632 76.6768 455.885 76.8236 455.979C80.9345 458.48 84.7647 461.415 88.2485 464.734C88.301 464.762 88.3603 464.774 88.4194 464.768C88.4785 464.763 88.5347 464.74 88.5813 464.704C88.6279 464.667 88.6628 464.618 88.6819 464.561C88.701 464.505 88.7035 464.445 88.6889 464.387Z" fill="#263238"/>
<path d="M89.3683 468.365C86.9258 464.147 82.5481 460.17 77.5697 459.623C77.3829 459.623 77.3562 459.876 77.4897 459.956C81.5922 462.468 85.4134 465.412 88.8878 468.738C88.9408 468.791 89.011 468.822 89.0854 468.826C89.1597 468.831 89.2331 468.808 89.2919 468.762C89.3507 468.717 89.3909 468.651 89.4049 468.578C89.419 468.505 89.4059 468.429 89.3683 468.365Z" fill="#263238"/>
<path d="M90.0362 472.355C87.5938 468.124 83.2161 464.16 78.2377 463.6C78.0509 463.6 78.0242 463.853 78.1576 463.947C82.2727 466.457 86.1034 469.406 89.5825 472.742C89.6382 472.782 89.7059 472.803 89.7745 472.8C89.8432 472.797 89.909 472.771 89.9613 472.727C90.0136 472.682 90.0494 472.621 90.063 472.554C90.0766 472.486 90.0672 472.416 90.0362 472.355Z" fill="#263238"/>
<path d="M90.7042 476.332C88.2618 472.115 83.884 468.138 78.9057 467.59C78.7188 467.59 78.6921 467.844 78.8256 467.924C82.9339 470.448 86.7596 473.406 90.2371 476.746C90.2642 476.777 90.2972 476.802 90.334 476.82C90.3709 476.838 90.4109 476.848 90.4518 476.851C90.4927 476.853 90.5337 476.848 90.5724 476.834C90.6111 476.821 90.6469 476.8 90.6775 476.773C90.7082 476.746 90.7332 476.713 90.7512 476.676C90.7691 476.639 90.7796 476.599 90.7821 476.558C90.7846 476.517 90.779 476.476 90.7656 476.438C90.7522 476.399 90.7314 476.363 90.7042 476.332Z" fill="#263238"/>
<path d="M102.929 463.88C103.663 460.77 100.5 458.862 97.9239 458.435C93.4817 457.793 88.9489 458.327 84.7774 459.983C84.7631 459.995 84.7518 460.011 84.744 460.028C84.7362 460.045 84.7322 460.064 84.7322 460.083C84.7322 460.102 84.7362 460.121 84.744 460.138C84.7518 460.155 84.7631 460.171 84.7774 460.183C84.7028 460.239 84.6422 460.312 84.6005 460.395C84.5588 460.478 84.5371 460.57 84.5371 460.664C84.5371 460.757 84.5588 460.849 84.6005 460.932C84.6422 461.016 84.7028 461.088 84.7774 461.144C88.4744 463.2 92.1581 465.842 96.3757 466.696C98.7514 467.204 102.168 466.83 102.929 463.88ZM90.9169 463.106C89.075 462.145 87.2999 461.091 85.4313 460.196C87.9939 459.903 90.5298 459.502 93.1191 459.462C94.3667 459.424 95.6154 459.473 96.8562 459.609C98.7647 459.849 104.544 462.279 99.9927 465.108C97.5102 466.643 93.1191 464.254 90.9169 463.106Z" fill="#263238"/>
<path d="M77.7435 449.919C79.0782 454.017 82.0545 457.407 84.4836 460.864C84.5446 460.935 84.6213 460.99 84.7076 461.026C84.794 461.063 84.8875 461.078 84.9809 461.072C85.0742 461.065 85.1647 461.037 85.2453 460.989C85.3258 460.941 85.394 460.876 85.4446 460.797C85.4711 460.802 85.4987 460.799 85.5229 460.787C85.5472 460.775 85.5666 460.755 85.5781 460.73C86.7918 456.412 86.847 451.85 85.7382 447.504C85.0442 444.981 82.8153 442.031 79.7989 443.099C76.7825 444.167 76.9827 447.53 77.7435 449.919ZM78.9047 446.049C81.187 441.231 84.2434 446.716 84.7105 448.598C84.9686 449.817 85.147 451.052 85.2444 452.295C85.4046 454.868 85.4313 457.447 85.3245 460.023C84.23 458.248 83.0021 456.593 81.8543 454.858C80.5063 452.816 77.6634 448.718 78.9047 446.049Z" fill="#263238"/>
<path d="M219.579 267.389C219.579 267.389 216.39 286.408 204.164 296.218C204.164 296.218 175.482 383.199 169.049 392.515C158.371 407.944 105.278 448.825 105.278 448.825L70.9766 409.051C70.9766 409.051 122.468 372.468 126.499 366.902C129.168 363.205 149.269 307.269 148.908 305.334C144.744 282.27 155.155 267.335 155.155 267.335L219.579 267.389Z" fill="#455A64"/>
<path d="M159.211 270.779C156.94 275.368 155.318 280.251 154.393 285.287C153.954 287.831 153.726 290.407 153.712 292.988C153.712 295.764 154.006 298.527 154.099 301.29C154.216 304.119 153.929 306.95 153.245 309.698C152.591 312.368 151.764 315.037 150.976 317.626C149.348 322.965 147.622 328.304 145.798 333.642C142.167 344.24 138.163 354.69 133.786 364.994C132.88 367.412 131.586 369.666 129.955 371.667C128.055 373.576 125.972 375.293 123.736 376.792L109.882 387.176L82.0135 408.091V408.157C81.7066 408.384 82.0135 408.905 82.3339 408.678C91.6766 401.697 97.5625 397.253 106.905 390.273L121.039 379.715C123.268 378.047 125.537 376.419 127.713 374.697C129.634 373.246 131.253 371.432 132.478 369.358C133.696 367.074 134.77 364.716 135.694 362.298C136.789 359.628 137.87 357.053 138.911 354.423C140.966 349.271 142.924 344.084 144.783 338.861C146.643 333.638 148.423 328.299 150.122 322.845C150.963 320.175 151.79 317.426 152.591 314.717C153.426 312.126 154.086 309.482 154.567 306.802C155.394 301.316 154.179 295.778 154.446 290.265C154.674 284.931 155.756 279.668 157.65 274.676C158.153 273.38 158.723 272.11 159.358 270.873C159.451 270.752 159.265 270.646 159.211 270.779Z" fill="#263238"/>
<path d="M177.097 271.433C176.194 275.111 174.113 278.392 171.171 280.776C167.908 283.335 163.971 284.888 159.84 285.247C159.146 285.34 159.133 286.395 159.84 286.368C168.288 286.034 176.577 280.242 177.418 271.42C177.458 271.206 177.137 271.206 177.097 271.433Z" fill="#263238"/>
<path d="M211.999 290.092C208.992 291.466 206.138 293.152 203.484 295.123C200.668 297.059 198.079 299.274 195.369 301.343C195.351 301.361 195.339 301.384 195.337 301.41C195.334 301.435 195.34 301.46 195.355 301.481C195.369 301.502 195.391 301.517 195.416 301.524C195.44 301.53 195.466 301.528 195.489 301.517C198.346 299.701 201.335 298.1 204.165 296.178C207.002 294.451 209.682 292.476 212.173 290.279C212.181 290.254 212.182 290.228 212.176 290.202C212.17 290.177 212.158 290.154 212.14 290.135C212.123 290.116 212.1 290.102 212.076 290.094C212.051 290.087 212.024 290.086 211.999 290.092Z" fill="#263238"/>
<path d="M212.373 272.434C212.013 274.383 211.532 276.318 211.119 278.266C210.705 280.215 210.425 281.95 209.944 283.752C209.548 285.498 208.664 287.095 207.395 288.357C206.674 289.024 205.887 289.611 205.126 290.212C204.712 290.545 204.272 290.866 203.791 291.199C203.791 290.933 203.885 290.679 203.938 290.412C204.058 289.665 204.192 288.917 204.312 288.183C204.592 286.528 204.859 284.886 205.099 283.231C205.606 279.988 206.06 276.705 206.741 273.488C206.741 273.368 206.567 273.315 206.527 273.488C205.726 276.665 204.832 279.815 204.125 283.031C203.778 284.606 202.55 292.374 202.497 292.935C202.443 293.495 202.39 294.069 202.376 294.643C202.296 295.219 202.296 295.802 202.376 296.378C202.376 296.525 202.577 296.498 202.63 296.378C202.863 295.84 203.029 295.275 203.124 294.696C203.271 294.136 203.391 293.575 203.498 293.015C203.498 292.814 203.498 292.601 203.591 292.387C204.352 291.934 205.059 291.306 205.78 290.799C206.501 290.292 207.341 289.691 208.062 289.077C209.417 287.94 210.395 286.418 210.865 284.713C211.334 282.88 211.637 281.008 211.773 279.121C212.026 276.918 212.2 274.69 212.507 272.447C212.489 272.43 212.467 272.419 212.442 272.417C212.418 272.415 212.394 272.421 212.373 272.434Z" fill="#263238"/>
<path d="M110.109 441.124C109.348 439.976 108.347 438.908 107.439 437.827C106.532 436.746 105.437 435.438 104.463 434.224C102.581 431.874 100.673 429.565 98.7373 427.257C94.9201 422.625 90.9161 418.021 86.7652 413.616C85.6308 412.388 84.4963 411.174 83.3485 409.959C82.2006 408.745 80.8526 407.423 79.6914 406.075C79.6114 405.982 79.4913 406.075 79.5713 406.195C81.5867 408.478 83.4019 411 85.3104 413.363C87.219 415.725 89.1276 418.007 91.0762 420.303C94.9735 424.934 99.0042 429.485 103.088 433.903C104.236 435.118 105.344 436.359 106.478 437.587C107.079 438.241 107.693 438.922 108.307 439.522C108.921 440.123 109.321 440.737 109.922 441.271C109.941 441.295 109.97 441.311 110.001 441.315C110.032 441.319 110.064 441.31 110.089 441.291C110.113 441.271 110.13 441.243 110.133 441.211C110.137 441.18 110.128 441.149 110.109 441.124Z" fill="#263238"/>
<path d="M203.897 238.68C200.567 240.205 197.074 241.346 193.487 242.083C200.414 235.01 204.271 216.124 203.016 218.647C197.024 230.659 185.572 242.671 182.355 242.671C174.547 241.665 167.28 238.142 161.655 232.634C170.277 224.826 174.694 205.754 173.974 206.808C166.286 218.059 154.915 222.944 153.26 222.517C148.562 215.123 146.746 208.45 147.761 208.063C155.208 205.3 163.403 195.45 171.211 184.826C178.925 174.362 184.091 163.885 193.473 155.156C202.042 147.148 214.948 148.416 220.808 155.023C236.143 172.307 208.609 236.505 203.897 238.68Z" fill="#263238"/>
<path d="M204.871 151.619C199.439 151.619 194.06 155.236 190.31 158.92C185.318 163.831 181.354 169.797 176.897 175.176C168.233 185.832 157.962 195.072 146.453 202.564C146.4 202.594 146.361 202.644 146.344 202.703C146.328 202.761 146.336 202.824 146.366 202.877C146.396 202.93 146.446 202.969 146.505 202.986C146.564 203.002 146.626 202.994 146.679 202.964C158.478 197.906 167.954 188.817 176.269 179.127C180.514 174.162 184.277 168.796 188.281 163.738C190.47 160.915 193.034 158.405 195.902 156.277C198.634 154.447 201.707 153.19 204.938 152.58C205.045 152.548 205.139 152.48 205.202 152.388C205.266 152.296 205.296 152.185 205.289 152.073C205.281 151.961 205.235 151.855 205.159 151.773C205.084 151.69 204.982 151.636 204.871 151.619Z" fill="#263238"/>
<path d="M204.793 208.329C208.423 215.843 233.622 239.894 254.349 247.355C261.957 250.091 294.763 242.217 302.531 238.933C311.62 235.076 305.574 212.4 299.768 212.427C292.508 212.427 261.396 219.914 254.75 219.754C246.662 219.554 227.896 207.195 211.947 200.989C203.725 197.799 201.99 202.523 204.793 208.329Z" fill="#F7A9A0"/>
<path d="M302.529 238.934C305.452 237.866 318.425 231.78 321.655 229.284C324.885 226.788 333.667 218.927 332.012 216.258C330.357 213.588 327.595 215.684 327.595 215.684C327.595 215.684 330.771 211.773 328.849 209.237C326.927 206.701 322.763 210.105 322.763 210.105C322.763 210.105 325.726 205.861 323.644 203.431C321.562 201.002 317.918 205.153 317.918 205.153C317.918 205.153 320.814 201.403 318.265 200.161C315.195 198.653 310.631 206.194 306.854 208.69C306 209.251 288.662 218.914 288.662 218.914L302.529 238.934Z" fill="#F7A9A0"/>
<path d="M318.239 204.846C314.863 210.385 312.433 212.227 306.721 215.056C306.614 215.056 306.721 215.296 306.788 215.243C312.634 212.974 316.024 211.119 318.506 205.006C318.64 204.699 318.399 204.592 318.239 204.846Z" fill="#263238"/>
<path d="M323.017 209.664C319.013 215.11 316.343 217.125 310.631 220.528C310.551 220.528 310.631 220.729 310.711 220.689C316.637 217.806 319.974 215.87 323.257 209.904C323.404 209.637 323.15 209.411 323.017 209.664Z" fill="#263238"/>
<path d="M327.288 215.844C323.03 220.836 320.254 223.171 314.235 225.761C314.22 225.766 314.206 225.774 314.194 225.785C314.182 225.795 314.173 225.808 314.166 225.822C314.159 225.836 314.155 225.852 314.154 225.868C314.154 225.883 314.156 225.899 314.161 225.914C314.166 225.929 314.175 225.943 314.185 225.954C314.196 225.966 314.208 225.976 314.223 225.983C314.237 225.989 314.252 225.993 314.268 225.994C314.284 225.995 314.3 225.993 314.315 225.988C319.833 224.511 324.546 220.919 327.434 215.991C327.648 215.644 327.555 215.537 327.288 215.844Z" fill="#263238"/>
<path d="M283.523 217.979C285.977 214.92 288.653 212.047 291.531 209.384C294.388 207.102 308.148 202.524 309.309 205.38C310.804 209.144 303.383 213.388 299.473 214.936C299.473 214.936 302.943 223.638 298.258 227.816C293.574 231.993 283.523 217.979 283.523 217.979Z" fill="#F7A9A0"/>
<path d="M309.338 206.608C308.216 211.025 302.958 212.774 299.288 214.616C299.232 214.64 299.184 214.677 299.146 214.724C299.109 214.771 299.083 214.826 299.071 214.885C299.059 214.944 299.062 215.005 299.079 215.062C299.095 215.12 299.126 215.173 299.167 215.216C300.369 218.967 300.983 224.559 298.473 227.909C298.393 228.002 298.473 228.123 298.607 228.043C301.797 224.853 301.637 219.274 300.048 215.256C303.852 213.441 309.044 211.453 309.391 206.634C309.378 206.594 309.338 206.581 309.338 206.608Z" fill="#263238"/>
<path d="M269.416 217.606C269.416 217.606 274.221 216.164 274.661 217.499C275.102 218.834 272.646 220.755 272.646 220.755C272.646 220.755 275.996 220.755 276.423 222.878C276.85 225 273.34 226.348 273.34 226.348C273.34 226.348 276.97 227.389 277.09 228.897C277.251 230.926 274.154 231.993 274.154 231.993C274.154 231.993 277.678 232.274 277.811 234.262C277.945 236.251 274.741 237.225 274.741 237.225C274.741 237.225 278.452 237.692 278.812 239.187C279.226 240.962 275.582 242.551 275.582 242.551C275.582 242.551 279.092 243.125 279.306 244.66C279.519 246.194 276.049 247.462 274.234 247.476L269.416 217.606Z" fill="white"/>
<path d="M274.849 247.729C274.849 247.729 257.031 248.743 254.522 247.849C251.791 246.866 249.117 245.73 246.514 244.446C226.774 234.823 211.132 217.952 206.354 211.773C201.322 205.246 201.309 197.385 209.784 199.841C210.411 200.028 211.119 200.268 211.799 200.561C222.263 204.899 251.079 219.087 254.069 219.314C257.058 219.541 270.338 216.925 270.338 216.925L274.849 247.729Z" fill="#16B99B"/>
<path d="M246.487 244.512C226.747 234.889 211.105 218.019 206.327 211.84C201.295 205.313 201.281 197.452 209.757 199.908L246.487 244.512Z" fill="#263238"/>
<path d="M222.129 250.238L222.476 280.829C218.751 281.036 215.017 281.036 211.291 280.829C201.454 280.366 191.651 279.35 181.928 277.786C172.305 276.278 160.974 274.089 147.961 270.912C147.961 270.912 171.131 216.751 189.336 200.602C189.754 200.228 190.168 199.881 190.577 199.561L190.817 199.36C199.159 192.807 207.608 196.397 212.786 202.243C214.121 203.698 227.468 227.402 227.828 235.77C228.082 243.178 222.129 250.238 222.129 250.238Z" fill="#16B99B"/>
<path d="M211.291 280.856C201.454 280.393 191.651 279.377 181.928 277.813C183.262 263.545 187.827 215.083 189.295 200.628C189.713 200.255 190.127 199.908 190.536 199.587L211.291 280.856Z" fill="#263238"/>
<path d="M185.906 212C188.415 229.471 194.755 264.8 204.592 273.395C217.511 284.7 247.408 286.742 256.27 287.383C260.128 287.663 263.478 262.131 260.608 259.168C257.739 256.205 227.054 255.19 224.385 253.762C221.716 252.334 208.369 225.907 201.789 212.387C193.461 195.477 184.919 205.113 185.906 212Z" fill="#F7A9A0"/>
<path d="M284.098 263.599C288.929 263.692 295.376 259.822 296.363 263.278C297.244 266.362 292.519 268.617 292.519 268.617C292.519 268.617 298.659 267.803 298.672 271.393C298.686 274.984 292.986 276.372 292.986 276.372C292.986 276.372 298.672 275.931 298.432 279.508C298.192 283.085 292.96 284.7 292.96 284.7C292.96 284.7 294.588 285.434 293.28 287.876C291.398 291.373 282.95 292.855 278.345 292.588C273.74 292.321 257.124 287.903 254.588 287.249L256.096 257.726C256.096 257.726 264.491 254.443 268.962 253.295C273.433 252.147 289.183 252.454 289.37 256.365C289.556 260.275 278.425 259.875 275.689 260.369C272.953 260.863 272.593 261.583 273.994 262.331C277.319 263.043 280.7 263.467 284.098 263.599Z" fill="#F7A9A0"/>
<path d="M292.252 268.603C285.445 271.273 282.002 271.273 274.901 269.938C274.768 269.938 274.688 270.112 274.901 270.152C281.695 272.114 286.006 272.741 292.426 268.964C292.706 268.737 292.572 268.537 292.252 268.603Z" fill="#263238"/>
<path d="M293.254 276.185C285.94 278.333 282.216 278.36 274.715 277.519C274.609 277.519 274.582 277.679 274.715 277.706C282.003 279.174 286.314 279.721 293.334 276.612C293.628 276.425 293.588 276.078 293.254 276.185Z" fill="#263238"/>
<path d="M292.868 284.646C285.647 286.221 281.55 286.422 274.383 284.646C274.347 284.636 274.309 284.64 274.276 284.657C274.244 284.675 274.22 284.704 274.209 284.74C274.198 284.775 274.202 284.813 274.22 284.846C274.237 284.879 274.267 284.903 274.302 284.913C280.261 287.346 286.936 287.346 292.894 284.913C293.322 284.713 293.322 284.553 292.868 284.646Z" fill="#263238"/>
<path d="M236.85 253.441C236.85 253.441 242.309 253.575 242.323 255.11C242.336 256.645 239.133 257.779 239.133 257.779C239.133 257.779 242.576 258.967 242.323 261.263C242.069 263.558 237.958 263.812 237.958 263.812C237.958 263.812 241.375 266.121 240.988 267.736C240.481 269.885 236.904 269.951 236.904 269.951C236.904 269.951 240.467 271.433 239.92 273.542C239.373 275.65 235.743 275.57 235.743 275.57C235.743 275.57 239.426 277.305 239.293 278.974C239.133 280.949 234.822 281.376 234.822 281.376C234.822 281.376 238.252 283.151 237.958 284.82C237.665 286.488 233.634 286.621 231.752 286.021L236.85 253.441Z" fill="white"/>
<path d="M239.132 253.201L233.113 286.568C233.113 286.568 207.914 280.122 202.562 272.127C195.889 262.144 187.2 230.752 185.305 214.029C183.41 197.305 195.208 196.838 202.082 210.518C208.755 223.798 222.929 250.172 224.037 251.306C225.479 252.828 239.132 253.201 239.132 253.201Z" fill="#16B99B"/>
<path d="M222.289 247.916C221.608 246.582 220.26 243.765 219.62 242.577C218.285 240.122 216.884 237.666 215.482 235.223C214.081 232.781 212.706 230.325 211.265 227.909C211.011 227.509 210.784 227.082 210.531 226.668C210.531 226.375 209.463 222.984 209.303 222.13C209.303 221.997 209.062 222.037 209.102 222.13C209.318 222.968 209.475 223.82 209.57 224.679C209.57 224.84 209.57 225 209.676 225.16C208.755 223.572 207.835 221.97 206.9 220.435C206.834 220.315 206.647 220.435 206.713 220.529C208.569 223.865 209.583 226.001 210.984 228.724C212.386 231.446 213.801 233.969 215.229 236.571C216.657 239.174 218.152 241.763 219.62 244.339C220.473 245.885 221.404 247.386 222.409 248.837C223.05 249.745 223.05 249.238 222.289 247.916Z" fill="#263238"/>
<path d="M197.932 198.346C198.225 199.494 203.858 206.915 209.143 206.594C210.865 206.474 210.678 197.052 210.678 197.052L210.825 196.357L212.853 186.574L201.282 179.407L199.614 178.459C199.614 178.459 199.24 181.129 198.799 184.559C198.799 184.719 198.799 184.879 198.799 185.039C198.761 185.22 198.734 185.403 198.719 185.587C198.639 186.094 198.572 186.614 198.506 187.122C198.439 187.629 198.412 187.896 198.386 188.309C198.359 188.723 198.306 189.124 198.252 189.537C197.941 192.463 197.833 195.406 197.932 198.346Z" fill="#F7A9A0"/>
<path d="M198.799 184.559C199.824 187.28 201.43 189.745 203.504 191.782C205.579 193.82 208.072 195.381 210.811 196.357L212.84 186.574L201.268 179.407L199.6 178.459C199.6 178.459 199.239 181.182 198.799 184.559Z" fill="#263238"/>
<path d="M197.932 176.765C197.932 176.765 193.928 171.426 191.539 172.761C189.15 174.095 192.126 182.103 195.062 183.064C195.429 183.222 195.824 183.303 196.224 183.304C196.623 183.305 197.019 183.225 197.386 183.07C197.754 182.914 198.087 182.685 198.364 182.398C198.641 182.11 198.857 181.769 198.999 181.396L197.932 176.765Z" fill="#F7A9A0"/>
<path d="M192.473 175.016C192.473 175.016 192.406 175.016 192.473 175.096C193.426 175.54 194.275 176.18 194.964 176.973C195.654 177.766 196.17 178.696 196.477 179.701C196.352 179.501 196.186 179.33 195.99 179.2C195.794 179.069 195.572 178.982 195.34 178.944C195.107 178.906 194.87 178.919 194.642 178.98C194.415 179.041 194.203 179.151 194.021 179.3C194.021 179.3 194.021 179.434 194.021 179.421C194.377 179.298 194.761 179.288 195.122 179.393C195.483 179.498 195.803 179.713 196.037 180.008C196.423 180.507 196.758 181.043 197.038 181.609C197.131 181.796 197.465 181.69 197.385 181.476C197.371 178.833 195.276 175.216 192.473 175.016Z" fill="#263238"/>
<path d="M225.879 170.785C227.747 188.216 217.51 191.312 213.747 191.699C210.343 192.073 198.678 192.861 195.061 175.683C191.444 158.506 198.918 152.153 206.673 150.912C214.427 149.671 224.01 153.354 225.879 170.785Z" fill="#F7A9A0"/>
<path d="M222.383 168.436C221.98 168.39 221.579 168.323 221.182 168.236C220.753 168.222 220.34 168.067 220.007 167.796C219.924 167.686 219.879 167.553 219.879 167.415C219.879 167.278 219.924 167.144 220.007 167.035C220.197 166.835 220.437 166.689 220.703 166.614C220.968 166.539 221.249 166.537 221.516 166.608C222.078 166.673 222.596 166.944 222.97 167.368C223.055 167.47 223.107 167.594 223.119 167.725C223.132 167.856 223.105 167.988 223.042 168.103C222.978 168.218 222.881 168.312 222.764 168.371C222.646 168.431 222.514 168.453 222.383 168.436Z" fill="#263238"/>
<path d="M210.263 169.303C210.677 169.237 211.037 169.103 211.438 169.01C211.868 168.961 212.271 168.773 212.586 168.476C212.669 168.367 212.714 168.233 212.714 168.095C212.714 167.958 212.669 167.824 212.586 167.715C212.38 167.532 212.13 167.407 211.86 167.353C211.59 167.299 211.311 167.318 211.051 167.408C210.519 167.526 210.046 167.829 209.716 168.262C209.648 168.362 209.609 168.479 209.603 168.599C209.596 168.72 209.622 168.84 209.678 168.947C209.734 169.053 209.818 169.143 209.921 169.206C210.024 169.269 210.143 169.302 210.263 169.303Z" fill="#263238"/>
<path d="M212.76 173.628C212.76 173.628 212.667 173.695 212.68 173.748C212.787 174.936 212.68 176.311 211.652 176.778V176.845C212.974 176.578 213.054 174.736 212.76 173.628Z" fill="#263238"/>
<path d="M211.625 172.44C209.703 172.44 209.783 176.257 211.558 176.284C213.333 176.311 213.24 172.44 211.625 172.44Z" fill="#263238"/>
<path d="M210.865 172.667C210.544 172.894 210.224 173.294 209.81 173.334C209.397 173.375 208.983 173.001 208.662 172.614H208.596C208.596 173.348 208.903 174.095 209.703 174.189C210.504 174.282 210.931 173.615 211.038 172.854C211.132 172.787 211.038 172.587 210.865 172.667Z" fill="#263238"/>
<path d="M220.221 172.934C220.221 172.934 220.328 172.934 220.315 173.041C220.315 174.229 220.475 175.603 221.556 175.977C220.235 175.884 220.021 174.055 220.221 172.934Z" fill="#263238"/>
<path d="M221.276 171.666C223.198 171.506 223.398 175.35 221.623 175.51C219.848 175.67 219.674 171.813 221.276 171.666Z" fill="#263238"/>
<path d="M222.09 171.88C222.41 172.066 222.73 172.427 223.091 172.427C223.451 172.427 223.798 172 224.052 171.586C224.052 171.586 224.052 171.586 224.118 171.586C224.118 172.32 223.971 173.107 223.264 173.281C222.557 173.454 222.13 172.841 221.929 172.106C221.876 172.013 221.969 171.799 222.09 171.88Z" fill="#263238"/>
<path d="M213.547 182.771C213.827 183.064 214.094 183.451 214.535 183.505C214.994 183.51 215.448 183.419 215.87 183.238C215.693 183.469 215.457 183.648 215.187 183.756C214.916 183.864 214.622 183.897 214.335 183.852C214.097 183.774 213.887 183.632 213.726 183.441C213.566 183.25 213.462 183.018 213.427 182.771C213.414 182.757 213.507 182.731 213.547 182.771Z" fill="#263238"/>
<path d="M218.393 178.3C218.393 178.3 218.7 180.075 218.726 180.969C218.726 181.049 218.526 181.089 218.233 181.116C217.507 181.288 216.748 181.255 216.04 181.019C215.333 180.783 214.705 180.354 214.229 179.781C214.229 179.701 214.229 179.608 214.362 179.661C215.453 180.357 216.741 180.68 218.032 180.582C218.032 180.355 217.418 177.566 217.552 177.552C218.207 177.588 218.853 177.714 219.474 177.926C218.94 174.202 217.819 170.612 217.352 166.901C217.36 166.878 217.375 166.857 217.396 166.843C217.416 166.829 217.44 166.821 217.465 166.821C217.49 166.821 217.514 166.829 217.535 166.843C217.555 166.857 217.57 166.878 217.579 166.901C218.89 170.72 219.819 174.658 220.355 178.66C220.475 179.007 218.726 178.433 218.393 178.3Z" fill="#263238"/>
<path d="M196.09 176.844C198.973 176.844 199.173 170.772 199.173 170.772C199.173 170.772 204.992 170.345 206.273 161.816C206.3 164.34 205.591 166.817 204.231 168.943C204.231 168.943 214.415 167.061 218.085 158.132C218.085 158.132 216.75 162.643 215.189 164.325C217.736 163.327 219.872 161.498 221.248 159.133C221.248 159.133 223.424 163.951 224.919 165.219C224.919 165.219 223.104 147.268 206.594 150.471C206.594 150.471 196.223 151.966 193.113 160.508C190.004 169.05 196.09 176.844 196.09 176.844Z" fill="#263238"/>
<path d="M199.026 195.877C196.891 196.077 193.341 196.851 188.883 201.042C188.883 201.042 199.814 208.129 209.223 207.182C212.587 206.848 213.227 201.189 213.227 201.189C211.391 199.321 209.168 197.878 206.715 196.96C204.262 196.042 201.638 195.673 199.026 195.877Z" fill="#F7A9A0"/>
<path d="M414.962 540.277C417.498 541.131 490.091 541.384 492.867 539.649C493.922 538.995 494.576 528.425 495.003 515.625C495.096 512.862 495.176 510.006 495.23 507.11L501.116 468.404L452.614 468.084L448.036 506.79L448.223 515.318C448.223 515.318 420.381 527.651 417.525 529.879C414.669 532.108 412.427 539.476 414.962 540.277Z" fill="#DD6A57"/>
<path d="M414.963 540.276C417.498 541.131 490.092 541.384 492.868 539.649C494.202 538.848 494.843 523.406 495.23 507.11L448.009 506.803L448.196 515.331C448.196 515.331 420.355 527.664 417.498 529.893C414.642 532.122 412.427 539.476 414.963 540.276Z" fill="white"/>
<path d="M414.963 540.276C417.498 541.13 490.092 541.384 492.868 539.649C493.922 538.995 494.576 528.424 495.003 515.625L448.196 515.331C448.196 515.331 420.355 527.663 417.498 529.892C414.642 532.121 412.427 539.475 414.963 540.276Z" fill="#16B99B"/>
<path d="M416.017 537.367C428.176 537.113 477.292 537.233 489.344 537.9C489.437 537.9 489.437 537.981 489.344 537.981C477.332 538.501 428.176 537.981 416.017 537.567C415.75 537.567 415.75 537.38 416.017 537.367Z" fill="#263238"/>
<path d="M422.198 527.303C423.551 527.273 424.896 527.523 426.148 528.037C427.4 528.552 428.531 529.32 429.472 530.293C431.165 532.041 432.121 534.373 432.141 536.806C432.141 536.873 432.008 536.873 431.995 536.806C431.587 534.396 430.41 532.183 428.639 530.499C426.868 528.815 424.599 527.75 422.171 527.463C422.15 527.46 422.131 527.448 422.119 527.431C422.106 527.413 422.101 527.391 422.105 527.37C422.108 527.349 422.12 527.33 422.137 527.317C422.155 527.305 422.177 527.3 422.198 527.303Z" fill="#263238"/>
<path d="M443.473 516.519C448.344 516.519 453.99 518.214 456.993 522.205C457.113 522.352 456.886 522.525 456.753 522.445C452.505 520.198 448.031 518.408 443.406 517.106C443.344 517.081 443.292 517.036 443.258 516.979C443.224 516.921 443.209 516.854 443.217 516.787C443.224 516.721 443.253 516.659 443.3 516.61C443.346 516.562 443.407 516.53 443.473 516.519Z" fill="#263238"/>
<path d="M439.707 517.974C444.579 517.974 450.224 519.656 453.227 523.66C453.347 523.807 453.12 523.98 452.987 523.9C448.74 521.652 444.266 519.862 439.64 518.561C439.578 518.536 439.526 518.491 439.492 518.434C439.458 518.376 439.444 518.309 439.451 518.242C439.459 518.176 439.488 518.114 439.534 518.065C439.58 518.017 439.641 517.985 439.707 517.974Z" fill="#263238"/>
<path d="M435.943 519.456C440.815 519.456 446.447 521.137 449.464 525.141C449.584 525.288 449.357 525.448 449.21 525.382C444.965 523.13 440.49 521.34 435.863 520.043C435.801 520.017 435.749 519.971 435.716 519.912C435.683 519.853 435.669 519.785 435.679 519.719C435.688 519.652 435.719 519.59 435.766 519.542C435.814 519.495 435.877 519.464 435.943 519.456Z" fill="#263238"/>
<path d="M432.18 520.884C437.051 520.884 442.684 522.565 445.7 526.556C445.82 526.716 445.593 526.876 445.446 526.81C441.204 524.553 436.729 522.763 432.1 521.471C432.038 521.445 431.986 521.399 431.952 521.34C431.919 521.282 431.906 521.214 431.915 521.147C431.924 521.08 431.955 521.018 432.003 520.97C432.051 520.923 432.113 520.892 432.18 520.884Z" fill="#263238"/>
<path d="M486.288 526.342C491.747 526.342 491.707 534.858 486.222 534.831C480.736 534.804 480.803 526.302 486.288 526.342Z" fill="#263238"/>
<path d="M438.614 510.646C441.283 514.05 445.287 516.199 448.69 518.655C448.772 518.701 448.862 518.727 448.956 518.732C449.049 518.736 449.142 518.719 449.228 518.682C449.313 518.644 449.389 518.587 449.448 518.515C449.508 518.443 449.55 518.358 449.571 518.267C449.59 518.272 449.61 518.272 449.629 518.267C449.648 518.262 449.665 518.253 449.68 518.239C449.694 518.226 449.705 518.21 449.712 518.191C449.719 518.173 449.721 518.153 449.718 518.134C449.375 513.663 447.866 509.36 445.34 505.655C443.832 503.533 440.722 501.517 438.253 503.559C435.784 505.601 437.092 508.658 438.614 510.646ZM438.4 506.642C438.907 501.304 443.672 505.428 444.726 507.043C445.391 508.096 445.984 509.193 446.501 510.326C447.596 512.675 448.357 515.131 449.171 517.56C447.542 516.225 445.821 515.131 444.152 513.903C442.204 512.422 438.133 509.525 438.4 506.616V506.642Z" fill="#263238"/>
<path d="M467.03 515.038C466.656 511.848 463.026 511.154 460.463 511.634C456.057 512.539 451.968 514.592 448.612 517.587C448.595 517.598 448.582 517.613 448.572 517.63C448.563 517.648 448.558 517.667 448.558 517.687C448.558 517.707 448.563 517.726 448.572 517.744C448.582 517.761 448.595 517.776 448.612 517.787C448.563 517.867 448.533 517.957 448.525 518.051C448.518 518.144 448.532 518.238 448.567 518.325C448.602 518.412 448.657 518.489 448.727 518.551C448.797 518.613 448.881 518.658 448.972 518.681C453.136 519.335 457.5 520.563 461.745 519.923C464.294 519.549 467.377 518.041 467.03 515.038ZM455.552 518.388C453.496 518.107 451.468 517.734 449.399 517.534C451.708 516.386 453.95 515.144 456.379 514.224C457.533 513.755 458.72 513.371 459.93 513.076C461.812 512.635 468.071 512.996 464.761 517.16C462.946 519.455 457.954 518.721 455.552 518.388Z" fill="#263238"/>
<path d="M572.427 289.411C572.427 289.411 516.077 385.294 514.569 392.021C512.247 402.364 499.954 504.507 499.954 504.507L441.309 503.439C441.309 503.439 451.425 413.375 460.995 383.705C467.895 362.351 517.625 291.453 517.625 291.453L572.427 289.411Z" fill="#16B99B"/>
<path d="M446.648 494.47C455.07 494.47 484.913 494.07 496.124 495.111C496.146 495.111 496.166 495.119 496.181 495.134C496.196 495.149 496.204 495.17 496.204 495.191C496.204 495.212 496.196 495.233 496.181 495.248C496.166 495.263 496.146 495.271 496.124 495.271C492.254 495.832 455.056 494.964 446.648 494.697C446.63 494.703 446.61 494.705 446.591 494.703C446.572 494.7 446.554 494.693 446.539 494.682C446.523 494.67 446.51 494.656 446.502 494.639C446.493 494.622 446.488 494.603 446.488 494.584C446.488 494.564 446.493 494.546 446.502 494.529C446.51 494.512 446.523 494.497 446.539 494.486C446.554 494.475 446.572 494.467 446.591 494.465C446.61 494.462 446.63 494.464 446.648 494.47Z" fill="#263238"/>
<path d="M562.819 298.206C559.122 303.999 555.225 309.671 551.448 315.424C547.671 321.176 543.907 326.915 540.197 332.694C532.758 344.261 525.506 355.931 518.441 367.703C515.003 373.12 512.063 378.838 509.659 384.787C507.433 390.755 505.762 396.916 504.668 403.192C503.52 409.478 502.759 415.831 501.998 422.184C501.242 428.955 500.486 435.722 499.729 442.485L495.098 484.006C494.898 485.701 494.711 487.397 494.551 489.105C494.551 489.345 494.965 489.399 495.005 489.105C496.726 475.358 498.154 461.557 499.729 447.73C500.503 440.87 501.282 434.014 502.065 427.163C502.786 420.783 503.48 414.403 504.467 408.063C505.385 401.812 506.768 395.637 508.605 389.591C510.63 383.329 513.347 377.313 516.706 371.653C523.5 359.935 530.694 348.417 537.888 336.952C545.082 325.487 552.462 313.809 560.043 302.424C560.991 301.009 561.925 299.608 562.9 298.233C563.073 298.206 562.886 298.099 562.819 298.206Z" fill="#263238"/>
<path d="M522.605 548.338C525.274 548.512 597.346 529.519 599.549 527.13C599.645 526.986 599.704 526.821 599.722 526.65C600.002 524.287 596.319 515.438 593.729 504.12C593.569 503.4 592.221 499.956 590.313 495.325C585.094 482.565 575.765 460.69 575.765 460.69L528.691 472.742L546.041 507.55L548.391 515.745C548.391 515.745 524.687 534.764 522.444 537.647C520.202 540.53 519.949 548.151 522.605 548.338Z" fill="#DD6A57"/>
<path d="M522.605 548.338C525.274 548.512 597.346 529.519 599.549 527.13C599.645 526.986 599.704 526.821 599.722 526.65C600.002 524.287 596.319 515.438 593.729 504.12C593.569 503.399 592.221 499.956 590.313 495.325L546.041 507.55L548.391 515.745C548.391 515.745 524.687 534.764 522.444 537.647C520.202 540.53 519.949 548.151 522.605 548.338Z" fill="white"/>
<path d="M522.618 548.325C525.288 548.511 597.36 529.519 599.549 527.13C600.403 526.236 598.535 516.453 593.743 504.12L548.364 515.745C548.364 515.745 524.687 534.764 522.445 537.647C520.202 540.53 519.949 548.151 522.618 548.325Z" fill="#16B99B"/>
<path d="M522.899 545.255C534.591 541.918 582.119 529.519 593.944 527.103C594.037 527.103 594.051 527.103 593.944 527.183C582.426 530.747 534.805 542.759 522.926 545.455C522.686 545.508 522.646 545.335 522.899 545.255Z" fill="#263238"/>
<path d="M526.315 533.937C527.617 533.567 528.981 533.469 530.322 533.651C531.663 533.832 532.953 534.288 534.109 534.991C536.198 536.241 537.723 538.249 538.367 540.597C538.367 540.663 538.26 540.703 538.22 540.597C537.218 538.367 535.52 536.523 533.38 535.342C531.241 534.16 528.776 533.704 526.355 534.043C526.248 534.137 526.222 533.977 526.315 533.937Z" fill="#263238"/>
<path d="M544.134 518.121C548.832 516.786 554.731 517.066 558.668 520.163C558.815 520.283 558.669 520.497 558.482 520.47C553.803 519.375 549.019 518.788 544.214 518.722C544.141 518.719 544.071 518.691 544.017 518.643C543.963 518.594 543.928 518.527 543.919 518.455C543.909 518.383 543.925 518.31 543.965 518.248C544.004 518.187 544.064 518.142 544.134 518.121Z" fill="#263238"/>
<path d="M540.862 520.47C545.56 519.135 551.46 519.429 555.397 522.512C555.544 522.632 555.397 522.859 555.21 522.819C550.531 521.724 545.748 521.137 540.942 521.071C540.87 521.069 540.8 521.041 540.746 520.992C540.692 520.943 540.657 520.877 540.647 520.804C540.638 520.732 540.654 520.659 540.693 520.598C540.733 520.536 540.793 520.491 540.862 520.47Z" fill="#263238"/>
<path d="M537.593 522.832C542.291 521.498 548.19 521.791 552.127 524.888C552.274 524.994 552.127 525.221 551.941 525.181C547.257 524.085 542.469 523.499 537.66 523.433C537.588 523.428 537.52 523.398 537.468 523.348C537.416 523.298 537.383 523.232 537.375 523.16C537.367 523.089 537.384 523.017 537.424 522.957C537.464 522.897 537.524 522.853 537.593 522.832Z" fill="#263238"/>
<path d="M534.323 525.195C539.021 523.86 544.921 524.153 548.845 527.25C549.005 527.37 548.844 527.584 548.671 527.544C543.988 526.448 539.199 525.862 534.39 525.795C534.318 525.79 534.25 525.76 534.198 525.711C534.146 525.661 534.113 525.594 534.105 525.523C534.097 525.451 534.115 525.379 534.155 525.319C534.195 525.259 534.254 525.215 534.323 525.195Z" fill="#263238"/>
<path d="M588.044 516.693C593.382 515.358 595.451 523.566 590.152 524.928C584.854 526.289 582.732 518.121 588.044 516.693Z" fill="#263238"/>
<path d="M537.953 513.663C541.343 516.332 545.761 517.333 549.711 518.788C549.801 518.811 549.896 518.812 549.986 518.793C550.077 518.773 550.162 518.732 550.235 518.674C550.307 518.616 550.365 518.542 550.404 518.457C550.443 518.373 550.462 518.28 550.459 518.188C550.479 518.186 550.499 518.181 550.517 518.171C550.534 518.161 550.55 518.147 550.561 518.13C550.573 518.114 550.581 518.094 550.584 518.074C550.587 518.054 550.585 518.034 550.579 518.014C549.108 513.781 546.554 510.008 543.171 507.07C541.156 505.401 537.646 504.24 535.777 506.843C533.909 509.445 535.964 512.128 537.953 513.663ZM536.712 509.806C535.857 504.561 541.503 507.297 542.931 508.591C543.842 509.444 544.694 510.359 545.48 511.327C547.075 513.346 548.568 515.444 549.952 517.614C548.043 516.786 546.094 516.119 544.159 515.358C541.863 514.45 537.192 512.702 536.698 509.806H536.712Z" fill="#263238"/>
<path d="M566.542 510.66C565.367 507.684 561.684 507.924 559.335 509.045C555.321 511.048 551.905 514.072 549.431 517.814C549.417 517.825 549.406 517.84 549.398 517.856C549.391 517.872 549.387 517.89 549.387 517.908C549.387 517.925 549.391 517.943 549.398 517.959C549.406 517.975 549.417 517.99 549.431 518.001C549.404 518.091 549.399 518.185 549.415 518.278C549.431 518.37 549.468 518.457 549.524 518.532C549.58 518.607 549.652 518.668 549.736 518.711C549.819 518.753 549.912 518.775 550.005 518.775C554.196 518.348 558.734 518.415 562.671 516.72C565.047 515.732 567.65 513.49 566.542 510.66ZM556.305 516.786C554.236 517.053 552.181 517.2 550.139 517.534C552.074 515.839 553.929 514.064 556.025 512.555C557.029 511.814 558.081 511.141 559.174 510.54C560.883 509.646 567.036 508.391 564.9 513.209C563.712 515.986 558.747 516.533 556.305 516.786Z" fill="#263238"/>
<path d="M542.838 505.321L595.517 491.494C595.517 491.494 545.08 392.221 545.494 385.361C545.854 379.288 582.438 326.008 584.466 316.038C587.776 299.714 579.822 285.14 572.121 276.104L517.626 291.466C520.553 297.43 524.753 302.679 529.931 306.842C529.931 306.842 495.684 364.032 494.816 382.838C493.949 401.644 542.838 505.321 542.838 505.321Z" fill="#16B99B"/>
<path d="M541.824 495.498C549.472 493.309 547.243 493.83 554.917 491.734C558.668 490.707 583.332 483.967 586.949 483.62C587.029 483.62 587.056 483.74 586.949 483.766C583.586 485.288 558.814 491.588 555.037 492.549C547.336 494.511 549.525 493.883 541.797 495.725C541.744 495.765 541.691 495.552 541.824 495.498Z" fill="#263238"/>
<path d="M521.564 304.653C526.803 306.586 531.867 308.966 536.699 311.767C536.731 311.791 536.754 311.825 536.763 311.864C536.773 311.903 536.768 311.944 536.751 311.98C536.734 312.017 536.705 312.046 536.668 312.063C536.632 312.08 536.591 312.084 536.552 312.074C531.467 309.845 526.275 307.723 521.323 305.24C521.257 305.201 521.206 305.14 521.181 305.067C521.156 304.993 521.159 304.914 521.188 304.842C521.217 304.771 521.271 304.712 521.34 304.677C521.409 304.643 521.489 304.634 521.564 304.653Z" fill="#263238"/>
<path d="M527.972 303.305C528.36 304.261 528.686 305.242 528.946 306.241C529.225 307.015 529.357 307.834 529.333 308.657C529.333 308.804 529.093 308.817 529.013 308.657C528.553 307.932 528.211 307.139 527.998 306.308C527.665 305.4 527.304 304.493 527.011 303.638C526.966 303.511 526.975 303.371 527.033 303.25C527.092 303.128 527.197 303.035 527.324 302.991C527.452 302.947 527.591 302.955 527.713 303.014C527.834 303.073 527.927 303.177 527.972 303.305Z" fill="#263238"/>
<path d="M527.97 298.366C527.757 297.539 527.53 296.698 527.303 295.87C527.076 295.043 526.756 294.149 526.582 293.281C526.582 293.134 526.342 293.201 526.369 293.281C526.582 294.122 526.689 295.003 526.836 295.857C526.983 296.711 527.143 297.552 527.316 298.406C527.637 300.001 528.037 301.578 528.518 303.131C527.662 303.067 526.832 302.811 526.088 302.384C525.365 301.782 524.847 300.971 524.607 300.061C524.273 299.114 523.966 298.153 523.606 297.205C523.169 296.177 522.816 295.114 522.552 294.029C522.552 293.882 522.311 293.949 522.338 294.029C522.764 296.312 523.417 298.548 524.287 300.702C524.66 301.556 524.941 302.424 525.781 302.851C526.706 303.242 527.701 303.437 528.704 303.425C528.811 303.425 528.985 303.425 528.958 303.265C528.711 301.616 528.381 299.982 527.97 298.366Z" fill="#263238"/>
<path d="M528.879 308.71C526.81 312.461 524.434 316.051 522.205 319.708C519.977 323.365 517.988 326.915 515.959 330.586C511.884 337.98 508.12 345.543 504.668 353.275C502.959 357.092 501.349 360.949 499.836 364.847C498.212 368.748 496.873 372.763 495.832 376.859C494.862 380.924 494.68 385.138 495.298 389.271C496.056 393.48 497.131 397.625 498.515 401.67C501.34 410.998 504.778 420.129 508.805 429.005C508.939 429.298 509.433 429.071 509.326 428.778C506.443 420.649 503.453 412.561 500.877 404.34C498.368 396.332 495.392 388.097 496.78 379.635C497.542 375.568 498.7 371.585 500.237 367.743C501.705 363.739 503.293 359.882 504.961 356.024C508.271 348.403 511.995 341.009 515.786 333.629C517.908 329.491 520.15 325.42 522.299 321.296C524.448 317.172 526.57 312.901 528.972 308.897C529.132 308.697 528.946 308.577 528.879 308.71Z" fill="#263238"/>
<path d="M568.559 300.716C567.705 300.275 566.397 300.716 565.462 300.716C564.26 300.76 563.056 300.724 561.859 300.609C560.678 300.495 559.506 300.307 558.349 300.048C557.175 299.859 556.061 299.402 555.092 298.714C553.546 297.252 552.288 295.513 551.382 293.588C550.244 291.606 549.369 289.484 548.779 287.275C548.779 287.142 548.565 287.275 548.579 287.342C548.806 288.583 548.926 289.838 549.259 291.066C549.582 292.229 550.001 293.363 550.514 294.456C551.287 296.624 552.596 298.561 554.318 300.088C556.253 301.543 558.936 301.81 561.272 301.984C562.604 302.081 563.943 302.081 565.276 301.984C566.25 301.903 567.865 301.984 568.586 301.196C568.623 301.167 568.652 301.129 568.672 301.086C568.691 301.043 568.7 300.996 568.697 300.949C568.695 300.902 568.681 300.856 568.657 300.815C568.633 300.775 568.599 300.74 568.559 300.716Z" fill="#263238"/>
<path d="M582.438 480.11C575.809 466.603 569.332 453.011 563.005 439.335C556.679 425.659 550.49 411.881 544.44 398C542.781 394.746 541.461 391.329 540.503 387.803C539.675 383.933 540.876 380.449 542.505 376.979C545.557 370.643 548.966 364.485 552.715 358.534C556.425 352.528 560.336 346.669 564.193 340.769C568.202 335.004 571.878 329.015 575.204 322.831C578.361 317.001 579.687 310.354 579.008 303.759C578.154 297.085 575.271 290.853 572.188 284.98L569.705 280.335C569.705 280.215 569.465 280.335 569.532 280.442C572.975 286.608 576.285 293.081 577.887 299.995C578.719 303.412 578.976 306.944 578.648 310.446C578.22 313.987 577.219 317.436 575.685 320.656C572.828 326.955 568.838 332.748 565.007 338.527C561.177 344.306 557.226 350.286 553.476 356.252C549.654 362.232 546.152 368.412 542.985 374.764C541.39 377.548 540.288 380.586 539.728 383.746C539.355 387.229 540.623 390.579 541.971 393.729C547.83 407.463 553.983 421.077 560.256 434.637C566.529 448.197 573.015 461.758 579.609 475.225L582.118 480.31C582.238 480.523 582.545 480.323 582.438 480.11Z" fill="#263238"/>
<path d="M526.274 229.404C521.469 236.237 494.816 258.62 471.072 259.928C462.997 260.382 425.413 236.638 418.272 232.14C409.917 226.881 426.547 204.912 432.286 205.873C439.44 207.075 468.857 232.193 473.888 232.327C481.976 232.54 503.652 224.559 520.388 221.022C529.01 219.153 530.025 224.145 526.274 229.404Z" fill="#DD6A57"/>
<path d="M526.316 231.833C520.417 240.682 500.663 255.19 500.663 255.19L497.994 249.157L488.771 229.137C488.771 229.137 506.91 223.278 518.855 220.648C520.263 220.318 521.696 220.104 523.139 220.008C530.707 219.514 531.361 224.225 526.316 231.833Z" fill="#EBEBEB"/>
<path d="M503.8 225.707C504.036 226.54 504.148 227.403 504.134 228.269C504.155 229.135 504.042 230 503.8 230.832C503.356 229.152 503.356 227.386 503.8 225.707Z" fill="white"/>
<path d="M501.358 236.064C499.683 236.508 497.921 236.508 496.246 236.064C497.921 235.619 499.683 235.619 501.358 236.064Z" fill="white"/>
<path d="M527.25 221.743C526.417 221.978 525.553 222.09 524.688 222.076C523.821 222.097 522.957 221.985 522.125 221.743C523.804 221.298 525.571 221.298 527.25 221.743Z" fill="white"/>
<path d="M513.129 232.14C513.878 232.57 514.564 233.1 515.171 233.715C515.794 234.314 516.324 235.002 516.746 235.757C515.249 234.883 514.003 233.637 513.129 232.14Z" fill="white"/>
<path d="M503.332 244.339C504.081 244.769 504.768 245.299 505.374 245.914C505.997 246.513 506.527 247.201 506.949 247.956C506.198 247.535 505.51 247.009 504.907 246.394C504.288 245.787 503.758 245.095 503.332 244.339Z" fill="white"/>
<path d="M526.316 231.833C520.417 240.682 500.663 255.19 500.663 255.19L497.994 249.157C505.322 240.535 516.68 227.482 523.139 219.968C530.707 219.514 531.361 224.225 526.316 231.833Z" fill="#C7C7C7"/>
<path d="M504.254 251.186C502.732 247.502 495.912 232.62 494.217 229.51C494.097 229.284 493.937 229.31 494.03 229.51C496.998 236.911 500.362 244.146 504.107 251.186C504.16 251.266 504.294 251.186 504.254 251.186Z" fill="#263238"/>
<path d="M510.06 249.397C510.059 249.326 510.059 249.254 510.059 249.183C510.059 249.183 510.06 249.184 510.06 249.184V249.397Z" fill="#263238"/>
<path d="M514.729 294.242C517.399 296.124 520.775 298.927 537.913 297.966C538.98 297.899 540.061 297.793 541.156 297.632C557.452 295.11 578.78 279.321 580.008 278.173C580.008 278.173 560.789 234.436 530.772 217.352C527.062 215.243 520.095 217.352 516.011 220.608C514.542 221.769 510.365 231.286 510.325 239.414C510.285 247.542 512.047 292.374 514.729 294.242Z" fill="#EBEBEB"/>
<path d="M524.461 240.575C524.696 241.409 524.809 242.272 524.795 243.138C524.81 243.999 524.697 244.858 524.461 245.687C524.231 244.857 524.119 243.999 524.127 243.138C524.119 242.272 524.232 241.41 524.461 240.575Z" fill="white"/>
<path d="M531.361 269.938C531.806 271.617 531.806 273.384 531.361 275.063C530.916 273.384 530.916 271.617 531.361 269.938Z" fill="white"/>
<path d="M552.714 251.773C553.159 253.452 553.159 255.219 552.714 256.898C552.27 255.219 552.27 253.452 552.714 251.773Z" fill="white"/>
<path d="M513.676 266.054C513.911 266.888 514.024 267.751 514.01 268.617C514.024 269.478 513.912 270.337 513.676 271.166C513.446 270.336 513.334 269.478 513.342 268.617C513.334 267.751 513.447 266.889 513.676 266.054Z" fill="white"/>
<path d="M540.516 246.447C539.683 246.683 538.819 246.795 537.954 246.781C537.092 246.795 536.233 246.683 535.404 246.447C536.235 246.219 537.092 246.107 537.954 246.114C538.819 246.106 539.681 246.218 540.516 246.447Z" fill="white"/>
<path d="M558.655 269.177C556.98 269.622 555.218 269.622 553.543 269.177C555.218 268.732 556.98 268.732 558.655 269.177Z" fill="white"/>
<path d="M531.081 287.222C529.406 287.667 527.644 287.667 525.969 287.222C527.644 286.777 529.406 286.777 531.081 287.222Z" fill="white"/>
<path d="M563.192 283.739C562.362 283.967 561.504 284.079 560.643 284.072C559.777 284.08 558.915 283.968 558.08 283.739C558.913 283.503 559.777 283.391 560.643 283.405C561.504 283.391 562.363 283.503 563.192 283.739Z" fill="white"/>
<path d="M527.25 221.743C526.417 221.978 525.553 222.09 524.688 222.076C523.821 222.097 522.957 221.985 522.125 221.743C523.804 221.298 525.571 221.298 527.25 221.743Z" fill="white"/>
<path d="M536.152 225.066C537.649 225.94 538.895 227.186 539.769 228.683C539.012 228.265 538.324 227.734 537.727 227.108C537.105 226.509 536.574 225.82 536.152 225.066Z" fill="white"/>
<path d="M562.793 253.575C564.29 254.449 565.536 255.695 566.41 257.192C564.905 256.328 563.657 255.079 562.793 253.575Z" fill="white"/>
<path d="M520.189 256.631C521.687 257.505 522.932 258.751 523.806 260.248C523.05 259.83 522.361 259.299 521.764 258.673C521.142 258.074 520.611 257.386 520.189 256.631Z" fill="white"/>
<path d="M544.627 277.225C545.378 277.652 546.065 278.182 546.669 278.8C547.292 279.4 547.822 280.088 548.244 280.842C547.493 280.421 546.805 279.895 546.202 279.281C545.587 278.669 545.057 277.978 544.627 277.225Z" fill="white"/>
<path d="M513.129 232.14C513.878 232.57 514.564 233.1 515.171 233.715C515.794 234.314 516.324 235.002 516.746 235.757C515.249 234.883 514.003 233.637 513.129 232.14Z" fill="white"/>
<path d="M510.967 251.773C511.393 251.022 511.923 250.334 512.542 249.731C513.148 249.116 513.835 248.587 514.584 248.156C514.162 248.915 513.632 249.607 513.009 250.212C512.405 250.826 511.718 251.352 510.967 251.773Z" fill="white"/>
<path d="M568.811 273.555C569.235 272.803 569.766 272.115 570.385 271.513C570.992 270.898 571.679 270.368 572.428 269.938C572.01 270.699 571.479 271.392 570.853 271.993C570.249 272.608 569.562 273.134 568.811 273.555Z" fill="white"/>
<path d="M514.115 282.283C514.989 280.786 516.235 279.541 517.732 278.667C517.311 279.425 516.78 280.118 516.157 280.722C515.554 281.336 514.866 281.862 514.115 282.283Z" fill="white"/>
<path d="M546.775 240.268C547.197 239.517 547.722 238.829 548.337 238.226C548.941 237.603 549.634 237.072 550.392 236.651C549.518 238.148 548.272 239.394 546.775 240.268Z" fill="white"/>
<path d="M538.674 295.003C539.095 294.249 539.626 293.561 540.249 292.961C540.855 292.346 541.542 291.817 542.291 291.386C541.873 292.143 541.342 292.832 540.716 293.428C540.116 294.051 539.428 294.582 538.674 295.003Z" fill="white"/>
<path d="M538.701 262.05C539.575 260.553 540.821 259.307 542.318 258.433C541.464 259.945 540.214 261.196 538.701 262.05Z" fill="white"/>
<path d="M520.362 232.14C524.513 231.953 529.505 224.132 530.759 218.526C529.881 215.855 528.866 213.231 527.716 210.665C526.742 208.143 525.714 205.326 524.954 202.657C524.807 202.11 523.232 203.645 523.232 203.645L520.042 205.446L509.498 211.426C511.389 214.464 512.899 217.723 513.996 221.129C514.099 221.495 514.166 221.871 514.196 222.25C514.196 222.25 514.196 222.37 514.196 222.437C514.476 224.612 516.345 232.313 520.362 232.14Z" fill="#DD6A57"/>
<path d="M514.195 222.263C514.195 222.263 514.195 222.383 514.195 222.45C514.785 222.373 515.366 222.239 515.931 222.05C527.035 218.62 524.379 204.005 524.379 204.005L520.015 205.46L509.471 211.439C511.362 214.477 512.872 217.736 513.969 221.142C514.081 221.508 514.157 221.883 514.195 222.263Z" fill="#263238"/>
<path d="M526.023 186.214C528.105 192.273 525.476 210.064 521.258 214.148C515.145 220.074 504.841 220.982 499.73 213.561C494.765 206.367 498.595 183.251 503.333 179.514C510.26 173.988 522.9 177.271 526.023 186.214Z" fill="#DD6A57"/>
<path d="M509.526 198.279C509.526 198.279 509.606 198.359 509.592 198.399C509.392 199.601 509.352 201.069 510.38 201.549C510.38 201.549 510.38 201.629 510.38 201.616C509.058 201.242 509.125 199.387 509.526 198.279Z" fill="#263238"/>
<path d="M510.765 197.185C512.714 197.318 512.314 201.189 510.512 201.082C508.71 200.975 509.137 197.078 510.765 197.185Z" fill="#263238"/>
<path d="M502.144 197.358C502.144 197.358 502.051 197.358 502.037 197.465C501.957 198.666 501.65 200.041 500.529 200.321V200.388C501.877 200.348 502.264 198.519 502.144 197.358Z" fill="#263238"/>
<path d="M501.198 195.997C499.276 195.65 498.729 199.52 500.504 199.84C502.279 200.161 502.813 196.277 501.198 195.997Z" fill="#263238"/>
<path d="M512.487 195.57C511.99 195.365 511.504 195.134 511.032 194.876C510.496 194.7 510.028 194.359 509.698 193.901C509.622 193.733 509.605 193.545 509.648 193.366C509.692 193.187 509.794 193.028 509.938 192.914C510.252 192.729 510.609 192.632 510.972 192.632C511.336 192.632 511.693 192.729 512.007 192.914C512.708 193.189 513.279 193.718 513.608 194.395C513.678 194.554 513.698 194.73 513.668 194.901C513.638 195.071 513.557 195.229 513.438 195.355C513.318 195.48 513.164 195.567 512.995 195.606C512.826 195.644 512.649 195.631 512.487 195.57Z" fill="#263238"/>
<path d="M499.901 193.875C500.435 193.827 500.966 193.747 501.49 193.635C502.057 193.633 502.607 193.44 503.051 193.087C503.162 192.941 503.221 192.763 503.221 192.58C503.221 192.397 503.162 192.219 503.051 192.073C502.799 191.806 502.481 191.612 502.13 191.508C501.778 191.405 501.405 191.397 501.049 191.486C500.308 191.549 499.618 191.887 499.114 192.433C498.999 192.569 498.928 192.736 498.911 192.913C498.893 193.09 498.929 193.268 499.014 193.424C499.099 193.579 499.23 193.706 499.388 193.786C499.546 193.867 499.725 193.898 499.901 193.875Z" fill="#263238"/>
<path d="M509.431 209.17C509.111 209.424 508.79 209.784 508.35 209.784C507.902 209.724 507.471 209.575 507.082 209.344C507.229 209.598 507.441 209.808 507.697 209.951C507.953 210.094 508.243 210.166 508.537 210.158C508.787 210.113 509.019 209.997 509.206 209.825C509.393 209.652 509.527 209.43 509.591 209.184C509.591 209.184 509.484 209.144 509.431 209.17Z" fill="#263238"/>
<path d="M508.537 205.433C508.183 205.879 507.74 206.247 507.237 206.513C506.734 206.78 506.181 206.939 505.614 206.981C505.118 207.022 504.62 206.995 504.132 206.901H503.852L503.585 206.835C503.524 206.813 503.471 206.773 503.433 206.721C503.394 206.669 503.373 206.606 503.371 206.541C503.365 206.501 503.365 206.461 503.371 206.421V206.327C503.452 205.393 503.678 203.992 503.678 203.992C503.331 204.125 501.516 204.726 501.596 204.245C502.134 200.074 503.095 195.969 504.466 191.993C504.466 191.965 504.477 191.938 504.497 191.917C504.517 191.897 504.544 191.886 504.573 191.886C504.601 191.886 504.628 191.897 504.648 191.917C504.668 191.938 504.679 191.965 504.679 191.993C504.199 195.85 503.051 199.601 502.517 203.458C503.16 203.242 503.829 203.111 504.506 203.071C504.639 203.071 504.012 205.74 504.012 206.194C504.763 206.35 505.539 206.353 506.291 206.201C507.043 206.05 507.757 205.748 508.39 205.313C508.537 205.26 508.67 205.353 508.537 205.433Z" fill="#263238"/>
<path d="M504.666 206.487C505.11 207.202 505.73 207.79 506.468 208.196C506.88 208.404 507.346 208.479 507.803 208.409C508.79 208.262 508.897 207.382 508.804 206.607C508.748 206.197 508.645 205.793 508.497 205.406C507.368 206.167 506.026 206.546 504.666 206.487Z" fill="#263238"/>
<path d="M506.521 208.195C506.933 208.404 507.4 208.479 507.856 208.409C508.844 208.262 508.951 207.381 508.857 206.607C508.345 206.566 507.835 206.702 507.41 206.99C506.985 207.279 506.672 207.704 506.521 208.195Z" fill="#FF99BA"/>
<path d="M524.421 201.055C521.364 200.788 521.871 193.287 521.871 193.287C521.871 193.287 517.213 192.313 515.105 185.813C515.105 185.813 508.965 189.43 503.933 188.362C496.059 186.694 496.566 176.35 499.596 174.388C503.88 171.546 511.247 176.083 511.247 176.083C511.247 176.083 522.659 173.254 525.809 181.022C527.273 181.166 528.627 181.862 529.598 182.967C530.569 184.072 531.085 185.504 531.041 186.974C531.227 192.567 526.703 201.255 524.421 201.055Z" fill="#263238"/>
<path d="M522.937 194.195C520.673 193.74 518.625 192.543 517.118 190.792C516.313 189.841 515.747 188.711 515.468 187.496C515.19 186.282 515.206 185.018 515.517 183.811C515.509 183.791 515.495 183.773 515.477 183.761C515.46 183.748 515.438 183.742 515.417 183.742C515.395 183.742 515.373 183.748 515.356 183.761C515.338 183.773 515.324 183.791 515.316 183.811C514.924 185.07 514.814 186.399 514.994 187.705C515.174 189.01 515.64 190.26 516.357 191.366C517.081 192.416 518.07 193.257 519.223 193.803C520.376 194.349 521.653 194.581 522.924 194.475C522.961 194.477 522.998 194.464 523.025 194.439C523.053 194.414 523.069 194.379 523.071 194.342C523.073 194.305 523.06 194.268 523.035 194.241C523.01 194.213 522.975 194.197 522.937 194.195Z" fill="#263238"/>
<path d="M531.547 183.718C530.039 181.689 527.664 181.316 525.314 181.329C525.181 181.329 525.181 181.556 525.314 181.543C526.488 181.532 527.642 181.838 528.656 182.427C529.671 183.017 530.508 183.868 531.08 184.893C531.542 185.86 531.804 186.91 531.852 187.981C531.901 189.051 531.733 190.121 531.361 191.125C530.349 195.067 527.909 198.492 524.514 200.735C524.514 200.735 524.514 200.869 524.514 200.829C526.443 199.691 528.121 198.172 529.443 196.363C530.764 194.555 531.703 192.495 532.201 190.311C532.695 188.189 532.922 185.587 531.547 183.718Z" fill="#263238"/>
<path d="M511.54 176.444C510.591 174.81 509.077 173.58 507.283 172.987C505.101 172.328 502.752 172.499 500.689 173.468C499.867 173.875 499.168 174.495 498.664 175.261C498.16 176.028 497.868 176.915 497.82 177.832C497.763 179.963 498.436 182.049 499.728 183.745C499.728 183.745 499.835 183.745 499.808 183.745C498.781 182.159 498.268 180.294 498.34 178.406C498.387 177.502 498.689 176.63 499.211 175.891C499.733 175.151 500.454 174.575 501.29 174.228C504.587 172.894 509.298 173.254 511.367 176.617C511.433 176.697 511.607 176.577 511.54 176.444Z" fill="#263238"/>
<path d="M522.686 200.748C522.686 200.748 526.597 194.982 529.212 196.37C531.828 197.759 528.946 206.087 525.916 207.261C525.537 207.438 525.127 207.537 524.71 207.551C524.293 207.566 523.877 207.497 523.487 207.347C523.097 207.198 522.741 206.971 522.441 206.681C522.141 206.392 521.902 206.044 521.738 205.66L522.686 200.748Z" fill="#DD6A57"/>
<path d="M322.47 321.55H484.633V207.996H322.47V321.55Z" fill="#263238"/>
<path d="M354.85 253.708C362.273 253.708 368.291 247.691 368.291 240.268C368.291 232.845 362.273 226.828 354.85 226.828C347.428 226.828 341.41 232.845 341.41 240.268C341.41 247.691 347.428 253.708 354.85 253.708Z" fill="#16B99B"/>
<path d="M394.463 296.845H484.647L439.548 235.717L394.463 296.845Z" fill="#C7C7C7"/>
<path d="M359.121 297.125H433.569L396.345 257.338L359.121 297.125Z" fill="white"/>
<path d="M484.62 297.072H322.457V321.536H484.62V297.072Z" fill="#16B99B"/>
<path d="M541.25 231.166C545.455 242.924 539.449 286.061 532.335 295.15C521.778 308.684 500.917 321.136 492.935 325.02C489.465 326.715 473.836 301.743 477.239 299.408C484.54 294.389 507.857 282.431 509.832 280.055C511.808 277.679 522.432 254.856 526.689 242.003C532.402 224.759 539.128 225.2 541.25 231.166Z" fill="#DD6A57"/>
<path d="M492.922 325.087C481.858 331.4 459.849 330.425 456.886 329.544C454.337 328.784 453.015 328.357 453.015 328.357C448.397 327.022 447.156 324.499 447.156 324.499C447.156 324.499 441.377 324.579 440.75 321.083C440.042 317.185 448.291 317.839 453.055 315.424C463.973 309.898 477.947 298.98 480.937 297.072L492.922 325.087Z" fill="#DD6A57"/>
<path d="M468.536 317.666C465.361 319.328 462.074 320.769 458.7 321.977C454.929 323.062 451.084 323.869 447.195 324.393C447.17 324.393 447.146 324.403 447.129 324.42C447.111 324.438 447.102 324.461 447.102 324.486C447.102 324.511 447.111 324.535 447.129 324.552C447.146 324.57 447.17 324.58 447.195 324.58C454.814 324.357 462.227 322.054 468.63 317.92C468.646 317.898 468.657 317.873 468.661 317.846C468.665 317.82 468.662 317.792 468.653 317.767C468.643 317.742 468.628 317.719 468.608 317.702C468.587 317.684 468.563 317.672 468.536 317.666Z" fill="#263238"/>
<path d="M472.821 323.779C466.521 326.426 459.802 327.935 452.975 328.237C459.907 328.72 466.838 327.269 472.995 324.046C473.142 324.006 473.048 323.685 472.821 323.779Z" fill="#263238"/>
<path d="M465.748 307.936C466.882 306.602 466.228 306.041 463.225 306.602C460.222 307.162 448.824 311.847 447.516 307.736C446.208 303.625 462.398 297.219 467.456 296.685C472.029 296.449 476.613 296.583 481.164 297.085C478.267 298.954 471.394 304.172 465.748 307.936Z" fill="#DD6A57"/>
<path d="M529.491 234.102C536.872 218.593 543.599 222.704 544.173 238.106C544.397 248.767 543.925 259.432 542.758 270.031L516.064 262.37L529.491 234.102Z" fill="#EBEBEB"/>
<path d="M524.461 240.575C524.696 241.409 524.809 242.272 524.795 243.138C524.81 243.999 524.697 244.858 524.461 245.687C524.231 244.857 524.119 243.999 524.127 243.138C524.119 242.272 524.232 241.41 524.461 240.575Z" fill="white"/>
<path d="M540.516 246.447C539.683 246.683 538.819 246.795 537.954 246.781C537.092 246.795 536.233 246.683 535.404 246.447C536.235 246.219 537.092 246.107 537.954 246.114C538.819 246.106 539.681 246.218 540.516 246.447Z" fill="white"/>
<path d="M536.152 225.066C537.649 225.94 538.895 227.186 539.769 228.683C539.012 228.265 538.324 227.734 537.727 227.108C537.105 226.509 536.574 225.82 536.152 225.066Z" fill="white"/>
<path d="M520.189 256.631C521.687 257.505 522.932 258.751 523.806 260.248C523.05 259.83 522.361 259.299 521.764 258.673C521.142 258.074 520.611 257.386 520.189 256.631Z" fill="white"/>
<path d="M538.701 262.05C539.575 260.553 540.821 259.307 542.318 258.433C541.464 259.945 540.214 261.196 538.701 262.05Z" fill="white"/>
<path d="M526.941 238.84C525.94 240.869 524.886 242.844 523.832 244.886C524.018 243.925 524.165 242.977 524.272 242.003H524.205C524.045 242.764 523.872 243.511 523.725 244.272L523.525 245.366C523.518 245.446 523.518 245.527 523.525 245.607C522.711 247.168 521.896 248.743 521.136 250.331C520.215 252.227 519.347 254.135 518.466 256.057C517.585 257.979 516.771 260.315 515.797 262.25C516.637 262.593 517.509 262.852 518.4 263.024C518.64 263.118 518.76 262.877 518.506 262.851C518.253 262.824 516.277 262.01 516.251 261.997C517.118 260.061 518.213 258.233 519.147 256.338C520.081 254.442 521.015 252.56 521.896 250.638C523.712 246.755 525.3 242.777 527.088 238.88C527.035 238.813 526.955 238.787 526.941 238.84Z" fill="#263238"/>
<path d="M545.361 248.076C545.108 248.877 544.827 249.664 544.627 250.479L544.387 251.48C544.48 248.703 544.574 245.941 544.654 243.165C544.28 247.689 543.88 252.214 543.586 256.752C543.166 261.094 542.965 265.455 542.985 269.818C542.183 269.623 541.366 269.494 540.543 269.431C541.42 269.816 542.345 270.081 543.292 270.218C543.842 265.691 544.158 261.138 544.24 256.578C544.24 255.323 544.333 254.082 544.387 252.841C544.534 252.067 544.747 251.306 544.961 250.545C545.174 249.785 545.321 248.917 545.495 248.103C545.455 248.049 545.374 248.036 545.361 248.076Z" fill="#263238"/>
<path d="M541.717 265.867C537.953 264.532 522.351 259.607 518.907 258.766C518.667 258.7 518.574 258.766 518.814 258.927C526.296 261.702 533.924 264.068 541.664 266.014C541.682 266.016 541.7 266.012 541.715 266.003C541.731 265.993 541.743 265.979 541.749 265.962C541.755 265.945 541.755 265.926 541.75 265.909C541.744 265.891 541.732 265.877 541.717 265.867Z" fill="#263238"/>
<path d="M403.351 227.041C407.035 228.162 406.261 223.171 406.261 223.171C406.261 223.171 409.117 230.084 413.375 229.844C417.632 229.604 416.311 223.531 416.244 223.104C416.391 223.464 419.194 229.777 423.438 229.003C427.682 228.229 425.654 222.33 425.507 222.023C425.76 222.316 429.191 226.214 432.274 224.906C437.612 222.663 429.111 212.467 429.724 207.835L437.199 208.062C437.439 208.062 437.692 208.062 437.933 207.942L438.213 204.125C435.824 203.154 433.517 201.993 431.313 200.655C428.497 199.08 425.774 197.638 423.758 197.598C422.849 197.549 421.948 197.794 421.189 198.296C420.429 198.799 419.852 199.532 419.541 200.388C419.541 200.388 417.352 196.918 413.989 197.411C412.267 197.665 411.146 200.655 411.146 200.655C410.611 199.896 409.877 199.299 409.024 198.932C408.171 198.564 407.233 198.44 406.314 198.573C403.952 199.053 403.178 201.976 403.178 201.976C403.178 201.976 400.188 200.214 397.932 201.496C393.381 204.005 395.45 224.612 403.351 227.041Z" fill="#DD6A57"/>
<path d="M430.686 207.395L437.199 207.995C437.439 207.995 437.693 207.995 437.933 207.875C446.154 206.38 451.28 196.984 445.314 196.304C440.776 195.783 435.891 201.789 431.313 200.588L430.686 207.395Z" fill="#DD6A57"/>
<path d="M411.092 200.468C411.092 200.388 410.959 200.388 410.945 200.468C409.877 208.431 411.695 216.513 416.07 223.251C416.231 223.478 416.604 223.531 416.444 223.251C413.681 218.566 411.239 207.141 411.092 200.468Z" fill="#263238"/>
<path d="M425.987 222.317C421.783 215.643 420.114 208.369 419.487 200.615C419.487 200.508 419.34 200.535 419.313 200.615C418.593 204.499 419.514 209.397 420.541 213.147C421.438 216.663 423.237 219.883 425.76 222.49C425.92 222.557 426.08 222.45 425.987 222.317Z" fill="#263238"/>
</svg>
