<svg width="601" height="312" viewBox="0 0 601 312" fill="none" xmlns="http://www.w3.org/2000/svg">
<path d="M587.044 228.824L575.206 229.077L569.196 229.176C567.184 229.221 565.163 229.176 563.15 229.23H562.753V228.824L562.699 218.7V218.249H563.15L575.097 218.303C579.086 218.303 583.065 218.402 587.044 218.447H587.297V218.7C587.297 220.414 587.225 222.12 587.18 223.807L587.044 228.824ZM587.044 228.824L586.918 223.726C586.873 222.047 586.819 220.387 586.801 218.727L587.044 218.979C583.065 219.025 579.086 219.124 575.097 219.124L563.15 219.178L563.602 218.727V228.824L563.195 228.427C565.163 228.427 567.13 228.427 569.106 228.472L574.98 228.626L587.044 228.824Z" fill="#EBEBEB"/>
<path d="M573.715 241.557L561.876 241.809L555.858 241.909C553.854 241.909 551.833 241.909 549.821 241.963H549.424V241.557V231.459V231.008H549.875L561.822 231.071C565.801 231.071 569.79 231.171 573.769 231.216H574.022V231.459C574.022 233.174 573.95 234.879 573.904 236.567L573.715 241.557ZM573.715 241.557L573.589 236.458C573.544 234.78 573.489 233.12 573.471 231.459L573.715 231.712C569.736 231.757 565.747 231.856 561.768 231.856L549.821 231.911L550.272 231.459V241.557L549.866 241.16C551.833 241.16 553.8 241.16 555.776 241.205L561.705 241.313L573.715 241.557Z" fill="#EBEBEB"/>
<path d="M600.373 241.557L588.534 241.809L582.524 241.909C580.512 241.909 578.491 241.909 576.479 241.963H576.081V241.557L576.027 231.459V231.008H576.479L588.426 231.071C592.414 231.071 596.393 231.171 600.373 231.216H600.625V231.459C600.625 233.174 600.544 234.879 600.508 236.567L600.373 241.557ZM600.373 241.557L600.246 236.458C600.246 234.78 600.147 233.12 600.129 231.459L600.373 231.712C596.393 231.757 592.414 231.856 588.426 231.856L576.479 231.911L576.93 231.459V241.557L576.524 241.16C578.5 241.16 580.458 241.16 582.434 241.205L588.371 241.313L600.373 241.557Z" fill="#EBEBEB"/>
<path d="M246.336 108.676L234.497 108.929L228.487 109.028C226.475 109.028 224.454 109.028 222.441 109.028H222.044V108.622L221.99 98.5249V98.0737H222.441L234.388 98.1279C238.377 98.1279 242.356 98.2271 246.336 98.2722H246.588V98.5159C246.588 100.23 246.507 101.927 246.462 103.614L246.336 108.676ZM246.336 108.676L246.209 103.569C246.209 101.891 246.11 100.23 246.092 98.579L246.336 98.8227C242.356 98.8227 238.377 98.967 234.388 98.967L222.441 99.0302L222.893 98.579L222.847 108.676L222.441 108.27C224.409 108.27 226.376 108.27 228.352 108.324L234.289 108.424L246.336 108.676Z" fill="#EBEBEB"/>
<path d="M232.989 121.409L221.151 121.662L215.132 121.761C213.129 121.761 211.107 121.761 209.095 121.806H208.698V121.4L208.626 111.321V110.87H209.077L221.024 110.924C225.004 110.924 228.992 111.023 232.971 111.068H233.224V111.321C233.224 113.035 233.152 114.732 233.107 116.419L232.989 121.409ZM232.989 121.409L232.863 116.302C232.818 114.623 232.764 112.963 232.746 111.312L232.989 111.555C229.01 111.601 225.022 111.7 221.042 111.7L209.095 111.763L209.546 111.312L209.528 121.409L209.122 121.003C211.089 121.003 213.057 121.003 215.033 121.057L220.961 121.156L232.989 121.409Z" fill="#EBEBEB"/>
<path d="M259.663 121.409L247.824 121.662L241.814 121.761C239.802 121.761 237.79 121.761 235.769 121.806H235.372V121.4L235.317 111.321V110.87H235.769L247.716 110.924C251.704 110.924 255.683 111.023 259.663 111.068H259.915V111.321C259.915 113.035 259.834 114.732 259.798 116.419L259.663 121.409ZM259.663 121.409L259.536 116.302C259.536 114.623 259.437 112.963 259.419 111.312L259.663 111.555C255.683 111.601 251.704 111.7 247.716 111.7L235.769 111.763L236.22 111.312L236.175 121.409L235.769 121.003C237.745 121.003 239.703 121.003 241.679 121.057L247.616 121.156L259.663 121.409Z" fill="#EBEBEB"/>
<path d="M51.5099 175.486L39.6712 175.739L33.6525 175.838C31.6493 175.838 29.6281 175.838 27.6158 175.883H27.2549V175.477V165.38V164.929H27.7061L39.6531 164.983C43.6325 164.983 47.6208 165.082 51.6002 165.127H51.8528V165.371C51.8528 167.085 51.7806 168.782 51.7355 170.469L51.5099 175.486ZM51.5099 175.486L51.3836 170.379C51.3836 168.701 51.2844 167.04 51.2663 165.389L51.5099 165.633C47.5306 165.678 43.5422 165.777 39.5629 165.777L27.6158 165.84L28.067 165.389L28.0219 175.486L27.6158 175.08C29.5829 175.08 31.55 175.08 33.5262 175.134L39.4546 175.234L51.5099 175.486Z" fill="#EBEBEB"/>
<path d="M447.623 108.667L435.784 108.92L429.774 109.019C427.762 109.064 425.741 109.019 423.729 109.064H423.331V108.658L423.277 98.561V98.1099H423.729L435.676 98.164C439.664 98.164 443.643 98.2723 447.623 98.3174H447.875V98.561C447.875 100.275 447.803 101.981 447.758 103.659L447.623 108.667ZM447.623 108.667L447.496 103.569C447.451 101.882 447.397 100.221 447.379 98.5701L447.623 98.8137C443.643 98.8588 439.664 98.9581 435.676 98.9671L423.729 99.0212L424.18 98.5701L424.135 108.667L423.729 108.261C425.696 108.261 427.663 108.261 429.639 108.315L435.576 108.415L447.623 108.667Z" fill="#EBEBEB"/>
<path d="M585.662 10.6002L573.823 10.8528L567.805 10.9521C565.802 10.9521 563.78 10.9521 561.768 11.0062H561.371V10.6002V0.502931V0.0517578H561.822L573.769 0.1059C577.749 0.1059 581.737 0.21418 585.716 0.259297H585.969V0.502931C585.969 2.21739 585.897 3.92282 585.852 5.60119L585.662 10.6002ZM585.662 10.6002L585.536 5.50193C585.491 3.81454 585.437 2.15422 585.419 0.502931L585.662 0.746565C581.683 0.746565 577.695 0.890942 573.715 0.899965L561.768 0.954104L562.219 0.502931L562.174 10.6002L561.768 10.1941C563.735 10.1941 565.702 10.1941 567.678 10.2483L573.607 10.3475L585.662 10.6002Z" fill="#EBEBEB"/>
<path d="M598.991 23.3328L587.152 23.5855L581.142 23.6848C579.13 23.7299 577.109 23.6848 575.097 23.7299H574.7V23.3238L574.646 13.2266V12.7754H575.097L587.044 12.8295C591.032 12.8295 595.011 12.9378 598.991 12.9829H599.243V13.2266C599.243 14.941 599.162 16.6465 599.117 18.3248L598.991 23.3328ZM598.991 23.3328L598.864 18.2346C598.864 16.5472 598.765 14.8869 598.747 13.2356L598.991 13.4792C595.011 13.5243 591.032 13.6236 587.044 13.6326L575.097 13.6868L575.548 13.2356V23.3328L575.142 22.9268C577.109 22.9268 579.076 22.9268 581.052 22.9809L586.99 23.0802L598.991 23.3328Z" fill="#EBEBEB"/>
<path d="M24.8549 10.6099L13.0071 10.8626L6.99744 10.9619C4.99423 10.9619 2.97298 10.9619 0.960744 11.016H0.554688V10.6099V0.512696V0.0615234H1.01488L12.9619 0.124687C16.9413 0.124687 20.9206 0.223945 24.909 0.269063H25.1526V0.512696C25.1526 2.22715 25.0714 3.93259 25.0353 5.61998L24.8549 10.6099ZM24.8549 10.6099L24.7195 5.51169C24.7195 3.82431 24.6203 2.16399 24.6022 0.512696L24.8549 0.75633C20.8665 0.810471 16.8871 0.900704 12.9078 0.909728L0.960744 0.96387L1.41192 0.512696L1.35777 10.6099L0.960744 10.258C2.92786 10.258 4.88595 10.258 6.86209 10.258L12.7995 10.3573L24.8549 10.6099Z" fill="#EBEBEB"/>
<path d="M317.522 135.855C316.415 136.901 315.041 137.622 313.552 137.939C312.649 138.174 311.648 138.309 310.691 138.481H307.425C306.08 138.273 304.718 138.111 303.409 137.849C298.52 136.8 293.888 134.787 289.784 131.93C278.976 124.785 269.87 115.352 263.111 104.3C260.844 100.653 259.283 96.6123 258.509 92.3888C258.31 91.2789 258.157 90.16 257.985 89.0411V85.7746C258.256 84.5204 258.473 83.248 258.806 82.0118C259.136 80.8516 259.757 79.7952 260.611 78.9438C260.774 79.0882 260.918 79.2055 261.062 79.3499C266.26 84.5414 271.46 89.7329 276.664 94.9244C276.832 95.0645 276.953 95.254 277.008 95.4661C277.063 95.6781 277.05 95.9021 276.971 96.1065C276.575 97.393 276.522 98.7605 276.816 100.074C277.111 101.387 277.742 102.601 278.649 103.596C283.088 108.637 287.84 113.393 292.879 117.835C293.883 118.747 295.109 119.381 296.433 119.674C297.758 119.966 299.136 119.908 300.432 119.504C300.811 119.405 301.081 119.342 301.406 119.667C306.718 125.009 312.042 130.338 317.378 135.656C317.405 135.683 317.441 135.765 317.522 135.855Z" fill="#EBEBEB"/>
<path d="M327.737 124.187V125.27C327.267 125.948 326.757 126.599 326.212 127.219C324.606 128.888 322.946 130.504 321.313 132.137L320.807 132.615L304.764 116.58C306.866 114.505 308.96 112.384 311.125 110.318C311.36 110.1 311.636 109.932 311.937 109.822C312.238 109.713 312.558 109.666 312.878 109.683C313.198 109.699 313.511 109.78 313.799 109.92C314.087 110.061 314.344 110.257 314.554 110.498C315.763 111.672 316.936 112.872 318.164 114.054C320.952 116.851 323.758 119.63 326.519 122.446C326.97 122.993 327.378 123.576 327.737 124.187Z" fill="#EBEBEB"/>
<path d="M285.677 85.856C283.692 87.778 281.662 89.6549 279.695 91.5137L263.777 75.6054C264.129 75.2896 264.535 74.9557 264.905 74.5948C266.367 73.142 267.802 71.6531 269.291 70.2274C269.895 69.6968 270.531 69.2026 271.195 68.7476H272.286C272.895 69.1212 273.474 69.5405 274.019 70.0018C277.917 73.8639 281.8 77.7439 285.668 81.6421C287.13 83.1039 287.13 84.4213 285.677 85.856Z" fill="#EBEBEB"/>
<path d="M18.917 94.7078H123.346V28.4575H18.917V94.7078Z" fill="#399B8E"/>
<path d="M142.881 94.7083H123.346V74.3604L142.881 94.7083Z" fill="#399B8E"/>
<path d="M111.255 39.9087H31V41.172H111.255V39.9087Z" fill="white"/>
<path d="M72.4809 46.7129H31V47.9762H72.4809V46.7129Z" fill="white"/>
<path d="M95.8967 60.311H31V61.5743H95.8967V60.311Z" fill="white"/>
<path d="M111.255 67.106H31V68.3692H111.255V67.106Z" fill="white"/>
<path d="M111.255 73.9009H31V75.1642H111.255V73.9009Z" fill="white"/>
<path d="M59.5141 80.7036H31V81.9669H59.5141V80.7036Z" fill="white"/>
<path d="M582.416 121.165H477.987V179.592H582.416V121.165Z" fill="#399B8E"/>
<path d="M458.449 179.601H477.985V159.253L458.449 179.601Z" fill="#DBDBDB"/>
<path d="M560.181 151.673H490.312V152.937H560.181V151.673Z" fill="white"/>
<path d="M545.816 158.478H490.312V159.741H545.816V158.478Z" fill="white"/>
<path d="M550.003 138.075H490.312V139.338H550.003V138.075Z" fill="white"/>
<path d="M568.248 131.281H490.312V132.544H568.248V131.281Z" fill="white"/>
<path d="M551.573 165.272H490.312V166.536H551.573V165.272Z" fill="white"/>
<path d="M12.6543 302.285L84.6615 302.068L156.66 301.987L300.665 301.843L444.671 301.987L516.669 302.068L588.676 302.285L516.669 302.511L444.671 302.592L300.665 302.736L156.66 302.592L84.6615 302.511L12.6543 302.285Z" fill="#263238"/>
<path d="M292.851 302.265H403.532L381.47 173.889H298.698L292.851 302.265Z" fill="#DBDBDB"/>
<path d="M292.851 302.265H302.56L308.001 173.889H298.698L292.851 302.265Z" fill="#A6A6A6"/>
<path d="M389.021 199.055C401.546 227.028 431.81 273.454 445.355 261.949C465.612 244.75 479.328 206.707 484.742 191.322C487.783 182.705 443.884 168.285 441.195 176.109C437.369 187.226 431.368 210.461 427.894 213.755C426.09 215.478 411.706 195.293 400.824 185.719C385.114 171.922 385.024 190.122 389.021 199.055Z" fill="#AD6359"/>
<path d="M495.707 178.374C491.8 187.163 476.758 202.025 471.759 204.217C466.76 206.41 440.357 182.561 440.908 176.948C441.458 171.336 457.213 141.937 465.939 137.426C474.665 132.914 499.759 169.26 495.707 178.374Z" fill="#AD6359"/>
<path d="M442.973 170.776C442.973 170.776 443.605 158.269 440.447 147.694C437.794 138.806 432.858 125.911 437.577 124.305C447.286 121.011 459.594 153.18 459.594 153.18C459.594 153.18 462.753 168.249 453.431 172.364C447.584 174.945 442.973 170.776 442.973 170.776Z" fill="#AD6359"/>
<path d="M453.919 147.054C454.55 152.116 460.154 148.47 460.154 148.47C460.154 148.47 453.359 155.689 456.03 160.625C458.629 165.398 465.234 160.751 465.712 160.426C465.351 160.814 459.288 167.582 462.491 172.292C465.821 177.183 471.65 171.39 472.029 171.011C471.803 171.471 468.97 177.706 472.218 180.738C477.795 185.927 485.483 170.19 491.402 168.43C491.402 168.43 495.535 178.112 495.706 178.356C495.706 178.356 503.331 163.521 500.516 155.671C500.121 154.524 499.347 153.546 498.322 152.898C497.297 152.25 496.081 151.971 494.876 152.107C494.876 152.107 497.863 147.595 495.463 143.805C494.217 141.865 490.049 142.118 490.049 142.118C490.049 142.118 492.286 138.409 489.94 135.179C488.073 132.589 484.147 133.248 484.147 133.248C484.147 133.248 484.644 128.682 481.882 126.661C476.27 122.582 452.556 136.217 453.919 147.054Z" fill="#AD6359"/>
<path d="M483.472 133.275C483.553 133.23 483.472 133.112 483.427 133.139C474.529 135.72 465.551 141.26 459.83 148.633C459.641 148.876 459.948 149.282 460.209 149.057C467.599 142.605 474.593 137.489 483.472 133.275Z" fill="#263238"/>
<path d="M490.103 142C490.203 141.955 490.103 141.793 490.022 141.82C480.863 144.527 470.929 151.078 465.325 160.327C465.136 160.643 465.28 161.121 465.533 160.778C469.719 154.931 482.091 145.763 490.103 142Z" fill="#263238"/>
<path d="M471.858 171.778C477.57 163.116 485.484 157.151 494.498 152.198C494.606 152.134 494.498 151.981 494.399 152.008C489.328 153.226 483.914 156.98 479.961 160.265C476.221 163.236 473.327 167.138 471.57 171.58C471.488 171.778 471.741 171.977 471.858 171.778Z" fill="#263238"/>
<path d="M459.975 148.461C459.749 148.75 460.426 148.759 460.209 149.057C459.307 150.302 454.48 158.288 456.69 160.787C458.495 162.782 462.366 161.771 463.72 160.787L467.103 158.342L464.775 161.852C463.728 163.39 462.935 165.087 462.429 166.878C462.149 167.694 462.045 168.56 462.124 169.418C462.204 170.277 462.465 171.109 462.889 171.859C463.288 172.555 463.914 173.091 464.661 173.379C465.409 173.667 466.234 173.688 466.995 173.438C468.693 172.854 470.212 171.845 471.408 170.506L474.837 166.896L472.779 171.408C472.204 172.656 471.789 173.972 471.543 175.324C471.267 176.595 471.371 177.919 471.841 179.132C472.073 179.666 472.45 180.125 472.928 180.458C473.405 180.791 473.966 180.985 474.548 181.018C475.866 180.884 477.118 180.377 478.157 179.556C480.435 177.815 482.574 175.9 484.555 173.826C485.592 172.816 486.63 171.796 487.722 170.822C488.748 169.795 489.977 168.996 491.331 168.475C490.044 169.127 488.898 170.026 487.957 171.119C486.955 172.157 485.999 173.24 485.042 174.332C483.162 176.586 481.078 178.661 478.816 180.531C477.603 181.56 476.117 182.215 474.539 182.417C473.669 182.425 472.815 182.182 472.08 181.716C471.345 181.25 470.761 180.581 470.397 179.791C469.765 178.302 469.593 176.659 469.901 175.072C470.143 173.562 470.583 172.09 471.209 170.695L472.581 171.598C471.191 173.202 469.405 174.415 467.401 175.117C466.278 175.476 465.066 175.431 463.972 174.99C462.916 174.527 462.023 173.757 461.41 172.78C460.872 171.827 460.543 170.772 460.443 169.683C460.344 168.595 460.476 167.497 460.832 166.463C461.408 164.502 462.308 162.651 463.494 160.986L464.55 162.015C462.745 163.188 458.558 164.794 455.409 162.06C451.926 157.828 458.648 149.833 459.975 148.461Z" fill="#263238"/>
<path d="M460.154 148.47C459.178 148.859 458.15 149.1 457.104 149.183C456.683 149.227 456.259 149.157 455.875 148.98C455.491 148.804 455.161 148.528 454.92 148.182C454.495 147.347 454.322 146.406 454.424 145.475C454.478 144.446 454.586 143.372 454.748 142.262C454.061 143.169 453.575 144.212 453.323 145.321C453.149 145.92 453.096 146.547 453.165 147.166C453.235 147.786 453.427 148.385 453.729 148.931C454.124 149.497 454.68 149.931 455.326 150.176C455.947 150.379 456.613 150.404 457.248 150.248C458.38 149.976 459.396 149.354 460.154 148.47Z" fill="#263238"/>
<path d="M438.525 176.948L484.219 208.774C484.219 208.774 456.923 265.324 440.059 265.17C423.194 265.017 398.83 222.661 390.43 204.352C382.029 186.043 387.037 170.532 404.037 187.207C421.037 203.883 427.128 210.759 427.678 210.533C428.707 210.118 438.525 176.948 438.525 176.948Z" fill="#399B8E"/>
<path d="M484.221 208.774C484.221 208.774 465.271 247.99 449.219 261.02C445.997 263.637 442.902 265.198 440.06 265.162C423.195 265.017 398.832 222.652 390.386 204.353C385.161 193.019 385.116 182.76 389.862 180.549C392.795 179.186 397.532 180.865 404.002 187.235C421.147 204.028 427.084 210.777 427.643 210.552C428.708 210.119 438.535 176.958 438.535 176.958L484.221 208.774Z" fill="#399B8E"/>
<path d="M455.941 254.343C455.381 254.993 454.813 255.624 454.244 256.238C449.102 259.475 443.333 261.588 437.316 262.437C435.657 262.62 433.986 262.687 432.317 262.635L431.28 261.986C433.271 262.106 435.27 262.055 437.253 261.832C439.627 261.573 441.963 261.034 444.21 260.226L445.916 259.667L447.567 258.972C448.117 258.737 448.686 258.539 449.218 258.268L450.815 257.456C452.592 256.535 454.304 255.495 455.941 254.343ZM421.272 204.524C416.058 206.896 411.303 210.167 407.223 214.188C404.577 216.795 402.131 219.598 399.905 222.571C400.013 222.77 400.131 222.977 400.257 223.176C402.509 220.152 404.992 217.307 407.683 214.667C411.102 211.308 414.997 208.471 419.242 206.248L420.839 205.436C421.133 205.287 421.434 205.154 421.742 205.039L421.272 204.524ZM460.741 207.403C456.408 205.282 451.873 203.598 447.206 202.377C446.719 202.259 446.231 202.142 445.735 202.043C445.419 201.971 445.094 201.898 444.779 201.844C440.834 201.018 436.785 200.811 432.777 201.231C432.191 201.312 431.613 201.402 431.027 201.51C430.964 201.718 430.891 201.935 430.828 202.133C431.496 202.016 432.173 201.917 432.85 201.835C436.57 201.442 440.327 201.597 444.003 202.296L444.986 202.476C445.681 202.62 446.376 202.774 447.071 202.945C451.699 204.138 456.196 205.788 460.497 207.872C466.94 211.033 473.189 214.573 479.212 218.475C479.302 218.321 479.384 218.168 479.456 218.023C473.434 214.114 467.185 210.568 460.741 207.403ZM465.478 195.726C458.163 196.028 451.034 198.13 444.724 201.844L443.948 202.296C442.355 203.25 440.816 204.293 439.337 205.418C431.604 211.301 425.432 218.863 419.558 226.469C416.616 230.286 413.729 234.13 410.679 237.848C410.462 238.119 410.237 238.38 410.011 238.651L410.354 239.147C410.616 238.841 410.877 238.534 411.13 238.245C414.198 234.518 417.095 230.674 420.045 226.866C425.92 219.287 432.083 211.779 439.734 205.977C441.393 204.712 443.129 203.552 444.932 202.503C445.176 202.35 445.428 202.205 445.681 202.07C447.782 200.89 449.973 199.877 452.232 199.038L453.919 198.424C454.479 198.226 455.065 198.091 455.643 197.919L457.366 197.441L459.171 197.089C461.501 196.564 463.884 196.315 466.273 196.349H466.381L465.478 195.726ZM409.398 192.577C406.245 193.978 402.951 195.034 399.571 195.726L397.811 196.069C397.225 196.178 396.629 196.214 396.007 196.295L394.202 196.502L392.397 196.575C390.75 196.689 389.095 196.659 387.453 196.484L387.615 197.08C395.242 197.637 402.887 196.259 409.84 193.074C409.74 192.902 409.569 192.74 409.398 192.577ZM396.386 181.37C393.19 183.541 389.877 185.532 386.46 187.335C386.46 187.578 386.46 187.822 386.46 188.075C390.105 186.168 393.631 184.04 397.017 181.704C396.801 181.587 396.593 181.469 396.386 181.37Z" fill="white"/>
<path d="M473.42 214.08C472.211 213.079 470.992 212.104 469.765 211.13C467.275 209.163 464.784 207.205 462.294 205.255C457.331 201.384 452.26 197.649 447.152 193.976C444.256 191.883 441.404 189.681 438.418 187.723C438.403 187.712 438.387 187.704 438.37 187.7C438.353 187.696 438.335 187.695 438.317 187.697C438.3 187.7 438.283 187.706 438.268 187.715C438.252 187.724 438.239 187.736 438.228 187.75C438.218 187.764 438.21 187.78 438.205 187.798C438.201 187.815 438.2 187.833 438.203 187.85C438.205 187.868 438.211 187.885 438.22 187.9C438.229 187.915 438.241 187.929 438.255 187.939C440.628 190.033 443.173 191.946 445.636 193.94C448.1 195.934 450.545 197.937 453.045 199.886C458.014 203.749 463.043 207.535 468.132 211.247C469.549 212.294 470.947 213.395 472.418 214.378C473.167 214.883 473.88 215.443 474.638 215.93C475.396 216.417 476.208 216.833 476.948 217.383C476.965 217.393 476.985 217.396 477.004 217.392C477.023 217.388 477.04 217.378 477.052 217.363C477.064 217.347 477.07 217.328 477.069 217.309C477.068 217.289 477.061 217.271 477.047 217.257C475.811 216.219 474.656 215.091 473.42 214.08Z" fill="#263238"/>
<path d="M428.031 209.522C426.287 214.236 424.852 219.059 423.736 223.96C423.14 226.378 422.671 228.824 422.211 231.26C421.724 233.681 421.398 236.132 421.236 238.596C421.236 238.686 421.372 238.686 421.39 238.596C422.148 236.241 422.707 233.787 423.249 231.377C423.79 228.968 424.404 226.541 424.945 224.159C426.037 219.304 427.318 214.494 428.266 209.613C428.272 209.597 428.274 209.581 428.274 209.564C428.274 209.548 428.27 209.532 428.263 209.517C428.256 209.501 428.247 209.488 428.235 209.476C428.223 209.465 428.209 209.456 428.193 209.45C428.178 209.444 428.162 209.442 428.145 209.442C428.129 209.442 428.112 209.446 428.097 209.453C428.082 209.459 428.069 209.469 428.057 209.481C428.046 209.493 428.037 209.507 428.031 209.522Z" fill="#263238"/>
<path opacity="0.1" d="M449.219 261.02C445.997 263.636 442.902 265.197 440.06 265.161C423.195 265.017 398.832 222.652 390.386 204.352C385.161 193.019 385.116 182.759 389.862 180.548L449.219 261.02Z" fill="black"/>
<path d="M423.06 302.266H313.362C312.153 300.047 330.127 203.965 367.124 176.903C375.335 170.903 389.899 174.765 393.941 180.603C414.298 209.938 423.06 302.266 423.06 302.266Z" fill="#399B8E"/>
<path d="M417.356 259.612C414.618 258.642 411.934 257.525 409.316 256.264C405.644 254.505 402.098 252.555 398.569 250.498L398.055 250.191C394.446 248.053 390.836 245.788 387.299 243.505L386.794 243.18L384.394 241.628C376.272 236.422 368.278 231.062 359.606 226.893C355.32 224.749 350.769 223.184 346.071 222.237C343.714 221.816 341.314 221.683 338.924 221.84C338.329 221.84 337.742 221.966 337.12 222.047C336.714 222.128 336.308 222.183 335.892 222.264C335.956 222.119 336.01 221.984 336.082 221.84C336.407 221.776 336.741 221.722 337.066 221.65C337.661 221.578 338.266 221.488 338.87 221.443C341.283 221.28 343.707 221.411 346.089 221.831C350.836 222.77 355.437 224.339 359.769 226.496C368.485 230.665 376.534 236.024 384.637 241.213L387.019 242.738L387.534 243.063C391.143 245.382 394.753 247.683 398.497 249.857L399.012 250.164C402.44 252.158 405.933 254.053 409.524 255.759C412.033 256.959 414.602 258.028 417.221 258.962L417.356 259.612ZM407.593 213.8L407.223 214.152C400.266 220.928 395.068 229.194 390.169 237.459C389.134 239.222 388.093 240.981 387.046 242.738C386.965 242.891 386.884 243.036 386.794 243.18C385.467 245.418 384.132 247.647 382.742 249.839C381.524 251.77 380.252 253.674 378.898 255.515C378.772 255.687 378.655 255.858 378.528 256.02C377.159 257.87 375.682 259.639 374.107 261.317C372.465 263.06 370.651 264.632 368.693 266.009L367.962 266.524C367.718 266.695 367.448 266.831 367.195 266.984L365.652 267.886C364.588 268.423 363.491 268.89 362.367 269.285C357.816 270.797 353.051 271.567 348.255 271.568C343.476 271.549 338.713 271.007 334.052 269.953C329.54 268.996 325.164 267.715 320.751 266.434C320.751 266.578 320.679 266.722 320.634 266.858C325.037 268.148 329.459 269.447 333.952 270.413C338.669 271.489 343.489 272.046 348.327 272.073C353.177 272.076 357.996 271.302 362.602 269.781C363.752 269.386 364.873 268.913 365.959 268.365L367.538 267.462C367.805 267.32 368.064 267.163 368.314 266.993L369.063 266.47C371.051 265.078 372.892 263.488 374.558 261.723C376.238 259.925 377.811 258.03 379.268 256.048C379.404 255.876 379.521 255.714 379.638 255.542C380.92 253.792 382.129 251.996 383.248 250.173C384.646 247.981 385.955 245.752 387.308 243.523L387.57 243.081L390.701 237.793C395.61 229.537 400.807 221.343 407.692 214.648L407.809 214.54C407.728 214.278 407.656 214.034 407.593 213.8ZM412.799 235.23C412.105 236.133 411.401 236.981 410.688 237.847C407.7 241.603 404.361 245.066 400.717 248.188C399.995 248.757 399.273 249.325 398.524 249.857L398.055 250.191C397.011 250.928 395.916 251.592 394.78 252.176L393.995 252.601C393.733 252.745 393.444 252.844 393.173 252.971L391.531 253.674C390.411 254.079 389.266 254.407 388.102 254.658C385.305 255.257 382.453 255.559 379.593 255.56H378.898C377.202 255.56 375.505 255.425 373.818 255.244C369.056 254.645 364.375 253.522 359.859 251.897C355.347 250.336 350.898 248.414 346.477 246.483C342.076 244.492 337.556 242.777 332.942 241.348C331.579 240.96 330.235 240.617 328.791 240.365L328.656 240.753C330.063 241.014 331.462 241.348 332.824 241.745C337.412 243.179 341.905 244.896 346.278 246.889C350.7 248.793 355.121 250.724 359.678 252.303C364.233 253.942 368.953 255.079 373.755 255.696C375.343 255.876 376.931 255.993 378.519 256.02C378.754 256.02 378.979 256.02 379.214 256.02C382.244 256.07 385.27 255.785 388.238 255.172C389.424 254.91 390.593 254.576 391.739 254.171L393.417 253.449C393.697 253.322 393.976 253.223 394.247 253.079L395.05 252.646C396.282 252.018 397.465 251.297 398.587 250.489L399.057 250.155C399.742 249.659 400.419 249.136 401.087 248.603C404.768 245.468 408.14 241.987 411.157 238.208C411.759 237.468 412.36 236.719 412.962 235.961C412.908 235.727 412.854 235.474 412.799 235.23ZM401.466 195.302C400.834 195.455 400.203 195.599 399.571 195.726L397.811 196.069C397.225 196.177 396.629 196.213 396.007 196.294L394.202 196.502L392.397 196.574C390.015 196.728 387.622 196.601 385.269 196.195C381.577 195.557 378.001 194.374 374.657 192.685L373.755 192.243C373.123 191.918 372.501 191.575 371.887 191.223C367.756 188.798 363.881 185.962 360.319 182.759L359.922 183.156C363.517 186.393 367.426 189.265 371.589 191.728C372.022 191.981 372.492 192.225 372.907 192.459L373.809 192.91C377.377 194.782 381.212 196.094 385.179 196.8C390.677 197.571 396.274 197.265 401.655 195.897C401.619 195.699 401.538 195.5 401.466 195.302ZM395.041 182.263C390.249 185.477 385.135 188.184 379.783 190.339C377.841 191.095 375.856 191.731 373.836 192.243L372.988 192.459C370.642 193.005 368.26 193.376 365.859 193.569L364.055 193.686C363.459 193.732 362.864 193.686 362.25 193.686H360.445L358.641 193.542C356.467 193.416 354.313 193.056 352.216 192.468C352.09 192.64 351.963 192.811 351.846 192.992C359.052 194.801 366.598 194.773 373.791 192.91L374.693 192.685C376.493 192.208 378.265 191.63 379.999 190.952C385.379 188.783 390.52 186.061 395.339 182.831L395.041 182.263ZM422.03 292.827C421.128 292.827 420.154 292.908 419.215 292.935H419.143L418.592 292.981C413.968 293.465 409.474 294.802 405.337 296.924C402.377 298.47 399.549 300.256 396.882 302.266H397.451C399.995 300.381 402.687 298.704 405.499 297.249C409.672 295.118 414.209 293.793 418.872 293.341H419.206H419.423C420.325 293.341 421.173 293.242 422.039 293.251C422.058 293.089 422.048 292.963 422.03 292.827ZM422.5 296.978C421.519 295.733 420.505 294.509 419.459 293.305C419.359 293.179 419.251 293.062 419.143 292.944L418.773 292.511C415.62 288.837 411.994 285.596 407.99 282.874C405.958 281.548 403.769 280.479 401.475 279.689C400.906 279.5 400.311 279.337 399.733 279.175C399.156 279.012 398.551 278.886 397.929 278.805C396.738 278.579 395.52 278.561 394.319 278.444C389.468 278.266 384.629 279.036 380.071 280.709C375.556 282.425 371.244 284.634 367.213 287.296C359.994 291.943 353.416 297.411 346.387 302.266H346.685C353.678 297.492 360.22 292.123 367.366 287.576C371.383 284.933 375.68 282.745 380.18 281.052C384.691 279.4 389.482 278.643 394.283 278.823C395.465 278.949 396.675 278.967 397.848 279.193C398.443 279.274 399.012 279.445 399.598 279.563C400.185 279.68 400.753 279.879 401.313 280.068C403.574 280.851 405.729 281.912 407.728 283.226C411.698 285.93 415.288 289.153 418.403 292.809C418.457 292.872 418.511 292.926 418.556 292.99L418.872 293.341C420.135 294.812 421.372 296.31 422.563 297.853C422.572 297.564 422.536 297.285 422.482 296.978H422.5Z" fill="white"/>
<path d="M352.559 188.678C330.226 214.512 300.124 260.144 312.423 270.232C332.644 286.817 391.703 296.4 405.256 298.006C411.103 298.71 422.816 260.487 418.909 255.542C415.002 250.597 352.559 247.105 352.135 243.27C351.892 241.095 361.375 222.182 367.475 198.983C374.486 172.237 358.849 181.396 352.559 188.678Z" fill="#AD6359"/>
<path d="M408.675 252.393C408.675 252.393 426.595 252.258 438.317 252.718C444.859 252.971 456.03 254.414 460.749 256.806C467.806 260.37 495.038 279.815 490.472 286.52C486.331 292.584 465.053 272.912 465.053 272.912C465.053 272.912 488.28 290.869 481.954 297.276C475.629 303.682 454.541 278.254 454.541 278.254C454.541 278.254 478.002 297.204 470.431 302.798C464.711 306.994 444.317 285.049 444.317 285.049C444.317 285.049 464.359 301.499 458.665 306.074C452.348 311.127 432.271 292.051 432.271 292.051C415.848 301.237 404.298 298.891 396.177 296.247C394.273 295.57 408.675 252.393 408.675 252.393Z" fill="#AD6359"/>
<path d="M457.421 266.19C460.228 268.202 463.079 270.214 465.696 272.506C468.313 274.798 470.848 277.099 473.248 279.589C479.123 285.689 481.848 290.418 481.64 290.147C476.912 283.659 467.672 275.457 465.055 273.201C462.438 270.945 459.939 268.572 457.331 266.325C457.268 266.226 457.358 266.144 457.421 266.19Z" fill="#263238"/>
<path d="M449.12 275.494C452.585 278.201 456.131 280.782 459.479 283.66C462.826 286.539 467.356 290.69 470.487 293.776C470.722 294.01 470.487 294.461 470.235 294.236C466.986 291.276 462.159 287.234 458.874 284.31C455.59 281.386 452.422 278.346 449.047 275.557C448.993 275.548 449.066 275.449 449.12 275.494Z" fill="#263238"/>
<path d="M440.528 282.19C446.041 286.079 450.833 290.978 455.417 295.896C455.651 296.14 455.417 296.176 455.128 295.941C450.264 291.294 446.474 287.613 440.393 282.406C440.32 282.298 440.438 282.108 440.528 282.19Z" fill="#263238"/>
<path d="M406.157 251.825C414.332 251.771 438.344 251.707 446.501 252.339C453.72 252.889 459.666 254.441 465.721 258.448C478.715 267.038 487.088 277.126 489.182 280.104C490.445 281.909 492.277 284.823 490.608 286.845C488.559 289.299 481.025 286.899 473.075 279.707C472.786 279.445 472.967 279.283 473.264 279.527C484.426 288.55 488.866 287.522 490.03 285.978C490.788 284.977 490.03 283.271 489.38 281.918C488.293 280.002 486.965 278.234 485.428 276.657C480.301 271.172 474.629 266.223 468.5 261.886C461.933 256.984 454.111 254.046 445.941 253.413C437.586 252.727 414.468 252.944 406.121 252.141C405.949 252.086 405.976 251.834 406.157 251.825Z" fill="#263238"/>
<path d="M483.283 293.667C482.822 291.439 481.216 289.399 479.944 287.559C478.398 285.242 476.624 283.087 474.647 281.125C474.566 281.044 474.413 281.125 474.494 281.251C476.177 283.219 477.741 285.286 479.177 287.441C479.94 288.627 480.633 289.856 481.252 291.123C481.839 292.341 482.534 293.749 482.227 295.138C481.649 297.791 478.275 297.728 476.28 297.015C474.988 296.529 473.744 295.925 472.563 295.211C470.954 294.185 469.427 293.036 467.997 291.773C467.88 291.664 467.555 291.709 467.681 291.827C470.659 294.66 476.298 300.552 480.9 298.396C481.784 298.006 482.504 297.321 482.938 296.458C483.373 295.596 483.495 294.61 483.283 293.667Z" fill="#263238"/>
<path d="M408.947 250.075L387.48 298.802C387.48 298.802 312.459 281.864 308.11 267.625C303.76 253.386 327.266 215.289 348.481 191.504C369.343 168.133 372.429 183.987 367.24 202.061C362.052 220.135 353.543 240.97 354.49 242.531C355.438 244.092 408.947 250.075 408.947 250.075Z" fill="#399B8E"/>
<path d="M359.317 226.28C359.263 226.415 359.218 226.56 359.163 226.695C354.996 224.645 350.579 223.147 346.025 222.237C343.668 221.817 341.268 221.684 338.879 221.84C338.283 221.84 337.697 221.967 337.074 222.048C336.451 222.129 335.901 222.228 335.323 222.391C334.15 222.644 333.04 223.095 331.894 223.447C327.473 225.129 323.417 227.647 319.947 230.864L320.516 229.88C323.825 226.958 327.634 224.657 331.759 223.086C332.914 222.725 334.042 222.265 335.233 222.012C335.82 221.849 336.424 221.777 337.038 221.651C337.651 221.525 338.238 221.489 338.843 221.443C341.256 221.281 343.68 221.412 346.061 221.831C350.654 222.732 355.111 224.227 359.317 226.28ZM399.02 250.165L398.506 249.858L396.448 248.64L395.203 248.496C396.105 249.064 397.089 249.642 398.036 250.192L398.551 250.499C401.258 252.078 403.965 253.594 406.744 255.011L406.961 254.514C404.29 253.134 401.646 251.681 399.02 250.165ZM384.375 247.178C383.834 248.081 383.283 248.983 382.724 249.84C381.505 251.771 380.233 253.675 378.88 255.516C378.753 255.687 378.636 255.859 378.51 256.021C377.14 257.871 375.664 259.64 374.088 261.318C372.446 263.06 370.632 264.632 368.674 266.01L367.943 266.525C367.7 266.696 367.429 266.831 367.176 266.985L365.633 267.887C364.57 268.424 363.473 268.891 362.349 269.286C357.797 270.797 353.032 271.568 348.236 271.569C343.463 271.548 338.706 271.007 334.051 269.954C329.35 268.952 324.739 267.589 320.11 266.245C316.004 265.054 311.871 263.854 307.648 263.069C307.648 263.213 307.648 263.357 307.648 263.493C311.826 264.278 315.914 265.487 320.002 266.669C324.622 268.023 329.251 269.376 333.97 270.414C338.686 271.49 343.507 272.046 348.344 272.074C353.194 272.077 358.014 271.303 362.619 269.782C363.769 269.387 364.891 268.913 365.976 268.365L367.555 267.463C367.822 267.321 368.081 267.164 368.331 266.994L369.08 266.47C371.068 265.079 372.909 263.488 374.575 261.724C376.255 259.926 377.828 258.031 379.286 256.048C379.421 255.877 379.538 255.714 379.656 255.543C380.937 253.792 382.146 251.997 383.265 250.174C383.879 249.218 384.474 248.243 385.07 247.278L384.375 247.178ZM399.643 248.983C399.273 249.272 398.894 249.561 398.506 249.831L398.036 250.165C396.992 250.902 395.898 251.565 394.761 252.15L393.976 252.574C393.714 252.719 393.425 252.818 393.155 252.944L391.512 253.648C390.393 254.052 389.247 254.381 388.084 254.632C385.287 255.231 382.435 255.533 379.574 255.534H378.88C377.183 255.534 375.487 255.399 373.799 255.218C369.037 254.619 364.356 253.496 359.84 251.871C355.328 250.309 350.88 248.387 346.458 246.456C342.058 244.466 337.537 242.751 332.923 241.322C328.294 239.996 323.358 239.274 318.567 240.212C317.042 240.519 315.567 241.032 314.181 241.737C314.091 241.918 314.001 242.107 313.92 242.288C315.403 241.497 316.992 240.926 318.639 240.591C323.349 239.689 328.222 240.393 332.806 241.719C337.393 243.152 341.886 244.87 346.26 246.862C350.681 248.766 355.103 250.697 359.66 252.277C364.22 253.926 368.946 255.073 373.754 255.696C375.342 255.877 376.931 255.994 378.519 256.021C378.753 256.021 378.979 256.021 379.214 256.021C382.243 256.07 385.269 255.786 388.237 255.173C389.423 254.911 390.593 254.576 391.738 254.171L393.416 253.45C393.696 253.323 393.976 253.224 394.247 253.08L395.05 252.647C396.282 252.019 397.464 251.298 398.587 250.49L399.056 250.156C399.525 249.813 399.958 249.452 400.464 249.091L399.643 248.983ZM360.354 182.715C359.966 182.372 359.587 182.038 359.209 181.686L358.721 182.002L359.985 183.13C362.922 185.76 366.06 188.159 369.369 190.303C369.369 190.078 369.369 189.852 369.369 189.636C366.202 187.566 363.194 185.262 360.373 182.742L360.354 182.715ZM365.841 193.543L364.036 193.66C363.441 193.705 362.845 193.66 362.231 193.66H360.427L358.622 193.516C356.236 193.373 353.874 192.955 351.584 192.271C350.582 191.973 349.59 191.63 348.615 191.233L348.398 191.476L348.191 191.711C349.243 192.152 350.318 192.535 351.412 192.857C357.127 194.383 363.096 194.715 368.945 193.832C368.945 193.606 369.008 193.389 369.044 193.164C368.042 193.362 366.951 193.489 365.859 193.57L365.841 193.543ZM394.319 278.418C389.466 278.249 384.626 279.027 380.071 280.709C375.556 282.426 371.243 284.635 367.212 287.297C364.956 288.758 362.755 290.292 360.58 291.872L360.932 291.971C363.043 290.446 365.182 288.975 367.375 287.576C371.391 284.934 375.688 282.746 380.188 281.052C384.7 279.401 389.49 278.644 394.292 278.824C394.914 278.887 395.537 278.923 396.16 278.977L396.331 278.598C395.69 278.544 395.005 278.508 394.337 278.445L394.319 278.418Z" fill="white"/>
<path d="M378.87 290.743C379.601 289.353 380.305 287.963 381.009 286.565C382.422 283.731 383.83 280.892 385.232 278.046C388.011 272.398 390.646 266.677 393.181 260.902C394.634 257.635 396.213 254.405 397.522 251.075C397.537 251.042 397.539 251.004 397.526 250.969C397.513 250.934 397.487 250.906 397.454 250.89C397.42 250.875 397.382 250.873 397.347 250.886C397.313 250.899 397.284 250.925 397.269 250.958C395.708 253.71 394.354 256.589 392.911 259.413C391.467 262.237 389.996 265.035 388.606 267.886C385.839 273.535 383.156 279.229 380.557 284.967C379.827 286.574 379.032 288.162 378.374 289.804C378.031 290.643 377.634 291.455 377.3 292.304C376.966 293.152 376.713 294.018 376.398 294.857C376.393 294.866 376.391 294.876 376.391 294.886C376.39 294.895 376.392 294.905 376.395 294.914C376.398 294.924 376.404 294.932 376.41 294.939C376.417 294.946 376.425 294.952 376.434 294.956C376.443 294.961 376.452 294.963 376.462 294.963C376.472 294.964 376.482 294.962 376.491 294.959C376.5 294.956 376.509 294.95 376.516 294.944C376.523 294.937 376.529 294.929 376.533 294.92C377.264 293.522 378.121 292.168 378.87 290.743Z" fill="#263238"/>
<path d="M389.096 295.453L387.589 298.864L387.544 298.973H387.399C380.298 297.655 373.241 296.076 366.23 294.316C359.219 292.557 352.262 290.563 345.377 288.343C338.468 286.159 331.691 283.574 325.083 280.601C321.767 279.109 318.565 277.378 315.5 275.421C313.971 274.424 312.526 273.305 311.178 272.074C309.788 270.882 308.724 269.358 308.083 267.643C308.881 269.253 310.046 270.654 311.485 271.731C312.909 272.825 314.421 273.8 316.006 274.645C319.14 276.388 322.376 277.939 325.697 279.292C332.329 282.045 339.142 284.391 345.991 286.592C352.839 288.794 359.751 290.842 366.681 292.81C373.611 294.777 380.568 296.726 387.535 298.594L387.354 298.684L389.096 295.453Z" fill="#263238"/>
<path d="M408.09 251.969L408.839 250.029L408.921 250.165C401.395 249.668 393.878 249.064 386.362 248.279C378.845 247.494 371.374 246.636 363.902 245.518C362.035 245.229 360.167 244.922 358.299 244.561C357.397 244.372 356.431 244.191 355.466 243.92C355.222 243.848 354.987 243.776 354.726 243.677C354.575 243.628 354.43 243.564 354.292 243.487C354.187 243.431 354.087 243.364 353.995 243.289C353.897 243.207 353.815 243.11 353.751 243C353.714 242.93 353.681 242.857 353.652 242.783C353.647 242.748 353.647 242.711 353.652 242.675C353.616 242.332 353.634 241.984 353.706 241.647C353.751 241.403 353.796 241.141 353.859 240.916C354.816 237.171 356.025 233.634 357.252 230.087C359.707 222.95 362.378 215.903 365.193 208.9C363.018 216.119 360.789 223.338 358.57 230.557C357.505 234.166 356.332 237.775 355.511 241.385C355.457 241.61 355.429 241.818 355.384 242.035C355.339 242.251 355.384 242.504 355.339 242.414C355.329 242.366 355.311 242.32 355.285 242.278C355.285 242.188 355.123 242.098 355.159 242.116C355.114 242.116 355.195 242.134 355.159 242.116L355.384 242.206L355.98 242.395C356.882 242.63 357.785 242.802 358.687 242.982C360.492 243.316 362.378 243.605 364.227 243.884C367.945 244.444 371.669 244.97 375.398 245.463L386.597 246.97C394.059 247.963 401.521 249.028 408.984 250.12H409.119L409.065 250.237L408.09 251.969Z" fill="#263238"/>
<path d="M365.995 213.52C365.466 214.793 364.797 216.004 364.001 217.129C363.253 218.281 362.341 219.318 361.294 220.206C361.98 219.006 362.711 217.869 363.487 216.741C364.24 215.606 365.078 214.529 365.995 213.52Z" fill="#263238"/>
<path d="M387.858 196.854C381.487 198.659 370.009 189.338 365.299 181.569C364.974 181.036 366.256 159.091 366.057 154.715C366.057 153.812 393.795 160.129 393.795 160.129C393.795 160.129 391.512 169.423 391.909 177.048C391.936 177.697 394.003 195.104 387.858 196.854Z" fill="#AD6359"/>
<path d="M365.633 168.457C378.618 177.625 391.268 174.106 391.801 173.943C392.014 169.292 392.658 164.67 393.723 160.138C393.723 160.138 365.931 153.821 365.976 154.723C366.138 156.772 365.913 162.691 365.633 168.457Z" fill="#263238"/>
<path d="M393.659 142.055C394.372 148.533 399.561 153.28 405.237 152.648C410.912 152.017 414.946 146.269 414.26 139.799C413.574 133.329 408.368 128.574 402.683 129.205C396.998 129.837 392.947 135.585 393.659 142.055Z" fill="#455A64"/>
<path d="M390.374 142.83C391.169 150.049 396.935 155.31 403.251 154.615C409.567 153.92 414.079 147.523 413.258 140.313C412.437 133.103 406.707 127.834 400.381 128.528C394.056 129.223 389.58 135.63 390.374 142.83Z" fill="#C7C7C7"/>
<path d="M362.214 121.742C359.182 131.469 364.154 159.641 371.039 165.957C381.028 175.116 397.468 176.081 405.265 164.062C412.826 152.404 405.698 115.814 397.992 110.066C386.649 101.584 366.689 107.386 362.214 121.742Z" fill="#AD6359"/>
<path d="M385.619 139.428C385.619 139.365 385.493 139.545 385.511 139.627C385.926 141.504 386.098 143.732 384.509 144.689C384.455 144.689 384.509 144.815 384.509 144.788C386.576 144.093 386.323 141.143 385.619 139.428Z" fill="#263238"/>
<path d="M383.553 137.777C380.467 138.129 381.397 144.283 384.257 143.959C387.117 143.634 386.143 137.489 383.553 137.777Z" fill="#263238"/>
<path d="M396.576 137.949C396.576 137.877 396.738 138.021 396.747 138.102C396.973 140.015 397.559 142.163 399.373 142.542C399.427 142.542 399.445 142.65 399.373 142.65C397.216 142.668 396.485 139.799 396.576 137.949Z" fill="#263238"/>
<path d="M397.975 135.684C401.006 134.989 402.17 141.098 399.364 141.748C396.558 142.397 395.412 136.288 397.975 135.684Z" fill="#263238"/>
<path d="M380.703 135.332C381.477 134.975 382.23 134.574 382.959 134.132C383.811 133.82 384.537 133.237 385.025 132.471C385.131 132.2 385.144 131.902 385.062 131.623C384.981 131.344 384.809 131.1 384.574 130.928C384.06 130.659 383.484 130.532 382.905 130.561C382.326 130.589 381.765 130.772 381.28 131.091C380.193 131.581 379.327 132.46 378.853 133.554C378.758 133.81 378.74 134.087 378.801 134.353C378.862 134.619 378.999 134.861 379.195 135.05C379.392 135.238 379.639 135.366 379.907 135.416C380.175 135.466 380.451 135.437 380.703 135.332Z" fill="#263238"/>
<path d="M399.923 132.246C399.071 132.204 398.221 132.117 397.378 131.984C396.473 132.018 395.581 131.752 394.843 131.226C394.64 131.016 394.513 130.743 394.482 130.453C394.451 130.162 394.518 129.869 394.671 129.62C395.049 129.179 395.537 128.846 396.085 128.654C396.634 128.462 397.223 128.419 397.794 128.528C398.984 128.578 400.114 129.07 400.961 129.909C401.142 130.11 401.262 130.359 401.305 130.626C401.348 130.893 401.312 131.167 401.202 131.415C401.092 131.662 400.913 131.873 400.686 132.02C400.459 132.168 400.194 132.246 399.923 132.246Z" fill="#263238"/>
<path d="M386.668 157.286C387.192 157.665 387.742 158.189 388.473 158.189C389.18 158.069 389.853 157.802 390.449 157.404C390.46 157.391 390.475 157.382 390.492 157.381C390.509 157.379 390.526 157.384 390.539 157.395C390.552 157.406 390.561 157.421 390.562 157.438C390.564 157.455 390.559 157.472 390.548 157.485C390.334 157.903 390.01 158.254 389.611 158.5C389.212 158.747 388.753 158.879 388.283 158.884C387.88 158.843 387.499 158.683 387.187 158.424C386.875 158.165 386.647 157.82 386.533 157.431C386.452 157.341 386.587 157.232 386.668 157.286Z" fill="#263238"/>
<path d="M387.805 151.286C388.403 151.966 389.135 152.515 389.955 152.898C390.775 153.282 391.665 153.492 392.57 153.515C393.362 153.546 394.155 153.464 394.925 153.271C395.073 153.244 395.218 153.202 395.358 153.145C395.495 153.11 395.631 153.068 395.764 153.019C395.863 152.985 395.948 152.921 396.007 152.834C396.066 152.748 396.094 152.645 396.089 152.541C396.083 152.475 396.068 152.412 396.044 152.351V152.189C395.854 150.718 395.376 148.507 395.376 148.507C395.954 148.697 398.877 149.509 398.715 148.751C397.379 142.434 395.89 135.468 393.228 129.504C393.21 129.464 393.179 129.433 393.14 129.415C393.1 129.397 393.056 129.394 393.014 129.406C392.973 129.418 392.937 129.444 392.913 129.48C392.89 129.517 392.88 129.56 392.886 129.603C393.932 135.694 396.044 141.559 397.199 147.65C396.158 147.345 395.08 147.19 393.995 147.19C393.797 147.28 394.997 151.44 395.024 152.107C395.03 152.131 395.03 152.156 395.024 152.18C392.606 152.865 390.639 152.405 387.995 151.115C387.796 151.025 387.67 151.151 387.805 151.286Z" fill="#263238"/>
<path d="M393.94 152.658C393.298 153.825 392.366 154.808 391.233 155.509C390.601 155.869 389.873 156.027 389.148 155.96C387.569 155.789 387.344 154.399 387.416 153.163C387.476 152.506 387.612 151.858 387.822 151.232C389.658 152.346 391.801 152.846 393.94 152.658Z" fill="#263238"/>
<path d="M391.224 155.535C390.592 155.896 389.864 156.053 389.14 155.987C387.561 155.815 387.335 154.425 387.407 153.189C389.095 153.081 390.845 153.947 391.224 155.535Z" fill="#FF99BA"/>
<path opacity="0.2" d="M366.834 131.749C365.724 134.547 363.441 141.116 362.142 141.576C360.906 132.444 360.861 124.161 363.125 119.071C364.062 116.969 365.377 115.058 367.006 113.432C367.195 115.877 368.016 128.826 366.834 131.749Z" fill="#263238"/>
<path d="M391.242 118.693C390.47 120.032 389.366 121.15 388.037 121.94C386.708 122.73 385.199 123.165 383.653 123.204C382.08 123.245 380.523 122.884 379.128 122.155C377.734 121.425 376.549 120.351 375.686 119.035C375.681 119.027 375.675 119.02 375.667 119.014C375.66 119.008 375.651 119.004 375.642 119.001C375.632 118.999 375.623 118.998 375.613 118.999C375.604 119.001 375.595 119.004 375.586 119.008C375.578 119.013 375.571 119.019 375.565 119.027C375.559 119.035 375.555 119.043 375.552 119.052C375.55 119.062 375.549 119.071 375.55 119.081C375.552 119.09 375.555 119.099 375.559 119.108C376.344 120.576 377.516 121.802 378.947 122.653C380.379 123.504 382.015 123.947 383.681 123.935C385.312 123.843 386.89 123.324 388.257 122.429C389.624 121.534 390.731 120.295 391.468 118.837C391.487 118.807 391.493 118.771 391.486 118.736C391.478 118.701 391.457 118.671 391.427 118.652C391.397 118.633 391.361 118.626 391.326 118.634C391.292 118.642 391.261 118.663 391.242 118.693Z" fill="#263238"/>
<path d="M410.067 104.174C408.767 101.777 406.66 99.9163 404.12 98.9228C400.601 97.5332 397.073 98.4626 393.581 99.4642C393.562 99.4642 393.543 99.4718 393.53 99.4853C393.516 99.4989 393.509 99.5172 393.509 99.5364C393.509 99.5555 393.516 99.5739 393.53 99.5874C393.543 99.601 393.562 99.6086 393.581 99.6086C396.55 98.7694 399.618 98.0926 402.65 99.013C405.159 99.7638 407.333 101.357 408.804 103.525C410.238 105.769 410.817 108.455 410.434 111.091C410.052 113.727 408.733 116.137 406.719 117.881C405.532 118.855 404.159 119.576 402.683 120C401.207 120.423 399.661 120.541 398.138 120.344C398.02 120.344 397.966 120.507 398.093 120.525C400.165 120.877 402.295 120.643 404.243 119.851C406.19 119.059 407.879 117.74 409.118 116.042C410.357 114.343 411.098 112.333 411.258 110.237C411.417 108.14 410.989 106.041 410.022 104.174H410.067Z" fill="#263238"/>
<path d="M361.393 127.364C361.393 127.364 354.869 118.982 358.027 112.927C359.832 109.489 367.601 108.541 367.601 108.541C367.601 108.541 369.406 104.562 375.551 101.981C381.696 99.4007 389.988 100.917 389.988 100.917C389.988 100.917 395.502 96.3327 401.818 98.6066C410.625 101.783 411.744 114.154 404.381 119.478C399.201 123.223 390.647 119.559 390.647 119.559C389.925 119.785 383.158 125.668 376.264 119.92C376.264 119.92 372.338 124.865 367.655 122.699C367.212 124.023 366.375 125.179 365.255 126.013C364.136 126.847 362.788 127.319 361.393 127.364Z" fill="#263238"/>
<path d="M368.087 144.707C368.087 144.707 361.599 135.684 357.503 138.021C353.406 140.358 358.405 153.469 363.242 155.165C363.849 155.433 364.504 155.574 365.168 155.582C365.831 155.59 366.489 155.464 367.103 155.211C367.716 154.958 368.272 154.584 368.738 154.111C369.203 153.638 369.568 153.076 369.811 152.458L368.087 144.707Z" fill="#AD6359"/>
<path d="M359.019 141.757C358.938 141.757 358.929 141.856 359.019 141.883C362.439 143.219 364.271 146.341 365.57 149.589C364.542 148.344 363.161 147.676 361.492 148.903C361.402 148.967 361.492 149.102 361.582 149.084C362.176 148.894 362.815 148.892 363.41 149.078C364.006 149.264 364.53 149.628 364.912 150.122C365.554 150.961 366.101 151.869 366.545 152.829C366.707 153.126 367.249 152.955 367.131 152.612V152.531C367.131 148.145 363.676 142.127 359.019 141.757Z" fill="#263238"/>
<path d="M362.683 138.392C362.683 138.392 359.173 124.405 361.907 115.833C364.948 106.304 376.417 96.9741 389.97 100.935C389.97 100.935 374.928 102.875 367.619 115.445C364.263 121.22 367.484 137.895 367.484 137.895L362.683 138.392Z" fill="#C7C7C7"/>
<path d="M377.246 143.102C378.617 150.321 374.62 157.124 368.303 158.333C361.987 159.543 355.743 154.724 354.362 147.505C352.981 140.286 356.988 133.483 363.304 132.274C369.621 131.064 375.865 135.901 377.246 143.102Z" fill="#C7C7C7"/>
<path d="M373.837 143.336C375.074 149.806 371.473 155.969 365.797 157.025C360.122 158.08 354.509 153.731 353.273 147.27C352.037 140.81 355.628 134.637 361.304 133.582C366.979 132.526 372.592 136.857 373.837 143.336Z" fill="#455A64"/>
<path d="M15.7959 302.267H126.478L104.406 173.89H21.6431L15.7959 302.267Z" fill="#DBDBDB"/>
<path d="M15.7959 302.267H25.4961L30.9463 173.89H21.6431L15.7959 302.267Z" fill="#A6A6A6"/>
<path d="M81.3961 117.899C71.1184 128.123 68.1677 144.969 68.1677 144.969C68.1677 144.969 58.3141 161.925 61.0663 171.138C61.7942 173.75 63.145 176.146 65.0026 178.122C66.8603 180.097 69.1694 181.593 71.732 182.48L70.7575 177.391C70.7575 177.391 74.0601 183.933 85.0957 186.568C96.1314 189.202 110.731 185.81 118.329 181.966C122.832 179.711 126.675 176.329 129.482 172.148L126.64 179.547C126.64 179.547 137.351 179.168 143.712 167.772C150.074 156.375 131.801 139.998 130.249 136.469C128.697 132.941 126.73 107.233 99.6867 111.664C99.7228 111.601 88.5066 110.861 81.3961 117.899Z" fill="#263238"/>
<path d="M67.8611 181.749C65.0458 179.646 62.2665 177.237 60.7145 174.259C59.0221 171.173 58.4212 167.605 59.0091 164.135C59.758 159.975 61.9507 156.302 64.0803 152.72C66.2098 149.138 68.7725 145.501 70.911 141.739C71.0283 141.531 70.7125 141.36 70.5681 141.522C68.1653 144.344 65.9239 147.299 63.8547 150.374C61.7377 153.186 59.957 156.235 58.5489 159.461C57.2327 162.431 56.8004 165.717 57.3036 168.926C57.8359 171.535 58.9941 173.975 60.6784 176.037C62.6726 178.518 65.1901 180.106 67.7167 181.974C67.8611 182.091 68.0145 181.866 67.8611 181.749Z" fill="#263238"/>
<path d="M146.032 155.987C142.784 146.521 134.302 140.512 129.095 132.255C126.298 127.789 124.123 122.844 120.478 118.964C120.378 118.855 120.198 119.027 120.288 119.135C123.284 122.627 125.016 126.832 127.182 130.866C129.489 134.835 132.186 138.565 135.231 142.001C140.591 148.425 147.007 156.032 145.779 165.028C145.211 169.179 142.757 173.781 138.498 175.072C138.335 175.126 138.434 175.396 138.597 175.324C140.277 174.65 141.801 173.64 143.078 172.357C144.355 171.074 145.357 169.545 146.023 167.862C147.458 164.034 147.462 159.817 146.032 155.987Z" fill="#263238"/>
<path d="M146.42 158.531C146.713 154.946 145.887 151.359 144.056 148.263C142.188 145.213 139.255 143.011 136.323 141.044C132.939 138.797 129.374 136.659 127.227 133.094C127.137 132.941 126.92 133.094 127.001 133.248C130.412 139.131 136.927 141.874 141.285 146.828C146.293 152.486 146.302 160.724 142.856 167.194C140.665 171.138 137.573 174.508 133.832 177.03C133.769 177.03 133.832 177.165 133.904 177.12C140.284 172.933 145.905 166.49 146.42 158.531Z" fill="#263238"/>
<path d="M105.524 201.655C132.91 216.688 165.693 235.556 185.779 231.116C194.685 229.149 234.677 176.723 236.373 170.659C237.826 165.453 201.615 144.491 197.572 148.597C190.751 155.482 172.307 194.246 169.6 194.896C166.893 195.546 143.901 190.881 119.971 186.558C96.9428 182.426 86.5117 191.224 105.524 201.655Z" fill="#EB9481"/>
<path d="M232.486 177.192C235.608 173.258 248.349 153.966 250.686 147.803C253.023 141.64 258.492 123.44 253.962 121.148C249.432 118.856 247.429 124.044 247.429 124.044C247.429 124.044 248.521 115.986 243.747 114.119C238.974 112.251 236.086 120.435 236.086 120.435C236.086 120.435 236.601 112.079 231.701 110.509C226.801 108.939 225.285 117.728 225.285 117.728C225.285 117.728 226.115 110.112 221.549 110.509C216.063 111.042 216.135 125.262 213.031 131.868C212.327 133.366 196.6 161.266 196.6 161.266L232.486 177.192Z" fill="#EB9481"/>
<path d="M225.392 117.015C225.392 127.473 223.587 132.057 218.173 140.773C218.065 140.936 218.29 141.134 218.426 140.972C224.562 132.923 227.648 127.509 225.933 116.988C225.816 116.473 225.392 116.518 225.392 117.015Z" fill="#263238"/>
<path d="M236.03 119.614C235.127 130.442 233.196 135.459 228.134 145.015C228.062 145.15 228.288 145.285 228.369 145.15C234.117 136.199 237.076 130.712 236.571 119.749C236.598 119.253 236.075 119.117 236.03 119.614Z" fill="#263238"/>
<path d="M247.122 124.523C245.471 134.972 243.612 140.531 237.512 149.175C237.496 149.195 237.484 149.217 237.477 149.241C237.47 149.265 237.467 149.291 237.47 149.316C237.472 149.341 237.48 149.366 237.492 149.388C237.504 149.41 237.52 149.43 237.539 149.446C237.559 149.462 237.581 149.474 237.606 149.481C237.63 149.488 237.655 149.491 237.68 149.488C237.705 149.486 237.73 149.478 237.752 149.466C237.774 149.454 237.794 149.438 237.81 149.419C244.893 141.207 247.267 134.295 247.438 124.604C247.429 123.954 247.231 123.864 247.122 124.523Z" fill="#263238"/>
<path d="M188.847 164.425C188.847 164.425 188.08 151.35 189.018 145.53C189.957 139.709 201.408 119.298 205.919 121.518C211.794 124.397 207.498 137.481 204.557 143.617C204.557 143.617 218.146 150.24 217.099 160.301C216.053 170.362 188.847 164.425 188.847 164.425Z" fill="#EB9481"/>
<path d="M207.31 122.836C210.775 129.324 206.408 137.129 203.989 143.292C203.95 143.381 203.933 143.478 203.939 143.575C203.945 143.673 203.975 143.767 204.025 143.85C204.076 143.933 204.146 144.003 204.229 144.054C204.312 144.104 204.406 144.134 204.504 144.14C210.017 147.298 216.875 153.362 217.461 160.039C217.461 160.08 217.477 160.119 217.506 160.148C217.535 160.177 217.574 160.193 217.615 160.193C217.655 160.193 217.694 160.177 217.723 160.148C217.752 160.119 217.768 160.08 217.768 160.039C218.111 152.821 211.858 146.288 205.605 143.211C208.167 136.894 212.219 128.908 207.409 122.8C207.346 122.773 207.292 122.8 207.31 122.836Z" fill="#263238"/>
<path d="M163.084 192.758L130.122 220.388C130.122 220.388 109.999 209.921 95.1376 197.892C80.276 185.864 96.7348 180.017 122.253 184.303C147.771 188.589 163.084 192.758 163.084 192.758Z" fill="#399B8E"/>
<path d="M124.041 198.308C123.107 197.033 122.025 195.873 120.819 194.852C122.154 197.72 124.082 200.273 126.477 202.341C125.83 200.903 125.012 199.549 124.041 198.308ZM95.1655 197.911L95.5625 198.217C95.8242 197.938 96.0859 197.64 96.3295 197.315C95.9145 197.504 95.5264 197.703 95.1475 197.947L95.1655 197.911ZM150.344 198.091C148.785 197.862 147.204 197.814 145.634 197.947C147.107 198.502 148.639 198.887 150.2 199.093C151.758 199.329 153.339 199.381 154.91 199.246C153.432 198.685 151.893 198.297 150.326 198.091H150.344ZM139.308 187.407C139.288 188.01 139.309 188.613 139.371 189.212C139.592 188.67 139.778 188.116 139.931 187.552L139.308 187.407Z" fill="white"/>
<path d="M122.741 214.487C129.445 208.044 136.61 202.061 143.874 196.232C145.931 194.59 148.024 192.984 150.19 191.441C150.253 191.396 150.334 191.441 150.271 191.522C146.86 194.671 143.314 197.676 139.786 200.699C136.258 203.722 132.685 206.745 129.066 209.677C127.018 211.337 124.979 212.998 122.903 214.613C122.777 214.676 122.659 214.568 122.741 214.487Z" fill="#263238"/>
<path d="M144.128 208.648L130.115 220.378C130.115 220.378 109.992 209.92 95.1307 197.892C89.852 193.624 88.5255 190.141 90.1407 187.605L144.128 208.648Z" fill="#263238"/>
<path d="M137.341 302.158H32.2988C32.2988 302.158 55.1192 214.026 76.2431 189.212C76.7123 188.643 77.1996 188.102 77.6868 187.596C77.7861 187.479 77.8763 187.398 77.9756 187.299C79.6108 185.552 81.5147 184.077 83.6153 182.931C83.9852 182.733 84.3552 182.543 84.7432 182.381C92.8643 178.636 101.473 181.74 107.672 187.046C109.639 188.724 131.909 217.726 133.84 228.743C135.545 238.498 128.958 248.974 128.958 248.974L137.341 302.158Z" fill="#399B8E"/>
<path d="M113.222 245.202C108.75 245.639 104.316 246.408 99.9578 247.503C97.7922 248.081 95.6807 248.749 93.5602 249.461C92.5044 249.822 91.4487 250.147 90.3839 250.463C89.2753 250.824 88.1269 251.048 86.964 251.131C86.9425 251.131 86.9218 251.139 86.9066 251.155C86.8914 251.17 86.8828 251.19 86.8828 251.212C86.8828 251.233 86.8914 251.254 86.9066 251.269C86.9218 251.285 86.9425 251.293 86.964 251.293C88.0656 251.34 89.1692 251.31 90.2666 251.203C91.3232 251.071 92.3694 250.866 93.3978 250.589C95.5995 250.021 97.7651 249.362 99.9578 248.785C104.379 247.612 108.792 246.439 113.285 245.581C113.336 245.573 113.381 245.545 113.41 245.503C113.44 245.462 113.452 245.411 113.443 245.36C113.435 245.31 113.407 245.265 113.366 245.236C113.324 245.206 113.273 245.194 113.222 245.202Z" fill="#263238"/>
<path d="M124.321 249.073C120.63 248.718 116.921 248.571 113.213 248.631C111.408 248.676 109.523 248.82 107.673 249.01C106.77 249.109 105.868 249.217 105.038 249.335C104.208 249.452 103.125 249.723 102.159 249.84C102.06 249.84 102.06 250.011 102.159 250.002C103.062 249.921 104.009 250.002 104.93 249.957L107.7 249.858C109.505 249.804 111.39 249.759 113.24 249.677C116.94 249.524 120.63 249.407 124.33 249.371C124.529 249.38 124.511 249.091 124.321 249.073Z" fill="#263238"/>
<path d="M66.2625 209.93C65.7662 209.299 65.2609 208.676 64.7104 208.126L64.3224 208.938C64.6834 209.497 65.0714 210.048 65.4684 210.58C66.4032 211.846 67.4845 212.997 68.6898 214.009C68.0312 212.565 67.2173 211.198 66.2625 209.93ZM78.4532 186.812C78.2694 188.221 78.2391 189.646 78.3629 191.062C78.9235 189.582 79.3023 188.04 79.4909 186.469C79.4909 186.235 79.554 185.991 79.5811 185.756C79.2021 186.09 78.8231 186.442 78.4532 186.812ZM110.333 216.174C109.771 217.652 109.383 219.191 109.178 220.758C108.951 222.321 108.899 223.904 109.025 225.478C109.591 224.002 109.973 222.463 110.162 220.894C110.409 219.333 110.467 217.749 110.333 216.174ZM90.2559 266.995C89.6998 268.467 89.3182 269.999 89.1189 271.56C88.8901 273.123 88.8416 274.706 88.9745 276.28C90.047 273.309 90.4836 270.145 90.2559 266.995ZM56.1291 228.627C55.5782 230.11 55.1968 231.651 54.9922 233.22C54.7625 234.779 54.7141 236.36 54.8478 237.93C55.4 236.451 55.7786 234.913 55.9757 233.346C56.2122 231.785 56.2637 230.2 56.1291 228.627ZM84.3726 222.184C82.8133 221.955 81.2327 221.907 79.6623 222.04C81.1353 222.596 82.6673 222.98 84.2282 223.186C85.7868 223.422 87.3678 223.474 88.9384 223.339C87.4705 222.768 85.9414 222.368 84.3816 222.148L84.3726 222.184ZM122.163 265.497C120.6 265.268 119.017 265.219 117.444 265.352C120.415 266.425 123.578 266.861 126.729 266.634C125.259 266.076 123.73 265.689 122.172 265.479L122.163 265.497ZM51.6174 261.337C50.0849 261.115 48.5327 261.06 46.9884 261.174H46.8981H46.9793C48.437 261.712 49.9504 262.084 51.4911 262.284C53.0504 262.513 54.6309 262.562 56.2013 262.429C54.7207 261.889 53.1824 261.522 51.6174 261.337ZM91.2484 298.595C89.6891 298.366 88.1086 298.317 86.5382 298.45C89.512 299.525 92.6793 299.958 95.8324 299.723C94.3404 299.172 92.7903 298.793 91.2124 298.595H91.2484ZM48.6216 294.029C47.0593 293.8 45.4758 293.751 43.9023 293.884C45.3763 294.434 46.9082 294.812 48.4682 295.012C50.0293 295.255 51.6145 295.303 53.1875 295.157C51.702 294.605 50.1578 294.227 48.5855 294.029H48.6216ZM92.2771 199.752C91.006 200.697 89.8466 201.784 88.8211 202.991C90.2609 202.336 91.6229 201.522 92.8817 200.564C94.1504 199.622 95.3016 198.531 96.3106 197.315C94.8806 197.977 93.5279 198.794 92.2771 199.752ZM103.52 248.054C102.252 248.987 101.101 250.068 100.091 251.276C101.527 250.625 102.881 249.807 104.125 248.839C105.395 247.91 106.547 246.828 107.554 245.618C106.119 246.278 104.766 247.102 103.52 248.072V248.054ZM64.0969 277.579C62.8215 278.509 61.6667 279.594 60.6589 280.809C62.0889 280.148 63.4416 279.331 64.6924 278.373C65.9609 277.432 67.1201 276.351 68.1484 275.152C66.6998 275.792 65.3383 276.614 64.0969 277.597V277.579ZM129.571 235.106C128.637 233.831 127.556 232.671 126.35 231.65C127.684 234.518 129.613 237.071 132.007 239.139C131.359 237.708 130.541 236.36 129.571 235.124V235.106ZM116.135 289.761C115.194 288.492 114.113 287.333 112.914 286.305C113.546 287.754 114.362 289.115 115.341 290.356C116.273 291.627 117.355 292.781 118.562 293.794C117.904 292.364 117.09 291.012 116.135 289.761ZM76.5763 246.773C75.6398 245.5 74.5588 244.341 73.3549 243.317C73.9947 244.764 74.8132 246.125 75.7913 247.369C76.7208 248.642 77.8027 249.796 79.0126 250.806C78.3555 249.374 77.5382 248.021 76.5763 246.773Z" fill="white"/>
<path d="M74.0957 189.898C53.8921 206.185 2.15161 270.73 13.8189 285.646C25.4863 300.562 103.034 293.767 125.547 286.711C132.243 284.617 113.979 242.126 106.743 240.168C100.715 238.535 67.292 248.415 66.6423 246.484C65.9114 244.301 74.8988 232.218 86.3225 206.041C99.4967 175.849 83.0199 182.706 74.0957 189.898Z" fill="#EB9481"/>
<path d="M143.243 236.621C158.682 238.425 162.373 241.232 176.206 235.818C185.283 232.271 191.447 236.539 184.805 244.2C173.977 256.734 153.548 258.638 146.284 257.23L143.243 236.621Z" fill="#EB9481"/>
<path d="M99.9375 240.709C99.9375 240.709 119.094 235.755 135.734 236.026C147.248 236.215 172.242 239.419 189.207 269.295C193.231 276.379 193.944 289.336 183.161 280.123C175.509 273.6 172.631 267.148 167.487 264.161C167.487 264.161 166.431 280.737 159.177 284.5C152.831 287.781 146.261 290.606 139.514 292.955C138.8 291.819 138.161 290.637 137.601 289.418C137.601 289.418 130.491 292.287 119.554 288.308L99.9375 240.709Z" fill="#EB9481"/>
<path d="M146.699 237.966C151.21 242.009 160.523 250.725 165.648 260.525C171.387 271.407 179.508 293.912 171.432 298.072C165.513 301.122 161.651 292.793 161.651 292.793C161.651 292.793 163.049 302.809 157.139 304.388C151.725 305.832 149.117 299.209 149.117 299.209C149.117 299.209 148.918 305.426 143.432 305.814C136.827 306.265 138.325 293.181 131.232 287.848C129.635 286.648 146.699 237.966 146.699 237.966Z" fill="#EB9481"/>
<path d="M153.176 264.72C156.786 269.232 162.299 281.504 161.83 292.63C161.83 292.882 161.622 293.009 161.586 292.774C159.894 283.14 157.036 273.747 153.077 264.801C153.066 264.788 153.061 264.771 153.063 264.755C153.065 264.738 153.073 264.722 153.086 264.711C153.099 264.7 153.116 264.695 153.133 264.697C153.15 264.699 153.165 264.707 153.176 264.72Z" fill="#263238"/>
<path d="M142.357 270.784C145.064 274.98 150.199 287.929 149.332 299.163C149.332 299.416 149.107 299.524 149.08 299.289C147.887 289.575 145.596 280.027 142.249 270.829C142.249 270.817 142.252 270.804 142.259 270.794C142.266 270.783 142.276 270.775 142.288 270.77C142.3 270.765 142.312 270.764 142.325 270.766C142.337 270.769 142.348 270.775 142.357 270.784Z" fill="#263238"/>
<path d="M167.516 264.089C172.028 266.796 174.545 269.982 177.902 273.889C179.543 275.845 181.29 277.71 183.136 279.474C184.832 281.053 187.332 283.427 189.876 282.299C191.293 281.667 191.681 279.971 191.798 278.563C191.909 276.98 191.679 275.392 191.121 273.907C191.121 273.835 191.23 273.781 191.257 273.862C191.811 275.172 192.175 276.554 192.34 277.967C192.554 279.295 192.362 280.657 191.789 281.875C190.381 284.365 187.133 283.896 185.094 282.587C183.887 281.752 182.766 280.8 181.746 279.745C180.744 278.761 179.788 277.733 178.859 276.686C176.955 274.52 175.177 272.256 173.3 270.081C171.461 268.007 169.49 266.054 167.399 264.234C167.318 264.161 167.426 264.035 167.516 264.089Z" fill="#263238"/>
<path d="M173.253 283.814C172.721 280.719 168.895 267.419 167.379 264.179C167.369 264.162 167.367 264.143 167.372 264.124C167.377 264.105 167.389 264.089 167.406 264.08C167.423 264.07 167.442 264.068 167.461 264.073C167.48 264.078 167.496 264.09 167.505 264.107C170.366 268.682 173.975 279.79 174.607 283.21C175.238 286.63 175.843 290.862 174.968 294.227C173.65 299.298 170.041 299.389 168.732 299.317C167.187 299.204 165.726 298.567 164.591 297.512C163.298 296.163 162.291 294.567 161.631 292.82C161.631 292.738 161.712 292.666 161.757 292.747C163.002 295.202 165.412 297.936 168.263 298.288C168.895 298.386 169.539 298.356 170.159 298.201C170.779 298.046 171.361 297.769 171.872 297.385C172.943 296.36 173.607 294.982 173.74 293.505C174.134 290.271 173.969 286.993 173.253 283.814Z" fill="#263238"/>
<path d="M149.334 299.163C149.885 299.948 150.796 302.429 152.989 303.476C153.751 303.911 154.608 304.153 155.485 304.183C156.362 304.213 157.233 304.029 158.024 303.647C159.531 302.712 160.615 301.226 161.047 299.506C161.411 297.304 161.607 295.078 161.633 292.846C161.633 292.738 161.769 292.729 161.778 292.846C162.058 295.267 161.973 297.715 161.525 300.11C161.313 301.048 160.916 301.935 160.356 302.717C159.797 303.5 159.087 304.163 158.267 304.667C157.4 305.141 156.418 305.366 155.431 305.316C154.443 305.267 153.489 304.945 152.673 304.387C151.852 303.819 149.47 301.247 149.063 299.226C149.073 299.163 149.307 299.127 149.334 299.163Z" fill="#263238"/>
<path d="M131.928 287.053C132.581 287.776 133.147 288.572 133.615 289.426C134.148 290.328 134.653 291.186 135.131 292.088C136.082 293.912 136.841 295.829 137.396 297.809C137.974 299.794 138.425 301.96 139.788 303.593C140.425 304.4 141.301 304.987 142.291 305.268C143.28 305.55 144.333 305.513 145.301 305.163C146.325 304.756 147.176 304.007 147.71 303.042C148.329 302.003 148.742 300.854 148.928 299.659C148.924 299.648 148.923 299.636 148.924 299.624C148.926 299.613 148.93 299.602 148.937 299.592C148.943 299.583 148.952 299.575 148.963 299.57C148.973 299.564 148.984 299.561 148.996 299.561C149.008 299.561 149.019 299.564 149.029 299.57C149.04 299.575 149.049 299.583 149.055 299.592C149.062 299.602 149.066 299.613 149.068 299.624C149.069 299.636 149.068 299.648 149.064 299.659C148.987 300.743 148.799 301.816 148.504 302.862C148.163 303.802 147.581 304.636 146.817 305.28C146.015 305.892 145.061 306.272 144.058 306.377C143.055 306.482 142.043 306.309 141.132 305.876C139.111 304.973 137.974 302.934 137.27 300.913C136.485 298.666 135.962 296.347 135.068 294.127C134.608 292.954 134.166 291.781 133.606 290.653C133.047 289.525 132.271 288.352 131.802 287.143C131.748 287.071 131.856 286.972 131.928 287.053Z" fill="#263238"/>
<path d="M124.878 289.85C127.731 290.262 130.616 290.404 133.496 290.274C133.586 290.274 133.64 290.536 133.55 290.554C132.122 290.821 130.67 290.933 129.218 290.888C127.747 290.826 126.293 290.543 124.905 290.049C124.788 289.985 124.788 289.832 124.878 289.85Z" fill="#263238"/>
<path d="M36.2793 256.148C41.103 253.82 46.0878 251.842 51.1951 250.229C56.2491 248.649 61.4124 247.442 66.6433 246.62C69.6301 246.123 72.6258 245.771 75.6667 245.401C75.757 245.401 75.775 245.528 75.6667 245.537C70.4108 246.388 65.2077 247.538 60.0832 248.984C54.982 250.373 49.9108 251.856 44.8697 253.432C42.0183 254.335 39.2029 255.345 36.3786 256.329C36.2793 256.401 36.1891 256.211 36.2793 256.148Z" fill="#263238"/>
<path d="M31.8838 229.086L74.646 233.733C74.646 233.733 85.5553 213.882 91.2311 195.591C96.9068 177.3 80.791 180.856 61.959 198.587C43.127 216.318 31.8838 229.086 31.8838 229.086Z" fill="#399B8E"/>
<path d="M31.8838 229.086L74.646 233.733C74.646 233.733 85.5553 213.882 91.2311 195.591C96.9068 177.3 80.791 180.856 61.959 198.587C43.127 216.318 31.8838 229.086 31.8838 229.086Z" fill="#399B8E"/>
<path d="M78.5277 186.215C78.5321 186.26 78.5321 186.306 78.5277 186.351C78.2987 187.913 78.2503 189.496 78.3833 191.07C78.9439 189.59 79.3227 188.048 79.5113 186.477C79.5113 186.206 79.5835 185.945 79.6105 185.674L78.5277 186.215ZM56.1315 228.626C55.7398 229.61 55.4378 230.628 55.2291 231.666L56.1315 231.757C56.2307 230.715 56.2307 229.667 56.1315 228.626ZM41.2969 218.997L40.8818 219.431C41.3511 219.431 41.7842 219.431 42.2985 219.349C41.9556 219.214 41.6308 219.097 41.2969 218.997ZM79.6737 222.002C79.9263 222.102 80.188 222.201 80.4497 222.282C80.4964 222.164 80.5507 222.05 80.6121 221.939C80.3053 221.948 79.9895 221.966 79.6737 222.002ZM66.2648 209.929C65.3234 208.66 64.2429 207.501 63.0435 206.473C63.678 207.923 64.4936 209.288 65.4708 210.533C66.4056 211.8 67.4869 212.95 68.6921 213.962C68.0306 212.534 67.2168 211.182 66.2648 209.929Z" fill="white"/>
<path d="M72.915 233.336C73.1496 233.336 74.7197 233.336 74.7197 233.336C74.9092 232.786 78.5907 224.313 79.4931 222.508C81.3519 218.799 83.4273 215.19 85.4486 211.572C85.5117 211.454 85.6922 211.572 85.629 211.653C84.2033 214.811 82.8318 217.969 81.379 221.145C81.7399 220.721 82.1009 220.297 82.4528 219.864C83.1656 218.962 83.8153 218.059 84.4921 217.103C84.5552 217.022 84.6816 217.103 84.6364 217.202C83.9907 218.507 83.1744 219.721 82.2091 220.812C81.7993 221.291 81.3561 221.74 80.8827 222.156C80.7654 222.418 80.6481 222.688 80.5218 222.941C79.6194 224.746 75.1708 233.841 75.0084 233.832L72.9511 233.58C72.7977 233.616 72.7977 233.327 72.915 233.336Z" fill="#263238"/>
<path d="M39.9427 221.822C49.2188 222.444 58.4678 223.717 67.6627 225.16C70.2735 225.575 72.8663 226.048 75.441 226.577C75.5131 226.577 75.5131 226.703 75.441 226.694C70.8209 226.288 66.2099 225.693 61.599 225.124C56.988 224.556 52.3409 223.942 47.7299 223.211C45.1311 222.814 42.5234 222.417 39.9336 221.975C39.8254 221.984 39.8253 221.813 39.9427 221.822Z" fill="#263238"/>
<path d="M89.0938 183.599C89.2562 185.476 96.2403 198.524 104.605 199.327C107.312 199.58 109.397 184.772 109.397 184.772L109.794 183.716L115.415 168.9L99.0827 154.778L96.7096 152.883C96.7096 152.883 95.4372 157.034 93.9123 162.223C93.8401 162.466 93.7589 162.71 93.6867 162.963C93.6145 163.215 93.5062 163.531 93.425 163.802C93.1904 164.578 92.9468 165.363 92.7302 166.157C92.5588 166.761 92.3873 167.348 92.2249 167.962C92.0625 168.575 91.9 169.225 91.7196 169.856C90.5325 174.372 89.6552 178.964 89.0938 183.599Z" fill="#EB9481"/>
<path d="M93.9111 162.223C94.8412 166.743 96.7433 171.006 99.4857 174.718C102.228 178.429 105.745 181.5 109.792 183.716L115.414 168.9L99.0816 154.778L96.7084 152.883C96.7084 152.883 95.4361 157.034 93.9111 162.223Z" fill="#263238"/>
<path d="M120.359 146.142C121.794 152.459 127.479 156.619 133.055 155.364C138.632 154.11 141.98 147.929 140.545 141.577C139.11 135.224 133.425 131.091 127.849 132.355C122.272 133.618 118.925 139.781 120.359 146.142Z" fill="#455A64"/>
<path d="M117.174 147.279C118.78 154.345 125.096 158.938 131.304 157.539C137.513 156.141 141.23 149.274 139.633 142.199C138.036 135.125 131.711 130.541 125.511 131.94C119.312 133.338 115.577 140.196 117.174 147.279Z" fill="#C7C7C7"/>
<path d="M135.42 138.238C143 164.993 127.832 172.528 122.057 174.188C116.814 175.668 98.7851 180.035 88.4803 154.201C78.1755 128.367 88.2186 116.384 100.021 112.368C111.824 108.353 127.841 111.475 135.42 138.238Z" fill="#EB9481"/>
<path d="M126.106 134.872C125.47 134.935 124.831 134.963 124.193 134.954C123.521 135.082 122.826 134.983 122.217 134.674C122.043 134.54 121.919 134.352 121.863 134.14C121.808 133.927 121.824 133.703 121.91 133.501C122.14 133.129 122.466 132.826 122.853 132.623C123.24 132.419 123.675 132.324 124.112 132.346C125.001 132.247 125.894 132.482 126.62 133.005C126.777 133.136 126.892 133.309 126.953 133.504C127.014 133.699 127.018 133.907 126.963 134.104C126.909 134.301 126.8 134.478 126.647 134.614C126.495 134.75 126.307 134.84 126.106 134.872Z" fill="#263238"/>
<path d="M108.466 141.098C109.079 140.908 109.682 140.685 110.271 140.43C110.939 140.283 111.541 139.922 111.985 139.402C112.091 139.209 112.13 138.988 112.097 138.771C112.065 138.554 111.962 138.354 111.805 138.201C111.447 137.949 111.028 137.797 110.592 137.761C110.156 137.725 109.718 137.805 109.323 137.994C108.467 138.251 107.738 138.817 107.275 139.582C107.18 139.762 107.139 139.966 107.158 140.169C107.176 140.373 107.253 140.566 107.379 140.726C107.505 140.887 107.675 141.007 107.867 141.073C108.06 141.139 108.268 141.148 108.466 141.098Z" fill="#263238"/>
<path d="M113.88 145.817C113.88 145.745 113.763 145.944 113.79 146.016C114.367 147.821 114.692 149.986 113.248 151.06C113.203 151.06 113.248 151.177 113.293 151.159C115.206 150.302 114.701 147.414 113.88 145.817Z" fill="#263238"/>
<path d="M111.696 144.374C108.7 144.988 110.144 150.925 112.923 150.357C115.702 149.788 114.204 143.86 111.696 144.374Z" fill="#263238"/>
<path d="M110.603 144.969C110.17 145.439 109.8 146.151 109.196 146.368C108.591 146.585 107.788 146.124 107.174 145.637C107.111 145.592 107.066 145.637 107.084 145.736C107.346 146.873 108.068 147.938 109.331 147.812C110.594 147.685 111.036 146.494 111.036 145.276C111.045 145.051 110.784 144.789 110.603 144.969Z" fill="#263238"/>
<path d="M124.43 142.561C124.43 142.489 124.601 142.615 124.61 142.687C124.989 144.546 125.729 146.613 127.543 146.829C127.597 146.829 127.615 146.928 127.543 146.937C125.449 147.127 124.493 144.375 124.43 142.561Z" fill="#263238"/>
<path d="M125.611 140.25C128.517 139.347 130.123 145.213 127.416 146.07C124.709 146.927 123.184 141.017 125.611 140.25Z" fill="#263238"/>
<path d="M126.964 140.295C127.514 140.476 128.128 140.918 128.696 140.801C129.265 140.683 129.653 139.898 129.896 139.167C129.896 139.095 129.986 139.167 130.004 139.167C130.347 140.286 130.302 141.559 129.274 142.073C128.245 142.587 127.352 141.775 126.774 140.728C126.666 140.584 126.738 140.196 126.964 140.295Z" fill="#263238"/>
<path d="M118.05 160.652C118.573 161.004 119.132 161.555 119.854 161.437C120.545 161.288 121.196 160.996 121.767 160.58C121.778 160.567 121.794 160.559 121.81 160.557C121.827 160.555 121.844 160.56 121.857 160.571C121.871 160.582 121.879 160.597 121.881 160.614C121.882 160.631 121.877 160.648 121.867 160.661C121.671 161.079 121.367 161.435 120.986 161.694C120.605 161.953 120.161 162.104 119.701 162.132C119.298 162.112 118.911 161.971 118.589 161.728C118.267 161.485 118.026 161.151 117.896 160.77C117.833 160.67 117.968 160.607 118.05 160.652Z" fill="#263238"/>
<path d="M124.103 151.485C124.103 151.485 125.176 154.129 125.51 155.419C125.51 155.545 121.071 157.711 118.201 155.058C118.171 155.038 118.151 155.006 118.144 154.971C118.137 154.935 118.145 154.898 118.165 154.869C118.186 154.839 118.217 154.818 118.252 154.811C118.288 154.804 118.325 154.812 118.355 154.832C120.29 155.537 122.401 155.597 124.373 155.004C124.373 154.625 122.37 150.537 122.569 150.492C123.595 150.323 124.639 150.293 125.673 150.402C123.579 144.834 120.62 139.646 118.625 134.06C118.608 134.019 118.606 133.973 118.621 133.93C118.636 133.888 118.666 133.852 118.705 133.831C118.745 133.81 118.791 133.804 118.834 133.814C118.878 133.825 118.916 133.852 118.941 133.889C122.433 139.114 124.978 145.475 127.279 151.169C127.586 151.864 124.707 151.575 124.103 151.485Z" fill="#263238"/>
<path d="M124.365 155.626C123.886 156.823 123.109 157.879 122.109 158.694C121.548 159.115 120.871 159.354 120.169 159.38C118.626 159.38 118.22 158.107 118.166 156.907C118.144 156.272 118.196 155.636 118.319 155.012C120.217 155.858 122.336 156.073 124.365 155.626Z" fill="#263238"/>
<path d="M122.11 158.694C121.549 159.116 120.872 159.355 120.17 159.38C118.627 159.38 118.221 158.108 118.167 156.908C119.746 156.628 121.551 157.242 122.11 158.694Z" fill="#FF99BA"/>
<path d="M89.7696 153.307C94.9491 153.641 95.5446 141.793 95.5446 141.793C95.5446 141.793 117.201 136.749 117.977 118.81C117.977 118.81 122.426 129.945 134.219 134.385C134.219 134.385 132.261 114.894 116.542 112.043C116.542 112.043 96.8891 106.214 87.0084 122.131C77.1278 138.048 86.2956 153.082 89.7696 153.307Z" fill="#263238"/>
<path d="M117.976 117.484C118.403 120.221 118.24 123.018 117.497 125.686C116.796 128.398 115.536 130.934 113.798 133.131C113.371 133.683 112.91 134.207 112.417 134.701L111.695 135.468C111.443 135.702 111.172 135.919 110.901 136.144C110.36 136.578 109.836 137.047 109.277 137.453C108.717 137.859 108.104 138.193 107.472 138.554C107.174 138.725 106.886 138.915 106.57 139.077L105.668 139.51L103.782 140.367C102.482 140.819 101.165 141.198 99.8564 141.558C101.075 140.936 102.338 140.44 103.538 139.817L105.298 138.824L106.2 138.328C106.48 138.148 106.741 137.94 107.012 137.742C107.553 137.345 108.095 136.957 108.645 136.578C109.196 136.199 109.638 135.675 110.134 135.269L110.883 134.61L111.551 133.87C112.01 133.397 112.441 132.897 112.841 132.373C114.481 130.28 115.753 127.925 116.604 125.406C117.039 124.142 117.371 122.844 117.597 121.526C117.837 120.192 117.963 118.84 117.976 117.484Z" fill="#263238"/>
<path d="M93.6306 153.027C93.6306 153.027 86.0329 145.637 82.5769 148.516C79.1209 151.394 85.9697 162.89 90.8334 163.702C91.4497 163.85 92.0896 163.872 92.7146 163.767C93.3397 163.661 93.9369 163.431 94.4705 163.088C95.0041 162.746 95.4629 162.3 95.8195 161.775C96.176 161.251 96.4229 160.661 96.5452 160.039L93.6306 153.027Z" fill="#EB9481"/>
<path d="M84.6266 151.755C84.6099 151.755 84.5938 151.762 84.582 151.774C84.5701 151.786 84.5635 151.802 84.5635 151.818C84.5635 151.835 84.5701 151.851 84.582 151.863C84.5938 151.875 84.6099 151.882 84.6266 151.882C88.0646 152.558 90.3024 155.193 92.071 158.027C90.898 157.034 89.4813 156.637 88.1187 158.027C88.0465 158.108 88.1187 158.216 88.236 158.18C88.763 157.896 89.3648 157.782 89.9592 157.853C90.5536 157.924 91.1115 158.177 91.5567 158.577C92.2974 159.249 92.9631 159.999 93.5418 160.815C93.7403 161.076 94.2276 160.815 94.0562 160.517L94.011 160.445C93.3072 156.438 89.0572 151.331 84.6266 151.755Z" fill="#263238"/>
<path d="M88.4328 149.265C88.4328 149.265 83.506 136.136 85.2114 127.564C87.1063 118.017 98.9361 107.126 112.462 111.204C112.462 111.204 96.3734 113.614 90.6887 126.544C88.0719 132.5 93.0167 148.264 93.0167 148.264L88.4328 149.265Z" fill="#C7C7C7"/>
<path d="M96.0319 167.977C102.003 166.117 105.125 159.09 103.004 152.281C100.883 145.472 94.3236 141.46 88.3522 143.32C82.3808 145.18 79.2592 152.207 81.3799 159.016C83.5006 165.825 90.0605 169.837 96.0319 167.977Z" fill="#C7C7C7"/>
<path d="M99.7493 152.83C101.653 158.947 98.8469 165.264 93.4328 166.933C88.0188 168.603 82.1716 165.002 80.2586 158.884C78.3456 152.766 81.1609 146.45 86.575 144.772C91.9891 143.093 97.8453 146.748 99.7493 152.83Z" fill="#455A64"/>
<path d="M109.73 183.806L104.767 196.331L89.1567 180.585L84.7803 185.674C84.7803 185.674 100.12 210.741 100.174 209.604L105.282 198.776L112.753 206.239L112.076 187.452L109.73 183.806Z" fill="#EBEBEB"/>
<path d="M112.979 196.945C112.753 193.85 112.627 190.709 112.266 187.623C112.266 187.515 112.076 187.47 112.049 187.623C111.445 190.619 112.338 202.485 112.338 205.327C112.031 205.003 105.417 198.758 105.354 198.858C104.244 200.572 100.499 208.441 100.247 209.153C97.8194 205.174 87.5507 189.482 84.6903 185.692C84.6732 185.675 84.6509 185.664 84.6268 185.661C84.6027 185.658 84.5783 185.663 84.5575 185.676C84.5366 185.688 84.5206 185.707 84.512 185.73C84.5033 185.753 84.5026 185.778 84.5098 185.801C86.6484 190.006 99.9128 210.714 100.102 210.66C102.076 206.949 103.859 203.139 105.444 199.246C106.563 200.608 113.241 207.656 113.259 207.195C113.342 203.776 113.249 200.354 112.979 196.945Z" fill="#263238"/>
<path d="M200.038 100.357C199.496 105.548 197.523 110.486 194.338 114.62C191.153 118.754 186.882 121.923 182.002 123.771C177.121 125.619 171.823 126.075 166.698 125.088C161.574 124.1 156.825 121.708 152.98 118.178L138.886 120.245L145.942 108.063C144.345 104.101 143.67 99.8268 143.969 95.5652C144.268 91.3035 145.532 87.1657 147.667 83.465C149.801 79.7643 152.749 76.5976 156.288 74.2047C159.827 71.8119 163.864 70.2556 168.094 69.6536C172.323 69.0516 176.634 69.4197 180.701 70.7301C184.767 72.0405 188.481 74.2587 191.564 77.217C194.646 80.1752 197.014 83.7959 198.49 87.805C199.966 91.814 200.511 96.1063 200.083 100.357H200.038Z" fill="white"/>
<path d="M200.036 100.357C199.491 105.55 197.524 110.493 194.352 114.641C192.793 116.713 190.932 118.538 188.829 120.055C186.753 121.628 184.466 122.901 182.035 123.836C179.601 124.787 177.047 125.395 174.446 125.64C173.147 125.759 171.841 125.783 170.539 125.713C169.231 125.682 167.927 125.546 166.641 125.307C161.443 124.371 156.609 122.006 152.681 118.476L153.015 118.575L138.939 120.741L137.919 120.894L138.433 119.992L145.463 107.783V108.27C143.81 104.232 143.107 99.8684 143.409 95.5157C143.711 91.1631 145.01 86.938 147.204 83.167C149.395 79.41 152.409 76.1985 156.02 73.7735C159.628 71.3845 163.729 69.8431 168.017 69.2649C172.305 68.6867 176.669 69.0867 180.78 70.4349C184.842 71.8226 188.541 74.101 191.609 77.1032C194.68 80.0898 197.034 83.7341 198.494 87.7618C199.954 91.7894 200.481 96.0957 200.036 100.357ZM200.036 100.357C200.487 96.1147 199.957 91.8261 198.488 87.8212C197.019 83.8163 194.65 80.2022 191.564 77.2573C188.478 74.3124 184.757 72.1153 180.688 70.8355C176.618 69.5557 172.31 69.2272 168.093 69.8754C163.916 70.5029 159.938 72.077 156.462 74.4774C153.02 76.892 150.144 80.0264 148.034 83.6633C145.958 87.3133 144.736 91.3866 144.461 95.5768C144.186 99.767 144.865 103.965 146.446 107.855L146.545 108.108L146.41 108.333L139.318 120.497L138.812 119.748L152.916 117.772H153.114L153.25 117.907C157.029 121.435 161.716 123.841 166.785 124.855C168.043 125.108 169.32 125.262 170.602 125.316C171.885 125.406 173.172 125.406 174.455 125.316C177.028 125.115 179.56 124.559 181.981 123.664C184.415 122.787 186.705 121.553 188.775 120.001C190.891 118.494 192.76 116.667 194.316 114.587C197.497 110.461 199.477 105.537 200.036 100.357Z" fill="#263238"/>
<path d="M184.318 101.693C186.202 101.693 187.729 100.166 187.729 98.282C187.729 96.3982 186.202 94.8711 184.318 94.8711C182.434 94.8711 180.907 96.3982 180.907 98.282C180.907 100.166 182.434 101.693 184.318 101.693Z" fill="#263238"/>
<path d="M172.091 101.693C173.974 101.693 175.501 100.166 175.501 98.282C175.501 96.3982 173.974 94.8711 172.091 94.8711C170.207 94.8711 168.68 96.3982 168.68 98.282C168.68 100.166 170.207 101.693 172.091 101.693Z" fill="#263238"/>
<path d="M159.874 101.693C161.758 101.693 163.285 100.166 163.285 98.282C163.285 96.3982 161.758 94.8711 159.874 94.8711C157.99 94.8711 156.463 96.3982 156.463 98.282C156.463 100.166 157.99 101.693 159.874 101.693Z" fill="#263238"/>
<path d="M480.234 100.357C479.692 105.548 477.719 110.486 474.534 114.62C471.35 118.755 467.079 121.923 462.198 123.771C457.317 125.62 452.019 126.075 446.895 125.088C441.77 124.1 437.021 121.708 433.177 118.179L419.082 120.245L426.129 108.063C424.525 104.099 423.845 99.8213 424.14 95.555C424.435 91.2886 425.698 87.1454 427.832 83.4394C429.966 79.7334 432.916 76.562 436.458 74.1655C440 71.769 444.041 70.2104 448.275 69.6078C452.509 69.0051 456.824 69.3744 460.894 70.6874C464.964 72.0005 468.682 74.2229 471.765 77.1862C474.848 80.1496 477.217 83.776 478.69 87.7907C480.164 91.8053 480.704 96.1027 480.27 100.357H480.234Z" fill="white"/>
<path d="M480.234 100.357C479.685 105.55 477.718 110.491 474.549 114.642C473.757 115.669 472.904 116.648 471.996 117.574C471.056 118.474 470.062 119.315 469.018 120.092C466.945 121.669 464.657 122.942 462.223 123.873C459.793 124.825 457.242 125.432 454.644 125.677C453.342 125.796 452.033 125.82 450.728 125.749C449.419 125.718 448.116 125.582 446.829 125.343C441.637 124.39 436.813 122.009 432.897 118.467L433.231 118.567L419.154 120.732L418.135 120.886L418.649 119.983L425.66 107.775V108.262C424.008 104.224 423.305 99.861 423.606 95.5087C423.906 91.1564 425.202 86.9312 427.393 83.1587C429.587 79.4013 432.605 76.1898 436.218 73.7653C439.825 71.3762 443.927 69.8348 448.215 69.2566C452.503 68.6784 456.867 69.0784 460.978 70.4266C465.04 71.8132 468.74 74.0917 471.806 77.0949C474.881 80.0813 477.237 83.7269 478.696 87.7566C480.156 91.7863 480.682 96.0949 480.234 100.357ZM480.234 100.357C480.684 96.1155 480.155 91.8268 478.686 87.8219C477.217 83.8171 474.848 80.2029 471.762 77.258C468.676 74.3131 464.955 72.1161 460.885 70.8362C456.816 69.5564 452.507 69.2279 448.291 69.8762C444.114 70.5036 440.136 72.0777 436.66 74.4781C433.218 76.8927 430.342 80.0271 428.232 83.664C426.141 87.3125 424.907 91.3885 424.623 95.584C424.358 99.7708 425.033 103.964 426.599 107.856L426.707 108.109L426.572 108.334L419.479 120.498L418.974 119.749L433.078 117.773H433.276L433.411 117.908C437.178 121.428 441.848 123.834 446.902 124.856C448.16 125.109 449.436 125.263 450.718 125.316C452.001 125.407 453.289 125.407 454.572 125.316C457.144 125.116 459.677 124.56 462.097 123.665C464.531 122.786 466.82 121.552 468.892 120.001C471.003 118.492 472.868 116.665 474.423 114.587C477.641 110.474 479.652 105.547 480.234 100.357Z" fill="#263238"/>
<path d="M464.469 101.693C466.353 101.693 467.88 100.166 467.88 98.282C467.88 96.3982 466.353 94.8711 464.469 94.8711C462.586 94.8711 461.059 96.3982 461.059 98.282C461.059 100.166 462.586 101.693 464.469 101.693Z" fill="#263238"/>
<path d="M452.251 101.693C454.134 101.693 455.662 100.166 455.662 98.282C455.662 96.3982 454.134 94.8711 452.251 94.8711C450.367 94.8711 448.84 96.3982 448.84 98.282C448.84 100.166 450.367 101.693 452.251 101.693Z" fill="#263238"/>
<path d="M443.445 98.2812C443.447 98.9562 443.248 99.6166 442.874 100.179C442.501 100.741 441.969 101.179 441.345 101.439C440.722 101.698 440.036 101.767 439.374 101.637C438.712 101.506 438.103 101.182 437.625 100.705C437.147 100.229 436.822 99.6209 436.689 98.959C436.557 98.2971 436.624 97.6108 436.882 96.9871C437.14 96.3633 437.577 95.83 438.138 95.4549C438.699 95.0797 439.359 94.8794 440.034 94.8794C440.937 94.8794 441.803 95.2375 442.443 95.8752C443.082 96.5129 443.442 97.3782 443.445 98.2812Z" fill="#263238"/>
<path d="M153.404 300.064H147.367V304.008H153.404V300.064Z" fill="#455A64"/>
<path d="M161.238 299.803H155.201V303.746H161.238V299.803Z" fill="#455A64"/>
<path d="M169.068 299.541H163.031V303.484H169.068V299.541Z" fill="#455A64"/>
<path d="M176.893 299.279H170.856V303.223H176.893V299.279Z" fill="#455A64"/>
<path d="M184.724 299.018H178.688V302.961H184.724V299.018Z" fill="#455A64"/>
<path d="M192.557 298.764H186.521V302.707H192.557V298.764Z" fill="#455A64"/>
<path d="M200.38 298.502H194.344V302.446H200.38V298.502Z" fill="#455A64"/>
<path d="M208.213 298.241H202.177V302.184H208.213V298.241Z" fill="#455A64"/>
<path d="M216.036 297.98H209.999V301.924H216.036V297.98Z" fill="#455A64"/>
<path d="M217.517 306.272H145.889V301.471L217.517 299.477V306.272Z" fill="#37474F"/>
<path d="M287.429 287.359H169.186L187.99 199.326H306.234L287.429 287.359Z" fill="#455A64"/>
<path d="M291.805 287.359H173.553L192.358 199.326H310.61L291.805 287.359Z" fill="#37474F"/>
<path d="M252.3 238.245C251.938 240.249 250.899 242.068 249.357 243.398C247.815 244.728 245.863 245.489 243.827 245.554C242.909 245.582 241.996 245.402 241.157 245.027C240.318 244.652 239.575 244.092 238.983 243.389C238.392 242.685 237.968 241.857 237.742 240.966C237.517 240.075 237.496 239.145 237.682 238.245C238.041 236.24 239.078 234.419 240.618 233.087C242.159 231.755 244.111 230.992 246.146 230.927C247.067 230.896 247.982 231.075 248.823 231.45C249.663 231.825 250.408 232.386 251.001 233.091C251.593 233.796 252.018 234.625 252.243 235.518C252.469 236.411 252.488 237.343 252.3 238.245Z" fill="#263238"/>
<path d="M258.364 310.351H200.208V305.83L258.364 303.954V310.351Z" fill="#455A64"/>
<path d="M274.176 310.341H242.946L224.141 261.01H255.371L274.176 310.341Z" fill="#455A64"/>
<path d="M279.309 310.341H248.088L229.283 261.01H260.504L279.309 310.341Z" fill="#263238"/>
<path d="M143.659 311.551H83.7249C78.6086 311.551 86.0078 296.978 104.686 291.392C123.365 285.807 149.569 306.082 143.659 311.551Z" fill="#37474F"/>
<path d="M120.196 311.551C120.237 309.891 120.51 308.244 121.008 306.66C121.49 305.059 122.165 303.522 123.021 302.085C123.878 300.64 124.952 299.334 126.206 298.214C127.449 297.103 128.879 296.22 130.429 295.606C129.788 296.13 129.057 296.509 128.471 297.077L127.568 297.862L126.72 298.765C125.612 299.925 124.64 301.209 123.824 302.591C122.994 303.972 122.282 305.421 121.694 306.922C121.092 308.43 120.592 309.976 120.196 311.551Z" fill="#263238"/>
<path d="M127.253 297.682C130.819 298.811 134.194 300.475 137.26 302.618C138.812 303.69 140.216 304.961 141.438 306.399C142.719 307.829 143.498 309.638 143.658 311.551C143.161 309.787 142.208 308.184 140.896 306.904C139.618 305.602 138.219 304.424 136.719 303.385C135.23 302.311 133.669 301.346 132.08 300.398C130.492 299.451 128.895 298.557 127.253 297.682Z" fill="#263238"/>
<path d="M430.297 300.064H424.261V304.008H430.297V300.064Z" fill="#455A64"/>
<path d="M438.131 299.803H432.095V303.746H438.131V299.803Z" fill="#455A64"/>
<path d="M445.962 299.541H439.925V303.484H445.962V299.541Z" fill="#455A64"/>
<path d="M453.787 299.279H447.75V303.223H453.787V299.279Z" fill="#455A64"/>
<path d="M461.618 299.018H455.581V302.961H461.618V299.018Z" fill="#455A64"/>
<path d="M469.452 298.764H463.415V302.707H469.452V298.764Z" fill="#455A64"/>
<path d="M477.274 298.502H471.237V302.446H477.274V298.502Z" fill="#455A64"/>
<path d="M485.107 298.241H479.07V302.184H485.107V298.241Z" fill="#455A64"/>
<path d="M492.938 297.98H486.901V301.924H492.938V297.98Z" fill="#455A64"/>
<path d="M494.419 306.272H422.791V301.471L494.419 299.477V306.272Z" fill="#37474F"/>
<path d="M564.323 287.359H446.079L464.884 199.326H583.127L564.323 287.359Z" fill="#455A64"/>
<path d="M568.7 287.359H450.457L469.262 199.326H587.505L568.7 287.359Z" fill="#37474F"/>
<path d="M529.195 238.245C528.833 240.247 527.795 242.065 526.255 243.395C524.715 244.725 522.765 245.487 520.731 245.554C519.812 245.584 518.898 245.405 518.057 245.03C517.217 244.656 516.473 244.096 515.881 243.392C515.288 242.689 514.863 241.86 514.637 240.968C514.411 240.077 514.391 239.145 514.577 238.245C514.937 236.24 515.974 234.42 517.515 233.089C519.055 231.757 521.006 230.994 523.041 230.927C523.961 230.896 524.876 231.075 525.717 231.45C526.558 231.825 527.303 232.386 527.896 233.091C528.488 233.796 528.913 234.625 529.138 235.518C529.363 236.411 529.383 237.343 529.195 238.245Z" fill="#263238"/>
<path d="M535.258 310.351H477.102V305.83L535.258 303.954V310.351Z" fill="#455A64"/>
<path d="M551.069 310.341H519.839L501.034 261.01H532.264L551.069 310.341Z" fill="#455A64"/>
<path d="M556.213 310.341H524.983L506.178 261.01H537.408L556.213 310.341Z" fill="#263238"/>
<path d="M420.579 311.551H360.618C355.502 311.551 362.901 296.978 381.58 291.392C400.258 285.807 426.463 306.082 420.579 311.551Z" fill="#37474F"/>
<path d="M397.046 311.551C397.09 309.891 397.364 308.245 397.858 306.66C398.343 305.06 399.019 303.524 399.87 302.085C400.733 300.644 401.807 299.339 403.056 298.214C404.299 297.103 405.728 296.22 407.278 295.606C406.638 296.13 405.907 296.509 405.32 297.077L404.418 297.862L403.57 298.765C402.456 299.923 401.481 301.207 400.664 302.591C399.834 303.972 399.122 305.421 398.535 306.922C397.936 308.43 397.439 309.976 397.046 311.551Z" fill="#263238"/>
<path d="M404.146 297.682C407.713 298.811 411.087 300.475 414.153 302.618C415.706 303.693 417.114 304.963 418.34 306.399C419.618 307.819 420.403 309.613 420.578 311.515C420.078 309.75 419.123 308.148 417.808 306.868C416.529 305.566 415.131 304.388 413.63 303.349C412.15 302.275 410.58 301.31 408.992 300.362C407.404 299.415 405.798 298.557 404.146 297.682Z" fill="#263238"/>
</svg>
