<svg width="737" height="543" viewBox="0 0 737 543" fill="none" xmlns="http://www.w3.org/2000/svg">
<path d="M663.219 505.858H614.443V506.227H663.219V505.858Z" fill="#EBEBEB"/>
<path d="M488.438 509.864H475.641V510.232H488.438V509.864Z" fill="#EBEBEB"/>
<path d="M612.972 492.192H584.711V492.56H612.972V492.192Z" fill="#EBEBEB"/>
<path d="M141.516 494.666H77.9102V495.034H141.516V494.666Z" fill="#EBEBEB"/>
<path d="M163.959 494.666H154.637V495.034H163.959V494.666Z" fill="#EBEBEB"/>
<path d="M332.23 500.88H194.268V501.249H332.23V500.88Z" fill="#EBEBEB"/>
<path d="M351.743 416.48H67.3642C65.134 416.48 62.9951 415.594 61.4181 414.017C59.841 412.44 58.9551 410.301 58.9551 408.071V8.33549C58.9745 6.11803 59.869 3.99801 61.4439 2.43689C63.0189 0.87576 65.1467 -8.50131e-05 67.3642 6.1891e-09H351.743C352.847 6.18911e-09 353.941 0.217507 354.961 0.640105C355.981 1.0627 356.908 1.68212 357.689 2.46298C358.47 3.24383 359.089 4.17085 359.512 5.19109C359.934 6.21134 360.152 7.30482 360.152 8.40912V408.071C360.152 409.175 359.934 410.269 359.512 411.289C359.089 412.309 358.47 413.236 357.689 414.017C356.908 414.798 355.981 415.417 354.961 415.84C353.941 416.262 352.847 416.48 351.743 416.48ZM67.3642 0.294541C65.2328 0.298434 63.1898 1.14685 61.6827 2.65398C60.1756 4.16111 59.3271 6.20409 59.3233 8.33549V408.071C59.3271 410.202 60.1756 412.245 61.6827 413.752C63.1898 415.259 65.2328 416.108 67.3642 416.112H351.743C353.874 416.108 355.917 415.259 357.424 413.752C358.931 412.245 359.78 410.202 359.784 408.071V8.33549C359.78 6.20409 358.931 4.16111 357.424 2.65398C355.917 1.14685 353.874 0.298434 351.743 0.294541H67.3642Z" fill="#EBEBEB"/>
<path d="M670.286 416.48H385.907C383.677 416.48 381.538 415.594 379.961 414.017C378.384 412.44 377.498 410.301 377.498 408.071V8.33549C377.517 6.11803 378.412 3.99801 379.987 2.43689C381.562 0.87576 383.69 -8.50131e-05 385.907 6.1891e-09H670.286C672.516 6.18912e-09 674.655 0.885959 676.232 2.46298C677.809 4.03999 678.695 6.17888 678.695 8.40912V408.071C678.695 410.301 677.809 412.44 676.232 414.017C674.655 415.594 672.516 416.48 670.286 416.48ZM385.907 0.294541C383.776 0.298434 381.733 1.14685 380.226 2.65398C378.719 4.16111 377.87 6.20409 377.866 8.33549V408.071C377.87 410.202 378.719 412.245 380.226 413.752C381.733 415.259 383.776 416.108 385.907 416.112H670.286C672.417 416.108 674.46 415.259 675.967 413.752C677.474 412.245 678.323 410.202 678.327 408.071V8.33549C678.323 6.20409 677.474 4.16111 675.967 2.65398C674.46 1.14685 672.417 0.298434 670.286 0.294541H385.907Z" fill="#EBEBEB"/>
<path d="M737.001 482.163H0.650391V482.531H737.001V482.163Z" fill="#EBEBEB"/>
<path d="M596.224 53.5039H556.623C544.065 53.5039 533.885 63.6843 533.885 76.2424V115.843C533.885 128.401 544.065 138.582 556.623 138.582H596.224C608.782 138.582 618.963 128.401 618.963 115.843V76.2424C618.963 63.6843 608.782 53.5039 596.224 53.5039Z" fill="#F0F0F0"/>
<path d="M587.007 84.0178C587.007 91.2635 583.325 97.1248 576.08 97.1248C568.834 97.1248 565.152 91.234 565.152 84.0178C565.152 76.8015 568.834 70.896 576.08 70.896C583.325 70.896 587.007 76.7721 587.007 84.0178Z" fill="#FAFAFA"/>
<path d="M576.078 121.174H596.298V109.157C596.298 102.515 587.241 97.125 576.078 97.125C564.915 97.125 555.857 102.515 555.857 109.157V121.174H576.078Z" fill="#FAFAFA"/>
<path d="M223.75 82.0293H196.093C187.325 82.0293 180.217 89.1371 180.217 97.905V125.562C180.217 134.33 187.325 141.438 196.093 141.438H223.75C232.518 141.438 239.626 134.33 239.626 125.562V97.905C239.626 89.1371 232.518 82.0293 223.75 82.0293Z" fill="#E6E6E6"/>
<path d="M208.715 114.945C209.607 113.706 210.64 112.574 211.793 111.572C212.58 110.877 213.309 110.118 213.973 109.304C214.427 108.702 214.67 107.967 214.665 107.213C214.681 106.698 214.568 106.187 214.337 105.727C214.105 105.267 213.762 104.871 213.339 104.577C212.297 103.894 211.065 103.559 209.82 103.62C208.515 103.589 207.223 103.888 206.064 104.489C204.966 105.08 204.019 105.917 203.296 106.933L197.861 103.752C199.126 101.843 200.888 100.316 202.957 99.3343C205.344 98.227 207.955 97.6877 210.585 97.7585C213.509 97.6205 216.404 98.3868 218.877 99.9528C219.868 100.621 220.674 101.529 221.22 102.592C221.766 103.656 222.034 104.84 221.999 106.035C222.023 107.147 221.812 108.251 221.38 109.275C221.023 110.136 220.525 110.933 219.908 111.631C219.319 112.279 218.567 113.016 217.64 113.855C216.752 114.61 215.938 115.449 215.21 116.359C214.687 117.064 214.417 117.926 214.444 118.803H207.655C207.6 117.438 207.971 116.09 208.715 114.945ZM207.993 128.891C207.589 128.517 207.269 128.061 207.056 127.553C206.842 127.045 206.74 126.497 206.756 125.946C206.745 125.412 206.848 124.882 207.059 124.392C207.27 123.902 207.583 123.462 207.979 123.104C208.842 122.362 209.941 121.955 211.079 121.955C212.216 121.955 213.316 122.362 214.179 123.104C214.572 123.464 214.883 123.904 215.091 124.394C215.299 124.884 215.4 125.413 215.386 125.946C215.403 126.497 215.3 127.045 215.087 127.553C214.874 128.061 214.554 128.517 214.149 128.891C213.308 129.659 212.21 130.085 211.071 130.085C209.933 130.085 208.835 129.659 207.993 128.891Z" fill="#FAFAFA"/>
<path d="M592.146 285.395H613.544C616.805 285.395 619.933 286.691 622.239 288.997C624.545 291.303 625.841 294.431 625.841 297.692V319.09C625.841 322.348 624.547 325.472 622.244 327.775C619.94 330.079 616.816 331.373 613.559 331.373H592.146C588.888 331.373 585.764 330.079 583.461 327.775C581.157 325.472 579.863 322.348 579.863 319.09V297.692C579.863 294.435 581.157 291.311 583.461 289.007C585.764 286.704 588.888 285.41 592.146 285.41V285.395Z" fill="#EBEBEB"/>
<path d="M601.894 310.873C602.587 309.915 603.387 309.04 604.28 308.266C604.893 307.726 605.46 307.134 605.974 306.499C606.325 306.038 606.512 305.473 606.504 304.894C606.519 304.495 606.433 304.099 606.252 303.744C606.072 303.388 605.804 303.084 605.473 302.862C604.669 302.325 603.714 302.061 602.749 302.11C601.762 302.081 600.783 302.301 599.903 302.748C599.023 303.196 598.269 303.858 597.712 304.673L593.5 302.214C594.473 300.723 595.839 299.531 597.447 298.767C599.291 297.914 601.306 297.496 603.338 297.545C605.603 297.435 607.847 298.032 609.759 299.253C610.529 299.772 611.155 300.478 611.577 301.305C612 302.132 612.205 303.053 612.174 303.981C612.191 304.839 612.03 305.691 611.703 306.484C611.425 307.153 611.037 307.771 610.554 308.311C610.002 308.917 609.417 309.492 608.801 310.034C608.119 310.621 607.488 311.267 606.916 311.963C606.521 312.516 606.314 313.182 606.327 313.863H601.084C601.039 312.806 601.322 311.762 601.894 310.873ZM601.335 321.668C601.028 321.383 600.785 321.036 600.622 320.65C600.459 320.264 600.381 319.848 600.392 319.429C600.383 319.017 600.462 318.607 600.621 318.226C600.781 317.846 601.019 317.503 601.32 317.22C601.989 316.649 602.84 316.335 603.721 316.335C604.601 316.335 605.452 316.649 606.121 317.22C606.425 317.502 606.665 317.844 606.828 318.224C606.99 318.605 607.07 319.016 607.064 319.429C607.073 319.849 606.992 320.266 606.827 320.652C606.662 321.038 606.416 321.385 606.106 321.668C605.792 321.975 605.418 322.216 605.008 322.375C604.598 322.534 604.16 322.609 603.721 322.596C603.281 322.606 602.844 322.53 602.435 322.37C602.025 322.211 601.652 321.972 601.335 321.668Z" fill="#FAFAFA"/>
<path d="M173.119 171.128H145.462C136.694 171.128 129.586 178.236 129.586 187.004V214.661C129.586 223.429 136.694 230.537 145.462 230.537H173.119C181.887 230.537 188.995 223.429 188.995 214.661V187.004C188.995 178.236 181.887 171.128 173.119 171.128Z" fill="#EBEBEB"/>
<path d="M159.29 184.088C157.525 184.088 155.778 184.436 154.147 185.112C152.517 185.788 151.035 186.778 149.788 188.027C148.541 189.276 147.552 190.758 146.878 192.389C146.203 194.021 145.857 195.769 145.859 197.534C145.859 204.897 151.868 222.746 159.29 222.746C166.713 222.746 172.721 204.941 172.721 197.534C172.723 195.769 172.377 194.021 171.703 192.389C171.029 190.758 170.04 189.276 168.793 188.027C167.545 186.778 166.064 185.788 164.434 185.112C162.803 184.436 161.055 184.088 159.29 184.088ZM159.29 201.584C158.489 201.584 157.706 201.346 157.04 200.901C156.374 200.456 155.855 199.824 155.549 199.083C155.242 198.343 155.162 197.529 155.318 196.744C155.475 195.958 155.86 195.236 156.427 194.67C156.993 194.104 157.715 193.718 158.5 193.562C159.286 193.405 160.1 193.485 160.84 193.792C161.58 194.099 162.213 194.618 162.658 195.284C163.103 195.95 163.34 196.733 163.34 197.534C163.325 198.598 162.891 199.613 162.134 200.359C161.376 201.106 160.354 201.525 159.29 201.525V201.584Z" fill="#FAFAFA"/>
<path d="M165.222 281.934C165.654 279.207 165.654 276.429 165.222 273.702L161.084 273.157C160.75 271.636 160.256 270.155 159.611 268.739L162.645 265.867C161.383 263.411 159.749 261.165 157.8 259.21L154.118 261.213C152.98 260.182 151.736 259.273 150.407 258.503L151.172 254.395C148.726 253.136 146.097 252.271 143.382 251.832L141.6 255.587C140.849 255.514 140.127 255.47 139.302 255.47C138.478 255.47 137.741 255.47 136.99 255.587L135.208 251.832C132.479 252.262 129.834 253.122 127.374 254.38L128.139 258.489C126.81 259.259 125.566 260.167 124.428 261.198L120.746 259.196C118.797 261.151 117.163 263.396 115.901 265.852L118.935 268.724C118.29 270.141 117.796 271.622 117.462 273.142L113.339 273.687C112.887 276.412 112.887 279.194 113.339 281.919L117.462 282.464C117.796 283.985 118.29 285.466 118.935 286.882L115.901 289.754C117.16 292.212 118.794 294.458 120.746 296.411L124.428 294.408C125.566 295.439 126.81 296.348 128.139 297.118L127.374 301.226C129.834 302.484 132.479 303.344 135.208 303.774L136.99 300.019C137.741 300.092 138.463 300.137 139.302 300.137C140.142 300.137 140.775 300.137 141.6 300.019L143.382 303.774C146.112 303.344 148.756 302.484 151.217 301.226L150.451 297.118C151.78 296.348 153.024 295.439 154.162 294.408L157.844 296.411C159.793 294.456 161.428 292.21 162.689 289.754L159.699 286.853C160.343 285.435 160.836 283.955 161.172 282.435L165.222 281.934ZM139.302 286.985C137.487 286.988 135.711 286.452 134.2 285.445C132.688 284.438 131.51 283.005 130.814 281.328C130.118 279.651 129.935 277.805 130.288 276.024C130.642 274.243 131.516 272.607 132.8 271.323C134.084 270.039 135.72 269.165 137.501 268.811C139.282 268.458 141.128 268.641 142.806 269.337C144.483 270.033 145.915 271.211 146.922 272.722C147.93 274.233 148.466 276.009 148.463 277.825C148.459 280.253 147.492 282.581 145.775 284.298C144.058 286.015 141.731 286.982 139.302 286.985Z" fill="#EBEBEB"/>
<path d="M178.508 311.565C178.614 310.883 178.668 310.193 178.67 309.503C178.669 308.813 178.615 308.123 178.508 307.441L176.432 307.176C176.274 306.422 176.037 305.686 175.725 304.982L177.198 303.509C176.567 302.275 175.747 301.147 174.768 300.166L172.927 301.168C172.355 300.655 171.733 300.201 171.071 299.813L171.454 297.766C170.225 297.133 168.902 296.701 167.537 296.484L166.653 298.369C166.27 298.369 165.887 298.369 165.504 298.369C165.121 298.369 164.724 298.369 164.341 298.369L163.457 296.484C162.092 296.701 160.769 297.133 159.54 297.766L159.923 299.813C159.261 300.201 158.639 300.655 158.067 301.168L156.226 300.166C155.247 301.147 154.427 302.275 153.796 303.509L155.269 304.982C154.957 305.686 154.72 306.422 154.562 307.176L152.5 307.441C152.386 308.122 152.332 308.812 152.338 309.503C152.333 310.194 152.387 310.883 152.5 311.565L154.562 311.83C154.72 312.579 154.957 313.31 155.269 314.01L153.796 315.482C154.428 316.712 155.248 317.835 156.226 318.811L158.067 317.809C158.632 318.33 159.254 318.785 159.923 319.164L159.54 321.211C160.769 321.843 162.092 322.276 163.457 322.492L164.341 320.607C165.11 320.686 165.884 320.686 166.653 320.607L167.537 322.492C168.902 322.276 170.225 321.843 171.454 321.211L171.071 319.164C171.74 318.785 172.362 318.33 172.927 317.809L174.768 318.811C175.746 317.835 176.566 316.712 177.198 315.482L175.725 314.01C176.037 313.31 176.274 312.579 176.432 311.83L178.508 311.565ZM165.549 314.083C164.643 314.083 163.757 313.815 163.004 313.311C162.251 312.808 161.664 312.093 161.317 311.256C160.97 310.419 160.88 309.498 161.056 308.61C161.233 307.721 161.669 306.905 162.31 306.264C162.95 305.624 163.767 305.188 164.655 305.011C165.543 304.834 166.464 304.925 167.301 305.272C168.138 305.618 168.853 306.205 169.357 306.958C169.86 307.712 170.129 308.597 170.129 309.503C170.125 310.709 169.647 311.865 168.799 312.722C167.95 313.579 166.799 314.068 165.593 314.083H165.549Z" fill="#E0E0E0"/>
<path d="M633.529 281.846C634.084 281.436 634.611 280.988 635.104 280.506C635.591 280.016 636.039 279.489 636.445 278.93L635.178 277.28C635.597 276.638 635.942 275.952 636.209 275.233H638.3C638.729 273.921 638.948 272.549 638.948 271.169L636.931 270.58C636.901 269.812 636.782 269.051 636.577 268.312L638.3 267.133C637.883 265.816 637.251 264.577 636.43 263.466L634.471 264.159C634.232 263.86 633.976 263.575 633.705 263.304C633.426 263.025 633.146 262.774 632.851 262.524L633.543 260.565C632.424 259.758 631.187 259.127 629.876 258.695L628.698 260.418C627.95 260.227 627.186 260.109 626.416 260.064L625.826 258.062C624.446 258.057 623.073 258.276 621.762 258.71V260.786C621.045 261.063 620.359 261.414 619.715 261.832L618.051 260.565C616.923 261.389 615.929 262.383 615.105 263.511L616.372 265.16C615.956 265.811 615.606 266.502 615.326 267.222H613.25C612.823 268.535 612.605 269.906 612.602 271.286L614.604 271.876C614.648 272.641 614.767 273.401 614.958 274.143L613.235 275.336C613.667 276.647 614.298 277.884 615.105 279.003L617.064 278.297C617.314 278.591 617.565 278.886 617.844 279.165C618.124 279.445 618.404 279.696 618.699 279.931L618.006 281.89C619.117 282.711 620.356 283.343 621.673 283.76L622.852 282.037C623.591 282.242 624.352 282.361 625.12 282.391L625.709 284.408C627.094 284.407 628.47 284.188 629.788 283.76V281.669C630.504 281.397 631.19 281.051 631.835 280.638L633.529 281.846ZM622.586 274.482C621.946 273.842 621.51 273.025 621.334 272.137C621.158 271.249 621.249 270.328 621.595 269.491C621.942 268.655 622.529 267.94 623.282 267.436C624.035 266.933 624.921 266.665 625.826 266.665C626.732 266.665 627.617 266.933 628.371 267.436C629.124 267.94 629.711 268.655 630.058 269.491C630.404 270.328 630.495 271.249 630.319 272.137C630.142 273.025 629.707 273.842 629.066 274.482C628.641 274.909 628.135 275.247 627.579 275.477C627.022 275.707 626.426 275.825 625.823 275.824C625.221 275.822 624.625 275.702 624.069 275.469C623.514 275.236 623.01 274.896 622.586 274.467V274.482Z" fill="#F0F0F0"/>
<path d="M368.825 543C526.526 543 654.367 535.536 654.367 526.329C654.367 517.122 526.526 509.658 368.825 509.658C211.125 509.658 83.2832 517.122 83.2832 526.329C83.2832 535.536 211.125 543 368.825 543Z" fill="#F5F5F5"/>
<path d="M421.195 86.5357V63.591L432.476 62.0005V84.9452L421.195 86.5357Z" fill="#263238"/>
<path d="M383.684 99.3186L375.23 85.8581L382.432 80.7036L390.871 94.1494L383.684 99.3186Z" fill="#263238"/>
<path d="M462.783 84.0321L471.237 68.2153L478.423 71.3522L469.985 87.1837L462.783 84.0321Z" fill="#263238"/>
<g opacity="0.5">
<path d="M421.193 86.5362V63.5915L432.474 62.001V84.9457L421.193 86.5362Z" fill="white"/>
<path d="M383.684 99.319L375.23 85.8586L382.432 80.7041L390.871 94.1499L383.684 99.319Z" fill="white"/>
<path d="M462.783 84.0326L471.237 68.2158L478.423 71.3527L469.985 87.1842L462.783 84.0326Z" fill="white"/>
</g>
<path d="M434.081 65.6972L419.59 67.7443C419.064 67.8415 418.523 67.8194 418.006 67.6798C417.49 67.5402 417.011 67.2866 416.606 66.9376C416.2 66.5886 415.878 66.1531 415.663 65.6632C415.448 65.1733 415.346 64.6414 415.363 64.1067C415.397 62.9374 415.837 61.8164 416.609 60.9372C417.38 60.058 418.435 59.4758 419.59 59.291L434.081 57.2586C434.606 57.1618 435.146 57.1835 435.661 57.3223C436.177 57.4611 436.655 57.7134 437.06 58.0608C437.465 58.4081 437.787 58.8417 438.003 59.3297C438.219 59.8178 438.323 60.348 438.308 60.8815C438.272 62.05 437.83 63.1695 437.059 64.0481C436.288 64.9268 435.235 65.5098 434.081 65.6972Z" fill="#263238"/>
<path d="M384.773 80.3356L374.037 88.0526C373.814 88.2392 373.555 88.3779 373.276 88.4601C372.996 88.5423 372.703 88.5661 372.415 88.5302C372.126 88.4943 371.848 88.3994 371.597 88.2513C371.347 88.1033 371.13 87.9053 370.959 87.6697C370.676 87.1296 370.603 86.5035 370.756 85.9129C370.908 85.3224 371.275 84.8095 371.784 84.4739L382.534 76.7717C382.756 76.5833 383.013 76.443 383.292 76.3598C383.57 76.2765 383.862 76.2521 384.15 76.2881C384.439 76.3241 384.716 76.4198 384.965 76.569C385.215 76.7182 385.43 76.9176 385.598 77.1546C385.88 77.6925 385.952 78.3163 385.8 78.9044C385.647 79.4924 385.281 80.0027 384.773 80.3356Z" fill="#263238"/>
<path d="M479.631 73.2079L468.88 68.5247C468.624 68.3945 468.397 68.2124 468.215 67.9901C468.033 67.7678 467.899 67.51 467.821 67.2331C467.744 66.9562 467.724 66.6663 467.765 66.3816C467.805 66.0969 467.904 65.8237 468.056 65.5793C468.324 65.0281 468.787 64.5955 469.355 64.3645C469.923 64.1335 470.556 64.1203 471.134 64.3275L481.87 69.0254C482.129 69.1521 482.359 69.3324 482.544 69.5543C482.729 69.7763 482.865 70.0348 482.943 70.313C483.021 70.5913 483.039 70.8828 482.996 71.1685C482.953 71.4543 482.85 71.7277 482.694 71.9708C482.426 72.5182 481.965 72.9472 481.399 73.1755C480.834 73.4038 480.204 73.4153 479.631 73.2079Z" fill="#263238"/>
<path opacity="0.7" d="M434.081 65.6972L419.59 67.7443C419.064 67.8415 418.523 67.8194 418.006 67.6798C417.49 67.5402 417.011 67.2866 416.606 66.9376C416.2 66.5886 415.878 66.1531 415.663 65.6632C415.448 65.1733 415.346 64.6414 415.363 64.1067C415.397 62.9374 415.837 61.8164 416.609 60.9372C417.38 60.058 418.435 59.4758 419.59 59.291L434.081 57.2586C434.606 57.1618 435.146 57.1835 435.661 57.3223C436.177 57.4611 436.655 57.7134 437.06 58.0608C437.465 58.4081 437.787 58.8417 438.003 59.3297C438.219 59.8178 438.323 60.348 438.308 60.8815C438.272 62.05 437.83 63.1695 437.059 64.0481C436.288 64.9268 435.235 65.5098 434.081 65.6972Z" fill="white"/>
<path opacity="0.7" d="M384.773 80.3356L374.037 88.0526C373.814 88.2392 373.555 88.3779 373.276 88.4601C372.996 88.5423 372.703 88.5661 372.415 88.5302C372.126 88.4943 371.848 88.3994 371.597 88.2513C371.347 88.1033 371.13 87.9053 370.959 87.6697C370.676 87.1296 370.603 86.5035 370.756 85.9129C370.908 85.3224 371.275 84.8095 371.784 84.4739L382.534 76.7717C382.756 76.5833 383.013 76.443 383.292 76.3598C383.57 76.2765 383.862 76.2521 384.15 76.2881C384.439 76.3241 384.716 76.4198 384.965 76.569C385.215 76.7182 385.43 76.9176 385.598 77.1546C385.88 77.6925 385.952 78.3163 385.8 78.9044C385.647 79.4924 385.281 80.0027 384.773 80.3356Z" fill="white"/>
<path opacity="0.7" d="M479.631 73.2079L468.88 68.5247C468.624 68.3945 468.397 68.2124 468.215 67.9901C468.033 67.7678 467.899 67.51 467.821 67.2331C467.744 66.9562 467.724 66.6663 467.765 66.3816C467.805 66.0969 467.904 65.8237 468.056 65.5793C468.324 65.0281 468.787 64.5955 469.355 64.3645C469.923 64.1335 470.556 64.1203 471.134 64.3275L481.87 69.0254C482.129 69.1521 482.359 69.3324 482.544 69.5543C482.729 69.7763 482.865 70.0348 482.943 70.313C483.021 70.5913 483.039 70.8828 482.996 71.1685C482.953 71.4543 482.85 71.7277 482.694 71.9708C482.426 72.5182 481.965 72.9472 481.399 73.1755C480.834 73.4038 480.204 73.4153 479.631 73.2079Z" fill="white"/>
<path d="M426.835 230.184C387.617 235.691 355.821 208.373 355.821 169.155C355.821 129.937 387.617 93.6641 426.835 88.1562C466.053 82.6483 497.849 109.967 497.849 149.185L507.539 147.83C507.539 103.251 471.399 72.2068 426.835 78.4658C382.271 84.7248 346.131 125.946 346.131 170.51C346.131 215.074 382.256 246.133 426.835 239.874V230.184Z" fill="#16B99B"/>
<path d="M398.618 209.472L393.318 219.397L395.397 220.507L400.696 210.582L398.618 209.472Z" fill="#263238"/>
<path d="M458.245 97.8199L452.945 107.745L455.024 108.855L460.323 98.9298L458.245 97.8199Z" fill="#263238"/>
<path d="M371.058 133.503L370.115 135.662L379.293 139.67L380.236 137.51L371.058 133.503Z" fill="#263238"/>
<path d="M396.28 108.302L394.277 109.551L399.562 118.026L401.564 116.777L396.28 108.302Z" fill="#263238"/>
<path d="M379.104 192.018L369.914 198.611L371.288 200.526L380.477 193.932L379.104 192.018Z" fill="#263238"/>
<path d="M482.377 117.854L473.188 124.448L474.561 126.362L483.751 119.769L482.377 117.854Z" fill="#263238"/>
<path d="M375.719 163.974L361.588 165.96L362.244 170.627L376.375 168.641L375.719 163.974Z" fill="#263238"/>
<path d="M429.191 94.2534H424.479V108.391H429.191V94.2534Z" fill="#263238"/>
<path d="M429.191 209.949H424.479V224.087H429.191V209.949Z" fill="#263238"/>
<path d="M408.587 143.854C408.038 144.405 407.73 145.152 407.73 145.93C407.73 146.708 408.038 147.455 408.587 148.007L424.404 161.585L428.542 156.857L412.74 143.264C412.43 143.028 412.075 142.855 411.698 142.757C411.32 142.658 410.927 142.636 410.54 142.69C410.154 142.745 409.782 142.876 409.447 143.076C409.112 143.276 408.819 143.54 408.587 143.854Z" fill="#16B99B"/>
<path opacity="0.4" d="M408.587 143.854C408.038 144.405 407.73 145.152 407.73 145.93C407.73 146.708 408.038 147.455 408.587 148.007L424.404 161.585L428.542 156.857L412.74 143.264C412.43 143.028 412.075 142.855 411.698 142.757C411.32 142.658 410.927 142.636 410.54 142.69C410.154 142.745 409.782 142.876 409.447 143.076C409.112 143.276 408.819 143.54 408.587 143.854Z" fill="white"/>
<path d="M514.445 145.68L502.649 161.482L490.867 148.993L514.445 145.68Z" fill="#16B99B"/>
<path d="M453.742 128.036C453.431 127.8 453.077 127.627 452.699 127.529C452.322 127.43 451.928 127.407 451.542 127.462C451.155 127.517 450.784 127.648 450.448 127.848C450.113 128.048 449.821 128.312 449.588 128.626L428.175 153.043C427.028 152.898 425.863 153.042 424.786 153.461C423.709 153.88 422.753 154.562 422.005 155.443C419.59 158.212 419.59 162.144 422.005 164.28C424.42 166.415 428.367 165.752 430.841 163.043C431.604 162.193 432.139 161.164 432.397 160.051C432.654 158.939 432.626 157.779 432.314 156.68L453.727 132.248C454.008 131.975 454.232 131.648 454.386 131.287C454.539 130.926 454.619 130.538 454.62 130.145C454.622 129.753 454.545 129.364 454.394 129.002C454.243 128.64 454.021 128.312 453.742 128.036Z" fill="#16B99B"/>
<path d="M457.615 216.87L476.024 214.278L474.389 222.775L441.209 227.444L442.534 220.684L462.504 202.231C464.382 200.533 466.071 198.637 467.541 196.576C468.455 195.28 468.968 193.743 469.014 192.158C469.052 191.516 468.92 190.875 468.63 190.3C468.341 189.726 467.904 189.239 467.364 188.888C465.896 188.112 464.198 187.887 462.578 188.255C460.767 188.513 459.033 189.161 457.497 190.155C455.841 191.2 454.397 192.549 453.241 194.131L446.422 190.14C448.329 187.32 450.846 184.964 453.786 183.248C456.941 181.359 460.449 180.136 464.095 179.654C466.771 179.206 469.512 179.331 472.136 180.023C474.245 180.57 476.127 181.771 477.511 183.454C478.804 185.113 479.481 187.169 479.426 189.271C479.399 192.076 478.621 194.822 477.172 197.224C475.011 200.578 472.377 203.604 469.352 206.207L457.615 216.87Z" fill="#C35899"/>
<path d="M519.894 207.179L512.708 208.196L510.881 217.65L501 219.035L502.841 209.565L479.277 212.894L480.588 205.883L506.375 174.456L517.464 172.91L493.415 202.644L504.947 201.024L506.566 192.585L516.021 191.26L514.387 199.683L521.588 198.682L519.894 207.179Z" fill="#C35899"/>
<path d="M548.818 159.611L557.963 158.315L525.785 221.818L516.713 223.085L548.818 159.611Z" fill="#C35899"/>
<path d="M590.572 162.63L589.261 169.39L565.845 209.919L554.579 211.509L577.053 172.792L562.841 174.795L561.368 182.158L552.355 183.425L555.419 167.593L590.572 162.63Z" fill="#C35899"/>
<path d="M446.246 270.977C444.85 270.822 443.498 270.391 442.27 269.71L444.42 265.292C445.51 265.929 446.708 266.359 447.954 266.559C449.286 266.773 450.643 266.773 451.975 266.559C453.207 266.435 454.393 266.021 455.435 265.351C455.808 265.13 456.12 264.818 456.341 264.445C456.562 264.072 456.686 263.649 456.702 263.216C456.718 262.893 456.627 262.574 456.443 262.307C456.26 262.041 455.993 261.843 455.686 261.743C454.639 261.392 453.558 261.155 452.461 261.036C451.239 260.857 450.03 260.606 448.838 260.285C447.909 260.014 447.067 259.507 446.393 258.812C445.664 257.965 445.299 256.864 445.377 255.749C445.37 254.234 445.816 252.752 446.658 251.493C447.594 250.131 448.854 249.022 450.325 248.268C452.039 247.37 453.899 246.787 455.818 246.545C457.281 246.325 458.765 246.29 460.237 246.442C461.463 246.543 462.661 246.867 463.771 247.399L461.783 251.729C460.891 251.245 459.917 250.931 458.911 250.801C457.802 250.654 456.678 250.654 455.568 250.801C454.296 250.933 453.077 251.379 452.019 252.097C451.635 252.325 451.314 252.645 451.085 253.028C450.856 253.411 450.727 253.845 450.708 254.291C450.696 254.519 450.741 254.745 450.839 254.951C450.936 255.157 451.084 255.335 451.268 255.469C451.68 255.784 452.158 256 452.667 256.103C453.226 256.22 454.022 256.353 455.053 256.5C456.266 256.635 457.467 256.862 458.646 257.178C459.56 257.454 460.387 257.961 461.046 258.65C461.399 259.05 461.669 259.517 461.838 260.023C462.008 260.529 462.074 261.064 462.033 261.596C462.048 263.123 461.596 264.618 460.737 265.881C459.783 267.238 458.514 268.345 457.041 269.107C455.303 270.061 453.407 270.695 451.444 270.977C449.721 271.227 447.97 271.227 446.246 270.977Z" fill="#C35899"/>
<path d="M473.3 248.887L472.313 253.997L482.931 252.524L482.121 256.766L471.474 258.238L470.428 263.687L482.902 261.935L482.018 266.353L464.346 268.842L468.911 245.279L486.201 242.849L485.317 247.267L473.3 248.887Z" fill="#C35899"/>
<path d="M507.332 252.495C506.131 254.221 504.467 255.574 502.531 256.397L506.508 262.892L500.926 263.687L497.333 257.796L492.826 258.43L491.545 265.013L486.229 265.764L490.794 242.2L500.116 240.89C502.352 240.394 504.692 240.729 506.699 241.832C507.489 242.366 508.124 243.1 508.538 243.959C508.951 244.818 509.13 245.771 509.055 246.722C509.094 248.778 508.492 250.796 507.332 252.495ZM502.252 251.67C502.737 251.194 503.119 250.622 503.372 249.991C503.626 249.36 503.746 248.683 503.724 248.003C503.768 247.558 503.688 247.109 503.493 246.706C503.298 246.303 502.996 245.962 502.62 245.72C501.637 245.24 500.522 245.105 499.453 245.337L495.271 245.926L493.666 254.1L498.172 253.467C499.688 253.316 501.117 252.687 502.252 251.67Z" fill="#C35899"/>
<path d="M536.787 235.779L522.325 260.668L517.126 261.39L511.795 239.299L517.259 238.533L520.94 254.306L531.249 236.545L536.787 235.779Z" fill="#C35899"/>
<path d="M538.673 235.515L544.004 234.764L539.439 258.327L534.107 259.078L538.673 235.515Z" fill="#C35899"/>
<path d="M550.852 255.823C549.246 255.307 547.857 254.27 546.905 252.878C545.958 251.383 545.48 249.639 545.536 247.87C545.524 245.345 546.136 242.856 547.318 240.625C548.51 238.369 550.233 236.438 552.339 234.999C554.535 233.484 557.059 232.51 559.703 232.157C561.509 231.857 563.359 231.958 565.122 232.451C566.57 232.837 567.833 233.724 568.686 234.955L564.857 238.622C564.219 237.809 563.36 237.198 562.383 236.861C561.406 236.524 560.353 236.476 559.349 236.722C557.748 236.937 556.228 237.555 554.931 238.519C553.679 239.478 552.67 240.719 551.986 242.142C551.279 243.591 550.916 245.183 550.926 246.795C550.871 247.542 550.995 248.29 551.287 248.979C551.579 249.668 552.03 250.277 552.605 250.757C553.289 251.222 554.062 251.54 554.876 251.692C555.689 251.844 556.526 251.827 557.332 251.641C559.731 251.309 561.907 250.058 563.399 248.15L566.536 250.904C565.366 252.394 563.907 253.633 562.247 254.546C560.587 255.46 558.76 256.029 556.875 256.221C554.865 256.571 552.799 256.435 550.852 255.823Z" fill="#C35899"/>
<path d="M577.743 234.277L576.756 239.373L587.375 237.9L586.565 242.127L575.917 243.599L574.871 249.034L587.345 247.281L586.461 251.699L568.789 254.188L573.369 230.625L590.615 228.269L589.731 232.687L577.743 234.277Z" fill="#C35899"/>
<path d="M289.993 131.762C274.25 131.762 261.496 141.055 261.496 152.513C261.496 160.833 268.256 168.005 277.99 171.304C276.947 176.083 275.153 180.666 272.674 184.883C276.207 184.357 279.574 183.035 282.52 181.017C285.467 178.999 287.917 176.337 289.684 173.233H289.993C305.736 173.233 318.49 163.955 318.49 152.498C318.49 141.04 305.736 131.762 289.993 131.762Z" fill="#C35899"/>
<path opacity="0.7" d="M289.993 131.762C274.25 131.762 261.496 141.055 261.496 152.513C261.496 160.833 268.256 168.005 277.99 171.304C276.947 176.083 275.153 180.666 272.674 184.883C276.207 184.357 279.574 183.035 282.52 181.017C285.467 178.999 287.917 176.337 289.684 173.233H289.993C305.736 173.233 318.49 163.955 318.49 152.498C318.49 141.04 305.736 131.762 289.993 131.762Z" fill="white"/>
<path d="M277.431 156.504C279.033 156.504 280.332 155.205 280.332 153.602C280.332 152 279.033 150.701 277.431 150.701C275.828 150.701 274.529 152 274.529 153.602C274.529 155.205 275.828 156.504 277.431 156.504Z" fill="#C35899"/>
<path d="M292.703 153.602C292.703 154.185 292.531 154.754 292.207 155.239C291.883 155.723 291.423 156.1 290.885 156.323C290.347 156.546 289.755 156.605 289.183 156.491C288.612 156.377 288.087 156.097 287.675 155.685C287.263 155.273 286.983 154.748 286.869 154.177C286.755 153.605 286.814 153.013 287.037 152.475C287.26 151.937 287.637 151.477 288.122 151.153C288.606 150.829 289.175 150.657 289.758 150.657C290.539 150.657 291.288 150.967 291.841 151.519C292.393 152.072 292.703 152.821 292.703 153.602Z" fill="#C35899"/>
<path d="M302.171 156.504C303.773 156.504 305.072 155.205 305.072 153.602C305.072 152 303.773 150.701 302.171 150.701C300.568 150.701 299.27 152 299.27 153.602C299.27 155.205 300.568 156.504 302.171 156.504Z" fill="#C35899"/>
<path d="M548.494 449.247C548.494 449.247 548.685 429.586 541.528 432.178C534.371 434.77 548.494 449.247 548.494 449.247Z" fill="#16B99B"/>
<path d="M556.18 431.045C556.18 431.045 565.664 415.317 557.093 413.063C548.522 410.81 556.18 431.045 556.18 431.045Z" fill="#16B99B"/>
<path d="M593.66 419.941C593.66 419.941 613.35 418.925 608.903 411.546C604.455 404.168 593.66 419.941 593.66 419.941Z" fill="#16B99B"/>
<path d="M562.514 425.169C562.514 425.169 583.131 420.515 579.273 432.09C575.415 443.666 562.514 425.169 562.514 425.169Z" fill="#16B99B"/>
<path d="M547.537 467.023C547.537 467.023 539.658 449.173 535.24 455.521C530.821 461.868 547.537 467.023 547.537 467.023Z" fill="#16B99B"/>
<path d="M570.01 421.458C570.01 421.458 591.01 415.95 584.472 408.203C577.933 400.457 570.01 421.458 570.01 421.458Z" fill="#16B99B"/>
<path d="M585.887 419.292C585.887 419.292 602.499 427.451 594.841 432.782C587.183 438.114 585.887 419.292 585.887 419.292Z" fill="#16B99B"/>
<path d="M550.57 441.339C550.57 441.339 562.072 427.496 565.621 437.554C569.171 447.613 550.57 441.339 550.57 441.339Z" fill="#16B99B"/>
<g opacity="0.4">
<path d="M547.539 467.022C547.539 467.022 539.66 449.173 535.242 455.52C530.823 461.868 547.539 467.022 547.539 467.022Z" fill="white"/>
<path d="M570.012 421.457C570.012 421.457 591.012 415.949 584.474 408.203C577.935 400.456 570.012 421.457 570.012 421.457Z" fill="white"/>
<path d="M585.887 419.292C585.887 419.292 602.499 427.451 594.841 432.782C587.183 438.114 585.887 419.292 585.887 419.292Z" fill="white"/>
<path d="M550.57 441.339C550.57 441.339 562.072 427.495 565.621 437.554C569.171 447.612 550.57 441.339 550.57 441.339Z" fill="white"/>
</g>
<path d="M547.418 459.306C547.418 459.306 555.665 441.634 562.307 450.543C568.949 459.453 547.418 459.306 547.418 459.306Z" fill="#16B99B"/>
<path d="M547.552 477.892C545.053 466.375 545.412 454.422 548.598 443.077C555.342 420.986 576.034 415.788 596.946 419.131C598.61 419.396 597.874 421.9 596.225 421.634C585.12 419.867 572.661 419.691 562.986 426.406C556.064 431.251 552.147 438.953 550.262 447.024C548.051 456.975 547.996 467.284 550.1 477.258C550.438 478.908 547.905 479.556 547.552 477.906V477.892Z" fill="#16B99B"/>
<g opacity="0.3">
<path d="M547.552 477.892C545.053 466.375 545.412 454.422 548.598 443.077C555.342 420.986 576.034 415.788 596.946 419.131C598.61 419.396 597.874 421.9 596.225 421.634C585.12 419.867 572.661 419.691 562.986 426.406C556.064 431.251 552.147 438.953 550.262 447.024C548.051 456.975 547.996 467.284 550.1 477.258C550.438 478.908 547.905 479.556 547.552 477.906V477.892Z" fill="black"/>
</g>
<path d="M531.159 443.283C531.159 443.283 520.85 419.248 514.164 425.522C507.478 431.796 531.159 443.283 531.159 443.283Z" fill="#16B99B"/>
<path d="M530.277 417.717C530.277 417.717 532.722 394.433 521.765 395.435C510.808 396.436 530.277 417.717 530.277 417.717Z" fill="#16B99B"/>
<path d="M567.078 387.851C567.078 387.851 588.948 378.028 579.964 370.988C570.981 363.949 567.078 387.851 567.078 387.851Z" fill="#16B99B"/>
<path d="M534.371 407.806C534.371 407.806 555.416 393.079 557.139 408.925C558.862 424.771 534.371 407.806 534.371 407.806Z" fill="#16B99B"/>
<path d="M539.556 465.285C539.556 465.285 521.014 447.053 519.35 456.684C517.686 466.316 539.556 465.285 539.556 465.285Z" fill="#16B99B"/>
<path d="M540.923 400.015C540.923 400.015 561.924 384.139 550.349 377.556C538.773 370.973 540.923 400.015 540.923 400.015Z" fill="#16B99B"/>
<path d="M557.877 390.457C557.877 390.457 581.131 393.152 575.225 402.975C569.32 412.798 557.877 390.457 557.877 390.457Z" fill="#16B99B"/>
<path d="M529.348 432.695C529.348 432.695 535.091 410.825 544.487 421.532C553.883 432.238 529.348 432.695 529.348 432.695Z" fill="#16B99B"/>
<g opacity="0.4">
<path d="M539.554 465.285C539.554 465.285 521.012 447.053 519.348 456.684C517.684 466.316 539.554 465.285 539.554 465.285Z" fill="white"/>
<path d="M540.923 400.015C540.923 400.015 561.924 384.14 550.349 377.557C538.773 370.974 540.923 400.015 540.923 400.015Z" fill="white"/>
<path d="M557.873 390.458C557.873 390.458 581.127 393.153 575.221 402.975C569.316 412.798 557.873 390.458 557.873 390.458Z" fill="white"/>
<path d="M529.348 432.695C529.348 432.695 535.091 410.825 544.487 421.532C553.883 432.238 529.348 432.695 529.348 432.695Z" fill="white"/>
</g>
<path d="M535.328 455.948C535.328 455.948 535.328 430.809 547.61 438.777C559.893 446.744 535.328 455.948 535.328 455.948Z" fill="#16B99B"/>
<path d="M545.328 478.51C536.698 465.889 530.042 450.529 528.039 435.684C524.004 405.876 544.769 390.487 570.379 385.42C572.411 385.023 572.897 388.366 570.895 388.808C557.301 391.488 542.913 396.746 535.55 409.116C530.233 418.026 529.85 429.116 531.986 439.748C534.827 452.939 540.22 465.446 547.861 476.566C547.985 476.734 548.075 476.925 548.125 477.128C548.175 477.331 548.184 477.542 548.153 477.748C548.121 477.955 548.049 478.153 547.941 478.332C547.833 478.51 547.691 478.666 547.523 478.79C547.354 478.913 547.163 479.003 546.961 479.053C546.758 479.103 546.547 479.112 546.341 479.081C546.134 479.049 545.936 478.978 545.757 478.87C545.578 478.761 545.423 478.619 545.299 478.451L545.328 478.51Z" fill="#16B99B"/>
<g opacity="0.3">
<path d="M545.33 478.509C536.7 465.888 530.044 450.528 528.041 435.683C524.006 405.876 544.771 390.486 570.381 385.42C572.413 385.022 572.899 388.365 570.896 388.807C557.303 391.488 542.915 396.745 535.552 409.116C530.235 418.026 529.852 429.115 531.988 439.748C534.829 452.938 540.222 465.445 547.863 476.565C547.987 476.734 548.077 476.925 548.127 477.128C548.177 477.33 548.186 477.541 548.155 477.748C548.123 477.954 548.051 478.152 547.943 478.331C547.835 478.51 547.693 478.665 547.525 478.789C547.356 478.913 547.165 479.002 546.963 479.052C546.76 479.102 546.549 479.112 546.343 479.08C546.136 479.049 545.938 478.977 545.759 478.869C545.58 478.761 545.425 478.619 545.301 478.451L545.33 478.509Z" fill="black"/>
</g>
<path d="M528.717 449.601C528.717 449.601 533.606 433.298 538.849 437.275C544.092 441.251 528.717 449.601 528.717 449.601Z" fill="#16B99B"/>
<path d="M527.008 432.576C527.008 432.576 523.223 417.128 530.881 417.481C538.539 417.835 527.008 432.576 527.008 432.576Z" fill="#16B99B"/>
<path d="M498.893 413.828C498.893 413.828 482.885 407.938 488.467 402.975C494.048 398.012 498.893 413.828 498.893 413.828Z" fill="#16B99B"/>
<path d="M523.296 426.081C523.296 426.081 507.421 416.936 507.671 427.554C507.921 438.172 523.296 426.081 523.296 426.081Z" fill="#16B99B"/>
<path d="M524.932 464.519C524.932 464.519 536.095 451.839 538.112 458.202C540.13 464.564 524.932 464.519 524.932 464.519Z" fill="#16B99B"/>
<path d="M518.051 421.089C518.051 421.089 502.117 411.134 509.51 406.362C516.903 401.591 518.051 421.089 518.051 421.089Z" fill="#16B99B"/>
<path d="M505.476 415.301C505.476 415.301 489.659 417.775 494.622 424.137C499.585 430.5 505.476 415.301 505.476 415.301Z" fill="#16B99B"/>
<path d="M529.012 442.518C529.012 442.518 523.122 428.115 517.54 435.522C511.959 442.93 529.012 442.518 529.012 442.518Z" fill="#16B99B"/>
<g opacity="0.4">
<path d="M524.932 464.519C524.932 464.519 536.095 451.839 538.112 458.202C540.13 464.564 524.932 464.519 524.932 464.519Z" fill="white"/>
<path d="M518.055 421.089C518.055 421.089 502.121 411.134 509.514 406.362C516.907 401.591 518.055 421.089 518.055 421.089Z" fill="white"/>
<path d="M505.478 415.302C505.478 415.302 489.661 417.776 494.624 424.138C499.587 430.5 505.478 415.302 505.478 415.302Z" fill="white"/>
<path d="M529.011 442.517C529.011 442.517 523.12 428.114 517.538 435.522C511.957 442.929 529.011 442.517 529.011 442.517Z" fill="white"/>
</g>
<path d="M526.978 458.171C526.978 458.171 524.725 441.427 516.934 447.097C509.144 452.767 526.978 458.171 526.978 458.171Z" fill="#16B99B"/>
<path d="M522.103 473.488C527.13 464.62 529.902 454.652 530.173 444.461C530.277 424.491 514.533 414.86 496.39 412.238C494.917 412.032 494.917 414.3 496.39 414.506C506.021 415.891 516.404 418.924 522.618 426.995C527.037 432.768 528.362 440.146 527.847 447.289C527.114 456.084 524.508 464.62 520.203 472.325C519.496 473.591 521.426 474.784 522.147 473.503L522.103 473.488Z" fill="#16B99B"/>
<g opacity="0.3">
<path d="M522.103 473.488C527.13 464.62 529.902 454.652 530.173 444.461C530.277 424.491 514.533 414.86 496.39 412.238C494.917 412.032 494.917 414.3 496.39 414.506C506.021 415.891 516.404 418.924 522.618 426.995C527.037 432.768 528.362 440.146 527.847 447.289C527.114 456.084 524.508 464.62 520.203 472.325C519.496 473.591 521.426 474.784 522.147 473.503L522.103 473.488Z" fill="black"/>
</g>
<path d="M567.933 469.35L562.234 512.338C561.877 515.011 560.562 517.464 558.533 519.241C556.505 521.018 553.9 521.998 551.203 521.999H515.755C513.058 521.998 510.454 521.018 508.425 519.241C506.396 517.464 505.081 515.011 504.725 512.338L499.025 469.35H567.933Z" fill="#16B99B"/>
<path opacity="0.3" d="M567.933 469.35L562.234 512.338C561.877 515.011 560.562 517.464 558.533 519.241C556.505 521.018 553.9 521.998 551.203 521.999H515.755C513.058 521.998 510.454 521.018 508.425 519.241C506.396 517.464 505.081 515.011 504.725 512.338L499.025 469.35H567.933Z" fill="white"/>
<path d="M247.871 386.776H238.195V450.367H247.871V386.776Z" fill="#263238"/>
<path opacity="0.5" d="M247.871 386.776H238.195V450.367H247.871V386.776Z" fill="white"/>
<path d="M272.434 497.994L249.769 493.9V448.394C249.771 448.058 249.706 447.726 249.579 447.416C249.452 447.106 249.264 446.825 249.027 446.588C248.79 446.351 248.508 446.163 248.198 446.036C247.889 445.908 247.556 445.844 247.221 445.846H238.842C238.506 445.844 238.173 445.908 237.862 446.035C237.551 446.163 237.269 446.35 237.03 446.587C236.792 446.824 236.603 447.105 236.474 447.415C236.345 447.725 236.279 448.058 236.279 448.394V493.9L213.629 497.994C212.039 498.278 210.599 499.112 209.562 500.351C208.526 501.589 207.958 503.153 207.959 504.769L243.024 501.602L278.104 504.769C278.102 503.154 277.533 501.592 276.497 500.353C275.461 499.115 274.023 498.28 272.434 497.994Z" fill="#263238"/>
<path d="M215.323 511.646C215.323 513.102 214.891 514.526 214.082 515.737C213.273 516.948 212.123 517.891 210.777 518.449C209.432 519.006 207.951 519.152 206.523 518.868C205.094 518.584 203.782 517.882 202.752 516.853C201.723 515.823 201.021 514.511 200.737 513.082C200.453 511.654 200.599 510.173 201.156 508.828C201.714 507.482 202.657 506.332 203.868 505.523C205.079 504.714 206.503 504.282 207.959 504.282C209.912 504.282 211.785 505.058 213.166 506.439C214.547 507.82 215.323 509.693 215.323 511.646Z" fill="#16B99B"/>
<path d="M285.467 511.646C285.467 513.102 285.035 514.526 284.226 515.737C283.417 516.948 282.267 517.891 280.922 518.449C279.576 519.006 278.096 519.152 276.667 518.868C275.239 518.584 273.927 517.882 272.897 516.853C271.867 515.823 271.166 514.511 270.882 513.082C270.598 511.654 270.743 510.173 271.301 508.828C271.858 507.482 272.802 506.332 274.013 505.523C275.224 504.714 276.647 504.282 278.104 504.282C279.071 504.282 280.028 504.473 280.922 504.843C281.815 505.213 282.627 505.755 283.311 506.439C283.994 507.123 284.537 507.934 284.907 508.828C285.277 509.721 285.467 510.679 285.467 511.646Z" fill="#16B99B"/>
<path d="M248.781 511.646C248.781 515.71 247.102 519.009 243.023 519.009C238.943 519.009 237.279 515.71 237.279 511.646C237.279 507.581 238.958 504.282 243.023 504.282C247.088 504.282 248.781 507.581 248.781 511.646Z" fill="#16B99B"/>
<g opacity="0.5">
<path d="M249.99 493.93V502.236L252.729 502.487V494.431L249.99 493.93Z" fill="black"/>
<path d="M233.393 494.416V502.472L236.132 502.236V493.93L233.393 494.416Z" fill="black"/>
</g>
<path d="M179.86 328.854C179.249 328.855 178.646 328.99 178.094 329.249C177.541 329.509 177.052 329.886 176.662 330.356C176.271 330.825 175.988 331.374 175.834 331.965C175.679 332.555 175.655 333.172 175.766 333.773L184.749 382.181C185.155 384.38 186.319 386.368 188.038 387.799C189.757 389.231 191.923 390.015 194.16 390.015H335.73C336.565 390.015 337.392 389.851 338.163 389.531C338.934 389.211 339.634 388.742 340.224 388.151C340.813 387.56 341.281 386.859 341.599 386.087C341.917 385.315 342.08 384.488 342.078 383.653C342.078 381.259 341.127 378.963 339.434 377.27C337.74 375.577 335.444 374.626 333.05 374.626H252.272C250.131 374.626 248.052 373.91 246.365 372.592C244.678 371.273 243.481 369.428 242.965 367.35L235.734 338.161C235.076 335.506 233.549 333.147 231.395 331.46C229.241 329.773 226.585 328.856 223.849 328.854H179.86Z" fill="#263238"/>
<path d="M198.975 367.35L191.744 338.161C191.087 335.506 189.559 333.147 187.405 331.46C185.252 329.773 182.595 328.856 179.86 328.854C179.249 328.855 178.646 328.99 178.094 329.249C177.541 329.509 177.052 329.886 176.662 330.356C176.271 330.825 175.988 331.374 175.834 331.965C175.679 332.555 175.655 333.172 175.766 333.773L184.749 382.181C185.155 384.38 186.319 386.368 188.038 387.799C189.757 389.231 191.923 390.015 194.16 390.015H291.726C292.562 390.017 293.39 389.854 294.163 389.535C294.936 389.216 295.638 388.747 296.229 388.156C296.82 387.565 297.289 386.863 297.608 386.09C297.927 385.317 298.09 384.489 298.088 383.653C298.084 381.26 297.132 378.966 295.44 377.274C293.747 375.582 291.453 374.629 289.06 374.626H208.297C206.153 374.632 204.069 373.919 202.379 372.6C200.688 371.28 199.49 369.432 198.975 367.35Z" fill="#263238"/>
<path opacity="0.2" d="M198.975 367.35L191.744 338.161C191.087 335.506 189.559 333.147 187.405 331.46C185.252 329.773 182.595 328.856 179.86 328.854C179.249 328.855 178.646 328.99 178.094 329.249C177.541 329.509 177.052 329.886 176.662 330.356C176.271 330.825 175.988 331.374 175.834 331.965C175.679 332.555 175.655 333.172 175.766 333.773L184.749 382.181C185.155 384.38 186.319 386.368 188.038 387.799C189.757 389.231 191.923 390.015 194.16 390.015H291.726C292.562 390.017 293.39 389.854 294.163 389.535C294.936 389.216 295.638 388.747 296.229 388.156C296.82 387.565 297.289 386.863 297.608 386.09C297.927 385.317 298.09 384.489 298.088 383.653C298.084 381.26 297.132 378.966 295.44 377.274C293.747 375.582 291.453 374.629 289.06 374.626H208.297C206.153 374.632 204.069 373.919 202.379 372.6C200.688 371.28 199.49 369.432 198.975 367.35Z" fill="white"/>
<path d="M258.783 190.347C258.783 190.347 274.895 195.148 267.369 207.062L260.374 196.871L258.783 190.347Z" fill="#263238"/>
<path d="M316.82 251.759L323.845 241.45L330.796 243.659L332.063 246.457L323.403 258.842L316.82 251.759Z" fill="#DBB178"/>
<path d="M327.234 254.454C320.195 265.499 309.091 281.61 304.849 280.653C292.39 277.869 275.263 266.073 266.471 253.113C265.143 251.158 264.599 248.776 264.946 246.438C265.292 244.101 266.504 241.979 268.341 240.492V240.404C269.3 239.621 270.403 239.035 271.589 238.68C272.774 238.324 274.018 238.206 275.249 238.332C276.48 238.458 277.675 238.825 278.764 239.413C279.852 240.001 280.815 240.798 281.595 241.759C281.757 241.95 281.905 242.156 282.052 242.363C289.842 253.54 299.724 264.144 301.344 265.042C303.244 266.132 308.178 261.464 318.619 248.268L327.234 254.454Z" fill="#16B99B"/>
<path opacity="0.6" d="M327.234 254.454C320.195 265.499 309.091 281.61 304.849 280.653C292.39 277.869 275.263 266.073 266.471 253.113C265.143 251.158 264.599 248.776 264.946 246.438C265.292 244.101 266.504 241.979 268.341 240.492V240.404C269.3 239.621 270.403 239.035 271.589 238.68C272.774 238.324 274.018 238.206 275.249 238.332C276.48 238.458 277.675 238.825 278.764 239.413C279.852 240.001 280.815 240.798 281.595 241.759C281.757 241.95 281.905 242.156 282.052 242.363C289.842 253.54 299.724 264.144 301.344 265.042C303.244 266.132 308.178 261.464 318.619 248.268L327.234 254.454Z" fill="white"/>
<path d="M327.395 245.544L341.312 248.268L334.832 236.604C334.832 236.604 326.408 236.604 323.846 241.45L327.395 245.544Z" fill="#DBB178"/>
<path opacity="0.2" d="M287.087 272.597C276.999 265.705 275.658 249.535 275.658 249.535L269.944 246.928L267.205 254.203C272.679 261.475 279.413 267.705 287.087 272.597Z" fill="black"/>
<path d="M351.149 243.275L345.199 233.791L334.846 236.604L341.311 248.268L351.149 243.275Z" fill="#DBB178"/>
<path d="M273.862 308L224.497 311.24C224.497 311.24 224.144 297.986 222.42 285.777C221.886 281.529 221.039 277.325 219.887 273.2C218.606 268.989 216.942 264.261 215.028 258.768C214.777 258.091 214.527 257.413 214.247 256.706C213.599 254.998 212.936 253.216 212.185 251.36V251.272C211.518 249.459 211.591 247.456 212.387 245.695C213.183 243.935 214.639 242.558 216.441 241.861C216.781 241.729 217.13 241.626 217.487 241.552C220.624 240.889 223.79 240.286 227.001 239.785L229.769 239.373C237.161 238.271 244.611 237.602 252.081 237.37C255.954 237.37 260.092 237.487 263.627 237.649L266.572 237.797C270.313 238.018 272.905 238.253 272.905 238.253C272.905 238.253 274.525 238.577 275.482 247.251C275.504 247.745 275.553 248.236 275.629 248.724C275.747 250.521 275.85 252.789 275.894 255.513C276.042 266.647 275.379 285.336 273.862 308Z" fill="#16B99B"/>
<path opacity="0.6" d="M273.862 308L224.497 311.24C224.497 311.24 224.144 297.986 222.42 285.777C221.886 281.529 221.039 277.325 219.887 273.2C218.606 268.989 216.942 264.261 215.028 258.768C214.777 258.091 214.527 257.413 214.247 256.706C213.599 254.998 212.936 253.216 212.185 251.36V251.272C211.518 249.459 211.591 247.456 212.387 245.695C213.183 243.935 214.639 242.558 216.441 241.861C216.781 241.729 217.13 241.626 217.487 241.552C220.624 240.889 223.79 240.286 227.001 239.785L229.769 239.373C237.161 238.271 244.611 237.602 252.081 237.37C255.954 237.37 260.092 237.487 263.627 237.649L266.572 237.797C270.313 238.018 272.905 238.253 272.905 238.253C272.905 238.253 274.525 238.577 275.482 247.251C275.504 247.745 275.553 248.236 275.629 248.724C275.747 250.521 275.85 252.789 275.894 255.513C276.042 266.647 275.379 285.336 273.862 308Z" fill="white"/>
<path d="M231.492 239.137L243.804 255.543L252.64 247.974L264.127 253.511L257.912 237.444C255.998 237.444 254.025 237.444 252.125 237.444C245.221 237.631 238.334 238.196 231.492 239.137Z" fill="#16B99B"/>
<path opacity="0.9" d="M231.492 239.137L243.804 255.543L252.64 247.974L264.127 253.511L257.912 237.444C255.998 237.444 254.025 237.444 252.125 237.444C245.221 237.631 238.334 238.196 231.492 239.137Z" fill="white"/>
<path d="M340.457 505.976H329.957L334.743 426.715H354.389L340.457 505.976Z" fill="#DBB178"/>
<path d="M328.794 504.975C328.676 503.973 341.209 503.031 341.209 503.031C341.209 503.031 349.927 509.746 357.585 510.394C365.243 511.042 361.723 516.123 353.432 517.272L332.917 520.217C327.027 521.086 330.001 515.446 328.794 504.975Z" fill="#263238"/>
<path d="M347.498 505.402C345.899 505.308 344.32 505.006 342.8 504.504C342.739 504.489 342.683 504.458 342.638 504.415C342.608 504.314 342.608 504.207 342.638 504.106C342.638 503.973 343.33 500.866 344.935 499.953C345.175 499.806 345.445 499.714 345.724 499.681C346.004 499.647 346.287 499.675 346.555 499.761C347.336 499.997 347.542 500.439 347.556 500.748C347.556 501.381 346.953 502.088 346.084 502.736C346.922 502.5 347.808 502.5 348.646 502.736C348.829 502.805 348.995 502.91 349.137 503.044C349.278 503.178 349.392 503.339 349.471 503.517C349.594 503.749 349.647 504.011 349.623 504.273C349.6 504.534 349.501 504.783 349.338 504.99C348.803 505.363 348.142 505.511 347.498 505.402ZM344.125 504.076C346.01 504.562 348.219 504.886 348.705 504.356C348.823 504.253 348.794 504.032 348.705 503.767C348.669 503.681 348.615 503.603 348.547 503.54C348.478 503.476 348.396 503.428 348.308 503.399C346.877 503.229 345.428 503.464 344.125 504.076ZM345.833 500.395C345.615 500.394 345.4 500.456 345.215 500.571C344.376 501.302 343.784 502.274 343.521 503.355C345.141 502.427 346.761 501.264 346.761 500.763C346.761 500.675 346.584 500.557 346.305 500.454C346.151 500.411 345.993 500.392 345.833 500.395Z" fill="#16B99B"/>
<path opacity="0.2" d="M333.904 440.573L351.857 441.118L354.39 426.715H334.744L333.904 440.573Z" fill="black"/>
<path d="M290.062 507.316L280.004 505.976L295.924 418.218L315.776 423.888L290.062 507.316Z" fill="#DBB178"/>
<path d="M278.691 504.577C278.691 503.546 291.238 504.577 291.238 504.577C291.238 504.577 298.852 512.515 306.319 514.297C313.785 516.079 309.559 520.6 301.194 520.482L280.458 520.232C274.464 520.173 278.293 515.151 278.691 504.577Z" fill="#263238"/>
<path d="M297.838 507.846C296.003 507.62 294.224 507.071 292.58 506.226L292.477 506.138C292.47 506.122 292.467 506.104 292.467 506.086C292.467 506.069 292.47 506.051 292.477 506.035C292.455 505.989 292.443 505.939 292.443 505.888C292.443 505.837 292.455 505.786 292.477 505.74C292.477 505.622 293.626 502.677 295.422 501.985C295.677 501.868 295.953 501.808 296.232 501.808C296.512 501.808 296.788 501.868 297.042 501.985C297.779 502.353 297.911 502.795 297.882 503.104C297.882 503.737 297.087 504.341 296.159 504.842C297.024 504.736 297.901 504.874 298.692 505.24C298.861 505.33 299.01 505.455 299.127 505.608C299.244 505.76 299.326 505.936 299.369 506.123C299.464 506.363 299.482 506.626 299.421 506.876C299.361 507.127 299.224 507.352 299.031 507.522C298.685 507.77 298.261 507.885 297.838 507.846ZM293.906 505.961C295.702 506.727 297.838 507.434 298.324 506.933C298.441 506.845 298.471 506.639 298.324 506.344C298.301 506.257 298.261 506.175 298.205 506.104C298.149 506.033 298.079 505.974 298 505.932C296.656 505.583 295.244 505.594 293.906 505.961ZM295.967 502.574C295.805 502.58 295.646 502.615 295.496 502.677C294.568 503.265 293.843 504.123 293.42 505.136C295.216 504.474 296.91 503.516 296.939 503.045C296.939 502.957 296.792 502.81 296.542 502.692C296.385 502.613 296.215 502.563 296.041 502.545L295.967 502.574Z" fill="#16B99B"/>
<path opacity="0.2" d="M315.774 423.888L295.922 418.218L292.785 435.522L311.164 438.836L315.774 423.888Z" fill="black"/>
<path d="M329.547 433.519L354.804 434.844C361.269 405.066 367.719 372.24 366.438 365.038C364.008 351.239 345.26 337.19 272.48 325.275L238.607 376.172C238.607 376.172 288.149 373.86 333.302 373.86C333.287 373.889 330.769 402.224 329.547 433.519Z" fill="#16B99B"/>
<path opacity="0.1" d="M329.547 433.519L354.804 434.844C361.269 405.066 367.719 372.24 366.438 365.038C364.008 351.239 345.26 337.19 272.48 325.275L238.607 376.172C238.607 376.172 288.149 373.86 333.302 373.86C333.287 373.889 330.769 402.224 329.547 433.519Z" fill="black"/>
<path d="M327.852 429.558L328.603 436.17L356.275 437.113L357.63 431.03L327.852 429.558Z" fill="#16B99B"/>
<path d="M256.351 237.415H252.08C245.954 237.606 239.842 238.107 233.76 238.887C236.411 242.054 244.673 246.987 250.21 246.987C257.942 246.928 256.218 241.185 256.351 237.415Z" fill="#DBB178"/>
<path d="M290.285 428.394L316.102 432.591C326.587 403.24 337.073 372.004 336.896 364.965C336.543 350.945 333.465 343.669 282.76 332.359C282.76 332.359 280.065 328.427 273.923 308.06L224.5 311.3C224.5 311.3 201.952 352.83 219.404 370.561C223.262 374.508 230.847 376.275 238.549 376.201C238.549 376.201 256.369 376.29 300.403 374.228C300.417 374.228 295.189 399.352 290.285 428.394Z" fill="#16B99B"/>
<path d="M289.252 423.888L319.162 428.939L316.32 435.228L289.119 430.765L289.252 423.888Z" fill="#16B99B"/>
<path opacity="0.1" d="M327.852 429.558L328.603 436.17L356.275 437.113L357.63 431.03L327.852 429.558Z" fill="black"/>
<path d="M252.61 233.158C252.042 236.795 252.192 240.507 253.052 244.086L239.518 242.097C239.226 242.054 238.949 241.945 238.706 241.777C238.464 241.609 238.264 241.387 238.122 241.129C237.979 240.871 237.898 240.584 237.885 240.29C237.871 239.995 237.926 239.702 238.045 239.432C239.901 235.22 240.637 226.737 241.094 222.835C241.344 220.478 241.447 218.328 241.462 216.826C241.477 215.324 241.462 214.764 241.462 214.764L247.515 217.533L257.396 222.054C255.118 225.422 253.495 229.189 252.61 233.158Z" fill="#DBB178"/>
<path opacity="0.2" d="M257.426 222.054C255.126 225.419 253.478 229.186 252.566 233.158C247.628 231.2 243.55 227.545 241.064 222.849C241.33 220.493 241.433 218.343 241.447 216.841C243.597 217.062 245.6 217.283 247.515 217.548L257.426 222.054Z" fill="black"/>
<path d="M258.148 212.393C257.75 216.914 260.063 220.567 263.302 220.567C266.542 220.567 269.503 216.914 269.9 212.393C270.298 207.872 267.986 204.205 264.746 204.205C261.506 204.205 258.546 207.872 258.148 212.393Z" fill="#16B99B"/>
<path opacity="0.5" d="M257.574 212.393C257.176 216.914 259.488 220.567 262.728 220.567C265.968 220.567 268.914 216.914 269.311 212.393C269.709 207.872 267.397 204.205 264.157 204.205C260.917 204.205 257.957 207.872 257.574 212.393Z" fill="black"/>
<path d="M234.909 204.441C237.324 215.515 238.163 222.113 244.702 227.164C246.81 228.839 249.337 229.903 252.007 230.242C254.678 230.581 257.39 230.181 259.85 229.087C262.309 227.992 264.421 226.244 265.957 224.033C267.493 221.822 268.393 219.233 268.56 216.546C269.429 206.237 265.335 189.846 253.671 186.709C251.164 185.961 248.504 185.886 245.959 186.491C243.414 187.096 241.072 188.361 239.171 190.158C237.269 191.955 235.874 194.221 235.126 196.728C234.378 199.235 234.303 201.895 234.909 204.441Z" fill="#DBB178"/>
<path d="M232.345 216.001C234.138 218.166 236.625 219.644 239.384 220.184C242.875 220.773 243.67 217.548 241.888 214.411C240.297 211.598 236.542 207.901 233.42 208.726C230.298 209.551 230.092 213.277 232.345 216.001Z" fill="#DBB178"/>
<path d="M252.391 205.53C252.538 206.443 253.127 207.121 253.731 207.003C254.335 206.885 254.688 206.134 254.556 205.236C254.423 204.337 253.82 203.645 253.216 203.763C252.612 203.881 252.258 204.617 252.391 205.53Z" fill="#263238"/>
<path d="M262.785 204.308C262.918 205.221 263.522 205.899 264.111 205.781C264.7 205.663 265.083 204.912 264.95 203.999C264.818 203.086 264.199 202.423 263.61 202.526C263.021 202.629 262.564 203.395 262.785 204.308Z" fill="#263238"/>
<path d="M259.504 205.147C261.028 207.801 262.895 210.242 265.056 212.408C264.493 212.926 263.822 213.314 263.091 213.543C262.36 213.772 261.588 213.837 260.829 213.733L259.504 205.147Z" fill="#C0854B"/>
<path d="M248.693 202.599C248.606 202.619 248.515 202.619 248.428 202.599C248.365 202.566 248.31 202.52 248.265 202.464C248.22 202.408 248.187 202.344 248.168 202.275C248.149 202.206 248.144 202.135 248.153 202.064C248.162 201.993 248.186 201.925 248.222 201.863C248.618 201.112 249.193 200.47 249.897 199.994C250.601 199.519 251.412 199.225 252.257 199.139C252.327 199.133 252.398 199.141 252.464 199.163C252.531 199.185 252.593 199.221 252.645 199.268C252.697 199.315 252.74 199.372 252.769 199.436C252.799 199.5 252.815 199.569 252.817 199.639C252.823 199.71 252.814 199.782 252.792 199.849C252.77 199.917 252.735 199.979 252.688 200.033C252.641 200.086 252.584 200.13 252.52 200.161C252.456 200.192 252.387 200.21 252.316 200.214C251.652 200.289 251.016 200.527 250.466 200.907C249.916 201.288 249.469 201.798 249.164 202.393C249.109 202.464 249.037 202.52 248.955 202.555C248.872 202.591 248.783 202.607 248.693 202.599Z" fill="#263238"/>
<path d="M266.601 200.288C266.513 200.29 266.426 200.27 266.349 200.229C266.271 200.188 266.206 200.126 266.159 200.052C265.786 199.47 265.283 198.981 264.691 198.624C264.098 198.266 263.432 198.049 262.743 197.99C262.615 197.969 262.5 197.903 262.416 197.805C262.333 197.706 262.287 197.582 262.287 197.453C262.287 197.324 262.333 197.199 262.416 197.1C262.5 197.002 262.615 196.936 262.743 196.915C263.607 196.972 264.447 197.231 265.194 197.671C265.94 198.111 266.574 198.72 267.043 199.448C267.124 199.566 267.155 199.71 267.13 199.851C267.105 199.991 267.026 200.116 266.91 200.199C266.817 200.255 266.71 200.286 266.601 200.288Z" fill="#263238"/>
<path d="M237.074 219.005C237.074 219.005 244.113 211.804 240.667 194.131C240.667 194.131 246.337 198.947 259.503 195.383C259.503 195.383 251.712 196.149 248.148 192.438C248.148 192.438 255.409 195.81 267.146 192.438C267.146 192.438 265.055 180.553 252.419 179.949C252.419 179.949 256.499 176.518 260.431 177.181C260.431 177.181 256.41 173.72 246.205 180.45L242.169 182.099C242.169 182.099 230.8 178.005 224.497 187.637C219.475 195.251 221.993 219.226 237.074 219.005Z" fill="#263238"/>
<path d="M262.889 215.751C262.889 215.751 259.325 214.853 249.281 214.632C250.401 217.68 252.536 220.199 257.69 220.258C258.333 220.329 258.983 220.267 259.6 220.075C260.217 219.883 260.787 219.565 261.276 219.142C261.764 218.718 262.159 218.199 262.437 217.615C262.715 217.032 262.869 216.397 262.889 215.751Z" fill="#263238"/>
<path d="M255.423 217.827C257.403 217.755 259.355 218.306 261.005 219.403C260.041 220.019 258.907 220.313 257.765 220.242C255.793 220.325 253.847 219.773 252.213 218.667C253.168 218.056 254.292 217.762 255.423 217.827Z" fill="#A02724"/>
<path d="M262.432 215.662C262.327 216.032 262.121 216.366 261.838 216.626C261.554 216.886 261.204 217.062 260.827 217.135C257.86 217.066 254.905 216.751 251.99 216.192C251.525 216.151 251.076 215.995 250.686 215.738C250.295 215.481 249.974 215.131 249.752 214.72C253.997 214.706 258.236 215.021 262.432 215.662Z" fill="white"/>
<path d="M231.609 208.255V196.37C231.609 192.853 232.743 189.429 234.845 186.608C236.946 183.787 239.902 181.721 243.273 180.715L247.249 180.008C243.793 181.039 240.762 183.159 238.608 186.051C236.453 188.943 235.29 192.454 235.291 196.061V208.255H231.609Z" fill="#16B99B"/>
<path d="M240.846 214.013C241.243 218.535 238.931 222.187 235.691 222.187C232.451 222.187 229.491 218.535 229.108 214.013C228.725 209.492 231.023 205.825 234.263 205.825C237.502 205.825 240.448 209.492 240.846 214.013Z" fill="#16B99B"/>
<path opacity="0.5" d="M240.846 214.013C241.243 218.535 238.931 222.187 235.691 222.187C232.451 222.187 229.491 218.535 229.108 214.013C228.725 209.492 231.023 205.825 234.263 205.825C237.502 205.825 240.448 209.492 240.846 214.013Z" fill="black"/>
<path d="M238.885 214.013C239.267 218.535 236.97 222.187 233.715 222.187C230.461 222.187 227.53 218.535 227.132 214.013C226.735 209.492 229.047 205.825 232.287 205.825C235.527 205.825 238.487 209.492 238.885 214.013Z" fill="#16B99B"/>
<path opacity="0.3" d="M234.804 215.206L234.539 212.821H234.995C234.406 210.479 232.757 208.727 230.946 208.727C229.134 208.727 227.809 210.479 227.617 212.821H227.926L228.192 215.206H227.838C228.427 217.548 230.077 219.286 231.873 219.286C233.67 219.286 235.025 217.548 235.202 215.206H234.804Z" fill="white"/>
<path d="M213.645 215.015L220.08 202.35L225.279 214.632C225.279 214.632 220.065 221.259 214.69 220.302L213.645 215.015Z" fill="#DBB178"/>
<path d="M230.078 197.681L233.863 208.21L225.262 214.631L220.078 202.349L230.078 197.681Z" fill="#DBB178"/>
<path d="M215.337 228.651L221.522 218.239L220.874 213.998L215.425 212.068L207.664 224.145L215.337 228.651Z" fill="#DBB178"/>
<path d="M219.799 222.172L208.503 247.031C208.503 247.031 213.996 242.098 217.03 241.391C221.86 240.257 236.44 244.66 221.669 260.698C221.669 260.698 192.421 278.974 186.457 271.89C181.818 266.382 201.522 232.908 210.55 218.24L219.799 222.172Z" fill="#16B99B"/>
<path opacity="0.6" d="M219.799 222.172L208.503 247.031C208.503 247.031 213.996 242.098 217.03 241.391C221.86 240.257 236.44 244.66 221.669 260.698C221.669 260.698 192.421 278.974 186.457 271.89C181.818 266.382 201.522 232.908 210.55 218.24L219.799 222.172Z" fill="white"/>
<path opacity="0.2" d="M208.503 247.031L205.352 256.736L214.6 242.51C212.443 243.841 210.403 245.354 208.503 247.031Z" fill="black"/>
<path d="M250.814 224.985C249.578 225.016 248.341 224.937 247.118 224.749C243.966 223.616 240.917 222.217 238.002 220.567L238.591 219.506C241.421 221.094 244.377 222.449 247.427 223.556C250.564 223.816 253.716 223.816 256.853 223.556L256.941 224.779C256.705 224.779 253.613 224.985 250.814 224.985Z" fill="#16B99B"/>
<path d="M252.141 225.235L258.031 224.793C258.031 224.793 257.869 222.967 255.086 223.041C252.303 223.114 252.141 225.235 252.141 225.235Z" fill="#16B99B"/>
<g opacity="0.5">
<path d="M250.814 224.985C249.578 225.016 248.341 224.937 247.118 224.749C243.966 223.616 240.917 222.217 238.002 220.567L238.591 219.506C241.421 221.094 244.377 222.449 247.427 223.556C250.564 223.816 253.716 223.816 256.853 223.556L256.941 224.779C256.705 224.779 253.613 224.985 250.814 224.985Z" fill="black"/>
<path d="M252.141 225.235L258.031 224.793C258.031 224.793 257.869 222.967 255.086 223.041C252.303 223.114 252.141 225.235 252.141 225.235Z" fill="black"/>
</g>
<path d="M486.729 520.658C486.42 520.67 486.111 520.621 485.821 520.513C485.53 520.405 485.264 520.242 485.037 520.031C484.81 519.82 484.626 519.567 484.497 519.285C484.368 519.004 484.296 518.7 484.285 518.39L469.558 347.881C469.532 346.41 468.957 345.002 467.946 343.934C466.935 342.866 465.561 342.214 464.094 342.108H394.524C393.057 342.214 391.682 342.866 390.671 343.934C389.66 345.002 389.085 346.41 389.06 347.881L374.333 518.39C374.331 518.706 374.266 519.018 374.141 519.308C374.016 519.598 373.834 519.86 373.606 520.079C373.378 520.297 373.109 520.468 372.814 520.58C372.518 520.692 372.204 520.744 371.888 520.732C371.252 520.603 370.689 520.235 370.316 519.703C369.944 519.171 369.789 518.517 369.885 517.875L384.612 347.351C385.128 341.386 389.384 336.895 394.524 336.895H464.094C469.234 336.895 473.49 341.386 474.005 347.351L488.732 517.875C488.828 518.517 488.674 519.171 488.301 519.703C487.928 520.235 487.366 520.603 486.729 520.732V520.658Z" fill="#16B99B"/>
<g opacity="0.4">
<path d="M486.729 520.658C486.42 520.67 486.111 520.62 485.821 520.513C485.53 520.405 485.264 520.241 485.037 520.031C484.81 519.82 484.626 519.567 484.497 519.285C484.368 519.003 484.296 518.699 484.285 518.39L469.558 347.88C469.532 346.41 468.957 345.002 467.946 343.934C466.935 342.865 465.561 342.214 464.094 342.107H394.524C393.057 342.214 391.682 342.865 390.671 343.934C389.66 345.002 389.085 346.41 389.06 347.88L374.333 518.39C374.331 518.705 374.266 519.018 374.141 519.308C374.016 519.598 373.834 519.86 373.606 520.078C373.378 520.297 373.109 520.467 372.814 520.579C372.518 520.691 372.204 520.743 371.888 520.731C371.252 520.603 370.689 520.234 370.316 519.703C369.944 519.171 369.789 518.516 369.885 517.874L384.612 347.35C385.128 341.386 389.384 336.894 394.524 336.894H464.094C469.234 336.894 473.49 341.386 474.005 347.35L488.732 517.874C488.828 518.516 488.674 519.171 488.301 519.703C487.928 520.234 487.366 520.603 486.729 520.731V520.658Z" fill="black"/>
</g>
<path d="M485.757 329.516H296.648C294.997 329.516 293.658 330.855 293.658 332.506V342.196C293.658 343.847 294.997 345.186 296.648 345.186H485.757C487.408 345.186 488.747 343.847 488.747 342.196V332.506C488.747 330.855 487.408 329.516 485.757 329.516Z" fill="#263238"/>
<path opacity="0.2" d="M403.139 329.516H485.757C486.538 329.516 487.288 329.826 487.84 330.379C488.392 330.931 488.703 331.68 488.703 332.462V342.152C488.703 342.933 488.392 343.682 487.84 344.235C487.288 344.787 486.538 345.097 485.757 345.097H403.139V329.516Z" fill="white"/>
<path d="M410.533 520.658C410.216 520.672 409.9 520.621 409.603 520.51C409.306 520.399 409.035 520.229 408.805 520.01C408.575 519.791 408.392 519.529 408.267 519.238C408.141 518.947 408.075 518.633 408.074 518.316L393.347 347.807C393.321 346.336 392.746 344.928 391.735 343.86C390.724 342.792 389.35 342.14 387.883 342.034H318.312C316.848 342.144 315.477 342.797 314.469 343.864C313.461 344.932 312.889 346.338 312.863 347.807L298.136 518.39C298.135 518.705 298.069 519.018 297.945 519.308C297.82 519.598 297.638 519.86 297.41 520.078C297.182 520.297 296.912 520.467 296.617 520.579C296.322 520.691 296.007 520.743 295.692 520.731C295.046 520.596 294.478 520.214 294.11 519.667C293.741 519.119 293.601 518.45 293.718 517.801L308.445 347.276C308.961 341.312 313.232 336.82 318.357 336.82H387.927C393.067 336.82 397.323 341.312 397.838 347.276L412.565 517.801C412.662 518.441 412.509 519.093 412.14 519.625C411.77 520.156 411.211 520.526 410.577 520.658H410.533Z" fill="#16B99B"/>
<g opacity="0.4">
<path d="M410.531 520.658C410.214 520.672 409.898 520.621 409.601 520.51C409.304 520.399 409.033 520.229 408.803 520.01C408.573 519.791 408.39 519.529 408.265 519.238C408.139 518.947 408.073 518.633 408.072 518.316L393.345 347.807C393.319 346.336 392.744 344.928 391.733 343.86C390.722 342.792 389.348 342.14 387.881 342.034H318.31C316.846 342.144 315.475 342.797 314.467 343.864C313.459 344.932 312.887 346.338 312.861 347.807L298.134 518.39C298.133 518.705 298.067 519.018 297.943 519.308C297.818 519.598 297.636 519.86 297.408 520.078C297.18 520.297 296.91 520.467 296.615 520.579C296.32 520.691 296.005 520.743 295.69 520.731C295.044 520.596 294.476 520.214 294.108 519.667C293.739 519.119 293.599 518.45 293.716 517.801L308.443 347.276C308.959 341.312 313.23 336.82 318.355 336.82H387.925C393.065 336.82 397.321 341.312 397.836 347.276L412.563 517.801C412.66 518.441 412.507 519.093 412.138 519.625C411.768 520.156 411.209 520.526 410.575 520.658H410.531Z" fill="black"/>
</g>
<path d="M356.059 321.799H410.637V326.939C410.637 327.622 410.365 328.278 409.882 328.761C409.399 329.244 408.743 329.516 408.06 329.516H358.636C357.952 329.516 357.297 329.244 356.813 328.761C356.33 328.278 356.059 327.622 356.059 326.939V321.828V321.799Z" fill="#263238"/>
<path opacity="0.2" d="M356.059 321.799H410.637V326.939C410.637 327.622 410.365 328.278 409.882 328.761C409.399 329.244 408.743 329.516 408.06 329.516H358.636C357.952 329.516 357.297 329.244 356.813 328.761C356.33 328.278 356.059 327.622 356.059 326.939V321.828V321.799Z" fill="white"/>
<path d="M317.457 321.799H372.035V326.939C372.035 327.622 371.764 328.278 371.28 328.761C370.797 329.244 370.142 329.516 369.458 329.516H320.034C319.351 329.516 318.695 329.244 318.212 328.761C317.729 328.278 317.457 327.622 317.457 326.939V321.828V321.799Z" fill="#263238"/>
<path opacity="0.6" d="M317.457 321.799H372.035V326.939C372.035 327.622 371.764 328.278 371.28 328.761C370.797 329.244 370.142 329.516 369.458 329.516H320.034C319.351 329.516 318.695 329.244 318.212 328.761C317.729 328.278 317.457 327.622 317.457 326.939V321.828V321.799Z" fill="white"/>
<path d="M365.718 324.73H360.652V326.556H365.718V324.73Z" fill="#263238"/>
<path d="M357.603 324.73H352.537V326.556H357.603V324.73Z" fill="#263238"/>
<path d="M414.48 329.516H417.087C417.8 329.501 418.485 329.237 419.023 328.768C419.562 328.3 419.919 327.658 420.032 326.954L428.868 272.626C428.938 272.195 428.914 271.753 428.799 271.332C428.684 270.911 428.48 270.519 428.201 270.183C427.922 269.846 427.575 269.574 427.182 269.383C426.789 269.192 426.36 269.088 425.923 269.077L383.553 269.003L372.096 329.384H374.702L414.48 329.516Z" fill="#263238"/>
<path opacity="0.6" d="M414.48 329.516H417.087C417.8 329.501 418.485 329.237 419.023 328.768C419.562 328.3 419.919 327.658 420.032 326.954L428.868 272.626C428.938 272.195 428.914 271.753 428.799 271.332C428.684 270.911 428.48 270.519 428.201 270.183C427.922 269.846 427.575 269.574 427.182 269.383C426.789 269.192 426.36 269.088 425.923 269.077L383.553 269.003L372.096 329.384H374.702L414.48 329.516Z" fill="white"/>
<path opacity="0.2" d="M372.756 325.584L372.02 329.442H374.626L414.389 329.516H416.996C417.709 329.501 418.394 329.236 418.933 328.768C419.471 328.3 419.828 327.658 419.941 326.954L420.147 325.672L372.756 325.584Z" fill="black"/>
<path d="M372.08 329.487H374.716C375.429 329.472 376.115 329.207 376.653 328.739C377.191 328.271 377.548 327.628 377.662 326.924L386.498 272.567C386.567 272.136 386.544 271.696 386.429 271.275C386.314 270.855 386.11 270.463 385.83 270.128C385.551 269.793 385.203 269.522 384.81 269.333C384.417 269.144 383.988 269.041 383.552 269.032L372.08 329.487Z" fill="#263238"/>
<path opacity="0.3" d="M372.08 329.487H374.716C375.429 329.472 376.115 329.207 376.653 328.739C377.191 328.271 377.548 327.628 377.662 326.924L386.498 272.567C386.567 272.136 386.544 271.696 386.429 271.275C386.314 270.855 386.11 270.463 385.83 270.128C385.551 269.793 385.203 269.522 384.81 269.333C384.417 269.144 383.988 269.041 383.552 269.032L372.08 329.487Z" fill="white"/>
</svg>
