<svg width="546" height="385" viewBox="0 0 546 385" fill="none" xmlns="http://www.w3.org/2000/svg">
<path d="M272.88 385C423.588 385 545.76 380.766 545.76 375.543C545.76 370.319 423.588 366.085 272.88 366.085C122.173 366.085 0 370.319 0 375.543C0 380.766 122.173 385 272.88 385Z" fill="#16B99B"/>
<path d="M280.006 133.409L275.226 133.091L274.748 146.632L280.006 146.314V133.409Z" fill="white" stroke="#263238" stroke-miterlimit="10" stroke-linecap="round" stroke-linejoin="round"/>
<path d="M312.186 131.338L280.004 133.41L280.056 149.367L313.816 155.85L312.186 131.338Z" fill="#263238" stroke="#263238" stroke-miterlimit="10" stroke-linecap="round" stroke-linejoin="round"/>
<path d="M275.224 133.092C275.224 133.092 262.001 127.516 260.248 127.516C258.495 127.516 253.237 134.526 251.804 136.916C250.371 139.305 251.326 140.74 252.601 142.173C253.875 143.607 258.495 145.519 261.681 145.2C264.867 144.881 274.904 143.766 274.904 143.766L275.224 133.092Z" fill="white" stroke="#263238" stroke-miterlimit="10" stroke-linecap="round" stroke-linejoin="round"/>
<path d="M155.955 356.552C155.955 356.552 152.747 356.352 152.547 357.354C152.347 358.356 153.349 368.38 154.352 369.182C155.354 369.983 157.359 370.585 162.17 370.786C166.98 370.987 173.798 369.984 173.798 369.984L172.996 358.558L155.955 356.552Z" fill="#828282" stroke="#263238" stroke-miterlimit="10"/>
<path d="M152.219 256.037C152.219 256.037 152.219 272.522 149.991 281.879C147.763 291.235 151.459 311.071 154.133 322.209C156.806 333.348 156.361 342.705 156.361 342.705C156.361 342.705 151.46 349.388 152.351 352.507C153.242 355.626 153.993 356.864 157.558 357.754C161.122 358.646 161.568 356.953 166.608 360.526C172.861 364.96 180.865 366.764 183.093 364.091C185.321 361.417 182.201 360.08 180.419 358.744C178.637 357.408 174.627 351.17 171.509 346.714C168.39 342.258 170.172 326.664 170.172 313.298C170.172 299.931 176.724 260.937 176.724 260.937L152.219 256.037Z" fill="white" stroke="#263238" stroke-miterlimit="10"/>
<path d="M169.595 259.156C169.595 259.156 164.249 281.879 166.031 292.126C167.813 302.375 168.836 330.675 168.39 342.259C168.168 348.052 165.708 351.664 164.961 354.04C164.012 357.05 164.624 360.399 166.832 362.654C168.001 363.849 169.464 364.772 171.191 364.772C176.091 364.772 176.856 364.538 183.539 367.656C190.222 370.775 197.352 370.775 200.916 368.993C204.48 367.21 203.144 365.874 199.134 364.092C195.124 362.31 191.992 356.887 185.866 352.433C182.483 349.972 182.483 339.822 182.483 339.822C182.483 339.822 190.536 282.771 192.319 272.078C194.101 261.385 193.655 253.365 193.655 253.365L169.595 259.156Z" fill="white" stroke="#263238" stroke-miterlimit="10"/>
<path d="M164.576 358.957L164.977 371.387C164.977 371.387 165.379 371.988 172.997 372.389C180.615 372.791 179.813 371.988 190.238 373.793C200.663 375.597 203.469 371.587 203.67 370.985C203.872 370.384 203.47 367.176 203.47 367.176C203.47 367.176 199.461 369.381 190.239 368.179C181.017 366.976 177.809 364.772 173.8 362.165C169.788 359.559 164.576 358.957 164.576 358.957Z" fill="#828282" stroke="#263238" stroke-miterlimit="10"/>
<path d="M185.868 352.432L182.619 365.975C182.619 365.975 186.829 368.18 190.237 368.18L193.646 359.761C193.646 359.761 190.52 354.326 185.868 352.432Z" fill="#16B99B" stroke="#263238" stroke-miterlimit="10"/>
<path d="M210.152 122.125C210.152 122.125 209.979 120.222 211.19 117.972C212.401 115.723 211.363 113.647 209.459 115.205C207.556 116.761 206.691 120.049 206.691 120.049L210.152 122.125Z" fill="white" stroke="#263238" stroke-miterlimit="10"/>
<path d="M210.736 95.4687L174.695 90.8691L166.328 156.43L202.369 161.029L210.736 95.4687Z" fill="white" stroke="#263238" stroke-miterlimit="10"/>
<path d="M152.748 141.294C152.748 141.294 143.825 156.801 137.95 175.129C132.076 193.457 133.72 260.66 133.955 261.365C134.189 262.07 138.419 264.42 147.349 264.42C156.278 264.42 162.622 263.95 162.622 263.95C162.622 263.95 168.496 267.005 174.84 266.769C181.184 266.535 188.234 263.714 188.234 263.714C188.234 263.714 189.174 264.654 193.638 263.714C198.103 262.774 202.097 260.659 202.097 260.659L206.327 258.31C206.327 258.31 203.037 227.528 200.217 216.485C197.397 205.441 195.283 157.036 194.813 154.921C194.343 152.806 195.283 159.15 194.343 152.806C193.403 146.462 191.395 141.483 191.395 141.483L152.748 141.294Z" fill="#16B99B" stroke="#263238" stroke-miterlimit="10"/>
<path d="M148.107 204.638C148.68 205.911 149.288 207.132 149.934 208.262" stroke="#263238" stroke-miterlimit="10"/>
<path d="M141.473 181.709C141.473 181.709 143.332 192.706 147.048 202.124" stroke="#263238" stroke-miterlimit="10"/>
<path d="M144.766 204.501C144.766 204.501 147.35 209.2 151.11 215.31" stroke="#263238" stroke-miterlimit="10"/>
<path d="M163.094 253.042V232.229" stroke="#263238" stroke-miterlimit="10"/>
<path d="M163.094 262.071V257.981" stroke="#263238" stroke-miterlimit="10"/>
<path d="M170.375 158.43C170.16 160.21 169.993 161.904 169.906 163.381" stroke="#263238" stroke-miterlimit="10"/>
<path d="M173.197 141.058C173.197 141.058 171.786 148.233 170.793 155.26" stroke="#263238" stroke-miterlimit="10"/>
<path d="M162.86 141.762L159.805 153.746" stroke="#263238" stroke-miterlimit="10"/>
<path d="M199.746 225.179C199.746 225.179 201.391 246.562 200.686 253.376" stroke="#263238" stroke-miterlimit="10"/>
<path d="M176.638 67.1562C176.638 67.1562 187.031 73.3923 187.031 80.4956C187.031 87.598 183.913 90.024 184.432 91.0632C184.952 92.1024 189.456 88.6381 189.629 91.2361C189.802 93.835 188.243 99.5514 184.086 100.418C179.928 101.284 174.557 98.859 170.746 88.4643C166.936 78.0695 174.385 67.1562 176.638 67.1562Z" fill="#263238" stroke="#263238" stroke-miterlimit="10"/>
<path d="M158.62 72.1432C158.62 72.1432 148.2 73.2794 143.274 86.921C138.348 100.562 150.852 130.117 151.8 132.201C152.747 134.285 152.747 141.294 152.747 141.294L191.396 141.484C191.396 141.484 190.259 118.371 188.555 108.708C186.85 99.0453 183.44 86.921 177.756 80.1007C172.071 73.2804 168.85 69.8687 158.62 72.1432Z" fill="#16B99B" stroke="#263238" stroke-miterlimit="10"/>
<path d="M152.371 134.665C152.749 137.501 152.75 141.293 152.75 141.293L191.399 141.483C191.399 141.483 191.231 138.075 190.929 133.336H152.371V134.665Z" fill="#263238" stroke="#263238" stroke-miterlimit="10"/>
<path d="M208.765 127.315C208.765 127.315 210.669 122.644 210.149 122.125C209.631 121.607 206.17 118.838 205.305 118.838C204.44 118.838 198.039 119.356 198.039 120.222C198.039 121.087 199.77 121.433 199.77 121.433C199.77 121.433 198.213 122.471 198.386 123.336C198.559 124.202 201.588 124.967 201.588 124.967L208.765 127.315Z" fill="white" stroke="#263238" stroke-miterlimit="10"/>
<path d="M200.98 121.087C200.98 121.087 203.922 120.914 204.441 121.087C204.96 121.259 208.766 124.201 208.766 124.201" stroke="#263238" stroke-miterlimit="10"/>
<path d="M154.431 96.2906L182.471 139.465C182.471 139.465 186.772 141.536 189.64 142.811C192.508 144.085 200.951 143.447 208.757 142.811C216.563 142.174 247.184 137.393 247.184 137.393C247.184 137.393 249.096 140.261 251.009 142.014C252.92 143.767 256.425 145.997 257.541 146.157C258.656 146.316 261.683 145.2 261.683 145.2C261.683 145.2 263.436 146.475 264.869 146.315C266.303 146.156 266.941 145.837 267.099 145.2C267.259 144.563 266.621 139.624 266.143 138.191C265.665 136.757 261.842 132.933 261.842 132.933C261.842 132.933 256.266 128.154 255.31 127.994C254.353 127.835 242.246 128.473 242.246 128.473L201.588 124.968C201.588 124.968 202.863 124.331 200.314 123.056C197.764 121.782 195.216 121.622 195.216 121.622C195.216 121.622 172.912 76.2168 169.248 73.0306C165.583 69.8444 158.096 71.1191 153.316 75.58C148.537 80.041 149.015 85.4572 149.015 85.4572" fill="#16B99B"/>
<path d="M154.431 96.2906L182.471 139.465C182.471 139.465 186.772 141.536 189.64 142.811C192.508 144.085 200.951 143.447 208.757 142.811C216.563 142.174 247.184 137.393 247.184 137.393C247.184 137.393 249.096 140.261 251.009 142.014C252.92 143.767 256.425 145.997 257.541 146.157C258.656 146.316 261.683 145.2 261.683 145.2C261.683 145.2 263.436 146.475 264.87 146.315C266.303 146.156 266.941 145.837 267.099 145.2C267.259 144.563 266.621 139.624 266.143 138.191C265.665 136.757 261.842 132.933 261.842 132.933C261.842 132.933 256.266 128.154 255.31 127.994C254.353 127.835 242.246 128.473 242.246 128.473L201.588 124.968C201.588 124.968 202.863 124.331 200.314 123.056C197.764 121.782 195.216 121.622 195.216 121.622C195.216 121.622 172.912 76.2168 169.248 73.0306C165.583 69.8444 158.096 71.1191 153.316 75.58C148.537 80.041 149.015 85.4572 149.015 85.4572" stroke="#263238" stroke-miterlimit="10" stroke-linecap="round" stroke-linejoin="round"/>
<path d="M267.098 145.2C267.257 144.563 266.619 139.624 266.141 138.19C265.663 136.756 261.84 132.933 261.84 132.933C261.84 132.933 256.264 128.153 255.308 127.994C254.352 127.834 242.244 128.472 242.244 128.472L210.154 125.579L207.186 142.937C207.711 142.895 208.235 142.853 208.756 142.81C216.563 142.173 247.183 137.393 247.183 137.393C247.183 137.393 249.095 140.26 251.008 142.013C252.919 143.766 256.424 145.996 257.54 146.156C258.655 146.316 261.682 145.2 261.682 145.2C261.682 145.2 263.435 146.474 264.869 146.314C266.301 146.155 266.939 145.836 267.098 145.2Z" fill="white" stroke="#263238" stroke-miterlimit="10" stroke-linecap="round" stroke-linejoin="round"/>
<path d="M198.242 125.604C198.242 125.604 190.277 130.543 188.684 134.366" stroke="#263238" stroke-miterlimit="10" stroke-linecap="round" stroke-linejoin="round"/>
<path d="M195.693 124.648C195.693 124.648 186.613 127.834 184.701 130.064" stroke="#263238" stroke-miterlimit="10" stroke-linecap="round" stroke-linejoin="round"/>
<path d="M179.403 63.5176L174.553 74.0852L167.623 61.6121L169.701 59.187L179.403 63.5176Z" fill="white" stroke="#263238" stroke-miterlimit="10"/>
<path d="M184.431 25.4053C184.431 25.4053 187.549 30.776 188.069 34.4131C188.588 38.0512 188.242 42.3817 188.242 42.3817C188.242 42.3817 192.746 48.4449 192.746 50.0037C192.746 51.5624 189.108 53.1222 189.108 53.1222C189.108 53.1222 188.069 60.918 187.895 62.6506C187.722 64.3832 186.162 66.2887 184.43 66.2887C182.697 66.2887 171.784 62.8245 170.224 62.3039C168.665 61.7843 163.814 48.7916 167.452 39.61C171.09 30.4283 184.431 25.4053 184.431 25.4053Z" fill="white" stroke="#263238" stroke-miterlimit="10"/>
<path d="M184.606 42.0354C184.606 43.0877 184.141 43.9408 183.566 43.9408C182.992 43.9408 182.527 43.0877 182.527 42.0354C182.527 40.983 182.992 40.1299 183.566 40.1299C184.141 40.1299 184.606 40.983 184.606 42.0354Z" fill="#263238"/>
<path d="M181.658 38.2245C181.658 38.2245 184.257 36.8386 185.989 38.3974" stroke="#263238" stroke-miterlimit="10"/>
<path d="M186.51 55.5486C186.51 55.5486 184.431 55.8953 182.699 53.2964" stroke="#263238" stroke-miterlimit="10"/>
<path d="M189.108 19.8616C189.108 19.8616 185.123 25.2324 178.714 35.7999C172.304 46.3675 171.784 63.8646 171.784 63.8646C171.784 63.8646 177.155 70.7941 178.541 77.0311C179.927 83.2682 176.808 86.0389 176.808 86.0389C176.808 86.0389 173.989 76.4792 169.249 73.0301C164.509 69.581 159.66 69.3344 158.62 72.1436C157.579 74.9518 162.949 81.1888 160.524 86.3857C158.099 91.5825 148.745 96.4337 149.437 102.15C150.131 107.867 154.461 112.371 153.075 119.3C151.689 126.23 144.413 129.002 140.775 126.577C137.137 124.152 138.523 122.072 138.87 121.553C139.216 121.033 140.775 118.954 138.35 116.529C135.925 114.104 128.822 108.907 130.554 104.228C132.287 99.5512 138.87 98.3381 136.791 92.4488C134.712 86.5585 126.397 78.2431 129.862 71.6604C133.327 65.0776 140.602 64.3842 138.87 55.8959C137.137 47.4077 135.578 46.5414 137.484 38.3989C139.389 30.2564 148.398 19.8626 152.382 16.917C156.367 13.9723 168.146 11.3734 170.918 11.5462C173.69 11.7191 180.447 14.4909 182.699 15.1843C184.951 15.8778 190.321 16.7441 189.108 19.8616Z" fill="#263238" stroke="#263238" stroke-miterlimit="10"/>
<path d="M247.889 134.812C247.889 134.812 244.245 139.017 244.805 139.999C245.366 140.981 247.328 141.681 247.328 141.681C247.328 141.681 249.43 138.317 249.71 136.354C249.992 134.392 249.15 134.251 247.889 134.812Z" fill="white" stroke="#263238" stroke-miterlimit="10" stroke-linecap="round" stroke-linejoin="round"/>
<path d="M251.804 136.914C251.804 136.914 247.326 140.559 247.326 141.68C247.326 142.801 248.027 143.783 248.868 143.362C249.709 142.942 252.512 140.419 252.793 138.596C253.073 136.775 252.778 136.914 251.804 136.914Z" fill="white" stroke="#263238" stroke-miterlimit="10" stroke-linecap="round" stroke-linejoin="round"/>
<path d="M252.822 139.759C252.822 139.759 249.561 142.782 249.721 143.576C249.879 144.372 250.993 144.928 251.629 144.928C252.265 144.928 254.413 142.781 254.969 141.19C255.526 139.601 254.651 138.487 252.822 139.759Z" fill="white" stroke="#263238" stroke-miterlimit="10" stroke-linecap="round" stroke-linejoin="round"/>
<path d="M254.81 141.827C254.81 141.827 252.503 145.486 252.742 145.884C252.98 146.281 254.173 147.395 254.73 146.6C255.287 145.804 257.116 143.657 256.957 142.226C256.799 140.793 255.685 140.873 254.81 141.827Z" fill="white" stroke="#263238" stroke-miterlimit="10" stroke-linecap="round" stroke-linejoin="round"/>
<path d="M332.657 72.4219C332.657 72.4219 324.314 79.5444 323.5 81.7835C322.686 84.0226 322.686 86.668 322.686 86.668C322.686 86.668 311.697 99.2856 310.882 105.187C310.068 111.088 313.121 121.468 313.121 121.468L337.746 73.4398L332.657 72.4219Z" fill="#263238" stroke="#263238" stroke-miterlimit="10" stroke-linecap="round" stroke-linejoin="round"/>
<path d="M391.746 366.487L391.665 371.567C391.665 371.567 383.074 373.071 376.201 372.427L375.986 368.775L391.746 366.487Z" fill="#263238" stroke="#263238" stroke-miterlimit="10" stroke-linecap="round" stroke-linejoin="round"/>
<path d="M358.734 345.324C358.734 345.324 358.001 350.33 356.872 352.022C355.744 353.715 354.218 356.046 349.422 358.021C344.625 359.996 332.437 364.138 333.001 366.395C333.565 368.652 334.695 369.782 335.823 370.064C336.952 370.346 345.884 371.782 353.22 371.782C360.556 371.782 369.737 372.13 372.559 371.001C375.38 369.872 378.202 368.743 381.306 368.743C384.409 368.743 390.617 368.179 391.746 366.486C392.875 364.793 391.182 356.892 390.335 354.635C389.488 352.378 388.34 348.901 388.34 348.901L358.734 345.324Z" fill="#263238" stroke="#263238" stroke-miterlimit="10" stroke-linecap="round" stroke-linejoin="round"/>
<path d="M369.822 203.996C369.822 203.996 370.808 266.113 371.137 271.7C371.466 277.287 378.368 306.867 383.626 321.329C388.885 335.79 389.284 351.454 389.284 351.454C389.284 351.454 379.025 353.538 376.724 353.866C374.423 354.195 365.221 351.894 365.221 351.894C365.221 351.894 358.318 296.35 358.318 263.154C358.318 229.96 360.619 205.638 360.619 205.638L369.822 203.996Z" fill="#263238" stroke="#263238" stroke-miterlimit="10" stroke-linecap="round" stroke-linejoin="round"/>
<path d="M375.851 370.138L375.77 375.218C375.77 375.218 367.179 376.721 360.306 376.078L360.092 372.426L375.851 370.138Z" fill="#263238" stroke="#263238" stroke-miterlimit="10" stroke-linecap="round" stroke-linejoin="round"/>
<path d="M342.841 348.975C342.841 348.975 342.108 353.98 340.979 355.673C339.85 357.366 338.326 359.697 333.529 361.672C328.733 363.647 316.545 367.789 317.109 370.046C317.673 372.303 318.802 373.432 319.93 373.715C321.058 373.997 329.991 375.433 337.327 375.433C344.663 375.433 353.845 375.781 356.666 374.652C359.487 373.523 362.31 372.394 365.413 372.394C368.516 372.394 374.724 371.83 375.853 370.137C376.982 368.444 375.289 360.543 374.442 358.286C373.596 356.028 372.448 352.552 372.448 352.552L342.841 348.975Z" fill="#263238" stroke="#263238" stroke-miterlimit="10" stroke-linecap="round" stroke-linejoin="round"/>
<path d="M323.15 202.68C323.15 202.68 327.752 246.392 330.053 256.582C332.353 266.77 339.256 299.308 339.256 299.308C339.256 299.308 343.528 332.503 343.528 333.818C343.528 335.132 343.528 339.076 343.528 339.076C343.528 339.076 340.031 342.735 340.031 344.377C340.031 346.021 341.625 353.524 341.625 353.524C341.625 353.524 347.815 355.34 356.031 356.326C364.188 357.304 373.804 356.613 373.804 356.613C373.804 356.613 374.089 336.219 371.788 317.157C369.487 298.094 363.577 268.084 363.577 258.554C363.577 249.023 365.221 229.302 365.549 227.988C365.878 226.674 366.864 205.968 366.864 205.968L323.15 202.68Z" fill="#263238" stroke="#263238" stroke-miterlimit="10" stroke-linecap="round" stroke-linejoin="round"/>
<path d="M323.981 12.6951C323.981 12.6951 318.216 23.2515 318.216 25.5786C318.216 27.9056 319.213 29.2359 318.881 29.901C318.548 30.5662 313.395 37.714 313.062 39.5426C312.73 41.3713 316.387 43.6983 316.885 44.1977C317.384 44.6961 317.883 53.5067 318.548 56.0006C319.213 58.4944 321.375 60.4888 323.203 60.4888C325.032 60.4888 327.359 59.8236 327.359 59.8236L336.502 65.9748L361.604 51.1797L361.272 45.8596C361.272 45.8596 369.017 32.9265 369.515 30.4327C370.014 27.9389 370.359 16.779 367.866 12.6223C365.373 8.46663 353.898 3.23743 347.747 1.40877C341.596 -0.419881 330.131 4.38274 327.638 6.0446C325.144 7.70747 321.986 9.70191 322.485 10.8654C322.983 12.0309 323.981 12.6951 323.981 12.6951Z" fill="white" stroke="#263238" stroke-miterlimit="10" stroke-linecap="round" stroke-linejoin="round"/>
<path d="M367.866 12.6238C365.372 8.4681 353.898 3.23889 347.747 1.41024C341.595 -0.418416 330.13 4.3842 327.637 6.04607C325.144 7.70894 321.986 9.70337 322.484 10.8669C322.982 12.0304 323.98 12.6955 323.98 12.6955C323.98 12.6955 325.476 13.0281 326.64 12.0304C327.803 11.0327 327.471 9.86916 334.619 8.53987C341.768 7.20957 343.484 11.7817 340.99 14.2755C338.496 16.7693 333.842 19.9273 334.673 22.5879C335.504 25.2475 342.985 28.5722 342.985 28.5722C342.985 28.5722 342.32 31.5644 342.985 32.2295C343.651 32.8946 344.814 33.0604 344.814 33.0604C344.814 33.0604 349.802 27.4087 352.129 28.5722C354.456 29.7357 357.448 35.2217 357.116 37.8813C356.784 40.5408 352.794 45.3616 352.794 45.3616L349.967 46.0268C349.967 46.0268 355.121 49.3515 361.272 45.86C361.272 45.86 369.017 32.927 369.516 30.4332C370.013 27.9404 370.359 16.7794 367.866 12.6238Z" fill="#263238" stroke="#263238" stroke-miterlimit="10" stroke-linecap="round" stroke-linejoin="round"/>
<path d="M324.202 31.5633C324.202 32.6651 323.792 33.5587 323.288 33.5587C322.782 33.5587 322.373 32.6651 322.373 31.5633C322.373 30.4614 322.782 29.5688 323.288 29.5688C323.792 29.5688 324.202 30.4614 324.202 31.5633Z" fill="#263238"/>
<path d="M320.545 27.2403C320.545 27.2403 324.035 24.9133 326.363 27.2403" stroke="#263238" stroke-miterlimit="10" stroke-linecap="round" stroke-linejoin="round"/>
<path d="M320.545 45.5271C320.545 45.5271 323.87 45.8597 326.363 43.8643" stroke="#263238" stroke-miterlimit="10" stroke-linecap="round" stroke-linejoin="round"/>
<path d="M321.705 34.5562C321.705 34.5562 323.201 37.5483 325.362 37.5483" stroke="#263238" stroke-miterlimit="10" stroke-linecap="round" stroke-linejoin="round"/>
<path d="M327.359 59.8244L333.012 56.998L332.68 62.9834L327.359 59.8244Z" fill="#263238" stroke="#263238" stroke-miterlimit="10" stroke-linecap="round" stroke-linejoin="round"/>
<path d="M361.607 49.1851L333.179 67.3048L331.518 78.9419L365.43 53.5075L361.607 49.1851Z" fill="white" stroke="#263238" stroke-miterlimit="10" stroke-linecap="round" stroke-linejoin="round"/>
<path d="M365.431 53.5072C365.431 53.5072 333.347 73.123 327.861 83.4298C322.375 93.7366 311.57 107.368 311.237 115.846C310.905 124.324 311.237 191.318 311.072 196.306C310.906 201.294 327.363 211.434 344.984 213.097C362.605 214.759 379.894 206.945 381.556 205.949C383.219 204.951 386.544 201.959 386.544 201.959C386.544 201.959 381.556 171.537 381.556 167.547C381.556 163.557 380.226 154.581 380.226 154.581L383.883 124.824C383.883 124.824 382.387 86.9213 380.393 78.1106C378.397 69.2999 369.421 54.0066 369.421 54.0066C369.421 54.0066 367.758 52.1769 365.431 53.5072Z" fill="#263238" stroke="#263238" stroke-miterlimit="10" stroke-linecap="round" stroke-linejoin="round"/>
<path d="M312.237 111.175C312.014 111.831 311.824 112.471 311.672 113.093L314.063 109.53C314.063 109.53 328.359 95.5662 332.182 90.5796C336.005 85.592 343.819 79.2751 343.819 79.2751L344.983 74.4543L346.646 77.1139C346.646 77.1139 353.628 68.8016 358.615 65.6436C363.602 62.4847 369.92 58.9941 369.92 58.9941" stroke="#A1A1A1" stroke-miterlimit="10" stroke-linecap="round" stroke-linejoin="round"/>
<path d="M379.805 150.882L318.996 128.896L302.938 173.31L363.747 195.296L379.805 150.882Z" fill="#16B99B" stroke="#263238" stroke-miterlimit="10" stroke-linecap="round" stroke-linejoin="round"/>
<path d="M345.985 164.65C345.985 164.65 341.062 167.211 340.274 167.407C339.486 167.604 328.852 166.225 327.867 166.62C326.883 167.014 323.929 168.786 322.353 169.18C320.777 169.574 321.368 172.134 323.338 172.725C325.307 173.316 330.23 171.938 330.23 171.938L331.608 173.513C331.608 173.513 327.473 185.132 328.458 186.116C329.442 187.101 330.23 188.085 331.214 187.692C332.199 187.298 333.971 186.707 333.971 186.707C333.971 186.707 338.501 188.48 339.485 188.874C340.47 189.268 343.818 189.465 344.605 189.071C345.393 188.677 346.18 187.692 346.969 186.51C347.756 185.329 351.104 175.679 351.104 175.679L352.483 172.134L345.985 164.65Z" fill="white" stroke="#263238" stroke-miterlimit="10" stroke-linecap="round" stroke-linejoin="round"/>
<path d="M354.455 76.0323C354.455 76.0323 350.123 77.6082 348.744 88.0454C347.365 98.4826 350.713 106.753 352.682 109.707C354.651 112.661 370.9 135.043 370.9 135.043C370.9 135.043 368.931 136.815 369.128 137.799C369.325 138.784 369.325 138.784 369.325 138.784L343.23 164.058L353.273 174.298C353.273 174.298 385.358 158.902 392.956 152.571C399.036 147.503 402.211 137.012 402.014 134.845C401.817 132.679 380.843 87.454 377.692 81.7427C374.541 76.0313 370.996 72.4872 368.239 71.6997" fill="#263238"/>
<path d="M354.455 76.0323C354.455 76.0323 350.123 77.6082 348.744 88.0454C347.365 98.4826 350.713 106.753 352.682 109.707C354.651 112.661 370.9 135.043 370.9 135.043C370.9 135.043 368.931 136.815 369.128 137.799C369.325 138.784 369.325 138.784 369.325 138.784L343.23 164.058L353.273 174.298C353.273 174.298 385.358 158.902 392.956 152.571C399.036 147.503 402.211 137.012 402.014 134.845C401.817 132.679 380.843 87.454 377.692 81.7427C374.541 76.0313 370.996 72.4872 368.239 71.6997" stroke="#263238" stroke-miterlimit="10" stroke-linecap="round" stroke-linejoin="round"/>
<path d="M371.094 137.997C371.094 137.997 386.651 134.058 387.242 136.027" stroke="#263238" stroke-miterlimit="10" stroke-linecap="round" stroke-linejoin="round"/>
<path d="M389.999 134.453C389.999 134.453 385.273 132.286 381.334 133.074" stroke="#A1A1A1" stroke-miterlimit="10" stroke-linecap="round" stroke-linejoin="round"/>
<path d="M348.742 88.0444C348.742 88.0444 349.631 97.8711 351.394 102.404C353.157 106.938 371.04 132.88 371.04 132.88C371.04 132.88 368.017 132.377 368.521 134.14C369.024 135.903 369.126 137.799 369.126 137.799L365.75 140.689" stroke="#A1A1A1" stroke-miterlimit="10" stroke-linecap="round" stroke-linejoin="round"/>
<path d="M271.082 132.135C271.082 132.135 263.595 127.992 261.205 126.24C258.816 124.488 256.107 125.444 255.629 125.762C255.151 126.081 251.965 131.18 251.487 132.135C251.009 133.091 252.443 133.728 253.717 133.568C254.991 133.408 259.293 130.542 259.293 130.542L264.71 134.843" fill="white"/>
<path d="M271.082 132.135C271.082 132.135 263.595 127.992 261.205 126.24C258.816 124.488 256.107 125.444 255.629 125.762C255.151 126.081 251.965 131.18 251.487 132.135C251.009 133.091 252.443 133.728 253.717 133.568C254.991 133.408 259.293 130.542 259.293 130.542L264.71 134.843" stroke="#263238" stroke-miterlimit="10" stroke-linecap="round" stroke-linejoin="round"/>
</svg>
