<svg width="715" height="527" viewBox="0 0 715 527" fill="none" xmlns="http://www.w3.org/2000/svg">
<path d="M643.393 490.953H596.055V491.31H643.393V490.953Z" fill="#EBEBEB"/>
<path d="M473.762 494.84H461.342V495.198H473.762V494.84Z" fill="#EBEBEB"/>
<path d="M594.624 477.688H567.195V478.046H594.624V477.688Z" fill="#EBEBEB"/>
<path d="M137.06 480.09H75.3281V480.447H137.06V480.09Z" fill="#EBEBEB"/>
<path d="M158.842 480.09H149.795V480.447H158.842V480.09Z" fill="#EBEBEB"/>
<path d="M322.155 486.122H188.258V486.479H322.155V486.122Z" fill="#EBEBEB"/>
<path d="M339.093 404.208H63.1223C60.9578 404.208 58.8819 403.348 57.3513 401.818C55.8208 400.287 54.9609 398.211 54.9609 396.047V8.08988C54.9798 5.93776 55.8479 3.88021 57.3765 2.36508C58.905 0.849955 60.9701 -8.25081e-05 63.1223 6.00673e-09H339.093C341.257 6.00675e-09 343.333 0.859854 344.864 2.3904C346.394 3.92095 347.254 5.99682 347.254 8.16134V396.047C347.254 398.211 346.394 400.287 344.864 401.818C343.333 403.348 341.257 404.208 339.093 404.208ZM63.1223 0.285863C61.0537 0.289641 59.0709 1.11306 57.6082 2.57578C56.1455 4.0385 55.322 6.02129 55.3183 8.08988V396.047C55.322 398.115 56.1455 400.098 57.6082 401.561C59.0709 403.024 61.0537 403.847 63.1223 403.851H339.093C341.161 403.847 343.144 403.024 344.607 401.561C346.07 400.098 346.893 398.115 346.897 396.047V8.08988C346.893 6.02129 346.07 4.0385 344.607 2.57578C343.144 1.11306 341.161 0.289641 339.093 0.285863H63.1223Z" fill="#EBEBEB"/>
<path d="M648.268 404.208H372.269C370.105 404.204 368.032 403.343 366.502 401.814C364.972 400.284 364.111 398.21 364.107 396.047V8.08988C364.13 5.93893 364.999 3.88354 366.527 2.36921C368.055 0.854881 370.118 0.00364229 372.269 0H648.268C650.415 0.00743882 652.473 0.860799 653.995 2.37512C655.518 3.88944 656.382 5.94271 656.401 8.08988V396.047C656.401 398.206 655.545 400.278 654.02 401.808C652.496 403.337 650.428 404.201 648.268 404.208ZM372.269 0.285863C370.2 0.289641 368.217 1.11306 366.755 2.57578C365.292 4.0385 364.469 6.02129 364.465 8.08988V396.047C364.469 398.115 365.292 400.098 366.755 401.561C368.217 403.024 370.2 403.847 372.269 403.851H648.268C650.337 403.847 652.319 403.024 653.782 401.561C655.245 400.098 656.068 398.115 656.072 396.047V8.08988C656.068 6.02129 655.245 4.0385 653.782 2.57578C652.319 1.11306 650.337 0.289641 648.268 0.285863H372.269Z" fill="#EBEBEB"/>
<path d="M715.001 467.955H0.347656V468.312H715.001V467.955Z" fill="#EBEBEB"/>
<path d="M274.502 116.575H126.568V467.713H274.502V116.575Z" fill="#E6E6E6"/>
<path d="M268.215 122.935H132.859V467.713H268.215V122.935Z" fill="#F0F0F0"/>
<path d="M184.171 294.68L207.969 141.959H197.335L173.537 294.68H184.171Z" fill="#FAFAFA"/>
<path d="M219.189 294.68H258.696V141.959H242.987L219.189 294.68Z" fill="#FAFAFA"/>
<path d="M187.245 141.959H143.094V294.68H163.447L187.245 141.959Z" fill="#FAFAFA"/>
<path d="M258.682 332.857H143.094V459.122H258.682V332.857Z" fill="#EBEBEB"/>
<path d="M152.956 300.355H143.094V326.068H152.956V300.355Z" fill="#E6E6E6"/>
<path d="M152.955 326.083H154.898V300.369H152.955V326.083Z" fill="#E0E0E0"/>
<path d="M145.55 314.619C147.847 314.619 149.709 312.757 149.709 310.46C149.709 308.163 147.847 306.301 145.55 306.301C143.253 306.301 141.391 308.163 141.391 310.46C141.391 312.757 143.253 314.619 145.55 314.619Z" fill="#E0E0E0"/>
<path d="M148.91 317.664H146.766V322.866H148.91V317.664Z" fill="#E0E0E0"/>
<path d="M147.695 310.46C147.695 311.609 147.355 312.733 146.717 313.689C146.079 314.645 145.172 315.39 144.111 315.832C143.049 316.273 141.881 316.39 140.753 316.167C139.626 315.945 138.589 315.394 137.774 314.583C136.96 313.773 136.404 312.739 136.176 311.612C135.948 310.486 136.059 309.317 136.495 308.253C136.931 307.19 137.672 306.28 138.625 305.637C139.578 304.994 140.7 304.648 141.849 304.643C142.616 304.639 143.375 304.787 144.084 305.077C144.793 305.368 145.438 305.796 145.981 306.336C146.524 306.877 146.955 307.519 147.25 308.227C147.544 308.935 147.695 309.694 147.695 310.46Z" fill="#EBEBEB"/>
<path d="M575.157 377.022H347.525V451.818H575.157V377.022Z" fill="#EBEBEB"/>
<path d="M365.778 456.893H351.471V467.698H365.778V456.893Z" fill="#E6E6E6"/>
<path d="M592.524 367.903H578.217V467.698H592.524V367.903Z" fill="#E6E6E6"/>
<path d="M574.573 367.903H343.84V467.698H351.472V459.436H570.757V467.698H578.389V367.903H574.573ZM351.472 381.253H457.241V446.086H351.472V381.253ZM464.931 381.253H570.699V446.086H464.874L464.931 381.253Z" fill="#F5F5F5"/>
<path d="M350.783 527C503.836 527 627.911 519.756 627.911 510.82C627.911 501.885 503.836 494.641 350.783 494.641C197.729 494.641 73.6543 501.885 73.6543 510.82C73.6543 519.756 197.729 527 350.783 527Z" fill="#F5F5F5"/>
<path d="M485.024 383.969C485.024 383.969 459.811 381.339 473.404 364.302C475.561 361.622 478.122 359.293 480.993 357.398C481.108 361.8 481.836 370.948 485.867 369.176C490.269 367.246 494.443 355.054 495.772 351.052C502.053 349.471 508.523 348.774 514.996 348.98C515.261 353.263 515.294 357.557 515.096 361.843C512.081 363.644 506.206 367.561 505.949 370.534C505.692 373.506 511.552 372.935 514.139 372.463C513.508 377.335 512.362 382.126 510.723 386.756C507.064 385.713 501.504 384.526 499.817 386.442C498.131 388.357 501.99 394.46 504.42 397.662C503.178 399.03 501.76 400.227 500.203 401.221C482.18 412.326 485.024 383.969 485.024 383.969Z" fill="#C35899"/>
<g opacity="0.2">
<path d="M487.14 381.84C489.484 369.748 502.776 359.643 512.01 353.111C513.139 352.325 511.738 350.695 510.58 351.496C500.818 358.385 487.44 368.919 484.967 381.654C484.696 382.998 486.825 383.184 487.097 381.84H487.14Z" fill="white"/>
</g>
<path d="M485.01 443.985L486.239 443.9C483.781 407.524 489.198 395.704 494.172 392.187C494.946 391.589 495.854 391.188 496.818 391.018C497.781 390.849 498.772 390.917 499.703 391.215L500.189 390.101C499.068 389.709 497.866 389.603 496.693 389.793C495.52 389.982 494.413 390.462 493.472 391.187C488.24 394.874 482.523 407.038 485.01 443.985Z" fill="#C35899"/>
<path d="M491.928 440.298C493.129 409.353 487.769 397.804 483.052 393.574C482.332 392.818 481.461 392.223 480.496 391.826C479.53 391.43 478.492 391.241 477.449 391.272L477.621 392.487C478.498 392.479 479.368 392.652 480.175 392.996C480.981 393.341 481.708 393.849 482.309 394.488C486.783 398.59 491.885 409.853 490.713 440.226L491.928 440.298Z" fill="#C35899"/>
<path d="M486.711 440.327L487.926 440.241C486.668 421.66 488.969 410.583 494.572 408.239C501.876 405.18 512.795 417.415 512.91 417.529L513.825 416.729C513.353 416.2 502.219 403.722 494.1 407.11C487.883 409.711 485.396 420.874 486.711 440.327Z" fill="#C35899"/>
<path d="M489.798 441.498C489.798 430.064 487.425 423.017 482.737 420.545C477.448 417.772 471.302 421.888 471.088 422.06L471.774 423.06C471.774 423.06 477.491 419.187 482.165 421.631C486.453 423.875 488.583 430.564 488.568 441.498H489.798Z" fill="#C35899"/>
<g opacity="0.2">
<path d="M485.01 443.985L486.239 443.9C483.781 407.524 489.198 395.704 494.172 392.187C494.946 391.589 495.854 391.188 496.818 391.018C497.781 390.849 498.772 390.917 499.703 391.215L500.189 390.101C499.068 389.709 497.866 389.603 496.693 389.793C495.52 389.982 494.413 390.462 493.472 391.187C488.24 394.874 482.523 407.038 485.01 443.985Z" fill="black"/>
<path d="M491.928 440.298C493.129 409.354 487.769 397.805 483.052 393.574C482.332 392.819 481.461 392.223 480.496 391.827C479.53 391.43 478.492 391.242 477.449 391.273L477.621 392.488C478.498 392.479 479.368 392.652 480.175 392.997C480.981 393.341 481.708 393.849 482.309 394.489C486.783 398.591 491.885 409.854 490.713 440.227L491.928 440.298Z" fill="black"/>
<path d="M486.711 440.327L487.926 440.241C486.668 421.66 488.969 410.583 494.572 408.239C501.876 405.18 512.795 417.415 512.91 417.529L513.825 416.729C513.353 416.2 502.219 403.722 494.1 407.11C487.883 409.711 485.396 420.874 486.711 440.327Z" fill="black"/>
<path d="M489.798 441.499C489.798 430.064 487.425 423.018 482.737 420.545C477.448 417.772 471.302 421.889 471.088 422.06L471.774 423.061C471.774 423.061 477.491 419.187 482.165 421.631C486.453 423.875 488.583 430.565 488.568 441.499H489.798Z" fill="black"/>
</g>
<path d="M516.17 501.272L520.615 438.226H461.027L465.401 501.272C465.637 504.719 467.173 507.947 469.7 510.304C472.226 512.66 475.553 513.969 479.008 513.965H502.563C506.016 513.962 509.339 512.651 511.864 510.296C514.389 507.941 515.928 504.717 516.17 501.272Z" fill="#263238"/>
<path d="M497.501 390.415C497.501 390.415 485.123 369.619 506.92 369.319C510.057 369.301 513.18 369.73 516.197 370.591C513.338 372.52 508.793 376.051 511.137 376.937C513.481 377.823 522.428 376.094 526.688 375.15C533.792 379.526 540.043 385.153 545.14 391.759C540.733 395.849 536.027 399.604 531.061 402.993C528.889 400.835 525.601 398.119 523.743 399.206C521.885 400.292 519.841 406.081 518.598 410.211C514.532 412.176 510.197 413.525 505.734 414.213C505.848 410.883 505.734 405.509 504.19 404.651C502.647 403.794 496.815 409.297 493.571 412.641C476.876 405.452 497.501 390.415 497.501 390.415Z" fill="#C35899"/>
<path opacity="0.3" d="M497.501 390.415C497.501 390.415 485.123 369.619 506.92 369.319C510.057 369.301 513.18 369.73 516.197 370.591C513.338 372.52 508.793 376.051 511.137 376.937C513.481 377.823 522.428 376.094 526.688 375.15C533.792 379.526 540.043 385.153 545.14 391.759C540.733 395.849 536.027 399.604 531.061 402.993C528.889 400.835 525.601 398.119 523.743 399.206C521.885 400.292 519.841 406.081 518.598 410.211C514.532 412.176 510.197 413.525 505.734 414.213C505.848 410.883 505.734 405.509 504.19 404.651C502.647 403.794 496.815 409.297 493.571 412.641C476.876 405.452 497.501 390.415 497.501 390.415Z" fill="white"/>
<path d="M468.873 406.037C466.229 405.28 462.97 410.525 461.27 413.684C455.788 411.251 450.724 407.972 446.262 403.965C447.477 401.306 448.849 397.619 447.977 396.218C447.105 394.817 442.345 395.918 438.972 396.975C435.907 393.733 433.043 390.306 430.396 386.713C432.994 384.611 435.741 382.701 438.615 380.996C443.518 381.539 450.45 381.982 452.136 380.295C453.823 378.609 450.078 377.18 447.362 376.508C451.916 374.515 456.728 373.173 461.655 372.52C462.299 374.735 463.728 378.151 466.386 378.151C469.045 378.151 471.804 375.193 473.633 372.992C494.115 377.394 477.921 392.044 477.921 392.044C477.921 392.044 495.544 412.955 474.591 415.757C473.447 412.183 471.346 406.738 468.873 406.037Z" fill="#C35899"/>
<path opacity="0.2" d="M468.873 406.037C466.229 405.28 462.97 410.525 461.27 413.684C455.788 411.251 450.724 407.972 446.262 403.965C447.477 401.306 448.849 397.619 447.977 396.218C447.105 394.817 442.345 395.918 438.972 396.975C435.907 393.733 433.043 390.306 430.396 386.713C432.994 384.611 435.741 382.701 438.615 380.996C443.518 381.539 450.45 381.982 452.136 380.295C453.823 378.609 450.078 377.18 447.362 376.508C451.916 374.515 456.728 373.173 461.655 372.52C462.299 374.735 463.728 378.151 466.386 378.151C469.045 378.151 471.804 375.193 473.633 372.992C494.115 377.394 477.921 392.044 477.921 392.044C477.921 392.044 495.544 412.955 474.591 415.757C473.447 412.183 471.346 406.738 468.873 406.037Z" fill="white"/>
<path d="M445.619 420.502C448.12 421.846 452.866 424.004 454.781 422.089C456.696 420.173 453.766 412.084 452.337 408.796C454.526 406.027 457.33 403.805 460.527 402.307C479.922 393.731 473.391 421.56 473.391 421.56C473.391 421.56 497.746 427.449 482.024 442.471C480.891 443.548 479.677 444.537 478.393 445.429C477.164 442.571 474.777 437.782 472.39 438.44C470.003 439.097 470.961 445.272 471.69 449.117C467.572 450.801 463.244 451.916 458.826 452.433C458.254 449.717 457.168 446.115 455.424 446.215C453.68 446.315 451.136 450.232 449.707 452.919C446.032 452.893 442.365 452.563 438.744 451.933C438.744 451.933 439.73 434.91 445.619 420.502Z" fill="#C35899"/>
<path d="M511.338 415.642C511.338 415.642 524.459 393.96 534.093 413.498C535.596 416.596 536.608 419.909 537.094 423.318C533.078 421.545 524.488 418.301 524.374 422.717C524.231 427.52 533.464 436.524 536.551 439.397C535.295 445.75 533.164 451.897 530.219 457.664C526.251 456.091 522.372 454.302 518.599 452.304C518.242 448.802 517.17 441.827 514.64 440.326C512.11 438.826 510.066 444.371 509.394 446.915C505.27 444.269 501.437 441.193 497.96 437.739C500.475 434.881 503.92 430.35 502.891 428.006C501.776 425.433 494.715 426.576 490.785 427.377C490.069 425.678 489.588 423.889 489.355 422.06C486.911 400.978 511.338 415.642 511.338 415.642Z" fill="#C35899"/>
<g opacity="0.3">
<path d="M500.719 391.03C512.754 385.913 528.019 388.615 539.911 392.288C541.226 392.688 541.783 390.63 540.468 390.23C527.905 386.342 512.282 383.812 499.647 389.172C498.389 389.715 499.476 391.559 500.719 391.03Z" fill="white"/>
</g>
<g opacity="0.3">
<path d="M435.041 388.4C447.262 386.313 461.841 386.07 472.918 392.174C474.133 392.845 475.205 391.002 474.004 390.33C462.341 383.912 447.29 384.155 434.469 386.342C433.04 386.571 433.697 388.629 435.041 388.4Z" fill="white"/>
</g>
<g opacity="0.2">
<path d="M471.774 422.003C457.352 423.561 446.432 436.925 440.715 449.074C440.129 450.317 441.973 451.404 442.559 450.16C447.905 438.812 458.167 425.619 471.774 424.133C473.132 423.99 473.203 421.846 471.774 422.003Z" fill="white"/>
</g>
<g opacity="0.2">
<path d="M512.368 418.459C522.373 425.734 525.789 442.071 527.761 453.205C528.004 454.563 530.063 453.991 529.82 452.648C527.747 440.87 523.917 424.276 513.454 416.615C512.339 415.8 511.267 417.658 512.368 418.459Z" fill="white"/>
</g>
<path d="M590.822 52.6411H459.054C452.313 52.6411 446.848 58.1061 446.848 64.8474V178.706C446.848 185.447 452.313 190.912 459.054 190.912H590.822C597.563 190.912 603.028 185.447 603.028 178.706V64.8474C603.028 58.1061 597.563 52.6411 590.822 52.6411Z" fill="#16B99B"/>
<path opacity="0.7" d="M590.822 52.6411H459.054C452.313 52.6411 446.848 58.1061 446.848 64.8474V178.706C446.848 185.447 452.313 190.912 459.054 190.912H590.822C597.563 190.912 603.028 185.447 603.028 178.706V64.8474C603.028 58.1061 597.563 52.6411 590.822 52.6411Z" fill="white"/>
<path d="M534.522 85.5151C534.522 85.5151 531.221 114.344 542.055 116.588C555.49 119.447 552.246 93.7908 552.246 93.7908L542.055 79.0117L534.522 85.5151Z" fill="#263238"/>
<path opacity="0.6" d="M534.522 85.5151C534.522 85.5151 531.221 114.344 542.055 116.588C555.49 119.447 552.246 93.7908 552.246 93.7908L542.055 79.0117L534.522 85.5151Z" fill="black"/>
<path d="M568.012 92.6045C568.012 92.6045 584.335 104.21 577.359 113.415C570.384 122.62 558.778 109.613 558.564 102.395C558.35 95.1772 568.012 92.6045 568.012 92.6045Z" fill="#263238"/>
<path d="M518.712 162.669L508.865 163.612C508.865 163.612 497.43 158.953 493.771 160.053C491.241 160.811 487.582 166.543 488.311 169.087C488.583 170.03 490.841 170.788 491.813 170.873C493.099 170.988 495.458 168.015 496.744 167.929C498.459 167.786 501.804 170.673 503.533 170.702C505.591 170.523 507.634 170.207 509.651 169.758L521.257 170.03L518.712 162.669Z" fill="#FFC3BD"/>
<path d="M514.725 162.283L517.069 170.702C517.069 170.702 534.049 173.017 540.709 170.087C547.37 167.157 542.353 117.903 535.936 118.446C529.518 118.989 533.077 146.246 533.077 154.808C533.048 161.34 514.725 162.283 514.725 162.283Z" fill="#263238"/>
<path opacity="0.5" d="M514.725 162.283L517.069 170.702C517.069 170.702 534.049 173.017 540.709 170.087C547.37 167.157 542.353 117.903 535.936 118.446C529.518 118.989 533.077 146.246 533.077 154.808C533.048 161.34 514.725 162.283 514.725 162.283Z" fill="white"/>
<path d="M534.663 118.504C528.231 127.708 543.01 142.144 543.324 190.927H591.035C592.464 177.748 597.366 126.122 590.491 116.374C582.587 105.182 540.794 109.742 534.663 118.504Z" fill="#263238"/>
<path opacity="0.2" d="M534.663 118.504C528.231 127.708 543.01 142.144 543.324 190.927H591.035C592.464 177.748 597.366 126.122 590.491 116.374C582.587 105.182 540.794 109.742 534.663 118.504Z" fill="white"/>
<path d="M548.756 105.568L558.332 95.1631C559.247 103.139 563.492 109.685 564.335 109.942L563.292 113.601C551.686 126.651 548.999 114.116 548.999 114.116C551.843 111.757 548.756 105.568 548.756 105.568Z" fill="#FFC3BD"/>
<path d="M562.75 90.432C562.691 92.5705 561.834 94.6097 560.349 96.1492C558.362 98.1788 556.061 96.6495 555.575 93.991C555.117 91.5754 555.575 87.6306 558.105 86.63C560.634 85.6295 562.764 87.7592 562.75 90.432Z" fill="#FFC3BD"/>
<path d="M551.902 164.37L542.054 165.313C542.054 165.313 530.905 159.725 526.975 160.254C524.43 160.597 519.542 166.671 519.985 169.201C520.157 170.173 522.544 170.759 523.501 170.988C525.059 171.374 529.933 168.129 529.933 168.129C529.933 168.129 534.893 172.188 536.722 172.417C538.789 172.313 540.84 171.992 542.84 171.459L554.446 171.745L551.902 164.37Z" fill="#FFC3BD"/>
<path d="M588.078 115.574C584.905 113.416 581.518 115.502 578.073 135.241C574.014 158.653 571.298 159.711 547.9 163.927L550.445 172.346C550.445 172.346 570.455 174.804 580.088 168.515C589.722 162.227 596.611 121.406 588.078 115.574Z" fill="#263238"/>
<path opacity="0.5" d="M588.078 115.574C584.905 113.416 581.518 115.502 578.073 135.241C574.014 158.653 571.298 159.711 547.9 163.927L550.445 172.346C550.445 172.346 570.455 174.804 580.088 168.515C589.722 162.227 596.611 121.406 588.078 115.574Z" fill="white"/>
<path d="M553.859 120.905C561.635 120.748 568.638 111.457 564.793 109.813C559.655 109.994 554.542 110.626 549.514 111.7C547.256 113.415 545.812 121.076 553.859 120.905Z" fill="#FFC3BD"/>
<path opacity="0.2" d="M554.487 99.3363L558.961 98.8789C558.961 98.8789 558.761 112.257 549.613 113.415C551.314 110.714 548.756 105.568 548.756 105.568L554.487 99.3363Z" fill="#263238"/>
<path d="M557.034 83.7284C559.092 93.1761 560.793 98.5932 557.52 104.839C556.48 106.886 554.9 108.608 552.951 109.82C551.002 111.031 548.758 111.686 546.463 111.713C544.168 111.739 541.91 111.136 539.933 109.97C537.957 108.804 536.337 107.118 535.251 105.097C530.892 97.4069 528.233 83.2424 536.166 76.6533C537.849 75.1796 539.891 74.1757 542.086 73.7431C544.281 73.3104 546.551 73.4643 548.667 74.1891C550.784 74.9139 552.672 76.1841 554.141 77.8714C555.61 79.5588 556.608 81.6037 557.034 83.7999V83.7284Z" fill="#FFC3BD"/>
<path d="M543.855 90.8175C544.084 91.5607 543.855 92.2468 543.341 92.4183C542.826 92.5898 542.298 92.0896 542.069 91.3463C541.84 90.6031 542.069 89.917 542.598 89.7312C543.127 89.5454 543.641 90.0457 543.855 90.8175Z" fill="#263238"/>
<path d="M535.422 93.5478C535.636 94.2911 535.422 94.9771 534.907 95.1486C534.393 95.3202 533.85 94.8199 533.635 94.0624C533.421 93.3048 533.635 92.6331 534.15 92.4473C534.664 92.2614 535.207 92.776 535.422 93.5478Z" fill="#263238"/>
<path d="M545.684 87.1878C545.759 87.1749 545.829 87.1401 545.884 87.0877C545.921 87.0411 545.947 86.9876 545.963 86.9305C545.978 86.8734 545.982 86.8138 545.974 86.7552C545.966 86.6966 545.946 86.6402 545.916 86.5893C545.886 86.5384 545.846 86.494 545.798 86.4588C545.225 86.0032 544.547 85.6968 543.827 85.5671C543.106 85.4374 542.364 85.4884 541.668 85.7156C541.557 85.7602 541.468 85.8466 541.419 85.9561C541.371 86.0657 541.368 86.1897 541.41 86.3016C541.455 86.4126 541.541 86.5017 541.651 86.5498C541.76 86.5979 541.884 86.6012 541.996 86.5589C542.538 86.3873 543.113 86.3484 543.672 86.4454C544.232 86.5424 544.76 86.7725 545.212 87.1163C545.276 87.172 545.354 87.2083 545.438 87.2209C545.521 87.2336 545.607 87.2221 545.684 87.1878Z" fill="#263238"/>
<path d="M530.962 91.7754C531.029 91.7417 531.086 91.6933 531.131 91.6338C531.175 91.5744 531.206 91.5055 531.22 91.4324C531.295 90.8399 531.507 90.2731 531.84 89.7769C532.172 89.2807 532.616 88.8688 533.135 88.5738C533.185 88.5395 533.228 88.4955 533.261 88.4444C533.294 88.3933 533.316 88.3361 533.327 88.2762C533.338 88.2163 533.336 88.1549 533.323 88.0956C533.31 88.0362 533.285 87.9801 533.249 87.9306C533.195 87.8483 533.115 87.7858 533.023 87.7523C532.93 87.7188 532.829 87.7162 532.735 87.7448C532.09 88.0979 531.536 88.5973 531.119 89.203C530.702 89.8087 530.433 90.5037 530.333 91.2323C530.312 91.3496 530.338 91.4706 530.405 91.5694C530.471 91.6681 530.574 91.7369 530.691 91.7611C530.778 91.7895 530.872 91.7944 530.962 91.7754Z" fill="#263238"/>
<path d="M544.441 102.481C544.065 102.704 543.673 102.9 543.269 103.067C543.238 103.081 543.205 103.089 543.17 103.09C543.136 103.092 543.102 103.086 543.071 103.074C543.039 103.062 543.009 103.044 542.985 103.021C542.96 102.997 542.94 102.969 542.926 102.938C542.912 102.905 542.906 102.87 542.906 102.835C542.907 102.799 542.915 102.765 542.93 102.732C542.944 102.7 542.966 102.671 542.992 102.648C543.018 102.624 543.049 102.606 543.083 102.595C544.118 102.206 545.047 101.576 545.792 100.759C546.537 99.9418 547.078 98.9595 547.371 97.8927C547.378 97.8585 547.391 97.8261 547.411 97.7973C547.431 97.7685 547.456 97.744 547.485 97.7253C547.515 97.7066 547.548 97.694 547.582 97.6884C547.616 97.6828 547.652 97.6842 547.685 97.6926C547.719 97.6976 547.751 97.7096 547.78 97.7277C547.809 97.7459 547.833 97.77 547.852 97.7982C547.871 97.8265 547.884 97.8585 547.89 97.892C547.895 97.9255 547.894 97.9598 547.886 97.9928C547.642 98.9336 547.211 99.8158 546.619 100.587C546.028 101.358 545.287 102.002 544.441 102.481Z" fill="#263238"/>
<path d="M538.352 93.0474C538.118 95.6511 537.541 98.2126 536.637 100.666C537.261 100.867 537.921 100.932 538.572 100.856C539.223 100.779 539.85 100.563 540.41 100.222L538.352 93.0474Z" fill="#ED893E"/>
<path d="M534.292 92.4331H532.148C532.148 92.4331 533.635 93.7195 534.292 92.4331Z" fill="#263238"/>
<path d="M542.625 89.7891H540.467C540.467 89.7891 541.939 91.0183 542.625 89.7891Z" fill="#263238"/>
<path d="M547.77 76.8679C547.77 76.8679 544.34 88.7169 528.075 87.259C528.075 87.259 522.901 68.678 543.14 68.4779C543.14 68.4779 559.105 61.5029 563.579 78.9404C563.579 78.9404 577.686 95.163 564.365 100.937C554.46 105.225 547.77 76.8679 547.77 76.8679Z" fill="#263238"/>
<path d="M543.755 171.96H467.644C467.357 171.936 467.067 171.972 466.794 172.066C466.521 172.159 466.271 172.309 466.058 172.504C465.846 172.7 465.676 172.937 465.561 173.201C465.445 173.465 465.385 173.751 465.385 174.039C465.385 174.328 465.445 174.613 465.561 174.878C465.676 175.142 465.846 175.379 466.058 175.575C466.271 175.77 466.521 175.92 466.794 176.013C467.067 176.107 467.357 176.143 467.644 176.119H543.755C544.276 176.076 544.763 175.838 545.118 175.453C545.472 175.067 545.669 174.563 545.669 174.039C545.669 173.516 545.472 173.011 545.118 172.626C544.763 172.241 544.276 172.003 543.755 171.96Z" fill="#263238"/>
<path d="M468.773 174.847H494.786C494.942 174.846 495.096 174.808 495.234 174.736C495.373 174.665 495.493 174.561 495.583 174.434C495.674 174.307 495.733 174.16 495.756 174.006C495.779 173.852 495.765 173.694 495.715 173.546L481.422 132.783C481.223 132.24 480.863 131.77 480.391 131.436C479.919 131.101 479.357 130.918 478.778 130.91H452.765C452.607 130.91 452.452 130.948 452.312 131.021C452.172 131.093 452.051 131.199 451.96 131.327C451.869 131.456 451.81 131.605 451.789 131.761C451.767 131.917 451.783 132.076 451.836 132.225L466.129 172.975C466.318 173.525 466.674 174.001 467.149 174.337C467.623 174.673 468.192 174.852 468.773 174.847Z" fill="#263238"/>
<path d="M467.515 174.847H493.529C493.685 174.846 493.838 174.808 493.977 174.736C494.115 174.665 494.235 174.561 494.325 174.434C494.416 174.307 494.475 174.16 494.498 174.006C494.521 173.852 494.507 173.694 494.458 173.546L480.165 132.783C479.965 132.24 479.605 131.77 479.133 131.436C478.661 131.101 478.099 130.918 477.52 130.91H451.507C451.349 130.91 451.194 130.948 451.054 131.021C450.914 131.093 450.793 131.199 450.702 131.327C450.611 131.456 450.552 131.605 450.531 131.761C450.509 131.917 450.525 132.076 450.578 132.225L464.871 172.946C465.066 173.494 465.423 173.97 465.896 174.31C466.368 174.65 466.933 174.837 467.515 174.847Z" fill="#16B99B"/>
<path opacity="0.5" d="M471.889 155.665H475.19C475.21 155.664 475.23 155.659 475.247 155.649C475.265 155.639 475.279 155.625 475.291 155.608C475.302 155.592 475.309 155.573 475.311 155.553C475.314 155.533 475.311 155.513 475.305 155.494L473.447 150.334C473.42 150.265 473.373 150.206 473.311 150.165C473.25 150.124 473.177 150.103 473.104 150.105H469.816C469.797 150.104 469.777 150.107 469.76 150.116C469.742 150.124 469.727 150.136 469.715 150.152C469.704 150.168 469.697 150.186 469.694 150.206C469.692 150.225 469.694 150.244 469.702 150.263L471.503 155.422C471.531 155.5 471.584 155.566 471.654 155.61C471.724 155.654 471.806 155.673 471.889 155.665Z" fill="white"/>
<path d="M498.13 176.119C497.843 176.143 497.553 176.107 497.28 176.013C497.008 175.92 496.757 175.77 496.545 175.575C496.332 175.379 496.163 175.142 496.047 174.878C495.931 174.613 495.871 174.328 495.871 174.039C495.871 173.751 495.931 173.465 496.047 173.201C496.163 172.937 496.332 172.7 496.545 172.504C496.757 172.309 497.008 172.159 497.28 172.066C497.553 171.972 497.843 171.936 498.13 171.96H543.754C544.276 172.003 544.762 172.241 545.117 172.626C545.471 173.011 545.668 173.516 545.668 174.039C545.668 174.563 545.471 175.067 545.117 175.453C544.762 175.838 544.276 176.076 543.754 176.119H498.13Z" fill="#16B99B"/>
<path d="M555.361 176.19H446.848V178.663C446.847 179.99 447.064 181.308 447.491 182.565H555.361C556.175 182.51 556.938 182.149 557.495 181.553C558.052 180.957 558.362 180.172 558.362 179.356C558.362 178.54 558.052 177.755 557.495 177.159C556.938 176.563 556.175 176.201 555.361 176.147V176.19Z" fill="#16B99B"/>
<path d="M459.053 190.926H552.373V182.608H447.49C448.302 185.032 449.856 187.139 451.931 188.631C454.006 190.124 456.497 190.927 459.053 190.926Z" fill="#16B99B"/>
<path opacity="0.6" d="M555.361 176.19H446.848V178.663C446.847 179.99 447.064 181.308 447.491 182.565H555.361C556.175 182.51 556.938 182.149 557.495 181.553C558.052 180.957 558.362 180.172 558.362 179.356C558.362 178.54 558.052 177.755 557.495 177.159C556.938 176.563 556.175 176.201 555.361 176.147V176.19Z" fill="white"/>
<path opacity="0.4" d="M459.053 190.926H552.373V182.608H447.49C448.302 185.032 449.856 187.139 451.931 188.631C454.006 190.124 456.497 190.927 459.053 190.926Z" fill="white"/>
<path d="M159.37 405.666H142.562C138.297 405.645 134.195 404.029 131.063 401.135C127.931 398.241 125.996 394.279 125.639 390.029L122.58 351.252L128.983 350.752L132.042 389.529C132.267 392.176 133.474 394.643 135.426 396.444C137.379 398.245 139.934 399.251 142.59 399.263H159.399L159.37 405.666Z" fill="#263238"/>
<path d="M150.882 355.397C152.82 355.195 154.599 354.233 155.828 352.722C157.058 351.211 157.639 349.274 157.443 347.336L152.354 297.696C152.256 296.737 151.97 295.808 151.512 294.96C151.055 294.112 150.435 293.363 149.687 292.755C148.94 292.147 148.08 291.693 147.157 291.417C146.234 291.142 145.266 291.051 144.307 291.15H95.7109C95.0703 291.214 94.4487 291.404 93.8818 291.709C93.3149 292.014 92.8138 292.429 92.4074 292.928C92.001 293.427 91.6973 294.002 91.5136 294.619C91.33 295.236 91.27 295.883 91.3373 296.524L96.9116 351.009C96.9759 351.65 97.166 352.272 97.471 352.84C97.7759 353.408 98.1899 353.91 98.689 354.317C99.1881 354.725 99.7627 355.03 100.38 355.215C100.997 355.4 101.645 355.462 102.286 355.397H150.882Z" fill="#16B99B"/>
<path opacity="0.3" d="M150.882 355.397C152.82 355.195 154.599 354.233 155.828 352.722C157.058 351.211 157.639 349.274 157.443 347.336L152.354 297.696C152.256 296.737 151.97 295.808 151.512 294.96C151.055 294.112 150.435 293.363 149.687 292.755C148.94 292.147 148.08 291.693 147.157 291.417C146.234 291.142 145.266 291.051 144.307 291.15H95.7109C95.0703 291.214 94.4487 291.404 93.8818 291.709C93.3149 292.014 92.8138 292.429 92.4074 292.928C92.001 293.427 91.6973 294.002 91.5136 294.619C91.33 295.236 91.27 295.883 91.3373 296.524L96.9116 351.009C96.9759 351.65 97.166 352.272 97.471 352.84C97.7759 353.408 98.1899 353.91 98.689 354.317C99.1881 354.725 99.7627 355.03 100.38 355.215C100.997 355.4 101.645 355.462 102.286 355.397H150.882Z" fill="black"/>
<path d="M96.8959 351.009L91.3216 296.524C91.2544 295.883 91.3144 295.236 91.498 294.619C91.6817 294.002 91.9854 293.427 92.3918 292.928C92.7982 292.429 93.2992 292.014 93.8662 291.709C94.4331 291.404 95.0547 291.214 95.6953 291.15C96.6536 291.051 97.6219 291.142 98.5451 291.417C99.4682 291.693 100.328 292.147 101.075 292.755C101.823 293.363 102.443 294.112 102.9 294.96C103.358 295.808 103.644 296.737 103.742 297.696L108.831 347.321C109.027 349.26 108.446 351.197 107.216 352.708C105.986 354.219 104.208 355.181 102.27 355.383C100.978 355.515 99.6857 355.128 98.678 354.308C97.6703 353.488 97.0294 352.301 96.8959 351.009Z" fill="#16B99B"/>
<path d="M151.854 499.643L152.282 498.328C152.549 497.498 153.071 496.775 153.775 496.261C154.479 495.747 155.327 495.47 156.199 495.469H201.651C202.59 495.47 203.5 495.79 204.233 496.377C204.966 496.964 205.477 497.783 205.681 498.7L205.796 499.229C205.991 500.117 206.485 500.912 207.195 501.482C207.905 502.051 208.788 502.36 209.698 502.359C210.296 502.36 210.888 502.227 211.428 501.969C211.968 501.711 212.443 501.335 212.818 500.868C213.193 500.401 213.458 499.856 213.593 499.273C213.728 498.689 213.731 498.083 213.6 497.499L213.485 496.985C212.892 494.287 211.396 491.873 209.244 490.141C207.092 488.41 204.413 487.466 201.651 487.465H156.199C153.662 487.481 151.194 488.292 149.143 489.784C147.091 491.277 145.56 493.375 144.764 495.784L144.321 497.113C144.125 497.714 144.073 498.353 144.171 498.977C144.269 499.601 144.514 500.194 144.885 500.705C145.256 501.217 145.742 501.634 146.305 501.921C146.868 502.208 147.491 502.358 148.123 502.359C148.949 502.346 149.751 502.079 150.419 501.593C151.087 501.106 151.588 500.425 151.854 499.643Z" fill="#263238"/>
<path opacity="0.7" d="M185.627 487.494H171.562V495.484H185.627V487.494Z" fill="black"/>
<path d="M178.596 501.487C177.534 501.487 176.516 501.065 175.766 500.315C175.015 499.564 174.594 498.546 174.594 497.485V391.23H182.584V497.485C182.584 498.544 182.164 499.559 181.416 500.31C180.669 501.06 179.655 501.483 178.596 501.487Z" fill="#263238"/>
<path d="M184.184 508.734C184.187 509.843 183.861 510.928 183.246 511.852C182.631 512.775 181.756 513.496 180.732 513.922C179.708 514.347 178.58 514.46 177.492 514.244C176.404 514.028 175.404 513.494 174.62 512.71C173.835 511.925 173.301 510.926 173.085 509.838C172.87 508.749 172.982 507.622 173.408 506.597C173.834 505.573 174.554 504.698 175.478 504.083C176.401 503.469 177.486 503.142 178.596 503.145C180.077 503.149 181.496 503.739 182.543 504.786C183.59 505.833 184.18 507.253 184.184 508.734Z" fill="#16B99B"/>
<path d="M149.68 508.734C149.683 509.842 149.357 510.927 148.743 511.85C148.129 512.774 147.255 513.494 146.232 513.92C145.208 514.346 144.081 514.459 142.993 514.245C141.905 514.03 140.906 513.498 140.121 512.715C139.336 511.932 138.801 510.933 138.583 509.846C138.366 508.759 138.476 507.632 138.9 506.607C139.323 505.582 140.041 504.707 140.963 504.09C141.885 503.474 142.969 503.145 144.077 503.145C145.56 503.149 146.981 503.738 148.03 504.785C149.08 505.832 149.673 507.251 149.68 508.734Z" fill="#16B99B"/>
<path d="M219.317 508.734C219.32 509.843 218.993 510.928 218.379 511.852C217.764 512.775 216.889 513.496 215.865 513.922C214.841 514.347 213.713 514.46 212.625 514.244C211.536 514.028 210.537 513.494 209.752 512.71C208.968 511.925 208.434 510.926 208.218 509.838C208.003 508.749 208.115 507.622 208.541 506.597C208.966 505.573 209.687 504.698 210.61 504.083C211.534 503.469 212.619 503.142 213.728 503.145C215.21 503.149 216.629 503.739 217.676 504.786C218.723 505.833 219.313 507.253 219.317 508.734Z" fill="#16B99B"/>
<path opacity="0.7" d="M182.584 397.419H174.594V416.329H182.584V397.419Z" fill="black"/>
<path d="M204.535 406.524H151.851C149.704 406.519 147.622 405.783 145.949 404.438C144.276 403.092 143.111 401.216 142.646 399.12L141.074 391.973H216.17L213.512 400.034C212.891 401.924 211.688 403.57 210.076 404.735C208.464 405.9 206.525 406.526 204.535 406.524Z" fill="#263238"/>
<path opacity="0.5" d="M204.535 406.524H151.851C149.704 406.519 147.622 405.783 145.949 404.438C144.276 403.092 143.111 401.216 142.646 399.12L141.074 391.973H216.17L213.512 400.034C212.891 401.924 211.688 403.57 210.076 404.735C208.464 405.9 206.525 406.526 204.535 406.524Z" fill="white"/>
<path d="M139.419 384.755H217.76C218.621 384.755 219.474 384.925 220.27 385.255C221.066 385.584 221.789 386.068 222.399 386.677C223.008 387.286 223.491 388.009 223.821 388.805C224.15 389.601 224.32 390.454 224.32 391.316V393.188C224.32 394.348 223.859 395.461 223.039 396.281C222.219 397.101 221.106 397.562 219.946 397.562H137.247C136.672 397.562 136.104 397.449 135.573 397.229C135.042 397.009 134.56 396.687 134.154 396.281C133.748 395.875 133.426 395.393 133.206 394.862C132.986 394.331 132.873 393.763 132.873 393.188V391.316C132.873 389.578 133.562 387.912 134.79 386.682C136.017 385.452 137.682 384.759 139.419 384.755Z" fill="#16B99B"/>
<path d="M233.866 353.182C233.866 353.182 266.74 351.538 269.113 362.515C271.485 373.492 266.483 502.587 266.483 502.587L256.12 503.231C256.12 503.231 238.183 399.806 247.001 382.083L220.859 382.44L233.866 353.182Z" fill="#FF8B7B"/>
<g style="mix-blend-mode:multiply" opacity="0.1">
<path d="M268.455 444.514C262.037 444.443 254.834 444.6 247.744 444.9C248.473 451.246 249.273 457.549 250.088 463.481C256.141 462.334 262.122 460.831 267.997 458.979C268.155 454.362 268.298 449.488 268.455 444.514Z" fill="black"/>
</g>
<path d="M269.056 502.187C269.002 502.18 268.952 502.158 268.911 502.122C268.87 502.086 268.841 502.039 268.827 501.987C268.813 501.933 268.816 501.877 268.837 501.825C268.857 501.774 268.894 501.73 268.941 501.701C269.099 501.587 272.872 499.057 274.787 499.443C275.143 499.51 275.459 499.709 275.673 500C275.807 500.16 275.888 500.356 275.906 500.563C275.923 500.77 275.877 500.978 275.773 501.158C274.867 501.916 273.71 502.309 272.529 502.259C271.371 502.342 270.209 502.318 269.056 502.187ZM269.899 501.773C272.014 501.873 274.844 501.658 275.316 500.886C275.316 500.786 275.445 500.629 275.216 500.3C275.159 500.206 275.079 500.127 274.985 500.069C274.89 500.012 274.783 499.979 274.673 499.972C274.502 499.95 274.329 499.95 274.158 499.972C272.612 500.285 271.14 500.897 269.828 501.773H269.899Z" fill="#16B99B"/>
<path d="M268.842 502.187C268.802 502.164 268.769 502.131 268.746 502.09C268.723 502.05 268.712 502.004 268.713 501.958C268.713 501.815 268.799 498.757 270.142 497.47C270.331 497.287 270.555 497.143 270.801 497.047C271.046 496.951 271.308 496.906 271.572 496.913C272.301 496.913 272.558 497.284 272.615 497.585C272.944 498.842 270.414 501.472 269.113 502.158C269.076 502.173 269.036 502.173 268.999 502.158L268.842 502.187ZM271.457 497.427C271.117 497.442 270.795 497.585 270.557 497.828C269.787 498.858 269.353 500.101 269.313 501.387C270.643 500.458 272.286 498.428 272.172 497.67C272.172 497.599 272.172 497.413 271.614 497.399H271.472L271.457 497.427Z" fill="#16B99B"/>
<path d="M267.729 500.701L255.451 501.587C255.225 501.601 255.01 501.693 254.844 501.846C254.677 502 254.569 502.206 254.536 502.43L253.035 512.578C253.001 512.797 253.011 513.02 253.065 513.234C253.119 513.448 253.216 513.649 253.349 513.825C253.483 514.002 253.65 514.149 253.842 514.259C254.033 514.369 254.245 514.439 254.465 514.465C254.583 514.48 254.703 514.48 254.822 514.465C259.239 514.065 263.169 513.536 268.672 513.15C275.175 512.678 273.589 513.579 281.25 513.15C285.852 512.878 286.324 507.576 284.352 507.433C275.318 506.961 274.204 504.317 270.516 501.373C269.705 500.806 268.709 500.566 267.729 500.701Z" fill="#263238"/>
<path d="M213.842 354.239C213.842 354.239 246.801 355.812 248.602 366.903C250.403 377.994 237.597 503.373 237.597 503.373L227.206 503.516C227.206 503.516 214.27 399.348 223.932 382.025L197.805 381.125L213.842 354.239Z" fill="#FF8B7B"/>
<g style="mix-blend-mode:multiply" opacity="0.1">
<path d="M241.456 464.11C242.042 457.993 242.657 451.504 243.271 444.886C235.41 444.886 227.763 444.886 221.66 445.043C222.118 452.018 222.675 458.922 223.247 465.425C226.977 465.354 233.552 465.068 241.456 464.11Z" fill="black"/>
</g>
<path d="M239.884 503.216C239.831 503.206 239.782 503.18 239.744 503.142C239.706 503.104 239.68 503.055 239.67 503.002C239.659 502.95 239.664 502.897 239.684 502.848C239.705 502.8 239.74 502.758 239.784 502.73C239.956 502.616 243.829 500.258 245.716 500.715C246.072 500.796 246.385 501.011 246.588 501.315C246.706 501.485 246.769 501.687 246.769 501.894C246.769 502.101 246.706 502.303 246.588 502.473C245.64 503.184 244.466 503.524 243.286 503.431C242.148 503.456 241.01 503.384 239.884 503.216ZM240.742 502.83C242.857 503.03 245.687 502.93 246.202 502.173C246.273 502.087 246.33 501.916 246.202 501.587C246.141 501.493 246.062 501.412 245.968 501.351C245.875 501.289 245.769 501.248 245.659 501.23C245.488 501.208 245.315 501.208 245.144 501.23C243.589 501.48 242.095 502.023 240.742 502.83Z" fill="#16B99B"/>
<path d="M239.742 503.217C239.704 503.19 239.673 503.153 239.653 503.11C239.633 503.068 239.624 503.021 239.628 502.974C239.628 502.831 239.842 499.772 241.243 498.557C241.436 498.384 241.662 498.25 241.908 498.164C242.153 498.079 242.413 498.042 242.672 498.057C243.401 498.057 243.644 498.471 243.687 498.772C243.959 500.029 241.329 502.559 239.999 503.202C239.963 503.217 239.922 503.217 239.885 503.202L239.742 503.217ZM242.601 498.557C242.266 498.572 241.948 498.703 241.7 498.929C240.877 499.922 240.378 501.145 240.271 502.431C241.7 501.559 243.358 499.572 243.273 498.829C243.273 498.757 243.272 498.571 242.729 498.543L242.601 498.557Z" fill="#16B99B"/>
<path d="M238.683 501.687L226.376 502.073C226.151 502.079 225.935 502.161 225.764 502.307C225.592 502.453 225.475 502.652 225.433 502.873L223.518 512.95C223.474 513.163 223.473 513.383 223.515 513.596C223.557 513.81 223.641 514.013 223.762 514.194C223.883 514.375 224.039 514.53 224.22 514.65C224.401 514.77 224.605 514.853 224.818 514.894C224.932 514.908 225.048 514.908 225.161 514.894C229.592 514.679 233.537 514.322 239.054 514.151C245.586 513.965 243.957 514.794 251.618 514.665C256.235 514.579 256.921 509.305 254.963 509.105C245.958 508.262 244.957 505.575 241.384 502.473C240.61 501.89 239.649 501.611 238.683 501.687Z" fill="#263238"/>
<path d="M142.362 330.914C141.641 334.974 140.58 338.966 139.189 342.848C134.987 354.897 134.044 374.293 142.534 381.254C155.912 392.174 207.467 379.696 214.942 387.729C221.174 394.432 217.801 457.95 217.801 457.95C236.34 457.169 254.826 455.438 273.187 452.762C273.187 452.762 270.328 436.182 271.586 404.38C272.844 372.578 275.96 355.526 256.635 353.339C237.311 351.153 202.865 344.563 198.591 337.989C195.733 333.572 197.062 331.042 197.062 331.042L142.362 330.914Z" fill="#263238"/>
<path opacity="0.5" d="M256.821 454.963C255.62 449.246 254.148 435.11 256.235 401.535C257.578 379.924 262.124 357.084 243.371 357.084C246.348 357.687 249.015 359.323 250.901 361.703C252.788 364.084 253.771 367.055 253.676 370.091C253.676 379.753 248.588 439.469 247.159 455.949C250.303 455.663 253.533 455.335 256.821 454.963Z" fill="black"/>
<path opacity="0.5" d="M198.319 337.446C195.889 333.372 197.118 331.042 197.118 331.042L142.361 330.914C141.827 333.946 141.091 336.94 140.16 339.875C147.221 340.49 161.843 341.49 170.919 340.99C183.625 340.304 200.177 344.563 200.177 344.563C200.177 344.563 194.317 340.247 198.319 337.446Z" fill="black"/>
<path d="M217.158 222.458C217.158 222.458 213.628 231.219 216.186 244.726C218.245 255.532 199.621 251.058 193.503 244.726C187.386 238.395 212.556 221.543 212.556 221.543L217.158 222.458Z" fill="#263238"/>
<path opacity="0.4" d="M217.158 222.458C217.158 222.458 213.628 231.219 216.186 244.726C218.245 255.532 199.621 251.058 193.503 244.726C187.386 238.395 212.556 221.543 212.556 221.543L217.158 222.458Z" fill="black"/>
<path d="M218.701 313.733L226.377 315.805C226.377 315.805 236.625 310.088 240.198 310.86C242.156 311.303 245.101 314.547 247.245 317.177C247.531 317.549 247.721 317.986 247.799 318.449C247.876 318.913 247.839 319.388 247.689 319.833C247.539 320.278 247.282 320.679 246.94 321.001C246.598 321.323 246.183 321.556 245.729 321.68C245.262 321.81 244.768 321.81 244.3 321.68L239.04 320.165C239.04 320.165 233.166 322.78 230.85 322.923C226.791 323.18 215.643 320.064 215.643 320.064L218.701 313.733Z" fill="#FF8B7B"/>
<path d="M205.336 251.558C208.609 252.073 215.027 255.603 208.094 284.604C207.008 289.192 205.064 297.911 206.565 302.384C209.266 310.46 223.931 314.076 223.931 314.076L222.273 322.295C222.273 322.295 195.116 316.463 192.386 307.015C189.714 297.896 190.728 249.3 205.336 251.558Z" fill="#16B99B"/>
<path opacity="0.6" d="M205.336 251.558C208.609 252.073 215.027 255.603 208.094 284.604C207.008 289.192 205.064 297.911 206.565 302.384C209.266 310.46 223.931 314.076 223.931 314.076L222.273 322.295C222.273 322.295 195.116 316.463 192.386 307.015C189.714 297.896 190.728 249.3 205.336 251.558Z" fill="white"/>
<path d="M140.588 333.572C159.56 336.119 178.788 336.119 197.76 333.572C197.76 333.572 195.745 321.394 199.661 301.155C200.147 298.682 204.135 284.003 204.85 281.588C212.568 255.603 216.827 249.014 181.423 246.484C150.993 244.326 146.362 251.944 145.576 269.925C144.79 287.905 140.588 333.572 140.588 333.572Z" fill="#16B99B"/>
<path opacity="0.4" d="M140.588 333.572C159.56 336.119 178.788 336.119 197.76 333.572C197.76 333.572 195.745 321.394 199.661 301.155C200.147 298.682 204.135 284.003 204.85 281.588C212.568 255.603 216.827 249.014 181.423 246.484C150.993 244.326 146.362 251.944 145.576 269.925C144.79 287.905 140.588 333.572 140.588 333.572Z" fill="white"/>
<path d="M172.392 313.018L180.167 316.434C180.167 316.434 190.53 310.617 194.16 311.432C196.476 311.961 200.849 318.192 200.849 318.192C201.183 318.506 201.424 318.905 201.547 319.346C201.67 319.787 201.671 320.253 201.549 320.694C201.427 321.135 201.187 321.534 200.854 321.849C200.522 322.164 200.11 322.382 199.663 322.48C199.237 322.594 198.788 322.594 198.362 322.48L192.96 320.937C192.96 320.937 186.999 323.581 184.655 323.724C180.553 323.995 169.262 319.536 169.262 319.536L172.392 313.018Z" fill="#FF8B7B"/>
<path d="M176.68 245.312C172.392 246.427 169.891 249.443 171.534 260.92C171.917 260.389 172.421 259.956 173.003 259.658C173.586 259.359 174.231 259.204 174.886 259.204C175.541 259.204 176.186 259.359 176.769 259.658C177.352 259.956 177.855 260.389 178.238 260.92C181.697 264.937 187.886 271.526 187.886 271.526C190.94 268.767 193.805 265.807 196.462 262.664C199.749 258.533 201.693 263.336 201.693 263.336C201.693 263.336 204.451 250.472 197.648 247.613C191.416 245.012 181.868 243.969 176.68 245.312Z" fill="#16B99B"/>
<path opacity="0.6" d="M176.68 245.312C172.392 246.427 169.891 249.443 171.534 260.92C171.917 260.389 172.421 259.956 173.003 259.658C173.586 259.359 174.231 259.204 174.886 259.204C175.541 259.204 176.186 259.359 176.769 259.658C177.352 259.956 177.855 260.389 178.238 260.92C181.697 264.937 187.886 271.526 187.886 271.526C190.94 268.767 193.805 265.807 196.462 262.664C199.749 258.533 201.693 263.336 201.693 263.336C201.693 263.336 204.451 250.472 197.648 247.613C191.416 245.012 181.868 243.969 176.68 245.312Z" fill="white"/>
<path opacity="0.1" d="M145.563 269.925C145.12 279.93 143.648 298.382 142.404 312.804C201.006 336.402 164.044 309.645 164.044 309.645C164.044 309.645 152.309 301.641 157.812 282.488C163.315 263.336 161.643 251.358 161.643 251.358L159.77 247.299C148.465 250.129 146.135 257.561 145.563 269.925Z" fill="black"/>
<path d="M156.713 248.399C164.317 247.999 166.718 251.072 155.512 278.772C153.726 283.188 150.839 292.236 152.354 296.767C155.098 304.942 179.225 314.662 179.225 314.662L175.694 322.852C175.694 322.852 135.416 309.445 136.403 299.854C137.389 290.263 144.235 249.071 156.713 248.399Z" fill="#16B99B"/>
<path opacity="0.6" d="M156.713 248.399C164.317 247.999 166.718 251.072 155.512 278.772C153.726 283.188 150.839 292.236 152.354 296.767C155.098 304.942 179.225 314.662 179.225 314.662L175.694 322.852C175.694 322.852 135.416 309.445 136.403 299.854C137.389 290.263 144.235 249.071 156.713 248.399Z" fill="white"/>
<path d="M188.456 268.381C188.456 268.381 203.993 255.046 198.061 249.8C195.074 247.142 185.869 244.74 177.779 246.599C175.835 247.027 174.063 252.745 188.456 268.381Z" fill="#FF8B7B"/>
<path d="M197.949 254.759C197.932 253.316 197.76 251.878 197.434 250.472C196.005 249.743 193.532 247.041 196.205 242.81L187.586 227.646C185.957 234.535 184.542 245.626 178.181 247.842C178.181 247.842 176.18 253.059 185.328 264.322L197.949 254.759Z" fill="#FF8B7B"/>
<path opacity="0.2" d="M187.586 227.646C187.043 229.947 186.514 232.72 185.828 235.478C185.938 238.488 186.951 241.396 188.735 243.823C190.519 246.249 192.993 248.083 195.833 249.085C194.89 247.756 194.404 245.64 196.176 242.853L187.586 227.646Z" fill="black"/>
<path d="M185.798 214.596C183.926 226.288 182.939 231.176 187.385 238.394C194.159 249.257 208.924 248.986 214.256 238.109C219.044 228.304 221.316 210.78 211.025 203.734C208.77 202.158 206.15 201.184 203.413 200.905C200.676 200.625 197.913 201.05 195.386 202.138C192.859 203.226 190.652 204.942 188.974 207.122C187.296 209.302 186.203 211.875 185.798 214.596Z" fill="#FF8B7B"/>
<path d="M204.507 223.715C204.221 224.644 204.507 225.544 205.064 225.73C205.622 225.916 206.394 225.33 206.68 224.415C206.965 223.5 206.68 222.6 206.122 222.4C205.565 222.2 204.821 222.872 204.507 223.715Z" fill="#263238"/>
<path d="M214.857 227.017C214.557 227.96 214.857 228.846 215.414 229.032C215.972 229.218 216.744 228.632 217.029 227.717C217.315 226.802 217.029 225.902 216.472 225.716C215.915 225.53 215.143 226.116 214.857 227.017Z" fill="#263238"/>
<path d="M216.174 225.688H218.575C218.575 225.688 216.917 227.117 216.174 225.688Z" fill="#263238"/>
<path d="M211.126 227.674C211.286 230.025 211.767 232.343 212.555 234.564C211.98 234.747 211.371 234.803 210.772 234.729C210.172 234.655 209.596 234.453 209.082 234.135L211.126 227.674Z" fill="#FF5652"/>
<path d="M202.965 236.15C203.388 236.36 203.828 236.532 204.28 236.665C204.314 236.679 204.35 236.686 204.387 236.685C204.423 236.685 204.459 236.677 204.492 236.662C204.526 236.647 204.556 236.626 204.581 236.6C204.606 236.573 204.625 236.542 204.638 236.508C204.648 236.471 204.652 236.433 204.648 236.395C204.643 236.357 204.632 236.32 204.613 236.287C204.594 236.254 204.569 236.224 204.539 236.201C204.509 236.177 204.474 236.16 204.438 236.15C203.29 235.813 202.237 235.211 201.366 234.391C200.494 233.572 199.828 232.559 199.421 231.434C199.392 231.371 199.342 231.322 199.28 231.293C199.218 231.265 199.147 231.259 199.081 231.278C199.016 231.297 198.959 231.339 198.921 231.397C198.884 231.454 198.868 231.523 198.878 231.591C199.219 232.586 199.757 233.502 200.459 234.285C201.161 235.068 202.014 235.703 202.965 236.15Z" fill="#263238"/>
<path d="M200.993 220.313C201.098 220.369 201.219 220.39 201.338 220.372C201.456 220.354 201.566 220.298 201.65 220.213C202.374 219.645 203.207 219.233 204.097 219.002C204.987 218.771 205.916 218.726 206.824 218.87C206.976 218.895 207.131 218.859 207.256 218.771C207.382 218.683 207.468 218.549 207.496 218.398C207.517 218.252 207.481 218.104 207.396 217.985C207.311 217.865 207.183 217.783 207.039 217.755C205.947 217.572 204.83 217.627 203.762 217.915C202.693 218.204 201.7 218.719 200.85 219.427C200.746 219.531 200.688 219.673 200.688 219.82C200.688 219.967 200.746 220.109 200.85 220.213C200.883 220.263 200.934 220.299 200.993 220.313Z" fill="#263238"/>
<path d="M219.474 223.229C219.561 223.278 219.659 223.304 219.76 223.304C219.86 223.304 219.958 223.278 220.045 223.229C220.109 223.19 220.165 223.138 220.209 223.077C220.252 223.016 220.283 222.946 220.299 222.873C220.315 222.799 220.316 222.723 220.302 222.65C220.288 222.576 220.259 222.506 220.217 222.443C219.749 221.663 219.096 221.012 218.316 220.545C217.535 220.079 216.651 219.813 215.743 219.77C215.673 219.766 215.602 219.777 215.535 219.801C215.469 219.825 215.408 219.862 215.356 219.91C215.304 219.958 215.262 220.016 215.233 220.08C215.204 220.145 215.188 220.214 215.186 220.285C215.184 220.359 215.197 220.432 215.224 220.5C215.251 220.569 215.292 220.631 215.345 220.683C215.397 220.736 215.459 220.777 215.528 220.804C215.596 220.831 215.669 220.844 215.743 220.842C216.449 220.903 217.132 221.129 217.735 221.501C218.338 221.873 218.846 222.382 219.216 222.986C219.274 223.092 219.364 223.177 219.474 223.229Z" fill="#263238"/>
<path d="M205.795 222.457H208.196C208.196 222.457 206.552 223.829 205.795 222.457Z" fill="#263238"/>
<path d="M184.725 219.885C184.725 219.885 191.243 228.304 194.731 220.771C198.218 213.239 211.682 210.28 209.109 205.906C212.672 208.204 215.746 211.181 218.157 214.668C218.238 214.806 218.364 214.912 218.514 214.969C218.664 215.026 218.828 215.029 218.981 214.979C219.133 214.929 219.263 214.828 219.35 214.693C219.437 214.559 219.475 214.398 219.458 214.239C219.1 209.194 217.114 199.246 207.023 199.632C207.023 199.632 196.46 191.77 187.427 198.031C178.794 203.977 184.725 219.885 184.725 219.885Z" fill="#263238"/>
<path d="M204.094 199.374C204.094 199.374 188.571 188.983 178.58 208.293C168.59 227.603 154.054 231.748 162.858 243.211C171.663 254.674 187.871 252.101 187.957 245.927C188.043 239.752 183.983 234.392 186.613 226.002C189.243 217.612 204.094 199.374 204.094 199.374Z" fill="#263238"/>
<path d="M180.681 222.757C180.802 223.871 181.142 224.949 181.681 225.931C182.221 226.912 182.95 227.777 183.826 228.475C186.184 230.29 188.485 228.475 188.786 225.616C189.029 223.072 188.114 219.055 185.312 218.298C184.687 218.151 184.035 218.164 183.416 218.335C182.797 218.505 182.231 218.829 181.77 219.276C181.309 219.723 180.968 220.279 180.777 220.892C180.587 221.505 180.554 222.157 180.681 222.786V222.757Z" fill="#FF8B7B"/>
<path d="M328.076 506.989L300.033 499.285L296.517 329.398H286.512L283.067 499.285L255.024 506.989C253.377 507.454 251.927 508.444 250.895 509.809C249.862 511.174 249.305 512.839 249.307 514.55H333.879C333.875 512.828 333.305 511.154 332.257 509.788C331.208 508.422 329.739 507.438 328.076 506.989Z" fill="#263238"/>
<path opacity="0.5" d="M328.076 506.989L300.033 499.285L296.517 329.398H286.512L283.067 499.285L255.024 506.989C253.377 507.454 251.927 508.444 250.895 509.809C249.862 511.174 249.305 512.839 249.307 514.55H333.879C333.875 512.828 333.305 511.154 332.257 509.788C331.208 508.422 329.739 507.438 328.076 506.989Z" fill="white"/>
<path opacity="0.2" d="M280.077 514.551V510.034C280.076 509.352 280.243 508.68 280.562 508.077C280.88 507.474 281.342 506.958 281.907 506.575L291.54 500V336.102H288.682V500L274.589 506.675C273.871 507.014 273.264 507.55 272.838 508.22C272.413 508.891 272.187 509.669 272.188 510.463V514.551H280.077Z" fill="white"/>
<path d="M410.39 333.2H195.107V339.003H410.39V333.2Z" fill="#263238"/>
<path opacity="0.3" d="M410.39 333.2H195.107V339.003H410.39V333.2Z" fill="white"/>
<path opacity="0.2" d="M410.374 333.2H303.033V339.003H410.374V333.2Z" fill="black"/>
<path d="M423.366 327.397H182.113V333.2H423.366V327.397Z" fill="#263238"/>
<path opacity="0.3" d="M423.368 327.397H290.057V333.2H423.368V327.397Z" fill="black"/>
<path d="M472.246 293.465V255.588V248.585C472.238 243.883 470.367 239.376 467.042 236.051C463.717 232.726 459.21 230.855 454.508 230.847H348.239C343.539 230.859 339.036 232.731 335.714 236.056C332.392 239.38 330.523 243.885 330.516 248.585V308.844H335.189V248.585C335.193 245.121 336.571 241.801 339.02 239.351C341.469 236.902 344.79 235.525 348.253 235.521H454.508C457.972 235.525 461.292 236.902 463.741 239.351C466.191 241.801 467.568 245.121 467.572 248.585V293.465H462.012L469.902 306.329L477.791 293.465H472.246Z" fill="#16B99B"/>
<path d="M573.413 308.116H268.17V312.79H573.413V308.116Z" fill="#16B99B"/>
<path d="M348.197 333.644H312.035C311.034 333.644 310.075 333.246 309.367 332.539C308.659 331.831 308.262 330.871 308.262 329.871V278.415C308.262 277.415 308.659 276.455 309.367 275.747C310.075 275.04 311.034 274.642 312.035 274.642H353.799C354.8 274.642 355.76 275.04 356.468 275.747C357.175 276.455 357.573 277.415 357.573 278.415V329.871C357.573 330.871 357.175 331.831 356.468 332.539C355.76 333.246 354.8 333.644 353.799 333.644H348.197Z" fill="#16B99B"/>
<path opacity="0.8" d="M348.197 333.644H312.035C311.034 333.644 310.075 333.246 309.367 332.539C308.659 331.831 308.262 330.871 308.262 329.871V278.415C308.262 277.415 308.659 276.455 309.367 275.747C310.075 275.04 311.034 274.642 312.035 274.642H353.799C354.8 274.642 355.76 275.04 356.468 275.747C357.175 276.455 357.573 277.415 357.573 278.415V329.871C357.573 330.871 357.175 331.831 356.468 332.539C355.76 333.246 354.8 333.644 353.799 333.644H348.197Z" fill="white"/>
<path d="M353.799 274.656H312.035C311.034 274.656 310.075 275.054 309.367 275.761C308.659 276.469 308.262 277.429 308.262 278.43V283.975H357.573V278.43C357.573 277.429 357.175 276.469 356.468 275.761C355.76 275.054 354.8 274.656 353.799 274.656Z" fill="#263238"/>
<path d="M351.969 281.131C352.837 281.131 353.541 280.427 353.541 279.559C353.541 278.69 352.837 277.986 351.969 277.986C351.1 277.986 350.396 278.69 350.396 279.559C350.396 280.427 351.1 281.131 351.969 281.131Z" fill="#16B99B"/>
<path d="M345.695 281.131C346.564 281.131 347.268 280.427 347.268 279.559C347.268 278.69 346.564 277.986 345.695 277.986C344.827 277.986 344.123 278.69 344.123 279.559C344.123 280.427 344.827 281.131 345.695 281.131Z" fill="#16B99B"/>
<path d="M339.434 281.131C340.302 281.131 341.006 280.427 341.006 279.559C341.006 278.69 340.302 277.986 339.434 277.986C338.565 277.986 337.861 278.69 337.861 279.559C337.861 280.427 338.565 281.131 339.434 281.131Z" fill="#16B99B"/>
<path d="M328.644 293.451L323.127 295.481L328.644 297.482V299.555L320.754 296.553V294.438L328.644 291.422V293.451Z" fill="#263238"/>
<path d="M334.589 287.292H336.89L331.416 303.014H329.086L334.589 287.292Z" fill="#263238"/>
<path d="M345.079 294.438V296.582L337.189 299.583V297.511L342.707 295.51L337.189 293.48V291.422L345.079 294.438Z" fill="#263238"/>
<path d="M322.584 308.288H313.78C313.156 308.288 312.65 308.794 312.65 309.417V309.617C312.65 310.241 313.156 310.746 313.78 310.746H322.584C323.208 310.746 323.713 310.241 323.713 309.617V309.417C323.713 308.794 323.208 308.288 322.584 308.288Z" fill="#263238"/>
<path d="M338.593 308.288H327.03C326.406 308.288 325.9 308.794 325.9 309.417V309.617C325.9 310.241 326.406 310.746 327.03 310.746H338.593C339.216 310.746 339.722 310.241 339.722 309.617V309.417C339.722 308.794 339.216 308.288 338.593 308.288Z" fill="#263238"/>
<path d="M352.041 308.288H343.051C342.427 308.288 341.922 308.794 341.922 309.417V309.617C341.922 310.241 342.427 310.746 343.051 310.746H352.041C352.665 310.746 353.171 310.241 353.171 309.617V309.417C353.171 308.794 352.665 308.288 352.041 308.288Z" fill="#263238"/>
<path d="M323.499 314.405H313.78C313.156 314.405 312.65 314.911 312.65 315.534V315.735C312.65 316.358 313.156 316.864 313.78 316.864H323.499C324.122 316.864 324.628 316.358 324.628 315.735V315.534C324.628 314.911 324.122 314.405 323.499 314.405Z" fill="#263238"/>
<path d="M340.449 314.405H327.957C327.334 314.405 326.828 314.911 326.828 315.534V315.735C326.828 316.358 327.334 316.864 327.957 316.864H340.449C341.073 316.864 341.579 316.358 341.579 315.735V315.534C341.579 314.911 341.073 314.405 340.449 314.405Z" fill="#263238"/>
<path d="M352.041 314.405H344.895C344.271 314.405 343.766 314.911 343.766 315.534V315.735C343.766 316.358 344.271 316.864 344.895 316.864H352.041C352.665 316.864 353.17 316.358 353.17 315.735V315.534C353.17 314.911 352.665 314.405 352.041 314.405Z" fill="#263238"/>
<path d="M321.655 320.508H313.78C313.156 320.508 312.65 321.013 312.65 321.637V321.837C312.65 322.461 313.156 322.966 313.78 322.966H321.655C322.279 322.966 322.784 322.461 322.784 321.837V321.637C322.784 321.013 322.279 320.508 321.655 320.508Z" fill="#263238"/>
<path d="M337.677 320.508H326.114C325.49 320.508 324.984 321.013 324.984 321.637V321.837C324.984 322.461 325.49 322.966 326.114 322.966H337.677C338.3 322.966 338.806 322.461 338.806 321.837V321.637C338.806 321.013 338.3 320.508 337.677 320.508Z" fill="#263238"/>
<path d="M352.043 320.508H342.123C341.5 320.508 340.994 321.013 340.994 321.637V321.837C340.994 322.461 341.5 322.966 342.123 322.966H352.043C352.666 322.966 353.172 322.461 353.172 321.837V321.637C353.172 321.013 352.666 320.508 352.043 320.508Z" fill="#263238"/>
<path d="M325.343 326.611H313.78C313.156 326.611 312.65 327.117 312.65 327.74V327.941C312.65 328.564 313.156 329.07 313.78 329.07H325.343C325.966 329.07 326.472 328.564 326.472 327.941V327.74C326.472 327.117 325.966 326.611 325.343 326.611Z" fill="#263238"/>
<path d="M340.451 326.611H329.803C329.179 326.611 328.674 327.117 328.674 327.74V327.941C328.674 328.564 329.179 329.07 329.803 329.07H340.451C341.075 329.07 341.58 328.564 341.58 327.941V327.74C341.58 327.117 341.075 326.611 340.451 326.611Z" fill="#263238"/>
<path d="M352.041 326.611H344.895C344.271 326.611 343.766 327.117 343.766 327.74V327.941C343.766 328.564 344.271 329.07 344.895 329.07H352.041C352.665 329.07 353.17 328.564 353.17 327.941V327.74C353.17 327.117 352.665 326.611 352.041 326.611Z" fill="#263238"/>
<path d="M485.538 258.534H449.377C448.376 258.534 447.416 258.136 446.709 257.428C446.001 256.721 445.604 255.761 445.604 254.76V203.305C445.604 202.304 446.001 201.345 446.709 200.637C447.416 199.929 448.376 199.532 449.377 199.532H491.141C492.142 199.532 493.102 199.929 493.809 200.637C494.517 201.345 494.915 202.304 494.915 203.305V254.76C494.915 255.761 494.517 256.721 493.809 257.428C493.102 258.136 492.142 258.534 491.141 258.534H485.538Z" fill="#16B99B"/>
<path opacity="0.8" d="M485.538 258.534H449.377C448.376 258.534 447.416 258.136 446.709 257.428C446.001 256.721 445.604 255.761 445.604 254.76V203.305C445.604 202.304 446.001 201.345 446.709 200.637C447.416 199.929 448.376 199.532 449.377 199.532H491.141C492.142 199.532 493.102 199.929 493.809 200.637C494.517 201.345 494.915 202.304 494.915 203.305V254.76C494.915 255.761 494.517 256.721 493.809 257.428C493.102 258.136 492.142 258.534 491.141 258.534H485.538Z" fill="white"/>
<path d="M491.141 199.546H449.377C448.376 199.546 447.416 199.943 446.709 200.651C446.001 201.359 445.604 202.319 445.604 203.319V208.879H494.886V203.319C494.886 202.323 494.492 201.368 493.791 200.661C493.09 199.954 492.137 199.553 491.141 199.546Z" fill="#263238"/>
<path d="M489.312 206.035C490.181 206.035 490.885 205.331 490.885 204.463C490.885 203.595 490.181 202.891 489.312 202.891C488.444 202.891 487.74 203.595 487.74 204.463C487.74 205.331 488.444 206.035 489.312 206.035Z" fill="#16B99B"/>
<path d="M483.053 206.035C483.921 206.035 484.625 205.331 484.625 204.463C484.625 203.595 483.921 202.891 483.053 202.891C482.184 202.891 481.48 203.595 481.48 204.463C481.48 205.331 482.184 206.035 483.053 206.035Z" fill="#16B99B"/>
<path d="M476.777 206.035C477.646 206.035 478.35 205.331 478.35 204.463C478.35 203.595 477.646 202.891 476.777 202.891C475.909 202.891 475.205 203.595 475.205 204.463C475.205 205.331 475.909 206.035 476.777 206.035Z" fill="#16B99B"/>
<path d="M466 218.356L460.468 220.371L466 222.386V224.402L458.096 221.4V219.242L466 216.24V218.356Z" fill="#263238"/>
<path d="M471.931 212.21H474.232L468.758 227.847H466.457L471.931 212.21Z" fill="#263238"/>
<path d="M482.437 219.299V221.457L474.533 224.459V222.386L480.065 220.371L474.533 218.356V216.297L482.437 219.299Z" fill="#263238"/>
<path d="M459.94 233.192H451.135C450.511 233.192 450.006 233.697 450.006 234.321V234.521C450.006 235.145 450.511 235.65 451.135 235.65H459.94C460.563 235.65 461.069 235.145 461.069 234.521V234.321C461.069 233.697 460.563 233.192 459.94 233.192Z" fill="#263238"/>
<path d="M475.95 233.192H464.387C463.763 233.192 463.258 233.697 463.258 234.321V234.521C463.258 235.145 463.763 235.65 464.387 235.65H475.95C476.574 235.65 477.079 235.145 477.079 234.521V234.321C477.079 233.697 476.574 233.192 475.95 233.192Z" fill="#263238"/>
<path d="M489.383 233.192H480.393C479.769 233.192 479.264 233.697 479.264 234.321V234.521C479.264 235.145 479.769 235.65 480.393 235.65H489.383C490.007 235.65 490.512 235.145 490.512 234.521V234.321C490.512 233.697 490.007 233.192 489.383 233.192Z" fill="#263238"/>
<path d="M460.854 239.295H451.135C450.511 239.295 450.006 239.8 450.006 240.424V240.624C450.006 241.248 450.511 241.753 451.135 241.753H460.854C461.478 241.753 461.983 241.248 461.983 240.624V240.424C461.983 239.8 461.478 239.295 460.854 239.295Z" fill="#263238"/>
<path d="M477.791 239.295H465.299C464.675 239.295 464.17 239.8 464.17 240.424V240.624C464.17 241.248 464.675 241.753 465.299 241.753H477.791C478.415 241.753 478.92 241.248 478.92 240.624V240.424C478.92 239.8 478.415 239.295 477.791 239.295Z" fill="#263238"/>
<path d="M489.383 239.295H482.237C481.613 239.295 481.107 239.8 481.107 240.424V240.624C481.107 241.248 481.613 241.753 482.237 241.753H489.383C490.007 241.753 490.512 241.248 490.512 240.624V240.424C490.512 239.8 490.007 239.295 489.383 239.295Z" fill="#263238"/>
<path d="M459.01 245.398H451.135C450.511 245.398 450.006 245.904 450.006 246.528V246.728C450.006 247.351 450.511 247.857 451.135 247.857H459.01C459.634 247.857 460.14 247.351 460.14 246.728V246.528C460.14 245.904 459.634 245.398 459.01 245.398Z" fill="#263238"/>
<path d="M475.018 245.398H463.455C462.832 245.398 462.326 245.904 462.326 246.528V246.728C462.326 247.351 462.832 247.857 463.455 247.857H475.018C475.642 247.857 476.148 247.351 476.148 246.728V246.528C476.148 245.904 475.642 245.398 475.018 245.398Z" fill="#263238"/>
<path d="M489.383 245.398H479.463C478.839 245.398 478.334 245.904 478.334 246.528V246.728C478.334 247.351 478.839 247.857 479.463 247.857H489.383C490.006 247.857 490.512 247.351 490.512 246.728V246.528C490.512 245.904 490.006 245.398 489.383 245.398Z" fill="#263238"/>
<path d="M462.698 251.501H451.135C450.511 251.501 450.006 252.007 450.006 252.631V252.831C450.006 253.454 450.511 253.96 451.135 253.96H462.698C463.322 253.96 463.827 253.454 463.827 252.831V252.631C463.827 252.007 463.322 251.501 462.698 251.501Z" fill="#263238"/>
<path d="M477.791 251.501H467.143C466.519 251.501 466.014 252.007 466.014 252.631V252.831C466.014 253.454 466.519 253.96 467.143 253.96H477.791C478.415 253.96 478.92 253.454 478.92 252.831V252.631C478.92 252.007 478.415 251.501 477.791 251.501Z" fill="#263238"/>
<path d="M489.383 251.501H482.237C481.613 251.501 481.107 252.007 481.107 252.631V252.831C481.107 253.454 481.613 253.96 482.237 253.96H489.383C490.007 253.96 490.512 253.454 490.512 252.831V252.631C490.512 252.007 490.007 251.501 489.383 251.501Z" fill="#263238"/>
<path d="M584.417 333.644H548.256C547.255 333.644 546.295 333.246 545.588 332.539C544.88 331.831 544.482 330.871 544.482 329.871V278.415C544.482 277.415 544.88 276.455 545.588 275.747C546.295 275.04 547.255 274.642 548.256 274.642H590.02C591.021 274.642 591.981 275.04 592.688 275.747C593.396 276.455 593.794 277.415 593.794 278.415V329.871C593.794 330.871 593.396 331.831 592.688 332.539C591.981 333.246 591.021 333.644 590.02 333.644H584.417Z" fill="#16B99B"/>
<path opacity="0.8" d="M584.417 333.644H548.256C547.255 333.644 546.295 333.246 545.588 332.539C544.88 331.831 544.482 330.871 544.482 329.871V278.415C544.482 277.415 544.88 276.455 545.588 275.747C546.295 275.04 547.255 274.642 548.256 274.642H590.02C591.021 274.642 591.981 275.04 592.688 275.747C593.396 276.455 593.794 277.415 593.794 278.415V329.871C593.794 330.871 593.396 331.831 592.688 332.539C591.981 333.246 591.021 333.644 590.02 333.644H584.417Z" fill="white"/>
<path d="M590.02 274.656H548.256C547.255 274.656 546.295 275.054 545.588 275.761C544.88 276.469 544.482 277.429 544.482 278.43V283.975H593.794V278.43C593.794 277.429 593.396 276.469 592.688 275.761C591.981 275.054 591.021 274.656 590.02 274.656Z" fill="#263238"/>
<path d="M588.191 281.131C589.06 281.131 589.764 280.427 589.764 279.559C589.764 278.69 589.06 277.986 588.191 277.986C587.323 277.986 586.619 278.69 586.619 279.559C586.619 280.427 587.323 281.131 588.191 281.131Z" fill="#16B99B"/>
<path d="M581.932 281.131C582.8 281.131 583.504 280.427 583.504 279.559C583.504 278.69 582.8 277.986 581.932 277.986C581.063 277.986 580.359 278.69 580.359 279.559C580.359 280.427 581.063 281.131 581.932 281.131Z" fill="#16B99B"/>
<path d="M575.656 281.131C576.525 281.131 577.228 280.427 577.228 279.559C577.228 278.69 576.525 277.986 575.656 277.986C574.788 277.986 574.084 278.69 574.084 279.559C574.084 280.427 574.788 281.131 575.656 281.131Z" fill="#16B99B"/>
<path d="M564.922 293.451L559.39 295.481L564.922 297.482V299.555L557.018 296.553V294.438L564.922 291.422V293.451Z" fill="#263238"/>
<path d="M570.81 287.292H573.126L567.651 303.014H565.336L570.81 287.292Z" fill="#263238"/>
<path d="M581.317 294.438V296.582L573.428 299.584V297.511L578.945 295.51L573.499 293.452V291.394L581.317 294.438Z" fill="#263238"/>
<path d="M558.82 308.288H550.016C549.392 308.288 548.887 308.794 548.887 309.417V309.617C548.887 310.241 549.392 310.746 550.016 310.746H558.82C559.444 310.746 559.95 310.241 559.95 309.617V309.417C559.95 308.794 559.444 308.288 558.82 308.288Z" fill="#263238"/>
<path d="M574.829 308.288H563.266C562.642 308.288 562.137 308.794 562.137 309.417V309.617C562.137 310.241 562.642 310.746 563.266 310.746H574.829C575.453 310.746 575.958 310.241 575.958 309.617V309.417C575.958 308.794 575.453 308.288 574.829 308.288Z" fill="#263238"/>
<path d="M588.264 308.288H579.274C578.65 308.288 578.145 308.794 578.145 309.417V309.617C578.145 310.241 578.65 310.746 579.274 310.746H588.264C588.888 310.746 589.393 310.241 589.393 309.617V309.417C589.393 308.794 588.888 308.288 588.264 308.288Z" fill="#263238"/>
<path d="M559.735 314.405H550.016C549.392 314.405 548.887 314.911 548.887 315.534V315.735C548.887 316.358 549.392 316.864 550.016 316.864H559.735C560.359 316.864 560.864 316.358 560.864 315.735V315.534C560.864 314.911 560.359 314.405 559.735 314.405Z" fill="#263238"/>
<path d="M576.672 314.405H564.18C563.556 314.405 563.051 314.911 563.051 315.534V315.735C563.051 316.358 563.556 316.864 564.18 316.864H576.672C577.296 316.864 577.801 316.358 577.801 315.735V315.534C577.801 314.911 577.296 314.405 576.672 314.405Z" fill="#263238"/>
<path d="M588.264 314.405H581.117C580.494 314.405 579.988 314.911 579.988 315.534V315.735C579.988 316.358 580.494 316.864 581.117 316.864H588.264C588.888 316.864 589.393 316.358 589.393 315.735V315.534C589.393 314.911 588.888 314.405 588.264 314.405Z" fill="#263238"/>
<path d="M557.891 320.508H550.016C549.392 320.508 548.887 321.013 548.887 321.637V321.837C548.887 322.461 549.392 322.966 550.016 322.966H557.891C558.515 322.966 559.021 322.461 559.021 321.837V321.637C559.021 321.013 558.515 320.508 557.891 320.508Z" fill="#263238"/>
<path d="M573.899 320.508H562.336C561.713 320.508 561.207 321.013 561.207 321.637V321.837C561.207 322.461 561.713 322.966 562.336 322.966H573.899C574.523 322.966 575.028 322.461 575.028 321.837V321.637C575.028 321.013 574.523 320.508 573.899 320.508Z" fill="#263238"/>
<path d="M588.277 320.508H578.358C577.734 320.508 577.229 321.013 577.229 321.637V321.837C577.229 322.461 577.734 322.966 578.358 322.966H588.277C588.901 322.966 589.406 322.461 589.406 321.837V321.637C589.406 321.013 588.901 320.508 588.277 320.508Z" fill="#263238"/>
<path d="M561.579 326.611H550.016C549.392 326.611 548.887 327.117 548.887 327.74V327.941C548.887 328.564 549.392 329.07 550.016 329.07H561.579C562.203 329.07 562.708 328.564 562.708 327.941V327.74C562.708 327.117 562.203 326.611 561.579 326.611Z" fill="#263238"/>
<path d="M576.672 326.611H566.024C565.4 326.611 564.895 327.117 564.895 327.74V327.941C564.895 328.564 565.4 329.07 566.024 329.07H576.672C577.296 329.07 577.801 328.564 577.801 327.941V327.74C577.801 327.117 577.296 326.611 576.672 326.611Z" fill="#263238"/>
<path d="M588.264 326.611H581.117C580.494 326.611 579.988 327.117 579.988 327.74V327.941C579.988 328.564 580.494 329.07 581.117 329.07H588.264C588.888 329.07 589.393 328.564 589.393 327.941V327.74C589.393 327.117 588.888 326.611 588.264 326.611Z" fill="#263238"/>
<path d="M423.95 333.644H387.789C386.788 333.644 385.828 333.246 385.121 332.539C384.413 331.831 384.016 330.871 384.016 329.871V278.415C384.016 277.415 384.413 276.455 385.121 275.747C385.828 275.04 386.788 274.642 387.789 274.642H429.553C430.554 274.642 431.514 275.04 432.222 275.747C432.929 276.455 433.327 277.415 433.327 278.415V329.871C433.327 330.871 432.929 331.831 432.222 332.539C431.514 333.246 430.554 333.644 429.553 333.644H423.95Z" fill="#16B99B"/>
<path opacity="0.8" d="M423.95 333.644H387.789C386.788 333.644 385.828 333.246 385.121 332.539C384.413 331.831 384.016 330.871 384.016 329.871V278.415C384.016 277.415 384.413 276.455 385.121 275.747C385.828 275.04 386.788 274.642 387.789 274.642H429.553C430.554 274.642 431.514 275.04 432.222 275.747C432.929 276.455 433.327 277.415 433.327 278.415V329.871C433.327 330.871 432.929 331.831 432.222 332.539C431.514 333.246 430.554 333.644 429.553 333.644H423.95Z" fill="white"/>
<path d="M429.553 274.656H387.789C386.788 274.656 385.828 275.054 385.121 275.761C384.413 276.469 384.016 277.429 384.016 278.43V283.975H433.327V278.43C433.327 277.429 432.929 276.469 432.222 275.761C431.514 275.054 430.554 274.656 429.553 274.656Z" fill="#263238"/>
<path d="M427.725 281.131C428.593 281.131 429.297 280.427 429.297 279.559C429.297 278.69 428.593 277.986 427.725 277.986C426.856 277.986 426.152 278.69 426.152 279.559C426.152 280.427 426.856 281.131 427.725 281.131Z" fill="#16B99B"/>
<path d="M421.463 281.131C422.331 281.131 423.035 280.427 423.035 279.559C423.035 278.69 422.331 277.986 421.463 277.986C420.595 277.986 419.891 278.69 419.891 279.559C419.891 280.427 420.595 281.131 421.463 281.131Z" fill="#16B99B"/>
<path d="M415.189 281.131C416.058 281.131 416.762 280.427 416.762 279.559C416.762 278.69 416.058 277.986 415.189 277.986C414.321 277.986 413.617 278.69 413.617 279.559C413.617 280.427 414.321 281.131 415.189 281.131Z" fill="#16B99B"/>
<path d="M404.41 293.451L398.878 295.481L404.41 297.482V299.555L396.506 296.553V294.438L404.41 291.422V293.451Z" fill="#263238"/>
<path d="M410.343 287.292H412.658L407.184 303.014H404.84L410.343 287.292Z" fill="#263238"/>
<path d="M420.847 294.438V296.582L412.957 299.583V297.511L418.474 295.51L412.957 293.48V291.422L420.847 294.438Z" fill="#263238"/>
<path d="M401.11 308.288H389.547C388.923 308.288 388.418 308.794 388.418 309.417V309.617C388.418 310.241 388.923 310.746 389.547 310.746H401.11C401.734 310.746 402.239 310.241 402.239 309.617V309.417C402.239 308.794 401.734 308.288 401.11 308.288Z" fill="#263238"/>
<path d="M417.116 308.288H405.553C404.929 308.288 404.424 308.794 404.424 309.417V309.617C404.424 310.241 404.929 310.746 405.553 310.746H417.116C417.74 310.746 418.245 310.241 418.245 309.617V309.417C418.245 308.794 417.74 308.288 417.116 308.288Z" fill="#263238"/>
<path d="M427.808 308.288H421.576C420.953 308.288 420.447 308.794 420.447 309.417V309.617C420.447 310.241 420.953 310.746 421.576 310.746H427.808C428.432 310.746 428.937 310.241 428.937 309.617V309.417C428.937 308.794 428.432 308.288 427.808 308.288Z" fill="#263238"/>
<path d="M398.352 314.405H389.547C388.923 314.405 388.418 314.911 388.418 315.534V315.735C388.418 316.358 388.923 316.864 389.547 316.864H398.352C398.975 316.864 399.481 316.358 399.481 315.735V315.534C399.481 314.911 398.975 314.405 398.352 314.405Z" fill="#263238"/>
<path d="M415.289 314.405H402.797C402.174 314.405 401.668 314.911 401.668 315.534V315.735C401.668 316.358 402.174 316.864 402.797 316.864H415.289C415.913 316.864 416.418 316.358 416.418 315.735V315.534C416.418 314.911 415.913 314.405 415.289 314.405Z" fill="#263238"/>
<path d="M427.808 314.405H419.733C419.109 314.405 418.604 314.911 418.604 315.534V315.735C418.604 316.358 419.109 316.864 419.733 316.864H427.808C428.432 316.864 428.937 316.358 428.937 315.735V315.534C428.937 314.911 428.432 314.405 427.808 314.405Z" fill="#263238"/>
<path d="M401.11 320.508H389.547C388.923 320.508 388.418 321.013 388.418 321.637V321.837C388.418 322.461 388.923 322.966 389.547 322.966H401.11C401.734 322.966 402.239 322.461 402.239 321.837V321.637C402.239 321.013 401.734 320.508 401.11 320.508Z" fill="#263238"/>
<path d="M417.116 320.508H405.553C404.929 320.508 404.424 321.013 404.424 321.637V321.837C404.424 322.461 404.929 322.966 405.553 322.966H417.116C417.74 322.966 418.245 322.461 418.245 321.837V321.637C418.245 321.013 417.74 320.508 417.116 320.508Z" fill="#263238"/>
<path d="M427.808 320.508H421.576C420.953 320.508 420.447 321.013 420.447 321.637V321.837C420.447 322.461 420.953 322.966 421.576 322.966H427.808C428.432 322.966 428.937 322.461 428.937 321.837V321.637C428.937 321.013 428.432 320.508 427.808 320.508Z" fill="#263238"/>
<path d="M396.508 326.611H389.547C388.923 326.611 388.418 327.117 388.418 327.74V327.941C388.418 328.564 388.923 329.07 389.547 329.07H396.508C397.131 329.07 397.637 328.564 397.637 327.941V327.74C397.637 327.117 397.131 326.611 396.508 326.611Z" fill="#263238"/>
<path d="M414.36 326.611H400.953C400.33 326.611 399.824 327.117 399.824 327.74V327.941C399.824 328.564 400.33 329.07 400.953 329.07H414.36C414.984 329.07 415.489 328.564 415.489 327.941V327.74C415.489 327.117 414.984 326.611 414.36 326.611Z" fill="#263238"/>
<path d="M427.795 326.611H418.805C418.181 326.611 417.676 327.117 417.676 327.74V327.941C417.676 328.564 418.181 329.07 418.805 329.07H427.795C428.419 329.07 428.924 328.564 428.924 327.941V327.74C428.924 327.117 428.419 326.611 427.795 326.611Z" fill="#263238"/>
<path d="M515.799 323.224C522.848 323.224 528.563 317.509 528.563 310.46C528.563 303.411 522.848 297.696 515.799 297.696C508.75 297.696 503.035 303.411 503.035 310.46C503.035 317.509 508.75 323.224 515.799 323.224Z" fill="#263238"/>
<path d="M514.653 318.093L506.72 310.16C506.577 310.018 506.463 309.849 506.385 309.663C506.308 309.476 506.268 309.276 506.268 309.074C506.268 308.872 506.308 308.672 506.385 308.486C506.463 308.299 506.577 308.13 506.72 307.988C506.863 307.844 507.032 307.731 507.218 307.653C507.405 307.575 507.605 307.535 507.807 307.535C508.009 307.535 508.209 307.575 508.395 307.653C508.582 307.731 508.751 307.844 508.893 307.988L514.61 313.705L528.289 300.012C528.431 299.869 528.6 299.755 528.786 299.677C528.973 299.6 529.173 299.56 529.375 299.56C529.577 299.56 529.777 299.6 529.963 299.677C530.15 299.755 530.319 299.869 530.461 300.012C530.605 300.155 530.719 300.324 530.796 300.51C530.874 300.697 530.914 300.897 530.914 301.099C530.914 301.301 530.874 301.501 530.796 301.687C530.719 301.874 530.605 302.043 530.461 302.185L514.653 318.093Z" fill="#16B99B"/>
<g opacity="0.5">
<path d="M514.653 318.093L506.72 310.16C506.577 310.018 506.463 309.849 506.385 309.662C506.308 309.476 506.268 309.276 506.268 309.074C506.268 308.872 506.308 308.672 506.385 308.485C506.463 308.299 506.577 308.13 506.72 307.987C506.863 307.844 507.032 307.73 507.218 307.652C507.405 307.575 507.605 307.535 507.807 307.535C508.009 307.535 508.209 307.575 508.395 307.652C508.582 307.73 508.751 307.844 508.893 307.987L514.61 313.705L528.289 300.012C528.431 299.868 528.6 299.755 528.786 299.677C528.973 299.599 529.173 299.559 529.375 299.559C529.577 299.559 529.777 299.599 529.963 299.677C530.15 299.755 530.319 299.868 530.461 300.012C530.605 300.154 530.719 300.323 530.796 300.51C530.874 300.696 530.914 300.896 530.914 301.098C530.914 301.3 530.874 301.5 530.796 301.687C530.719 301.873 530.605 302.042 530.461 302.184L514.653 318.093Z" fill="white"/>
</g>
<path d="M515.799 245.956C522.848 245.956 528.563 240.241 528.563 233.192C528.563 226.143 522.848 220.428 515.799 220.428C508.75 220.428 503.035 226.143 503.035 233.192C503.035 240.241 508.75 245.956 515.799 245.956Z" fill="#263238"/>
<path d="M523.558 225.417C523.416 225.273 523.246 225.159 523.06 225.082C522.874 225.004 522.674 224.964 522.472 224.964C522.27 224.964 522.07 225.004 521.883 225.082C521.697 225.159 521.527 225.273 521.385 225.417L515.797 231.02L510.194 225.417C510.052 225.273 509.882 225.159 509.696 225.082C509.51 225.004 509.31 224.964 509.108 224.964C508.906 224.964 508.706 225.004 508.519 225.082C508.333 225.159 508.163 225.273 508.021 225.417C507.738 225.708 507.58 226.097 507.58 226.503C507.58 226.909 507.738 227.298 508.021 227.589L513.624 233.192L508.021 238.781C507.738 239.072 507.58 239.461 507.58 239.867C507.58 240.273 507.738 240.662 508.021 240.953C508.163 241.097 508.333 241.211 508.519 241.288C508.706 241.366 508.906 241.406 509.108 241.406C509.31 241.406 509.51 241.366 509.696 241.288C509.882 241.211 510.052 241.097 510.194 240.953L515.797 235.365L521.385 240.953C521.527 241.097 521.697 241.211 521.883 241.288C522.07 241.366 522.27 241.406 522.472 241.406C522.674 241.406 522.874 241.366 523.06 241.288C523.246 241.211 523.416 241.097 523.558 240.953C523.701 240.811 523.815 240.642 523.893 240.455C523.971 240.269 524.011 240.069 524.011 239.867C524.011 239.665 523.971 239.465 523.893 239.279C523.815 239.092 523.701 238.923 523.558 238.781L517.969 233.192L523.558 227.589C523.701 227.447 523.815 227.278 523.893 227.091C523.971 226.905 524.011 226.705 524.011 226.503C524.011 226.301 523.971 226.101 523.893 225.915C523.815 225.728 523.701 225.559 523.558 225.417Z" fill="#16B99B"/>
<path opacity="0.5" d="M523.558 225.417C523.416 225.273 523.246 225.159 523.06 225.082C522.874 225.004 522.674 224.964 522.472 224.964C522.27 224.964 522.07 225.004 521.883 225.082C521.697 225.159 521.527 225.273 521.385 225.417L515.797 231.02L510.194 225.417C510.052 225.273 509.882 225.159 509.696 225.082C509.51 225.004 509.31 224.964 509.108 224.964C508.906 224.964 508.706 225.004 508.519 225.082C508.333 225.159 508.163 225.273 508.021 225.417C507.738 225.708 507.58 226.097 507.58 226.503C507.58 226.909 507.738 227.298 508.021 227.589L513.624 233.192L508.021 238.781C507.738 239.072 507.58 239.461 507.58 239.867C507.58 240.273 507.738 240.662 508.021 240.953C508.163 241.097 508.333 241.211 508.519 241.288C508.706 241.366 508.906 241.406 509.108 241.406C509.31 241.406 509.51 241.366 509.696 241.288C509.882 241.211 510.052 241.097 510.194 240.953L515.797 235.365L521.385 240.953C521.527 241.097 521.697 241.211 521.883 241.288C522.07 241.366 522.27 241.406 522.472 241.406C522.674 241.406 522.874 241.366 523.06 241.288C523.246 241.211 523.416 241.097 523.558 240.953C523.701 240.811 523.815 240.642 523.893 240.455C523.971 240.269 524.011 240.069 524.011 239.867C524.011 239.665 523.971 239.465 523.893 239.279C523.815 239.092 523.701 238.923 523.558 238.781L517.969 233.192L523.558 227.589C523.701 227.447 523.815 227.278 523.893 227.091C523.971 226.905 524.011 226.705 524.011 226.503C524.011 226.301 523.971 226.101 523.893 225.915C523.815 225.728 523.701 225.559 523.558 225.417Z" fill="white"/>
<path d="M509.18 234.75H494.558C494.145 234.75 493.749 234.586 493.456 234.293C493.164 234.001 493 233.605 493 233.192C493 232.779 493.164 232.382 493.456 232.09C493.749 231.798 494.145 231.634 494.558 231.634H509.18V234.75Z" fill="#263238"/>
<path d="M433.243 215.369L392.933 225.552L352.635 215.369C350.385 214.788 348.391 213.479 346.963 211.645C345.536 209.811 344.756 207.557 344.744 205.233V188.866C344.744 187.494 345.015 186.136 345.54 184.868C346.065 183.601 346.835 182.449 347.806 181.48C348.777 180.51 349.929 179.742 351.197 179.218C352.465 178.694 353.824 178.425 355.196 178.426H430.683C433.451 178.426 436.107 179.526 438.065 181.484C440.022 183.442 441.122 186.097 441.122 188.866V205.233C441.112 207.555 440.333 209.809 438.908 211.642C437.482 213.475 435.491 214.786 433.243 215.369Z" fill="#C35899"/>
<path d="M373.506 203.534L372.08 201.476H370.502V203.534H368.795V196.145H371.998C372.58 196.129 373.159 196.241 373.693 196.472C374.156 196.658 374.549 196.983 374.819 197.402C375.089 197.82 375.223 198.313 375.201 198.811C375.217 199.315 375.078 199.813 374.804 200.237C374.519 200.655 374.11 200.974 373.635 201.149L375.295 203.487L373.506 203.534ZM373.074 197.875C372.734 197.632 372.322 197.512 371.905 197.536H370.513V200.108H371.905C372.32 200.136 372.733 200.02 373.074 199.781C373.209 199.662 373.316 199.514 373.385 199.348C373.454 199.182 373.483 199.002 373.471 198.822C373.481 198.645 373.451 198.467 373.382 198.303C373.313 198.139 373.208 197.992 373.074 197.875Z" fill="white"/>
<path d="M382.297 202.166V203.534H376.58V196.145H382.157V197.513H378.275V199.126H381.701V200.447H378.275V202.166H382.297Z" fill="white"/>
<path d="M391.65 204.328C391.417 204.617 391.121 204.849 390.785 205.007C390.416 205.164 390.017 205.24 389.616 205.229C389.096 205.236 388.582 205.115 388.12 204.878C387.552 204.541 387.039 204.119 386.6 203.627C385.961 203.557 385.348 203.337 384.811 202.984C384.314 202.647 383.911 202.188 383.642 201.651C383.349 201.093 383.2 200.47 383.209 199.839C383.199 199.152 383.381 198.476 383.736 197.887C384.077 197.305 384.575 196.831 385.173 196.519C385.815 196.189 386.527 196.017 387.249 196.017C387.97 196.017 388.682 196.189 389.324 196.519C389.919 196.835 390.417 197.308 390.762 197.887C391.125 198.472 391.312 199.15 391.299 199.839C391.312 200.651 391.057 201.443 390.575 202.096C390.096 202.74 389.425 203.216 388.657 203.452C388.805 203.613 388.979 203.747 389.172 203.849C389.336 203.929 389.516 203.969 389.698 203.966C389.92 203.96 390.139 203.908 390.34 203.813C390.541 203.719 390.72 203.584 390.867 203.417L391.65 204.328ZM385.232 201.067C385.427 201.418 385.714 201.709 386.062 201.909C386.419 202.106 386.823 202.207 387.231 202.201C387.64 202.207 388.043 202.106 388.4 201.909C388.744 201.704 389.03 201.414 389.23 201.067C389.422 200.686 389.522 200.266 389.522 199.839C389.522 199.413 389.422 198.992 389.23 198.612C389.03 198.265 388.744 197.975 388.4 197.77C388.043 197.572 387.64 197.471 387.231 197.478C386.823 197.471 386.419 197.572 386.062 197.77C385.714 197.97 385.427 198.261 385.232 198.612C385.032 198.99 384.928 199.411 384.928 199.839C384.928 200.267 385.032 200.688 385.232 201.067Z" fill="white"/>
<path d="M393.346 202.785C393.034 202.451 392.794 202.057 392.641 201.627C392.489 201.196 392.426 200.739 392.457 200.284V196.145H394.176V200.213C394.176 201.546 394.725 202.201 395.812 202.201C396.04 202.218 396.268 202.184 396.481 202.101C396.693 202.018 396.884 201.888 397.04 201.721C397.357 201.286 397.507 200.75 397.461 200.213V196.145H399.156V200.284C399.135 200.951 398.924 201.599 398.547 202.15C398.17 202.702 397.644 203.134 397.03 203.397C396.416 203.66 395.74 203.742 395.081 203.634C394.422 203.525 393.808 203.231 393.31 202.785H393.346Z" fill="white"/>
<path d="M406.568 202.166V203.534H400.84V196.145H406.428V197.513H402.547V199.126H405.972V200.447H402.547V202.166H406.568Z" fill="white"/>
<path d="M408.661 203.428C408.189 203.298 407.742 203.088 407.34 202.809L407.924 201.523C408.283 201.767 408.677 201.952 409.093 202.072C409.516 202.211 409.958 202.282 410.403 202.283C410.773 202.306 411.144 202.234 411.478 202.072C411.583 202.017 411.671 201.935 411.733 201.834C411.795 201.733 411.828 201.618 411.829 201.499C411.83 201.414 411.812 201.33 411.775 201.253C411.739 201.176 411.685 201.108 411.619 201.055C411.462 200.929 411.284 200.834 411.093 200.774C410.87 200.704 410.59 200.634 410.216 200.552C409.748 200.443 409.288 200.307 408.836 200.143C408.478 200.012 408.16 199.791 407.913 199.5C407.645 199.171 407.508 198.755 407.527 198.331C407.523 197.915 407.645 197.507 407.878 197.162C408.14 196.789 408.506 196.5 408.93 196.332C409.473 196.118 410.053 196.014 410.637 196.028C411.106 196.027 411.573 196.086 412.028 196.203C412.441 196.3 412.835 196.462 413.197 196.683L412.671 197.98C412.05 197.615 411.345 197.418 410.625 197.408C410.256 197.379 409.888 197.456 409.561 197.63C409.454 197.694 409.366 197.785 409.304 197.893C409.243 198.002 409.211 198.125 409.21 198.249C409.212 198.372 409.251 198.491 409.322 198.591C409.393 198.692 409.493 198.768 409.608 198.81C409.984 198.972 410.375 199.094 410.777 199.173C411.244 199.282 411.705 199.418 412.156 199.582C412.514 199.709 412.832 199.926 413.08 200.213C413.352 200.54 413.489 200.958 413.466 201.382C413.471 201.799 413.348 202.207 413.115 202.551C412.846 202.923 412.477 203.211 412.051 203.381C411.505 203.597 410.92 203.7 410.333 203.685C409.766 203.676 409.204 203.589 408.661 203.428Z" fill="white"/>
<path d="M416.084 197.536H413.746V196.145H420.188V197.536H417.85V203.534H416.084V197.536Z" fill="white"/>
<path d="M183.63 323.023H269.846C270.371 323.067 270.861 323.306 271.218 323.694C271.575 324.082 271.773 324.59 271.773 325.117C271.773 325.644 271.575 326.152 271.218 326.54C270.861 326.928 270.371 327.168 269.846 327.211H183.63C183.34 327.235 183.049 327.199 182.774 327.104C182.499 327.01 182.247 326.86 182.033 326.663C181.82 326.466 181.649 326.227 181.532 325.961C181.416 325.695 181.355 325.408 181.355 325.117C181.355 324.827 181.416 324.539 181.532 324.273C181.649 324.007 181.82 323.768 182.033 323.572C182.247 323.375 182.499 323.224 182.774 323.13C183.049 323.036 183.34 322.999 183.63 323.023Z" fill="#1A2E35"/>
<path d="M268.7 325.882H232.968C232.808 325.882 232.651 325.843 232.509 325.77C232.368 325.697 232.246 325.59 232.153 325.46C232.061 325.33 232.001 325.18 231.979 325.022C231.956 324.864 231.972 324.703 232.024 324.553L246.417 283.46C246.613 282.909 246.973 282.432 247.448 282.092C247.924 281.752 248.492 281.566 249.076 281.559H284.809C284.968 281.559 285.125 281.598 285.267 281.671C285.409 281.744 285.531 281.85 285.623 281.981C285.715 282.111 285.775 282.261 285.798 282.419C285.82 282.577 285.804 282.738 285.752 282.888L271.359 323.981C271.163 324.532 270.803 325.009 270.328 325.349C269.853 325.689 269.285 325.875 268.7 325.882Z" fill="#1A2E35"/>
<path d="M269.975 325.882H234.242C234.084 325.879 233.929 325.839 233.789 325.765C233.649 325.691 233.529 325.584 233.438 325.455C233.348 325.325 233.289 325.175 233.267 325.019C233.246 324.862 233.261 324.702 233.313 324.553L247.692 283.46C247.889 282.907 248.251 282.428 248.729 282.088C249.207 281.748 249.778 281.563 250.365 281.559H286.098C286.256 281.562 286.412 281.603 286.552 281.677C286.691 281.751 286.812 281.857 286.904 281.986C286.996 282.116 287.056 282.264 287.08 282.421C287.103 282.578 287.09 282.738 287.041 282.888L272.634 323.995C272.436 324.543 272.075 325.017 271.6 325.355C271.125 325.692 270.558 325.876 269.975 325.882Z" fill="#1A2E35"/>
<path opacity="0.7" d="M269.975 325.882H234.242C234.084 325.879 233.929 325.839 233.789 325.765C233.649 325.691 233.529 325.584 233.438 325.455C233.348 325.325 233.289 325.175 233.267 325.019C233.246 324.862 233.261 324.702 233.313 324.553L247.692 283.46C247.889 282.907 248.251 282.428 248.729 282.088C249.207 281.748 249.778 281.563 250.365 281.559H286.098C286.256 281.562 286.412 281.603 286.552 281.677C286.691 281.751 286.812 281.857 286.904 281.986C286.996 282.116 287.056 282.264 287.08 282.421C287.103 282.578 287.09 282.738 287.041 282.888L272.634 323.995C272.436 324.543 272.075 325.017 271.6 325.355C271.125 325.692 270.558 325.876 269.975 325.882Z" fill="white"/>
<path opacity="0.7" d="M229.639 327.168C229.929 327.192 230.22 327.156 230.495 327.061C230.769 326.967 231.022 326.817 231.235 326.62C231.449 326.423 231.62 326.184 231.736 325.918C231.853 325.652 231.913 325.365 231.913 325.074C231.913 324.784 231.853 324.496 231.736 324.23C231.62 323.964 231.449 323.725 231.235 323.529C231.022 323.332 230.769 323.181 230.495 323.087C230.22 322.993 229.929 322.956 229.639 322.98H183.63C183.34 322.956 183.049 322.993 182.774 323.087C182.499 323.181 182.247 323.332 182.033 323.529C181.82 323.725 181.649 323.964 181.532 324.23C181.416 324.496 181.355 324.784 181.355 325.074C181.355 325.365 181.416 325.652 181.532 325.918C181.649 326.184 181.82 326.423 182.033 326.62C182.247 326.817 182.499 326.967 182.774 327.061C183.049 327.156 183.34 327.192 183.63 327.168H229.639Z" fill="white"/>
<path d="M275.033 283.274H284.952L284.123 285.661H274.189L275.033 283.274Z" fill="#16B99B"/>
<path d="M268.213 190.198C300.957 190.198 327.501 163.654 327.501 130.91C327.501 98.1665 300.957 71.6226 268.213 71.6226C235.47 71.6226 208.926 98.1665 208.926 130.91C208.926 163.654 235.47 190.198 268.213 190.198Z" fill="#16B99B"/>
<path opacity="0.3" d="M268.213 190.198C300.957 190.198 327.501 163.654 327.501 130.91C327.501 98.1665 300.957 71.6226 268.213 71.6226C235.47 71.6226 208.926 98.1665 208.926 130.91C208.926 163.654 235.47 190.198 268.213 190.198Z" fill="white"/>
<path opacity="0.9" d="M249.933 147.848V115.874C252.651 114.963 254.956 113.116 256.436 110.662C257.917 108.208 258.477 105.307 258.015 102.478C257.554 99.6494 256.102 97.0769 253.918 95.2204C251.734 93.364 248.961 92.3447 246.095 92.3447C243.229 92.3447 240.456 93.364 238.273 95.2204C236.089 97.0769 234.636 99.6494 234.175 102.478C233.714 105.307 234.273 108.208 235.754 110.662C237.235 113.116 239.54 114.963 242.258 115.874V147.848C239.544 148.758 237.242 150.604 235.764 153.055C234.286 155.507 233.728 158.404 234.19 161.229C234.651 164.054 236.102 166.622 238.283 168.476C240.464 170.33 243.233 171.348 246.095 171.348C248.958 171.348 251.727 170.33 253.908 168.476C256.089 166.622 257.54 164.054 258.001 161.229C258.462 158.404 257.904 155.507 256.426 153.055C254.948 150.604 252.647 148.758 249.933 147.848ZM246.088 100.052C246.957 100.049 247.806 100.304 248.53 100.784C249.253 101.265 249.818 101.949 250.152 102.75C250.487 103.552 250.575 104.435 250.408 105.287C250.24 106.139 249.823 106.922 249.21 107.537C248.597 108.152 247.815 108.572 246.964 108.742C246.112 108.913 245.229 108.827 244.427 108.495C243.624 108.163 242.938 107.601 242.455 106.879C241.972 106.157 241.714 105.308 241.714 104.44C241.714 103.278 242.175 102.164 242.995 101.342C243.814 100.519 244.927 100.055 246.088 100.052ZM246.088 163.656C245.22 163.656 244.371 163.398 243.649 162.915C242.927 162.433 242.364 161.746 242.033 160.944C241.701 160.141 241.615 159.258 241.786 158.407C241.956 157.555 242.375 156.773 242.99 156.16C243.606 155.547 244.389 155.13 245.241 154.962C246.093 154.795 246.976 154.884 247.777 155.218C248.579 155.552 249.263 156.117 249.744 156.84C250.224 157.564 250.479 158.414 250.476 159.282C250.476 159.858 250.362 160.428 250.142 160.959C249.921 161.491 249.598 161.974 249.19 162.38C248.782 162.786 248.299 163.108 247.766 163.327C247.234 163.546 246.664 163.658 246.088 163.656Z" fill="white"/>
<path opacity="0.9" d="M299.644 147.848V116.489C299.641 112.278 297.966 108.242 294.989 105.264C292.012 102.287 287.975 100.613 283.765 100.609H272.33V94.3345L262.211 104.454L272.33 114.588V108.299H283.765C285.93 108.314 288.001 109.182 289.529 110.716C291.057 112.249 291.919 114.324 291.926 116.489V147.848C289.209 148.758 286.903 150.606 285.423 153.06C283.942 155.514 283.382 158.415 283.844 161.244C284.305 164.072 285.758 166.645 287.941 168.501C290.125 170.358 292.898 171.377 295.764 171.377C298.63 171.377 301.403 170.358 303.587 168.501C305.77 166.645 307.223 164.072 307.684 161.244C308.145 158.415 307.586 155.514 306.105 153.06C304.624 150.606 302.319 148.758 299.602 147.848H299.644ZM295.814 163.656C294.945 163.656 294.097 163.398 293.375 162.915C292.653 162.433 292.09 161.746 291.759 160.944C291.427 160.141 291.341 159.258 291.511 158.407C291.682 157.555 292.101 156.773 292.716 156.16C293.331 155.547 294.115 155.13 294.967 154.962C295.819 154.795 296.702 154.884 297.503 155.218C298.305 155.552 298.989 156.117 299.469 156.84C299.95 157.564 300.205 158.414 300.202 159.282C300.202 159.858 300.088 160.428 299.868 160.959C299.647 161.491 299.323 161.974 298.916 162.38C298.508 162.786 298.024 163.108 297.492 163.327C296.96 163.546 296.389 163.658 295.814 163.656Z" fill="white"/>
</svg>
