<svg width="667" height="442" viewBox="0 0 667 442" fill="none" xmlns="http://www.w3.org/2000/svg">
<path d="M336.912 209.821L336.94 209.83L336.931 209.803L336.912 209.812V209.821Z" fill="#F5F5F5"/>
<path d="M337.033 210.044L337.042 210.062L337.033 210.044Z" fill="#F5F5F5"/>
<path d="M337.088 209.923L337.097 209.951L337.116 209.914L337.088 209.923Z" fill="#F5F5F5"/>
<path d="M380.586 119.923L380.781 120.025L451.522 2.3457L413.161 2.53116C413.161 2.53116 389.831 2.35498 383.025 2.53116L353.733 111.327L354.141 111.392L337.32 208.755L380.586 119.923Z" fill="#F5F5F5"/>
<path d="M644.384 0H567.05L404.157 135.956L404.342 136.113L337.273 209.59L646.553 2.53143C645.956 1.58723 645.225 0.734558 644.384 0Z" fill="#F5F5F5"/>
<path d="M667 131.18L338.702 212.093L337.209 210.304L338.034 212.232L337.654 212.325L337.33 212.223L337.515 212.112L337.228 212.186L337.478 211.704L337.181 212.028V212.158L337.014 210.591L336.847 212.01L336.745 211.88L336.801 212.028L336.495 211.926L335.929 211.398L336.504 210.47L335.772 211.277L335.299 210.823L336.477 210.109L334.965 210.517L118.467 6.51855H27.5027L254.683 156.3L334.501 210.628L331.441 211.453L0 154.037V206.891L207.392 213.948L206.14 216.729L326.471 212.798L240.774 235.831C240.774 235.711 240.718 235.599 240.681 235.479L0 331.608V395.042L268.146 251.697L332.35 212.585L334.603 212.52L131.829 434.637H200.614L335.253 212.464L336.773 212.418L309.892 434.637H360.521L337.209 212.557L337.432 212.761L337.2 212.473L338.563 213.401L376.024 301.658L375.83 301.741L460.341 434.637H527.92L400.124 286.97C400.095 286.986 400.07 287.008 400.05 287.035L341.308 215.274L419.365 268.397C419.319 268.452 419.279 268.511 419.244 268.573L654.083 437.233H667V380.29L431.855 242.786L431.799 242.943L339.657 213.271L338.841 212.269L667 185.629V131.18ZM335.021 212.093L333.611 211.852L335.002 210.999L335.623 211.426L335.021 212.093ZM336.792 212.362H336.69L335.466 212.149L335.827 211.546L336.347 211.908L335.994 211.787L336.783 212.325L336.792 212.362ZM337.2 212.492V212.381H337.663L337.255 212.492H338.183L337.775 212.362H338.127L338.34 212.863L337.2 212.492Z" fill="#F5F5F5"/>
<path d="M298.032 117.929L336.838 209.395L325.396 110.641L311.848 2.3457C311.848 2.3457 239.846 2.53116 244.065 2.53116L298.032 117.929Z" fill="#F5F5F5"/>
<path d="M336.763 210.146L336.643 210.888L336.958 210.239L336.93 209.97L336.763 210.146Z" fill="#F5F5F5"/>
<path d="M337.051 209.923L337.069 209.942V209.923H337.051Z" fill="#F5F5F5"/>
<path d="M522.402 131.365C524.869 128.871 658.868 44.6104 658.868 44.6104L661.14 62.4973L522.402 131.365Z" fill="#EBEBEB"/>
<path d="M255.017 82.3872L203.813 8.22461H185.973L255.017 82.3872Z" fill="#EBEBEB"/>
<path d="M11.4512 56.8135V78.02L103.297 119.163L11.4512 56.8135Z" fill="#EBEBEB"/>
<path d="M32.2695 421.21C35.0513 419.828 104.522 380.466 104.522 380.466L55.0617 428.804L32.2695 421.21Z" fill="#EBEBEB"/>
<path d="M167.158 90.8165L159.453 86.6531L151.645 90.6403L153.231 82.0167L147.027 75.8319L155.707 74.6728L159.675 66.8652L163.468 74.7655L172.119 76.1193L165.777 82.1651L167.158 90.8165Z" fill="#E0E0E0"/>
<path d="M390.119 45.649L382.414 41.4856L374.606 45.4728L376.192 36.8493L369.988 30.6644L378.667 29.5053L382.636 21.6885L386.429 29.5888L395.08 30.9519L388.738 36.9976L390.119 45.649Z" fill="#E0E0E0"/>
<path d="M177.57 390.962L169.865 386.79L162.057 390.786L163.643 382.163L157.439 375.978L166.119 374.819L170.087 367.002L173.88 374.902L182.531 376.265L176.189 382.311L177.57 390.962Z" fill="#E0E0E0"/>
<path d="M507.363 387.782L499.648 383.61L491.85 387.597L493.426 378.983L487.223 372.798L495.911 371.639L499.88 363.822L503.663 371.722L512.324 373.085L505.972 379.122L507.363 387.782Z" fill="#E0E0E0"/>
<path d="M110.445 97.0289L106.449 94.8683L102.406 96.9361L103.231 92.4667L100.014 89.2584L104.511 88.6557L106.569 84.6128L108.535 88.702L113.014 89.4068L109.731 92.5409L110.445 97.0289Z" fill="#E0E0E0"/>
<path d="M219.9 409.684L215.903 407.524L211.861 409.591L212.677 405.122L209.459 401.914L213.965 401.311L216.024 397.268L217.981 401.367L222.469 402.062L219.177 405.196L219.9 409.684Z" fill="#E0E0E0"/>
<path d="M460.369 340.223L456.373 338.062L452.33 340.121L453.155 335.661L449.938 332.452L454.435 331.85L456.493 327.807L458.459 331.896L462.947 332.601L459.655 335.735L460.369 340.223Z" fill="#E0E0E0"/>
<path d="M556.016 95.1744L552.019 93.0139L547.976 95.0816L548.802 90.6215L545.584 87.4132L550.081 86.8105L552.14 82.7583L554.106 86.8568L558.594 87.5615L555.302 90.6957L556.016 95.1744Z" fill="#E0E0E0"/>
<path d="M651.57 121.676H492.424V342.884H651.57V121.676Z" fill="white"/>
<path d="M651.57 121.676H492.424V201.745H651.57V121.676Z" fill="#455A64"/>
<path d="M624.011 221.366C624.011 221.505 602.128 221.616 575.144 221.616C548.161 221.616 526.277 221.505 526.277 221.366C526.277 221.227 548.151 221.125 575.144 221.125C602.137 221.125 624.011 221.208 624.011 221.366Z" fill="#263238"/>
<path d="M624.011 242.906C624.011 243.036 602.128 243.147 575.144 243.147C548.161 243.147 526.277 243.036 526.277 242.906C526.277 242.776 548.151 242.665 575.144 242.665C602.137 242.665 624.011 242.776 624.011 242.906Z" fill="#263238"/>
<path d="M624.011 264.474C624.011 264.604 602.128 264.716 575.144 264.716C548.161 264.716 526.277 264.604 526.277 264.474C526.277 264.345 548.151 264.224 575.144 264.224C602.137 264.224 624.011 264.335 624.011 264.474Z" fill="#263238"/>
<path d="M623.603 289.334H528.011C518.609 289.334 510.986 296.957 510.986 306.359V308.13C510.986 317.533 518.609 325.155 528.011 325.155H623.603C633.005 325.155 640.627 317.533 640.627 308.13V306.359C640.627 296.957 633.005 289.334 623.603 289.334Z" fill="#455A64"/>
<path d="M540.141 176.403C540.82 176.677 541.397 177.155 541.792 177.771C542.188 178.388 542.382 179.112 542.348 179.843C542.367 180.573 542.17 181.292 541.782 181.911C541.376 182.51 540.806 182.98 540.141 183.265C539.353 183.599 538.503 183.764 537.646 183.747H535.792V186.529H532.797V175.93H537.637C538.496 175.904 539.35 176.065 540.141 176.403ZM538.861 180.984C539.158 180.676 539.323 180.265 539.323 179.838C539.323 179.411 539.158 179.001 538.861 178.693C538.463 178.391 537.968 178.246 537.47 178.285H535.801V181.382H537.498C537.985 181.412 538.467 181.271 538.861 180.984Z" fill="white"/>
<path d="M548.43 183.7H546.77V186.482H543.803V175.93H548.625C549.481 175.908 550.332 176.073 551.119 176.412C551.602 176.642 552.033 176.97 552.383 177.375C552.734 177.78 552.996 178.253 553.154 178.765C553.312 179.276 553.361 179.815 553.3 180.347C553.239 180.879 553.067 181.392 552.797 181.855C552.419 182.435 551.886 182.897 551.258 183.19L553.539 186.519H550.331L548.43 183.7ZM549.858 178.693C549.46 178.391 548.965 178.246 548.467 178.285H546.77V181.382H548.439C548.935 181.418 549.428 181.277 549.83 180.983C550.126 180.676 550.292 180.265 550.292 179.838C550.292 179.411 550.126 179 549.83 178.693H549.858Z" fill="white"/>
<path d="M563.46 184.201V186.51H554.957V175.93H563.302V178.248H557.961V180.028H562.663V182.272H557.961V184.21L563.46 184.201Z" fill="white"/>
<path d="M574.717 186.51V180.946L571.991 185.518H570.665L567.958 181.095V186.556H565.176V175.93H567.642L571.351 182.04L574.977 175.93H577.444V186.519L574.717 186.51Z" fill="white"/>
<path d="M579.596 175.93H582.591V186.519H579.596V175.93Z" fill="white"/>
<path d="M585.939 185.434C585.483 184.948 585.132 184.374 584.907 183.748C584.682 183.121 584.588 182.455 584.631 181.79V175.93H587.626V181.707C587.626 183.403 588.294 184.247 589.638 184.247C590.983 184.247 591.632 183.403 591.632 181.707V175.93H594.581V181.799C594.624 182.464 594.53 183.13 594.305 183.757C594.08 184.384 593.729 184.958 593.273 185.443C592.233 186.278 590.94 186.733 589.606 186.733C588.272 186.733 586.979 186.278 585.939 185.443V185.434Z" fill="white"/>
<path d="M606.17 186.51V180.946L603.454 185.518H602.118L599.411 181.095V186.556H596.629V175.93H599.095L602.804 182.04L606.43 175.93H608.897V186.519L606.17 186.51Z" fill="white"/>
<path d="M551.527 310.866C550.728 310.44 550.066 309.797 549.617 309.011C549.155 308.214 548.912 307.308 548.912 306.387C548.912 305.465 549.155 304.56 549.617 303.763C550.075 302.996 550.736 302.37 551.527 301.955C552.383 301.502 553.34 301.275 554.309 301.296C555.102 301.281 555.889 301.436 556.618 301.751C557.294 302.034 557.892 302.476 558.361 303.04L556.896 304.393C556.596 304.027 556.219 303.732 555.79 303.531C555.361 303.331 554.893 303.229 554.42 303.234C553.85 303.226 553.287 303.367 552.788 303.642C552.317 303.901 551.929 304.287 551.666 304.755C551.399 305.257 551.262 305.818 551.267 306.387C551.259 306.956 551.396 307.518 551.666 308.019C551.926 308.492 552.315 308.881 552.788 309.141C553.288 309.414 553.85 309.551 554.42 309.54C554.894 309.545 555.363 309.442 555.792 309.24C556.221 309.038 556.598 308.741 556.896 308.371L558.361 309.725C557.892 310.293 557.294 310.741 556.618 311.033C555.88 311.337 555.088 311.489 554.29 311.478C553.332 311.512 552.381 311.302 551.527 310.866Z" fill="white"/>
<path d="M566.559 304.514C566.868 304.849 567.104 305.244 567.254 305.675C567.404 306.106 567.464 306.563 567.43 307.017V311.311H565.233V307.314C565.27 306.836 565.131 306.362 564.843 305.979C564.696 305.827 564.518 305.708 564.322 305.631C564.125 305.555 563.914 305.521 563.703 305.534C563.458 305.522 563.214 305.561 562.986 305.648C562.757 305.736 562.55 305.871 562.377 306.044C562.021 306.471 561.845 307.019 561.885 307.574V311.283H559.688V300.916H561.885V304.569C562.186 304.274 562.546 304.046 562.942 303.902C563.372 303.742 563.828 303.663 564.287 303.67C564.703 303.65 565.118 303.715 565.509 303.86C565.899 304.005 566.256 304.227 566.559 304.514Z" fill="white"/>
<path d="M570.953 310.968C570.339 310.651 569.825 310.169 569.469 309.577C569.117 308.965 568.932 308.271 568.932 307.565C568.932 306.858 569.117 306.164 569.469 305.552C569.826 304.963 570.34 304.485 570.953 304.171C571.619 303.841 572.352 303.67 573.095 303.67C573.838 303.67 574.571 303.841 575.237 304.171C575.847 304.486 576.357 304.964 576.711 305.552C577.064 306.164 577.249 306.858 577.249 307.565C577.249 308.271 577.064 308.965 576.711 309.577C576.359 310.168 575.848 310.65 575.237 310.968C574.569 311.291 573.837 311.459 573.095 311.459C572.353 311.459 571.621 311.291 570.953 310.968ZM574.486 309.113C574.861 308.694 575.054 308.144 575.024 307.583C575.039 307.307 575 307.03 574.908 306.769C574.815 306.508 574.672 306.267 574.486 306.062C574.303 305.88 574.086 305.735 573.848 305.636C573.609 305.537 573.353 305.486 573.095 305.486C572.837 305.486 572.581 305.537 572.342 305.636C572.103 305.735 571.887 305.88 571.704 306.062C571.515 306.266 571.369 306.505 571.275 306.767C571.181 307.028 571.141 307.306 571.157 307.583C571.142 307.862 571.182 308.14 571.276 308.403C571.37 308.666 571.516 308.907 571.704 309.113C572.076 309.476 572.575 309.678 573.095 309.678C573.615 309.678 574.114 309.476 574.486 309.113Z" fill="white"/>
<path d="M580.152 310.967C579.539 310.649 579.026 310.167 578.669 309.576C578.323 308.962 578.141 308.269 578.141 307.564C578.141 306.859 578.323 306.166 578.669 305.552C579.025 304.963 579.539 304.484 580.152 304.17C580.818 303.83 581.556 303.658 582.303 303.67C583.045 303.656 583.778 303.828 584.436 304.17C585.049 304.484 585.563 304.963 585.92 305.552C586.266 306.166 586.448 306.859 586.448 307.564C586.448 308.269 586.266 308.962 585.92 309.576C585.562 310.167 585.049 310.649 584.436 310.967C583.776 311.302 583.044 311.471 582.303 311.459C581.557 311.47 580.819 311.302 580.152 310.967ZM583.685 309.113C584.062 308.695 584.259 308.145 584.232 307.583C584.246 307.306 584.205 307.029 584.111 306.768C584.017 306.506 583.872 306.267 583.685 306.062C583.507 305.875 583.293 305.728 583.055 305.629C582.817 305.53 582.561 305.482 582.303 305.487C582.044 305.48 581.787 305.528 581.547 305.627C581.307 305.726 581.091 305.874 580.913 306.062C580.722 306.265 580.574 306.504 580.479 306.765C580.383 307.027 580.341 307.305 580.356 307.583C580.342 307.862 580.384 308.141 580.48 308.404C580.575 308.667 580.722 308.908 580.913 309.113C581.092 309.299 581.309 309.445 581.548 309.543C581.788 309.64 582.045 309.686 582.303 309.678C582.563 309.684 582.821 309.635 583.061 309.534C583.301 309.433 583.516 309.284 583.694 309.094L583.685 309.113Z" fill="white"/>
<path d="M588.627 311.227C588.118 311.116 587.631 310.919 587.189 310.643L587.922 309.066C588.3 309.306 588.713 309.484 589.146 309.595C589.604 309.729 590.078 309.798 590.555 309.799C591.483 309.799 591.946 309.576 591.946 309.113C591.943 309.004 591.904 308.9 591.835 308.816C591.766 308.732 591.672 308.674 591.566 308.649C591.186 308.527 590.795 308.446 590.398 308.408C589.881 308.336 589.369 308.228 588.868 308.083C588.466 307.966 588.104 307.742 587.82 307.434C587.507 307.07 587.347 306.598 587.375 306.118C587.368 305.659 587.515 305.212 587.792 304.847C588.104 304.449 588.522 304.147 588.998 303.976C589.592 303.763 590.221 303.659 590.852 303.67C591.389 303.669 591.924 303.728 592.447 303.846C592.907 303.94 593.351 304.103 593.764 304.328L593.031 305.895C592.368 305.517 591.616 305.322 590.852 305.329C590.489 305.307 590.126 305.374 589.795 305.524C589.695 305.568 589.609 305.64 589.547 305.73C589.485 305.82 589.449 305.925 589.443 306.034C589.443 306.147 589.481 306.256 589.549 306.345C589.618 306.433 589.714 306.497 589.823 306.526C590.216 306.652 590.619 306.742 591.028 306.795C591.541 306.874 592.049 306.983 592.549 307.119C592.943 307.237 593.298 307.458 593.578 307.759C593.884 308.12 594.04 308.585 594.014 309.057C594.021 309.51 593.874 309.951 593.597 310.309C593.272 310.701 592.845 310.996 592.364 311.162C591.747 311.376 591.097 311.476 590.444 311.459C589.831 311.459 589.22 311.381 588.627 311.227Z" fill="white"/>
<path d="M602.758 308.186H597.037C597.127 308.638 597.389 309.037 597.769 309.298C598.194 309.581 598.696 309.724 599.206 309.706C599.563 309.709 599.918 309.649 600.254 309.53C600.569 309.402 600.856 309.213 601.098 308.974L602.266 310.235C601.87 310.657 601.385 310.986 600.846 311.198C600.307 311.409 599.728 311.499 599.151 311.459C598.366 311.473 597.588 311.305 596.879 310.967C596.251 310.657 595.724 310.174 595.358 309.576C595.012 308.964 594.83 308.272 594.83 307.569C594.83 306.865 595.012 306.174 595.358 305.561C595.703 304.974 596.204 304.492 596.805 304.171C597.435 303.85 598.133 303.684 598.84 303.684C599.547 303.684 600.245 303.85 600.875 304.171C601.469 304.484 601.961 304.96 602.294 305.543C602.645 306.178 602.82 306.895 602.804 307.62C602.804 307.62 602.795 307.815 602.758 308.186ZM597.63 305.747C597.283 306.04 597.061 306.455 597.009 306.906H600.718C600.663 306.458 600.441 306.047 600.096 305.756C599.751 305.469 599.312 305.318 598.863 305.33C598.415 305.315 597.977 305.463 597.63 305.747Z" fill="white"/>
<path d="M516.337 225.362C515.996 225.366 515.666 225.244 515.409 225.019L512.683 222.618C512.407 222.372 512.239 222.026 512.217 221.657C512.196 221.287 512.321 220.924 512.567 220.647C512.813 220.371 513.159 220.203 513.529 220.181C513.898 220.16 514.261 220.285 514.538 220.531L516.235 222.024L520.074 217.777C520.325 217.526 520.664 217.381 521.019 217.371C521.375 217.362 521.72 217.489 521.985 217.726C522.25 217.964 522.414 218.293 522.443 218.648C522.472 219.002 522.364 219.355 522.141 219.632L517.375 224.89C517.245 225.037 517.086 225.156 516.907 225.237C516.728 225.319 516.533 225.362 516.337 225.362Z" fill="#455A64"/>
<path d="M516.338 246.921C515.997 246.925 515.667 246.803 515.411 246.578L512.685 244.186C512.547 244.064 512.435 243.917 512.354 243.751C512.274 243.586 512.227 243.407 512.215 243.223C512.193 242.853 512.318 242.489 512.564 242.211C512.81 241.933 513.156 241.764 513.527 241.742C513.897 241.719 514.261 241.844 514.539 242.09L516.236 243.583L520.075 239.346C520.193 239.198 520.341 239.076 520.508 238.988C520.675 238.899 520.858 238.845 521.046 238.83C521.235 238.814 521.424 238.838 521.604 238.898C521.783 238.958 521.948 239.054 522.089 239.181C522.229 239.307 522.343 239.461 522.422 239.632C522.502 239.804 522.545 239.99 522.55 240.179C522.555 240.368 522.522 240.556 522.452 240.731C522.382 240.907 522.277 241.067 522.143 241.2L517.377 246.458C517.247 246.605 517.087 246.723 516.908 246.803C516.729 246.883 516.534 246.923 516.338 246.921Z" fill="#455A64"/>
<path d="M516.337 268.489C515.996 268.493 515.666 268.371 515.409 268.146L512.683 265.745C512.407 265.499 512.239 265.153 512.217 264.783C512.196 264.414 512.321 264.051 512.567 263.774C512.813 263.498 513.159 263.33 513.529 263.308C513.898 263.286 514.261 263.412 514.538 263.658L516.235 265.151L520.074 260.904C520.325 260.653 520.664 260.508 521.019 260.498C521.375 260.489 521.72 260.616 521.985 260.853C522.25 261.09 522.414 261.42 522.443 261.775C522.472 262.129 522.364 262.482 522.141 262.759L517.375 268.016C517.245 268.164 517.086 268.283 516.907 268.364C516.728 268.446 516.533 268.489 516.337 268.489Z" fill="#455A64"/>
<path d="M581.478 143.067L583.769 147.713L588.906 148.464L585.187 152.08L586.068 157.19L581.478 154.779L576.888 157.19L577.76 152.08L574.051 148.464L579.179 147.713L581.478 143.067Z" fill="white"/>
<path d="M563.443 143.067L565.743 147.713L570.87 148.464L567.161 152.08L568.033 157.19L563.443 154.779L558.853 157.19L559.734 152.08L556.016 148.464L561.153 147.713L563.443 143.067Z" fill="white"/>
<path d="M578.028 162.225L571.992 158.97L565.9 162.086L567.133 155.354L562.283 150.514L569.071 149.605L572.168 143.494L575.135 149.67L581.904 150.736L576.943 155.465L578.028 162.225Z" fill="white"/>
<path d="M561.088 150.105L568.71 149.095L572.187 142.242L575.507 149.169L583.101 150.365L577.538 155.66L578.752 163.254L571.993 159.601L565.149 163.096L566.531 155.539L561.088 150.105ZM580.709 151.107L574.765 150.18L572.159 144.746L569.433 150.115L563.462 150.894L567.718 155.14L566.642 161.093L572.002 158.312L577.296 161.177L576.369 155.233L580.709 151.107Z" fill="#455A64"/>
<path d="M651.551 342.884C651.551 340.937 651.458 252.429 651.329 121.676L651.551 121.898H492.423L492.664 121.657C492.664 204.425 492.664 281.008 492.664 342.865L492.47 342.671L651.616 342.865L492.47 343.06H492.266V342.865C492.266 281.008 492.266 204.425 492.266 121.657V121.416H492.525H651.653H651.866V121.629C651.653 252.429 651.551 340.983 651.551 342.884Z" fill="#263238"/>
<path d="M522.95 93.5328C523.438 92.6342 523.741 91.6473 523.842 90.63C523.943 89.6127 523.839 88.5855 523.538 87.6086C523.236 86.6318 522.743 85.7249 522.086 84.9414C521.43 84.1578 520.623 83.5132 519.714 83.0455C520.005 80.5339 519.318 78.0068 517.795 75.9884C516.272 73.9701 514.031 72.6155 511.536 72.2058C509.143 71.9183 506.723 72.5488 504.322 72.3634C501.92 72.1779 499.843 71.2507 497.562 70.8334C495.281 70.4161 492.657 70.6572 491.071 72.3634C489.337 74.2179 489.597 77.3614 490.978 79.5404C492.36 81.7195 494.585 83.166 496.746 84.5569C496.098 84.5558 495.471 84.7903 494.984 85.2168C494.496 85.6433 494.179 86.2327 494.094 86.8751C493.959 88.1926 494.315 89.5136 495.095 90.5841C496.273 92.3899 497.927 93.8354 499.874 94.7614C501.821 95.6875 503.986 96.0581 506.13 95.8325L512.185 95.6563C513.028 96.2345 513.977 96.6385 514.978 96.8449C515.979 97.0512 517.011 97.0556 518.014 96.8578C519.017 96.66 519.97 96.2641 520.818 95.6931C521.665 95.1222 522.39 94.3877 522.95 93.5328Z" fill="#263238"/>
<path d="M503.82 99.5138C503.197 99.5692 502.576 99.3924 502.077 99.0175C501.577 98.6426 501.233 98.0961 501.112 97.4831C501.017 96.8636 501.093 96.2298 501.334 95.651C501.574 95.0721 501.969 94.5704 502.475 94.2006C503.509 93.491 504.758 93.1632 506.008 93.2733C507.254 93.3789 508.478 93.663 509.643 94.1171C511.475 94.7199 513.228 95.5419 514.863 96.5651C515.454 96.9106 515.96 97.3824 516.347 97.9467C516.539 98.2314 516.65 98.5624 516.67 98.9051C516.689 99.2478 516.616 99.5894 516.458 99.894C515.958 100.71 514.836 100.821 513.88 100.821C510.296 100.838 506.717 100.527 503.189 99.894" fill="#16B99B"/>
<path d="M501.828 97.4738C501.114 90.6862 491.535 84.594 487.399 85.6789C486.347 83.7208 484.58 82.2431 482.467 81.5525C480.354 80.8619 478.056 81.0114 476.05 81.9699L464.774 76.9719C462.846 76.1188 460.824 75.2379 458.728 75.4234C456.633 75.6089 454.5 77.2779 454.574 79.3643C450.504 77.7416 445.413 81.8493 446.155 86.1797C445.548 86.3178 444.975 86.5787 444.473 86.9464C443.971 87.3141 443.549 87.7807 443.233 88.3175C442.918 88.8543 442.716 89.45 442.639 90.0678C442.563 90.6857 442.614 91.3127 442.789 91.9102C437.733 93.1619 432.928 95.2694 428.583 98.1414C426.729 99.3376 424.939 100.812 424.345 102.898C423.752 104.985 425.078 107.711 427.248 107.729C426.276 108.054 425.418 108.651 424.776 109.45C424.135 110.249 423.737 111.217 423.632 112.236C421.953 111.067 419.598 113.247 419.858 115.277C420.117 117.308 421.851 118.773 423.52 119.914C425.189 121.054 427.035 122.297 427.702 124.225C427.54 124.418 427.341 124.576 427.116 124.689C426.891 124.802 426.646 124.868 426.395 124.884C421.888 125.106 418.188 128.472 418.133 132.979C418.133 133.396 418.133 133.785 418.133 134.129C418.133 136.187 419.542 139.154 420.451 140.99C422.741 145.627 425.226 146.916 428.935 150.56C425.838 152.414 428.231 163.282 440.22 163.115C452.571 178.545 462.521 188.262 478.424 199.992C480.695 201.67 483.653 203.367 486.157 202.069C487.641 203.924 490.255 204.517 492.601 204.183C494.923 203.706 497.146 202.837 499.176 201.615C501.559 202.485 504.154 202.595 506.603 201.931C509.052 201.267 511.235 199.861 512.853 197.906C514.957 197.833 517.023 197.322 518.92 196.408C520.816 195.493 522.502 194.194 523.869 192.593C528.551 194.234 534.301 190.812 535.098 185.916C537.724 180.609 539.454 174.903 540.216 169.031C543.239 170.375 546.8 167.584 547.523 164.348C548.247 161.112 547.023 157.857 545.817 154.732C547.393 156.68 550.889 155.474 551.863 153.175C552.837 150.875 552.067 148.223 551.093 145.914C549.678 142.529 547.857 139.328 545.669 136.382C547.254 132.274 545.734 125.143 543.638 121.267C535.181 105.624 527.235 97.4088 501.846 97.3903" fill="#263238"/>
<path d="M474.5 109.083C475.364 107.696 476.72 106.686 478.296 106.255C479.872 105.823 481.553 106.002 483.003 106.756L516.728 118.44C526.631 123.539 525.305 138.978 519.788 148.659C513.659 159.415 505.759 172.304 499.481 179.203C486.852 193.112 471.774 185.75 471.774 185.75L464.356 196.932L455.779 210.016C451.866 206.381 428.146 180.863 428.146 180.863L474.5 109.083Z" fill="#FFBF9D"/>
<path d="M488.808 160.982C488.872 160.853 490.356 161.492 492.693 162.633C493.277 162.939 493.861 163.171 494.195 162.855C494.611 162.322 494.857 161.676 494.9 161.001C495.252 159.344 495.623 157.604 496.012 155.78C497.654 148.362 499.221 142.456 499.517 142.521C499.814 142.585 498.729 148.64 497.088 156.031C496.671 157.885 496.272 159.573 495.883 161.233C495.795 162.117 495.397 162.941 494.761 163.56C494.555 163.7 494.321 163.791 494.075 163.826C493.829 163.862 493.578 163.84 493.342 163.764C492.987 163.649 492.647 163.49 492.331 163.291C490.087 162.021 488.733 161.094 488.808 160.982Z" fill="#263238"/>
<path d="M471.775 185.74C471.775 185.74 462.817 181.104 456.558 168.122C456.558 168.122 451.486 181.299 468.223 191.09L471.775 185.74Z" fill="#FF9A6C"/>
<path d="M496.699 131.514C496.106 131.959 494.149 130.28 491.442 128.936C488.734 127.591 486.258 126.942 486.268 126.21C486.268 125.857 486.991 125.542 488.178 125.514C489.722 125.542 491.24 125.921 492.616 126.621C493.993 127.322 495.192 128.325 496.124 129.557C496.755 130.54 496.922 131.3 496.699 131.514Z" fill="#263238"/>
<path d="M516.812 145.571C516.117 145.812 514.958 144.338 513.215 143.151C511.471 141.964 509.737 141.296 509.719 140.601C509.719 140.258 510.284 139.924 511.249 139.896C512.492 139.902 513.701 140.298 514.707 141.027C515.738 141.729 516.525 142.734 516.961 143.902C517.257 144.811 517.1 145.441 516.812 145.571Z" fill="#263238"/>
<path d="M521.327 160.741C522.982 158.316 523.752 155.395 523.506 152.47C523.302 150.893 522.7 149.372 522.663 147.778C522.579 144.337 525.036 141.426 526.27 138.217C527.046 136.132 527.314 133.892 527.051 131.683C526.788 129.474 526.002 127.359 524.758 125.514C522.663 122.473 519.371 120.303 517.748 116.992C516.543 114.544 516.348 111.67 514.966 109.305C512.342 104.669 506.352 103.408 501.057 102.944C498.201 105.355 498.276 109.24 498.276 112.977C498.299 114.846 498.725 116.687 499.525 118.375C500.325 120.063 501.481 121.559 502.912 122.76C505.156 124.615 508.271 126.042 508.717 128.908C509.18 131.921 506.269 134.536 506.232 137.578C506.185 141.936 511.619 144.189 513.381 148.176C514.734 151.246 513.696 154.778 513.103 158.089C512.509 161.399 512.713 165.451 515.532 167.287C517.707 165.333 519.651 163.136 521.327 160.741Z" fill="#263238"/>
<path d="M503.088 112.523C496.285 107.456 488.563 103.756 480.351 101.628C477.913 100.998 475.27 100.515 472.933 101.47C470.884 102.305 469.4 104.104 468.121 105.921C464.134 111.587 461.426 120.108 459.775 126.859L463.763 136.132C470.096 138.756 474.352 127.629 477.477 122.76C479.979 123.259 482.571 123.045 484.958 122.144C487.344 121.242 489.43 119.689 490.978 117.66C493.253 117.774 495.525 117.37 497.622 116.48C499.719 115.591 501.588 114.238 503.088 112.523Z" fill="#263238"/>
<path d="M465.173 134.045C467.287 130.67 463.782 127.193 459.822 126.859C457.652 126.674 455.186 127.647 452.933 131.208C446.887 140.684 457.652 144.811 457.847 144.542C458.042 144.273 462.697 137.986 465.173 134.045Z" fill="#FFBF9D"/>
<path d="M457.235 139.108C457.235 139.043 456.994 139.108 456.632 139.108C456.132 139.027 455.683 138.754 455.38 138.348C454.611 137.337 454.787 135.214 455.825 133.47C456.322 132.643 456.997 131.936 457.801 131.403C458.078 131.164 458.41 130.996 458.767 130.914C459.124 130.831 459.495 130.837 459.85 130.93C460.072 131 460.263 131.146 460.389 131.343C460.514 131.539 460.566 131.774 460.536 132.005C460.536 132.348 460.313 132.497 460.36 132.552C460.406 132.608 460.657 132.552 460.833 132.079C460.927 131.809 460.927 131.515 460.833 131.245C460.696 130.881 460.423 130.585 460.072 130.42C459.634 130.252 459.159 130.198 458.694 130.262C458.229 130.327 457.787 130.509 457.411 130.791C456.48 131.352 455.703 132.136 455.149 133.072C453.99 135.019 453.823 137.43 454.945 138.7C455.152 138.936 455.409 139.123 455.698 139.246C455.987 139.37 456.3 139.427 456.614 139.414C457.068 139.321 457.253 139.145 457.235 139.108Z" fill="#FF9A6C"/>
<path d="M453.451 142.205C453.451 142.205 453.451 142.205 453.34 142.307C453.229 142.408 453.104 142.492 452.969 142.557C452.428 142.824 451.81 142.89 451.225 142.743C450.293 142.543 449.412 142.152 448.638 141.593C448.14 141.251 447.674 140.863 447.247 140.434C446.746 139.96 446.324 139.409 445.996 138.802H446.144C445.464 139.485 444.618 139.98 443.69 140.238C442.761 140.496 441.781 140.508 440.846 140.273C439.911 140.039 439.054 139.565 438.357 138.899C437.66 138.233 437.148 137.398 436.871 136.474L437.048 136.558C436.471 136.769 435.836 136.745 435.276 136.493C434.712 136.238 434.232 135.826 433.895 135.306C433.531 134.759 433.359 134.107 433.403 133.452C433.449 132.79 433.662 132.152 434.025 131.597C434.778 130.471 435.904 129.647 437.205 129.27C438.539 128.905 439.912 128.702 441.294 128.667L441.165 128.889C440.958 128.378 440.861 127.829 440.88 127.278C440.899 126.727 441.034 126.186 441.276 125.69C441.747 124.658 442.511 123.788 443.474 123.187C444.47 122.608 445.569 122.227 446.71 122.065C447.859 121.9 449.017 121.811 450.178 121.796L450.02 121.991C449.946 121.404 449.998 120.808 450.17 120.242C450.343 119.677 450.633 119.154 451.021 118.708C451.798 117.77 452.838 117.085 454.007 116.742C456.251 116.093 458.551 116.492 460.684 116.844L460.498 116.956C460.939 115.829 461.649 114.828 462.565 114.038C463.482 113.249 464.578 112.696 465.757 112.427C466.937 112.158 468.164 112.182 469.332 112.496C470.501 112.81 471.574 113.405 472.46 114.229L472.209 114.285C472.626 113.395 473.242 112.613 474.009 111.999C474.776 111.385 475.673 110.955 476.632 110.743C477.517 110.512 478.44 110.476 479.34 110.636C480.239 110.796 481.093 111.149 481.844 111.67H481.649C482.23 110.91 482.975 110.291 483.83 109.861C484.684 109.43 485.625 109.199 486.582 109.185C487.419 109.146 488.255 109.275 489.041 109.567C489.826 109.859 490.545 110.306 491.153 110.882H490.977C491.626 110.089 492.461 109.468 493.407 109.074C494.225 108.705 495.1 108.479 495.994 108.406C497.422 108.248 498.863 108.574 500.083 109.333L500.435 109.556C500.547 109.639 500.649 109.732 500.741 109.816C500.926 109.967 501.102 110.128 501.27 110.298C501.523 110.57 501.756 110.862 501.965 111.169C502.114 111.42 502.225 111.615 502.318 111.754L502.429 111.958C502.376 111.901 502.33 111.839 502.29 111.772L501.91 111.207C501.695 110.909 501.46 110.627 501.205 110.363C501.039 110.197 500.863 110.042 500.676 109.899L500.37 109.649L500.018 109.435C498.81 108.726 497.403 108.432 496.012 108.601C495.14 108.689 494.287 108.921 493.49 109.287C492.579 109.666 491.779 110.269 491.163 111.04L491.079 111.142L490.996 111.049C490.408 110.498 489.715 110.073 488.958 109.798C488.2 109.524 487.395 109.407 486.591 109.454C485.664 109.479 484.756 109.716 483.936 110.149C483.115 110.582 482.406 111.197 481.862 111.948L481.779 112.069L481.668 111.985C480.946 111.497 480.128 111.17 479.268 111.027C478.409 110.885 477.528 110.93 476.688 111.16C475.775 111.364 474.921 111.774 474.191 112.359C473.461 112.944 472.875 113.688 472.478 114.535L472.386 114.739L472.228 114.591C471.377 113.813 470.35 113.253 469.235 112.958C468.12 112.664 466.95 112.645 465.826 112.902C464.702 113.159 463.657 113.685 462.781 114.435C461.904 115.184 461.223 116.135 460.795 117.206V117.336H460.656C458.523 116.983 456.279 116.603 454.165 117.224C453.075 117.554 452.107 118.199 451.383 119.079C451.023 119.488 450.754 119.97 450.595 120.491C450.435 121.012 450.387 121.561 450.456 122.102V122.287H450.261C447.961 122.352 445.625 122.473 443.724 123.623C442.815 124.182 442.092 124.998 441.647 125.969C441.422 126.423 441.296 126.919 441.275 127.426C441.254 127.932 441.34 128.437 441.526 128.908L441.619 129.121H441.387C440.03 129.152 438.682 129.348 437.372 129.705C436.137 130.054 435.066 130.829 434.349 131.894C433.997 132.373 433.795 132.946 433.768 133.54C433.742 134.135 433.892 134.723 434.201 135.232C434.472 135.716 434.899 136.094 435.413 136.305C435.926 136.515 436.496 136.546 437.029 136.391L437.159 136.345L437.205 136.484C437.51 137.434 438.07 138.282 438.824 138.936C439.577 139.59 440.496 140.025 441.48 140.193C442.314 140.318 443.166 140.251 443.97 139.995C444.773 139.74 445.508 139.303 446.116 138.718L446.209 138.626L446.265 138.737C446.58 139.329 446.983 139.87 447.461 140.341C447.878 140.767 448.334 141.152 448.824 141.491C449.577 142.049 450.435 142.449 451.346 142.669C451.913 142.817 452.514 142.771 453.052 142.539C453.293 142.335 453.442 142.186 453.451 142.205Z" fill="#455A64"/>
<path d="M425.81 107.396C425.798 107.129 425.817 106.861 425.866 106.598C425.99 105.834 426.268 105.102 426.682 104.447C427.329 103.389 428.307 102.574 429.464 102.129C430.242 101.84 431.072 101.716 431.9 101.765C432.729 101.815 433.538 102.037 434.276 102.416H434.128C434.943 100.65 436.398 99.2581 438.199 98.5218C439.191 98.0954 440.263 97.8867 441.342 97.9099C442.472 98.0149 443.59 98.226 444.68 98.5404C445.239 98.6733 445.813 98.7233 446.386 98.6888C446.967 98.6468 447.529 98.4689 448.028 98.1695C449.066 97.5946 449.938 96.6581 451.125 96.0831C452.371 95.5201 453.757 95.3437 455.104 95.5768C456.451 95.8099 457.698 96.4417 458.682 97.3906H458.413C459.053 96.1703 459.966 95.1136 461.08 94.3023C462.194 93.4911 463.48 92.947 464.838 92.7121C466.196 92.4773 467.59 92.558 468.912 92.9479C470.234 93.3379 471.448 94.0268 472.461 94.9612H472.201C472.953 93.6503 474.065 92.5826 475.406 91.8847C476.746 91.1868 478.259 90.8879 479.764 91.0236C481.269 91.1593 482.703 91.7238 483.897 92.6501C485.091 93.5765 485.995 94.8259 486.5 96.2501L486.342 96.1573C487.88 95.9428 489.446 96.063 490.932 96.5097C492.263 96.8835 493.541 97.4257 494.734 98.1231C496.688 99.226 498.428 100.671 499.871 102.389C500.813 103.473 501.571 104.704 502.115 106.033C502.26 106.382 502.378 106.741 502.467 107.108C502.507 107.23 502.538 107.354 502.56 107.479C502.56 107.479 502.412 106.979 502.041 106.07C501.464 104.767 500.691 103.56 499.75 102.491C498.301 100.811 496.565 99.4009 494.623 98.3271C493.441 97.6429 492.176 97.1161 490.858 96.7601C489.408 96.3376 487.885 96.227 486.389 96.4355H486.277V96.3242C485.778 94.9666 484.901 93.7798 483.75 92.9037C482.598 92.0275 481.221 91.4984 479.779 91.3786C478.337 91.2588 476.892 91.5532 475.612 92.2273C474.332 92.9014 473.271 93.9271 472.554 95.1837L472.452 95.3692L472.294 95.2301C471.317 94.3158 470.14 93.6406 468.858 93.2575C467.575 92.8744 466.221 92.7938 464.902 93.022C463.583 93.2502 462.335 93.781 461.256 94.5728C460.177 95.3646 459.296 96.3957 458.682 97.5853L458.571 97.7893L458.413 97.6224C457.476 96.7311 456.294 96.1402 455.018 95.9254C453.743 95.7106 452.432 95.8818 451.255 96.417C450.133 96.9455 449.261 97.8728 448.167 98.494C447.626 98.8087 447.02 98.9958 446.396 99.0411C445.797 99.0707 445.198 99.0145 444.615 98.8742C443.54 98.5639 442.438 98.3528 441.324 98.2437C440.284 98.2105 439.249 98.4035 438.291 98.8093C436.55 99.5033 435.133 100.827 434.323 102.518L434.267 102.63L434.165 102.574C433.456 102.203 432.678 101.983 431.88 101.929C431.082 101.874 430.281 101.987 429.529 102.259C428.384 102.673 427.407 103.452 426.747 104.475C426.332 105.113 426.042 105.824 425.894 106.571C425.829 107.118 425.829 107.396 425.81 107.396Z" fill="#455A64"/>
<path d="M511.09 172.805C511.115 172.646 511.173 172.495 511.261 172.36C511.349 172.226 511.464 172.112 511.6 172.026C511.921 171.814 512.291 171.686 512.675 171.655C513.197 171.636 513.717 171.721 514.205 171.905C514.8 172.136 515.424 172.282 516.06 172.341C516.812 172.332 517.541 172.078 518.137 171.618C518.836 171.099 519.425 170.446 519.871 169.698C520.381 168.929 520.798 168.048 521.457 167.195C522.69 165.451 524.683 164.227 526.501 162.651C527.451 161.847 528.23 160.86 528.791 159.749C529.094 159.174 529.268 158.541 529.304 157.893C529.339 157.245 529.234 156.597 528.995 155.993C528.331 154.769 527.522 153.629 526.584 152.6C526.117 152.018 525.751 151.363 525.499 150.662C525.274 149.925 525.236 149.144 525.388 148.39C525.78 146.911 526.327 145.478 527.02 144.115C527.335 143.424 527.544 142.689 527.641 141.936C527.718 141.184 527.545 140.429 527.15 139.785C526.483 138.975 525.72 138.249 524.878 137.624C524.464 137.27 524.11 136.85 523.83 136.382C523.561 135.901 523.426 135.356 523.441 134.805C523.537 133.771 523.78 132.757 524.164 131.792C524.484 130.866 524.601 129.883 524.507 128.908C524.429 127.979 524.158 127.077 523.713 126.258C523.268 125.439 522.657 124.722 521.92 124.151C520.529 123.087 518.787 122.587 517.043 122.751H516.839V122.547C517.127 121.056 517.095 119.52 516.743 118.043C516.391 116.565 515.728 115.18 514.799 113.979C514.018 112.98 513.052 112.143 511.952 111.512C511.024 110.967 510.007 110.59 508.948 110.4C507.451 110.146 505.913 110.327 504.515 110.919C504.146 111.069 503.789 111.249 503.449 111.457L503.18 111.596H503.078L503.162 111.531L503.421 111.364C503.758 111.143 504.115 110.954 504.488 110.798C505.89 110.155 507.452 109.942 508.976 110.186C510.061 110.362 511.104 110.736 512.054 111.29C513.186 111.924 514.184 112.771 514.993 113.784C515.954 115.011 516.642 116.43 517.01 117.944C517.377 119.459 517.417 121.034 517.126 122.565L516.959 122.389C518.78 122.203 520.603 122.717 522.059 123.826C522.843 124.418 523.495 125.166 523.974 126.023C524.453 126.881 524.748 127.828 524.841 128.806C524.937 129.821 524.817 130.845 524.489 131.81C524.118 132.747 523.878 133.729 523.775 134.731C523.789 135.231 523.916 135.722 524.145 136.166C524.375 136.611 524.701 136.998 525.101 137.3C525.974 137.935 526.76 138.684 527.437 139.525C527.869 140.234 528.057 141.064 527.975 141.89C527.883 142.679 527.667 143.449 527.335 144.171C526.652 145.514 526.111 146.925 525.722 148.38C525.571 149.078 525.603 149.803 525.815 150.485C526.054 151.156 526.401 151.782 526.844 152.34C527.799 153.389 528.618 154.554 529.283 155.808C529.56 156.456 529.672 157.164 529.607 157.866C529.545 158.543 529.36 159.203 529.06 159.814C528.483 160.959 527.679 161.975 526.696 162.799C524.841 164.394 522.857 165.581 521.651 167.269C521.048 168.103 520.576 168.975 520.056 169.754C519.569 170.519 518.94 171.183 518.202 171.71C517.569 172.186 516.796 172.44 516.004 172.434C515.366 172.373 514.741 172.217 514.15 171.97C513.678 171.78 513.174 171.686 512.666 171.692C512.295 171.711 511.935 171.822 511.618 172.016C511.353 172.207 511.165 172.487 511.09 172.805Z" fill="#455A64"/>
<path d="M538.954 171.479C538.941 171.399 538.941 171.318 538.954 171.238L539.074 170.542C539.186 169.921 539.353 169.031 539.566 167.89C539.779 166.75 540.076 165.34 540.261 163.69C540.552 161.838 540.315 159.942 539.575 158.219C539.13 157.292 538.472 156.364 537.887 155.437C537.579 154.93 537.339 154.384 537.174 153.814C536.997 153.212 536.972 152.575 537.099 151.96C537.35 150.708 538.11 149.623 538.472 148.399C538.658 147.795 538.658 147.149 538.472 146.545C538.244 145.914 537.916 145.325 537.498 144.801C537.055 144.245 536.664 143.649 536.33 143.021C536.003 142.344 535.893 141.583 536.014 140.842C536.42 139.402 537.019 138.023 537.795 136.743C538.139 136.091 538.344 135.374 538.397 134.639C538.408 134.273 538.347 133.908 538.216 133.566C538.086 133.224 537.889 132.911 537.637 132.645C536.617 131.523 535.032 131.013 533.854 129.863C533.273 129.261 532.893 128.493 532.769 127.666C532.676 126.874 532.676 126.074 532.769 125.283C532.834 124.504 532.917 123.734 532.908 122.983C532.917 122.25 532.741 121.526 532.398 120.878C531.675 119.589 530.247 118.968 528.93 118.421C527.547 117.965 526.281 117.212 525.221 116.214C524.338 115.167 523.656 113.966 523.209 112.672C522.83 111.459 522.336 110.286 521.735 109.167C520.413 107.316 518.574 105.897 516.449 105.087C514.705 104.4 512.828 104.117 510.96 104.261C509.55 104.385 508.167 104.726 506.861 105.272C506.041 105.63 505.252 106.058 504.506 106.552L503.913 106.923L503.699 107.043L503.894 106.895L504.469 106.487C505.208 105.97 505.993 105.523 506.815 105.152C508.128 104.575 509.523 104.209 510.95 104.067C512.842 103.904 514.745 104.177 516.514 104.864C518.692 105.679 520.58 107.122 521.939 109.009C522.601 110.108 523.154 111.27 523.589 112.477C524.031 113.733 524.697 114.899 525.555 115.917C526.578 116.871 527.796 117.593 529.125 118.031C529.813 118.305 530.479 118.63 531.118 119.005C531.805 119.389 532.372 119.955 532.758 120.64C533.144 121.326 533.334 122.104 533.307 122.89C533.306 123.671 533.262 124.451 533.177 125.227C533.084 125.991 533.084 126.763 533.177 127.526C533.282 128.285 533.627 128.99 534.16 129.539C535.254 130.642 536.84 131.152 537.952 132.32C538.518 132.925 538.821 133.728 538.796 134.555C538.743 135.337 538.525 136.098 538.156 136.79C537.517 138.162 536.636 139.405 536.404 140.796C536.288 141.477 536.388 142.177 536.691 142.799C537.013 143.409 537.388 143.989 537.813 144.533C538.259 145.086 538.604 145.714 538.833 146.387C539.042 147.054 539.042 147.769 538.833 148.436C538.444 149.725 537.693 150.792 537.452 151.969C537.269 153.124 537.534 154.305 538.193 155.27C538.75 156.253 539.417 157.125 539.872 158.108C540.606 159.864 540.834 161.792 540.53 163.671C540.326 165.331 539.992 166.731 539.77 167.881C539.547 169.031 539.343 169.893 539.213 170.524C539.149 170.811 539.102 171.034 539.065 171.21C539.04 171.304 539.002 171.394 538.954 171.479Z" fill="#455A64"/>
<path d="M536.155 154.946L536.34 155.039C536.512 155.154 536.652 155.31 536.748 155.493C536.893 155.864 536.945 156.265 536.9 156.661C536.855 157.057 536.713 157.436 536.489 157.765C536.153 158.221 535.757 158.629 535.311 158.979C534.787 159.383 534.322 159.857 533.929 160.389C533.557 161.041 533.362 161.78 533.364 162.531C533.364 163.338 533.364 164.2 533.271 165.118C533.237 165.611 533.091 166.089 532.843 166.517C532.596 166.944 532.254 167.31 531.843 167.584C530.99 168.15 529.988 168.391 529.108 168.975C528.263 169.639 527.705 170.602 527.55 171.664C527.299 172.749 527.225 173.927 526.901 175.105C526.751 175.71 526.49 176.282 526.131 176.792C525.744 177.304 525.254 177.731 524.694 178.044C523.536 178.604 522.328 179.054 521.087 179.388C519.835 179.712 518.75 180.493 518.045 181.577C517.518 182.816 517.142 184.114 516.923 185.444C516.75 186.131 516.455 186.781 516.052 187.363C515.623 187.925 515.071 188.382 514.438 188.698C513.21 189.225 511.925 189.608 510.609 189.839C509.371 190.076 508.195 190.562 507.15 191.267C506.204 192.054 505.203 192.773 504.155 193.418C503.617 193.715 503.016 193.881 502.402 193.9C501.811 193.9 501.224 193.796 500.668 193.594C500.149 193.409 499.62 193.255 499.083 193.131C498.562 193.046 498.032 193.03 497.506 193.084C496.509 193.249 495.536 193.542 494.613 193.956C493.686 194.336 492.833 194.716 491.961 195.004C490.384 195.528 488.68 195.528 487.102 195.004C485.916 194.633 484.829 193.999 483.922 193.149C483.351 192.61 482.869 191.984 482.494 191.295C482.362 191.057 482.251 190.809 482.16 190.553C482.622 191.487 483.25 192.329 484.015 193.038C484.917 193.857 485.991 194.465 487.158 194.818C488.704 195.291 490.361 195.259 491.887 194.725C492.74 194.438 493.593 194.058 494.511 193.668C495.455 193.23 496.453 192.918 497.479 192.741C498.026 192.662 498.582 192.662 499.129 192.741C499.679 192.862 500.221 193.017 500.752 193.205C501.278 193.396 501.833 193.493 502.393 193.492C502.962 193.467 503.517 193.312 504.016 193.038C505.046 192.391 506.031 191.675 506.964 190.896C508.039 190.166 509.25 189.661 510.525 189.412C511.801 189.179 513.046 188.8 514.234 188.281C514.821 187.992 515.333 187.57 515.727 187.048C516.11 186.505 516.386 185.894 516.543 185.249C516.769 183.89 517.158 182.564 517.702 181.299C518.044 180.696 518.528 180.187 519.112 179.815C519.693 179.456 520.315 179.169 520.966 178.962C522.181 178.669 523.369 178.275 524.518 177.784C525.036 177.487 525.49 177.09 525.853 176.616C526.189 176.135 526.437 175.598 526.585 175.03C526.901 173.899 526.975 172.731 527.234 171.618C527.413 170.484 528.021 169.461 528.931 168.762C529.859 168.141 530.879 167.909 531.713 167.38C532.095 167.129 532.413 166.794 532.645 166.4C532.876 166.006 533.015 165.564 533.048 165.109C533.16 164.237 533.104 163.365 533.16 162.549C533.169 161.762 533.386 160.991 533.79 160.315C534.194 159.772 534.675 159.29 535.218 158.887C535.664 158.555 536.061 158.162 536.396 157.718C536.618 157.408 536.762 157.049 536.815 156.671C536.869 156.293 536.83 155.908 536.702 155.549C536.581 155.299 536.391 155.09 536.155 154.946Z" fill="#455A64"/>
<path d="M480.063 159.304C480.4 159.102 480.802 159.038 481.185 159.124C481.569 159.21 481.904 159.441 482.122 159.767C483.513 161.835 484.904 163.903 486.304 165.98L486.777 166.666C485.653 167.636 484.406 168.452 483.068 169.096C482.487 169.365 481.854 169.505 481.213 169.505C480.573 169.505 479.94 169.365 479.359 169.096C478.472 168.546 477.783 167.727 477.393 166.759C476.753 165.192 476.234 163.588 476.948 162.058C477.467 160.936 479.081 159.934 480.063 159.304Z" fill="#FF9A6C"/>
<path d="M449.149 136.818C448.522 136.647 447.87 136.581 447.221 136.623C445.416 136.704 443.699 137.427 442.38 138.663C441.459 139.502 440.745 140.543 440.294 141.704C439.8 143.046 439.628 144.485 439.793 145.905C439.965 147.478 440.536 148.982 441.453 150.272C442.449 151.661 443.842 152.715 445.45 153.295C447.046 153.892 448.778 154.026 450.448 153.685C452.005 153.363 453.435 152.597 454.565 151.478C455.517 150.54 456.242 149.396 456.683 148.134C457.123 146.872 457.268 145.526 457.105 144.199C456.931 143.189 456.556 142.224 456.002 141.361C455.601 140.706 455.111 140.11 454.546 139.59C454.186 139.264 453.78 138.992 453.341 138.783C453.192 138.701 453.028 138.65 452.859 138.635C453.439 138.904 453.97 139.271 454.426 139.72C455.672 140.939 456.506 142.519 456.809 144.236C456.943 145.512 456.785 146.801 456.349 148.008C455.912 149.214 455.207 150.305 454.287 151.2C453.206 152.255 451.844 152.976 450.364 153.277C448.77 153.59 447.12 153.455 445.598 152.887C444.073 152.338 442.749 151.343 441.796 150.031C440.914 148.799 440.359 147.364 440.183 145.858C440.015 144.498 440.167 143.116 440.628 141.825C441.048 140.709 441.717 139.703 442.584 138.885C443.847 137.68 445.482 136.941 447.221 136.79C448.482 136.706 449.14 136.873 449.149 136.818Z" fill="#E0E0E0"/>
<path d="M486.694 144.115C486.351 144.652 485.811 145.032 485.19 145.175C484.569 145.317 483.917 145.21 483.375 144.876C483.1 144.729 482.857 144.528 482.66 144.285C482.464 144.042 482.318 143.763 482.232 143.463C482.146 143.163 482.12 142.849 482.157 142.539C482.194 142.229 482.293 141.929 482.447 141.658C482.792 141.123 483.332 140.745 483.953 140.603C484.573 140.461 485.224 140.566 485.767 140.898C486.044 141.043 486.289 141.243 486.487 141.486C486.684 141.728 486.831 142.008 486.918 142.309C487.004 142.609 487.029 142.924 486.991 143.235C486.952 143.545 486.852 143.845 486.694 144.115Z" fill="#263238"/>
<path d="M506.074 157.644C505.727 158.177 505.187 158.554 504.568 158.696C503.948 158.838 503.298 158.733 502.754 158.404C502.479 158.256 502.236 158.054 502.039 157.811C501.843 157.567 501.697 157.287 501.611 156.986C501.524 156.685 501.499 156.37 501.536 156.06C501.573 155.749 501.672 155.449 501.827 155.177C502.173 154.644 502.713 154.267 503.333 154.125C503.952 153.983 504.603 154.088 505.146 154.417C505.422 154.565 505.665 154.767 505.861 155.011C506.058 155.254 506.203 155.534 506.29 155.835C506.376 156.136 506.402 156.451 506.365 156.761C506.327 157.072 506.229 157.372 506.074 157.644Z" fill="#263238"/>
<path d="M511.62 152.303C511.221 152.47 510.451 150.346 508.356 149.159C506.26 147.973 504.044 148.334 503.988 147.898C503.988 147.704 504.489 147.305 505.472 147.119C506.74 146.888 508.05 147.114 509.167 147.757C510.285 148.401 511.137 149.42 511.573 150.634C511.898 151.58 511.814 152.238 511.62 152.303Z" fill="#263238"/>
<path d="M491.934 140.499C491.442 140.61 490.719 138.116 488.364 136.447C486.008 134.778 483.412 134.824 483.375 134.332C483.375 134.101 484.006 133.748 485.174 133.693C486.701 133.654 488.199 134.117 489.439 135.009C490.671 135.893 491.571 137.162 491.999 138.616C492.305 139.766 492.156 140.452 491.934 140.499Z" fill="#263238"/>
<path d="M481.177 169.281C481.177 169.281 480.843 169.411 480.249 169.281C479.378 169.07 478.594 168.593 478.005 167.918C477.105 166.945 476.509 165.73 476.29 164.422C476.148 163.622 476.238 162.799 476.55 162.048C476.906 161.269 477.436 160.581 478.098 160.036C478.732 159.508 479.426 159.057 480.166 158.692C480.371 158.564 480.602 158.482 480.842 158.451C481.082 158.421 481.326 158.443 481.557 158.515C481.958 158.716 482.283 159.042 482.484 159.443L484.487 162.632C485.146 163.601 485.697 164.64 486.128 165.73C485.315 164.885 484.6 163.952 483.995 162.948C483.328 162.02 482.614 160.954 481.853 159.851C481.446 159.183 481.149 159.025 480.481 159.387C479.797 159.739 479.153 160.165 478.562 160.657C477.989 161.078 477.539 161.643 477.255 162.294C476.972 162.946 476.866 163.661 476.948 164.366C477.131 165.552 477.623 166.669 478.376 167.603C478.881 168.242 479.547 168.734 480.305 169.031C480.843 169.207 481.186 169.216 481.177 169.281Z" fill="#263238"/>
<path d="M565.178 133.211C564.827 132.078 564.342 130.992 563.732 129.974C562.974 128.821 562.005 127.82 560.876 127.026C559.392 125.979 557.652 125.354 555.841 125.218H555.553V124.921C555.731 122.513 554.962 120.132 553.411 118.282C552.563 117.19 551.484 116.3 550.251 115.675C549.018 115.05 547.662 114.705 546.281 114.665H545.919V114.304C545.842 110.422 544.279 106.718 541.552 103.955C539.416 101.817 536.668 100.398 533.689 99.894C530.966 99.421 528.167 99.7032 525.594 100.71L525.427 100.775L525.269 100.673C522.656 98.9206 519.706 97.7331 516.608 97.1864C514.198 96.7403 511.732 96.6746 509.302 96.9917C507.162 97.3171 505.062 97.8609 503.033 98.6144C503.033 98.6144 503.154 98.5217 503.413 98.3918C503.673 98.262 504.062 98.058 504.582 97.854C506.076 97.2619 507.631 96.8359 509.218 96.5837C511.69 96.1843 514.21 96.1843 516.683 96.5837C519.877 97.1037 522.926 98.2917 525.631 100.07H525.306C527.99 98.9805 530.925 98.6594 533.781 99.1429C536.92 99.6512 539.818 101.138 542.062 103.39C544.933 106.288 546.568 110.187 546.624 114.267L546.262 113.905C547.748 113.955 549.205 114.334 550.528 115.014C551.85 115.694 553.006 116.658 553.912 117.837C555.553 119.819 556.352 122.366 556.138 124.93L555.878 124.624C557.785 124.788 559.607 125.486 561.136 126.636C562.29 127.481 563.261 128.55 563.992 129.78C564.454 130.552 564.803 131.385 565.03 132.256C565.116 132.567 565.166 132.888 565.178 133.211Z" fill="#263238"/>
<path d="M505.777 85.4286C504.816 85.2659 503.904 84.8922 503.106 84.3345C501.972 83.603 500.995 82.6518 500.234 81.5371C499.473 80.4223 498.942 79.1665 498.674 77.8436C498.307 75.9692 498.524 74.0274 499.295 72.28C500.171 70.2625 501.66 68.5722 503.551 67.449C505.695 66.2401 508.223 65.9046 510.608 66.5124C513.216 67.1197 515.481 68.7284 516.913 70.9911L516.496 70.8149C518.122 70.4303 519.831 70.6169 521.336 71.3435C522.625 71.9238 523.726 72.8518 524.517 74.0233C525.246 75.1772 525.609 76.5256 525.555 77.89C525.521 79.1732 525.158 80.4262 524.5 81.5287C523.843 82.6312 522.913 83.5463 521.8 84.1861L521.661 83.5185C522.663 83.6355 523.62 83.9969 524.45 84.5709C525.279 85.1449 525.955 85.9139 526.418 86.8102C526.858 87.6063 527.123 88.4876 527.193 89.3947C527.263 90.3018 527.138 91.2134 526.826 92.0678C526.31 93.4512 525.428 94.6688 524.276 95.5913C523.123 96.5138 521.742 97.1067 520.279 97.3069C518.384 97.5627 516.455 97.2766 514.715 96.4816C514.257 96.2848 513.817 96.049 513.399 95.7769C513.121 95.5822 512.982 95.4802 512.991 95.4616C513 95.4431 513.603 95.814 514.799 96.2683C516.503 96.9451 518.356 97.1532 520.168 96.8711C521.531 96.6566 522.812 96.0794 523.875 95.2001C524.939 94.3208 525.747 93.1717 526.214 91.8731C526.487 91.0989 526.59 90.2751 526.516 89.4575C526.443 88.6399 526.194 87.8478 525.787 87.1348C525.373 86.3416 524.771 85.6617 524.034 85.1542C523.297 84.6468 522.447 84.3271 521.559 84.2232L520.363 84.1305L521.41 83.5555C522.408 82.9727 523.24 82.1445 523.827 81.1497C524.415 80.1549 524.738 79.0264 524.767 77.8714C524.808 76.6579 524.485 75.4597 523.84 74.4313C523.148 73.3927 522.186 72.5624 521.058 72.0296C519.712 71.3792 518.184 71.209 516.728 71.5475L516.459 71.6217L516.31 71.3806C514.988 69.2855 512.897 67.7912 510.487 67.2171C508.27 66.6439 505.916 66.953 503.922 68.0795C502.137 69.1165 500.72 70.6856 499.87 72.5675C499.127 74.1943 498.895 76.0078 499.202 77.7694C499.688 80.3329 501.155 82.6055 503.292 84.1026C504.074 84.6263 504.906 85.0706 505.777 85.4286Z" fill="#263238"/>
<path d="M445.385 77.7973C445.387 77.637 445.412 77.4777 445.459 77.3244C445.562 76.8778 445.701 76.4405 445.876 76.017C446.529 74.4007 447.53 72.9477 448.806 71.7608C450.755 69.9041 453.282 68.7716 455.965 68.5525C457.663 68.4237 459.369 68.6426 460.979 69.1958C462.59 69.7491 464.07 70.625 465.33 71.7701L464.913 71.7144C468.074 70.0442 471.73 69.5638 475.215 70.3606C477.84 70.982 480.239 72.3244 482.142 74.2366C483.877 75.9802 485.151 78.1278 485.851 80.4864L485.563 80.2453C488.319 80.6313 490.932 81.7096 493.157 83.3794C494.883 84.6611 496.352 86.2559 497.488 88.0807C498.222 89.2581 498.79 90.5312 499.175 91.8639C499.324 92.331 499.42 92.813 499.463 93.3012C498.893 91.5466 498.112 89.8682 497.135 88.3032C495.985 86.5639 494.523 85.0519 492.824 83.8431C490.656 82.275 488.132 81.2712 485.48 80.9222H485.257L485.192 80.7089C484.501 78.4737 483.272 76.4422 481.613 74.793C479.814 72.9683 477.54 71.6835 475.048 71.0839C471.739 70.3263 468.268 70.77 465.256 72.3357L465.024 72.4563L464.839 72.2801C463.653 71.1927 462.26 70.3556 460.743 69.8187C459.227 69.2818 457.617 69.0561 456.011 69.1552C453.45 69.3306 451.021 70.359 449.112 72.0761C447.846 73.1962 446.821 74.5622 446.099 76.0911C445.598 77.1853 445.44 77.8158 445.385 77.7973Z" fill="#263238"/>
<path d="M388.533 147.444C388.533 147.444 389.535 145.664 397.259 146.674C404.983 147.685 435.583 168.873 435.583 168.873C435.583 168.873 430.019 190.766 446.849 194.938C459.107 197.98 465.607 194.558 465.607 194.558C465.607 194.558 486.128 220.077 487.806 230.48C487.806 230.48 388.913 299.673 404.964 292.153L388.533 292.338V147.444Z" fill="#16B99B"/>
<path d="M486.202 225.798C486.47 226.53 490.3 231.093 486.508 251.418C483.058 269.88 467.962 288.509 467.962 288.509L437.863 261.423L486.202 225.798Z" fill="#16B99B"/>
<path d="M470.503 240.272C470.365 240.44 470.21 240.592 470.04 240.727L468.658 241.932C467.434 242.962 465.654 244.436 463.419 246.216C458.959 249.777 452.728 254.608 445.801 259.875C438.874 265.142 432.541 269.861 427.951 273.292L422.499 277.28L420.997 278.346C420.832 278.482 420.652 278.597 420.459 278.689C420.607 278.536 420.768 278.396 420.941 278.272L422.388 277.131L427.747 273.023L445.504 259.532C452.44 254.265 458.699 249.48 463.206 245.984L468.538 241.821L469.975 240.69C470.138 240.535 470.315 240.395 470.503 240.272Z" fill="#263238"/>
<path d="M420.459 65.437H201.43V369.867H420.459V65.437Z" fill="white"/>
<path d="M420.459 65.437H201.43V175.624H420.459V65.437Z" fill="#16B99B"/>
<path d="M397.64 74.2646H358.713C352.937 74.2646 348.254 78.9475 348.254 84.7242V85.8091C348.254 91.5857 352.937 96.2686 358.713 96.2686H397.64C403.417 96.2686 408.1 91.5857 408.1 85.8091V84.7242C408.1 78.9475 403.417 74.2646 397.64 74.2646Z" fill="#263238"/>
<path d="M382.534 202.607C382.534 202.737 352.417 202.848 315.289 202.848C278.161 202.848 248.025 202.737 248.025 202.607C248.025 202.477 278.134 202.366 315.289 202.366C352.445 202.366 382.534 202.468 382.534 202.607Z" fill="#263238"/>
<path d="M382.534 232.28C382.534 232.409 352.417 232.521 315.289 232.521C278.161 232.521 248.025 232.409 248.025 232.28C248.025 232.15 278.134 232.039 315.289 232.039C352.445 232.039 382.534 232.15 382.534 232.28Z" fill="#263238"/>
<path d="M382.534 261.961C382.534 262.091 352.417 262.202 315.289 262.202C278.161 262.202 248.025 262.091 248.025 261.961C248.025 261.831 278.134 261.72 315.289 261.72C352.445 261.72 382.534 261.822 382.534 261.961Z" fill="#263238"/>
<path d="M381.979 296.168H250.409C237.473 296.168 226.986 306.655 226.986 319.591V322.048C226.986 334.984 237.473 345.471 250.409 345.471H381.979C394.915 345.471 405.401 334.984 405.401 322.048V319.591C405.401 306.655 394.915 296.168 381.979 296.168Z" fill="#C35899"/>
<path d="M258.698 158.58C257.732 158.357 256.815 157.961 255.99 157.412L257.344 154.38C258.047 154.834 258.812 155.184 259.616 155.418C260.439 155.675 261.295 155.81 262.157 155.817C263.733 155.817 264.53 155.418 264.53 154.63C264.529 154.424 264.463 154.224 264.341 154.058C264.22 153.891 264.049 153.767 263.853 153.703C263.148 153.423 262.419 153.209 261.674 153.063C260.729 152.881 259.799 152.626 258.893 152.303C258.16 152.037 257.506 151.59 256.992 151.005C256.44 150.326 256.16 149.467 256.204 148.594C256.192 147.734 256.448 146.891 256.936 146.183C257.48 145.419 258.234 144.83 259.106 144.486C260.235 144.04 261.444 143.829 262.657 143.865C263.609 143.866 264.558 143.975 265.485 144.189C266.348 144.369 267.177 144.682 267.943 145.117L266.672 148.177C265.443 147.47 264.056 147.084 262.639 147.055C262.02 147.008 261.401 147.133 260.849 147.416C260.681 147.507 260.54 147.64 260.441 147.803C260.341 147.966 260.287 148.153 260.283 148.343C260.287 148.541 260.354 148.732 260.474 148.889C260.594 149.045 260.762 149.16 260.951 149.215C261.645 149.483 262.362 149.688 263.093 149.827C264.037 150.01 264.967 150.261 265.875 150.578C266.586 150.859 267.222 151.304 267.729 151.876C268.293 152.545 268.579 153.405 268.527 154.278C268.536 155.125 268.283 155.954 267.804 156.652C267.247 157.41 266.489 157.998 265.615 158.349C264.489 158.796 263.284 159.01 262.073 158.979C260.936 158.992 259.801 158.858 258.698 158.58Z" fill="white"/>
<path d="M273.377 147.426H268.898V144.152H281.954V147.426H277.494V158.729H273.377V147.426Z" fill="white"/>
<path d="M292.525 155.901H286.368L285.218 158.683H281.018L287.444 144.106H291.505L297.996 158.683H293.712L292.525 155.901ZM291.32 152.859L289.465 148.223L287.61 152.859H291.32Z" fill="white"/>
<path d="M312.99 144.152V158.729H309.596L303.161 150.968V158.729H299.127V144.152H302.521L308.947 151.923V144.152H312.99Z" fill="white"/>
<path d="M315.883 144.152H322.772C324.24 144.136 325.692 144.453 327.019 145.08C328.204 145.63 329.202 146.513 329.894 147.62C330.562 148.793 330.914 150.119 330.914 151.469C330.914 152.818 330.562 154.144 329.894 155.317C329.205 156.427 328.205 157.31 327.019 157.857C325.694 158.489 324.24 158.806 322.772 158.785H315.883V144.152ZM322.605 155.437C323.709 155.489 324.79 155.11 325.619 154.38C326.346 153.576 326.749 152.53 326.749 151.445C326.749 150.361 326.346 149.315 325.619 148.511C324.793 147.774 323.711 147.391 322.605 147.444H320.009V155.437H322.605Z" fill="white"/>
<path d="M342.652 155.901H336.495L335.345 158.683H331.145L337.57 144.106H341.632L348.123 158.683H343.792L342.652 155.901ZM341.446 152.859L339.592 148.223L337.737 152.859H341.446Z" fill="white"/>
<path d="M355.625 154.853H353.371V158.729H349.264V144.152H355.921C357.099 144.127 358.268 144.352 359.352 144.811C360.283 145.195 361.073 145.855 361.617 146.702C362.161 147.549 362.432 148.543 362.394 149.549C362.438 150.518 362.191 151.478 361.683 152.305C361.176 153.132 360.432 153.787 359.547 154.185L362.69 158.766H358.277L355.625 154.853ZM357.581 147.963C357.028 147.556 356.347 147.359 355.662 147.407H353.371V151.672H355.662C356.347 151.721 357.028 151.524 357.581 151.116C357.799 150.92 357.97 150.677 358.08 150.406C358.191 150.134 358.239 149.841 358.221 149.549C358.241 149.256 358.196 148.962 358.091 148.688C357.985 148.414 357.821 148.167 357.609 147.963H357.581Z" fill="white"/>
<path d="M364.656 144.152H371.518C372.986 144.136 374.438 144.453 375.765 145.08C376.947 145.633 377.945 146.515 378.639 147.62C379.308 148.793 379.659 150.119 379.659 151.469C379.659 152.818 379.308 154.144 378.639 155.317C377.948 156.425 376.949 157.307 375.765 157.857C374.439 158.489 372.986 158.806 371.518 158.785H364.656V144.152ZM371.379 155.437C372.48 155.492 373.559 155.112 374.383 154.38C375.116 153.579 375.523 152.532 375.523 151.445C375.523 150.359 375.116 149.312 374.383 148.511C373.562 147.772 372.482 147.389 371.379 147.444H368.736V155.437H371.379Z" fill="white"/>
<path d="M366.882 82.6654C367.151 82.7919 367.39 82.9731 367.584 83.1973C367.779 83.4215 367.924 83.6838 368.012 83.9674C368.099 84.2511 368.126 84.5498 368.091 84.8445C368.056 85.1393 367.96 85.4235 367.81 85.679C367.582 86.0113 367.258 86.2667 366.882 86.4116C366.455 86.5952 365.993 86.6838 365.528 86.6712H364.342V88.2939H362.979V82.4058H365.528C365.993 82.3977 366.454 82.4861 366.882 82.6654ZM366.382 85.2988C366.49 85.2068 366.575 85.0912 366.631 84.961C366.687 84.8308 366.713 84.6894 366.706 84.5478C366.716 84.403 366.692 84.258 366.635 84.1243C366.579 83.9907 366.492 83.8721 366.382 83.7781C366.112 83.5868 365.784 83.4951 365.454 83.5185H364.351V85.5585H365.454C365.775 85.5755 366.092 85.484 366.354 85.2988H366.382Z" fill="white"/>
<path d="M369.793 88.0623C369.41 87.8825 369.088 87.5958 368.865 87.237C368.653 86.8708 368.541 86.455 368.541 86.0316C368.541 85.6082 368.653 85.1923 368.865 84.8261C369.091 84.4696 369.412 84.1837 369.793 84.0009C370.191 83.8059 370.629 83.7046 371.072 83.7046C371.516 83.7046 371.954 83.8059 372.352 84.0009C372.63 84.1481 372.875 84.3498 373.073 84.5939C373.271 84.8381 373.417 85.1196 373.504 85.4217C373.59 85.7239 373.615 86.0404 373.577 86.3523C373.538 86.6642 373.437 86.9651 373.279 87.237C373.055 87.5945 372.733 87.8807 372.352 88.0623C371.954 88.2572 371.516 88.3585 371.072 88.3585C370.629 88.3585 370.191 88.2572 369.793 88.0623ZM371.898 86.9403C372.117 86.6809 372.237 86.3525 372.237 86.013C372.237 85.6736 372.117 85.3451 371.898 85.0858C371.793 84.9728 371.665 84.8836 371.522 84.8244C371.38 84.7652 371.226 84.7374 371.072 84.7427C370.917 84.7378 370.762 84.7659 370.618 84.825C370.475 84.8841 370.345 84.973 370.238 85.0858C370.019 85.3451 369.899 85.6736 369.899 86.013C369.899 86.3525 370.019 86.6809 370.238 86.9403C370.345 87.053 370.475 87.1419 370.618 87.201C370.762 87.2602 370.917 87.2882 371.072 87.2834C371.229 87.2852 371.383 87.253 371.526 87.1889C371.668 87.1249 371.795 87.0305 371.898 86.9125V86.9403Z" fill="white"/>
<path d="M378.25 83.9911C378.595 84.1785 378.879 84.462 379.066 84.8071C379.261 85.1856 379.363 85.6053 379.363 86.0311C379.363 86.457 379.261 86.8766 379.066 87.2551C378.879 87.6003 378.595 87.8837 378.25 88.0711C377.902 88.2658 377.508 88.365 377.109 88.3586C376.856 88.3746 376.602 88.3339 376.366 88.2392C376.13 88.1446 375.919 87.9984 375.746 87.8115V89.9256H374.43V83.7686H375.681V84.2879C375.859 84.088 376.08 83.9314 376.328 83.8302C376.575 83.7289 376.843 83.6857 377.109 83.7037C377.508 83.6973 377.902 83.7965 378.25 83.9911ZM377.703 86.9398C377.922 86.6805 378.042 86.352 378.042 86.0126C378.042 85.6731 377.922 85.3447 377.703 85.0853C377.484 84.8668 377.187 84.744 376.878 84.744C376.568 84.744 376.271 84.8668 376.052 85.0853C375.833 85.3447 375.713 85.6731 375.713 86.0126C375.713 86.352 375.833 86.6805 376.052 86.9398C376.271 87.1584 376.568 87.2812 376.878 87.2812C377.187 87.2812 377.484 87.1584 377.703 86.9398Z" fill="white"/>
<path d="M384.798 83.769V88.2941H383.574V87.7563C383.402 87.9508 383.19 88.1058 382.952 88.2106C382.705 88.3122 382.441 88.3627 382.174 88.359C381.915 88.3726 381.656 88.3344 381.413 88.2469C381.169 88.1593 380.946 88.024 380.755 87.849C380.571 87.643 380.431 87.4023 380.341 87.1411C380.252 86.88 380.216 86.6036 380.236 86.3283V83.769H381.552V86.1336C381.552 86.8661 381.858 87.2277 382.48 87.2277C382.619 87.2331 382.759 87.2086 382.888 87.1558C383.018 87.103 383.134 87.0232 383.231 86.9217C383.445 86.6624 383.548 86.3293 383.518 85.9945V83.7598L384.798 83.769Z" fill="white"/>
<path d="M386.012 82.0532H387.328V88.2937H386.012V82.0532Z" fill="white"/>
<path d="M391.982 84.205C392.184 84.398 392.34 84.6342 392.438 84.8959C392.536 85.1577 392.574 85.4381 392.548 85.7164V88.2942H391.324V87.7286C391.173 87.9499 390.965 88.1257 390.721 88.2368C390.478 88.348 390.208 88.3903 389.942 88.3591C389.624 88.3707 389.307 88.3105 389.015 88.1829C388.779 88.0802 388.577 87.9131 388.431 87.7008C388.297 87.4868 388.226 87.2393 388.227 86.9868C388.222 86.7948 388.263 86.6045 388.347 86.4318C388.431 86.2591 388.555 86.1091 388.709 85.9946C389.147 85.721 389.66 85.5943 390.174 85.633H391.213C391.22 85.511 391.2 85.3889 391.155 85.2752C391.111 85.1616 391.042 85.059 390.953 84.9746C390.73 84.8066 390.453 84.7244 390.174 84.7428C389.931 84.7414 389.69 84.7822 389.46 84.8633C389.246 84.9286 389.044 85.0323 388.867 85.1693L388.403 84.2421C388.671 84.0569 388.969 83.919 389.284 83.8341C389.632 83.7412 389.99 83.6944 390.35 83.695C390.939 83.6527 391.522 83.8349 391.982 84.205ZM390.87 87.3206C391.042 87.2193 391.171 87.0573 391.231 86.8662V86.4026H390.304C389.766 86.4026 389.497 86.5788 389.497 86.9311C389.494 87.0095 389.511 87.0875 389.547 87.1574C389.583 87.2272 389.636 87.2867 389.701 87.3298C389.859 87.4388 390.048 87.4912 390.239 87.4782C390.46 87.4902 390.68 87.4352 390.87 87.3206Z" fill="white"/>
<path d="M395.628 83.871C395.923 83.7547 396.238 83.6979 396.555 83.7041V84.9095H396.259C396.098 84.9002 395.937 84.9233 395.786 84.9774C395.635 85.0316 395.496 85.1157 395.378 85.2248C395.264 85.3495 395.176 85.4959 395.121 85.6552C395.065 85.8146 395.042 85.9836 395.053 86.152V88.2848H393.773V83.7597H395.025V84.3531C395.181 84.143 395.389 83.9768 395.628 83.871Z" fill="white"/>
<path d="M282.771 325.813C281.682 325.236 280.774 324.369 280.147 323.309C279.514 322.21 279.182 320.965 279.182 319.697C279.182 318.43 279.514 317.184 280.147 316.086C280.777 315.03 281.685 314.168 282.771 313.591C283.843 313.051 285.018 312.746 286.218 312.698C287.417 312.65 288.613 312.86 289.725 313.313C290.653 313.708 291.473 314.318 292.118 315.093L290.105 316.948C289.692 316.445 289.17 316.041 288.58 315.767C287.989 315.493 287.344 315.354 286.693 315.362C285.909 315.349 285.136 315.541 284.449 315.919C283.8 316.275 283.267 316.809 282.91 317.458C282.55 318.151 282.363 318.921 282.363 319.702C282.363 320.483 282.55 321.253 282.91 321.946C283.269 322.593 283.802 323.126 284.449 323.485C285.137 323.86 285.91 324.048 286.693 324.032C287.345 324.043 287.992 323.904 288.583 323.628C289.174 323.352 289.695 322.945 290.105 322.437L292.118 324.292C291.472 325.075 290.649 325.692 289.716 326.091C288.703 326.513 287.614 326.725 286.517 326.712C285.213 326.727 283.926 326.418 282.771 325.813Z" fill="white"/>
<path d="M303.466 317.069C303.891 317.531 304.217 318.076 304.422 318.669C304.628 319.263 304.71 319.892 304.662 320.518V326.481H301.639V320.982C301.687 320.319 301.496 319.661 301.101 319.127C300.899 318.917 300.653 318.753 300.381 318.647C300.109 318.541 299.816 318.496 299.525 318.515C299.183 318.495 298.84 318.548 298.52 318.672C298.201 318.795 297.911 318.985 297.67 319.229C297.179 319.812 296.936 320.565 296.994 321.325V326.481H293.971V312.108H296.994V317.143C297.405 316.731 297.902 316.415 298.449 316.216C299.043 315.999 299.672 315.893 300.304 315.9C300.883 315.87 301.462 315.957 302.006 316.158C302.549 316.359 303.046 316.669 303.466 317.069Z" fill="white"/>
<path d="M309.512 325.942C308.663 325.51 307.953 324.848 307.462 324.032C306.962 323.192 306.709 322.228 306.73 321.25C306.712 320.273 306.965 319.31 307.462 318.469C307.957 317.658 308.666 317 309.512 316.568C310.422 316.098 311.436 315.862 312.46 315.882C313.482 315.861 314.493 316.097 315.4 316.568C316.243 317 316.949 317.658 317.44 318.469C317.937 319.31 318.19 320.273 318.172 321.25C318.193 322.228 317.94 323.192 317.44 324.032C316.952 324.847 316.245 325.509 315.4 325.942C314.493 326.413 313.482 326.649 312.46 326.629C311.436 326.648 310.422 326.412 309.512 325.942ZM314.37 323.374C314.851 322.777 315.112 322.035 315.112 321.269C315.112 320.503 314.851 319.761 314.37 319.164C314.125 318.907 313.827 318.706 313.498 318.571C313.169 318.437 312.815 318.374 312.46 318.385C312.104 318.375 311.749 318.439 311.419 318.573C311.088 318.707 310.789 318.909 310.541 319.164C310.056 319.758 309.791 320.502 309.791 321.269C309.791 322.036 310.056 322.78 310.541 323.374C310.789 323.629 311.088 323.831 311.419 323.965C311.749 324.099 312.104 324.163 312.46 324.153C312.816 324.163 313.17 324.098 313.499 323.963C313.829 323.827 314.125 323.623 314.37 323.365V323.374Z" fill="white"/>
<path d="M322.188 325.943C321.342 325.509 320.636 324.848 320.148 324.032C319.648 323.192 319.394 322.228 319.415 321.251C319.397 320.273 319.651 319.31 320.148 318.469C320.638 317.658 321.345 317 322.188 316.568C323.11 316.118 324.13 315.904 325.155 315.947C326.177 315.926 327.187 316.162 328.094 316.633C328.933 317.068 329.636 317.726 330.125 318.534C330.622 319.375 330.876 320.338 330.858 321.316C330.879 322.293 330.625 323.257 330.125 324.097C329.639 324.91 328.936 325.572 328.094 326.007C327.187 326.478 326.177 326.714 325.155 326.694C324.119 326.696 323.098 326.438 322.188 325.943ZM327.01 323.365C327.495 322.771 327.76 322.027 327.76 321.26C327.76 320.493 327.495 319.749 327.01 319.155C326.765 318.899 326.47 318.697 326.142 318.562C325.815 318.428 325.463 318.365 325.109 318.376C324.752 318.364 324.397 318.428 324.066 318.562C323.736 318.696 323.437 318.898 323.189 319.155C322.698 319.746 322.428 320.491 322.428 321.26C322.428 322.029 322.698 322.774 323.189 323.365C323.437 323.622 323.736 323.824 324.066 323.958C324.397 324.092 324.752 324.155 325.109 324.144C325.463 324.155 325.815 324.092 326.142 323.957C326.47 323.823 326.765 323.621 327.01 323.365Z" fill="white"/>
<path d="M333.834 326.313C333.137 326.153 332.47 325.881 331.859 325.507L332.87 323.337C333.39 323.662 333.956 323.909 334.548 324.07C335.179 324.251 335.831 324.344 336.486 324.348C337.766 324.348 338.406 324.039 338.406 323.42C338.401 323.27 338.347 323.126 338.251 323.01C338.155 322.894 338.024 322.813 337.877 322.781C337.359 322.61 336.825 322.495 336.282 322.438C335.568 322.337 334.862 322.189 334.168 321.992C333.616 321.815 333.12 321.495 332.731 321.065C332.511 320.812 332.343 320.518 332.238 320.2C332.133 319.881 332.093 319.545 332.119 319.211C332.112 318.579 332.314 317.963 332.694 317.458C333.123 316.912 333.698 316.5 334.354 316.271C335.182 315.969 336.059 315.824 336.941 315.845C337.68 315.842 338.417 315.923 339.138 316.086C339.774 316.207 340.385 316.432 340.947 316.753L339.945 318.905C339.029 318.386 337.993 318.117 336.941 318.126C336.441 318.097 335.942 318.19 335.485 318.395C335.349 318.455 335.232 318.552 335.147 318.675C335.062 318.798 335.012 318.941 335.003 319.09C335.001 319.246 335.052 319.398 335.148 319.521C335.244 319.645 335.379 319.731 335.531 319.767C336.071 319.945 336.627 320.07 337.191 320.138C337.898 320.248 338.598 320.4 339.287 320.592C339.826 320.756 340.312 321.06 340.696 321.473C341.121 321.966 341.337 322.604 341.299 323.254C341.303 323.878 341.097 324.485 340.715 324.978C340.271 325.52 339.682 325.925 339.018 326.147C338.172 326.442 337.28 326.583 336.384 326.564C335.527 326.589 334.67 326.505 333.834 326.313Z" fill="white"/>
<path d="M353.288 322.122H345.416C345.541 322.742 345.9 323.289 346.417 323.652C347.001 324.039 347.692 324.234 348.392 324.208C348.885 324.22 349.376 324.138 349.839 323.967C350.275 323.794 350.672 323.536 351.007 323.207L352.611 324.95C352.064 325.53 351.395 325.981 350.653 326.271C349.911 326.561 349.113 326.683 348.318 326.629C347.237 326.653 346.165 326.418 345.193 325.942C344.329 325.519 343.605 324.856 343.107 324.032C342.607 323.192 342.353 322.228 342.374 321.25C342.358 320.275 342.608 319.313 343.098 318.469C343.572 317.66 344.262 316.998 345.091 316.558C345.963 316.091 346.94 315.855 347.929 315.872C348.897 315.852 349.854 316.079 350.71 316.531C351.524 316.949 352.2 317.593 352.658 318.385C353.142 319.258 353.385 320.243 353.362 321.241C353.362 321.241 353.325 321.621 353.288 322.122ZM346.222 318.775C345.746 319.175 345.441 319.742 345.369 320.36H350.506C350.428 319.744 350.122 319.18 349.648 318.778C349.175 318.377 348.568 318.167 347.947 318.19C347.32 318.17 346.708 318.377 346.222 318.775Z" fill="white"/>
<path d="M234.349 207.614C234.006 207.617 233.676 207.491 233.421 207.262L229.712 203.97C229.573 203.851 229.46 203.704 229.378 203.54C229.296 203.376 229.248 203.198 229.235 203.015C229.223 202.832 229.248 202.648 229.307 202.475C229.367 202.301 229.46 202.141 229.582 202.004C229.828 201.744 230.163 201.588 230.52 201.567C230.877 201.547 231.228 201.663 231.502 201.893L234.219 204.286L239.847 198.073C240.099 197.821 240.437 197.676 240.793 197.667C241.148 197.657 241.494 197.784 241.759 198.021C242.024 198.259 242.187 198.589 242.216 198.943C242.246 199.298 242.138 199.65 241.915 199.927L235.359 207.16C235.231 207.301 235.075 207.415 234.902 207.493C234.728 207.571 234.539 207.613 234.349 207.614Z" fill="#16B99B"/>
<path d="M234.349 237.287C234.008 237.292 233.677 237.17 233.422 236.944L229.713 233.643C229.576 233.521 229.464 233.373 229.384 233.208C229.304 233.043 229.257 232.864 229.247 232.681C229.236 232.498 229.261 232.315 229.321 232.142C229.381 231.969 229.475 231.809 229.597 231.672C229.718 231.535 229.866 231.423 230.031 231.344C230.196 231.264 230.375 231.217 230.558 231.206C230.927 231.184 231.29 231.31 231.567 231.556L234.284 233.949L239.912 227.727C240.164 227.475 240.503 227.33 240.858 227.32C241.214 227.311 241.559 227.438 241.824 227.675C242.089 227.913 242.253 228.243 242.282 228.597C242.311 228.952 242.203 229.304 241.98 229.581L235.425 236.814C235.291 236.967 235.126 237.089 234.94 237.171C234.754 237.253 234.552 237.292 234.349 237.287Z" fill="#16B99B"/>
<path d="M234.349 266.968C234.007 266.971 233.676 266.845 233.422 266.616L229.713 263.324C229.576 263.202 229.464 263.055 229.384 262.89C229.304 262.725 229.257 262.546 229.247 262.363C229.236 262.18 229.261 261.997 229.321 261.824C229.381 261.65 229.475 261.491 229.597 261.354C229.718 261.217 229.866 261.105 230.031 261.025C230.196 260.945 230.375 260.899 230.558 260.888C230.927 260.866 231.29 260.992 231.567 261.238L234.284 263.621L239.912 257.408C240.164 257.157 240.503 257.012 240.858 257.002C241.214 256.992 241.559 257.119 241.824 257.357C242.089 257.594 242.253 257.924 242.282 258.279C242.311 258.633 242.203 258.985 241.98 259.263L235.425 266.495C235.291 266.649 235.125 266.77 234.939 266.852C234.754 266.934 234.552 266.973 234.349 266.968Z" fill="#16B99B"/>
<path d="M325.693 98.5308L329.411 106.06L337.72 107.266L331.711 113.126L333.13 121.397L325.693 117.493L318.266 121.397L319.684 113.126L313.676 107.266L321.984 106.06L325.693 98.5308Z" fill="white"/>
<path d="M311.255 98.5308L316.17 108.48L327.148 110.075L319.202 117.818L321.075 128.75L311.255 123.585L301.445 128.75L303.318 117.818L295.371 110.075L306.35 108.48L311.255 98.5308Z" fill="white"/>
<path d="M322.271 130.392L311.246 124.605L300.23 130.392L302.335 118.133L293.424 109.445L305.738 107.655L311.246 96.5278L316.745 107.655L329.059 109.445L320.148 118.124L322.271 130.392ZM297.337 110.696L304.31 117.503L302.659 127.109L311.292 122.565L319.916 127.109L318.237 117.512L325.21 110.706L315.567 109.306L311.246 100.561L306.925 109.296L297.337 110.696Z" fill="#16B99B"/>
<path d="M420.459 369.876C420.459 367.929 420.367 245.428 420.237 65.4369L420.459 65.6594H201.458L201.699 65.4183C201.699 179.333 201.699 284.726 201.653 369.858L201.458 369.663L420.487 369.858L201.458 370.053H201.263V369.858C201.263 284.726 201.263 179.333 201.217 65.4183V65.1772H201.486H420.487H420.663V65.3905C420.543 245.475 420.459 367.929 420.459 369.876Z" fill="#263238"/>
<path d="M313.277 248.581C313.277 248.581 310.032 243.703 316.532 243.434C323.032 243.166 354.985 248.581 365.816 253.996L375.292 259.949L365.028 280.256H341.438C338.73 280.256 331.155 275.62 338.193 272.411C338.193 272.411 331.155 267.534 337.655 263.473C337.655 263.473 332.508 259.68 337.924 254.534L313.277 248.581Z" fill="#FFBF9D"/>
<path d="M367.716 256.008L421.497 284.179L441.675 264.873L465.719 286.534C465.719 286.534 441.888 314.519 428.081 316.957C414.274 319.396 360.502 276.158 360.502 276.158L367.716 256.008Z" fill="#FFBF9D"/>
<path d="M424.141 169.439L423.64 169.726C422.859 170.127 422.026 170.418 421.164 170.589C420.755 170.634 420.349 170.709 419.95 170.811C419.712 170.94 419.485 171.089 419.273 171.256C417.798 172.119 415.925 172.184 414.275 172.397C412.42 172.592 410.427 172.879 408.98 174.075C407.534 175.271 406.885 177.654 408.155 179.036C407.557 179.046 406.983 179.274 406.541 179.677C406.099 180.08 405.819 180.63 405.753 181.224C405.71 181.823 405.82 182.422 406.073 182.965C406.327 183.509 406.714 183.979 407.2 184.331C408.183 185.028 409.337 185.444 410.538 185.536C409.845 185.653 409.224 186.034 408.807 186.6C408.39 187.166 408.209 187.872 408.303 188.568C408.428 189.262 408.728 189.911 409.175 190.457C409.621 191.002 410.198 191.424 410.853 191.684C412.166 192.195 413.574 192.41 414.98 192.315C416.791 192.249 418.606 192.287 420.413 192.426C420.413 192.426 420.413 194.215 420.413 195.022C420.413 196.116 420.413 195.263 420.413 195.263C421.392 195.835 422.447 196.262 423.547 196.534C425.986 197.331 427.563 197.98 429.76 198.546C431.401 198.972 433.015 199.176 433.896 198.073C436.019 195.421 430.437 191.582 430.437 191.582C432.078 190.655 431.633 185.397 429.195 184.683C430.4 184.09 431.16 184.155 431.874 183.005C432.243 182.441 432.474 181.797 432.548 181.127C432.622 180.457 432.538 179.779 432.301 179.147C432.039 178.527 431.58 178.009 430.996 177.674C430.411 177.339 429.733 177.205 429.065 177.293C429.854 176.614 430.418 175.712 430.685 174.705C430.951 173.699 430.907 172.636 430.558 171.655C430.099 170.484 429.224 169.523 428.1 168.957C427.543 168.675 426.94 168.496 426.32 168.428C426.087 168.387 425.848 168.387 425.615 168.428C425.511 168.46 425.414 168.511 425.328 168.577C424.92 168.79 424.567 169.151 424.141 169.439Z" fill="#FFBF9D"/>
<path d="M426.746 163.393C426.729 162.811 426.586 162.24 426.329 161.719C426.071 161.197 425.704 160.737 425.253 160.37C424.122 159.6 422.082 159.693 420.737 159.99C420.654 161.622 420.737 162.447 420.626 164.079C420.626 164.422 420.728 164.691 420.57 165.006C420.153 165.813 418.382 165.934 417.566 166.351C416.892 166.76 416.401 167.412 416.192 168.172C415.983 168.933 416.074 169.744 416.444 170.44C416.852 171.117 417.445 171.662 418.153 172.012C418.862 172.362 419.655 172.502 420.441 172.415C422.021 172.215 423.469 171.431 424.502 170.217C425.325 169.295 425.949 168.213 426.335 167.039C426.721 165.865 426.861 164.623 426.746 163.393Z" fill="#FFBF9D"/>
<path d="M429.519 177.2C429.519 177.33 424.762 177.849 418.865 178.35C412.967 178.851 408.173 179.157 408.164 179.018C408.155 178.878 412.921 178.368 418.818 177.868C424.716 177.367 429.51 177.061 429.519 177.2Z" fill="#FF9A6C"/>
<path d="M429.519 184.646C428.612 184.924 427.68 185.11 426.737 185.202C424.468 185.54 422.184 185.763 419.894 185.87C417.204 186.009 414.775 185.981 413.013 185.87C412.06 185.875 411.11 185.781 410.176 185.592C411.122 185.498 412.073 185.476 413.022 185.527C414.775 185.527 417.195 185.527 419.866 185.36C422.536 185.193 424.947 185.017 426.69 184.841C427.627 184.71 428.572 184.645 429.519 184.646Z" fill="#FF9A6C"/>
<path d="M429.52 191.925C428.761 192.14 427.98 192.265 427.192 192.296C425.746 192.444 423.743 192.555 421.527 192.583C419.311 192.611 417.308 192.583 415.861 192.583C415.074 192.62 414.285 192.576 413.506 192.453C414.278 192.3 415.065 192.229 415.852 192.24C417.308 192.175 419.311 192.147 421.517 192.11C423.724 192.073 425.727 192.027 427.174 191.962C427.953 191.884 428.738 191.872 429.52 191.925Z" fill="#FF9A6C"/>
<path d="M426.311 165.785C426.492 166.401 426.439 167.061 426.163 167.64C425.603 169.036 424.546 170.175 423.196 170.839C422.485 171.219 421.74 171.529 420.97 171.766C420.346 171.987 419.699 172.14 419.041 172.22C418.574 172.273 418.104 172.165 417.706 171.914C417.437 171.729 417.363 171.553 417.382 171.534C417.861 171.847 418.438 171.973 419.004 171.887C419.637 171.756 420.257 171.573 420.859 171.339C421.596 171.087 422.312 170.777 423.001 170.412C424.261 169.792 425.277 168.767 425.885 167.501C426.076 166.942 426.218 166.368 426.311 165.785Z" fill="#FF9A6C"/>
<path d="M174.576 121.676H15.4297V342.884H174.576V121.676Z" fill="white"/>
<path d="M174.576 121.676H15.4297V201.745H174.576V121.676Z" fill="#455A64"/>
<path d="M147.027 221.366C147.027 221.505 125.143 221.616 98.1598 221.616C71.1764 221.616 49.293 221.505 49.293 221.366C49.293 221.227 71.1671 221.125 98.1598 221.125C125.152 221.125 147.027 221.208 147.027 221.366Z" fill="#263238"/>
<path d="M147.027 242.906C147.027 243.036 125.143 243.147 98.1598 243.147C71.1764 243.147 49.293 243.036 49.293 242.906C49.293 242.776 71.1671 242.665 98.1598 242.665C125.152 242.665 147.027 242.776 147.027 242.906Z" fill="#263238"/>
<path d="M147.027 264.474C147.027 264.604 125.143 264.716 98.1598 264.716C71.1764 264.716 49.293 264.604 49.293 264.474C49.293 264.345 71.1671 264.224 98.1598 264.224C125.152 264.224 147.027 264.335 147.027 264.474Z" fill="#263238"/>
<path d="M146.618 289.334H51.0265C41.6241 289.334 34.002 296.957 34.002 306.359V308.13C34.002 317.533 41.6241 325.155 51.0265 325.155H146.618C156.021 325.155 163.643 317.533 163.643 308.13V306.359C163.643 296.957 156.021 289.334 146.618 289.334Z" fill="#455A64"/>
<path d="M80.2261 181.985C80.5742 182.453 80.7539 183.025 80.7361 183.608C80.7522 184.033 80.6571 184.455 80.4604 184.832C80.2636 185.209 79.972 185.529 79.6141 185.759C78.6318 186.32 77.5069 186.581 76.378 186.51H70.666V175.93H76.0812C77.16 175.86 78.2343 176.122 79.1598 176.681C79.4932 176.901 79.7658 177.202 79.9522 177.555C80.1386 177.908 80.2328 178.303 80.2261 178.703C80.2301 179.179 80.1017 179.648 79.8552 180.056C79.5938 180.456 79.2283 180.776 78.7981 180.984C79.3634 181.167 79.8608 181.516 80.2261 181.985ZM73.624 178.091V180.131H75.7196C76.7303 180.131 77.231 179.787 77.231 179.101C77.231 178.415 76.7303 178.091 75.7196 178.091H73.624ZM77.7132 183.274C77.7132 182.56 77.1847 182.198 76.1369 182.198H73.624V184.35H76.1369C77.1847 184.35 77.7132 183.988 77.7132 183.274Z" fill="white"/>
<path d="M89.3874 184.452H84.9087L84.0834 186.51H81.0234L85.6598 175.921H88.6085L93.3375 186.51H90.2219L89.3874 184.452ZM88.5065 182.245L87.1527 178.86L85.7896 182.245H88.5065Z" fill="white"/>
<path d="M95.4053 186.408C94.7044 186.243 94.0386 185.954 93.4395 185.555L94.4224 183.348C94.9342 183.678 95.4898 183.934 96.0729 184.109C96.6728 184.298 97.2982 184.395 97.9274 184.396C99.0772 184.396 99.6521 184.109 99.6521 183.534C99.6504 183.384 99.6022 183.238 99.5142 183.117C99.4261 182.996 99.3026 182.905 99.1607 182.857C98.6485 182.66 98.1214 182.505 97.5843 182.393C96.9049 182.257 96.2356 182.074 95.5814 181.846C95.0532 181.657 94.5811 181.339 94.2091 180.919C93.8039 180.428 93.5986 179.802 93.6342 179.166C93.6268 178.542 93.8113 177.93 94.1627 177.414C94.5602 176.861 95.107 176.433 95.7391 176.18C96.5604 175.863 97.4366 175.712 98.3169 175.735C99.0097 175.733 99.7004 175.811 100.375 175.967C101.003 176.103 101.607 176.335 102.165 176.653L101.238 178.879C100.346 178.364 99.3375 178.083 98.3076 178.063C97.8593 178.029 97.4102 178.119 97.0094 178.322C96.8858 178.389 96.7827 178.488 96.7108 178.609C96.639 178.73 96.6012 178.868 96.6014 179.009C96.6032 179.153 96.651 179.292 96.7377 179.408C96.8244 179.523 96.9456 179.607 97.0836 179.648C97.5884 179.841 98.1099 179.987 98.6414 180.084C99.3208 180.225 99.9899 180.41 100.644 180.641C101.17 180.834 101.641 181.152 102.017 181.568C102.439 182.061 102.652 182.7 102.61 183.348C102.617 183.964 102.432 184.567 102.082 185.073C101.682 185.628 101.132 186.056 100.496 186.306C99.6771 186.634 98.8 186.792 97.9181 186.77C97.0683 186.759 96.2235 186.638 95.4053 186.408Z" fill="white"/>
<path d="M103.975 175.93H106.97V186.52H103.975V175.93Z" fill="white"/>
<path d="M111.393 186.019C110.529 185.573 109.807 184.895 109.306 184.062C108.814 183.196 108.555 182.217 108.555 181.22C108.555 180.224 108.814 179.244 109.306 178.378C109.806 177.542 110.529 176.862 111.393 176.412C112.316 175.938 113.341 175.699 114.378 175.717C115.276 175.702 116.167 175.876 116.993 176.227C117.751 176.554 118.417 177.064 118.931 177.71L117.021 179.435C116.729 179.05 116.352 178.737 115.92 178.521C115.487 178.306 115.01 178.193 114.527 178.192C113.992 178.184 113.465 178.315 112.997 178.573C112.55 178.817 112.185 179.188 111.949 179.639C111.693 180.124 111.565 180.667 111.578 181.215C111.567 181.767 111.694 182.312 111.949 182.801C112.188 183.25 112.552 183.621 112.997 183.867C113.465 184.125 113.992 184.256 114.527 184.248C115.01 184.247 115.487 184.134 115.92 183.919C116.352 183.703 116.729 183.39 117.021 183.005L118.931 184.73C118.414 185.373 117.75 185.882 116.993 186.213C116.167 186.564 115.276 186.738 114.378 186.723C113.34 186.742 112.313 186.5 111.393 186.019Z" fill="white"/>
<path d="M74.5339 310.865C73.7373 310.437 73.0758 309.795 72.6238 309.011C72.1676 308.212 71.9277 307.307 71.9277 306.387C71.9277 305.466 72.1676 304.562 72.6238 303.763C73.096 303.028 73.7553 302.433 74.5339 302.038C75.3122 301.643 76.1664 301.42 77.0385 301.385C77.9106 301.35 78.78 301.503 79.5875 301.834C80.259 302.121 80.8531 302.563 81.3215 303.123L79.8564 304.477C79.5591 304.111 79.1826 303.817 78.7554 303.618C78.3281 303.419 77.8613 303.319 77.3899 303.327C76.8204 303.314 76.2575 303.452 75.7579 303.726C75.2873 303.984 74.8987 304.37 74.6359 304.838C74.3645 305.339 74.2272 305.901 74.2372 306.47C74.2246 307.04 74.3621 307.603 74.6359 308.102C74.8924 308.553 75.2677 308.925 75.7208 309.178C76.2204 309.452 76.7833 309.589 77.3528 309.577C77.8258 309.582 78.2938 309.48 78.7213 309.278C79.1487 309.075 79.5243 308.778 79.8194 308.408L81.2844 309.762C80.8209 310.336 80.2218 310.785 79.5412 311.069C78.8068 311.374 78.018 311.525 77.223 311.515C76.2869 311.523 75.3633 311.3 74.5339 310.865Z" fill="white"/>
<path d="M89.5742 304.514C89.8797 304.851 90.1136 305.247 90.2619 305.677C90.4101 306.108 90.4695 306.563 90.4365 307.017V311.311H88.2482V307.314C88.2828 306.835 88.1409 306.36 87.8494 305.979C87.7038 305.825 87.5261 305.706 87.3289 305.629C87.1318 305.552 86.9201 305.519 86.7089 305.534C86.4659 305.522 86.2231 305.561 85.9963 305.649C85.7694 305.737 85.5636 305.871 85.3922 306.044C85.0325 306.469 84.8558 307.019 84.9007 307.574V311.283H82.7031V300.916H84.9007V304.569C85.1903 304.276 85.5376 304.045 85.9207 303.893C86.354 303.733 86.8129 303.655 87.2745 303.661C87.6957 303.639 88.117 303.703 88.5124 303.85C88.9078 303.997 89.2691 304.223 89.5742 304.514Z" fill="white"/>
<path d="M93.9588 310.968C93.3461 310.649 92.8328 310.168 92.4752 309.577C92.1291 308.963 91.9473 308.27 91.9473 307.565C91.9473 306.86 92.1291 306.167 92.4752 305.552C92.8359 304.966 93.3486 304.489 93.9588 304.171C94.6242 303.831 95.3628 303.659 96.1101 303.67C96.8515 303.657 97.5844 303.83 98.2428 304.171C98.8526 304.486 99.363 304.964 99.7171 305.552C100.069 306.165 100.255 306.858 100.255 307.565C100.255 308.271 100.069 308.965 99.7171 309.577C99.3644 310.168 98.8538 310.65 98.2428 310.968C97.5836 311.306 96.8507 311.475 96.1101 311.459C95.3636 311.474 94.6249 311.305 93.9588 310.968ZM97.4917 309.113C97.8663 308.694 98.0597 308.144 98.0295 307.583C98.0443 307.307 98.0043 307.03 97.9121 306.769C97.8198 306.508 97.6769 306.268 97.4917 306.062C97.314 305.876 97.0993 305.728 96.8615 305.629C96.6236 305.53 96.3677 305.482 96.1101 305.488C95.8494 305.479 95.5899 305.527 95.3487 305.626C95.1074 305.725 94.8898 305.874 94.7099 306.062C94.523 306.267 94.3785 306.507 94.2846 306.768C94.1907 307.029 94.1493 307.306 94.1628 307.583C94.1362 308.145 94.3328 308.695 94.7099 309.113C94.8906 309.3 95.1086 309.447 95.3498 309.545C95.591 309.642 95.8501 309.688 96.1101 309.679C96.3684 309.683 96.6247 309.633 96.8626 309.533C97.1005 309.432 97.3148 309.283 97.4917 309.095V309.113Z" fill="white"/>
<path d="M103.176 310.968C102.562 310.651 102.048 310.169 101.692 309.577C101.416 309.129 101.235 308.63 101.16 308.109C101.085 307.588 101.118 307.058 101.258 306.551C101.397 306.044 101.639 305.571 101.969 305.161C102.299 304.752 102.71 304.414 103.176 304.171C103.842 303.841 104.575 303.67 105.318 303.67C106.061 303.67 106.794 303.841 107.46 304.171C108.07 304.486 108.58 304.964 108.934 305.552C109.287 306.164 109.472 306.858 109.472 307.565C109.472 308.271 109.287 308.965 108.934 309.577C108.582 310.168 108.071 310.65 107.46 310.968C106.792 311.291 106.06 311.459 105.318 311.459C104.576 311.459 103.844 311.291 103.176 310.968ZM106.709 309.113C107.079 308.699 107.272 308.156 107.247 307.602C107.261 307.325 107.222 307.049 107.129 306.788C107.037 306.527 106.894 306.287 106.709 306.081C106.53 305.893 106.314 305.745 106.074 305.646C105.835 305.547 105.577 305.499 105.318 305.506C105.059 305.499 104.801 305.547 104.562 305.646C104.322 305.745 104.106 305.893 103.927 306.081C103.74 306.286 103.596 306.526 103.502 306.787C103.408 307.048 103.367 307.325 103.38 307.602C103.353 308.164 103.55 308.714 103.927 309.132C104.107 309.318 104.323 309.464 104.563 309.561C104.802 309.659 105.06 309.705 105.318 309.697C105.579 309.7 105.838 309.648 106.078 309.544C106.318 309.441 106.533 309.287 106.709 309.094V309.113Z" fill="white"/>
<path d="M111.633 311.227C111.127 311.116 110.644 310.919 110.205 310.643L110.938 309.076C111.317 309.31 111.73 309.485 112.162 309.595C112.616 309.729 113.088 309.798 113.562 309.799C114.489 309.799 114.953 309.577 114.953 309.113C114.951 309.004 114.912 308.899 114.843 308.815C114.774 308.731 114.679 308.672 114.572 308.649C114.196 308.528 113.807 308.447 113.413 308.408C112.893 308.34 112.378 308.231 111.874 308.084C111.476 307.964 111.115 307.744 110.826 307.444C110.511 307.077 110.351 306.601 110.381 306.118C110.374 305.66 110.521 305.212 110.799 304.847C111.114 304.449 111.535 304.147 112.013 303.976C112.608 303.762 113.236 303.658 113.868 303.67C114.404 303.668 114.939 303.727 115.463 303.846C115.923 303.939 116.367 304.102 116.779 304.328L116.047 305.895C115.383 305.517 114.631 305.322 113.868 305.33C113.505 305.309 113.143 305.376 112.811 305.524C112.711 305.569 112.625 305.64 112.563 305.73C112.5 305.82 112.464 305.925 112.458 306.034C112.459 306.147 112.496 306.256 112.565 306.345C112.634 306.434 112.73 306.497 112.839 306.526C113.234 306.652 113.641 306.742 114.053 306.795C114.566 306.875 115.073 306.984 115.574 307.119C115.967 307.239 116.319 307.463 116.594 307.768C116.748 307.944 116.866 308.148 116.941 308.369C117.016 308.59 117.046 308.824 117.03 309.057C117.037 309.51 116.89 309.951 116.612 310.309C116.287 310.701 115.861 310.996 115.379 311.162C114.762 311.376 114.112 311.476 113.46 311.459C112.843 311.46 112.23 311.382 111.633 311.227Z" fill="white"/>
<path d="M125.793 308.186H120.071C120.159 308.636 120.418 309.035 120.795 309.298C121.22 309.58 121.722 309.723 122.232 309.706C122.589 309.716 122.945 309.656 123.28 309.53C123.598 309.403 123.888 309.214 124.133 308.974L125.301 310.244C124.901 310.664 124.414 310.99 123.874 311.2C123.334 311.41 122.754 311.498 122.176 311.459C121.394 311.477 120.618 311.309 119.914 310.968C119.283 310.661 118.755 310.178 118.393 309.577C118.043 308.965 117.859 308.273 117.859 307.569C117.859 306.865 118.043 306.173 118.393 305.562C118.741 304.973 119.245 304.491 119.849 304.171C120.481 303.832 121.19 303.659 121.907 303.67C122.608 303.659 123.3 303.825 123.92 304.152C124.512 304.464 125.002 304.94 125.329 305.524C125.666 306.163 125.826 306.88 125.793 307.602C125.793 307.602 125.793 307.824 125.793 308.186ZM120.637 305.747C120.295 306.039 120.076 306.45 120.025 306.897H123.734C123.673 306.451 123.453 306.042 123.113 305.747C122.765 305.458 122.323 305.306 121.87 305.32C121.421 305.309 120.983 305.46 120.637 305.747Z" fill="white"/>
<path d="M39.3431 225.362C39.0025 225.364 38.6729 225.242 38.4158 225.019L35.6989 222.618C35.4223 222.372 35.2546 222.026 35.2329 221.656C35.2111 221.287 35.3371 220.924 35.583 220.647C35.8289 220.37 36.1747 220.203 36.5442 220.181C36.9138 220.159 37.2768 220.285 37.5535 220.531L39.2503 222.024L43.0892 217.777C43.3439 217.541 43.6777 217.408 44.0251 217.406C44.3725 217.403 44.7083 217.531 44.9664 217.763C45.2245 217.996 45.3863 218.317 45.4198 218.662C45.4534 219.008 45.3563 219.354 45.1477 219.632L40.3909 224.889C40.2585 225.036 40.097 225.154 39.9167 225.236C39.7363 225.317 39.541 225.36 39.3431 225.362Z" fill="#455A64"/>
<path d="M39.3446 246.921C39.0041 246.923 38.6744 246.801 38.4173 246.578L35.7004 244.186C35.5628 244.064 35.4506 243.916 35.37 243.751C35.2895 243.586 35.2423 243.407 35.2311 243.223C35.2085 242.853 35.334 242.489 35.5799 242.211C35.8258 241.933 36.1721 241.764 36.5425 241.741C36.9129 241.719 37.2771 241.844 37.555 242.09L39.2426 243.62L43.0815 239.382C43.1974 239.228 43.3442 239.099 43.5126 239.005C43.681 238.91 43.8672 238.852 44.0594 238.833C44.2516 238.815 44.4456 238.836 44.629 238.897C44.8124 238.957 44.9813 239.055 45.1247 239.184C45.2682 239.313 45.3832 239.471 45.4624 239.647C45.5416 239.823 45.5832 240.014 45.5846 240.207C45.5861 240.4 45.5473 240.592 45.4707 240.769C45.3942 240.946 45.2815 241.106 45.14 241.237L40.3831 246.495C40.2492 246.634 40.0876 246.744 39.9088 246.817C39.73 246.891 39.5378 246.926 39.3446 246.921Z" fill="#455A64"/>
<path d="M39.3431 268.489C39.0025 268.492 38.6729 268.37 38.4158 268.146L35.6989 265.745C35.5619 265.623 35.4503 265.475 35.3703 265.311C35.2903 265.146 35.2436 264.967 35.2329 264.784C35.2221 264.601 35.2475 264.417 35.3076 264.244C35.3676 264.071 35.4612 263.911 35.583 263.774C35.7048 263.637 35.8523 263.526 36.0173 263.446C36.1822 263.366 36.3613 263.319 36.5442 263.308C36.7272 263.298 36.9105 263.323 37.0837 263.383C37.2568 263.443 37.4165 263.537 37.5535 263.658L39.2503 265.151L43.0892 260.904C43.2052 260.75 43.352 260.621 43.5204 260.527C43.6887 260.432 43.875 260.374 44.0672 260.355C44.2594 260.336 44.4534 260.358 44.6368 260.418C44.8202 260.479 44.989 260.577 45.1325 260.706C45.276 260.835 45.391 260.993 45.4701 261.169C45.5493 261.345 45.5909 261.536 45.5924 261.729C45.5938 261.922 45.555 262.114 45.4785 262.291C45.4019 262.468 45.2893 262.628 45.1477 262.759L40.3909 268.017C40.2585 268.164 40.097 268.282 39.9167 268.363C39.7363 268.445 39.541 268.488 39.3431 268.489Z" fill="#455A64"/>
<path d="M101.034 162.225L95.0068 158.97L88.9054 162.086L90.1387 155.354L85.2891 150.514L92.0766 149.605L95.183 143.494L98.1502 149.67L104.919 150.736L99.9584 155.465L101.034 162.225Z" fill="white"/>
<path d="M174.576 342.884C174.576 340.937 174.493 252.429 174.363 121.676L174.576 121.898L15.4481 121.917L15.6892 121.676C15.6892 204.443 15.6892 281.026 15.6428 342.884L15.4481 342.689L174.595 342.884L15.4481 343.079H15.2534V342.884C15.2534 281.026 15.2534 204.443 15.207 121.676V121.435H15.4481H174.576H174.799V121.648C174.669 252.429 174.585 340.983 174.576 342.884Z" fill="#263238"/>
</svg>
