<svg width="49" height="38" viewBox="0 0 49 38" fill="none" xmlns="http://www.w3.org/2000/svg">
<line x1="6.06066" y1="23.3339" x2="19.0607" y2="36.3339" stroke="#16B99B" stroke-width="3"/>
<line x1="17.2499" y1="36.1092" x2="47.085" y2="5.94517" stroke="#16B99B" stroke-width="3"/>
<path d="M0.63 8.25V6.794H3.542V17H1.932V8.25H0.63ZM5.76953 11.764C5.76953 10.1493 6.0402 8.88933 6.58153 7.984C7.1322 7.06933 8.07486 6.612 9.40953 6.612C10.7442 6.612 11.6822 7.06933 12.2235 7.984C12.7742 8.88933 13.0495 10.1493 13.0495 11.764C13.0495 13.3973 12.7742 14.676 12.2235 15.6C11.6822 16.5147 10.7442 16.972 9.40953 16.972C8.07486 16.972 7.1322 16.5147 6.58153 15.6C6.0402 14.676 5.76953 13.3973 5.76953 11.764ZM11.4815 11.764C11.4815 11.008 11.4302 10.3687 11.3275 9.846C11.2342 9.32333 11.0382 8.89867 10.7395 8.572C10.4409 8.236 9.99753 8.068 9.40953 8.068C8.82153 8.068 8.3782 8.236 8.07953 8.572C7.78086 8.89867 7.5802 9.32333 7.47753 9.846C7.3842 10.3687 7.33753 11.008 7.33753 11.764C7.33753 12.548 7.3842 13.206 7.47753 13.738C7.57086 14.27 7.76686 14.6993 8.06553 15.026C8.37353 15.3527 8.82153 15.516 9.40953 15.516C9.99753 15.516 10.4409 15.3527 10.7395 15.026C11.0475 14.6993 11.2482 14.27 11.3415 13.738C11.4349 13.206 11.4815 12.548 11.4815 11.764ZM20.1633 3.784L16.3553 19.45H14.7873L18.5813 3.784H20.1633ZM21.7897 8.25V6.794H24.7017V17H23.0917V8.25H21.7897ZM26.9292 11.764C26.9292 10.1493 27.1999 8.88933 27.7412 7.984C28.2919 7.06933 29.2346 6.612 30.5692 6.612C31.9039 6.612 32.8419 7.06933 33.3832 7.984C33.9339 8.88933 34.2092 10.1493 34.2092 11.764C34.2092 13.3973 33.9339 14.676 33.3832 15.6C32.8419 16.5147 31.9039 16.972 30.5692 16.972C29.2346 16.972 28.2919 16.5147 27.7412 15.6C27.1999 14.676 26.9292 13.3973 26.9292 11.764ZM32.6412 11.764C32.6412 11.008 32.5899 10.3687 32.4872 9.846C32.3939 9.32333 32.1979 8.89867 31.8992 8.572C31.6006 8.236 31.1572 8.068 30.5692 8.068C29.9812 8.068 29.5379 8.236 29.2392 8.572C28.9406 8.89867 28.7399 9.32333 28.6372 9.846C28.5439 10.3687 28.4972 11.008 28.4972 11.764C28.4972 12.548 28.5439 13.206 28.6372 13.738C28.7306 14.27 28.9266 14.6993 29.2252 15.026C29.5332 15.3527 29.9812 15.516 30.5692 15.516C31.1572 15.516 31.6006 15.3527 31.8992 15.026C32.2072 14.6993 32.4079 14.27 32.5012 13.738C32.5946 13.206 32.6412 12.548 32.6412 11.764Z" fill="#8A0505"/>
</svg>
